<svg width="352" height="395" viewBox="0 0 352 395" fill="none" xmlns="http://www.w3.org/2000/svg">
<g clip-path="url(#clip0_3087_6698)">
<rect width="351" height="394.875" transform="translate(0.597656)" fill="#EDF7FF"/>
<rect x="0.597656" width="351" height="270" rx="22.5" fill="#BDE2FF"/>
<path d="M125.431 310.187C125.431 307.87 125.949 305.8 126.984 303.977C128.041 302.132 129.47 300.704 131.27 299.691C133.092 298.656 135.129 298.139 137.379 298.139C140.011 298.139 142.317 298.814 144.297 300.164C146.277 301.514 147.661 303.381 148.449 305.766H143.015C142.475 304.641 141.71 303.797 140.72 303.235C139.752 302.672 138.627 302.391 137.345 302.391C135.972 302.391 134.746 302.717 133.666 303.37C132.609 304 131.776 304.9 131.169 306.07C130.584 307.24 130.291 308.612 130.291 310.187C130.291 311.74 130.584 313.112 131.169 314.305C131.776 315.475 132.609 316.386 133.666 317.039C134.746 317.669 135.972 317.984 137.345 317.984C138.627 317.984 139.752 317.702 140.72 317.14C141.71 316.555 142.475 315.7 143.015 314.575H148.449C147.661 316.982 146.277 318.861 144.297 320.211C142.34 321.539 140.034 322.203 137.379 322.203C135.129 322.203 133.092 321.696 131.27 320.684C129.47 319.649 128.041 318.22 126.984 316.397C125.949 314.575 125.431 312.505 125.431 310.187ZM157.547 297.025V322H152.822V297.025H157.547ZM170.855 322.304C169.055 322.304 167.435 321.91 165.995 321.122C164.555 320.312 163.419 319.176 162.586 317.714C161.776 316.251 161.371 314.564 161.371 312.651C161.371 310.739 161.788 309.051 162.62 307.589C163.475 306.126 164.634 305.001 166.096 304.214C167.559 303.404 169.19 302.999 170.99 302.999C172.79 302.999 174.421 303.404 175.884 304.214C177.346 305.001 178.494 306.126 179.326 307.589C180.181 309.051 180.609 310.739 180.609 312.651C180.609 314.564 180.17 316.251 179.293 317.714C178.438 319.176 177.268 320.312 175.783 321.122C174.32 321.91 172.678 322.304 170.855 322.304ZM170.855 318.186C171.71 318.186 172.509 317.984 173.251 317.579C174.016 317.151 174.624 316.521 175.074 315.689C175.524 314.856 175.749 313.844 175.749 312.651C175.749 310.874 175.276 309.512 174.331 308.567C173.409 307.6 172.273 307.116 170.923 307.116C169.573 307.116 168.436 307.6 167.514 308.567C166.614 309.512 166.164 310.874 166.164 312.651C166.164 314.429 166.603 315.801 167.48 316.769C168.38 317.714 169.505 318.186 170.855 318.186ZM202.064 303.302V322H197.305V319.637C196.697 320.447 195.899 321.089 194.909 321.561C193.941 322.011 192.884 322.236 191.736 322.236C190.274 322.236 188.98 321.932 187.855 321.325C186.73 320.695 185.841 319.784 185.189 318.591C184.559 317.376 184.244 315.936 184.244 314.271V303.302H188.969V313.596C188.969 315.081 189.34 316.229 190.082 317.039C190.825 317.826 191.837 318.22 193.12 318.22C194.425 318.22 195.449 317.826 196.191 317.039C196.934 316.229 197.305 315.081 197.305 313.596V303.302H202.064ZM205.848 312.584C205.848 310.694 206.219 309.017 206.962 307.555C207.727 306.092 208.762 304.967 210.067 304.18C211.372 303.392 212.823 302.999 214.421 302.999C215.636 302.999 216.794 303.269 217.897 303.809C218.999 304.326 219.877 305.024 220.529 305.901V297.025H225.322V322H220.529V319.232C219.944 320.155 219.123 320.897 218.066 321.46C217.008 322.023 215.782 322.304 214.387 322.304C212.812 322.304 211.372 321.899 210.067 321.089C208.762 320.279 207.727 319.142 206.962 317.68C206.219 316.195 205.848 314.496 205.848 312.584ZM220.563 312.651C220.563 311.504 220.338 310.525 219.888 309.715C219.438 308.882 218.831 308.252 218.066 307.825C217.301 307.375 216.479 307.15 215.602 307.15C214.724 307.15 213.914 307.364 213.172 307.791C212.429 308.219 211.822 308.849 211.349 309.681C210.899 310.491 210.674 311.459 210.674 312.584C210.674 313.709 210.899 314.699 211.349 315.554C211.822 316.386 212.429 317.027 213.172 317.477C213.937 317.927 214.747 318.152 215.602 318.152C216.479 318.152 217.301 317.939 218.066 317.511C218.831 317.061 219.438 316.431 219.888 315.621C220.338 314.789 220.563 313.799 220.563 312.651ZM78.1066 354.187C78.1066 351.87 78.6241 349.8 79.6591 347.977C80.7166 346.132 82.1454 344.704 83.9454 343.691C85.7679 342.656 87.8041 342.139 90.0541 342.139C92.6866 342.139 94.9929 342.814 96.9729 344.164C98.9529 345.514 100.337 347.381 101.124 349.766H95.6904C95.1504 348.641 94.3854 347.797 93.3954 347.235C92.4279 346.672 91.3029 346.391 90.0204 346.391C88.6479 346.391 87.4216 346.717 86.3416 347.37C85.2841 348 84.4516 348.9 83.8441 350.07C83.2591 351.24 82.9666 352.612 82.9666 354.187C82.9666 355.74 83.2591 357.112 83.8441 358.305C84.4516 359.475 85.2841 360.386 86.3416 361.039C87.4216 361.669 88.6479 361.984 90.0204 361.984C91.3029 361.984 92.4279 361.702 93.3954 361.14C94.3854 360.555 95.1504 359.7 95.6904 358.575H101.124C100.337 360.982 98.9529 362.861 96.9729 364.211C95.0154 365.539 92.7091 366.203 90.0541 366.203C87.8041 366.203 85.7679 365.696 83.9454 364.684C82.1454 363.649 80.7166 362.22 79.6591 360.397C78.6241 358.575 78.1066 356.505 78.1066 354.187ZM113.8 366.304C112 366.304 110.38 365.91 108.94 365.122C107.5 364.312 106.364 363.176 105.531 361.714C104.721 360.251 104.316 358.564 104.316 356.651C104.316 354.739 104.732 353.051 105.565 351.589C106.42 350.126 107.579 349.001 109.041 348.214C110.504 347.404 112.135 346.999 113.935 346.999C115.735 346.999 117.366 347.404 118.829 348.214C120.291 349.001 121.439 350.126 122.271 351.589C123.126 353.051 123.554 354.739 123.554 356.651C123.554 358.564 123.115 360.251 122.237 361.714C121.382 363.176 120.212 364.312 118.727 365.122C117.265 365.91 115.622 366.304 113.8 366.304ZM113.8 362.186C114.655 362.186 115.454 361.984 116.196 361.579C116.961 361.151 117.569 360.521 118.019 359.689C118.469 358.856 118.694 357.844 118.694 356.651C118.694 354.874 118.221 353.512 117.276 352.567C116.354 351.6 115.217 351.116 113.867 351.116C112.517 351.116 111.381 351.6 110.459 352.567C109.559 353.512 109.109 354.874 109.109 356.651C109.109 358.429 109.547 359.801 110.425 360.769C111.325 361.714 112.45 362.186 113.8 362.186ZM150.577 347.032C152.872 347.032 154.717 347.741 156.112 349.159C157.53 350.554 158.238 352.511 158.238 355.031V366H153.513V355.672C153.513 354.21 153.142 353.096 152.4 352.331C151.657 351.544 150.645 351.15 149.362 351.15C148.08 351.15 147.056 351.544 146.291 352.331C145.548 353.096 145.177 354.21 145.177 355.672V366H140.452V355.672C140.452 354.21 140.081 353.096 139.338 352.331C138.596 351.544 137.583 351.15 136.301 351.15C134.996 351.15 133.961 351.544 133.196 352.331C132.453 353.096 132.082 354.21 132.082 355.672V366H127.357V347.302H132.082V349.564C132.69 348.776 133.466 348.157 134.411 347.707C135.378 347.257 136.436 347.032 137.583 347.032C139.046 347.032 140.351 347.347 141.498 347.977C142.646 348.585 143.535 349.462 144.165 350.61C144.772 349.53 145.65 348.664 146.797 348.011C147.967 347.359 149.227 347.032 150.577 347.032ZM167.785 350.002C168.392 349.147 169.225 348.439 170.282 347.876C171.362 347.291 172.588 346.999 173.961 346.999C175.558 346.999 176.998 347.392 178.281 348.18C179.586 348.967 180.61 350.092 181.352 351.555C182.117 352.995 182.5 354.671 182.5 356.584C182.5 358.496 182.117 360.195 181.352 361.68C180.61 363.142 179.586 364.279 178.281 365.089C176.998 365.899 175.558 366.304 173.961 366.304C172.588 366.304 171.373 366.023 170.316 365.46C169.281 364.897 168.437 364.189 167.785 363.334V374.91H163.06V347.302H167.785V350.002ZM177.673 356.584C177.673 355.459 177.437 354.491 176.965 353.681C176.515 352.849 175.907 352.219 175.142 351.791C174.4 351.364 173.59 351.15 172.712 351.15C171.857 351.15 171.047 351.375 170.282 351.825C169.54 352.252 168.932 352.882 168.46 353.715C168.01 354.547 167.785 355.526 167.785 356.651C167.785 357.776 168.01 358.755 168.46 359.587C168.932 360.42 169.54 361.061 170.282 361.511C171.047 361.939 171.857 362.152 172.712 362.152C173.59 362.152 174.4 361.927 175.142 361.477C175.907 361.027 176.515 360.386 176.965 359.554C177.437 358.721 177.673 357.731 177.673 356.584ZM203.922 347.302V366H199.163V363.637C198.556 364.447 197.757 365.089 196.767 365.561C195.799 366.011 194.742 366.236 193.594 366.236C192.132 366.236 190.838 365.932 189.713 365.325C188.588 364.695 187.699 363.784 187.047 362.591C186.417 361.376 186.102 359.936 186.102 358.271V347.302H190.827V357.596C190.827 359.081 191.198 360.229 191.941 361.039C192.683 361.826 193.696 362.22 194.978 362.22C196.283 362.22 197.307 361.826 198.049 361.039C198.792 360.229 199.163 359.081 199.163 357.596V347.302H203.922ZM214.423 351.184V360.229C214.423 360.859 214.569 361.32 214.861 361.612C215.176 361.882 215.694 362.017 216.414 362.017H218.608V366H215.638C211.655 366 209.664 364.065 209.664 360.195V351.184H207.436V347.302H209.664V342.679H214.423V347.302H218.608V351.184H214.423ZM224.74 345.075C223.907 345.075 223.21 344.816 222.647 344.299C222.107 343.759 221.837 343.095 221.837 342.307C221.837 341.52 222.107 340.867 222.647 340.35C223.21 339.81 223.907 339.54 224.74 339.54C225.572 339.54 226.259 339.81 226.799 340.35C227.361 340.867 227.642 341.52 227.642 342.307C227.642 343.095 227.361 343.759 226.799 344.299C226.259 344.816 225.572 345.075 224.74 345.075ZM227.069 347.302V366H222.344V347.302H227.069ZM242.436 347.032C244.663 347.032 246.463 347.741 247.836 349.159C249.208 350.554 249.894 352.511 249.894 355.031V366H245.169V355.672C245.169 354.187 244.798 353.051 244.056 352.264C243.313 351.454 242.301 351.049 241.018 351.049C239.713 351.049 238.678 351.454 237.913 352.264C237.171 353.051 236.799 354.187 236.799 355.672V366H232.074V347.302H236.799V349.631C237.429 348.821 238.228 348.191 239.196 347.741C240.186 347.269 241.266 347.032 242.436 347.032ZM262.049 346.999C263.444 346.999 264.67 347.28 265.728 347.842C266.785 348.382 267.618 349.091 268.225 349.969V347.302H272.984V366.135C272.984 367.868 272.635 369.409 271.938 370.759C271.24 372.131 270.194 373.211 268.799 373.999C267.404 374.809 265.716 375.214 263.736 375.214C261.081 375.214 258.899 374.595 257.189 373.358C255.501 372.12 254.545 370.433 254.32 368.295H259.011C259.259 369.15 259.788 369.825 260.598 370.32C261.43 370.838 262.431 371.096 263.601 371.096C264.974 371.096 266.088 370.68 266.943 369.848C267.798 369.038 268.225 367.8 268.225 366.135V363.232C267.618 364.11 266.774 364.841 265.694 365.426C264.636 366.011 263.421 366.304 262.049 366.304C260.474 366.304 259.034 365.899 257.729 365.089C256.424 364.279 255.389 363.142 254.624 361.68C253.881 360.195 253.51 358.496 253.51 356.584C253.51 354.694 253.881 353.017 254.624 351.555C255.389 350.092 256.413 348.967 257.695 348.18C259 347.392 260.451 346.999 262.049 346.999ZM268.225 356.651C268.225 355.504 268 354.525 267.55 353.715C267.1 352.882 266.493 352.252 265.728 351.825C264.963 351.375 264.141 351.15 263.264 351.15C262.386 351.15 261.576 351.364 260.834 351.791C260.091 352.219 259.484 352.849 259.011 353.681C258.561 354.491 258.336 355.459 258.336 356.584C258.336 357.709 258.561 358.699 259.011 359.554C259.484 360.386 260.091 361.027 260.834 361.477C261.599 361.927 262.409 362.152 263.264 362.152C264.141 362.152 264.963 361.939 265.728 361.511C266.493 361.061 267.1 360.431 267.55 359.621C268 358.789 268.225 357.799 268.225 356.651Z" fill="#005FA6"/>
<path d="M176.1 132.184C159.54 132.184 146.1 145.624 146.1 162.184C146.1 166.624 147.06 170.824 148.86 174.544C149.34 175.624 149.88 176.644 150.48 177.604C155.64 186.304 165.18 192.184 176.1 192.184C187.02 192.184 196.56 186.304 201.72 177.604C202.32 176.644 202.86 175.624 203.34 174.544C205.14 170.824 206.1 166.624 206.1 162.184C206.1 145.624 192.66 132.184 176.1 132.184ZM188.52 159.604L175.74 171.424C174.9 172.204 173.76 172.624 172.68 172.624C171.54 172.624 170.4 172.204 169.5 171.304L163.56 165.364C161.82 163.624 161.82 160.744 163.56 159.004C165.3 157.264 168.18 157.264 169.92 159.004L172.8 161.884L182.4 153.004C184.26 151.324 187.08 151.444 188.76 153.244C190.44 155.044 190.32 157.864 188.52 159.604Z" fill="#005FA6"/>
<path d="M225.298 165.42C223.138 167.34 220.798 168.96 218.278 170.28C216.118 171.36 213.958 169.26 214.318 166.86C214.558 165.12 214.678 163.32 214.678 161.46C214.678 139.98 197.158 122.46 175.678 122.46C154.198 122.46 136.678 139.98 136.678 161.46C136.678 164.22 136.978 166.86 137.518 169.44C137.938 171.54 136.318 173.64 134.218 173.1C110.518 167.34 110.398 130.86 136.918 129H137.218C117.958 75.4202 199.198 54.0002 208.498 110.28C234.478 113.58 244.978 148.2 225.298 165.42Z" fill="#005FA6"/>
</g>
<defs>
<clipPath id="clip0_3087_6698">
<rect width="351" height="394.875" fill="white" transform="translate(0.597656)"/>
</clipPath>
</defs>
</svg>
