<svg width="351" height="395" viewBox="0 0 351 395" fill="none" xmlns="http://www.w3.org/2000/svg">
<rect width="351" height="394.875" fill="#EDF7FF"/>
<rect y="9" width="351" height="270" rx="22.5" fill="#BDE2FF"/>
<path d="M88.4804 319.187C88.4804 316.87 88.9979 314.8 90.0329 312.977C91.0904 311.132 92.5191 309.704 94.3191 308.691C96.1416 307.656 98.1779 307.139 100.428 307.139C103.06 307.139 105.367 307.814 107.347 309.164C109.327 310.514 110.71 312.381 111.498 314.766H106.064C105.524 313.641 104.759 312.797 103.769 312.235C102.802 311.672 101.677 311.391 100.394 311.391C99.0216 311.391 97.7954 311.717 96.7154 312.37C95.6579 313 94.8254 313.9 94.2179 315.07C93.6329 316.24 93.3404 317.612 93.3404 319.187C93.3404 320.74 93.6329 322.112 94.2179 323.305C94.8254 324.475 95.6579 325.386 96.7154 326.039C97.7954 326.669 99.0216 326.984 100.394 326.984C101.677 326.984 102.802 326.702 103.769 326.14C104.759 325.555 105.524 324.7 106.064 323.575H111.498C110.71 325.982 109.327 327.861 107.347 329.211C105.389 330.539 103.083 331.203 100.428 331.203C98.1779 331.203 96.1416 330.696 94.3191 329.684C92.5191 328.649 91.0904 327.22 90.0329 325.397C88.9979 323.575 88.4804 321.505 88.4804 319.187ZM124.174 331.304C122.374 331.304 120.754 330.91 119.314 330.122C117.874 329.312 116.737 328.176 115.905 326.714C115.095 325.251 114.69 323.564 114.69 321.651C114.69 319.739 115.106 318.051 115.939 316.589C116.794 315.126 117.952 314.001 119.415 313.214C120.877 312.404 122.509 311.999 124.309 311.999C126.109 311.999 127.74 312.404 129.202 313.214C130.665 314.001 131.812 315.126 132.645 316.589C133.5 318.051 133.927 319.739 133.927 321.651C133.927 323.564 133.489 325.251 132.611 326.714C131.756 328.176 130.586 329.312 129.101 330.122C127.639 330.91 125.996 331.304 124.174 331.304ZM124.174 327.186C125.029 327.186 125.827 326.984 126.57 326.579C127.335 326.151 127.942 325.521 128.392 324.689C128.842 323.856 129.067 322.844 129.067 321.651C129.067 319.874 128.595 318.512 127.65 317.567C126.727 316.6 125.591 316.116 124.241 316.116C122.891 316.116 121.755 316.6 120.832 317.567C119.932 318.512 119.482 319.874 119.482 321.651C119.482 323.429 119.921 324.801 120.799 325.769C121.699 326.714 122.824 327.186 124.174 327.186ZM148.092 312.032C150.32 312.032 152.12 312.741 153.492 314.159C154.865 315.554 155.551 317.511 155.551 320.031V331H150.826V320.672C150.826 319.187 150.455 318.051 149.712 317.264C148.97 316.454 147.957 316.049 146.675 316.049C145.37 316.049 144.335 316.454 143.57 317.264C142.827 318.051 142.456 319.187 142.456 320.672V331H137.731V312.302H142.456V314.631C143.086 313.821 143.885 313.191 144.852 312.741C145.842 312.269 146.922 312.032 148.092 312.032ZM165.883 316.184V325.229C165.883 325.859 166.029 326.32 166.322 326.612C166.637 326.882 167.154 327.017 167.874 327.017H170.068V331H167.098C163.115 331 161.124 329.065 161.124 325.195V316.184H158.897V312.302H161.124V307.679H165.883V312.302H170.068V316.184H165.883ZM191.185 321.246C191.185 321.921 191.14 322.529 191.05 323.069H177.381C177.494 324.419 177.966 325.476 178.799 326.241C179.631 327.006 180.655 327.389 181.87 327.389C183.625 327.389 184.874 326.635 185.616 325.127H190.713C190.173 326.927 189.138 328.412 187.608 329.582C186.078 330.73 184.199 331.304 181.971 331.304C180.171 331.304 178.551 330.91 177.111 330.122C175.694 329.312 174.58 328.176 173.77 326.714C172.983 325.251 172.589 323.564 172.589 321.651C172.589 319.716 172.983 318.017 173.77 316.555C174.558 315.092 175.66 313.967 177.078 313.18C178.495 312.392 180.126 311.999 181.971 311.999C183.749 311.999 185.335 312.381 186.73 313.146C188.148 313.911 189.239 315.002 190.004 316.42C190.791 317.815 191.185 319.424 191.185 321.246ZM186.291 319.896C186.269 318.681 185.83 317.714 184.975 316.994C184.12 316.251 183.074 315.88 181.836 315.88C180.666 315.88 179.676 316.24 178.866 316.96C178.079 317.657 177.595 318.636 177.415 319.896H186.291ZM205.333 312.032C207.56 312.032 209.36 312.741 210.733 314.159C212.105 315.554 212.791 317.511 212.791 320.031V331H208.066V320.672C208.066 319.187 207.695 318.051 206.953 317.264C206.21 316.454 205.198 316.049 203.915 316.049C202.61 316.049 201.575 316.454 200.81 317.264C200.068 318.051 199.696 319.187 199.696 320.672V331H194.971V312.302H199.696V314.631C200.326 313.821 201.125 313.191 202.093 312.741C203.083 312.269 204.163 312.032 205.333 312.032ZM223.123 316.184V325.229C223.123 325.859 223.27 326.32 223.562 326.612C223.877 326.882 224.395 327.017 225.115 327.017H227.308V331H224.338C220.356 331 218.365 329.065 218.365 325.195V316.184H216.137V312.302H218.365V307.679H223.123V312.302H227.308V316.184H223.123ZM257.548 331L254.983 328.469C252.8 330.426 250.134 331.405 246.984 331.405C245.251 331.405 243.721 331.112 242.394 330.527C241.089 329.92 240.076 329.076 239.356 327.996C238.636 326.894 238.276 325.622 238.276 324.182C238.276 322.63 238.715 321.235 239.593 319.997C240.47 318.76 241.764 317.759 243.474 316.994C242.866 316.251 242.428 315.542 242.158 314.867C241.888 314.17 241.753 313.427 241.753 312.64C241.753 311.56 242.034 310.592 242.596 309.737C243.159 308.86 243.958 308.174 244.993 307.679C246.05 307.184 247.276 306.936 248.671 306.936C250.089 306.936 251.304 307.206 252.316 307.746C253.329 308.286 254.083 309.006 254.578 309.906C255.073 310.806 255.286 311.807 255.219 312.91H250.629C250.651 312.167 250.471 311.605 250.089 311.222C249.706 310.817 249.189 310.615 248.536 310.615C247.906 310.615 247.378 310.806 246.95 311.189C246.545 311.549 246.343 312.021 246.343 312.606C246.343 313.169 246.511 313.731 246.849 314.294C247.186 314.834 247.738 315.509 248.503 316.319L254.443 322.191C254.488 322.146 254.521 322.101 254.544 322.056C254.566 322.011 254.589 321.966 254.611 321.921L256.535 318.715H261.463L259.1 322.866C258.65 323.744 258.166 324.576 257.649 325.364L263.353 331H257.548ZM247.119 327.49C248.964 327.49 250.595 326.837 252.013 325.532L246.208 319.795C244.025 320.762 242.934 322.135 242.934 323.912C242.934 324.925 243.316 325.78 244.081 326.477C244.846 327.152 245.859 327.49 247.119 327.49ZM71.2531 351.442C73.7281 351.442 75.8994 351.926 77.7669 352.894C79.6569 353.861 81.1081 355.245 82.1206 357.045C83.1556 358.822 83.6731 360.892 83.6731 363.255C83.6731 365.617 83.1556 367.687 82.1206 369.465C81.1081 371.22 79.6569 372.581 77.7669 373.549C75.8994 374.516 73.7281 375 71.2531 375H63.0181V351.442H71.2531ZM71.0844 370.984C73.5594 370.984 75.4719 370.309 76.8219 368.959C78.1719 367.609 78.8469 365.707 78.8469 363.255C78.8469 360.802 78.1719 358.89 76.8219 357.517C75.4719 356.122 73.5594 355.425 71.0844 355.425H67.7431V370.984H71.0844ZM89.9438 354.075C89.1113 354.075 88.4138 353.816 87.8513 353.299C87.3113 352.759 87.0413 352.095 87.0413 351.307C87.0413 350.52 87.3113 349.867 87.8513 349.35C88.4138 348.81 89.1113 348.54 89.9438 348.54C90.7763 348.54 91.4625 348.81 92.0025 349.35C92.565 349.867 92.8463 350.52 92.8463 351.307C92.8463 352.095 92.565 352.759 92.0025 353.299C91.4625 353.816 90.7763 354.075 89.9438 354.075ZM92.2725 356.302V375H87.5475V356.302H92.2725ZM104.602 355.999C105.997 355.999 107.223 356.28 108.281 356.842C109.338 357.382 110.171 358.091 110.778 358.969V356.302H115.537V375.135C115.537 376.868 115.188 378.409 114.491 379.759C113.793 381.131 112.747 382.211 111.352 382.999C109.957 383.809 108.27 384.214 106.29 384.214C103.635 384.214 101.452 383.595 99.7421 382.358C98.0546 381.12 97.0983 379.433 96.8733 377.295H101.565C101.812 378.15 102.341 378.825 103.151 379.32C103.983 379.838 104.985 380.096 106.155 380.096C107.527 380.096 108.641 379.68 109.496 378.848C110.351 378.038 110.778 376.8 110.778 375.135V372.232C110.171 373.11 109.327 373.841 108.247 374.426C107.19 375.011 105.975 375.304 104.602 375.304C103.027 375.304 101.587 374.899 100.282 374.089C98.9771 373.279 97.9421 372.142 97.1771 370.68C96.4346 369.195 96.0633 367.496 96.0633 365.584C96.0633 363.694 96.4346 362.017 97.1771 360.555C97.9421 359.092 98.9658 357.967 100.248 357.18C101.553 356.392 103.005 355.999 104.602 355.999ZM110.778 365.651C110.778 364.504 110.553 363.525 110.103 362.715C109.653 361.882 109.046 361.252 108.281 360.825C107.516 360.375 106.695 360.15 105.817 360.15C104.94 360.15 104.13 360.364 103.387 360.791C102.645 361.219 102.037 361.849 101.565 362.681C101.115 363.491 100.89 364.459 100.89 365.584C100.89 366.709 101.115 367.699 101.565 368.554C102.037 369.386 102.645 370.027 103.387 370.477C104.152 370.927 104.962 371.152 105.817 371.152C106.695 371.152 107.516 370.939 108.281 370.511C109.046 370.061 109.653 369.431 110.103 368.621C110.553 367.789 110.778 366.799 110.778 365.651ZM122.886 354.075C122.053 354.075 121.356 353.816 120.793 353.299C120.253 352.759 119.983 352.095 119.983 351.307C119.983 350.52 120.253 349.867 120.793 349.35C121.356 348.81 122.053 348.54 122.886 348.54C123.718 348.54 124.404 348.81 124.944 349.35C125.507 349.867 125.788 350.52 125.788 351.307C125.788 352.095 125.507 352.759 124.944 353.299C124.404 353.816 123.718 354.075 122.886 354.075ZM125.214 356.302V375H120.489V356.302H125.214ZM135.721 360.184V369.229C135.721 369.859 135.868 370.32 136.16 370.612C136.475 370.882 136.993 371.017 137.713 371.017H139.906V375H136.936C132.954 375 130.963 373.065 130.963 369.195V360.184H128.735V356.302H130.963V351.679H135.721V356.302H139.906V360.184H135.721ZM142.427 365.584C142.427 363.694 142.799 362.017 143.541 360.555C144.306 359.092 145.33 357.967 146.612 357.18C147.917 356.392 149.369 355.999 150.966 355.999C152.361 355.999 153.576 356.28 154.611 356.842C155.669 357.405 156.512 358.114 157.142 358.969V356.302H161.901V375H157.142V372.266C156.535 373.144 155.691 373.875 154.611 374.46C153.554 375.023 152.327 375.304 150.932 375.304C149.357 375.304 147.917 374.899 146.612 374.089C145.33 373.279 144.306 372.142 143.541 370.68C142.799 369.195 142.427 367.496 142.427 365.584ZM157.142 365.651C157.142 364.504 156.917 363.525 156.467 362.715C156.017 361.882 155.41 361.252 154.645 360.825C153.88 360.375 153.059 360.15 152.181 360.15C151.304 360.15 150.494 360.364 149.751 360.791C149.009 361.219 148.401 361.849 147.929 362.681C147.479 363.491 147.254 364.459 147.254 365.584C147.254 366.709 147.479 367.699 147.929 368.554C148.401 369.386 149.009 370.027 149.751 370.477C150.516 370.927 151.326 371.152 152.181 371.152C153.059 371.152 153.88 370.939 154.645 370.511C155.41 370.061 156.017 369.431 156.467 368.621C156.917 367.789 157.142 366.799 157.142 365.651ZM171.578 350.025V375H166.853V350.025H171.578ZM210.647 351.442V375H205.922V359.677L199.611 375H196.034L189.689 359.677V375H184.964V351.442H190.33L197.822 368.959L205.315 351.442H210.647ZM233.038 365.246C233.038 365.921 232.993 366.529 232.903 367.069H219.234C219.346 368.419 219.819 369.476 220.651 370.241C221.484 371.006 222.508 371.389 223.723 371.389C225.478 371.389 226.726 370.635 227.469 369.127H232.565C232.025 370.927 230.99 372.412 229.46 373.582C227.93 374.73 226.051 375.304 223.824 375.304C222.024 375.304 220.404 374.91 218.964 374.122C217.546 373.312 216.433 372.176 215.623 370.714C214.835 369.251 214.441 367.564 214.441 365.651C214.441 363.716 214.835 362.017 215.623 360.555C216.41 359.092 217.513 357.967 218.93 357.18C220.348 356.392 221.979 355.999 223.824 355.999C225.601 355.999 227.188 356.381 228.583 357.146C230 357.911 231.091 359.002 231.856 360.42C232.644 361.815 233.038 363.424 233.038 365.246ZM228.144 363.896C228.121 362.681 227.683 361.714 226.828 360.994C225.973 360.251 224.926 359.88 223.689 359.88C222.519 359.88 221.529 360.24 220.719 360.96C219.931 361.657 219.448 362.636 219.268 363.896H228.144ZM235.609 365.584C235.609 363.694 235.98 362.017 236.723 360.555C237.488 359.092 238.523 357.967 239.828 357.18C241.133 356.392 242.584 355.999 244.182 355.999C245.397 355.999 246.555 356.269 247.658 356.809C248.76 357.326 249.638 358.024 250.29 358.901V350.025H255.083V375H250.29V372.232C249.705 373.155 248.884 373.897 247.827 374.46C246.769 375.023 245.543 375.304 244.148 375.304C242.573 375.304 241.133 374.899 239.828 374.089C238.523 373.279 237.488 372.142 236.723 370.68C235.98 369.195 235.609 367.496 235.609 365.584ZM250.324 365.651C250.324 364.504 250.099 363.525 249.649 362.715C249.199 361.882 248.592 361.252 247.827 360.825C247.062 360.375 246.24 360.15 245.363 360.15C244.485 360.15 243.675 360.364 242.933 360.791C242.19 361.219 241.583 361.849 241.11 362.681C240.66 363.491 240.435 364.459 240.435 365.584C240.435 366.709 240.66 367.699 241.11 368.554C241.583 369.386 242.19 370.027 242.933 370.477C243.698 370.927 244.508 371.152 245.363 371.152C246.24 371.152 247.062 370.939 247.827 370.511C248.592 370.061 249.199 369.431 249.649 368.621C250.099 367.789 250.324 366.799 250.324 365.651ZM262.431 354.075C261.599 354.075 260.901 353.816 260.339 353.299C259.799 352.759 259.529 352.095 259.529 351.307C259.529 350.52 259.799 349.867 260.339 349.35C260.901 348.81 261.599 348.54 262.431 348.54C263.264 348.54 263.95 348.81 264.49 349.35C265.053 349.867 265.334 350.52 265.334 351.307C265.334 352.095 265.053 352.759 264.49 353.299C263.95 353.816 263.264 354.075 262.431 354.075ZM264.76 356.302V375H260.035V356.302H264.76ZM268.551 365.584C268.551 363.694 268.922 362.017 269.665 360.555C270.43 359.092 271.453 357.967 272.736 357.18C274.041 356.392 275.492 355.999 277.09 355.999C278.485 355.999 279.7 356.28 280.735 356.842C281.792 357.405 282.636 358.114 283.266 358.969V356.302H288.025V375H283.266V372.266C282.658 373.144 281.815 373.875 280.735 374.46C279.677 375.023 278.451 375.304 277.056 375.304C275.481 375.304 274.041 374.899 272.736 374.089C271.453 373.279 270.43 372.142 269.665 370.68C268.922 369.195 268.551 367.496 268.551 365.584ZM283.266 365.651C283.266 364.504 283.041 363.525 282.591 362.715C282.141 361.882 281.533 361.252 280.768 360.825C280.003 360.375 279.182 360.15 278.305 360.15C277.427 360.15 276.617 360.364 275.875 360.791C275.132 361.219 274.525 361.849 274.052 362.681C273.602 363.491 273.377 364.459 273.377 365.584C273.377 366.709 273.602 367.699 274.052 368.554C274.525 369.386 275.132 370.027 275.875 370.477C276.64 370.927 277.45 371.152 278.305 371.152C279.182 371.152 280.003 370.939 280.768 370.511C281.533 370.061 282.141 369.431 282.591 368.621C283.041 367.789 283.266 366.799 283.266 365.651Z" fill="#005FA6"/>
<path d="M191.881 83.999H159.121V110.159H191.881V83.999Z" fill="#005FA6"/>
<path d="M200.879 83.999V110.159H234.719C231.659 93.659 219.479 84.059 200.879 83.999Z" fill="#005FA6"/>
<path d="M115.5 119.16V169.14C115.5 190.98 128.52 204 150.36 204H200.64C222.48 204 235.5 190.98 235.5 169.14V119.16H115.5ZM190.14 169.08L177.66 176.28C175.02 177.78 172.44 178.56 170.04 178.56C168.24 178.56 166.62 178.14 165.12 177.3C161.64 175.32 159.72 171.24 159.72 165.96V151.56C159.72 146.28 161.64 142.2 165.12 140.22C168.6 138.18 173.04 138.54 177.66 141.24L190.14 148.44C194.76 151.08 197.28 154.8 197.28 158.82C197.28 162.84 194.7 166.38 190.14 169.08Z" fill="#005FA6"/>
<path d="M150.121 83.999C131.521 84.059 119.341 93.659 116.281 110.159H150.121V83.999Z" fill="#005FA6"/>
</svg>
