<svg width="352" height="396" viewBox="0 0 352 396" fill="none" xmlns="http://www.w3.org/2000/svg">
<g clip-path="url(#clip0_3087_6700)">
<rect width="351" height="394.875" transform="translate(0.798828 0.875)" fill="#EDF7FF"/>
<rect x="0.798828" y="0.875" width="351" height="270" rx="22.5" fill="#BDE2FF"/>
<path d="M85.9852 303.131V309.037H93.9164V312.784H85.9852V319.027H94.9289V322.875H81.2602V299.284H94.9289V303.131H85.9852ZM109.922 303.907C112.149 303.907 113.949 304.616 115.322 306.034C116.694 307.429 117.38 309.386 117.38 311.906V322.875H112.655V312.547C112.655 311.062 112.284 309.926 111.542 309.139C110.799 308.329 109.787 307.924 108.504 307.924C107.199 307.924 106.164 308.329 105.399 309.139C104.657 309.926 104.285 311.062 104.285 312.547V322.875H99.5603V304.177H104.285V306.506C104.915 305.696 105.714 305.066 106.682 304.616C107.672 304.144 108.752 303.907 109.922 303.907ZM127.712 308.059V317.104C127.712 317.734 127.859 318.195 128.151 318.487C128.466 318.757 128.984 318.892 129.704 318.892H131.897V322.875H128.927C124.945 322.875 122.954 320.94 122.954 317.07V308.059H120.726V304.177H122.954V299.554H127.712V304.177H131.897V308.059H127.712ZM153.015 313.121C153.015 313.796 152.97 314.404 152.88 314.944H139.211C139.323 316.294 139.796 317.351 140.628 318.116C141.461 318.881 142.485 319.264 143.7 319.264C145.455 319.264 146.703 318.51 147.446 317.002H152.542C152.002 318.802 150.967 320.287 149.437 321.457C147.907 322.605 146.028 323.179 143.801 323.179C142.001 323.179 140.381 322.785 138.941 321.997C137.523 321.187 136.41 320.051 135.6 318.589C134.812 317.126 134.418 315.439 134.418 313.526C134.418 311.591 134.812 309.892 135.6 308.43C136.387 306.967 137.49 305.842 138.907 305.055C140.325 304.267 141.956 303.874 143.801 303.874C145.578 303.874 147.165 304.256 148.56 305.021C149.977 305.786 151.068 306.877 151.833 308.295C152.621 309.69 153.015 311.299 153.015 313.121ZM148.121 311.771C148.098 310.556 147.66 309.589 146.805 308.869C145.95 308.126 144.903 307.755 143.666 307.755C142.496 307.755 141.506 308.115 140.696 308.835C139.908 309.532 139.425 310.511 139.245 311.771H148.121ZM161.526 307.08C162.133 306.09 162.921 305.314 163.888 304.751C164.878 304.189 166.003 303.907 167.263 303.907V308.869H166.015C164.53 308.869 163.405 309.217 162.64 309.915C161.897 310.612 161.526 311.827 161.526 313.56V322.875H156.801V304.177H161.526V307.08ZM175.508 306.877C176.116 306.022 176.948 305.314 178.006 304.751C179.086 304.166 180.312 303.874 181.685 303.874C183.282 303.874 184.722 304.267 186.005 305.055C187.31 305.842 188.333 306.967 189.076 308.43C189.841 309.87 190.223 311.546 190.223 313.459C190.223 315.371 189.841 317.07 189.076 318.555C188.333 320.017 187.31 321.154 186.005 321.964C184.722 322.774 183.282 323.179 181.685 323.179C180.312 323.179 179.097 322.898 178.04 322.335C177.005 321.772 176.161 321.064 175.508 320.209V331.785H170.783V304.177H175.508V306.877ZM185.397 313.459C185.397 312.334 185.161 311.366 184.688 310.556C184.238 309.724 183.631 309.094 182.866 308.666C182.123 308.239 181.313 308.025 180.436 308.025C179.581 308.025 178.771 308.25 178.006 308.7C177.263 309.127 176.656 309.757 176.183 310.59C175.733 311.422 175.508 312.401 175.508 313.526C175.508 314.651 175.733 315.63 176.183 316.462C176.656 317.295 177.263 317.936 178.006 318.386C178.771 318.814 179.581 319.027 180.436 319.027C181.313 319.027 182.123 318.802 182.866 318.352C183.631 317.902 184.238 317.261 184.688 316.429C185.161 315.596 185.397 314.606 185.397 313.459ZM198.719 307.08C199.327 306.09 200.114 305.314 201.082 304.751C202.072 304.189 203.197 303.907 204.457 303.907V308.869H203.208C201.723 308.869 200.598 309.217 199.833 309.915C199.091 310.612 198.719 311.827 198.719 313.56V322.875H193.994V304.177H198.719V307.08ZM210.373 301.95C209.541 301.95 208.843 301.691 208.281 301.174C207.741 300.634 207.471 299.97 207.471 299.182C207.471 298.395 207.741 297.742 208.281 297.225C208.843 296.685 209.541 296.415 210.373 296.415C211.206 296.415 211.892 296.685 212.432 297.225C212.994 297.742 213.276 298.395 213.276 299.182C213.276 299.97 212.994 300.634 212.432 301.174C211.892 301.691 211.206 301.95 210.373 301.95ZM212.702 304.177V322.875H207.977V304.177H212.702ZM224.863 323.179C223.333 323.179 221.96 322.909 220.745 322.369C219.53 321.806 218.563 321.052 217.843 320.107C217.145 319.162 216.763 318.116 216.695 316.969H221.454C221.544 317.689 221.893 318.285 222.5 318.757C223.13 319.23 223.906 319.466 224.829 319.466C225.729 319.466 226.426 319.286 226.921 318.926C227.439 318.566 227.698 318.105 227.698 317.542C227.698 316.935 227.383 316.485 226.753 316.192C226.145 315.877 225.166 315.54 223.816 315.18C222.421 314.842 221.274 314.494 220.374 314.134C219.496 313.774 218.731 313.222 218.079 312.48C217.449 311.737 217.134 310.736 217.134 309.476C217.134 308.441 217.426 307.496 218.011 306.641C218.619 305.786 219.474 305.111 220.576 304.616C221.701 304.121 223.018 303.874 224.525 303.874C226.753 303.874 228.53 304.436 229.858 305.561C231.185 306.664 231.916 308.16 232.051 310.05H227.529C227.461 309.307 227.146 308.722 226.584 308.295C226.044 307.845 225.313 307.62 224.39 307.62C223.535 307.62 222.871 307.777 222.399 308.092C221.949 308.407 221.724 308.846 221.724 309.409C221.724 310.039 222.039 310.522 222.669 310.86C223.299 311.175 224.278 311.501 225.605 311.839C226.955 312.176 228.069 312.525 228.946 312.885C229.824 313.245 230.578 313.807 231.208 314.572C231.86 315.315 232.198 316.305 232.22 317.542C232.22 318.622 231.916 319.59 231.309 320.445C230.724 321.3 229.869 321.975 228.744 322.47C227.641 322.943 226.348 323.179 224.863 323.179ZM253.818 313.121C253.818 313.796 253.773 314.404 253.683 314.944H240.014C240.126 316.294 240.599 317.351 241.431 318.116C242.264 318.881 243.288 319.264 244.503 319.264C246.258 319.264 247.506 318.51 248.249 317.002H253.345C252.805 318.802 251.77 320.287 250.24 321.457C248.71 322.605 246.831 323.179 244.604 323.179C242.804 323.179 241.184 322.785 239.744 321.997C238.326 321.187 237.213 320.051 236.403 318.589C235.615 317.126 235.221 315.439 235.221 313.526C235.221 311.591 235.615 309.892 236.403 308.43C237.19 306.967 238.293 305.842 239.71 305.055C241.128 304.267 242.759 303.874 244.604 303.874C246.381 303.874 247.968 304.256 249.363 305.021C250.78 305.786 251.871 306.877 252.636 308.295C253.424 309.69 253.818 311.299 253.818 313.121ZM248.924 311.771C248.901 310.556 248.463 309.589 247.608 308.869C246.753 308.126 245.706 307.755 244.469 307.755C243.299 307.755 242.309 308.115 241.499 308.835C240.711 309.532 240.228 310.511 240.048 311.771H248.924ZM264.759 323.179C263.229 323.179 261.856 322.909 260.641 322.369C259.426 321.806 258.459 321.052 257.739 320.107C257.041 319.162 256.659 318.116 256.591 316.969H261.35C261.44 317.689 261.789 318.285 262.396 318.757C263.026 319.23 263.803 319.466 264.725 319.466C265.625 319.466 266.323 319.286 266.818 318.926C267.335 318.566 267.594 318.105 267.594 317.542C267.594 316.935 267.279 316.485 266.649 316.192C266.041 315.877 265.063 315.54 263.713 315.18C262.318 314.842 261.17 314.494 260.27 314.134C259.393 313.774 258.628 313.222 257.975 312.48C257.345 311.737 257.03 310.736 257.03 309.476C257.03 308.441 257.323 307.496 257.908 306.641C258.515 305.786 259.37 305.111 260.473 304.616C261.598 304.121 262.914 303.874 264.421 303.874C266.649 303.874 268.426 304.436 269.754 305.561C271.081 306.664 271.813 308.16 271.948 310.05H267.425C267.358 309.307 267.043 308.722 266.48 308.295C265.94 307.845 265.209 307.62 264.286 307.62C263.431 307.62 262.768 307.777 262.295 308.092C261.845 308.407 261.62 308.846 261.62 309.409C261.62 310.039 261.935 310.522 262.565 310.86C263.195 311.175 264.174 311.501 265.501 311.839C266.851 312.176 267.965 312.525 268.843 312.885C269.72 313.245 270.474 313.807 271.104 314.572C271.756 315.315 272.094 316.305 272.116 317.542C272.116 318.622 271.813 319.59 271.205 320.445C270.62 321.3 269.765 321.975 268.64 322.47C267.538 322.943 266.244 323.179 264.759 323.179Z" fill="#005FA6"/>
<path d="M230.299 183.275V128.075C230.299 125.675 229.099 123.275 226.699 122.675L188.299 105.875V183.875H176.299V80.0746C176.299 79.4746 176.299 79.4746 176.299 78.8746C175.699 77.0746 173.899 76.4746 172.099 77.0746L125.899 98.0746C123.499 99.2746 122.299 101.075 122.299 103.475V183.275H110.299V195.275H242.299V183.275H230.299Z" fill="#005FA6"/>
</g>
<defs>
<clipPath id="clip0_3087_6700">
<rect width="351" height="394.875" fill="white" transform="translate(0.798828 0.875)"/>
</clipPath>
</defs>
</svg>
