<svg width="352" height="396" viewBox="0 0 352 396" fill="none" xmlns="http://www.w3.org/2000/svg">
<rect x="0.798828" y="0.875" width="351" height="270" rx="22.5" fill="#BDE2FF"/>
<path d="M113.447 299.317V303.131H103.626V309.172H111.152V312.919H103.626V322.875H98.9011V299.317H113.447ZM119.532 301.95C118.699 301.95 118.002 301.691 117.439 301.174C116.899 300.634 116.629 299.97 116.629 299.182C116.629 298.395 116.899 297.742 117.439 297.225C118.002 296.685 118.699 296.415 119.532 296.415C120.364 296.415 121.05 296.685 121.59 297.225C122.153 297.742 122.434 298.395 122.434 299.182C122.434 299.97 122.153 300.634 121.59 301.174C121.05 301.691 120.364 301.95 119.532 301.95ZM121.86 304.177V322.875H117.135V304.177H121.86ZM137.227 303.907C139.455 303.907 141.255 304.616 142.627 306.034C144 307.429 144.686 309.386 144.686 311.906V322.875H139.961V312.547C139.961 311.062 139.59 309.926 138.847 309.139C138.105 308.329 137.092 307.924 135.81 307.924C134.505 307.924 133.47 308.329 132.705 309.139C131.962 309.926 131.591 311.062 131.591 312.547V322.875H126.866V304.177H131.591V306.506C132.221 305.696 133.02 305.066 133.987 304.616C134.977 304.144 136.057 303.907 137.227 303.907ZM148.302 313.459C148.302 311.569 148.673 309.892 149.416 308.43C150.181 306.967 151.204 305.842 152.487 305.055C153.792 304.267 155.243 303.874 156.841 303.874C158.236 303.874 159.451 304.155 160.486 304.717C161.543 305.28 162.387 305.989 163.017 306.844V304.177H167.776V322.875H163.017V320.141C162.409 321.019 161.566 321.75 160.486 322.335C159.428 322.898 158.202 323.179 156.807 323.179C155.232 323.179 153.792 322.774 152.487 321.964C151.204 321.154 150.181 320.017 149.416 318.555C148.673 317.07 148.302 315.371 148.302 313.459ZM163.017 313.526C163.017 312.379 162.792 311.4 162.342 310.59C161.892 309.757 161.284 309.127 160.519 308.7C159.754 308.25 158.933 308.025 158.056 308.025C157.178 308.025 156.368 308.239 155.626 308.666C154.883 309.094 154.276 309.724 153.803 310.556C153.353 311.366 153.128 312.334 153.128 313.459C153.128 314.584 153.353 315.574 153.803 316.429C154.276 317.261 154.883 317.902 155.626 318.352C156.391 318.802 157.201 319.027 158.056 319.027C158.933 319.027 159.754 318.814 160.519 318.386C161.284 317.936 161.892 317.306 162.342 316.496C162.792 315.664 163.017 314.674 163.017 313.526ZM183.089 303.907C185.317 303.907 187.117 304.616 188.489 306.034C189.862 307.429 190.548 309.386 190.548 311.906V322.875H185.823V312.547C185.823 311.062 185.452 309.926 184.709 309.139C183.967 308.329 182.954 307.924 181.672 307.924C180.367 307.924 179.332 308.329 178.567 309.139C177.824 309.926 177.453 311.062 177.453 312.547V322.875H172.728V304.177H177.453V306.506C178.083 305.696 178.882 305.066 179.849 304.616C180.839 304.144 181.919 303.907 183.089 303.907ZM194.164 313.526C194.164 311.591 194.557 309.904 195.345 308.464C196.132 307.001 197.224 305.876 198.619 305.089C200.014 304.279 201.611 303.874 203.411 303.874C205.729 303.874 207.641 304.459 209.149 305.629C210.679 306.776 211.702 308.396 212.22 310.489H207.124C206.854 309.679 206.392 309.049 205.74 308.599C205.11 308.126 204.322 307.89 203.377 307.89C202.027 307.89 200.959 308.385 200.171 309.375C199.384 310.342 198.99 311.726 198.99 313.526C198.99 315.304 199.384 316.687 200.171 317.677C200.959 318.645 202.027 319.129 203.377 319.129C205.29 319.129 206.539 318.274 207.124 316.564H212.22C211.702 318.589 210.679 320.197 209.149 321.39C207.619 322.582 205.706 323.179 203.411 323.179C201.611 323.179 200.014 322.785 198.619 321.997C197.224 321.187 196.132 320.062 195.345 318.622C194.557 317.16 194.164 315.461 194.164 313.526ZM218.415 301.95C217.583 301.95 216.885 301.691 216.323 301.174C215.783 300.634 215.513 299.97 215.513 299.182C215.513 298.395 215.783 297.742 216.323 297.225C216.885 296.685 217.583 296.415 218.415 296.415C219.248 296.415 219.934 296.685 220.474 297.225C221.036 297.742 221.318 298.395 221.318 299.182C221.318 299.97 221.036 300.634 220.474 301.174C219.934 301.691 219.248 301.95 218.415 301.95ZM220.744 304.177V322.875H216.019V304.177H220.744ZM224.535 313.459C224.535 311.569 224.906 309.892 225.648 308.43C226.413 306.967 227.437 305.842 228.72 305.055C230.025 304.267 231.476 303.874 233.073 303.874C234.468 303.874 235.683 304.155 236.718 304.717C237.776 305.28 238.62 305.989 239.25 306.844V304.177H244.008V322.875H239.25V320.141C238.642 321.019 237.798 321.75 236.718 322.335C235.661 322.898 234.435 323.179 233.04 323.179C231.465 323.179 230.025 322.774 228.72 321.964C227.437 321.154 226.413 320.017 225.648 318.555C224.906 317.07 224.535 315.371 224.535 313.459ZM239.25 313.526C239.25 312.379 239.025 311.4 238.575 310.59C238.125 309.757 237.517 309.127 236.752 308.7C235.987 308.25 235.166 308.025 234.288 308.025C233.411 308.025 232.601 308.239 231.858 308.666C231.116 309.094 230.508 309.724 230.036 310.556C229.586 311.366 229.361 312.334 229.361 313.459C229.361 314.584 229.586 315.574 230.036 316.429C230.508 317.261 231.116 317.902 231.858 318.352C232.623 318.802 233.433 319.027 234.288 319.027C235.166 319.027 235.987 318.814 236.752 318.386C237.517 317.936 238.125 317.306 238.575 316.496C239.025 315.664 239.25 314.674 239.25 313.526ZM253.686 297.9V322.875H248.961V297.9H253.686ZM113.499 367.111C111.856 367.111 110.371 366.83 109.044 366.267C107.739 365.705 106.704 364.895 105.939 363.837C105.174 362.78 104.78 361.531 104.758 360.091H109.82C109.888 361.059 110.225 361.824 110.833 362.386C111.463 362.949 112.318 363.23 113.398 363.23C114.5 363.23 115.366 362.971 115.996 362.454C116.626 361.914 116.941 361.216 116.941 360.361C116.941 359.664 116.728 359.09 116.3 358.64C115.873 358.19 115.333 357.841 114.68 357.594C114.05 357.324 113.173 357.031 112.048 356.716C110.518 356.266 109.269 355.827 108.301 355.4C107.356 354.95 106.535 354.286 105.838 353.409C105.163 352.509 104.825 351.316 104.825 349.831C104.825 348.436 105.174 347.221 105.871 346.186C106.569 345.151 107.548 344.364 108.808 343.824C110.068 343.261 111.508 342.98 113.128 342.98C115.558 342.98 117.526 343.576 119.034 344.769C120.564 345.939 121.408 347.581 121.565 349.696H116.368C116.323 348.886 115.974 348.222 115.321 347.705C114.691 347.165 113.848 346.895 112.79 346.895C111.868 346.895 111.125 347.131 110.563 347.604C110.023 348.076 109.753 348.762 109.753 349.662C109.753 350.292 109.955 350.821 110.36 351.249C110.788 351.654 111.305 351.991 111.913 352.261C112.543 352.509 113.42 352.801 114.545 353.139C116.075 353.589 117.324 354.039 118.291 354.489C119.259 354.939 120.091 355.614 120.789 356.514C121.486 357.414 121.835 358.595 121.835 360.057C121.835 361.317 121.509 362.487 120.856 363.567C120.204 364.647 119.248 365.514 117.988 366.166C116.728 366.796 115.231 367.111 113.499 367.111ZM143.65 357.121C143.65 357.796 143.605 358.404 143.515 358.944H129.846C129.959 360.294 130.431 361.351 131.264 362.116C132.096 362.881 133.12 363.264 134.335 363.264C136.09 363.264 137.339 362.51 138.081 361.002H143.178C142.638 362.802 141.603 364.287 140.073 365.457C138.543 366.605 136.664 367.179 134.436 367.179C132.636 367.179 131.016 366.785 129.576 365.997C128.159 365.187 127.045 364.051 126.235 362.589C125.448 361.126 125.054 359.439 125.054 357.526C125.054 355.591 125.448 353.892 126.235 352.43C127.023 350.967 128.125 349.842 129.543 349.055C130.96 348.267 132.591 347.874 134.436 347.874C136.214 347.874 137.8 348.256 139.195 349.021C140.613 349.786 141.704 350.877 142.469 352.295C143.256 353.69 143.65 355.299 143.65 357.121ZM138.756 355.771C138.734 354.556 138.295 353.589 137.44 352.869C136.585 352.126 135.539 351.755 134.301 351.755C133.131 351.755 132.141 352.115 131.331 352.835C130.544 353.532 130.06 354.511 129.88 355.771H138.756ZM152.162 351.08C152.769 350.09 153.557 349.314 154.524 348.751C155.514 348.189 156.639 347.907 157.899 347.907V352.869H156.65C155.165 352.869 154.04 353.217 153.275 353.915C152.533 354.612 152.162 355.827 152.162 357.56V366.875H147.437V348.177H152.162V351.08ZM169.215 362.521L173.94 348.177H178.969L172.05 366.875H166.313L159.428 348.177H164.49L169.215 362.521ZM184.357 345.95C183.524 345.95 182.827 345.691 182.264 345.174C181.724 344.634 181.454 343.97 181.454 343.182C181.454 342.395 181.724 341.742 182.264 341.225C182.827 340.685 183.524 340.415 184.357 340.415C185.189 340.415 185.875 340.685 186.415 341.225C186.978 341.742 187.259 342.395 187.259 343.182C187.259 343.97 186.978 344.634 186.415 345.174C185.875 345.691 185.189 345.95 184.357 345.95ZM186.685 348.177V366.875H181.96V348.177H186.685ZM190.476 357.526C190.476 355.591 190.87 353.904 191.657 352.464C192.445 351.001 193.536 349.876 194.931 349.089C196.326 348.279 197.924 347.874 199.724 347.874C202.041 347.874 203.954 348.459 205.461 349.629C206.991 350.776 208.015 352.396 208.532 354.489H203.436C203.166 353.679 202.705 353.049 202.052 352.599C201.422 352.126 200.635 351.89 199.69 351.89C198.34 351.89 197.271 352.385 196.484 353.375C195.696 354.342 195.302 355.726 195.302 357.526C195.302 359.304 195.696 360.687 196.484 361.677C197.271 362.645 198.34 363.129 199.69 363.129C201.602 363.129 202.851 362.274 203.436 360.564H208.532C208.015 362.589 206.991 364.197 205.461 365.39C203.931 366.582 202.019 367.179 199.724 367.179C197.924 367.179 196.326 366.785 194.931 365.997C193.536 365.187 192.445 364.062 191.657 362.622C190.87 361.16 190.476 359.461 190.476 357.526ZM229.713 357.121C229.713 357.796 229.668 358.404 229.578 358.944H215.909C216.021 360.294 216.494 361.351 217.326 362.116C218.159 362.881 219.183 363.264 220.398 363.264C222.153 363.264 223.401 362.51 224.144 361.002H229.24C228.7 362.802 227.665 364.287 226.135 365.457C224.605 366.605 222.726 367.179 220.499 367.179C218.699 367.179 217.079 366.785 215.639 365.997C214.221 365.187 213.108 364.051 212.298 362.589C211.51 361.126 211.116 359.439 211.116 357.526C211.116 355.591 211.51 353.892 212.298 352.43C213.085 350.967 214.188 349.842 215.605 349.055C217.023 348.267 218.654 347.874 220.499 347.874C222.276 347.874 223.863 348.256 225.258 349.021C226.675 349.786 227.766 350.877 228.531 352.295C229.319 353.69 229.713 355.299 229.713 357.121ZM224.819 355.771C224.796 354.556 224.358 353.589 223.503 352.869C222.648 352.126 221.601 351.755 220.364 351.755C219.194 351.755 218.204 352.115 217.394 352.835C216.606 353.532 216.123 354.511 215.943 355.771H224.819ZM240.654 367.179C239.124 367.179 237.752 366.909 236.537 366.369C235.322 365.806 234.354 365.052 233.634 364.107C232.937 363.162 232.554 362.116 232.487 360.969H237.245C237.335 361.689 237.684 362.285 238.292 362.757C238.922 363.23 239.698 363.466 240.62 363.466C241.52 363.466 242.218 363.286 242.713 362.926C243.23 362.566 243.489 362.105 243.489 361.542C243.489 360.935 243.174 360.485 242.544 360.192C241.937 359.877 240.958 359.54 239.608 359.18C238.213 358.842 237.065 358.494 236.165 358.134C235.288 357.774 234.523 357.222 233.87 356.48C233.24 355.737 232.925 354.736 232.925 353.476C232.925 352.441 233.218 351.496 233.803 350.641C234.41 349.786 235.265 349.111 236.368 348.616C237.493 348.121 238.809 347.874 240.317 347.874C242.544 347.874 244.322 348.436 245.649 349.561C246.977 350.664 247.708 352.16 247.843 354.05H243.32C243.253 353.307 242.938 352.722 242.375 352.295C241.835 351.845 241.104 351.62 240.182 351.62C239.327 351.62 238.663 351.777 238.19 352.092C237.74 352.407 237.515 352.846 237.515 353.409C237.515 354.039 237.83 354.522 238.46 354.86C239.09 355.175 240.069 355.501 241.397 355.839C242.747 356.176 243.86 356.525 244.738 356.885C245.615 357.245 246.369 357.807 246.999 358.572C247.652 359.315 247.989 360.305 248.012 361.542C248.012 362.622 247.708 363.59 247.1 364.445C246.515 365.3 245.66 365.975 244.535 366.47C243.433 366.943 242.139 367.179 240.654 367.179Z" fill="#005FA6"/>
<path d="M175.938 77.1355L161.478 110.795H147.018C144.618 110.795 142.278 110.975 139.998 111.455L145.998 97.0555L146.238 96.5155L146.598 95.5555C146.778 95.1355 146.898 94.7754 147.078 94.4755C154.038 78.3354 161.838 73.2955 175.938 77.1355Z" fill="#005FA6"/>
<path d="M216.678 112.414L216.558 112.354C212.958 111.334 209.298 110.794 205.578 110.794H168.018L181.518 79.4141L181.698 78.9941C182.538 79.2941 183.438 79.7141 184.338 80.0141L197.598 85.5941C204.978 88.6541 210.138 91.8341 213.318 95.6741C213.858 96.3941 214.338 97.0541 214.818 97.8341C215.358 98.6741 215.778 99.5141 216.018 100.414C216.258 100.954 216.438 101.434 216.558 101.974C217.458 105.034 217.518 108.514 216.678 112.414Z" fill="#005FA6"/>
<path d="M179.418 169.835H180.918C182.718 169.835 184.218 168.215 184.218 166.235C184.218 163.715 183.498 163.355 181.938 162.755L179.418 161.855V169.835Z" fill="#005FA6"/>
<path d="M214.038 120.995C211.338 120.215 208.518 119.795 205.578 119.795H147.018C142.938 119.795 139.098 120.575 135.498 122.135C125.058 126.635 117.738 137.015 117.738 149.075V160.775C117.738 162.215 117.858 163.595 118.038 165.035C119.358 184.115 129.558 194.315 148.638 195.575C150.018 195.755 151.398 195.875 152.898 195.875H199.698C221.898 195.875 233.598 185.315 234.738 164.315C234.798 163.175 234.858 161.975 234.858 160.775V149.075C234.858 135.815 226.038 124.655 214.038 120.995ZM183.978 156.875C186.738 157.835 190.458 159.875 190.458 166.235C190.458 171.695 186.198 176.075 180.918 176.075H179.418V177.395C179.418 179.135 178.038 180.515 176.298 180.515C174.558 180.515 173.178 179.135 173.178 177.395V176.075H172.638C166.878 176.075 162.138 171.215 162.138 165.215C162.138 163.475 163.518 162.095 165.258 162.095C166.998 162.095 168.378 163.475 168.378 165.215C168.378 167.735 170.298 169.835 172.638 169.835H173.178V159.695L168.618 158.075C165.858 157.115 162.138 155.075 162.138 148.715C162.138 143.255 166.398 138.875 171.678 138.875H173.178V137.555C173.178 135.815 174.558 134.435 176.298 134.435C178.038 134.435 179.418 135.815 179.418 137.555V138.875H179.958C185.718 138.875 190.458 143.735 190.458 149.735C190.458 151.475 189.078 152.855 187.338 152.855C185.598 152.855 184.218 151.475 184.218 149.735C184.218 147.215 182.298 145.115 179.958 145.115H179.418V155.255L183.978 156.875Z" fill="#005FA6"/>
<path d="M168.379 148.714C168.379 151.234 169.099 151.594 170.659 152.194L173.179 153.094V145.114H171.679C169.819 145.114 168.379 146.734 168.379 148.714Z" fill="#005FA6"/>
</svg>
