<svg width="350" height="394" viewBox="0 0 350 394" fill="none" xmlns="http://www.w3.org/2000/svg">
<g clip-path="url(#clip0_3087_6697)">
<rect width="349.598" height="393.298" fill="#EDF7FF"/>
<rect width="349.598" height="268.921" rx="22.4101" fill="#BDE2FF"/>
<path d="M116.092 320.85H111.386L100.73 304.748V320.85H96.0238V297.353H100.73L111.386 313.488V297.353H116.092V320.85ZM138.391 311.135C138.391 311.807 138.346 312.412 138.256 312.95H124.642C124.754 314.295 125.225 315.348 126.054 316.11C126.883 316.872 127.903 317.253 129.113 317.253C130.861 317.253 132.105 316.502 132.844 315.001H137.92C137.382 316.793 136.351 318.272 134.827 319.438C133.304 320.581 131.432 321.152 129.214 321.152C127.421 321.152 125.807 320.76 124.373 319.976C122.961 319.169 121.852 318.037 121.045 316.58C120.261 315.124 119.869 313.443 119.869 311.538C119.869 309.611 120.261 307.919 121.045 306.462C121.83 305.006 122.928 303.885 124.34 303.101C125.751 302.316 127.376 301.924 129.214 301.924C130.984 301.924 132.564 302.305 133.953 303.067C135.365 303.829 136.452 304.916 137.214 306.328C137.998 307.717 138.391 309.32 138.391 311.135ZM133.516 309.79C133.494 308.58 133.057 307.616 132.205 306.899C131.354 306.16 130.312 305.79 129.079 305.79C127.914 305.79 126.928 306.149 126.121 306.866C125.337 307.56 124.855 308.535 124.676 309.79H133.516ZM147.641 306.093V315.101C147.641 315.729 147.787 316.188 148.078 316.48C148.392 316.749 148.907 316.883 149.624 316.883H151.809V320.85H148.851C144.885 320.85 142.901 318.922 142.901 315.068V306.093H140.683V302.227H142.901V297.622H147.641V302.227H151.809V306.093H147.641ZM181.347 302.227L175.901 320.85H170.825L167.43 307.841L164.035 320.85H158.926L153.446 302.227H158.22L161.514 316.412L165.077 302.227H170.052L173.548 316.379L176.842 302.227H181.347ZM192.499 321.152C190.706 321.152 189.092 320.76 187.658 319.976C186.224 319.169 185.092 318.037 184.263 316.58C183.456 315.124 183.053 313.443 183.053 311.538C183.053 309.633 183.467 307.953 184.297 306.496C185.148 305.039 186.302 303.919 187.759 303.134C189.216 302.328 190.84 301.924 192.633 301.924C194.426 301.924 196.051 302.328 197.507 303.134C198.964 303.919 200.107 305.039 200.936 306.496C201.788 307.953 202.213 309.633 202.213 311.538C202.213 313.443 201.776 315.124 200.903 316.58C200.051 318.037 198.886 319.169 197.407 319.976C195.95 320.76 194.314 321.152 192.499 321.152ZM192.499 317.051C193.35 317.051 194.146 316.849 194.885 316.446C195.647 316.02 196.252 315.393 196.701 314.564C197.149 313.734 197.373 312.726 197.373 311.538C197.373 309.768 196.902 308.412 195.961 307.471C195.042 306.507 193.911 306.025 192.566 306.025C191.221 306.025 190.09 306.507 189.171 307.471C188.274 308.412 187.826 309.768 187.826 311.538C187.826 313.309 188.263 314.676 189.137 315.639C190.034 316.58 191.154 317.051 192.499 317.051ZM210.708 305.118C211.313 304.132 212.097 303.359 213.061 302.798C214.047 302.238 215.167 301.958 216.422 301.958V306.899H215.179C213.7 306.899 212.579 307.247 211.817 307.941C211.078 308.636 210.708 309.846 210.708 311.572V320.85H206.002V302.227H210.708V305.118ZM230.954 320.85L224.635 312.916V320.85H219.928V295.974H224.635V310.126L230.887 302.227H237.005L228.803 311.572L237.072 320.85H230.954ZM247.022 321.152C245.498 321.152 244.131 320.883 242.921 320.345C241.71 319.785 240.747 319.034 240.03 318.093C239.335 317.152 238.954 316.11 238.887 314.967H243.627C243.716 315.684 244.064 316.278 244.669 316.749C245.296 317.219 246.069 317.454 246.988 317.454C247.884 317.454 248.579 317.275 249.072 316.917C249.588 316.558 249.845 316.099 249.845 315.538C249.845 314.933 249.532 314.485 248.904 314.194C248.299 313.88 247.324 313.544 245.98 313.185C244.59 312.849 243.447 312.502 242.551 312.143C241.677 311.785 240.915 311.236 240.265 310.496C239.638 309.757 239.324 308.759 239.324 307.504C239.324 306.474 239.615 305.532 240.198 304.681C240.803 303.829 241.654 303.157 242.753 302.664C243.873 302.171 245.184 301.924 246.686 301.924C248.904 301.924 250.675 302.485 251.997 303.605C253.319 304.703 254.047 306.193 254.182 308.076H249.677C249.61 307.336 249.296 306.754 248.736 306.328C248.198 305.88 247.47 305.656 246.551 305.656C245.699 305.656 245.038 305.812 244.568 306.126C244.12 306.44 243.895 306.877 243.895 307.437C243.895 308.065 244.209 308.546 244.837 308.883C245.464 309.196 246.439 309.521 247.761 309.857C249.106 310.194 250.215 310.541 251.089 310.9C251.963 311.258 252.714 311.818 253.341 312.58C253.991 313.32 254.327 314.306 254.35 315.538C254.35 316.614 254.047 317.578 253.442 318.429C252.86 319.281 252.008 319.953 250.887 320.446C249.789 320.917 248.501 321.152 247.022 321.152Z" fill="#005FA6"/>
<path d="M188.246 121.014C188.246 128.441 182.226 134.46 174.8 134.46C167.373 134.46 161.354 128.441 161.354 121.014C161.354 113.588 167.373 107.568 174.8 107.568C182.226 107.568 188.246 113.588 188.246 121.014Z" fill="#005FA6"/>
<path fill-rule="evenodd" clip-rule="evenodd" d="M135.201 101.201C132.982 102.404 130.439 103.087 127.738 103.087C119.074 103.087 112.051 96.0632 112.051 87.3995C112.051 78.7357 119.074 71.7124 127.738 71.7124C136.402 71.7124 143.425 78.7357 143.425 87.3995C143.425 90.1011 142.742 92.6431 141.539 94.8625L149.62 102.944C156.521 97.4234 165.275 94.1225 174.799 94.1225C184.323 94.1225 193.077 97.4234 199.978 102.944L208.059 94.8625C206.856 92.6431 206.173 90.1011 206.173 87.3995C206.173 78.7357 213.197 71.7124 221.86 71.7124C230.524 71.7124 237.547 78.7357 237.547 87.3995C237.547 96.0632 230.524 103.087 221.86 103.087C219.159 103.087 216.617 102.404 214.397 101.201L206.316 109.282C211.836 116.183 215.137 124.936 215.137 134.461C215.137 143.985 211.836 152.738 206.316 159.639L214.397 167.72C216.617 166.518 219.159 165.835 221.86 165.835C230.524 165.835 237.547 172.858 237.547 181.522C237.547 190.186 230.524 197.209 221.86 197.209C213.197 197.209 206.173 190.186 206.173 181.522C206.173 178.82 206.856 176.278 208.059 174.059L199.978 165.978C193.077 171.498 184.323 174.799 174.799 174.799C165.275 174.799 156.521 171.498 149.62 165.978L141.539 174.059C142.742 176.278 143.425 178.82 143.425 181.522C143.425 190.186 136.402 197.209 127.738 197.209C119.074 197.209 112.051 190.186 112.051 181.522C112.051 172.858 119.074 165.835 127.738 165.835C130.439 165.835 132.982 166.518 135.201 167.72L143.282 159.639C137.762 152.738 134.461 143.985 134.461 134.461C134.461 124.936 137.762 116.183 143.282 109.282L135.201 101.201ZM199.097 154.311C203.52 148.903 206.173 141.992 206.173 134.461C206.173 117.133 192.127 103.087 174.799 103.087C157.472 103.087 143.425 117.133 143.425 134.461C143.425 141.992 146.078 148.903 150.502 154.311C152.181 150.769 154.626 147.614 157.689 145.088C162.34 141.252 168.147 139.09 174.176 138.95C180.204 138.81 186.105 140.701 190.929 144.317C194.442 146.951 197.236 150.388 199.097 154.311Z" fill="#005FA6"/>
</g>
<defs>
<clipPath id="clip0_3087_6697">
<rect width="349.598" height="393.298" fill="white"/>
</clipPath>
</defs>
</svg>
