<svg width="597" height="226" viewBox="0 0 597 226" fill="none" xmlns="http://www.w3.org/2000/svg">
<mask id="path-1-inside-1_87_1996" fill="white">
<path d="M0 26C0 20.4772 4.47715 16 10 16H587C592.523 16 597 20.4772 597 26V204C597 209.523 592.523 214 587 214H9.99999C4.47714 214 0 209.523 0 204V26Z"/>
</mask>
<path d="M0 26C0 20.4772 4.47715 16 10 16H587C592.523 16 597 20.4772 597 26V204C597 209.523 592.523 214 587 214H9.99999C4.47714 214 0 209.523 0 204V26Z" fill="#DBF0FF"/>
<path d="M0 16H597H0ZM597 204C597 212.837 589.837 220 581 220H16C7.16344 220 0 212.837 0 204C0 206.209 4.47715 208 10 208H587C592.523 208 597 206.209 597 204ZM0 214V16V214ZM597 16V214V16Z" fill="#005FA6" mask="url(#path-1-inside-1_87_1996)"/>
<path d="M84.7298 103V84.25H81.9398V81.13H88.1798V103H84.7298ZM103.318 103V98.44H92.4581V95.86L102.538 81.4H106.678V95.47H109.468V98.44H106.678V103H103.318ZM96.3881 95.47H103.468V84.88L96.3881 95.47ZM119.465 84.94V82.15H134.015V84.94H128.465V103H125.045V84.94H119.465ZM137.479 103V86.47H140.899V103H137.479ZM139.219 84.28C137.989 84.28 137.029 83.32 137.029 82.09C137.029 80.86 137.989 79.9 139.219 79.9C140.419 79.9 141.379 80.86 141.379 82.09C141.379 83.32 140.419 84.28 139.219 84.28ZM152.349 89.08C150.039 89.08 148.179 90.64 147.819 93.25H156.969C156.909 90.7 154.899 89.08 152.349 89.08ZM160.089 98.08C159.159 100.96 156.549 103.27 152.499 103.27C147.759 103.27 144.249 99.91 144.249 94.72C144.249 89.53 147.609 86.2 152.499 86.2C157.209 86.2 160.539 89.47 160.539 94.33C160.539 94.9 160.509 95.44 160.419 96.01H147.789C148.029 98.74 149.979 100.39 152.499 100.39C154.599 100.39 155.769 99.37 156.399 98.08H160.089ZM167.324 94.3V103H163.904V86.47H167.324V88.87C168.284 87.22 169.934 86.2 172.274 86.2V89.74H171.404C168.884 89.74 167.324 90.79 167.324 94.3ZM175.778 93.58V90.7H188.108V93.58H175.778ZM191.827 94.72C191.827 89.56 195.187 86.2 199.927 86.2C203.977 86.2 206.617 88.21 207.547 91.69H203.857C203.287 90.1 201.967 89.08 199.927 89.08C197.167 89.08 195.337 91.12 195.337 94.72C195.337 98.35 197.167 100.39 199.927 100.39C201.967 100.39 203.227 99.49 203.857 97.78H207.547C206.617 101.02 203.977 103.27 199.927 103.27C195.187 103.27 191.827 99.91 191.827 94.72ZM217.915 89.08C215.605 89.08 213.745 90.64 213.385 93.25H222.535C222.475 90.7 220.465 89.08 217.915 89.08ZM225.655 98.08C224.725 100.96 222.115 103.27 218.065 103.27C213.325 103.27 209.815 99.91 209.815 94.72C209.815 89.53 213.175 86.2 218.065 86.2C222.775 86.2 226.105 89.47 226.105 94.33C226.105 94.9 226.075 95.44 225.985 96.01H213.355C213.595 98.74 215.545 100.39 218.065 100.39C220.165 100.39 221.335 99.37 221.965 98.08H225.655ZM232.891 94.3V103H229.471V86.47H232.891V88.87C233.851 87.22 235.501 86.2 237.841 86.2V89.74H236.971C234.451 89.74 232.891 90.79 232.891 94.3ZM241.524 98.41V89.26H239.574V86.47H241.524V82.36H244.974V86.47H248.994V89.26H244.974V98.41C244.974 99.64 245.454 100.15 246.894 100.15H248.994V103H246.294C243.354 103 241.524 101.77 241.524 98.41ZM252.146 103V86.47H255.566V103H252.146ZM253.886 84.28C252.656 84.28 251.696 83.32 251.696 82.09C251.696 80.86 252.656 79.9 253.886 79.9C255.086 79.9 256.046 80.86 256.046 82.09C256.046 83.32 255.086 84.28 253.886 84.28ZM260.477 103V89.26H258.527V86.47H260.477V85.3C260.477 81.49 262.427 79.84 266.747 79.84V82.69C264.647 82.69 263.927 83.41 263.927 85.3V86.47H266.987V89.26H263.927V103H260.477ZM270.018 103V86.47H273.438V103H270.018ZM271.758 84.28C270.528 84.28 269.568 83.32 269.568 82.09C269.568 80.86 270.528 79.9 271.758 79.9C272.958 79.9 273.918 80.86 273.918 82.09C273.918 83.32 272.958 84.28 271.758 84.28ZM284.888 89.08C282.578 89.08 280.718 90.64 280.358 93.25H289.508C289.448 90.7 287.438 89.08 284.888 89.08ZM292.628 98.08C291.698 100.96 289.088 103.27 285.038 103.27C280.298 103.27 276.788 99.91 276.788 94.72C276.788 89.53 280.148 86.2 285.038 86.2C289.748 86.2 293.078 89.47 293.078 94.33C293.078 94.9 293.048 95.44 292.958 96.01H280.328C280.568 98.74 282.518 100.39 285.038 100.39C287.138 100.39 288.308 99.37 288.938 98.08H292.628ZM295.303 94.66C295.303 89.56 298.753 86.2 303.133 86.2C305.293 86.2 307.573 87.22 308.833 88.78V80.8H312.283V103H308.833V100.51C307.783 102.01 305.803 103.27 303.103 103.27C298.753 103.27 295.303 99.76 295.303 94.66ZM308.833 94.72C308.833 91.18 306.403 89.17 303.823 89.17C301.273 89.17 298.813 91.09 298.813 94.66C298.813 98.23 301.273 100.3 303.823 100.3C306.403 100.3 308.833 98.29 308.833 94.72ZM331.378 82.15C338.068 82.15 342.448 86.2 342.448 92.65C342.448 99.07 338.068 103 331.378 103H324.568V82.15H331.378ZM327.988 100.21H331.378C336.298 100.21 338.938 97.39 338.938 92.65C338.938 87.88 336.298 84.94 331.378 84.94H327.988V100.21ZM344.698 94.66C344.698 89.56 348.148 86.2 352.498 86.2C355.288 86.2 357.208 87.52 358.228 88.87V86.47H361.678V103H358.228V100.54C357.178 101.95 355.198 103.27 352.438 103.27C348.148 103.27 344.698 99.76 344.698 94.66ZM358.228 94.72C358.228 91.18 355.798 89.17 353.218 89.17C350.668 89.17 348.208 91.09 348.208 94.66C348.208 98.23 350.668 100.3 353.218 100.3C355.798 100.3 358.228 98.29 358.228 94.72ZM366.71 98.41V89.26H364.76V86.47H366.71V82.36H370.16V86.47H374.18V89.26H370.16V98.41C370.16 99.64 370.64 100.15 372.08 100.15H374.18V103H371.48C368.54 103 366.71 101.77 366.71 98.41ZM376.192 94.66C376.192 89.56 379.642 86.2 383.992 86.2C386.782 86.2 388.702 87.52 389.722 88.87V86.47H393.172V103H389.722V100.54C388.672 101.95 386.692 103.27 383.932 103.27C379.642 103.27 376.192 99.76 376.192 94.66ZM389.722 94.72C389.722 91.18 387.292 89.17 384.712 89.17C382.162 89.17 379.702 91.09 379.702 94.66C379.702 98.23 382.162 100.3 384.712 100.3C387.292 100.3 389.722 98.29 389.722 94.72ZM404.317 94.72C404.317 89.56 407.677 86.2 412.417 86.2C416.467 86.2 419.107 88.21 420.037 91.69H416.347C415.777 90.1 414.457 89.08 412.417 89.08C409.657 89.08 407.827 91.12 407.827 94.72C407.827 98.35 409.657 100.39 412.417 100.39C414.457 100.39 415.717 99.49 416.347 97.78H420.037C419.107 101.02 416.467 103.27 412.417 103.27C407.677 103.27 404.317 99.91 404.317 94.72ZM430.405 89.08C428.095 89.08 426.235 90.64 425.875 93.25H435.025C434.965 90.7 432.955 89.08 430.405 89.08ZM438.145 98.08C437.215 100.96 434.605 103.27 430.555 103.27C425.815 103.27 422.305 99.91 422.305 94.72C422.305 89.53 425.665 86.2 430.555 86.2C435.265 86.2 438.595 89.47 438.595 94.33C438.595 94.9 438.565 95.44 438.475 96.01H425.845C426.085 98.74 428.035 100.39 430.555 100.39C432.655 100.39 433.825 99.37 434.455 98.08H438.145ZM453.691 103V93.76C453.691 90.73 452.041 89.17 449.551 89.17C447.031 89.17 445.381 90.73 445.381 93.76V103H441.961V86.47H445.381V88.36C446.491 87.01 448.321 86.2 450.301 86.2C454.171 86.2 457.081 88.63 457.081 93.25V103H453.691ZM461.983 98.41V89.26H460.033V86.47H461.983V82.36H465.433V86.47H469.453V89.26H465.433V98.41C465.433 99.64 465.913 100.15 467.353 100.15H469.453V103H466.753C463.813 103 461.983 101.77 461.983 98.41ZM479.565 89.08C477.255 89.08 475.395 90.64 475.035 93.25H484.185C484.125 90.7 482.115 89.08 479.565 89.08ZM487.305 98.08C486.375 100.96 483.765 103.27 479.715 103.27C474.975 103.27 471.465 99.91 471.465 94.72C471.465 89.53 474.825 86.2 479.715 86.2C484.425 86.2 487.755 89.47 487.755 94.33C487.755 94.9 487.725 95.44 487.635 96.01H475.005C475.245 98.74 477.195 100.39 479.715 100.39C481.815 100.39 482.985 99.37 483.615 98.08H487.305ZM494.541 94.3V103H491.121V86.47H494.541V88.87C495.501 87.22 497.151 86.2 499.491 86.2V89.74H498.621C496.101 89.74 494.541 90.79 494.541 94.3ZM514.965 98.38C514.965 101.17 512.535 103.27 508.635 103.27C504.675 103.27 501.885 100.93 501.735 97.93H505.275C505.395 99.28 506.685 100.39 508.575 100.39C510.555 100.39 511.605 99.55 511.605 98.41C511.605 95.17 502.005 97.03 502.005 90.97C502.005 88.33 504.465 86.2 508.365 86.2C512.115 86.2 514.575 88.21 514.755 91.51H511.335C511.215 90.07 510.105 89.08 508.245 89.08C506.415 89.08 505.455 89.83 505.455 90.94C505.455 94.27 514.785 92.41 514.965 98.38ZM149.244 139.66C149.244 134.56 152.694 131.2 157.044 131.2C159.834 131.2 161.754 132.52 162.774 133.87V131.47H166.224V148H162.774V145.54C161.724 146.95 159.744 148.27 156.984 148.27C152.694 148.27 149.244 144.76 149.244 139.66ZM162.774 139.72C162.774 136.18 160.344 134.17 157.764 134.17C155.214 134.17 152.754 136.09 152.754 139.66C152.754 143.23 155.214 145.3 157.764 145.3C160.344 145.3 162.774 143.29 162.774 139.72ZM169.576 139.72C169.576 134.56 172.936 131.2 177.676 131.2C181.726 131.2 184.366 133.21 185.296 136.69H181.606C181.036 135.1 179.716 134.08 177.676 134.08C174.916 134.08 173.086 136.12 173.086 139.72C173.086 143.35 174.916 145.39 177.676 145.39C179.716 145.39 180.976 144.49 181.606 142.78H185.296C184.366 146.02 181.726 148.27 177.676 148.27C172.936 148.27 169.576 144.91 169.576 139.72ZM192.124 139.3V148H188.704V131.47H192.124V133.87C193.084 132.22 194.734 131.2 197.074 131.2V134.74H196.204C193.684 134.74 192.124 135.79 192.124 139.3ZM215.968 139.72C215.968 144.91 212.128 148.27 207.388 148.27C202.678 148.27 199.108 144.91 199.108 139.72C199.108 134.53 202.828 131.2 207.538 131.2C212.248 131.2 215.968 134.53 215.968 139.72ZM202.588 139.72C202.588 143.47 204.808 145.3 207.388 145.3C209.938 145.3 212.458 143.47 212.458 139.72C212.458 135.97 210.028 134.17 207.478 134.17C204.898 134.17 202.588 135.97 202.588 139.72ZM231.679 143.38C231.679 146.17 229.249 148.27 225.349 148.27C221.389 148.27 218.599 145.93 218.449 142.93H221.989C222.109 144.28 223.399 145.39 225.289 145.39C227.269 145.39 228.319 144.55 228.319 143.41C228.319 140.17 218.719 142.03 218.719 135.97C218.719 133.33 221.179 131.2 225.079 131.2C228.829 131.2 231.289 133.21 231.469 136.51H228.049C227.929 135.07 226.819 134.08 224.959 134.08C223.129 134.08 222.169 134.83 222.169 135.94C222.169 139.27 231.499 137.41 231.679 143.38ZM247.704 143.38C247.704 146.17 245.274 148.27 241.374 148.27C237.414 148.27 234.624 145.93 234.474 142.93H238.014C238.134 144.28 239.424 145.39 241.314 145.39C243.294 145.39 244.344 144.55 244.344 143.41C244.344 140.17 234.744 142.03 234.744 135.97C234.744 133.33 237.204 131.2 241.104 131.2C244.854 131.2 247.314 133.21 247.494 136.51H244.074C243.954 135.07 242.844 134.08 240.984 134.08C239.154 134.08 238.194 134.83 238.194 135.94C238.194 139.27 247.524 137.41 247.704 143.38ZM259.732 143.41V134.26H257.782V131.47H259.732V127.36H263.182V131.47H267.202V134.26H263.182V143.41C263.182 144.64 263.662 145.15 265.102 145.15H267.202V148H264.502C261.562 148 259.732 146.77 259.732 143.41ZM270.354 148V125.8H273.774V133.39C274.914 132.01 276.774 131.2 278.904 131.2C282.594 131.2 285.474 133.63 285.474 138.25V148H282.084V138.76C282.084 135.73 280.434 134.17 277.944 134.17C275.424 134.17 273.774 135.73 273.774 138.76V148H270.354ZM296.797 134.08C294.487 134.08 292.627 135.64 292.267 138.25H301.417C301.357 135.7 299.347 134.08 296.797 134.08ZM304.537 143.08C303.607 145.96 300.997 148.27 296.947 148.27C292.207 148.27 288.697 144.91 288.697 139.72C288.697 134.53 292.057 131.2 296.947 131.2C301.657 131.2 304.987 134.47 304.987 139.33C304.987 139.9 304.957 140.44 304.867 141.01H292.237C292.477 143.74 294.427 145.39 296.947 145.39C299.047 145.39 300.217 144.37 300.847 143.08H304.537ZM316.146 148V125.8H319.566V138.7L325.566 131.47H330.306L322.686 139.75L330.306 148H325.686L319.566 140.89V148H316.146ZM332.757 148V131.47H336.177V148H332.757ZM334.497 129.28C333.267 129.28 332.307 128.32 332.307 127.09C332.307 125.86 333.267 124.9 334.497 124.9C335.697 124.9 336.657 125.86 336.657 127.09C336.657 128.32 335.697 129.28 334.497 129.28ZM352.397 148V138.76C352.397 135.73 350.747 134.17 348.257 134.17C345.737 134.17 344.087 135.73 344.087 138.76V148H340.667V131.47H344.087V133.36C345.197 132.01 347.027 131.2 349.007 131.2C352.877 131.2 355.787 133.63 355.787 138.25V148H352.397ZM359.009 139.66C359.009 134.56 362.459 131.2 366.809 131.2C369.509 131.2 371.519 132.46 372.539 133.87V131.47H375.989V148.27C375.989 152.77 373.079 156.16 367.919 156.16C363.509 156.16 360.239 153.97 359.819 150.31H363.209C363.719 152.02 365.549 153.19 367.919 153.19C370.559 153.19 372.539 151.57 372.539 148.27V145.51C371.489 146.92 369.509 148.27 366.809 148.27C362.459 148.27 359.009 144.76 359.009 139.66ZM372.539 139.72C372.539 136.18 370.109 134.17 367.529 134.17C364.979 134.17 362.519 136.09 362.519 139.66C362.519 143.23 364.979 145.3 367.529 145.3C370.109 145.3 372.539 143.29 372.539 139.72ZM379.341 139.66C379.341 134.56 382.791 131.2 387.171 131.2C389.331 131.2 391.611 132.22 392.871 133.78V125.8H396.321V148H392.871V145.51C391.821 147.01 389.841 148.27 387.141 148.27C382.791 148.27 379.341 144.76 379.341 139.66ZM392.871 139.72C392.871 136.18 390.441 134.17 387.861 134.17C385.311 134.17 382.851 136.09 382.851 139.66C382.851 143.23 385.311 145.3 387.861 145.3C390.441 145.3 392.871 143.29 392.871 139.72ZM416.563 139.72C416.563 144.91 412.723 148.27 407.983 148.27C403.273 148.27 399.703 144.91 399.703 139.72C399.703 134.53 403.423 131.2 408.133 131.2C412.843 131.2 416.563 134.53 416.563 139.72ZM403.183 139.72C403.183 143.47 405.403 145.3 407.983 145.3C410.533 145.3 413.053 143.47 413.053 139.72C413.053 135.97 410.623 134.17 408.073 134.17C405.493 134.17 403.183 135.97 403.183 139.72ZM443.374 148V138.76C443.374 135.73 441.724 134.17 439.234 134.17C436.714 134.17 435.064 135.73 435.064 138.76V148H431.674V138.76C431.674 135.73 430.024 134.17 427.534 134.17C425.014 134.17 423.364 135.73 423.364 138.76V148H419.944V131.47H423.364V133.36C424.474 132.01 426.274 131.2 428.254 131.2C430.864 131.2 433.054 132.31 434.194 134.47C435.214 132.46 437.554 131.2 439.954 131.2C443.824 131.2 446.764 133.63 446.764 138.25V148H443.374Z" fill="#001424"/>
</svg>
