<svg width="12763" height="10513" viewBox="0 0 12763 10513" fill="none" xmlns="http://www.w3.org/2000/svg">
<path d="M7789.45 10056.9L7980.38 8501.21L8143.28 7226.37L8315.99 5812.56L8320.19 5665.19L8310.27 5585.2L8296.26 5537.43L8271.03 5478.46L8245.81 5436.31L8220.58 5405.36L8067.49 5250.87L7852.62 5094.97L7842.81 5082.36L7834.41 5069.75L7830.2 5059.94L7824.6 5028.99L7810.58 4129L7807.78 4107.98L7803.58 4095.37L7797.97 4082.76L7789.56 4070.14L7781.16 4061.74L7774.15 4056.13L7580.42 3978.94L7567.81 3970.53L7556.6 3957.92L7539.78 3932.7L7440.05 3834.37L7426.04 3825.97L7413.43 3821.76L7398.01 3820.36L7308.21 3837.18H7294.2L7280.19 3834.37L7264.77 3830.17L7250.76 3823.16L7101.99 3715.03L7064.04 3694.01L7037.41 3684.2L7010.79 3678.59L6909.66 3675.79L6883.85 3670.07L6869.84 3664.46L6844.61 3646.25L6787.04 3591.48L6749.09 3545.12L6736.48 3533.91L6723.87 3526.9L6709.85 3524.1L6666.3 3519.9L6638.27 3511.49L6465.56 3411.76L6452.95 3399.15L6437.53 3380.93L6430.53 3362.72L6413.71 3303.74L6405.3 3286.93L6395.49 3272.91L6370.27 3249.09L6318.3 3211.14L6311.3 3206.94L6304.29 3198.53L6288.88 3174.71L6283.27 3160.69L6280.47 3148.08V3135.24L6281.87 3124.03L6287.48 3104.41L6302.89 3065.05L6315.5 3042.63L6416.63 2919.08L6446.06 2875.53L6659.52 2472.53L6696.07 2417.76L6743.84 2364.4L6802.81 2309.63L6888.4 2261.87L7174.86 2153.73L7183.26 2145.33L7193.07 2142.52L7219.7 2136.92L7246.32 2131.31L7313.7 2139.72L7381.08 2148.13L7449.86 2156.54L7517.24 2164.94L7577.62 2171.95L7637.99 2180.36L7698.36 2188.77L7758.74 2197.17L7792.48 2201.38L7799.49 2213.99L7828.92 2263.15L7862.67 2355.87L7865.47 2374.09L7868.27 2410.64L7873.88 2431.66L7882.28 2452.68L7890.69 2468.09L7904.71 2479.3L7917.32 2489.11L7929.93 2501.73L7934.13 2519.94H7966.48L8074.61 2518.54L8182.52 2517.49L8289.25 2516.09L8397.38 2514.69L8411.4 2530.1L8419.8 2535.71L8435.22 2542.71L8436.62 2548.32L8442.23 2577.75V2601.57L8438.02 2616.98L8424.01 2611.38L8421.21 2615.58L8419.8 2618.39V2621.19H8431.02L8440.82 2618.39L8449.23 2612.78L8452.03 2601.57L8459.04 2607.17V2612.78L8452.03 2625.39L8449.23 2643.61L8447.83 2652.02L8452.03 2667.43L8459.04 2681.44L8509.6 2737.61L8512.41 2746.02L8504 2758.63L8499.8 2771.24V2785.26L8502.6 2799.27L8508.2 2810.48L8527.82 2837.11L8532.03 2844.11L8530.62 2852.52V2855.32L8540.43 2860.93L8560.05 2869.34L8567.06 2870.74L8588.08 2869.34L8593.68 2872.14L8604.89 2877.74L8611.9 2879.15L8614.7 2881.95V2886.15L8613.3 2890.36L8610.5 2893.16L8606.3 2895.96H8602.09L8597.89 2893.16L8588.31 2899.35L8585.51 2903.55V2913.36L8591.11 2923.17L8603.73 2935.78L8617.74 2945.59L8628.95 2951.2V2954L8642.96 2975.02L8666.79 2998.84L8669.59 3005.85L8663.98 3019.86V3028.27V3036.68L8666.79 3039.48L8665.38 3045.08L8659.78 3054.89L8651.37 3066.1L8642.96 3073.11L8648.57 3064.7V3059.33L8647.17 3042.52L8648.57 3032.71L8652.77 3027.1L8654.17 3021.5L8651.37 3011.69L8642.96 3021.5L8633.15 3046.72L8623.34 3053.73L8634.56 3024.3L8635.96 3015.89L8631.75 3003.28L8627.55 3004.68L8621.94 3014.49L8610.73 3062.25V3073.46L8609.33 3074.86L8606.53 3079.07L8607.93 3083.27L8614.94 3081.87L8617.74 3079.07L8621.94 3067.86L8626.15 3063.65V3094.6L8628.95 3101.6L8634.56 3100.2L8640.16 3094.6L8642.96 3087.59L8648.57 3094.6V3104.41L8647.17 3115.62L8655.57 3118.42L8661.18 3114.22L8665.38 3108.61L8668.19 3101.6V3112.81L8666.79 3117.02L8663.98 3119.82L8666.79 3126.83V3131.03L8662.58 3132.43L8655.57 3133.83L8662.58 3147.85L8663.98 3152.05L8649.97 3145.04H8642.96L8638.76 3152.05L8651.37 3157.66H8662.58L8670.99 3150.65L8676.59 3138.04H8680.8L8685 3147.85L8678 3156.26L8675.19 3168.87L8678 3180.08H8689.21L8693.41 3175.87L8690.61 3170.27L8686.4 3166.06L8685 3161.86L8689.21 3154.85L8696.21 3152.05L8710.23 3147.85L8721.44 3146.45L8729.84 3150.65L8750.86 3171.67L8773.29 3182.88L8778.89 3191.29L8767.68 3199.7L8776.09 3202.5H8784.5L8787.3 3196.89L8784.5 3189.89L8794.31 3194.09L8805.52 3196.89L8827.94 3199.7L8833.54 3196.89L8843.35 3191.29L8848.96 3189.89H8854.56L8867.17 3194.09H8874.18L8885.39 3198.29L8895.2 3206.7L8909.21 3226.32L8913.42 3230.53L8918.2 3233.44L8922.41 3236.25L8926.61 3241.85L8928.01 3246.06L8929.41 3258.67L8930.82 3264.27H8922.41L8918.2 3261.59L8916.8 3254.58L8918.2 3246.06H8914L8901.39 3261.47L8867.64 3257.27L8856.43 3269.88H8850.82L8846.62 3257.27H8836.81L8814.39 3269.88L8818.59 3272.68L8832.61 3275.48L8839.61 3279.69L8843.82 3282.49L8848.02 3286.69L8852.23 3289.5L8859.23 3293.7L8863.44 3297.9L8866.24 3300.71L8870.44 3299.31L8880.25 3289.5V3288.21L8883.05 3285.41L8884.46 3281.21L8887.26 3278.4L8890.06 3281.21L8895.67 3285.41L8901.27 3288.21L8897.07 3298.02L8891.46 3302.23L8884.46 3305.03L8880.25 3312.03L8878.85 3319.04L8877.45 3335.86L8876.05 3344.26L8883.05 3342.86L8890.06 3338.66L8897.07 3333.05L8902.67 3327.45L8909.68 3326.05L8918.2 3327.57L8930.82 3334.57L8925.21 3348.59L8928.01 3361.2L8932.22 3375.21L8935.02 3389.22L8933.62 3417.25L8936.42 3429.86L8946.23 3428.46V3441.07L8950.43 3445.28L8957.44 3443.87L8963.05 3438.27L8960.24 3427.06L8965.85 3421.45L8975.66 3420.05L8984.07 3428.46L8988.27 3422.85L8991.07 3431.26L8989.67 3438.27L8985.47 3445.28L8984.07 3453.68L8981.26 3459.29L8977.06 3462.09H8970.05L8963.05 3460.69L8968.65 3469.1L8982.66 3471.9L8988.27 3478.91L8993.88 3476.1L8998.08 3470.5L9005.09 3456.49V3459.29H9006.49L9009.29 3460.69L9002.28 3473.3L9007.89 3474.7L9023.3 3470.5L9033.11 3471.9L9048.53 3478.91H9058.33L9042.92 3462.09L9037.32 3450.88L9045.72 3442.47L9054.13 3441.07L9059.74 3445.28L9065.34 3449.48L9070.95 3452.28L9075.15 3449.48L9087.76 3438.27L9084.96 3448.08L9079.35 3464.89V3474.7L9083.56 3490.12L9086.36 3498.53L9089.16 3502.73L9100.37 3508.33L9111.58 3520.95L9146.73 3575.71L9164.95 3598.14L9170.56 3602.34L9187.37 3609.35L9192.98 3614.95L9201.39 3623.36L9208.39 3628.96L9244.94 3645.78L9268.77 3662.6L9282.78 3664H9296.79L9310.8 3665.4L9330.42 3676.61L9347.24 3693.43L9378.19 3735.58L9387.99 3753.8L9432.95 3786.15L9442.76 3797.36L9444.16 3814.17L9417.54 3790.35L9402.12 3780.54L9369.78 3776.34L9361.95 3774L9356.35 3766.99L9350.74 3741.77L9345.14 3745.97L9339.53 3757.18L9336.73 3768.4V3776.8V3785.21L9339.53 3792.22L9343.74 3799.22L9349.34 3804.83L9350.74 3809.03L9347.94 3849.79L9349.34 3861L9366.16 3912.96L9373.16 3924.17L9382.97 3933.98L9392.78 3940.99L9444.75 3959.21L9462.96 3974.62L9474.17 3997.04L9478.38 4027.99V4102.37L9475.58 4117.79L9469.97 4131.8L9457.36 4138.81V4129L9453.16 4124.8L9446.15 4127.6L9440.54 4134.6L9444.75 4151.42L9443.35 4178.05L9437.74 4204.67L9432.14 4222.89L9423.73 4215.88L9420.92 4206.07V4194.86L9419.52 4185.05L9415.32 4176.64L9409.71 4172.44L9404.11 4168.24L9399.91 4162.63L9396.99 4160.18H9394.18L9391.38 4158.78L9389.98 4139.16L9388.58 4134.95L9387.18 4130.75L9381.57 4123.74L9374.56 4116.74L9366.16 4111.13L9360.55 4113.82L9343.74 4144.76L9339.42 4148.85L9332.41 4153.05L9335.21 4161.46L9342.22 4171.27L9345.02 4174.07L9346.42 4179.68L9352.03 4188.09L9353.43 4195.09L9352.03 4196.5L9347.82 4197.9L9343.62 4200.7L9340.82 4206.3L9342.22 4216.11L9345.02 4225.92V4235.73L9340.82 4245.54L9350.63 4249.75L9360.44 4244.14L9364.64 4234.33L9361.95 4223.35L9367.56 4224.76L9371.76 4227.56L9378.77 4237.37L9381.57 4238.77L9384.37 4237.37L9385.77 4238.77L9387.18 4242.97V4247.18V4249.98H9389.98H9392.78L9408.2 4254.18L9415.2 4263.99L9418.01 4275.2L9425.01 4287.81V4292.02L9412.4 4304.63L9419.41 4335.58L9433.42 4370.73L9444.63 4393.15L9481.18 4438.11L9496.6 4463.33L9503.6 4494.27H9499.4L9488.19 4463.33L9483.98 4457.72L9476.98 4456.32L9468.57 4452.12L9460.16 4446.51L9453.16 4435.3L9443.35 4428.3L9434.94 4426.89L9432.14 4439.51L9437.74 4449.32L9453.16 4460.53L9457.36 4467.53L9460.16 4460.53L9461.56 4457.72H9465.77L9488.19 4505.49L9558.37 4595.29L9573.78 4609.3L9572.38 4600.89L9568.18 4589.68L9566.78 4581.27L9570.98 4578.47L9577.99 4574.27L9580.79 4575.67L9583.59 4591.08L9586.4 4595.29L9589.2 4596.69L9590.6 4598.09L9594.8 4607.9L9606.01 4613.5L9627.03 4619.11L9632.64 4626.11L9643.85 4655.54L9639.65 4659.75L9646.65 4670.96L9655.06 4687.77L9662.07 4707.39L9664.87 4722.81V4731.21L9660.67 4745.23V4753.63L9662.07 4763.44L9664.87 4769.05L9667.67 4773.25L9670.48 4784.46L9678.88 4801.28L9681.69 4811.09L9677.48 4839.11L9681.69 4865.74L9687.29 4881.15L9694.3 4889.56L9698.5 4876.95L9713.92 4889.56L9730.73 4910.58L9737.74 4921.79L9747.55 4931.6L9760.16 4975.16L9774.17 4984.97L9786.78 4996.18L9792.39 5022.8L9793.79 5063.56L9795.19 5070.56L9800.8 5083.18L9807.8 5094.39L9813.41 5099.99H9823.22L9834.43 5088.78L9835.83 5087.38L9837.23 5088.78L9880.79 5160.36L9908.82 5192.71L9939.76 5206.72L9976.31 5210.93H10010.1L10019.9 5208.13L10042.3 5201.12L10083 5167.37L10084.4 5172.98H10088.7L10115.3 5168.77L10120.9 5171.57L10122.3 5172.98L10123.7 5175.78L10126.5 5178.58L10130.7 5182.79L10137.7 5177.18L10139.1 5181.38V5182.79L10137.7 5188.39L10136.3 5194L10132.7 5196.33L10128.5 5200.54L10129.9 5207.54L10132.7 5213.15L10134.1 5214.55L10132.7 5236.97L10136.9 5241.17L10146.7 5236.97L10155.1 5231.36L10171.9 5201.94L10173.3 5199.13L10180.3 5193.53L10187.3 5187.92L10192.9 5179.52V5164.1L10201.3 5169.71H10212.5L10222.4 5172.51L10225.2 5180.92L10229.4 5189.32L10236.4 5190.73H10246.2L10254.6 5196.33V5201.94L10244.8 5206.14L10232.2 5210.34L10222.4 5215.95L10216.8 5225.76H10215.4L10201.3 5241.17L10198.5 5246.78L10195.7 5255.19L10192.9 5259.39L10156.4 5286.02L10150.8 5294.42L10149.4 5297.23L10141 5308.44L10138.2 5314.04L10136.8 5321.05L10135.4 5336.46L10134 5342.07V5346.27V5350.48V5354.68L10132.7 5356.31L10125.7 5354.91L10122.9 5356.31L10121.5 5357.72V5373.13V5380.14L10124.3 5382.94L10162.2 5387.14L10176.2 5382.94L10183.2 5378.74L10188.8 5374.53L10194.4 5370.33L10202.9 5368.93L10243.6 5377.33L10253.4 5385.74L10271.6 5406.76L10298.3 5413.77L10301.1 5440.39V5457.21L10299.7 5499.37L10303.9 5516.18L10312.3 5531.6L10347.4 5576.55L10378.4 5618.71L10410.7 5659.47L10441.7 5700.22L10474 5742.38L10505 5783.13L10537.3 5823.89L10568.2 5864.64L10600.6 5905.4L10631.5 5947.55L10663.9 5988.31L10694.8 6029.06L10727.2 6069.82L10758.1 6110.57L10790.5 6151.33L10821.4 6192.08L10853.8 6232.84L10886.1 6274.99L10898.7 6286.2L10912.7 6290.41L11011.1 6304.42L11095.3 6315.63L11179.5 6326.84L11263.6 6338.05L11347.8 6349.26L11432 6360.47L11516.2 6371.68L11600.4 6382.89L11684.6 6394.1L11768.8 6405.31L11853 6416.52L11937.2 6427.73L12021.4 6438.95L12105.6 6450.16L12189.8 6461.37L12274 6472.58L12358.2 6483.79L12441 6495L12449.4 6492.19L12490.1 6440.23L12528.1 6504.81L12577.3 6586.2L12626.4 6667.59L12675.6 6750.39L12724.8 6831.78L12757.1 6885.15L12762.7 6899.16V6914.57L12740.3 6988.96L12737.5 6997.37L12733.3 7011.38L12722.1 7047.93L12705.2 7104.1L12682.8 7177.09L12656.2 7264.08L12625.3 7361.01L12594.3 7463.54L12585.9 7488.76L12560.7 7570.15L12526.9 7676.89L12496 7779.42L12465 7876.34L12438.4 7961.94L12416 8034.92L12399.2 8091.09L12388 8126.24L12383.8 8140.25L12364.1 8202.03L12272.9 8234.38L12169 8270.93L12065.1 8307.48L11962.6 8344.03L11858.6 8381.98L11754.7 8418.53L11650.8 8455.08L11546.8 8491.63L11442.9 8528.18L11339 8564.73L11235 8601.29L11132.5 8637.84L11028.6 8675.79L10924.6 8712.34L10820.7 8748.89L10716.8 8785.44L10612.9 8821.99L10548.3 8844.41L10545.5 8845.81L10534.3 8847.22L10450.1 8858.43L10353.1 8872.44L10256.2 8886.45L10159.3 8900.47L10062.4 8914.48L9965.45 8928.49L9867.13 8941.1L9770.2 8955.12L9673.28 8969.13L9576.35 8983.14L9479.43 8997.16L9382.51 9009.77L9285.58 9023.78L9188.66 9037.79L9090.33 9051.81L8993.41 9065.82L8948.45 9071.43L8896.48 9079.83L8817.89 9089.64L8770.13 9107.86L8765.93 9110.66L8754.72 9116.27L8740.71 9123.27L8726.69 9130.28L8712.68 9137.29L8698.67 9144.29L8694.46 9145.69L8683.25 9151.3L8670.64 9158.31L8653.82 9166.71L8641.21 9173.72L8544.29 9222.88L8427.75 9283.26L8323.81 9336.62L8246.63 9375.98L8242.42 9380.18L8232.61 9385.79L8186.25 9444.76L8131.48 9514.94L8034.56 9634.29L7944.76 9748.03L7885.79 9822.41L7875.98 9842.03L7846.55 9920.62L7805.8 10033L7788.98 10055.4L7789.45 10056.9ZM9083.91 3330.37L9095.12 3335.97L9127.47 3344.38L9158.41 3354.19L9147.2 3358.39L9138.79 3355.59L9128.98 3351.39L9119.18 3348.59L9109.37 3349.99L9099.56 3354.19L9091.15 3359.8L9084.14 3366.8L9078.54 3362.6H9075.73L9071.53 3359.8L9067.33 3358.39V3354.19L9075.73 3349.99L9077.14 3347.18L9074.33 3342.98L9071.53 3340.18L9070.13 3337.38L9063.12 3334.57L9056.12 3335.97L9050.51 3337.38L9044.91 3338.78L9036.5 3342.98L9029.49 3349.99L9022.48 3361.2L9018.28 3372.41L9016.88 3354.19L9028.09 3337.38L9044.91 3324.76L9063.12 3320.56L9070.13 3321.96L9075.73 3324.76L9083.91 3330.37Z" fill="#BDE2FF"/>
<path d="M7182.89 2145.31L7174.48 2153.72L6888.03 2261.86L6802.43 2309.62L6743.46 2364.39L6695.7 2417.75L6659.15 2472.52L6445.68 2875.51L6416.26 2919.07L6315.13 3042.62L6302.52 3065.04L6287.1 3104.39L6281.5 3124.01L6280.09 3135.22V3147.84L6282.9 3160.45L6288.5 3174.46L6303.92 3198.28L6310.92 3206.69L6285.7 3243.24L6273.09 3250.25L6257.67 3257.25L6243.66 3255.85L6231.05 3250.25L6219.84 3241.84L6211.43 3230.63L6210.03 3229.23L6207.23 3225.02L6196.02 3215.22L6187.61 3195.6L6172.19 3177.38L6071.07 3086.18L6057.05 3076.37L6030.43 3060.95L6009.41 3053.95L5822.45 3024.29L5805.63 3018.68L5784.61 3008.87L5769.2 2996.26L5753.79 2982.25L5732.77 2952.82L5682.2 2818.06L5579.67 2632.74L5569.86 2618.72L5555.85 2607.51L5539.03 2601.91L5518.02 2603.31L5501.2 2610.32L5431.02 2656.68L5407.19 2667.89L5393.18 2670.69L5377.77 2669.29L5353.94 2660.88L5289.37 2627.13L5272.55 2621.53L5251.53 2620.12L5191.16 2625.73L5175.74 2624.33L5158.93 2620.12L5137.91 2606.11L5123.9 2590.7L5115.49 2569.68L5111.28 2554.26L5109.88 2545.86L5107.08 2493.89L5105.68 2488.29L5100.07 2482.68L5087.46 2475.67H5066.44L5048.23 2478.48L5031.41 2486.88L4982.25 2513.51L4965.43 2520.52L4947.21 2524.72L4927.6 2526.12L4905.17 2523.32L4875.75 2512.11L4854.73 2498.09L4836.51 2484.08L4763.53 2395.68L4749.51 2383.07L4736.9 2374.66L4708.87 2363.45L4501.13 2315.69L4485.72 2314.29L4421.14 2318.49L4346.75 2336.71L4331.34 2339.51H4315.92L4294.9 2335.31L4147.53 2287.55L4127.91 2284.74L4102.69 2283.34L4059.13 2288.95L3737.65 2363.33H3723.64L3688.49 2354.93L3618.3 2325.5L3703.9 2239.9L3713.71 2225.89L3719.31 2211.88L3722.12 2202.07L3723.52 2197.86L3738.93 1966.18L3741.74 1952.17L3745.94 1936.75L3754.35 1922.74L3765.56 1908.73L3780.97 1893.31L3846.95 1842.75L4352.36 1526.87L4402.92 1486.11L4429.55 1458.09L4440.76 1444.07L4443.56 1430.06L4439.36 1416.05L4428.14 1403.44L4336.83 1333.25L4307.4 1305.23L4297.59 1289.81L4279.37 1258.87L4252.75 1194.29L4244.34 1183.08L4228.93 1163.46L4217.71 1150.85L4195.29 1136.84L4177.08 1129.83L4105.49 1120.02H4056.33L4022.58 1115.82L4002.96 1108.81L3986.15 1100.4L3865.4 1003.48L3845.78 993.669L3823.36 988.064H3761.35L3724.8 993.669L3393.51 984.211L3337.34 971.599L3316.32 963.191L3300.91 954.783L3255.95 915.43L3241.93 904.219L3227.92 895.811L3208.3 891.607L2798.3 827.03L2718.31 825.629L2531.59 853.655L2262.07 880.28L2232.64 878.879L2206.01 871.872L2192 866.267L2177.99 859.26L2165.38 848.05L2155.57 834.037L2134.55 797.486L2123.34 773.663L2106.52 742.718L2086.9 714.692L2068.69 696.475L2015.32 658.522L2005.51 645.911L2001.31 634.7L1999.91 624.891L1998.5 620.687L1995.7 602.47L1992.9 558.913L1995.7 535.09L2068.69 264.17L2182.43 230.422L2318.59 191.068L2454.75 151.715L2590.91 110.96L2659.69 91.3417L2680.71 82.9338L2753.69 14.1526L2764.9 4.3435L2770.51 2.94229H2773.31L2774.71 1.54086H2776.11L2777.52 0.139648L2898.26 21.1591L3017.61 42.1788L3136.95 61.7973L3257.7 82.8171L3305.46 91.2248L3513.2 131.98L3545.55 144.591L3579.3 164.21L3641.07 200.761L3694.44 233.108L3747.81 265.455L3801.17 296.4L3854.54 328.747L3907.91 361.094L3959.87 392.04L4013.24 424.387L4066.61 456.734L4119.97 487.679L4173.34 520.026L4226.71 550.972L4280.07 583.319L4332.04 615.666L4385.4 646.611L4438.77 678.958L4492.14 709.904L4545.5 742.251L4586.26 777.4L4638.22 822.359L4688.79 865.917L4739.35 910.875L4791.32 955.834L4848.89 1005L4906.46 1055.56L4964.03 1106.12L4975.24 1115.93L5020.2 1155.29H5021.6L5084.78 1208.65L5138.14 1252.21L5191.51 1295.77L5244.88 1339.33L5298.24 1382.88L5368.42 1439.05L5437.21 1495.22L5507.39 1552.79L5576.17 1608.96L5605.6 1632.78L5646.35 1665.13L5714.32 1719.9L5783.1 1776.07L5853.28 1832.24L5910.85 1880L5968.42 1926.36L6025.99 1972.72L6083.56 2020.48L6131.32 2057.03L6134.12 2058.43L6138.33 2061.24L6142.53 2062.64L6146.74 2064.04L6201.5 2068.24L6250.67 2072.45L6298.43 2078.05L6346.19 2082.26L6395.35 2086.46L6457.13 2092.06L6518.9 2097.67L6580.68 2103.27L6643.85 2108.88L6705.63 2114.49L6767.4 2120.09L6829.18 2125.7L6890.95 2131.3L6937.31 2135.5L6983.67 2139.71L7030.03 2143.91L7076.39 2148.12L7139.57 2153.72L7166.19 2148.12L7182.89 2145.31Z" fill="#BDE2FF"/>
<path d="M2068.13 264.037L1995.14 534.957L1992.34 558.779L1995.14 602.337L1997.94 620.554L1999.35 624.758L2000.75 634.567L2004.95 645.778L2014.76 658.389L2068.13 696.342L2086.34 714.559L2105.96 742.585L2122.78 773.531L2133.99 797.353L2155.01 833.904L2164.82 847.917L2177.43 859.127L2191.44 866.134L2205.46 871.739L2232.08 878.746L2261.51 880.147L2531.03 853.522L2717.75 825.496L2797.74 826.897L3207.74 891.474L3227.36 895.678L3241.38 904.086L3255.39 915.297L3300.35 954.65L3315.76 963.058L3336.78 971.466L3393.53 984.195L3724.83 992.602L3761.38 986.997H3821.75L3844.17 992.602L3863.79 1002.41L3984.54 1099.34L4001.35 1107.74L4020.97 1114.75L4054.72 1118.95H4103.88L4175.47 1128.76L4193.68 1135.77L4216.1 1149.78L4227.32 1162.39L4242.73 1182.01L4251.14 1193.22L4277.76 1257.8L4295.98 1288.75L4305.79 1304.16L4335.22 1332.19L4426.53 1402.37L4437.75 1414.98L4441.95 1428.99L4439.15 1443.01L4427.94 1457.02L4401.31 1485.05L4350.75 1525.8L3845.34 1841.68L3779.36 1892.24L3763.95 1907.66L3752.74 1921.67L3744.33 1935.69L3740.13 1951.1L3737.32 1965.11L3721.91 2196.8L3720.51 2201L3717.7 2210.81L3712.1 2224.82L3702.29 2238.84L3616.69 2324.43L3578.74 2314.62L3566.13 2316.02L3335.85 2411.55L3111.17 2539.3L3005.84 2568.73L2776.96 2678.26L2761.54 2688.07L2747.53 2697.88L2681.55 2770.87L2657.73 2751.25L2649.32 2747.04L2639.51 2744.24L2624.1 2742.84L2603.08 2747.04L2584.86 2751.25L2521.69 2783.6L2506.27 2790.6L2492.26 2792L2476.84 2790.6L2464.23 2782.19L2454.42 2770.98L2437.61 2730.23H2410.98L2399.77 2728.83L2387.16 2724.62L2366.14 2712.01L2352.13 2709.21L2332.04 2715.4L2316.63 2722.4L2297.01 2729.41L2274.59 2730.81L2153.84 2718.2L2115.89 2709.79L2049.91 2687.37L2021.88 2670.56L1981.13 2636.81L1971.32 2624.2L1961.51 2610.18L1954.5 2596.17L1944.7 2572.35L1937.69 2542.92L1933.48 2503.57L1932.08 2441.79L1937.69 2330.85L1934.89 2315.44L1929.28 2301.43L1918.07 2293.02L1904.06 2290.22L1891.45 2294.42L1853.26 2330.62L1812.5 2355.84L1799.89 2367.06L1791.49 2381.07L1784.48 2395.08L1759.26 2458.26L1752.25 2472.27L1742.44 2484.88L1728.43 2491.89L1711.61 2496.09L1607.68 2489.09L1557.12 2479.28L1464.4 2448.57L1429.25 2442.96H1381.48L1236.92 2475.31L1169.54 2500.53H1159.73H1145.71L1120.49 2492.12L1116.29 2489.32L1112.08 2485.12L956.187 2281.58L936.568 2263.36L909.944 2245.14L895.93 2238.13L776.585 2208.71H737.232L689.47 2217.12L609.479 2222.72L484.529 2246.54L459.305 2254.95L438.285 2264.76L417.266 2285.78L407.456 2291.38L392.042 2294.19L305.044 2285.78L255.881 2273.17L234.862 2271.77L215.243 2275.97L163.278 2277.37V2274.57L153.469 2270.37V2266.16L161.877 2250.75L171.686 2222.72L175.89 2193.29L168.883 2176.48V2166.67L175.89 2154.06L181.495 2138.64L194.107 2076.87L196.909 2067.06L203.916 2051.64L202.515 2047.44L203.916 2037.63L209.521 2032.03L223.534 2023.62L219.33 2012.41L217.929 1996.99L219.33 1987.18L227.738 1991.39V1988.58V1987.18L229.139 1985.78H231.942L226.337 1975.97L224.936 1964.76L227.738 1953.55L295.118 1966.16L366.702 1978.78L460.823 1994.19L545.019 2009.6L634.819 2025.02L706.403 2037.63L741.552 2043.24L811.735 2055.85L874.911 2065.66H890.325L905.739 2058.65L971.718 2005.28L1036.29 1951.92L1106.48 1892.94L1152.84 1853.59L1192.19 1787.61L1230.14 1724.44L1258.17 1676.68L1291.92 1619.11L1305.93 1603.69L1322.75 1595.28L1374.71 1584.07L1429.48 1572.86L1516.48 1554.65L1602.07 1537.83L1683.47 1521.01L1755.05 1505.6L1767.66 1494.39L1794.29 1428.41L1815.31 1379.25L1836.33 1325.88L1854.54 1282.32L1862.95 1269.71L1876.97 1258.5L1941.54 1220.55L2015.93 1179.79L2059.49 1154.57L2063.69 1151.77L2034.26 1116.62L1968.28 1038.03L1900.9 959.438L1834.93 880.848L1768.95 802.258L1766.14 800.856L1764.74 798.054L1763.34 795.251L1760.54 793.85L1681.95 708.253L1604.76 624.057L1603.36 622.656L1524.77 537.059L1446.18 451.462L1468.6 444.456L1596.35 405.102L1745.13 360.144L1895.3 315.185L1931.85 305.376L2045.59 270.226L2068.13 264.037Z" fill="#BDE2FF"/>
<path d="M7980.34 8500.79L7789.41 10056.5H7788.01L7775.39 10064.9L7762.78 10071.9L7750.17 10078.9L7745.97 10083.1L7719.34 10098.5L7644.96 10142.1L7630.94 10147.7H7626.74H7612.72H7600.11H7584.7H7570.69H7569.28H7556.67H7543.71H7531.1V10149.1L7526.89 10147.7H7518.49L7511.48 10143.5L7459.52 10071.9L7415.96 10008.7L7376.6 9953.95L7354.18 9941.33L7219.42 9959.55L7118.3 9973.56L6972.33 9958.15L6857.18 9946.94L6707.01 9931.52L6577.86 9917.51L6551.23 9909.1L6451.5 9851.53L6417.76 9844.53L6315.23 9843.13H6301.21H6288.6H6225.31L6103.16 9841.72H6101.76L6090.55 9844.53L6054 9858.54L6052.6 9859.94H6034.38L5993.63 9851.53L5955.67 9850.13L5898.1 9855.74L5851.74 9866.95L5839.13 9868.35L5813.91 9859.94L5801.3 9858.54L5792.89 9865.55L5787.28 9875.36L5784.48 9880.96L5774.67 9892.17L5763.46 9897.78L5748.05 9894.97L5724.22 9883.76L5714.42 9882.36L5701.8 9889.37H5700.4L5691.99 9900.58L5689.19 9906.18L5683.59 9913.19L5675.18 9921.6L5659.76 9924.4L5652.76 9923L5649.95 9920.2L5647.15 9917.4L5645.75 9913.19L5647.15 9900.58V9899.18V9893.57L5642.95 9890.77L5628.93 9896.38H5617.72L5600.91 9894.97L5593.9 9893.57L5571.48 9896.38H5560.27L5549.06 9892.17L5535.05 9882.36L5523.84 9872.55L5492.89 9837.4V9817.78L5509.71 9753.21L5508.31 9719.46L5495.69 9681.51L5494.29 9666.09V9647.88L5499.9 9622.65L5515.31 9482.29L5513.91 9455.66L5508.31 9429.04L5498.5 9401.01L5492.89 9372.99V9357.57L5498.5 9339.35L5511.11 9315.53L5526.52 9295.91L5624.85 9191.98L5692.23 9133.01L5711.85 9113.39L5718.85 9102.18L5725.86 9089.57L5739.87 9054.42L5748.28 9039.01L5762.29 9024.99L5776.31 9015.18L5790.32 9009.58L5832.47 9001.17L5859.1 8991.36L5887.13 8977.35L5913.75 8959.13L5924.96 8947.92L5933.37 8936.71L5941.78 8924.1L5947.38 8907.28L5951.59 8890.47L5952.99 8866.64V8844.22L5950.19 8816.2L5929.17 8734.8V8719.39L5933.37 8702.57L5948.78 8678.75L5962.8 8666.14L6002.15 8645.12L6011.96 8638.11L6017.57 8629.71L6021.77 8615.69L6024.57 8594.67V8513.28L6193.08 8620.01L6236.64 8641.03L6268.98 8653.64L6326.55 8667.66L6482.45 8677.47L7901.86 8524.37L7980.34 8500.79Z" fill="#BDE2FF"/>
<path d="M6024.61 8511.98V8593.37L6021.81 8614.39L6017.6 8628.41L6012 8636.81L6002.19 8643.82L5962.84 8664.84L5948.82 8677.45L5933.41 8701.27L5929.2 8718.09V8733.5L5950.22 8814.9L5953.03 8842.92V8865.34L5951.63 8889.17L5947.42 8905.98L5941.82 8922.8L5933.41 8935.41L5925 8946.62L5913.79 8957.83L5887.17 8976.05L5859.14 8990.06L5832.51 8999.87L5790.36 9008.28L5776.35 9013.88L5762.33 9023.69L5748.32 9037.71L5739.91 9053.12L5725.9 9088.27L5718.89 9100.88L5711.88 9112.09L5692.27 9131.71L5624.89 9190.68L5526.56 9294.61L5511.15 9314.23L5498.54 9338.05L5492.93 9356.27V9371.68L5498.54 9399.71L5508.34 9427.74L5513.95 9454.36L5515.35 9480.99L5499.94 9621.35L5494.33 9646.58V9664.79L5495.73 9680.21L5508.34 9718.16L5509.75 9751.91L5492.93 9816.48V9836.1L5481.72 9823.49L5456.5 9808.08L5442.48 9802.47L5411.54 9788.46L5401.73 9785.66H5380.71L5369.5 9782.85L5356.89 9784.25L5342.87 9789.86L5313.44 9808.08L5295.23 9780.05L5262.88 9732.29L5253.07 9719.68L5239.76 9709.64L5193.4 9692.82L5182.19 9684.41L5172.38 9671.8L5154.16 9631.04L5145.75 9618.43L5130.34 9603.02L5082.58 9565.07L5072.77 9548.25L5069.97 9532.84L5071.37 9506.21L5068.57 9495L5060.04 9484.96L5036.22 9480.75H5032.02L5003.99 9497.57L4978.77 9515.79L4967.55 9527L4959.15 9539.61L4946.53 9564.83L4918.51 9670.16L4912.9 9682.78L4904.5 9691.18L4893.29 9696.79H4880.67L4868.06 9691.18L4852.65 9681.37L4796.48 9622.4L4786.67 9606.99L4778.26 9591.57L4774.06 9578.96L4767.05 9564.95L4754.44 9553.74L4737.62 9543.93L4723.61 9541.13L4628.09 9539.73L4614.07 9535.52L4601.46 9528.52L4588.85 9513.1L4581.84 9500.49L4574.84 9476.67L4570.63 9471.06L4560.82 9459.85L4545.41 9451.44L4531.4 9447.24L4518.78 9445.84L4478.03 9451.44L4465.42 9448.64L4455.61 9438.83L4450 9422.02V9406.6V9392.59L4462.62 9316.8V9302.79L4459.81 9291.58L4454.21 9281.77L4430.39 9274.76L4361.6 9280.37L4382.62 9198.97L4385.43 9182.16V9165.34L4381.22 9145.72L4339.07 9019.37L4332.06 9006.76L4322.25 8996.95L4311.04 8989.94L4298.43 8985.74L4271.8 8980.14L4246.58 8978.73H4180.6L4167.99 8975.93L4156.78 8968.92L4145.57 8959.12L4138.56 8946.5L4134.36 8932.49L4130.15 8919.88L4127.35 8893.25L4131.56 8744.48L4132.96 8731.87L4138.56 8726.26L4148.37 8730.47L4158.18 8738.88L4170.79 8744.48L4182 8745.88L4193.21 8740.28L4224.16 8716.45L4250.78 8701.04L4264.8 8696.84L4277.41 8694.03H4291.42L4358.8 8701.04H4367.21L4375.62 8698.24L4386.83 8694.03L4398.04 8685.63L4406.45 8674.42L4412.05 8661.8L4433.07 8595.83V8580.41L4428.87 8565L4403.64 8521.44L4400.84 8508.83L4399.44 8492.01V8476.6L4417.66 8392.4L4419.06 8379.79V8367.18L4414.85 8353.16L4407.85 8340.55L4398.04 8329.34L4391.03 8323.74L4382.62 8319.53L4370.01 8318.13L4344.79 8319.53L4318.16 8330.74L4378.54 8197.39L4388.35 8165.04L4391.15 8120.08L4396.75 8101.86L4405.16 8085.05L4419.17 8072.44L4490.76 8021.87L4503.37 8009.26L4517.38 7989.64L4521.59 7974.23L4518.78 7958.81L4511.78 7947.6L4496.36 7932.19L4492.16 7912.57L4490.76 7895.75L4520.19 7796.03L4531.4 7814.24L4593.17 7942L4602.98 7956.01L4614.19 7965.82L4626.8 7972.83L4640.82 7977.03L4657.63 7975.63L4677.25 7970.02L4711 7951.81L4730.62 7936.39L4885.11 7797.43L5004.46 7731.45L5021.27 7717.44L5045.09 7693.61L5060.51 7683.8L5077.32 7676.8L5098.34 7672.6L5136.3 7671.19L5146.11 7669.79L5157.32 7665.59L5195.27 7650.17L5214.89 7644.57L5239.76 7638.73L5256.58 7640.13L5273.39 7642.93L5311.34 7656.95L5329.56 7655.55L5350.58 7648.54L5446.1 7592.37L5510.68 7567.15L5599.08 7647.14L5631.43 7686.49L5651.04 7717.44L5687.6 7765.2L5736.76 7821.37L5745.17 7836.78L5749.37 7850.79L5750.77 7862.01L5749.37 7874.62V7877.42L5745.17 7890.03L5739.56 7901.24L5704.41 7958.81L5693.2 7982.64L5669.38 8093.57V8108.99L5673.58 8130.01L5683.39 8145.42L5717.14 8186.18L5776.11 8284.5L6014.8 8504.97L6024.61 8511.98Z" fill="#BDE2FF"/>
<path d="M4360.91 9280.03L4429.69 9274.42L4453.51 9281.43L4459.12 9291.24L4461.92 9302.45V9316.46L4449.31 9392.25V9406.26V9421.68L4454.91 9438.49L4464.72 9448.3L4477.33 9451.1L4518.09 9445.5L4530.7 9446.9L4544.71 9451.1L4560.13 9459.51L4569.94 9470.72L4574.14 9476.33L4581.15 9500.15L4588.15 9512.76L4600.77 9528.18L4613.38 9535.18L4627.39 9539.39L4722.91 9540.79L4736.93 9543.59L4753.74 9553.4L4766.35 9564.61L4773.36 9578.62L4777.56 9591.24L4785.97 9606.65L4795.78 9622.06L4851.95 9681.04L4867.37 9690.85L4879.98 9696.45H4892.59L4903.8 9690.85L4912.21 9682.44L4917.81 9669.83L4945.84 9564.49L4958.45 9539.27L4966.86 9526.66L4978.07 9515.45L5003.29 9497.23L5031.32 9480.41H5035.52L5059.35 9484.62L5067.75 9494.43L5070.56 9505.64L5069.15 9532.26L5071.96 9547.68L5081.77 9564.49L5129.53 9602.45L5144.94 9617.86L5153.35 9630.47L5171.57 9671.23L5181.38 9683.84L5192.59 9692.25L5238.95 9709.06L5251.56 9720.27L5261.37 9732.88L5293.71 9780.65L5311.93 9808.67L5288.11 9824.09L5251.56 9855.03L5236.14 9869.05L5206.72 9905.6L5205.32 9908.4L5239.06 9919.61L5251.68 9929.42L5255.88 9939.23L5257.28 9942.03L5255.88 9954.64L5241.87 9961.65L5227.85 9965.85L5212.44 9971.46L5199.83 9982.67L5195.62 9993.88L5197.02 10009.3L5192.82 10021.9L5180.21 10047.1L5177.41 10059.7L5178.81 10071L5184.41 10080.8L5187.21 10094.8V10108.8L5184.41 10121.4L5174.6 10145.2L5170.4 10160.6L5173.2 10171.8L5185.81 10195.7L5192.82 10219.5L5199.83 10225.1L5222.25 10230.7L5229.25 10236.3L5233.46 10243.3V10251.7L5232.06 10257.3L5226.45 10261.5L5220.85 10264.3L5215.24 10267.1L5206.83 10281.1L5208.23 10289.6L5213.84 10299.4L5218.04 10313.4V10314.8L5213.84 10326L5208.23 10327.4L5204.03 10328.8L5190.02 10324.6L5178.81 10321.8L5164.79 10319L5156.39 10321.8L5153.58 10330.2L5152.18 10344.2L5150.78 10355.4L5135.37 10397.6L5126.96 10407.4L5115.75 10415.8L5114.35 10417.2L5087.72 10432.6L5079.31 10436.8L5072.31 10438.2L5055.49 10441L5048.48 10443.8L5047.08 10452.2L5048.48 10462V10471.8L5044.28 10481.7L5027.47 10492.9L5006.45 10501.3L5002.24 10504.1L4978.42 10512.5L4977.02 10509.7V10491.5V10487.3L4972.81 10480.3L4981.22 10460.6L4977.02 10448L4947.59 10415.7L4940.58 10400.3L4939.18 10389V10361L4946.19 10334.4V10323.2L4934.98 10320.4L4939.18 10314.8L4932.18 10307.8L4926.57 10298L4925.17 10289.6L4930.77 10285.4L4927.97 10278.3L4911.16 10262.9L4906.95 10258.7L4898.54 10247.5L4884.53 10232.1L4880.33 10227.9L4862.11 10218.1L4855.1 10216.7L4848.1 10220.9L4828.48 10191.5L4836.89 10163.4L4832.68 10153.6V10122.7L4829.88 10111.5L4824.28 10108.7L4817.27 10104.5L4815.87 10097.5L4810.26 10091.9L4799.05 10090.5H4786.44H4778.03L4771.03 10083.4L4765.42 10073.6L4757.01 10055.4L4754.21 10047L4751.41 10024.6L4748.6 10016.2L4743 10010.6L4716.37 9999.37L4717.78 10010.6L4721.98 10020.4L4733.19 10038.6L4720.58 10045.6L4726.18 10087.8L4720.58 10099L4716.37 10086.4V10042.8L4713.57 10028.8L4705.16 10005L4695.35 9919.38L4691.15 9903.96L4688.35 9892.75L4692.55 9860.4L4691.15 9847.79L4686.95 9832.38L4682.74 9826.77L4677.14 9825.37L4670.13 9823.97L4665.93 9822.57L4663.12 9819.77L4661.72 9814.16L4657.52 9807.15L4592.94 9750.98L4587.34 9749.58L4585.94 9752.39L4581.73 9746.78L4574.72 9734.17L4563.51 9717.35L4558.84 9706.84L4556.04 9701.24L4551.84 9699.84L4537.82 9702.64L4532.22 9701.24L4529.42 9692.83L4526.61 9687.23L4499.99 9660.6L4498.59 9662L4495.78 9663.4L4490.18 9664.8H4487.38L4481.77 9659.2L4463.55 9632.57L4456.55 9628.37L4421.4 9594.62L4407.38 9600.23L4384.96 9584.81L4370.95 9586.21L4365.35 9569.4L4355.54 9559.59L4341.52 9549.78L4330.31 9538.57L4305.09 9506.22L4300.88 9495.01L4302.29 9486.6L4303.69 9479.6L4302.29 9475.39L4295.28 9472.59L4289.21 9470.96V9465.35V9459.75L4287.81 9455.54L4262.58 9433.12L4252.77 9419.11L4258.38 9407.9L4255.58 9403.69L4266.79 9377.07L4272.39 9365.86L4282.2 9354.65L4293.41 9347.64L4331.36 9326.62L4342.57 9315.41L4349.58 9305.6L4360.91 9280.03ZM4612.21 10302.1V10310.5L4610.81 10321.7L4606.6 10335.7L4608.01 10346.9L4613.61 10365.1L4608.01 10377.7V10379.1L4593.99 10377.7L4577.18 10358.1L4563.16 10352.5H4550.55L4543.55 10345.5L4561.76 10338.5L4571.57 10331.5L4567.37 10317.5L4551.95 10309.1L4536.54 10311.9L4518.32 10313.3L4505.71 10316.1L4494.5 10323.1L4484.69 10328.7L4473.48 10324.5L4459.47 10311.9L4449.66 10302.1L4435.64 10299.2L4420.23 10288L4404.82 10275.4L4397.81 10262.8L4393.61 10243.2L4383.8 10236.2H4372.12L4365.11 10234.8L4366.51 10230.6V10216.6L4356.7 10205.4L4351.1 10192.7L4352.5 10181.5L4360.91 10184.3L4365.11 10188.5L4372.12 10194.1L4395.94 10205.4L4408.55 10220.8L4415.56 10229.2L4416.96 10244.6V10251.6L4428.17 10264.2L4437.98 10272.6L4442.18 10275.4L4464.6 10272.6L4471.61 10285.2H4482.82L4495.43 10281H4506.64L4513.65 10288V10295H4520.66L4538.87 10288L4522.06 10283.8L4512.25 10269.8L4520.66 10258.6L4524.86 10240.4L4529.07 10234.8L4537.47 10233.4L4540.28 10234.8L4545.88 10237.6L4562.7 10247.4V10257.2L4571.1 10271.2L4569.7 10278.2L4585.12 10279.6L4589.32 10292.2L4612.21 10302.1ZM4450.71 10247.4L4442.3 10240.4L4432.49 10229.2L4417.08 10209.6L4404.47 10191.3L4400.26 10184.3L4407.27 10178.7L4421.28 10177.3L4432.49 10174.5L4439.5 10167.5L4445.1 10156.3H4452.11L4453.51 10157.7L4456.31 10145.1L4452.11 10129.7L4443.7 10125.5L4435.29 10121.3H4428.29L4414.27 10118.5L4407.27 10117.1L4404.47 10114.3L4410.07 10110.1L4415.68 10107.3L4417.08 10112.9L4436.7 10114.3L4452.11 10121.3L4461.92 10132.5L4463.32 10135.3L4466.12 10152.1V10164.7L4463.32 10178.7L4466.12 10189.9L4485.74 10194.1L4491.35 10208.2L4466.12 10209.6L4459.12 10218L4461.92 10229.2L4477.33 10234.8L4485.74 10239L4496.95 10244.6L4501.16 10260V10267L4482.94 10255.8L4460.52 10250.2L4450.71 10247.4Z" fill="#BDE2FF"/>
<path d="M162.902 2277.41L214.868 2276.01L234.486 2271.8L255.506 2273.2L304.669 2285.82L391.667 2294.22L407.081 2291.42L416.89 2285.82L437.91 2264.8L458.93 2254.99L484.153 2246.58L609.104 2222.76L689.095 2217.15L736.856 2208.74H776.21L895.555 2238.17L909.568 2245.18L936.193 2263.4L955.811 2281.61L1111.71 2485.15L1115.91 2489.36L1120.11 2492.16L1145.34 2500.57H1159.35H1169.16L1236.54 2475.34L1381.11 2443H1428.87L1464.02 2448.6L1556.74 2479.55L1607.3 2489.36L1711.23 2496.36L1728.05 2492.16L1742.06 2485.15L1751.87 2472.54L1758.88 2458.53L1784.1 2395.35L1791.11 2381.34L1799.52 2367.33L1812.13 2356.12L1853.23 2330.66L1891.19 2294.11L1903.8 2289.9L1917.81 2292.71L1929.02 2301.11L1934.63 2315.13L1937.43 2330.54L1931.82 2441.48L1933.23 2503.25L1937.43 2542.61L1944.44 2572.03L1954.25 2595.86L1961.25 2609.87L1971.06 2623.88L1980.87 2636.49L2021.63 2670.24L2049.65 2687.06L2115.63 2709.48L2153.58 2717.89L2274.33 2730.5L2296.75 2729.1L2316.37 2722.09L2331.78 2715.08L2351.4 2709.48L2365.41 2712.28L2386.43 2724.89L2399.05 2729.1L2410.26 2730.5H2436.88L2453.7 2771.25L2463.51 2782.46L2476.12 2790.87L2491.53 2792.27L2505.54 2790.87L2520.96 2783.87L2584.14 2751.52L2602.35 2747.31L2623.37 2743.11L2638.79 2744.51L2648.6 2747.31L2657 2751.52L2680.83 2771.14L2692.04 2785.15L2701.84 2792.16L2715.86 2797.76L2910.99 2844.12L2944.74 2856.73L2967.16 2869.35L2979.77 2884.76L2982.57 2887.56L2996.59 2901.58L3014.8 2914.19L3051.36 2932.4L3122.94 2991.38L3158.09 3026.53L3166.5 3040.54L3172.1 3055.95L3238.08 3324.07L3245.09 3336.68L3254.9 3349.29L3263.3 3359.1L3287.13 3374.52L3360.11 3413.87L3374.12 3426.48L3386.74 3441.9L3389.54 3455.91L3388.14 3469.92L3382.53 3483.94L3372.72 3497.95L3361.51 3510.56L3287.13 3575.14L3259.1 3613.09L3240.88 3649.64L3205.73 3759.18L3194.52 3781.6L3184.71 3795.61L3174.9 3802.62L3155.29 3771.67L3144.08 3763.27L3130.06 3754.86L3117.45 3753.46L2864.75 3791.41L2804.37 3792.81L2774.95 3788.61L2751.12 3780.2L2678.14 3724.03L2602.35 3696L2579.93 3684.79L2565.92 3672.18L2556.11 3645.56L2549.1 3631.54L2535.09 3620.33L2523.88 3618.93L2516.87 3625.94V3638.55L2519.67 3651.16L2521.08 3665.17L2518.27 3674.98L2502.86 3681.99L2488.85 3680.59L2473.43 3676.38L2428.47 3655.36L2408.85 3648.36H2394.84L2380.83 3649.76L2372.42 3653.96L2319.05 3697.52L2302.24 3708.73L2284.02 3712.94L2271.41 3708.73L2265.8 3698.92V3686.31L2267.2 3672.3V3658.28L2263 3645.67L2253.43 3635.05L2215.47 3611.22L2205.66 3600.01L2201.46 3588.8L2200.06 3577.59L2201.46 3571.99V3569.18V3566.38L2200.06 3557.97L2194.45 3548.16L2184.64 3541.16L2172.03 3535.55L2158.02 3534.15L2097.65 3531.35L2071.02 3527.15L2054.09 3517.1L2040.08 3505.89L2006.33 3453.93L1993.72 3430.1L1982.51 3402.08L1965.69 3340.3L1960.08 3329.09L1951.68 3316.48L1936.26 3305.27L1925.05 3301.07L1913.84 3302.47L1800.1 3364.24L1787.49 3368.45L1773.48 3371.25L1759.46 3369.85L1734.24 3365.64L1716.02 3358.64L1665.46 3326.29L1637.43 3313.68L1619.22 3310.88H1602.4L1589.79 3315.08L1433.89 3389.47L1363.71 3406.28L1351.1 3413.29L1339.42 3422.98L1336.62 3434.19L1339.42 3445.4L1349.23 3452.41L1361.84 3453.81L1401.19 3446.8L1412.41 3445.4L1420.81 3446.8L1430.62 3451.01L1441.83 3458.01L1450.24 3467.82L1455.85 3476.23L1461.45 3488.84L1469.86 3529.6L1471.26 3547.81L1469.86 3585.77L1457.25 3677.08L1458.65 3706.51L1461.45 3721.93L1465.66 3737.34L1471.26 3751.35L1479.67 3765.37L1489.48 3777.98L1502.09 3790.59L1516.1 3800.4L1530.12 3806.01L1600.3 3827.03L1612.91 3834.03L1624.12 3846.64L1629.73 3862.06L1631.13 3878.87L1626.92 3892.89L1622.72 3904.1L1586.17 3964.47L1574.96 3992.5L1572.15 4006.51L1570.75 4020.52L1572.15 4034.54L1576.36 4048.55L1611.51 4118.73L1619.92 4146.76L1626.92 4174.78L1629.73 4185.99L1635.33 4194.4L1643.74 4191.6L1666.16 4173.38L1678.77 4169.18L1692.78 4170.58L1800.92 4233.76L1810.73 4240.76L1813.53 4244.97L1816.33 4246.37L1824.74 4284.32L1830.35 4298.33L1837.35 4310.95L1848.56 4324.96L1927.15 4390.94L1938.36 4403.55L1946.77 4416.16L1956.58 4435.78L1974.8 4486.34L1995.82 4567.74L2001.42 4581.75L2002.82 4583.15L2007.03 4584.55L2016.84 4587.35L2054.79 4590.16L2068.1 4592.61L2076.51 4598.21L2084.92 4605.22L2089.12 4617.83L2090.52 4630.44L2068.1 4783.54L2076.51 5004.01L2073.71 5013.82L2068.1 5026.43L2055.49 5043.25L2041.48 5054.46L2027.46 5061.46L2012.05 5064.27L1982.62 5062.87L1956 5057.26H1941.98L1929.37 5058.66L1915.36 5067.07L1902.75 5081.08L1885.93 5102.1L1871.92 5116.12L1856.5 5125.92L1842.49 5131.53L1829.88 5135.73L1806.06 5138.54H1756.89L1744.28 5141.34L1731.67 5146.94L1721.86 5158.16L1714.85 5169.37L1710.65 5181.98L1703.64 5221.33L1702.24 5225.53L1664.29 5169.37L1626.34 5117.4L1609.52 5093.58L1608.12 5075.36L1610.92 5069.76V5064.15L1609.52 5057.14L1608.12 5052.94L1603.92 5050.14L1595.51 5058.54H1589.32L1578.11 5052.94L1571.1 5041.73L1559.89 5017.91H1575.31L1589.32 5020.71H1603.33L1617.35 5015.1L1625.75 5003.89V4970.15L1639.77 4942.12L1638.37 4928.11L1625.75 4900.08L1622.95 4883.26L1625.75 4843.91V4828.5L1621.55 4814.48L1617.35 4801.87L1610.34 4789.26L1597.73 4775.25L1590.72 4768.24L1585.12 4764.04L1579.51 4758.43L1573.91 4745.82L1568.3 4741.61L1555.69 4731.81L1544.48 4717.79L1534.67 4703.78L1526.26 4688.36L1524.86 4681.36L1523.46 4665.94L1522.06 4660.34L1519.26 4654.73L1509.45 4644.92L1506.64 4637.92L1516.45 4630.91L1508.04 4615.5L1481.42 4587.47L1477.22 4579.06L1467.41 4551.04L1463.2 4545.43L1456.2 4539.83L1451.99 4537.02V4532.82V4523.71L1450.59 4519.51L1444.99 4512.5L1436.58 4492.88L1432.37 4485.88L1423.97 4480.27L1405.75 4471.86L1398.74 4467.66L1374.45 4429.71L1359.04 4410.09L1346.43 4408.69L1345.03 4417.09L1349.23 4424.1L1350.63 4431.11L1343.62 4435.31L1336.62 4432.51L1318.4 4419.9L1308.59 4417.09L1302.99 4412.89L1290.37 4396.07L1286.17 4389.07L1284.77 4384.86L1286.17 4370.85L1284.77 4366.65L1277.76 4365.25L1273.56 4361.04L1266.55 4344.23L1265.15 4328.81L1270.76 4313.4L1283.37 4299.38L1291.78 4285.37L1294.58 4267.15L1291.78 4247.54L1286.17 4232.12L1272.16 4216.71L1252.54 4206.9L1231.52 4201.29L1211.9 4199.89L1189.48 4191.48L1175.47 4173.27L1136.11 4080.55L1122.1 4058.13L1096.88 4021.57L1051.92 3910.64L1004.16 3825.04L974.729 3787.09L939.579 3756.14L924.165 3737.93L914.356 3708.5L896.139 3676.15L883.527 3633.99L873.718 3636.8L865.31 3629.79L849.896 3605.97L810.542 3570.82L762.781 3507.64L745.965 3473.9L743.162 3468.29V3461.28L744.564 3455.68L750.169 3445.87L751.57 3440.26L748.767 3431.86L733.353 3410.84L682.789 3349.06L654.763 3329.44L646.355 3322.44L632.342 3305.62L615.526 3279L596.725 3260.19L574.304 3216.64L567.298 3199.82L565.896 3185.81L564.495 3160.59L561.692 3147.97L556.087 3139.57L536.469 3117.14L525.258 3098.93L509.844 3058.17L497.232 3039.96L491.627 3035.75L478.781 3031.31L474.578 3028.51L471.775 3022.91L468.972 3014.5L461.966 3000.49L459.163 2982.27L453.558 2972.46L422.612 2935.91L412.803 2919.09L407.198 2913.49L397.389 2907.88L367.844 2885.34V2889.55H363.64L358.035 2881.14L365.042 2874.13L379.055 2867.13L388.864 2861.52L395.871 2864.32L394.469 2860.12L388.864 2850.31L386.061 2848.91L369.246 2844.71L363.64 2841.9H359.436V2847.51H356.634L353.831 2843.3L349.627 2837.7L345.423 2834.9L341.219 2833.5H330.009H325.805L317.397 2825.09L289.371 2805.47L283.766 2809.67H276.759H269.753L272.555 2812.48L273.956 2816.68L276.759 2819.48L271.154 2815.28L264.147 2811.07L257.141 2808.27L250.134 2812.48L244.529 2816.68L224.911 2822.28L220.707 2825.09L216.503 2827.89L215.101 2833.5H210.898V2827.89H206.693L198.286 2830.69L185.674 2827.89H174.463L166.055 2837.7L163.253 2834.9L160.45 2833.5V2827.89H166.055V2823.69L163.253 2818.08L166.055 2815.28L171.661 2811.07L177.266 2809.67L171.661 2806.87H166.055H159.049L152.977 2809.44V2813.64H157.18V2819.25L150.174 2820.65L145.97 2826.26L140.365 2837.47L137.562 2834.66H136.161L134.76 2833.26H131.957L134.76 2829.06L137.562 2824.85L143.168 2822.05L148.773 2819.25V2816.45V2813.64V2809.44H140.365L133.358 2810.84L129.154 2815.04L127.753 2823.45L124.95 2820.77H123.549L122.148 2822.17L119.345 2823.57V2820.77V2816.45V2813.64H116.543V2819.25H110.937L108.135 2813.64L105.332 2809.44L102.529 2810.84L98.3255 2813.64L92.7202 2809.44L91.319 2808.04L88.5163 2802.43L85.7137 2799.63L81.5096 2791.22L80.1084 2792.62L78.7072 2794.03L75.9045 2796.83L73.1019 2799.63L66.0952 2794.03L63.2928 2796.83V2803.83L60.4901 2809.44L56.286 2812.24L47.8783 2816.45L45.0757 2819.25V2823.45L57.6875 2833.26V2837.47L53.4834 2838.87H52.0822L50.6808 2840.27L49.2796 2841.67L45.0757 2837.47L42.2731 2850.08L40.8716 2858.49L36.6678 2864.09L24.056 2865.49L25.4572 2862.69H26.8586L28.2598 2861.29L24.056 2855.68L21.2534 2845.87L19.8519 2837.47V2820.65L15.6481 2816.45L0.233646 2822.05L3.03629 2813.64L0 2809.44L8.40793 2796.83L14.0132 2791.22L19.6185 2788.42V2785.62L23.8223 2784.22L28.0264 2778.61L32.2303 2777.21L28.0264 2771.6L29.4276 2768.8L32.2303 2766L35.0329 2763.2H40.6382V2766H39.2368H37.8356L36.4341 2767.4L42.0394 2770.2L47.6447 2771.6L50.4473 2770.2L53.25 2763.2H49.0459V2757.59L44.8421 2753.39L46.2433 2749.18L50.4473 2744.98L57.4538 2743.58V2739.37L54.6512 2732.37L60.2565 2701.42L63.0591 2702.82L67.263 2704.22L70.0656 2705.63L68.6644 2704.22L70.0656 2697.22L65.8618 2698.62L64.4603 2700.02L60.2565 2697.22L72.8683 2684.61L85.48 2662.19L95.2892 2636.96L100.894 2604.61L113.506 2586.4L117.71 2566.78L121.914 2554.17L138.73 2524.74L134.526 2493.79L133.125 2461.45L123.316 2429.1L134.526 2386.94L142.934 2364.52L152.743 2346.31V2342.1H148.539L158.348 2325.29L159.749 2316.88L156.947 2308.47V2304.27L163.954 2283.25L162.902 2277.41ZM1486.79 4637.45L1492.4 4643.06L1495.2 4645.86H1493.8L1491 4644.46H1486.79V4647.26L1489.59 4651.46L1483.99 4650.06L1472.78 4643.06L1468.57 4636.05L1469.98 4630.44H1464.37L1457.36 4633.25L1453.16 4627.64L1450.36 4617.83H1444.75L1437.75 4622.04L1436.34 4617.83L1440.55 4605.22L1446.15 4598.21H1454.56L1462.97 4599.62L1469.98 4603.82L1475.58 4617.83L1479.78 4616.43L1481.19 4612.23L1482.59 4615.03L1486.79 4637.45ZM1434.83 4638.85L1444.64 4637.45L1446.04 4640.25L1436.23 4647.26L1430.62 4650.06L1425.02 4658.47L1418.01 4669.68L1409.6 4676.69L1396.99 4668.28L1385.78 4655.67L1374.45 4647.38L1349.23 4620.75L1347.83 4619.35L1346.43 4615.15V4612.34L1347.83 4610.94V4608.14L1340.82 4601.13L1333.81 4591.32L1335.22 4585.72L1340.82 4587.12L1346.43 4592.61L1357.64 4606.62L1363.24 4610.83L1374.45 4616.43L1395.47 4626.24L1405.28 4629.04H1413.69L1419.3 4633.25L1422.1 4637.45H1409.49L1406.68 4647.26L1412.29 4654.27L1419.3 4652.87L1426.3 4644.46L1434.83 4638.85ZM1378.77 4561.66L1373.17 4558.86L1364.76 4551.85L1366.16 4542.04L1374.57 4536.44L1382.98 4537.84L1388.58 4544.85V4553.26L1382.98 4558.86L1378.77 4561.66ZM1343.62 4585.6L1336.62 4580H1333.81L1331.01 4578.6L1328.21 4574.39V4567.39L1322.6 4565.98L1314.2 4564.58L1312.8 4561.78L1315.6 4563.18L1314.2 4558.98L1308.59 4551.97L1300.18 4546.37H1288.97L1284.77 4550.57L1281.97 4551.97L1276.36 4553.37L1277.76 4547.77L1283.37 4537.96L1293.18 4536.56L1304.39 4539.36L1333.81 4560.38L1336.62 4564.58L1340.82 4572.99L1349.23 4578.6L1359.04 4581.4L1373.05 4589.81L1394.07 4608.02L1399.68 4613.63L1398.28 4616.43L1395.47 4619.23L1396.87 4622.04L1394.07 4619.23L1384.26 4612.23L1375.85 4608.02L1370.25 4605.22L1367.45 4601.02L1364.64 4594.01L1359.04 4591.21L1354.83 4592.61L1349.23 4591.21L1343.62 4585.6ZM1409.6 4550.45V4530.83L1408.2 4526.63V4519.62L1412.41 4514.02L1418.01 4512.62L1423.62 4514.02L1426.42 4521.03V4526.63L1425.02 4532.24H1422.21L1418.01 4529.43V4530.83L1419.41 4535.04V4537.84H1418.01L1422.21 4546.25L1426.42 4564.47L1423.62 4570.07L1416.61 4560.26L1412.41 4557.46L1409.6 4550.45ZM1277.65 4535.04V4539.24L1273.44 4546.25L1269.24 4550.45L1265.03 4547.65L1256.63 4542.04L1208.86 4516.82L1194.85 4514.02L1190.65 4523.83L1185.04 4521.03L1173.83 4509.81L1165.42 4500.01L1162.62 4485.99L1166.83 4474.78L1182.24 4459.37L1189.25 4450.96L1193.45 4448.16L1194.85 4452.36L1190.65 4459.37L1180.84 4474.78L1182.24 4480.39L1186.44 4485.99L1190.65 4490.2H1193.45L1196.25 4491.6L1200.46 4495.8L1204.66 4498.6L1210.27 4500.01L1225.68 4516.82L1232.69 4522.43H1241.09L1246.7 4521.03L1248.1 4523.83V4528.03L1250.9 4533.64L1256.51 4536.44L1262.11 4535.04L1260.71 4533.64V4530.83L1263.52 4528.03L1269.12 4529.43L1277.65 4535.04ZM1193.33 4428.31V4422.7L1191.93 4408.69L1193.33 4380.66L1203.14 4358.24L1217.16 4342.82L1221.36 4341.42L1214.35 4349.83L1207.35 4359.64L1201.86 4370.73L1200.46 4384.75L1206.06 4395.96L1217.27 4407.17L1221.48 4408.57L1227.08 4409.97L1225.68 4414.18L1221.48 4422.58L1218.67 4432.39L1220.08 4435.19V4439.4L1225.68 4443.6L1232.69 4440.8L1234.09 4442.2L1231.29 4447.81L1225.68 4452.01L1217.27 4450.61L1204.66 4440.8L1199.06 4435.19L1193.33 4428.31Z" fill="#BDE2FF"/>
<path d="M1701.68 5225.75L1703.09 5221.54L1710.09 5182.19L1714.3 5169.58L1721.3 5158.37L1731.11 5147.16L1743.72 5141.55L1756.34 5138.75H1805.5L1829.32 5135.95L1841.93 5131.74L1855.95 5126.14L1871.36 5116.33L1885.37 5102.32L1902.19 5081.3L1914.8 5067.28L1928.81 5058.87L1941.43 5057.47H1955.44L1982.06 5063.08L2011.49 5064.48L2026.91 5061.68L2040.92 5054.67L2054.93 5043.46L2067.54 5026.64L2073.15 5014.03L2075.95 5004.22L2067.54 4783.75L2089.96 4630.66L2088.56 4618.05L2084.36 4605.43L2075.95 4598.43L2068.13 4592.59L2055.52 4591.19L2017.56 4588.38L2007.75 4585.58L2003.55 4584.18L2002.15 4582.78L1996.54 4568.77L1975.52 4487.37L1957.31 4436.81L1947.5 4417.19L1939.09 4404.58L1927.88 4391.97L1849.29 4325.99L1838.08 4311.98L1831.07 4299.36L1825.47 4285.35L1817.06 4247.4L1814.26 4246L1811.45 4241.79L1801.64 4234.79L1693.51 4171.61L1679.5 4170.21L1666.89 4174.41L1644.46 4192.63L1636.06 4195.43L1630.45 4187.03L1627.65 4175.81L1620.64 4147.79L1612.23 4119.76L1577.08 4049.58L1572.88 4035.57L1571.48 4021.55L1572.88 4007.54L1575.68 3993.53L1586.89 3965.5L1623.44 3905.13L1627.65 3893.92L1631.85 3879.9L1630.45 3863.09L1624.85 3847.67L1613.64 3835.06L1601.02 3828.06L1530.84 3807.04L1516.83 3801.43L1502.82 3791.62L1490.2 3779.01L1480.39 3766.4L1471.99 3752.39L1466.38 3738.37L1462.18 3722.96L1459.37 3707.54L1457.97 3678.12L1470.58 3586.8L1471.99 3548.84L1470.58 3530.63L1462.18 3489.87L1456.57 3477.26L1450.97 3468.85L1442.56 3459.04L1431.35 3452.04L1421.54 3447.83L1413.13 3446.43L1401.92 3447.83L1362.57 3454.84L1349.96 3453.44L1340.15 3446.43L1337.34 3435.22L1340.15 3424.01L1351.36 3414.2L1363.97 3407.2L1434.15 3390.38L1590.05 3315.99L1602.66 3311.79H1619.47L1637.69 3314.59L1665.72 3327.2L1716.28 3359.55L1734.5 3366.56L1759.72 3370.76L1773.74 3372.16L1787.75 3369.36L1800.36 3365.16L1914.1 3303.38L1925.31 3301.98L1936.52 3306.18L1951.94 3317.39L1960.34 3330.01L1965.95 3341.22L1982.76 3402.99L1993.98 3431.02L2006.59 3454.84L2040.34 3506.81L2054.35 3518.02L2071.16 3527.82L2097.79 3532.03L2158.16 3534.83L2172.17 3536.23L2184.79 3541.84L2194.6 3548.84L2200.2 3558.65L2201.6 3567.06V3569.86V3572.67L2200.2 3578.27L2201.6 3589.48L2205.81 3600.69L2215.62 3611.9L2253.57 3635.73L2263.38 3646.94L2267.58 3659.55V3673.56L2266.18 3687.57V3700.19L2271.78 3710L2284.4 3714.2L2302.61 3710L2319.43 3698.79L2372.8 3655.23L2381.2 3651.02L2395.22 3649.62H2409.23L2428.85 3656.63L2473.81 3677.65L2489.22 3681.85L2503.23 3683.25L2518.65 3676.25L2521.45 3666.44L2520.05 3652.43L2517.25 3639.81V3627.2L2524.25 3620.19L2535.46 3621.6L2549.48 3632.81L2556.48 3646.82L2566.29 3673.44L2580.31 3686.06L2602.73 3697.27L2678.52 3725.29L2751.5 3781.46L2775.32 3789.87L2804.75 3794.07L2865.12 3792.67L3117.83 3754.72L3130.44 3756.12L3144.45 3764.53L3155.66 3772.94L3175.28 3803.88L3186.49 3831.91L3189.29 3845.92L3190.69 3862.74V3878.15L3185.09 3901.98L3182.29 3910.38L3161.27 3951.14L3152.86 3970.76L3154.26 3987.57L3159.87 4001.59L3172.48 4012.8L3185.09 4017L3199.1 4018.4L3227.13 4012.8H3242.54L3255.16 4024.01L3260.76 4038.02L3262.16 4052.03L3228.41 4279.51V4299.13L3231.22 4315.95L3249.43 4390.33L3260.64 4457.71L3255.04 4636.03L3257.84 4654.25L3264.85 4669.66L3273.26 4682.27L3283.06 4692.08L3290.07 4697.69L3301.28 4703.29L3313.89 4707.5L3327.91 4708.9H3341.92L3355.93 4706.09L3506.11 4652.73L3537.05 4648.52L3608.64 4649.93L3635.26 4647.12L3647.87 4644.32L3659.08 4641.52L3667.49 4637.31L3678.7 4631.71L3689.91 4623.3L3702.52 4612.09L3746.08 4555.92L3760.09 4543.31L3776.91 4533.5L3797.93 4526.49L3814.75 4522.29L3918.68 4518.09L4088.58 4544.71L4140.55 4558.72L4155.97 4564.33L4235.96 4583.95L4262.58 4592.35L4273.79 4600.76L4283.6 4613.37L4287.8 4630.19L4290.61 4645.6L4278 4819.72L4282.2 4835.48L4287.8 4850.9L4299.02 4869.11L4313.03 4880.32L4327.04 4887.33L4405.63 4908.35L4415.44 4912.55L4421.05 4918.16L4422.45 4919.56L4433.66 4937.78L4443.47 4963L4475.81 5089.35L4487.02 5115.98L4495.43 5128.59L4505.24 5138.4L4557.21 5177.75L4558.61 5200.17L4550.2 5229.6L4543.19 5249.22L4541.79 5252.02L4513.77 5288.57L4504.07 5304.34L4499.87 5315.55V5325.36L4501.27 5329.56L4509.68 5351.98V5367.4L4508.28 5392.62L4497.07 5443.18L4490.06 5556.92L4491.46 5617.3L4412.87 5606.09L4373.52 5607.49L4359.51 5614.49L4348.29 5622.9L4339.89 5635.51L4337.08 5648.13L4338.49 5662.14L4353.9 5705.7L4356.7 5719.71L4358.1 5733.72L4356.7 5763.15L4352.5 5778.56L4344.09 5796.78L4328.68 5820.6L4313.26 5836.02L4299.25 5847.23L4191.11 5894.99L4112.52 5938.55L4085.9 5959.57L4067.68 5979.19L4060.68 5994.6L4064.88 6008.61L4076.09 6019.82L4088.7 6029.63L4154.68 6066.18L4164.49 6077.4L4168.69 6091.41L4161.69 6109.63L4150.48 6122.24L4136.46 6130.65L4066.28 6155.87L4049.47 6167.08L4031.25 6182.49L3947.05 6268.09L3774.34 6404.25L3750.52 6432.28L3706.96 6499.66L3691.55 6516.47L3677.53 6522.08L3662.12 6523.48L3569.4 6494.05L3553.98 6492.65L3535.77 6496.85L3510.54 6512.27L3448.77 6564.23L3436.16 6572.64H3433.35L3417.36 6577.78L3404.75 6579.18H3390.73L3351.38 6573.58H3348.58L3335.96 6565.17L3328.96 6553.96L3326.15 6541.35L3328.96 6528.73L3334.56 6502.11L3338.77 6474.08L3337.37 6460.07L3334.56 6446.06L3328.96 6432.04L3319.15 6419.43L3307.94 6409.62L3296.73 6401.21L3278.51 6391.41L3237.76 6378.79L3226.54 6373.19L3218.14 6363.38L3216.74 6350.77L3219.54 6336.75L3253.29 6258.16L3256.09 6245.55L3260.29 6214.61V6194.99L3257.49 6182.38L3253.29 6169.76L3246.28 6158.55L3235.07 6148.75L3222.46 6145.94L3209.85 6144.54L3152.28 6151.55L3023.12 6192.3L2976.76 6200.71L2962.75 6195.1L2957.14 6183.89L2954.34 6157.27L2951.54 6144.66L2945.93 6133.45L2933.32 6126.44H2916.5L2851.93 6137.65L2828.11 6139.05L2807.09 6136.25L2793.07 6126.44L2779.06 6115.23L2732.7 6059.06L2683.54 6015.5L2675.13 6007.1L2649.91 5966.34L2637.29 5955.13L2621.88 5949.53L2603.66 5950.93L2560.92 5960.03L2485.13 5965.64L2465.52 5968.44L2464.11 5954.43L2462.71 5936.21L2458.51 5922.2L2457.11 5909.59L2447.3 5899.78L2443.09 5892.77L2440.29 5881.56V5870.35L2426.28 5878.76L2420.67 5874.56H2414.95L2416.35 5885.77L2421.96 5891.37L2437.37 5896.98V5901.18L2416.35 5899.78L2403.74 5887.17L2402.34 5854.82L2375.72 5819.67L2361.7 5774.71L2357.5 5759.3L2354.7 5742.48L2350.49 5727.07L2340.68 5715.86L2335.08 5713.05L2328.07 5711.65L2318.26 5707.45L2312.66 5700.44L2309.85 5692.03L2305.65 5679.42L2297.01 5670.78L2287.2 5666.58L2277.39 5663.77L2268.98 5659.57L2263.38 5655.37L2257.77 5644.16L2247.96 5632.95L2242.36 5628.74L2232.55 5621.74L2221.34 5617.53L2210.13 5616.13L2196.11 5606.32L2189.11 5600.72L2176.5 5589.5L2165.29 5574.09L2152.67 5565.68L2142.86 5555.87L2124.65 5537.66L2119.04 5534.85H2114.84L2109.23 5536.25L2103.63 5540.46L2091.02 5530.65L2081.21 5522.24L2055.98 5506.83L2037.77 5492.81L2040.57 5484.41L2051.78 5477.4L2065.79 5474.6L2060.19 5468.99L2051.78 5471.79L2040.57 5477.4L2034.96 5468.99L2041.97 5457.78L2044.77 5447.97L2039.17 5445.17L2034.96 5449.37L2026.56 5450.78L2023.75 5457.78L2026.56 5460.58L2029.36 5467.59V5476L2030.76 5481.6L2026.56 5485.81L2013.94 5480.2L1995.73 5485.81L1967.7 5464.79L1959.29 5456.38L1935.47 5438.16L1929.86 5424.15L1922.86 5418.54L1911.65 5414.34L1901.84 5407.33L1892.03 5398.93L1880.82 5391.92H1866.81L1859.8 5390.52L1849.99 5397.53L1848.59 5407.33L1851.39 5419.95L1826.17 5421.35L1819.16 5411.54L1802.35 5403.13L1788.33 5407.33L1774.32 5393.32L1765.91 5377.91L1753.3 5359.69L1730.88 5341.47L1723.87 5319.05L1730.88 5305.04L1735.08 5306.44L1746.29 5314.85L1751.9 5303.64L1747.69 5292.43L1701.68 5225.75Z" fill="#BDE2FF"/>
<path d="M4317.33 8330.02L4343.95 8318.81L4369.17 8317.41L4381.79 8318.81L4390.19 8323.01L4397.2 8328.62L4407.01 8339.83L4414.02 8352.44L4418.22 8366.45V8379.06L4416.82 8391.68L4398.6 8475.87V8491.29L4400 8508.1L4402.81 8520.71L4428.03 8564.27L4432.23 8579.68V8595.1L4411.21 8661.08L4405.61 8673.69L4397.2 8684.9L4385.99 8693.31L4374.78 8697.51L4366.37 8700.31H4357.96L4290.59 8693.31H4276.57L4263.96 8696.11L4249.95 8700.31L4223.32 8715.73L4192.38 8739.55L4181.17 8745.16L4169.96 8743.76L4157.34 8738.15L4147.53 8729.74L4137.73 8725.54L4132.12 8731.14L4130.72 8743.76L4126.51 8892.53L4129.32 8919.15L4133.52 8931.76L4137.73 8945.78L4144.73 8958.39L4155.94 8968.2L4167.15 8975.21L4179.76 8978.01H4245.74L4270.97 8979.41L4297.59 8985.01L4310.2 8989.22L4321.41 8996.22L4331.22 9006.03L4338.23 9018.65L4380.39 9145L4384.59 9164.62V9181.43L4381.79 9198.25L4360.77 9279.64L4349.56 9304.86L4342.55 9314.67L4331.34 9325.88L4293.39 9346.9L4282.18 9353.91L4272.37 9365.12L4266.76 9376.33L4255.55 9402.96L4248.55 9393.15L4244.34 9386.14L4242.94 9377.73L4240.14 9374.93L4234.53 9372.13L4230.33 9369.32L4233.13 9359.51L4221.92 9358.11L4209.31 9353.91L4212.11 9351.11V9349.71L4213.51 9348.3L4217.72 9345.5L4213.51 9338.5L4207.91 9334.29H4200.9L4192.49 9337.09L4196.7 9331.49L4199.5 9324.48L4200.9 9318.88L4196.7 9314.67L4200.9 9306.26L4196.7 9302.06L4189.69 9300.66L4179.88 9302.06L4181.28 9293.65L4179.88 9281.04L4175.68 9268.43L4170.07 9260.02L4167.27 9253.02L4163.07 9229.19L4161.66 9223.59L4160.26 9217.98L4158.86 9184.23L4157.46 9180.03L4156.06 9177.23L4153.26 9175.83H4149.05L4146.25 9173.02L4144.85 9167.42V9161.81L4143.45 9157.61L4121.03 9142.19L4118.22 9137.99L4116.82 9130.98L4114.02 9123.98L4109.82 9116.97L4100.01 9112.77L4097.2 9109.96L4094.4 9107.16L4093 9105.76L4088.8 9107.16L4083.19 9112.77L4080.39 9114.17L4073.38 9111.37L4067.78 9107.16L4060.77 9102.96L4056.57 9095.95L4039.75 9060.8L4032.74 9050.99L4025.74 9042.59L4021.53 9034.18V9025.77L4022.93 9013.16L4036.95 8971L4039.75 8958.39L4041.15 8954.19L4043.95 8951.38L4045.36 8947.18L4039.75 8938.77L4036.95 8937.37L4022.93 8930.36L3997.71 8923.36L3992.11 8903.74V8899.53L3979.49 8884.12L3976.69 8882.72V8875.71L3978.09 8868.71L3980.9 8856.09L3983.7 8849.09L3986.5 8843.48L3989.3 8839.28L3990.7 8828.07L3993.51 8814.05L4001.91 8798.64L3996.31 8788.83L3985.1 8781.82L3972.49 8776.22L3947.26 8769.21L3936.05 8760.8L3930.45 8743.99L3920.64 8729.98L3919.24 8724.37V8717.36L3923.44 8701.95V8696.34L3919.24 8683.73V8678.13L3916.43 8672.52L3905.22 8665.52L3902.42 8659.91L3899.62 8647.3L3894.01 8640.29L3884.2 8634.69L3867.39 8622.07L3868.79 8619.27L3870.19 8612.27L3868.79 8605.26L3861.78 8595.45L3860.38 8589.84V8582.84L3856.18 8573.03L3857.58 8566.02L3861.78 8559.02L3867.39 8554.81L3870.19 8549.21L3865.99 8545L3867.39 8538L3865.99 8530.99L3861.78 8525.38L3860.38 8516.98L3809.82 8498.76L3794.4 8491.75L3763.46 8459.41L3749.44 8451V8446.79L3756.45 8448.19L3770.46 8456.6L3773.27 8429.98L3771.87 8397.63L3767.66 8383.62L3739.64 8342.86L3728.43 8335.86L3697.48 8331.65H3684.87L3679.26 8338.66L3686.27 8354.07L3677.86 8347.07L3669.45 8333.05L3665.25 8320.44L3663.85 8314.84L3655.44 8309.23L3630.22 8272.68L3612 8261.47L3607.8 8257.27L3609.2 8253.06L3616.2 8236.25L3612 8223.64L3604.99 8216.63L3586.78 8209.62L3564.36 8195.61L3558.75 8192.81L3553.14 8184.4L3546.49 8182.65L3540.88 8178.44L3526.87 8157.42L3521.26 8156.02L3507.25 8151.82L3501.65 8150.42L3490.44 8147.61L3477.82 8140.61L3449.8 8118.19L3428.78 8094.36L3432.98 8084.55L3423.17 8077.55L3406.36 8073.34L3388.14 8070.54L3383.94 8066.34L3378.33 8059.33L3369.57 8049.17L3363.97 8043.57V8040.76L3358.36 8036.56L3338.74 8018.34L3328.93 8014.14H3314.92L3300.91 8016.94L3288.3 8021.15L3282.69 8026.75L3268.68 8021.15L3243.45 8005.73L3229.44 8000.13V8008.53L3233.65 8012.74L3239.25 8015.54L3243.45 8021.15L3246.26 8022.55L3251.86 8025.35L3256.07 8029.55L3251.86 8032.36L3242.05 8029.55L3181.68 7993L3173.27 7984.59L3166.27 7981.79L3153.65 7977.59L3142.44 7971.98L3134.04 7953.77L3122.83 7942.56L3090.48 7917.33L3073.66 7900.52L3038.51 7842.95L3025.9 7833.14V7827.53H3031.51H3037.11L3039.91 7824.73L3042.72 7819.12L3032.67 7817.61L3025.67 7812L3011.65 7799.39L3007.33 7792.26L3003.13 7772.65L3000.33 7765.64L2980.71 7743.22L2979.31 7732.01L2989.12 7716.59L2968.1 7709.59L2959.69 7708.19L2961.09 7713.79L2963.89 7716.59L2966.7 7719.4L2970.9 7722.2L2959.69 7717.99L2945.68 7709.59L2938.67 7699.78L2942.87 7689.97L2937.27 7687.17L2934.47 7682.96V7678.76L2938.67 7673.15L2941.47 7677.36L2945.68 7681.56L2951.28 7684.36L2959.69 7685.76L2956.89 7678.76L2955.49 7674.55V7670.35L2954.08 7664.74H2951.28L2947.08 7666.15L2942.87 7663.34L2934.47 7652.13H2931.66L2930.26 7663.34L2917.65 7654.94L2899.43 7642.32L2888.22 7625.51V7610.09L2891.02 7614.3L2895.23 7618.5L2899.43 7619.9L2900.83 7615.7L2899.43 7607.29L2895.23 7604.49L2891.02 7603.09L2886.82 7600.29L2881.22 7597.48H2874.21L2868.6 7600.29L2861.6 7601.69V7598.88L2844.78 7573.66L2840.58 7563.85L2839.18 7552.64V7537.23L2837.77 7531.62L2829.37 7526.02L2826.56 7519.01V7512L2823.76 7509.2L2819.56 7507.8L2794.33 7489.58L2787.33 7482.57L2784.52 7464.36L2778.92 7451.75L2777.52 7444.74L2778.92 7440.54L2784.52 7432.13L2785.93 7427.92L2781.72 7419.52L2757.9 7384.37L2750.89 7378.76L2731.28 7347.82L2779.04 7305.66L2786.04 7290.24L2787.44 7269.23L2781.84 7251.01L2773.43 7241.2V7237L2779.04 7231.39V7222.98L2769.23 7201.96L2760.82 7214.57L2755.21 7217.38L2749.61 7208.97L2744 7196.36L2748.21 7192.15L2738.4 7178.14L2735.6 7158.52L2737 7138.9L2735.6 7120.69L2729.99 7103.87V7094.06L2742.6 7089.86L2745.41 7085.65L2748.21 7077.25V7066.03L2744 7059.03L2739.8 7071.64L2735.6 7078.65L2731.39 7081.45H2722.98L2721.58 7078.65V7073.04L2718.78 7067.44L2713.88 7063.58L2712.47 7060.78L2709.67 7057.98L2706.87 7053.77L2704.07 7046.77V7036.96L2701.26 7031.35L2694.26 7027.15L2692.86 7024.35L2690.05 7018.74V7017.34L2669.03 6990.71L2650.82 6952.76L2641.01 6896.59V6883.98L2657.82 6878.38L2673.24 6899.4H2685.85L2688.65 6885.38V6872.77L2690.05 6865.76L2691.45 6862.96L2699.86 6857.36L2701.26 6854.55L2702.66 6841.94L2708.27 6815.32L2709.67 6802.71H2706.87L2697.06 6825.13L2694.26 6815.32L2695.66 6808.31L2699.86 6801.3L2701.26 6791.49V6764.87L2706.87 6746.65L2726.49 6724.23L2732.09 6696.21L2736.3 6689.2L2741.9 6684.99L2747.51 6677.99L2755.91 6659.77L2765.72 6648.56L2768.53 6645.76V6637.35L2764.32 6630.34L2758.72 6626.14L2751.71 6627.54L2747.51 6634.55L2743.3 6652.76L2739.1 6659.77L2725.09 6662.57L2723.68 6642.96L2732.09 6616.33L2726.49 6579.78L2730.69 6543.23L2726.49 6525.01L2722.28 6516.6L2705.47 6494.18L2690.05 6457.63L2677.44 6438.01L2673.24 6426.8L2674.64 6419.8L2691.45 6404.38L2690.05 6398.78L2660.63 6366.43L2649.42 6356.62L2643.81 6359.42L2645.21 6363.63L2656.42 6374.84L2660.63 6380.44L2662.03 6387.45L2663.43 6394.46L2664.83 6401.46L2669.03 6407.07L2664.83 6412.67L2656.42 6393.05L2639.61 6367.83L2622.79 6349.61L2591.84 6292.04V6283.64L2610.06 6293.45L2629.68 6337L2639.49 6339.8L2646.5 6344.01L2652.1 6342.61L2656.3 6338.4L2660.51 6331.4L2653.5 6322.99L2643.69 6303.37L2638.09 6299.17L2633.88 6297.77L2628.28 6293.56L2624.08 6286.56L2622.67 6279.55L2617.07 6268.34L2605.86 6264.13L2591.84 6259.93L2582.04 6254.33L2569.42 6257.13L2561.02 6247.32L2548.4 6219.29L2555.41 6212.29L2559.61 6203.88L2563.82 6194.07L2565.22 6184.26L2563.82 6166.04L2561.02 6156.23L2559.61 6147.83L2552.61 6145.02L2547 6154.83L2540 6139.42L2528.79 6125.4L2517.58 6104.38L2507.77 6090.37L2502.16 6076.36L2495.15 6066.55L2493.75 6058.14L2488.15 6045.53V6037.12L2483.94 6017.5L2475.54 6002.09L2468.53 5982.47L2465.73 5969.86L2485.34 5967.06L2561.13 5961.45L2603.29 5951.64L2621.51 5950.24L2636.92 5955.85L2649.53 5967.06L2674.76 6007.81L2683.16 6016.22L2732.33 6059.78L2778.69 6115.95L2792.7 6127.16L2806.71 6136.96L2827.73 6139.77L2851.55 6138.37L2916.13 6127.16H2932.95L2945.56 6134.16L2951.16 6145.37L2953.97 6157.98L2956.77 6184.61L2962.38 6195.82L2976.39 6201.43L3022.75 6193.02L3151.9 6152.26L3209.47 6145.26L3222.08 6146.66L3234.7 6149.46L3245.91 6159.27L3252.91 6170.48L3257.12 6183.09L3259.92 6195.7V6215.32L3255.72 6246.27L3252.91 6258.88L3219.17 6337.47L3216.36 6351.48L3217.76 6364.09L3226.17 6373.9L3237.38 6379.51L3278.14 6392.12L3296.35 6401.93L3307.56 6410.34L3318.78 6420.15L3328.58 6432.76L3334.19 6446.77L3336.99 6460.78L3338.39 6474.8L3334.19 6502.82L3328.58 6529.45L3325.78 6542.06L3328.58 6554.67L3335.59 6565.88L3348.2 6574.29H3351.01L3390.36 6579.9H3404.37L3416.98 6578.5L3432.4 6574.29H3435.2L3447.81 6565.88L3509.59 6513.92L3534.81 6498.5L3553.03 6494.3L3568.44 6495.7L3661.16 6525.13L3676.58 6523.73L3690.59 6518.12L3706 6501.31L3749.56 6433.93L3773.38 6405.9L3946.1 6269.74L4030.29 6184.14L4048.51 6168.73L4065.32 6157.52L4135.51 6132.29L4149.52 6123.89L4160.73 6111.27L4167.74 6093.06L4163.53 6079.04L4153.72 6067.83L4087.74 6031.28L4075.13 6021.47L4063.92 6010.26L4059.72 5996.25L4066.73 5980.84L4084.94 5961.22L4111.57 5940.2L4190.16 5896.64L4298.29 5848.88L4312.31 5837.67L4327.72 5822.25L4343.13 5798.43L4351.54 5780.21L4355.75 5764.8L4357.15 5735.37L4355.75 5721.36L4352.94 5707.35L4337.53 5663.79L4336.13 5649.78L4338.93 5637.16L4347.34 5624.55L4358.55 5616.14L4372.56 5609.14L4411.92 5607.74L4490.51 5618.95L4484.9 5682.12L4486.3 5724.28L4490.51 5736.89L4497.51 5746.7L4504.52 5752.3L4526.94 5766.32L4539.55 5776.13L4552.16 5788.74L4563.37 5809.76L4595.72 5913.69L4611.14 5948.84L4616.74 5965.65L4634.96 6059.78L4712.15 6246.5L4719.15 6254.91L4727.56 6264.72L4738.77 6274.53L4751.38 6282.93L4765.4 6288.54L4778.01 6292.74L4800.43 6296.95L4894.55 6295.55L5026.51 6306.76L5053.13 6312.36L5068.55 6317.97L5082.56 6324.97L5099.38 6338.99L5107.78 6353L5110.59 6367.01L5107.78 6378.22L5099.38 6406.25L5095.17 6473.63L5096.57 6489.04L5100.78 6505.86L5113.39 6531.08L5126 6542.29L5140.01 6550.7L5166.64 6560.51L5180.65 6561.91L5194.66 6560.51L5266.25 6540.89L5278.86 6538.09L5292.87 6539.49L5364.46 6553.5L5377.07 6556.31L5388.28 6563.31L5398.09 6573.12V6575.93L5381.27 6672.85V6699.47L5412.22 6918.55V6931.16L5409.42 6945.17L5405.21 6957.78L5399.61 6971.8L5392.6 6984.41L5374.38 7008.23L5367.38 7020.84L5361.77 7033.45L5360.37 7046.07L5368.78 7155.6L5364.57 7183.63L5339.35 7277.75V7290.36V7304.37L5343.55 7318.39L5350.56 7331L5509.26 7568.29L5444.68 7593.51L5349.16 7649.68L5328.14 7656.69L5309.92 7658.09L5271.97 7644.08L5255.15 7641.27L5239.74 7639.29L5214.52 7643.49L5194.9 7649.1L5156.95 7664.51L5145.74 7668.72L5135.93 7670.12L5097.97 7671.52L5076.95 7675.72L5060.14 7682.73L5044.72 7692.54L5020.9 7716.36L5004.09 7730.37L4884.74 7796.35L4730.25 7935.31L4710.63 7950.73L4676.88 7968.95L4657.26 7974.55L4640.45 7975.95L4626.43 7971.75L4613.82 7964.74L4602.61 7954.93L4592.8 7940.92L4531.03 7813.17L4519.82 7794.95L4484.67 7765.52L4473.46 7761.32L4458.04 7758.52L4445.43 7762.72L4389.26 7795.07L4375.25 7800.67L4362.64 7804.88H4298.06L4278.44 7807.68L4261.62 7811.88L4232.2 7824.49L4213.98 7830.1L4201.37 7828.7L4194.36 7825.9L4184.55 7818.89L4176.14 7807.68L4169.14 7795.07L4150.92 7741.7L4141.11 7727.69L4128.5 7716.48L4110.28 7708.07L4094.87 7706.67L4080.86 7708.07L4066.84 7713.67L4055.63 7722.08L4045.82 7733.29L4040.22 7743.1L4036.01 7750.11L4033.21 7761.32L4031.81 7773.93L4033.21 7787.94L4038.82 7814.57L4048.62 7852.52L4050.03 7872.14V7879.15L4045.82 7895.96L4003.67 7973.15L3986.85 8015.31L3978.44 8027.92L3964.43 8040.53L3950.42 8047.54L3936.4 8051.74L3877.43 8060.15L3857.81 8065.75L3842.4 8074.16L3829.79 8083.97L3782.38 8132.08L3773.97 8144.69L3772.57 8157.31L3775.37 8168.52L3785.18 8179.73L3797.79 8185.33L3842.75 8199.35L3845.55 8200.75L3851.16 8204.95L3858.16 8216.16L3863.77 8228.77L3867.97 8242.79V8256.8L3860.97 8322.78L3862.37 8335.39L3873.58 8377.55L3874.98 8390.16L3870.78 8443.52L3872.18 8456.14L3874.98 8470.15L3881.99 8482.76L3890.51 8492.92L3897.52 8497.12L3943.88 8522.35L3959.29 8536.36L3997.24 8586.93L4009.86 8598.14L4023.87 8605.14L4040.68 8607.94H4054.7L4068.71 8606.54L4081.32 8602.34L4093.93 8595.33L4105.14 8586.93L4112.15 8574.31L4116.36 8561.7L4132 8492.92L4169.96 8390.39L4186.77 8362.37L4193.78 8353.96L4199.38 8348.35L4210.59 8342.75L4223.2 8341.35H4279.37L4300.39 8338.54L4317.33 8330.02Z" fill="#BDE2FF"/>
<path d="M6311.05 3206.8L6318.05 3211L6370.02 3248.95L6395.24 3272.78L6405.05 3286.79L6413.46 3303.6L6430.27 3362.58L6437.28 3380.79L6452.69 3399.01L6465.31 3411.62L6638.02 3511.35L6666.04 3519.76L6709.6 3523.96L6723.61 3526.76L6736.23 3533.77L6748.84 3544.98L6786.79 3591.34L6844.36 3646.11L6869.58 3664.33L6883.6 3669.93L6908.82 3675.54L7009.95 3678.34L7036.57 3683.94L7063.2 3693.75L7101.15 3714.77L7249.92 3822.91L7263.94 3829.91L7279.35 3834.12L7293.36 3836.92H7307.38L7397.18 3820.1L7412.59 3821.51L7425.2 3825.71L7439.22 3834.12L7538.94 3932.44L7555.76 3957.67L7566.97 3970.28L7579.58 3978.69L7773.31 4055.87L7780.32 4061.48L7788.73 4069.89L7797.14 4082.5L7802.74 4095.11L7806.95 4107.72L7809.75 4128.74L7823.76 5028.74L7829.37 5059.68L7833.57 5069.49L7841.98 5082.1L7851.79 5094.71L8066.66 5250.61L8219.75 5405.1L8244.97 5436.05L8270.2 5478.21L8295.42 5537.18L8309.43 5584.94L8319.24 5664.93L8315.04 5812.3L8142.33 7226.11L7979.42 8500.95L7900.83 8523.37L6482.24 8676.82L6326.34 8667.01L6268.77 8652.99L6236.43 8640.38L6192.87 8619.36L6024.36 8512.63L6014.55 8505.62L5775.86 8285.15L5716.89 8186.82L5683.14 8146.07L5673.33 8130.66L5669.13 8109.64V8094.22L5692.95 7983.28L5704.16 7959.46L5739.31 7901.89L5744.91 7890.68L5749.12 7878.07V7875.15L5750.52 7862.54L5749.12 7851.33L5744.91 7837.31L5736.51 7821.9L5687.34 7765.73L5650.79 7717.97L5631.18 7687.02L5598.83 7647.67L5510.43 7567.68L5351.73 7330.39L5344.72 7317.78L5340.52 7303.77V7289.75V7277.14L5365.74 7183.02L5369.95 7154.99L5361.54 7045.46L5362.94 7032.84L5368.55 7020.23L5375.55 7007.62L5393.77 6983.8L5400.78 6971.19L5406.38 6957.17L5410.59 6944.56L5413.39 6930.55V6917.59L5382.44 6698.52V6671.89L5399.26 6574.97V6572.16L5389.45 6562.35L5378.24 6555.35L5365.63 6552.55L5294.04 6538.53L5280.03 6537.13L5267.42 6539.93L5195.83 6559.55L5181.82 6560.95L5167.81 6559.55L5141.18 6549.74L5127.17 6541.33L5114.56 6530.12L5101.95 6504.9L5097.74 6488.08L5096.34 6472.67L5100.55 6405.29L5108.95 6377.26L5111.76 6366.05L5108.95 6352.04L5100.55 6338.03L5083.73 6324.01L5069.72 6317.01L5054.3 6311.4L5027.68 6305.8L4895.72 6294.59L4801.6 6295.99L4779.18 6291.78L4766.57 6287.58L4752.55 6281.98L4739.94 6273.57L4728.73 6263.76L4720.32 6253.95L4713.32 6245.54L4636.13 6058.82L4617.91 5964.69L4612.3 5947.88L4596.89 5912.73L4564.54 5808.8L4553.33 5787.78L4540.72 5775.17L4528.11 5765.36L4505.69 5751.35L4498.68 5745.74L4491.68 5735.93L4487.47 5723.32L4486.07 5681.16L4491.68 5617.99L4490.27 5557.61L4497.28 5443.87L4508.49 5393.31L4509.89 5368.09V5352.67L4501.48 5330.25L4500.08 5326.05V5316.24L4504.29 5305.03L4514.1 5289.61L4542.12 5253.06L4543.52 5250.26L4550.53 5230.64L4558.94 5201.21L4557.54 5178.79L4570.15 5153.57L4609.5 5091.79L4617.91 5083.39L4634.73 5070.77L4648.74 5065.17L4662.75 5062.37L4675.36 5065.17L4739.94 5097.52L4766.57 5106.39L4810.12 5117.6L4919.66 5128.81H4949.09L5036.09 5116.2L5064.11 5117.6L5111.87 5130.21H5123.08L5135.7 5127.41L5149.71 5120.4L5165.12 5107.79L5176.33 5090.98L5186.14 5067.15L5187.54 5048.94L5183.34 5033.52L5166.52 5005.5L5160.92 4992.89L5158.12 4978.87L5160.92 4962.06L5169.33 4943.84L5228.3 4866.65L5285.87 4807.68L5301.28 4797.87L5315.3 4790.86L5517.44 4741.7L5541.26 4730.49L5556.67 4720.68L5589.02 4689.73L5632.58 4661.71L5645.19 4647.7L5656.4 4629.48L5678.82 4584.52L5695.64 4562.1L5705.44 4552.29L5712.45 4545.28L5722.26 4538.28L5734.87 4532.67L5747.48 4528.47L5761.5 4525.66H5789.52L5918.68 4542.48L6063.25 4532.67L6118.01 4536.88L6130.63 4535.47L6141.84 4531.27L6148.84 4521.46L6153.05 4508.85L6155.85 4494.84L6157.25 4475.22V4451.39L6151.65 4412.04L6144.64 4388.22L6136.23 4368.6L6119.42 4337.66L6115.21 4322.24L6118.01 4302.62L6125.02 4271.68L6122.22 4250.66L6120.82 4247.85L6074.46 4184.68L6021.09 4094.88L6005.68 4076.66L5957.91 4028.9L5948.11 4014.89L5941.1 4002.27L5938.3 3988.26V3974.25L5950.91 3885.85V3856.42L5946.7 3825.48L5948.11 3810.06L5959.32 3794.65L5973.33 3786.24L5987.34 3782.04L6011.16 3776.43L6018.17 3773.63L6027.98 3763.82L6072.94 3699.24L6095.36 3674.02L6121.98 3648.79L6137.4 3637.58L6152.81 3629.18L6182.24 3619.37L6196.25 3612.36L6207.46 3602.55L6215.87 3591.34L6220.08 3580.13L6222.88 3571.72V3570.32V3560.51L6221.48 3547.9L6217.27 3533.89L6211.67 3518.47L6204.66 3504.46L6194.85 3490.45L6182.24 3477.83L6157.02 3456.81L6130.39 3437.2L6091.04 3420.38L6086.83 3411.97L6081.23 3388.15L6079.83 3372.74L6081.23 3358.72L6082.63 3346.11L6089.64 3325.09L6098.05 3302.67L6114.86 3276.04L6130.28 3255.03L6149.89 3238.21L6158.3 3231.2H6159.7L6194.85 3217.19L6206.06 3227L6208.87 3231.2L6210.27 3232.6L6218.68 3243.81L6229.89 3252.22L6242.5 3257.83L6256.51 3259.23L6271.92 3252.22L6284.54 3245.22L6311.05 3206.8Z" fill="#BDE2FF"/>
<path d="M4557.4 5177.98L4505.43 5138.63L4495.62 5128.82L4487.21 5116.21L4476 5089.58L4443.66 4963.23L4433.85 4938.01L4422.64 4919.79L4421.23 4918.39L4415.63 4912.79L4405.82 4908.58L4327.23 4887.56L4313.22 4880.56L4299.2 4869.35L4287.99 4851.13L4282.15 4835.48L4279.35 4820.07L4291.96 4645.95L4289.16 4630.54L4284.96 4613.72L4275.15 4601.11L4263.94 4592.59L4237.31 4584.18L4157.32 4564.56L4141.91 4558.95L4165.73 4537.93L4189.55 4529.53L4226.1 4525.32L4247.12 4519.48L4344.05 4466.12L4366.47 4456.31L4386.08 4450.7L4445.06 4445.1L4459.07 4440.89L4468.88 4431.08L4473.08 4421.28L4470.28 4410.06L4467.48 4401.66L4439.45 4349.69L4435.25 4334.28L4433.85 4320.26L4436.65 4303.45L4445.06 4289.44L4460.47 4272.62L4474.48 4265.61L4487.1 4264.21L4496.91 4267.01L4544.67 4285.23L4560.08 4289.44H4574.09L4585.3 4286.63L4592.31 4275.42L4595.11 4264.21V4252.77L4593.71 4247.16L4582.5 4192.39V4178.38V4164.37L4585.3 4151.76L4595.11 4122.33L4609.13 4094.3L4617.54 4084.49L4630.15 4077.49H4642.76L4656.77 4078.89L4672.19 4077.49L4700.21 4070.48L4712.82 4064.88L4721.23 4052.26L4725.44 4038.25L4735.25 4014.43L4752.06 3985L4823.64 3902.21L4982.34 3773.05L5055.33 3725.29L5194.29 3666.32L5215.31 3652.31L5227.92 3636.89L5236.33 3621.48L5261.55 3566.71L5282.57 3540.08L5312 3510.66L5358.36 3481.23L5587.24 3363.29L5618.19 3352.07L5632.2 3347.87H5646.21L5658.83 3349.27L5672.84 3354.88L5686.85 3361.88L5709.27 3381.5L5753.53 3427.16L5830.72 3490.34L5857.35 3505.75L5871.36 3509.96L5934.53 3514.16L5975.29 3522.57H5989.3L6000.51 3519.76L6011.72 3512.76L6020.13 3507.15L6066.49 3442.58L6091.71 3418.75L6131.07 3435.57L6157.69 3455.19L6182.92 3476.21L6195.53 3488.82L6205.34 3502.83L6212.34 3516.85L6217.95 3532.26L6222.15 3546.27L6223.56 3558.89V3568.69V3570.1L6220.75 3578.5L6216.55 3589.71L6208.14 3600.92L6197.28 3611.08L6183.27 3618.09L6153.84 3627.9L6138.43 3636.31L6123.01 3647.52L6096.39 3672.74L6073.96 3697.97L6029.01 3762.54L6019.2 3772.35L6012.19 3775.15L5988.37 3780.76L5974.35 3784.96L5960.34 3793.37L5949.13 3808.79L5947.73 3824.2L5951.93 3855.15V3884.57L5939.32 3972.97V3986.99L5942.12 4001L5949.13 4013.61L5958.94 4027.62L6006.7 4075.39L6022.12 4093.6L6075.48 4183.4L6121.84 4246.58L6123.24 4249.38L6126.05 4270.4L6119.04 4301.35L6116.24 4320.96L6120.44 4336.38L6137.26 4367.33L6145.67 4386.94L6152.67 4410.77L6158.28 4450.12V4473.94L6156.88 4493.56L6154.07 4507.57L6149.87 4520.18L6142.86 4529.99L6131.65 4534.2L6119.04 4535.6L6064.27 4531.4L5919.7 4541.2L5790.55 4524.39H5762.52L5748.51 4527.19L5735.9 4531.4L5723.29 4537L5713.48 4544.01L5706.47 4551.01L5696.66 4560.82L5679.85 4583.24L5657.43 4628.2L5646.21 4646.42L5633.6 4660.43L5590.05 4688.46L5557.7 4719.4L5542.28 4729.21L5518.46 4740.42L5316.32 4789.59L5302.31 4796.59L5286.89 4806.4L5229.32 4865.37L5170.35 4942.56L5161.94 4960.78L5159.14 4977.6L5161.94 4991.61L5167.55 5004.22L5184.37 5032.25L5188.57 5047.66L5187.17 5065.88L5177.36 5089.7L5166.15 5106.52L5149.8 5120.41L5135.79 5127.42L5123.17 5130.22H5111.96L5064.2 5117.61L5036.18 5116.21L4949.18 5128.82H4919.75L4810.22 5117.61L4766.54 5106.4L4739.92 5096.59L4675.34 5064.24L4662.73 5061.44L4648.71 5064.24L4634.7 5069.85L4617.89 5082.46L4609.48 5090.87L4570.12 5152.64L4557.4 5177.98Z" fill="#BDE2FF"/>
<path d="M3616.68 2325.02L3686.86 2354.45L3722.01 2362.86H3736.03L4057.51 2288.47L4101.07 2282.87L4126.29 2284.27L4145.91 2287.07L4293.28 2334.83L4314.3 2339.03H4329.71L4345.13 2336.23L4419.52 2318.02L4484.09 2313.81L4499.51 2315.21L4707.25 2362.97L4735.28 2374.18L4747.89 2382.59L4761.9 2395.2L4834.89 2483.6L4853.1 2497.62L4874.12 2511.63L4903.55 2522.84L4925.97 2525.64L4945.59 2524.24L4963.81 2520.04L4980.62 2513.03L5029.79 2486.41L5046.6 2478L5064.82 2475.2H5085.84L5098.45 2482.2L5104.06 2487.81L5105.46 2493.41L5108.26 2545.38L5109.66 2553.79L5113.87 2569.2L5122.27 2590.22L5136.29 2605.63L5157.31 2619.65L5174.12 2623.85L5189.54 2625.25L5249.91 2619.65L5270.93 2621.05L5287.74 2626.65L5352.32 2660.4L5376.14 2668.81L5391.56 2670.21L5405.57 2667.41L5429.39 2656.2L5499.58 2609.84L5516.39 2602.83L5537.41 2601.43L5554.23 2607.04L5568.24 2618.25L5578.05 2632.26L5680.58 2817.58L5731.14 2952.34L5752.16 2981.77L5767.58 2995.78L5782.99 3008.39L5804.01 3018.2L5820.83 3023.81L6007.55 3053.24L6028.57 3060.24L6055.2 3075.66L6069.21 3085.47L6170.34 3176.67L6185.75 3194.89L6194.16 3214.5L6159.01 3228.52H6157.61L6149.2 3235.52L6129.58 3252.34L6114.17 3273.36L6097.35 3299.98L6088.94 3322.41L6081.94 3343.42L6080.54 3356.04L6079.14 3370.05L6080.54 3385.46L6086.14 3409.29L6090.35 3417.69L6065.12 3441.52L6018.76 3506.09L6010.35 3511.7L5999.14 3518.71L5987.93 3521.51H5975.44L5934.68 3513.1L5871.51 3510.06L5857.49 3505.86L5830.87 3490.45L5753.56 3427.15L5710.01 3380.79L5687.59 3361.17L5673.57 3354.17L5659.56 3348.56L5646.95 3347.16H5632.93L5618.92 3351.37L5587.98 3362.58L5359.1 3480.52L5312.73 3509.95L5283.31 3539.37L5262.29 3566L5237.06 3620.77L5228.66 3636.18L5216.04 3651.6L5195.02 3665.61L5056.06 3724.58L4982.84 3772.58L4824.14 3901.73L4752.56 3984.52L4735.74 4013.95L4725.94 4038.01L4721.73 4052.02L4713.32 4064.63L4700.71 4070.24L4672.69 4077.24L4657.27 4078.65L4643.26 4077.24H4630.65L4618.03 4084.25L4609.63 4094.06L4595.61 4122.09L4585.8 4151.51L4583 4164.13V4178.14V4192.15L4594.21 4246.92L4595.61 4252.53V4263.74L4592.81 4274.95L4585.8 4286.16L4574.59 4288.96H4560.58L4545.17 4284.76L4497.05 4266.77L4487.25 4263.97L4474.63 4265.37L4460.62 4272.38L4445.21 4289.19L4436.8 4303.21L4434 4320.02L4435.4 4334.04L4439.6 4349.45L4467.63 4401.42L4470.43 4409.82L4473.23 4421.03L4469.03 4430.84L4459.22 4440.65L4445.21 4444.86L4386.23 4450.46L4366.62 4456.07L4344.2 4465.88L4247.15 4519.48L4226.13 4525.08L4189.58 4529.28L4165.76 4537.69L4141.94 4558.71L4089.97 4544.7L3920.06 4518.07L3816.13 4522.28L3799.32 4526.48L3778.3 4533.49L3761.48 4543.3L3747.47 4555.91L3703.91 4612.08L3691.3 4623.29L3680.09 4631.7L3668.88 4637.3L3660.47 4641.51L3649.26 4644.31L3636.65 4647.11L3610.02 4649.91L3538.44 4648.51L3507.5 4652.72L3357.32 4706.08L3343.31 4708.89H3329.29L3315.28 4707.48L3302.67 4703.28L3291.46 4697.68L3284.45 4692.07L3274.64 4682.26L3266.24 4669.65L3259.23 4654.23L3256.43 4636.02L3262.03 4457.7L3250.82 4390.32L3232.6 4315.93L3229.8 4299.12V4279.5L3263.55 4052.02L3262.15 4038.01L3256.54 4023.99L3243.93 4012.78H3228.52L3200.49 4018.39L3186.48 4016.99L3173.87 4012.78L3161.25 4001.57L3155.65 3987.56L3154.25 3970.75L3162.66 3951.13L3183.68 3910.37L3186.48 3901.96L3192.08 3878.14V3862.73L3190.68 3845.91L3187.88 3831.9L3176.67 3803.87L3186.48 3796.87L3196.29 3782.85L3207.5 3760.43L3242.65 3650.9L3260.86 3614.34L3288.89 3576.39L3363.28 3511.82L3374.49 3499.2L3384.3 3485.19L3389.9 3471.18L3391.3 3457.16L3388.5 3443.15L3375.89 3427.74L3361.88 3415.12L3288.89 3375.77L3265.07 3360.36L3256.66 3350.55L3246.85 3337.94L3239.84 3325.32L3173.87 3057.21L3168.26 3041.79L3159.85 3027.78L3124.7 2992.63L3053.12 2933.66L3016.57 2915.44L2998.35 2902.83L2984.34 2888.82L2981.54 2886.01L2968.92 2870.6L2946.5 2857.99L2912.76 2845.38L2717.62 2799.02L2703.61 2793.41L2693.8 2786.4L2682.59 2772.39L2748.57 2699.41L2762.58 2689.6L2778 2679.79L3006.88 2570.25L3112.21 2540.82L3336.89 2413.07L3567.17 2317.55L3579.78 2316.15L3616.68 2325.02Z" fill="#BDE2FF"/>
<path d="M4519.47 7794.51L4490.05 7894.24L4491.45 7911.05L4495.65 7930.67L4511.07 7946.09L4518.07 7957.3L4520.88 7972.71L4516.67 7988.13L4502.66 8007.74L4490.05 8020.59L4418.46 8071.15L4404.45 8083.76L4396.04 8100.58L4390.44 8118.8L4387.63 8163.76L4377.82 8196.1L4317.45 8329.46L4300.64 8337.87L4279.62 8340.67H4223.45L4210.83 8342.07L4199.62 8347.68L4194.02 8353.28L4187.01 8361.69L4170.2 8389.72L4132.01 8492.36L4116.6 8561.14L4112.39 8573.76L4105.39 8586.37L4094.18 8594.78L4081.56 8601.78L4068.95 8605.99L4054.94 8607.39H4040.93L4024.11 8604.59L4010.1 8597.58L3997.49 8586.37L3959.53 8535.8L3944.12 8521.79L3897.76 8496.57L3890.52 8492.36L3882.11 8482.55L3875.1 8469.94L3872.3 8455.93L3870.9 8443.32L3875.1 8389.95L3873.7 8377.34L3862.49 8335.18L3861.09 8322.57L3868.1 8256.59V8242.58L3863.89 8228.57L3858.29 8215.96L3851.28 8204.75L3845.68 8200.54L3842.87 8199.14L3797.91 8185.13L3785.3 8179.52L3775.49 8168.31L3772.69 8157.1L3774.09 8144.49L3782.5 8131.88L3828.86 8084.12L3841.47 8074.31L3856.89 8065.9L3876.51 8060.29L3935.48 8051.88L3949.49 8047.68L3963.5 8040.68L3977.52 8028.06L3985.92 8015.45L4002.74 7973.29L4044.9 7896.11L4049.1 7879.29V7872.28L4047.7 7852.67L4037.89 7814.71L4032.28 7788.09L4030.88 7774.08L4032.28 7761.46L4035.09 7750.25L4039.29 7743.25L4044.9 7733.44L4054.71 7722.23L4065.92 7713.82L4079.93 7708.21L4093.94 7706.81L4109.36 7708.21L4127.57 7716.62L4140.19 7727.83L4149.99 7741.84L4168.21 7795.21L4175.22 7807.82L4183.63 7819.03L4193.44 7826.04L4200.44 7828.84L4213.05 7830.24L4231.27 7824.64L4260.7 7812.03L4277.51 7807.82L4297.13 7805.02H4361.71L4374.32 7800.82L4388.33 7795.21L4444.5 7762.86L4457.12 7758.66L4472.53 7761.46L4483.74 7765.67L4519.47 7794.51Z" fill="#BDE2FF"/>
</svg>
