<svg width="597" height="226" viewBox="0 0 597 226" fill="none" xmlns="http://www.w3.org/2000/svg">
<mask id="path-1-inside-1_3087_7863" fill="white">
<path d="M0 26C0 20.4772 4.47715 16 10 16H587C592.523 16 597 20.4772 597 26V204C597 209.523 592.523 214 587 214H9.99999C4.47714 214 0 209.523 0 204V26Z"/>
</mask>
<path d="M0 26C0 20.4772 4.47715 16 10 16H587C592.523 16 597 20.4772 597 26V204C597 209.523 592.523 214 587 214H9.99999C4.47714 214 0 209.523 0 204V26Z" fill="#DBF0FF"/>
<path d="M0 16H597H0ZM597 204C597 212.837 589.837 220 581 220H16C7.16344 220 0 212.837 0 204C0 206.209 4.47715 208 10 208H587C592.523 208 597 206.209 597 204ZM0 214V16V214ZM597 16V214V16Z" fill="#005FA6" mask="url(#path-1-inside-1_3087_7863)"/>
<path d="M81.9398 84.25V81.13H88.1798V103H84.7298V84.25H81.9398ZM92.4581 98.44V95.86L102.538 81.4H106.678V95.47H109.468V98.44H106.678V103H103.318V98.44H92.4581ZM103.468 84.88L96.3881 95.47H103.468V84.88ZM134.015 82.15V84.94H128.465V103H125.045V84.94H119.465V82.15H134.015ZM139.219 84.28C138.599 84.28 138.079 84.07 137.659 83.65C137.239 83.23 137.029 82.71 137.029 82.09C137.029 81.47 137.239 80.95 137.659 80.53C138.079 80.11 138.599 79.9 139.219 79.9C139.819 79.9 140.329 80.11 140.749 80.53C141.169 80.95 141.379 81.47 141.379 82.09C141.379 82.71 141.169 83.23 140.749 83.65C140.329 84.07 139.819 84.28 139.219 84.28ZM140.899 86.47V103H137.479V86.47H140.899ZM160.539 94.33C160.539 94.95 160.499 95.51 160.419 96.01H147.789C147.889 97.33 148.379 98.39 149.259 99.19C150.139 99.99 151.219 100.39 152.499 100.39C154.339 100.39 155.639 99.62 156.399 98.08H160.089C159.589 99.6 158.679 100.85 157.359 101.83C156.059 102.79 154.439 103.27 152.499 103.27C150.919 103.27 149.499 102.92 148.239 102.22C146.999 101.5 146.019 100.5 145.299 99.22C144.599 97.92 144.249 96.42 144.249 94.72C144.249 93.02 144.589 91.53 145.269 90.25C145.969 88.95 146.939 87.95 148.179 87.25C149.439 86.55 150.879 86.2 152.499 86.2C154.059 86.2 155.449 86.54 156.669 87.22C157.889 87.9 158.839 88.86 159.519 90.1C160.199 91.32 160.539 92.73 160.539 94.33ZM156.969 93.25C156.949 91.99 156.499 90.98 155.619 90.22C154.739 89.46 153.649 89.08 152.349 89.08C151.169 89.08 150.159 89.46 149.319 90.22C148.479 90.96 147.979 91.97 147.819 93.25H156.969ZM167.324 88.87C167.824 88.03 168.484 87.38 169.304 86.92C170.144 86.44 171.134 86.2 172.274 86.2V89.74H171.404C170.064 89.74 169.044 90.08 168.344 90.76C167.664 91.44 167.324 92.62 167.324 94.3V103H163.904V86.47H167.324V88.87ZM188.108 90.7V93.58H175.778V90.7H188.108ZM191.827 94.72C191.827 93.02 192.167 91.53 192.847 90.25C193.547 88.95 194.507 87.95 195.727 87.25C196.947 86.55 198.347 86.2 199.927 86.2C201.927 86.2 203.577 86.68 204.877 87.64C206.197 88.58 207.087 89.93 207.547 91.69H203.857C203.557 90.87 203.077 90.23 202.417 89.77C201.757 89.31 200.927 89.08 199.927 89.08C198.527 89.08 197.407 89.58 196.567 90.58C195.747 91.56 195.337 92.94 195.337 94.72C195.337 96.5 195.747 97.89 196.567 98.89C197.407 99.89 198.527 100.39 199.927 100.39C201.907 100.39 203.217 99.52 203.857 97.78H207.547C207.067 99.46 206.167 100.8 204.847 101.8C203.527 102.78 201.887 103.27 199.927 103.27C198.347 103.27 196.947 102.92 195.727 102.22C194.507 101.5 193.547 100.5 192.847 99.22C192.167 97.92 191.827 96.42 191.827 94.72ZM226.105 94.33C226.105 94.95 226.065 95.51 225.985 96.01H213.355C213.455 97.33 213.945 98.39 214.825 99.19C215.705 99.99 216.785 100.39 218.065 100.39C219.905 100.39 221.205 99.62 221.965 98.08H225.655C225.155 99.6 224.245 100.85 222.925 101.83C221.625 102.79 220.005 103.27 218.065 103.27C216.485 103.27 215.065 102.92 213.805 102.22C212.565 101.5 211.585 100.5 210.865 99.22C210.165 97.92 209.815 96.42 209.815 94.72C209.815 93.02 210.155 91.53 210.835 90.25C211.535 88.95 212.505 87.95 213.745 87.25C215.005 86.55 216.445 86.2 218.065 86.2C219.625 86.2 221.015 86.54 222.235 87.22C223.455 87.9 224.405 88.86 225.085 90.1C225.765 91.32 226.105 92.73 226.105 94.33ZM222.535 93.25C222.515 91.99 222.065 90.98 221.185 90.22C220.305 89.46 219.215 89.08 217.915 89.08C216.735 89.08 215.725 89.46 214.885 90.22C214.045 90.96 213.545 91.97 213.385 93.25H222.535ZM232.891 88.87C233.391 88.03 234.051 87.38 234.871 86.92C235.711 86.44 236.701 86.2 237.841 86.2V89.74H236.971C235.631 89.74 234.611 90.08 233.911 90.76C233.231 91.44 232.891 92.62 232.891 94.3V103H229.471V86.47H232.891V88.87ZM244.974 89.26V98.41C244.974 99.03 245.114 99.48 245.394 99.76C245.694 100.02 246.194 100.15 246.894 100.15H248.994V103H246.294C244.754 103 243.574 102.64 242.754 101.92C241.934 101.2 241.524 100.03 241.524 98.41V89.26H239.574V86.47H241.524V82.36H244.974V86.47H248.994V89.26H244.974ZM253.886 84.28C253.266 84.28 252.746 84.07 252.326 83.65C251.906 83.23 251.696 82.71 251.696 82.09C251.696 81.47 251.906 80.95 252.326 80.53C252.746 80.11 253.266 79.9 253.886 79.9C254.486 79.9 254.996 80.11 255.416 80.53C255.836 80.95 256.046 81.47 256.046 82.09C256.046 82.71 255.836 83.23 255.416 83.65C254.996 84.07 254.486 84.28 253.886 84.28ZM255.566 86.47V103H252.146V86.47H255.566ZM266.987 89.26H263.927V103H260.477V89.26H258.527V86.47H260.477V85.3C260.477 83.4 260.977 82.02 261.977 81.16C262.997 80.28 264.587 79.84 266.747 79.84V82.69C265.707 82.69 264.977 82.89 264.557 83.29C264.137 83.67 263.927 84.34 263.927 85.3V86.47H266.987V89.26ZM271.758 84.28C271.138 84.28 270.618 84.07 270.198 83.65C269.778 83.23 269.568 82.71 269.568 82.09C269.568 81.47 269.778 80.95 270.198 80.53C270.618 80.11 271.138 79.9 271.758 79.9C272.358 79.9 272.868 80.11 273.288 80.53C273.708 80.95 273.918 81.47 273.918 82.09C273.918 82.71 273.708 83.23 273.288 83.65C272.868 84.07 272.358 84.28 271.758 84.28ZM273.438 86.47V103H270.018V86.47H273.438ZM293.078 94.33C293.078 94.95 293.038 95.51 292.958 96.01H280.328C280.428 97.33 280.918 98.39 281.798 99.19C282.678 99.99 283.758 100.39 285.038 100.39C286.878 100.39 288.178 99.62 288.938 98.08H292.628C292.128 99.6 291.218 100.85 289.898 101.83C288.598 102.79 286.978 103.27 285.038 103.27C283.458 103.27 282.038 102.92 280.778 102.22C279.538 101.5 278.558 100.5 277.838 99.22C277.138 97.92 276.788 96.42 276.788 94.72C276.788 93.02 277.128 91.53 277.808 90.25C278.508 88.95 279.478 87.95 280.718 87.25C281.978 86.55 283.418 86.2 285.038 86.2C286.598 86.2 287.988 86.54 289.208 87.22C290.428 87.9 291.378 88.86 292.058 90.1C292.738 91.32 293.078 92.73 293.078 94.33ZM289.508 93.25C289.488 91.99 289.038 90.98 288.158 90.22C287.278 89.46 286.188 89.08 284.888 89.08C283.708 89.08 282.698 89.46 281.858 90.22C281.018 90.96 280.518 91.97 280.358 93.25H289.508ZM295.303 94.66C295.303 93 295.643 91.53 296.323 90.25C297.023 88.97 297.963 87.98 299.143 87.28C300.343 86.56 301.673 86.2 303.133 86.2C304.213 86.2 305.273 86.44 306.313 86.92C307.373 87.38 308.213 88 308.833 88.78V80.8H312.283V103H308.833V100.51C308.273 101.31 307.493 101.97 306.493 102.49C305.513 103.01 304.383 103.27 303.103 103.27C301.663 103.27 300.343 102.91 299.143 102.19C297.963 101.45 297.023 100.43 296.323 99.13C295.643 97.81 295.303 96.32 295.303 94.66ZM308.833 94.72C308.833 93.58 308.593 92.59 308.113 91.75C307.653 90.91 307.043 90.27 306.283 89.83C305.523 89.39 304.703 89.17 303.823 89.17C302.943 89.17 302.123 89.39 301.363 89.83C300.603 90.25 299.983 90.88 299.503 91.72C299.043 92.54 298.813 93.52 298.813 94.66C298.813 95.8 299.043 96.8 299.503 97.66C299.983 98.52 300.603 99.18 301.363 99.64C302.143 100.08 302.963 100.3 303.823 100.3C304.703 100.3 305.523 100.08 306.283 99.64C307.043 99.2 307.653 98.56 308.113 97.72C308.593 96.86 308.833 95.86 308.833 94.72ZM331.378 82.15C333.598 82.15 335.538 82.58 337.198 83.44C338.878 84.28 340.168 85.5 341.068 87.1C341.988 88.68 342.448 90.53 342.448 92.65C342.448 94.77 341.988 96.61 341.068 98.17C340.168 99.73 338.878 100.93 337.198 101.77C335.538 102.59 333.598 103 331.378 103H324.568V82.15H331.378ZM331.378 100.21C333.818 100.21 335.688 99.55 336.988 98.23C338.288 96.91 338.938 95.05 338.938 92.65C338.938 90.23 338.288 88.34 336.988 86.98C335.688 85.62 333.818 84.94 331.378 84.94H327.988V100.21H331.378ZM344.698 94.66C344.698 93 345.038 91.53 345.718 90.25C346.418 88.97 347.358 87.98 348.538 87.28C349.738 86.56 351.058 86.2 352.498 86.2C353.798 86.2 354.928 86.46 355.888 86.98C356.868 87.48 357.648 88.11 358.228 88.87V86.47H361.678V103H358.228V100.54C357.648 101.32 356.858 101.97 355.858 102.49C354.858 103.01 353.718 103.27 352.438 103.27C351.018 103.27 349.718 102.91 348.538 102.19C347.358 101.45 346.418 100.43 345.718 99.13C345.038 97.81 344.698 96.32 344.698 94.66ZM358.228 94.72C358.228 93.58 357.988 92.59 357.508 91.75C357.048 90.91 356.438 90.27 355.678 89.83C354.918 89.39 354.098 89.17 353.218 89.17C352.338 89.17 351.518 89.39 350.758 89.83C349.998 90.25 349.378 90.88 348.898 91.72C348.438 92.54 348.208 93.52 348.208 94.66C348.208 95.8 348.438 96.8 348.898 97.66C349.378 98.52 349.998 99.18 350.758 99.64C351.538 100.08 352.358 100.3 353.218 100.3C354.098 100.3 354.918 100.08 355.678 99.64C356.438 99.2 357.048 98.56 357.508 97.72C357.988 96.86 358.228 95.86 358.228 94.72ZM370.16 89.26V98.41C370.16 99.03 370.3 99.48 370.58 99.76C370.88 100.02 371.38 100.15 372.08 100.15H374.18V103H371.48C369.94 103 368.76 102.64 367.94 101.92C367.12 101.2 366.71 100.03 366.71 98.41V89.26H364.76V86.47H366.71V82.36H370.16V86.47H374.18V89.26H370.16ZM376.192 94.66C376.192 93 376.532 91.53 377.212 90.25C377.912 88.97 378.852 87.98 380.032 87.28C381.232 86.56 382.552 86.2 383.992 86.2C385.292 86.2 386.422 86.46 387.382 86.98C388.362 87.48 389.142 88.11 389.722 88.87V86.47H393.172V103H389.722V100.54C389.142 101.32 388.352 101.97 387.352 102.49C386.352 103.01 385.212 103.27 383.932 103.27C382.512 103.27 381.212 102.91 380.032 102.19C378.852 101.45 377.912 100.43 377.212 99.13C376.532 97.81 376.192 96.32 376.192 94.66ZM389.722 94.72C389.722 93.58 389.482 92.59 389.002 91.75C388.542 90.91 387.932 90.27 387.172 89.83C386.412 89.39 385.592 89.17 384.712 89.17C383.832 89.17 383.012 89.39 382.252 89.83C381.492 90.25 380.872 90.88 380.392 91.72C379.932 92.54 379.702 93.52 379.702 94.66C379.702 95.8 379.932 96.8 380.392 97.66C380.872 98.52 381.492 99.18 382.252 99.64C383.032 100.08 383.852 100.3 384.712 100.3C385.592 100.3 386.412 100.08 387.172 99.64C387.932 99.2 388.542 98.56 389.002 97.72C389.482 96.86 389.722 95.86 389.722 94.72ZM404.317 94.72C404.317 93.02 404.657 91.53 405.337 90.25C406.037 88.95 406.997 87.95 408.217 87.25C409.437 86.55 410.837 86.2 412.417 86.2C414.417 86.2 416.067 86.68 417.367 87.64C418.687 88.58 419.577 89.93 420.037 91.69H416.347C416.047 90.87 415.567 90.23 414.907 89.77C414.247 89.31 413.417 89.08 412.417 89.08C411.017 89.08 409.897 89.58 409.057 90.58C408.237 91.56 407.827 92.94 407.827 94.72C407.827 96.5 408.237 97.89 409.057 98.89C409.897 99.89 411.017 100.39 412.417 100.39C414.397 100.39 415.707 99.52 416.347 97.78H420.037C419.557 99.46 418.657 100.8 417.337 101.8C416.017 102.78 414.377 103.27 412.417 103.27C410.837 103.27 409.437 102.92 408.217 102.22C406.997 101.5 406.037 100.5 405.337 99.22C404.657 97.92 404.317 96.42 404.317 94.72ZM438.595 94.33C438.595 94.95 438.555 95.51 438.475 96.01H425.845C425.945 97.33 426.435 98.39 427.315 99.19C428.195 99.99 429.275 100.39 430.555 100.39C432.395 100.39 433.695 99.62 434.455 98.08H438.145C437.645 99.6 436.735 100.85 435.415 101.83C434.115 102.79 432.495 103.27 430.555 103.27C428.975 103.27 427.555 102.92 426.295 102.22C425.055 101.5 424.075 100.5 423.355 99.22C422.655 97.92 422.305 96.42 422.305 94.72C422.305 93.02 422.645 91.53 423.325 90.25C424.025 88.95 424.995 87.95 426.235 87.25C427.495 86.55 428.935 86.2 430.555 86.2C432.115 86.2 433.505 86.54 434.725 87.22C435.945 87.9 436.895 88.86 437.575 90.1C438.255 91.32 438.595 92.73 438.595 94.33ZM435.025 93.25C435.005 91.99 434.555 90.98 433.675 90.22C432.795 89.46 431.705 89.08 430.405 89.08C429.225 89.08 428.215 89.46 427.375 90.22C426.535 90.96 426.035 91.97 425.875 93.25H435.025ZM450.301 86.2C451.601 86.2 452.761 86.47 453.781 87.01C454.821 87.55 455.631 88.35 456.211 89.41C456.791 90.47 457.081 91.75 457.081 93.25V103H453.691V93.76C453.691 92.28 453.321 91.15 452.581 90.37C451.841 89.57 450.831 89.17 449.551 89.17C448.271 89.17 447.251 89.57 446.491 90.37C445.751 91.15 445.381 92.28 445.381 93.76V103H441.961V86.47H445.381V88.36C445.941 87.68 446.651 87.15 447.511 86.77C448.391 86.39 449.321 86.2 450.301 86.2ZM465.433 89.26V98.41C465.433 99.03 465.573 99.48 465.853 99.76C466.153 100.02 466.653 100.15 467.353 100.15H469.453V103H466.753C465.213 103 464.033 102.64 463.213 101.92C462.393 101.2 461.983 100.03 461.983 98.41V89.26H460.033V86.47H461.983V82.36H465.433V86.47H469.453V89.26H465.433ZM487.755 94.33C487.755 94.95 487.715 95.51 487.635 96.01H475.005C475.105 97.33 475.595 98.39 476.475 99.19C477.355 99.99 478.435 100.39 479.715 100.39C481.555 100.39 482.855 99.62 483.615 98.08H487.305C486.805 99.6 485.895 100.85 484.575 101.83C483.275 102.79 481.655 103.27 479.715 103.27C478.135 103.27 476.715 102.92 475.455 102.22C474.215 101.5 473.235 100.5 472.515 99.22C471.815 97.92 471.465 96.42 471.465 94.72C471.465 93.02 471.805 91.53 472.485 90.25C473.185 88.95 474.155 87.95 475.395 87.25C476.655 86.55 478.095 86.2 479.715 86.2C481.275 86.2 482.665 86.54 483.885 87.22C485.105 87.9 486.055 88.86 486.735 90.1C487.415 91.32 487.755 92.73 487.755 94.33ZM484.185 93.25C484.165 91.99 483.715 90.98 482.835 90.22C481.955 89.46 480.865 89.08 479.565 89.08C478.385 89.08 477.375 89.46 476.535 90.22C475.695 90.96 475.195 91.97 475.035 93.25H484.185ZM494.541 88.87C495.041 88.03 495.701 87.38 496.521 86.92C497.361 86.44 498.351 86.2 499.491 86.2V89.74H498.621C497.281 89.74 496.261 90.08 495.561 90.76C494.881 91.44 494.541 92.62 494.541 94.3V103H491.121V86.47H494.541V88.87ZM508.635 103.27C507.335 103.27 506.165 103.04 505.125 102.58C504.105 102.1 503.295 101.46 502.695 100.66C502.095 99.84 501.775 98.93 501.735 97.93H505.275C505.335 98.63 505.665 99.22 506.265 99.7C506.885 100.16 507.655 100.39 508.575 100.39C509.535 100.39 510.275 100.21 510.795 99.85C511.335 99.47 511.605 98.99 511.605 98.41C511.605 97.79 511.305 97.33 510.705 97.03C510.125 96.73 509.195 96.4 507.915 96.04C506.675 95.7 505.665 95.37 504.885 95.05C504.105 94.73 503.425 94.24 502.845 93.58C502.285 92.92 502.005 92.05 502.005 90.97C502.005 90.09 502.265 89.29 502.785 88.57C503.305 87.83 504.045 87.25 505.005 86.83C505.985 86.41 507.105 86.2 508.365 86.2C510.245 86.2 511.755 86.68 512.895 87.64C514.055 88.58 514.675 89.87 514.755 91.51H511.335C511.275 90.77 510.975 90.18 510.435 89.74C509.895 89.3 509.165 89.08 508.245 89.08C507.345 89.08 506.655 89.25 506.175 89.59C505.695 89.93 505.455 90.38 505.455 90.94C505.455 91.38 505.615 91.75 505.935 92.05C506.255 92.35 506.645 92.59 507.105 92.77C507.565 92.93 508.245 93.14 509.145 93.4C510.345 93.72 511.325 94.05 512.085 94.39C512.865 94.71 513.535 95.19 514.095 95.83C514.655 96.47 514.945 97.32 514.965 98.38C514.965 99.32 514.705 100.16 514.185 100.9C513.665 101.64 512.925 102.22 511.965 102.64C511.025 103.06 509.915 103.27 508.635 103.27ZM149.244 139.66C149.244 138 149.584 136.53 150.264 135.25C150.964 133.97 151.904 132.98 153.084 132.28C154.284 131.56 155.604 131.2 157.044 131.2C158.344 131.2 159.474 131.46 160.434 131.98C161.414 132.48 162.194 133.11 162.774 133.87V131.47H166.224V148H162.774V145.54C162.194 146.32 161.404 146.97 160.404 147.49C159.404 148.01 158.264 148.27 156.984 148.27C155.564 148.27 154.264 147.91 153.084 147.19C151.904 146.45 150.964 145.43 150.264 144.13C149.584 142.81 149.244 141.32 149.244 139.66ZM162.774 139.72C162.774 138.58 162.534 137.59 162.054 136.75C161.594 135.91 160.984 135.27 160.224 134.83C159.464 134.39 158.644 134.17 157.764 134.17C156.884 134.17 156.064 134.39 155.304 134.83C154.544 135.25 153.924 135.88 153.444 136.72C152.984 137.54 152.754 138.52 152.754 139.66C152.754 140.8 152.984 141.8 153.444 142.66C153.924 143.52 154.544 144.18 155.304 144.64C156.084 145.08 156.904 145.3 157.764 145.3C158.644 145.3 159.464 145.08 160.224 144.64C160.984 144.2 161.594 143.56 162.054 142.72C162.534 141.86 162.774 140.86 162.774 139.72ZM169.576 139.72C169.576 138.02 169.916 136.53 170.596 135.25C171.296 133.95 172.256 132.95 173.476 132.25C174.696 131.55 176.096 131.2 177.676 131.2C179.676 131.2 181.326 131.68 182.626 132.64C183.946 133.58 184.836 134.93 185.296 136.69H181.606C181.306 135.87 180.826 135.23 180.166 134.77C179.506 134.31 178.676 134.08 177.676 134.08C176.276 134.08 175.156 134.58 174.316 135.58C173.496 136.56 173.086 137.94 173.086 139.72C173.086 141.5 173.496 142.89 174.316 143.89C175.156 144.89 176.276 145.39 177.676 145.39C179.656 145.39 180.966 144.52 181.606 142.78H185.296C184.816 144.46 183.916 145.8 182.596 146.8C181.276 147.78 179.636 148.27 177.676 148.27C176.096 148.27 174.696 147.92 173.476 147.22C172.256 146.5 171.296 145.5 170.596 144.22C169.916 142.92 169.576 141.42 169.576 139.72ZM192.124 133.87C192.624 133.03 193.284 132.38 194.104 131.92C194.944 131.44 195.934 131.2 197.074 131.2V134.74H196.204C194.864 134.74 193.844 135.08 193.144 135.76C192.464 136.44 192.124 137.62 192.124 139.3V148H188.704V131.47H192.124V133.87ZM207.388 148.27C205.828 148.27 204.418 147.92 203.158 147.22C201.898 146.5 200.908 145.5 200.188 144.22C199.468 142.92 199.108 141.42 199.108 139.72C199.108 138.04 199.478 136.55 200.218 135.25C200.958 133.95 201.968 132.95 203.248 132.25C204.528 131.55 205.958 131.2 207.538 131.2C209.118 131.2 210.548 131.55 211.828 132.25C213.108 132.95 214.118 133.95 214.858 135.25C215.598 136.55 215.968 138.04 215.968 139.72C215.968 141.4 215.588 142.89 214.828 144.19C214.068 145.49 213.028 146.5 211.708 147.22C210.408 147.92 208.968 148.27 207.388 148.27ZM207.388 145.3C208.268 145.3 209.088 145.09 209.848 144.67C210.628 144.25 211.258 143.62 211.738 142.78C212.218 141.94 212.458 140.92 212.458 139.72C212.458 138.52 212.228 137.51 211.768 136.69C211.308 135.85 210.698 135.22 209.938 134.8C209.178 134.38 208.358 134.17 207.478 134.17C206.598 134.17 205.778 134.38 205.018 134.8C204.278 135.22 203.688 135.85 203.248 136.69C202.808 137.51 202.588 138.52 202.588 139.72C202.588 141.5 203.038 142.88 203.938 143.86C204.858 144.82 206.008 145.3 207.388 145.3ZM225.349 148.27C224.049 148.27 222.879 148.04 221.839 147.58C220.819 147.1 220.009 146.46 219.409 145.66C218.809 144.84 218.489 143.93 218.449 142.93H221.989C222.049 143.63 222.379 144.22 222.979 144.7C223.599 145.16 224.369 145.39 225.289 145.39C226.249 145.39 226.989 145.21 227.509 144.85C228.049 144.47 228.319 143.99 228.319 143.41C228.319 142.79 228.019 142.33 227.419 142.03C226.839 141.73 225.909 141.4 224.629 141.04C223.389 140.7 222.379 140.37 221.599 140.05C220.819 139.73 220.139 139.24 219.559 138.58C218.999 137.92 218.719 137.05 218.719 135.97C218.719 135.09 218.979 134.29 219.499 133.57C220.019 132.83 220.759 132.25 221.719 131.83C222.699 131.41 223.819 131.2 225.079 131.2C226.959 131.2 228.469 131.68 229.609 132.64C230.769 133.58 231.389 134.87 231.469 136.51H228.049C227.989 135.77 227.689 135.18 227.149 134.74C226.609 134.3 225.879 134.08 224.959 134.08C224.059 134.08 223.369 134.25 222.889 134.59C222.409 134.93 222.169 135.38 222.169 135.94C222.169 136.38 222.329 136.75 222.649 137.05C222.969 137.35 223.359 137.59 223.819 137.77C224.279 137.93 224.959 138.14 225.859 138.4C227.059 138.72 228.039 139.05 228.799 139.39C229.579 139.71 230.249 140.19 230.809 140.83C231.369 141.47 231.659 142.32 231.679 143.38C231.679 144.32 231.419 145.16 230.899 145.9C230.379 146.64 229.639 147.22 228.679 147.64C227.739 148.06 226.629 148.27 225.349 148.27ZM241.374 148.27C240.074 148.27 238.904 148.04 237.864 147.58C236.844 147.1 236.034 146.46 235.434 145.66C234.834 144.84 234.514 143.93 234.474 142.93H238.014C238.074 143.63 238.404 144.22 239.004 144.7C239.624 145.16 240.394 145.39 241.314 145.39C242.274 145.39 243.014 145.21 243.534 144.85C244.074 144.47 244.344 143.99 244.344 143.41C244.344 142.79 244.044 142.33 243.444 142.03C242.864 141.73 241.934 141.4 240.654 141.04C239.414 140.7 238.404 140.37 237.624 140.05C236.844 139.73 236.164 139.24 235.584 138.58C235.024 137.92 234.744 137.05 234.744 135.97C234.744 135.09 235.004 134.29 235.524 133.57C236.044 132.83 236.784 132.25 237.744 131.83C238.724 131.41 239.844 131.2 241.104 131.2C242.984 131.2 244.494 131.68 245.634 132.64C246.794 133.58 247.414 134.87 247.494 136.51H244.074C244.014 135.77 243.714 135.18 243.174 134.74C242.634 134.3 241.904 134.08 240.984 134.08C240.084 134.08 239.394 134.25 238.914 134.59C238.434 134.93 238.194 135.38 238.194 135.94C238.194 136.38 238.354 136.75 238.674 137.05C238.994 137.35 239.384 137.59 239.844 137.77C240.304 137.93 240.984 138.14 241.884 138.4C243.084 138.72 244.064 139.05 244.824 139.39C245.604 139.71 246.274 140.19 246.834 140.83C247.394 141.47 247.684 142.32 247.704 143.38C247.704 144.32 247.444 145.16 246.924 145.9C246.404 146.64 245.664 147.22 244.704 147.64C243.764 148.06 242.654 148.27 241.374 148.27ZM263.182 134.26V143.41C263.182 144.03 263.322 144.48 263.602 144.76C263.902 145.02 264.402 145.15 265.102 145.15H267.202V148H264.502C262.962 148 261.782 147.64 260.962 146.92C260.142 146.2 259.732 145.03 259.732 143.41V134.26H257.782V131.47H259.732V127.36H263.182V131.47H267.202V134.26H263.182ZM278.904 131.2C280.164 131.2 281.284 131.47 282.264 132.01C283.264 132.55 284.044 133.35 284.604 134.41C285.184 135.47 285.474 136.75 285.474 138.25V148H282.084V138.76C282.084 137.28 281.714 136.15 280.974 135.37C280.234 134.57 279.224 134.17 277.944 134.17C276.664 134.17 275.644 134.57 274.884 135.37C274.144 136.15 273.774 137.28 273.774 138.76V148H270.354V125.8H273.774V133.39C274.354 132.69 275.084 132.15 275.964 131.77C276.864 131.39 277.844 131.2 278.904 131.2ZM304.987 139.33C304.987 139.95 304.947 140.51 304.867 141.01H292.237C292.337 142.33 292.827 143.39 293.707 144.19C294.587 144.99 295.667 145.39 296.947 145.39C298.787 145.39 300.087 144.62 300.847 143.08H304.537C304.037 144.6 303.127 145.85 301.807 146.83C300.507 147.79 298.887 148.27 296.947 148.27C295.367 148.27 293.947 147.92 292.687 147.22C291.447 146.5 290.467 145.5 289.747 144.22C289.047 142.92 288.697 141.42 288.697 139.72C288.697 138.02 289.037 136.53 289.717 135.25C290.417 133.95 291.387 132.95 292.627 132.25C293.887 131.55 295.327 131.2 296.947 131.2C298.507 131.2 299.897 131.54 301.117 132.22C302.337 132.9 303.287 133.86 303.967 135.1C304.647 136.32 304.987 137.73 304.987 139.33ZM301.417 138.25C301.397 136.99 300.947 135.98 300.067 135.22C299.187 134.46 298.097 134.08 296.797 134.08C295.617 134.08 294.607 134.46 293.767 135.22C292.927 135.96 292.427 136.97 292.267 138.25H301.417ZM322.686 139.75L330.306 148H325.686L319.566 140.89V148H316.146V125.8H319.566V138.7L325.566 131.47H330.306L322.686 139.75ZM334.497 129.28C333.877 129.28 333.357 129.07 332.937 128.65C332.517 128.23 332.307 127.71 332.307 127.09C332.307 126.47 332.517 125.95 332.937 125.53C333.357 125.11 333.877 124.9 334.497 124.9C335.097 124.9 335.607 125.11 336.027 125.53C336.447 125.95 336.657 126.47 336.657 127.09C336.657 127.71 336.447 128.23 336.027 128.65C335.607 129.07 335.097 129.28 334.497 129.28ZM336.177 131.47V148H332.757V131.47H336.177ZM349.007 131.2C350.307 131.2 351.467 131.47 352.487 132.01C353.527 132.55 354.337 133.35 354.917 134.41C355.497 135.47 355.787 136.75 355.787 138.25V148H352.397V138.76C352.397 137.28 352.027 136.15 351.287 135.37C350.547 134.57 349.537 134.17 348.257 134.17C346.977 134.17 345.957 134.57 345.197 135.37C344.457 136.15 344.087 137.28 344.087 138.76V148H340.667V131.47H344.087V133.36C344.647 132.68 345.357 132.15 346.217 131.77C347.097 131.39 348.027 131.2 349.007 131.2ZM366.809 131.2C368.089 131.2 369.219 131.46 370.199 131.98C371.199 132.48 371.979 133.11 372.539 133.87V131.47H375.989V148.27C375.989 149.79 375.669 151.14 375.029 152.32C374.389 153.52 373.459 154.46 372.239 155.14C371.039 155.82 369.599 156.16 367.919 156.16C365.679 156.16 363.819 155.63 362.339 154.57C360.859 153.53 360.019 152.11 359.819 150.31H363.209C363.469 151.17 364.019 151.86 364.859 152.38C365.719 152.92 366.739 153.19 367.919 153.19C369.299 153.19 370.409 152.77 371.249 151.93C372.109 151.09 372.539 149.87 372.539 148.27V145.51C371.959 146.29 371.169 146.95 370.169 147.49C369.189 148.01 368.069 148.27 366.809 148.27C365.369 148.27 364.049 147.91 362.849 147.19C361.669 146.45 360.729 145.43 360.029 144.13C359.349 142.81 359.009 141.32 359.009 139.66C359.009 138 359.349 136.53 360.029 135.25C360.729 133.97 361.669 132.98 362.849 132.28C364.049 131.56 365.369 131.2 366.809 131.2ZM372.539 139.72C372.539 138.58 372.299 137.59 371.819 136.75C371.359 135.91 370.749 135.27 369.989 134.83C369.229 134.39 368.409 134.17 367.529 134.17C366.649 134.17 365.829 134.39 365.069 134.83C364.309 135.25 363.689 135.88 363.209 136.72C362.749 137.54 362.519 138.52 362.519 139.66C362.519 140.8 362.749 141.8 363.209 142.66C363.689 143.52 364.309 144.18 365.069 144.64C365.849 145.08 366.669 145.3 367.529 145.3C368.409 145.3 369.229 145.08 369.989 144.64C370.749 144.2 371.359 143.56 371.819 142.72C372.299 141.86 372.539 140.86 372.539 139.72ZM379.341 139.66C379.341 138 379.681 136.53 380.361 135.25C381.061 133.97 382.001 132.98 383.181 132.28C384.381 131.56 385.711 131.2 387.171 131.2C388.251 131.2 389.311 131.44 390.351 131.92C391.411 132.38 392.251 133 392.871 133.78V125.8H396.321V148H392.871V145.51C392.311 146.31 391.531 146.97 390.531 147.49C389.551 148.01 388.421 148.27 387.141 148.27C385.701 148.27 384.381 147.91 383.181 147.19C382.001 146.45 381.061 145.43 380.361 144.13C379.681 142.81 379.341 141.32 379.341 139.66ZM392.871 139.72C392.871 138.58 392.631 137.59 392.151 136.75C391.691 135.91 391.081 135.27 390.321 134.83C389.561 134.39 388.741 134.17 387.861 134.17C386.981 134.17 386.161 134.39 385.401 134.83C384.641 135.25 384.021 135.88 383.541 136.72C383.081 137.54 382.851 138.52 382.851 139.66C382.851 140.8 383.081 141.8 383.541 142.66C384.021 143.52 384.641 144.18 385.401 144.64C386.181 145.08 387.001 145.3 387.861 145.3C388.741 145.3 389.561 145.08 390.321 144.64C391.081 144.2 391.691 143.56 392.151 142.72C392.631 141.86 392.871 140.86 392.871 139.72ZM407.983 148.27C406.423 148.27 405.013 147.92 403.753 147.22C402.493 146.5 401.503 145.5 400.783 144.22C400.063 142.92 399.703 141.42 399.703 139.72C399.703 138.04 400.073 136.55 400.813 135.25C401.553 133.95 402.563 132.95 403.843 132.25C405.123 131.55 406.553 131.2 408.133 131.2C409.713 131.2 411.143 131.55 412.423 132.25C413.703 132.95 414.713 133.95 415.453 135.25C416.193 136.55 416.563 138.04 416.563 139.72C416.563 141.4 416.183 142.89 415.423 144.19C414.663 145.49 413.623 146.5 412.303 147.22C411.003 147.92 409.563 148.27 407.983 148.27ZM407.983 145.3C408.863 145.3 409.683 145.09 410.443 144.67C411.223 144.25 411.853 143.62 412.333 142.78C412.813 141.94 413.053 140.92 413.053 139.72C413.053 138.52 412.823 137.51 412.363 136.69C411.903 135.85 411.293 135.22 410.533 134.8C409.773 134.38 408.953 134.17 408.073 134.17C407.193 134.17 406.373 134.38 405.613 134.8C404.873 135.22 404.283 135.85 403.843 136.69C403.403 137.51 403.183 138.52 403.183 139.72C403.183 141.5 403.633 142.88 404.533 143.86C405.453 144.82 406.603 145.3 407.983 145.3ZM439.954 131.2C441.254 131.2 442.414 131.47 443.434 132.01C444.474 132.55 445.284 133.35 445.864 134.41C446.464 135.47 446.764 136.75 446.764 138.25V148H443.374V138.76C443.374 137.28 443.004 136.15 442.264 135.37C441.524 134.57 440.514 134.17 439.234 134.17C437.954 134.17 436.934 134.57 436.174 135.37C435.434 136.15 435.064 137.28 435.064 138.76V148H431.674V138.76C431.674 137.28 431.304 136.15 430.564 135.37C429.824 134.57 428.814 134.17 427.534 134.17C426.254 134.17 425.234 134.57 424.474 135.37C423.734 136.15 423.364 137.28 423.364 138.76V148H419.944V131.47H423.364V133.36C423.924 132.68 424.634 132.15 425.494 131.77C426.354 131.39 427.274 131.2 428.254 131.2C429.574 131.2 430.754 131.48 431.794 132.04C432.834 132.6 433.634 133.41 434.194 134.47C434.694 133.47 435.474 132.68 436.534 132.1C437.594 131.5 438.734 131.2 439.954 131.2Z" fill="#001424"/>
</svg>
