<svg width="996" height="810" viewBox="0 0 996 810" fill="none" xmlns="http://www.w3.org/2000/svg">
<path d="M599.954 774.586L614.66 654.764L627.207 556.574L640.509 447.68L640.833 436.33L640.069 430.169L638.989 426.49L637.047 421.948L635.104 418.701L633.161 416.317L621.37 404.418L604.82 392.411L604.065 391.439L603.417 390.468L603.093 389.712L602.662 387.329L601.582 318.01L601.366 316.391L601.043 315.42L600.611 314.449L599.963 313.477L599.316 312.83L598.776 312.398L583.854 306.453L582.883 305.805L582.02 304.834L580.724 302.891L573.043 295.318L571.964 294.67L570.993 294.346L569.805 294.238L562.889 295.534H561.81L560.73 295.318L559.543 294.994L558.464 294.454L547.005 286.126L544.082 284.507L542.031 283.751L539.981 283.319L532.192 283.104L530.204 282.663L529.124 282.231L527.182 280.828L522.748 276.61L519.824 273.039L518.853 272.176L517.882 271.636L516.802 271.42L513.447 271.096L511.289 270.449L497.986 262.768L497.015 261.796L495.828 260.393L495.288 258.99L493.993 254.448L493.345 253.153L492.59 252.073L490.647 250.239L486.645 247.315L486.105 246.992L485.565 246.344L484.378 244.509L483.946 243.43L483.73 242.458V241.469L483.838 240.606L484.27 239.095L485.457 236.064L486.429 234.337L494.218 224.821L496.484 221.466L512.926 190.427L515.741 186.208L519.42 182.098L523.962 177.88L530.555 174.201L552.617 165.872L553.265 165.225L554.021 165.009L556.071 164.577L558.122 164.146L563.312 164.793L568.501 165.441L573.799 166.088L578.989 166.736L583.639 167.276L588.289 167.923L592.939 168.571L597.589 169.218L600.188 169.542L600.728 170.513L602.994 174.3L605.594 181.441L605.809 182.845L606.025 185.66L606.457 187.279L607.105 188.898L607.752 190.085L608.832 190.948L609.803 191.704L610.774 192.675L611.098 194.078H613.589L621.918 193.97L630.229 193.89L638.45 193.782L646.778 193.674L647.858 194.861L648.505 195.293L649.692 195.832L649.8 196.264L650.232 198.531V200.365L649.908 201.553L648.829 201.121L648.613 201.445L648.505 201.661V201.876H649.369L650.124 201.661L650.772 201.229L650.988 200.365L651.527 200.797V201.229L650.988 202.2L650.772 203.603L650.664 204.251L650.988 205.438L651.527 206.517L655.422 210.844L655.638 211.491L654.99 212.463L654.666 213.434V214.513L654.882 215.593L655.314 216.456L656.825 218.507L657.149 219.046L657.041 219.694V219.91L657.796 220.342L659.307 220.989L659.847 221.097L661.466 220.989L661.898 221.205L662.761 221.637L663.301 221.745L663.517 221.961V222.284L663.409 222.608L663.193 222.824L662.869 223.04H662.545L662.221 222.824L661.484 223.301L661.268 223.625V224.38L661.7 225.136L662.671 226.107L663.751 226.862L664.614 227.294V227.51L665.693 229.129L667.528 230.964L667.744 231.504L667.312 232.583V233.23V233.878L667.528 234.094L667.42 234.526L666.988 235.281L666.341 236.145L665.693 236.684L666.125 236.037V235.623L666.017 234.328L666.125 233.572L666.449 233.14L666.557 232.709L666.341 231.953L665.693 232.709L664.938 234.651L664.182 235.191L665.046 232.925L665.154 232.277L664.83 231.306L664.506 231.414L664.074 232.169L663.211 235.848V236.711L663.103 236.819L662.887 237.143L662.995 237.467L663.535 237.359L663.751 237.143L664.074 236.279L664.398 235.956V238.339L664.614 238.879L665.046 238.771L665.477 238.339L665.693 237.799L666.125 238.339V239.095L666.017 239.958L666.665 240.174L667.096 239.85L667.42 239.418L667.636 238.879V239.742L667.528 240.066L667.312 240.282L667.528 240.822V241.145L667.204 241.253L666.665 241.361L667.204 242.441L667.312 242.764L666.233 242.225H665.693L665.369 242.764L666.341 243.196H667.204L667.852 242.656L668.284 241.685H668.607L668.931 242.441L668.392 243.088L668.176 244.059L668.392 244.923H669.255L669.579 244.599L669.363 244.167L669.039 243.844L668.931 243.52L669.255 242.98L669.795 242.764L670.874 242.441L671.737 242.333L672.385 242.656L674.004 244.275L675.731 245.139L676.163 245.786L675.299 246.434L675.947 246.65H676.594L676.81 246.218L676.594 245.678L677.35 246.002L678.213 246.218L679.94 246.434L680.372 246.218L681.127 245.786L681.559 245.678H681.991L682.962 246.002H683.502L684.365 246.326L685.121 246.974L686.2 248.485L686.524 248.808L686.893 249.033L687.217 249.249L687.54 249.681L687.648 250.005L687.756 250.976L687.864 251.408H687.217L686.893 251.201L686.785 250.661L686.893 250.005H686.569L685.598 251.192L682.998 250.868L682.135 251.839H681.703L681.379 250.868H680.624L678.897 251.839L679.221 252.055L680.3 252.271L680.84 252.595L681.163 252.811L681.487 253.135L681.811 253.351L682.351 253.674L682.674 253.998L682.89 254.214L683.214 254.106L683.97 253.351V253.252L684.185 253.036L684.293 252.712L684.509 252.496L684.725 252.712L685.157 253.036L685.589 253.252L685.265 254.007L684.833 254.331L684.293 254.547L683.97 255.086L683.862 255.626L683.754 256.921L683.646 257.569L684.185 257.461L684.725 257.137L685.265 256.705L685.696 256.274L686.236 256.166L686.893 256.283L687.864 256.822L687.432 257.902L687.648 258.873L687.972 259.952L688.188 261.032L688.08 263.19L688.296 264.162L689.051 264.054V265.025L689.375 265.349L689.915 265.241L690.347 264.809L690.131 263.946L690.562 263.514L691.318 263.406L691.965 264.054L692.289 263.622L692.505 264.27L692.397 264.809L692.073 265.349L691.965 265.996L691.75 266.428L691.426 266.644H690.886L690.347 266.536L690.778 267.184L691.858 267.4L692.289 267.939L692.721 267.723L693.045 267.292L693.584 266.212V266.428H693.692L693.908 266.536L693.369 267.507L693.8 267.615L694.988 267.292L695.743 267.4L696.93 267.939H697.686L696.499 266.644L696.067 265.781L696.714 265.133L697.362 265.025L697.794 265.349L698.225 265.673L698.657 265.889L698.981 265.673L699.952 264.809L699.737 265.565L699.305 266.86V267.615L699.629 268.803L699.844 269.45L700.06 269.774L700.924 270.206L701.787 271.177L704.494 275.395L705.898 277.122L706.329 277.446L707.624 277.986L708.056 278.418L708.704 279.065L709.243 279.497L712.059 280.792L713.893 282.087L714.973 282.195H716.052L717.131 282.303L718.642 283.167L719.938 284.462L722.321 287.709L723.077 289.112L726.539 291.603L727.295 292.467L727.403 293.762L725.352 291.927L724.165 291.171L721.673 290.848L721.071 290.668L720.639 290.128L720.207 288.185L719.776 288.509L719.344 289.373L719.128 290.236V290.884V291.531L719.344 292.071L719.668 292.61L720.1 293.042L720.207 293.366L719.992 296.505L720.1 297.368L721.395 301.371L721.934 302.234L722.69 302.99L723.445 303.529L727.448 304.933L728.851 306.12L729.714 307.847L730.038 310.23V315.96L729.822 317.147L729.391 318.226L728.419 318.766V318.01L728.095 317.686L727.556 317.902L727.124 318.442L727.448 319.737L727.34 321.788L726.908 323.839L726.476 325.242L725.829 324.702L725.613 323.946V323.083L725.505 322.327L725.181 321.68L724.75 321.356L724.318 321.032L723.994 320.601L723.769 320.412H723.553L723.337 320.304L723.23 318.793L723.122 318.469L723.014 318.145L722.582 317.605L722.042 317.066L721.395 316.634L720.963 316.841L719.668 319.224L719.335 319.539L718.795 319.863L719.011 320.511L719.551 321.266L719.767 321.482L719.875 321.914L720.306 322.561L720.414 323.101L720.306 323.209L719.983 323.317L719.659 323.533L719.443 323.964L719.551 324.72L719.767 325.475V326.231L719.443 326.986L720.198 327.31L720.954 326.879L721.278 326.123L721.071 325.278L721.503 325.386L721.826 325.601L722.366 326.357L722.582 326.465L722.798 326.357L722.906 326.465L723.014 326.789V327.112V327.328H723.23H723.445L724.633 327.652L725.172 328.408L725.388 329.271L725.928 330.242V330.566L724.956 331.538L725.496 333.921L726.575 336.628L727.439 338.355L730.254 341.818L731.441 343.761L731.981 346.144H731.657L730.794 343.761L730.47 343.329L729.93 343.221L729.283 342.897L728.635 342.466L728.095 341.602L727.34 341.063L726.692 340.955L726.476 341.926L726.908 342.681L728.095 343.545L728.419 344.085L728.635 343.545L728.743 343.329H729.067L730.794 347.008L736.199 353.924L737.386 355.004L737.279 354.356L736.955 353.493L736.847 352.845L737.171 352.629L737.71 352.305L737.926 352.413L738.142 353.601L738.358 353.924L738.574 354.032L738.682 354.14L739.005 354.896L739.869 355.327L741.488 355.759L741.92 356.299L742.783 358.565L742.459 358.889L742.999 359.753L743.646 361.048L744.186 362.559L744.402 363.746V364.394L744.078 365.473V366.121L744.186 366.876L744.402 367.308L744.618 367.632L744.834 368.495L745.481 369.79L745.697 370.546L745.373 372.704L745.697 374.755L746.129 375.942L746.669 376.59L746.992 375.618L748.18 376.59L749.475 378.209L750.014 379.072L750.77 379.828L751.741 383.183L752.821 383.938L753.792 384.802L754.224 386.852L754.332 389.991L754.44 390.531L754.871 391.502L755.411 392.366L755.843 392.797H756.598L757.462 391.934L757.57 391.826L757.678 391.934L761.032 397.448L763.191 399.939L765.574 401.018L768.39 401.342H770.989L771.745 401.126L773.471 400.587L776.61 397.987L776.718 398.419H777.042L779.093 398.095L779.525 398.311L779.632 398.419L779.74 398.635L779.956 398.851L780.28 399.174L780.82 398.743L780.928 399.066V399.174L780.82 399.606L780.712 400.038L780.433 400.218L780.109 400.542L780.217 401.081L780.433 401.513L780.541 401.621L780.433 403.348L780.757 403.672L781.512 403.348L782.16 402.916L783.455 400.649L783.563 400.434L784.103 400.002L784.642 399.57L785.074 398.923V397.735L785.722 398.167H786.585L787.341 398.383L787.556 399.03L787.88 399.678L788.42 399.786H789.175L789.823 400.218V400.649L789.067 400.973L788.096 401.297L787.341 401.729L786.909 402.484H786.801L785.722 403.672L785.506 404.103L785.29 404.751L785.074 405.075L782.259 407.125L781.827 407.773L781.719 407.989L781.072 408.852L780.856 409.284L780.748 409.824L780.64 411.011L780.532 411.443V411.766V412.09V412.414L780.433 412.54L779.893 412.432L779.677 412.54L779.57 412.648V413.835V414.375L779.785 414.591L782.708 414.914L783.788 414.591L784.327 414.267L784.759 413.943L785.191 413.619L785.839 413.511L788.977 414.159L789.733 414.806L791.136 416.425L793.187 416.965L793.403 419.016V420.311L793.295 423.558L793.619 424.853L794.266 426.04L796.973 429.503L799.357 432.75L801.848 435.889L804.232 439.028L806.723 442.275L809.107 445.414L811.598 448.553L813.982 451.692L816.473 454.831L818.856 458.078L821.348 461.217L823.731 464.356L826.223 467.495L828.606 470.634L831.098 473.773L833.481 476.912L835.972 480.051L838.464 483.298L839.435 484.161L840.515 484.485L848.088 485.564L854.573 486.428L861.057 487.291L867.542 488.155L874.027 489.018L880.512 489.881L886.997 490.745L893.482 491.608L899.967 492.472L906.452 493.335L912.936 494.199L919.421 495.062L925.906 495.926L932.391 496.789L938.876 497.652L945.361 498.516L951.845 499.379L958.222 500.243L958.87 500.027L962.009 496.025L964.932 500.998L968.719 507.267L972.505 513.536L976.292 519.913L980.078 526.182L982.57 530.293L983.002 531.372V532.559L981.275 538.289L981.059 538.936L980.735 540.015L979.872 542.831L978.576 547.157L976.85 552.778L974.799 559.479L972.415 566.944L970.032 574.841L969.384 576.784L967.442 583.053L964.842 591.274L962.459 599.171L960.075 606.636L958.025 613.229L956.298 618.85L955.002 623.176L954.139 625.884L953.815 626.963L952.304 631.721L945.28 634.212L937.275 637.027L929.27 639.843L921.373 642.658L913.368 645.581L905.363 648.396L897.358 651.211L889.353 654.027L881.349 656.842L873.344 659.657L865.339 662.472L857.442 665.287L849.437 668.211L841.432 671.026L833.427 673.841L825.422 676.656L817.417 679.471L812.444 681.198L812.228 681.306L811.364 681.414L804.879 682.278L797.414 683.357L789.949 684.436L782.484 685.516L775.018 686.595L767.553 687.674L759.98 688.646L752.515 689.725L745.05 690.804L737.584 691.883L730.119 692.963L722.654 693.934L715.189 695.013L707.723 696.093L700.15 697.172L692.685 698.251L689.222 698.683L685.22 699.331L679.167 700.086L675.488 701.489L675.164 701.705L674.301 702.137L673.221 702.677L672.142 703.216L671.063 703.756L669.984 704.296L669.66 704.403L668.796 704.835L667.825 705.375L666.53 706.022L665.558 706.562L658.093 710.349L649.117 714.999L641.112 719.109L635.167 722.14L634.843 722.464L634.087 722.896L630.517 727.438L626.298 732.843L618.833 742.035L611.917 750.796L607.374 756.525L606.619 758.036L604.352 764.089L601.213 772.742L599.918 774.469L599.954 774.586ZM699.656 256.499L700.519 256.93L703.01 257.578L705.394 258.333L704.53 258.657L703.883 258.441L703.127 258.118L702.372 257.902L701.616 258.01L700.861 258.333L700.213 258.765L699.674 259.305L699.242 258.981H699.026L698.702 258.765L698.378 258.657V258.333L699.026 258.01L699.134 257.794L698.918 257.47L698.702 257.254L698.594 257.038L698.055 256.822L697.515 256.93L697.083 257.038L696.651 257.146L696.004 257.47L695.464 258.01L694.925 258.873L694.601 259.736L694.493 258.333L695.356 257.038L696.651 256.067L698.055 255.743L698.594 255.851L699.026 256.067L699.656 256.499Z" fill="#BDE2FF"/>
<path d="M553.237 165.224L552.589 165.872L530.526 174.201L523.934 177.879L519.391 182.098L515.713 186.208L512.898 190.426L496.456 221.466L494.189 224.82L486.4 234.336L485.429 236.063L484.242 239.094L483.81 240.605L483.702 241.469V242.44L483.918 243.411L484.35 244.491L485.537 246.326L486.077 246.973L484.134 249.788L483.163 250.328L481.975 250.868L480.896 250.76L479.925 250.328L479.061 249.681L478.414 248.817L478.306 248.709L478.09 248.385L477.226 247.63L476.579 246.119L475.392 244.716L467.603 237.691L466.523 236.936L464.473 235.748L462.854 235.209L448.454 232.924L447.159 232.493L445.54 231.737L444.352 230.766L443.165 229.686L441.546 227.42L437.652 217.04L429.755 202.766L428.999 201.687L427.92 200.824L426.625 200.392L425.006 200.5L423.71 201.04L418.305 204.61L416.47 205.474L415.391 205.69L414.204 205.582L412.369 204.934L407.395 202.335L406.1 201.903L404.481 201.795L399.831 202.227L398.644 202.119L397.348 201.795L395.729 200.716L394.65 199.529L394.002 197.91L393.679 196.722L393.571 196.075L393.355 192.072L393.247 191.641L392.815 191.209L391.844 190.669H390.225L388.822 190.885L387.527 191.533L383.74 193.583L382.445 194.123L381.042 194.447L379.531 194.555L377.804 194.339L375.537 193.475L373.918 192.396L372.515 191.317L366.894 184.508L365.814 183.537L364.843 182.889L362.684 182.026L346.684 178.347L345.496 178.239L340.523 178.563L334.793 179.966L333.606 180.182H332.419L330.8 179.858L319.449 176.179L317.938 175.964L315.995 175.856L312.64 176.287L287.879 182.017H286.8L284.093 181.369L278.687 179.103L285.28 172.51L286.035 171.43L286.467 170.351L286.683 169.596L286.791 169.272L287.978 151.427L288.194 150.348L288.518 149.161L289.165 148.081L290.029 147.002L291.216 145.815L296.298 141.92L335.225 117.591L339.12 114.452L341.17 112.293L342.034 111.214L342.25 110.135L341.926 109.055L341.062 108.084L334.029 102.678L331.762 100.52L331.007 99.3325L329.604 96.9491L327.553 91.9753L326.905 91.1118L325.718 89.6008L324.855 88.6294L323.128 87.5501L321.725 87.0104L316.211 86.2549H312.425L309.825 85.9311L308.314 85.3915L307.019 84.7439L297.719 77.2786L296.208 76.5231L294.481 76.0914H289.705L286.89 76.5231L261.373 75.7946L257.047 74.8232L255.428 74.1756L254.241 73.528L250.778 70.497L249.699 69.6335L248.619 68.9859L247.108 68.6621L215.529 63.6883L209.368 63.5804L194.987 65.739L174.228 67.7897L171.961 67.6818L169.911 67.1421L168.831 66.7104L167.752 66.1707L166.781 65.3073L166.025 64.228L164.406 61.4128L163.543 59.5779L162.248 57.1945L160.736 55.0358L159.333 53.6327L155.223 50.7096L154.467 49.7382L154.144 48.8748L154.036 48.1193L153.928 47.7955L153.712 46.3924L153.496 43.0375L153.712 41.2027L159.333 20.336L168.094 17.7367L178.581 14.7056L189.068 11.6745L199.556 8.53554L204.853 7.02451L206.472 6.37692L212.094 1.0793L212.957 0.323787L213.389 0.215864H213.605L213.713 0.107923H213.821L213.929 0L223.229 1.61895L232.421 3.23792L241.613 4.74897L250.913 6.36793L254.592 7.01551L270.592 10.1545L273.084 11.1259L275.683 12.6369L280.441 15.4521L284.551 17.9435L288.662 20.4349L292.772 22.8184L296.883 25.3098L300.993 27.8012L304.995 30.1847L309.106 32.6761L313.216 35.1675L317.326 37.551L321.437 40.0424L325.547 42.4259L329.658 44.9173L333.66 47.4087L337.77 49.7922L341.881 52.2836L345.991 54.6671L350.102 57.1585L353.241 59.8658L357.243 63.3285L361.137 66.6834L365.032 70.1462L369.034 73.609L373.469 77.3956L377.903 81.2901L382.337 85.1846L383.2 85.9401L386.663 88.9712H386.771L391.637 93.0815L395.747 96.4364L399.858 99.7913L403.968 103.146L408.078 106.501L413.484 110.827L418.782 115.153L424.187 119.588L429.485 123.914L431.751 125.749L434.89 128.24L440.125 132.458L445.423 136.785L450.828 141.111L455.262 144.789L459.697 148.36L464.131 151.931L468.565 155.61L472.244 158.425L472.459 158.533L472.783 158.749L473.107 158.857L473.431 158.964L477.649 159.288L481.436 159.612L485.114 160.044L488.793 160.368L492.58 160.691L497.337 161.123L502.095 161.555L506.853 161.987L511.719 162.418L516.477 162.85L521.235 163.282L525.993 163.713L530.751 164.145L534.322 164.469L537.893 164.793L541.463 165.117L545.034 165.44L549.9 165.872L551.951 165.44L553.237 165.224Z" fill="#BDE2FF"/>
<path d="M159.29 20.3252L153.669 41.1919L153.453 43.0267L153.669 46.3815L153.885 47.7847L153.992 48.1084L154.1 48.864L154.424 49.7274L155.18 50.6988L159.29 53.6219L160.693 55.025L162.204 57.1836L163.499 59.5671L164.363 61.402L165.982 64.2172L166.737 65.2965L167.709 66.1599L168.788 66.6996L169.867 67.1313L171.918 67.671L174.185 67.7789L194.943 65.7282L209.325 63.5696L215.486 63.6775L247.065 68.6513L248.576 68.9751L249.655 69.6227L250.735 70.4862L254.197 73.5172L255.385 74.1648L257.004 74.8124L261.375 75.7928L286.892 76.4403L289.707 76.0086H294.357L296.084 76.4403L297.595 77.1959L306.895 84.6611L308.19 85.3087L309.701 85.8483L312.3 86.1721H316.087L321.6 86.9276L323.004 87.4673L324.73 88.5466L325.594 89.518L326.781 91.029L327.429 91.8925L329.479 96.8663L330.882 99.2498L331.638 100.437L333.905 102.596L340.938 108.001L341.802 108.973L342.125 110.052L341.909 111.131L341.046 112.211L338.995 114.369L335.101 117.508L296.174 141.838L291.092 145.732L289.905 146.919L289.041 147.999L288.394 149.078L288.07 150.265L287.854 151.344L286.667 169.189L286.559 169.513L286.343 170.268L285.911 171.348L285.156 172.427L278.563 179.02L275.64 178.264L274.668 178.372L256.932 185.73L239.627 195.569L231.514 197.836L213.885 206.272L212.698 207.028L211.619 207.783L206.537 213.405L204.702 211.894L204.055 211.57L203.299 211.354L202.112 211.246L200.493 211.57L199.09 211.894L194.224 214.385L193.037 214.925L191.957 215.033L190.77 214.925L189.799 214.277L189.043 213.414L187.748 210.275H185.697L184.834 210.167L183.862 209.843L182.243 208.872L181.164 208.656L179.617 209.133L178.43 209.672L176.919 210.212L175.192 210.32L165.892 209.348L162.969 208.701L157.887 206.974L155.728 205.679L152.589 203.079L151.834 202.108L151.078 201.029L150.539 199.949L149.783 198.115L149.244 195.848L148.92 192.817L148.812 188.059L149.244 179.514L149.028 178.327L148.596 177.248L147.732 176.6L146.653 176.384L145.682 176.708L142.741 179.497L139.602 181.439L138.63 182.303L137.983 183.382L137.443 184.461L135.5 189.327L134.961 190.407L134.205 191.378L133.126 191.918L131.831 192.241L123.826 191.702L119.931 190.946L112.79 188.581L110.083 188.149H106.404L95.269 190.64L90.0793 192.583H89.3238H88.2445L86.3017 191.936L85.9779 191.72L85.6541 191.396L73.6468 175.719L72.1358 174.316L70.0851 172.913L69.0058 172.373L59.8137 170.107H56.7826L53.1039 170.754L46.9429 171.186L37.319 173.021L35.3763 173.668L33.7573 174.424L32.1383 176.043L31.3828 176.474L30.1956 176.69L23.4949 176.043L19.7083 175.071L18.0893 174.963L16.5783 175.287L12.5758 175.395V175.179L11.8203 174.855V174.532L12.4679 173.344L13.2234 171.186L13.5472 168.919L13.0076 167.624V166.869L13.5472 165.897L13.9789 164.71L14.9503 159.952L15.1662 159.196L15.7058 158.009L15.5979 157.685L15.7058 156.93L16.1376 156.498L17.2169 155.851L16.8931 154.987L16.7851 153.8L16.8931 153.044L17.5407 153.368V153.152V153.044L17.6486 152.936H17.8644L17.4327 152.181L17.3248 151.318L17.5407 150.454L22.7303 151.425L28.2438 152.397L35.4932 153.584L41.9781 154.771L48.8946 155.959L54.4081 156.93L57.1154 157.362L62.5209 158.333L67.3868 159.089H68.5741L69.7613 158.549L74.8431 154.439L79.8169 150.328L85.2224 145.786L88.7931 142.755L91.8242 137.673L94.7473 132.807L96.9059 129.129L99.5053 124.695L100.585 123.507L101.88 122.86L105.882 121.996L110.101 121.133L116.801 119.73L123.394 118.435L129.663 117.139L135.177 115.952L136.148 115.089L138.199 110.007L139.818 106.22L141.437 102.11L142.84 98.7551L143.487 97.7837L144.566 96.9203L149.54 93.9971L155.27 90.8581L158.625 88.9154L158.948 88.6995L156.682 85.9922L151.6 79.9391L146.41 73.886L141.329 67.8328L136.247 61.7797L136.031 61.6718L135.923 61.4559L135.815 61.2401L135.599 61.1321L129.546 54.5393L123.601 48.0545L123.493 47.9465L117.44 41.3538L111.387 34.761L113.114 34.2213L122.953 31.1902L134.412 27.7275L145.979 24.2647L148.794 23.5091L157.554 20.8019L159.29 20.3252Z" fill="#BDE2FF"/>
<path d="M614.657 654.732L599.951 774.553H599.843L598.872 775.201L597.901 775.741L596.929 776.28L596.605 776.604L594.555 777.791L588.825 781.146L587.746 781.578H587.422H586.343H585.372H584.184H583.105H582.997H582.026H581.027H580.056V781.686L579.732 781.578H579.085L578.545 781.254L574.543 775.741L571.188 770.875L568.157 766.656L566.43 765.685L556.05 767.088L548.261 768.167L537.019 766.98L528.15 766.117L516.584 764.93L506.636 763.85L504.585 763.203L496.904 758.768L494.305 758.229L486.408 758.121H485.329H484.357H479.482L470.074 758.013H469.966L469.103 758.229L466.288 759.308L466.18 759.416H464.777L461.638 758.768L458.715 758.661L454.28 759.092L450.71 759.956L449.738 760.064L447.796 759.416L446.824 759.308L446.177 759.848L445.745 760.603L445.529 761.035L444.773 761.898L443.91 762.33L442.723 762.114L440.888 761.251L440.132 761.143L439.161 761.683H439.053L438.406 762.546L438.19 762.978L437.758 763.517L437.11 764.165L435.923 764.381L435.383 764.273L435.168 764.057L434.952 763.841L434.844 763.517L434.952 762.546V762.438V762.006L434.628 761.791L433.549 762.222H432.685L431.39 762.114L430.85 762.006L429.123 762.222H428.26L427.397 761.898L426.317 761.143L425.454 760.387L423.07 757.68V756.169L424.365 751.195L424.258 748.596L423.286 745.673L423.178 744.486V743.082L423.61 741.14L424.797 730.329L424.689 728.278L424.258 726.227L423.502 724.069L423.07 721.91V720.723L423.502 719.32L424.473 717.485L425.661 715.974L433.234 707.969L438.424 703.427L439.935 701.916L440.474 701.052L441.014 700.081L442.093 697.374L442.741 696.186L443.82 695.107L444.899 694.352L445.979 693.92L449.226 693.272L451.276 692.517L453.435 691.438L455.486 690.034L456.349 689.171L456.997 688.308L457.644 687.336L458.076 686.041L458.4 684.746L458.508 682.911V681.184L458.292 679.025L456.673 672.756V671.569L456.997 670.274L458.184 668.439L459.263 667.468L462.294 665.849L463.05 665.309L463.482 664.662L463.805 663.582L464.021 661.963V655.694L477 663.915L480.355 665.534L482.846 666.505L487.28 667.585L499.288 668.34L608.613 656.549L614.657 654.732Z" fill="#BDE2FF"/>
<path d="M464.024 655.594V661.863L463.808 663.482L463.485 664.561L463.053 665.209L462.297 665.748L459.266 667.367L458.187 668.339L457 670.173L456.676 671.469V672.656L458.295 678.925L458.511 681.083V682.81L458.403 684.645L458.079 685.94L457.647 687.236L457 688.207L456.352 689.07L455.489 689.934L453.438 691.337L451.279 692.416L449.229 693.172L445.982 693.819L444.902 694.251L443.823 695.007L442.744 696.086L442.096 697.273L441.017 699.98L440.477 700.952L439.938 701.815L438.427 703.326L433.237 707.868L425.664 715.873L424.476 717.384L423.505 719.219L423.073 720.622V721.809L423.505 723.968L424.261 726.127L424.692 728.177L424.8 730.228L423.613 741.039L423.181 742.982V744.385L423.289 745.572L424.261 748.495L424.368 751.095L423.073 756.069V757.58L422.21 756.608L420.267 755.421L419.188 754.989L416.804 753.91L416.049 753.694H414.43L413.566 753.478L412.595 753.586L411.516 754.018L409.249 755.421L407.846 753.262L405.355 749.584L404.599 748.612L403.574 747.839L400.003 746.544L399.14 745.896L398.384 744.925L396.981 741.786L396.333 740.814L395.146 739.627L391.468 736.704L390.712 735.409L390.496 734.222L390.604 732.171L390.388 731.307L389.732 730.534L387.897 730.21H387.573L385.414 731.505L383.472 732.908L382.608 733.772L381.961 734.743L380.989 736.686L378.831 744.799L378.399 745.77L377.751 746.418L376.888 746.85H375.916L374.945 746.418L373.758 745.662L369.432 741.12L368.676 739.933L368.029 738.746L367.705 737.774L367.165 736.695L366.194 735.831L364.899 735.076L363.819 734.86L356.462 734.752L355.383 734.428L354.411 733.889L353.44 732.702L352.9 731.73L352.361 729.895L352.037 729.464L351.281 728.6L350.094 727.953L349.015 727.629L348.043 727.521L344.904 727.953L343.933 727.737L343.177 726.981L342.746 725.686V724.499V723.419L343.717 717.582V716.503L343.501 715.639L343.069 714.884L341.235 714.344L335.937 714.776L337.556 708.507L337.772 707.212V705.917L337.448 704.406L334.201 694.674L333.661 693.702L332.906 692.947L332.043 692.407L331.071 692.083L329.02 691.652L327.078 691.544H321.996L321.025 691.328L320.161 690.788L319.298 690.033L318.758 689.061L318.434 687.982L318.11 687.011L317.895 684.96L318.218 673.501L318.326 672.53L318.758 672.098L319.513 672.422L320.269 673.07L321.24 673.501L322.104 673.609L322.967 673.178L325.351 671.343L327.401 670.155L328.481 669.832L329.452 669.616H330.531L335.721 670.155H336.369L337.016 669.94L337.88 669.616L338.743 668.968L339.391 668.105L339.823 667.133L341.441 662.052V660.864L341.118 659.677L339.175 656.322L338.959 655.351L338.851 654.056V652.868L340.254 646.384L340.362 645.412V644.441L340.038 643.362L339.499 642.39L338.743 641.527L338.204 641.095L337.556 640.771L336.585 640.663L334.642 640.771L332.591 641.635L337.241 631.363L337.997 628.872L338.213 625.409L338.644 624.006L339.292 622.711L340.371 621.739L345.885 617.845L346.856 616.873L347.935 615.362L348.259 614.175L348.043 612.988L347.504 612.125L346.316 610.937L345.993 609.426L345.885 608.131L348.151 600.45L349.015 601.853L353.773 611.693L354.528 612.772L355.392 613.528L356.363 614.067L357.442 614.391L358.737 614.283L360.248 613.851L362.848 612.448L364.359 611.261L376.258 600.558L385.45 595.476L386.746 594.397L388.58 592.562L389.768 591.806L391.063 591.267L392.682 590.943L395.605 590.835L396.36 590.727L397.224 590.403L400.147 589.216L401.658 588.784L403.574 588.335L404.869 588.443L406.164 588.659L409.087 589.738L410.49 589.63L412.109 589.09L419.467 584.764L424.44 582.821L431.249 588.982L433.741 592.013L435.252 594.397L438.067 598.076L441.853 602.402L442.501 603.589L442.825 604.668L442.933 605.532L442.825 606.503V606.719L442.501 607.69L442.069 608.554L439.362 612.988L438.499 614.823L436.664 623.367V624.555L436.987 626.174L437.743 627.361L440.342 630.5L444.884 638.073L463.269 655.054L464.024 655.594Z" fill="#BDE2FF"/>
<path d="M335.883 714.75L341.181 714.318L343.016 714.858L343.448 715.614L343.663 716.477V717.556L342.692 723.394V724.473V725.66L343.124 726.955L343.879 727.711L344.851 727.927L347.99 727.495L348.961 727.603L350.04 727.927L351.228 728.574L351.983 729.438L352.307 729.869L352.847 731.704L353.386 732.676L354.358 733.863L355.329 734.403L356.408 734.726L363.766 734.834L364.845 735.05L366.14 735.806L367.111 736.669L367.651 737.748L367.975 738.72L368.622 739.907L369.378 741.094L373.704 745.636L374.891 746.392L375.863 746.824H376.834L377.698 746.392L378.345 745.744L378.777 744.773L380.936 736.66L381.907 734.717L382.555 733.746L383.418 732.883L385.361 731.479L387.519 730.184H387.843L389.678 730.508L390.326 731.264L390.541 732.127L390.434 734.178L390.649 735.365L391.405 736.66L395.084 739.583L396.271 740.77L396.918 741.742L398.321 744.881L399.077 745.852L399.94 746.5L403.511 747.795L404.483 748.658L405.238 749.63L407.729 753.308L409.133 755.467L407.298 756.654L404.483 759.038L403.295 760.117L401.029 762.932L400.921 763.148L403.52 764.012L404.492 764.767L404.815 765.523L404.923 765.739L404.815 766.71L403.736 767.25L402.657 767.573L401.469 768.005L400.498 768.869L400.174 769.732L400.282 770.919L399.958 771.891L398.987 773.833L398.771 774.805L398.879 775.668L399.311 776.424L399.527 777.503V778.582L399.311 779.554L398.555 781.389L398.232 782.576L398.447 783.439L399.419 785.274L399.958 787.109L400.498 787.541L402.225 787.972L402.765 788.404L403.088 788.944V789.591L402.98 790.023L402.549 790.347L402.117 790.563L401.685 790.779L401.038 791.858L401.146 792.505L401.577 793.261L401.901 794.34V794.448L401.577 795.312L401.146 795.42L400.822 795.527L399.743 795.204L398.879 794.988L397.8 794.772L397.152 794.988L396.936 795.635L396.828 796.715L396.72 797.578L395.533 800.825L394.886 801.581L394.022 802.228L393.914 802.336L391.864 803.523L391.216 803.847L390.676 803.955L389.381 804.171L388.842 804.387L388.734 805.034L388.842 805.79V806.545L388.518 807.301L387.223 808.164L385.604 808.812L385.28 809.028L383.445 809.675L383.337 809.46V808.057V807.733L383.013 807.193L383.661 805.682L383.337 804.711L381.071 802.219L380.531 801.032L380.423 800.169V798.01L380.963 795.959V795.096L380.099 794.88L380.423 794.448L379.883 793.909L379.452 793.153L379.344 792.505L379.775 792.182L379.559 791.642L378.264 790.455L377.941 790.131L377.293 789.267L376.214 788.08L375.89 787.756L374.487 787.001L373.947 786.893L373.407 787.217L371.896 784.95L372.544 782.792L372.22 782.036V779.653L372.004 778.789L371.573 778.573L371.033 778.25L370.925 777.71L370.493 777.278L369.63 777.17H368.658H368.011L367.471 776.631L367.039 775.875L366.392 774.472L366.176 773.824L365.96 772.097L365.744 771.45L365.313 771.018L363.262 770.155L363.37 771.018L363.694 771.774L364.557 773.177L363.586 773.716L364.017 776.963L363.586 777.827L363.262 776.855V773.501L363.046 772.421L362.398 770.586L361.643 763.994L361.319 762.806L361.103 761.943L361.427 759.452L361.319 758.48L360.995 757.293L360.672 756.861L360.24 756.753L359.7 756.645L359.376 756.537L359.16 756.322L359.053 755.89L358.729 755.35L353.755 751.024L353.323 750.916L353.215 751.132L352.892 750.7L352.352 749.729L351.488 748.434L351.129 747.624L350.913 747.192L350.589 747.084L349.51 747.3L349.078 747.192L348.862 746.545L348.646 746.113L346.596 744.062L346.488 744.17L346.272 744.278L345.84 744.386H345.624L345.192 743.954L343.789 741.904L343.25 741.58L340.542 738.981L339.463 739.412L337.736 738.225L336.657 738.333L336.225 737.038L335.47 736.282L334.39 735.527L333.527 734.663L331.584 732.172L331.26 731.309L331.368 730.661L331.476 730.121L331.368 729.797L330.829 729.582L330.361 729.456V729.024V728.592L330.253 728.268L328.31 726.542L327.555 725.462L327.986 724.599L327.771 724.275L328.634 722.224L329.066 721.361L329.821 720.497L330.685 719.958L333.608 718.339L334.471 717.475L335.011 716.72L335.883 714.75ZM355.239 793.468V794.115L355.131 794.979L354.807 796.058L354.915 796.922L355.347 798.325L354.915 799.296V799.404L353.836 799.296L352.541 797.785L351.461 797.353H350.49L349.95 796.814L351.353 796.274L352.109 795.734L351.785 794.655L350.598 794.007L349.411 794.223L348.008 794.331L347.036 794.547L346.173 795.087L345.417 795.518L344.554 795.195L343.475 794.223L342.719 793.468L341.64 793.252L340.452 792.388L339.265 791.417L338.726 790.446L338.402 788.935L337.646 788.395H336.747L336.207 788.287L336.315 787.963V786.884L335.56 786.021L335.128 785.049L335.236 784.186L335.883 784.402L336.207 784.725L336.747 785.157L338.582 786.021L339.553 787.208L340.093 787.855L340.201 789.043V789.582L341.064 790.554L341.82 791.201L342.143 791.417L343.87 791.201L344.41 792.173H345.273L346.245 791.849H347.108L347.648 792.388V792.928H348.187L349.591 792.388L348.295 792.065L347.54 790.985L348.187 790.122L348.511 788.719L348.835 788.287L349.483 788.179L349.699 788.287L350.13 788.503L351.425 789.258V790.014L352.073 791.093L351.965 791.633L353.152 791.741L353.476 792.712L355.239 793.468ZM342.8 789.258L342.152 788.719L341.397 787.855L340.21 786.344L339.238 784.941L338.914 784.402L339.454 783.97L340.533 783.862L341.397 783.646L341.936 783.106L342.368 782.243H342.908L343.016 782.351L343.232 781.38L342.908 780.192L342.26 779.869L341.613 779.545H341.073L339.994 779.329L339.454 779.221L339.238 779.005L339.67 778.681L340.102 778.465L340.21 778.897L341.721 779.005L342.908 779.545L343.663 780.408L343.771 780.624L343.987 781.919V782.891L343.771 783.97L343.987 784.833L345.498 785.157L345.93 786.236L343.987 786.344L343.448 786.992L343.663 787.855L344.851 788.287L345.498 788.611L346.362 789.043L346.685 790.23V790.77L345.282 789.906L343.555 789.474L342.8 789.258Z" fill="#BDE2FF"/>
<path d="M12.547 175.398L16.5494 175.291L18.0605 174.967L19.6794 175.075L23.466 176.046L30.1667 176.694L31.354 176.478L32.1095 176.046L33.7285 174.427L35.3474 173.672L37.2902 173.024L46.914 171.189L53.0751 170.757L56.7538 170.11H59.7848L68.9769 172.376L70.0563 172.916L72.1069 174.319L73.618 175.722L85.6253 191.399L85.9491 191.723L86.2729 191.939L88.2157 192.587H89.295H90.0505L95.2402 190.644L106.375 188.152H110.054L112.761 188.584L119.902 190.968L123.797 191.723L131.802 192.263L133.097 191.939L134.176 191.399L134.932 190.428L135.471 189.349L137.414 184.483L137.954 183.403L138.601 182.324L139.573 181.461L142.739 179.5L145.662 176.685L146.633 176.361L147.713 176.577L148.576 177.224L149.008 178.304L149.224 179.491L148.792 188.035L148.9 192.793L149.224 195.824L149.763 198.091L150.519 199.926L151.059 201.005L151.814 202.084L152.57 203.056L155.709 205.655L157.867 206.95L162.949 208.677L165.872 209.325L175.172 210.296L176.899 210.188L178.41 209.649L179.597 209.109L181.108 208.677L182.188 208.893L183.807 209.864L184.778 210.188L185.641 210.296H187.692L188.987 213.435L189.743 214.299L190.714 214.946L191.901 215.054L192.981 214.946L194.168 214.407L199.034 211.915L200.437 211.591L202.056 211.268L203.243 211.375L203.999 211.591L204.646 211.915L206.481 213.426L207.345 214.506L208.1 215.045L209.179 215.477L224.209 219.048L226.808 220.019L228.535 220.99L229.506 222.178L229.722 222.393L230.802 223.473L232.205 224.444L235.02 225.847L240.533 230.389L243.241 233.097L243.888 234.176L244.32 235.363L249.402 256.014L249.941 256.985L250.697 257.957L251.344 258.712L253.179 259.899L258.801 262.931L259.88 263.902L260.851 265.089L261.067 266.169L260.959 267.248L260.528 268.327L259.772 269.406L258.909 270.378L253.179 275.352L251.021 278.275L249.618 281.09L246.91 289.527L246.047 291.253L245.291 292.333L244.536 292.872L243.025 290.489L242.161 289.841L241.082 289.194L240.111 289.086L220.647 292.009L215.997 292.117L213.73 291.793L211.896 291.146L206.274 286.819L200.437 284.661L198.71 283.797L197.631 282.826L196.875 280.775L196.336 279.696L195.256 278.832L194.393 278.724L193.853 279.264V280.236L194.069 281.207L194.177 282.286L193.961 283.042L192.774 283.581L191.695 283.473L190.507 283.15L187.045 281.531L185.533 280.991H184.454L183.375 281.099L182.727 281.423L178.617 284.778L177.322 285.641L175.919 285.965L174.947 285.641L174.516 284.886V283.914L174.623 282.835V281.756L174.3 280.784L173.562 279.966L170.639 278.131L169.883 277.267L169.56 276.404L169.452 275.541L169.56 275.109V274.893V274.677L169.452 274.029L169.02 273.274L168.265 272.734L167.293 272.303L166.214 272.195L161.564 271.979L159.513 271.655L158.209 270.881L157.13 270.018L154.53 266.016L153.559 264.181L152.695 262.022L151.4 257.264L150.969 256.401L150.321 255.429L149.134 254.566L148.27 254.242L147.407 254.35L138.646 259.108L137.675 259.432L136.596 259.648L135.516 259.54L133.574 259.216L132.171 258.676L128.276 256.185L126.117 255.213L124.714 254.998H123.419L122.448 255.321L110.44 261.051L105.035 262.346L104.064 262.886L103.164 263.632L102.948 264.496L103.164 265.359L103.92 265.899L104.891 266.007L107.922 265.467L108.786 265.359L109.433 265.467L110.189 265.791L111.052 266.33L111.7 267.086L112.131 267.734L112.563 268.705L113.211 271.844L113.319 273.247L113.211 276.17L112.239 283.204L112.347 285.47L112.563 286.657L112.887 287.845L113.319 288.924L113.966 290.003L114.722 290.975L115.693 291.946L116.772 292.702L117.852 293.133L123.257 294.752L124.229 295.292L125.092 296.263L125.524 297.451L125.632 298.746L125.308 299.825L124.984 300.688L122.169 305.338L121.306 307.497L121.09 308.576L120.982 309.656L121.09 310.735L121.413 311.814L124.121 317.22L124.768 319.379L125.308 321.537L125.524 322.401L125.956 323.048L126.603 322.832L128.33 321.429L129.301 321.105L130.381 321.213L138.709 326.079L139.465 326.619L139.681 326.943L139.897 327.051L140.544 329.974L140.976 331.053L141.516 332.024L142.379 333.104L148.432 338.186L149.296 339.157L149.943 340.128L150.699 341.639L152.102 345.534L153.721 351.803L154.153 352.882L154.26 352.99L154.584 353.098L155.34 353.314L158.263 353.53L159.288 353.719L159.936 354.15L160.583 354.69L160.907 355.661L161.015 356.633L159.288 368.424L159.936 385.405L159.72 386.161L159.288 387.132L158.317 388.427L157.238 389.291L156.158 389.831L154.971 390.046L152.704 389.938L150.654 389.507H149.574L148.603 389.615L147.524 390.262L146.552 391.342L145.257 392.961L144.178 394.04L142.991 394.795L141.911 395.227L140.94 395.551L139.105 395.767H135.319L134.347 395.983L133.376 396.414L132.62 397.278L132.081 398.141L131.757 399.113L131.217 402.144L131.109 402.467L128.186 398.141L125.263 394.139L123.968 392.304L123.86 390.901L124.076 390.469V390.037L123.968 389.498L123.86 389.174L123.536 388.958L122.888 389.606H122.412L121.548 389.174L121.009 388.31L120.145 386.476H121.332L122.412 386.692H123.491L124.57 386.26L125.218 385.396V382.797L126.297 380.638L126.189 379.559L125.218 377.4L125.002 376.105L125.218 373.074V371.887L124.894 370.808L124.57 369.836L124.031 368.865L123.059 367.786L122.52 367.246L122.088 366.922L121.656 366.49L121.225 365.519L120.793 365.195L119.821 364.44L118.958 363.36L118.202 362.281L117.555 361.094L117.447 360.554L117.339 359.367L117.231 358.935L117.015 358.504L116.26 357.748L116.044 357.208L116.799 356.669L116.152 355.481L114.101 353.323L113.777 352.675L113.022 350.517L112.698 350.085L112.158 349.653L111.835 349.437V349.114V348.412L111.727 348.088L111.295 347.549L110.647 346.037L110.324 345.498L109.676 345.066L108.273 344.419L107.733 344.095L105.862 341.172L104.675 339.661L103.704 339.553L103.596 340.2L103.92 340.74L104.028 341.28L103.488 341.603L102.948 341.387L101.545 340.416L100.79 340.2L100.358 339.876L99.3865 338.581L99.0627 338.042L98.9548 337.718L99.0627 336.638L98.9548 336.315L98.4151 336.207L98.0913 335.883L97.5517 334.588L97.4438 333.401L97.8755 332.213L98.8469 331.134L99.4944 330.055L99.7103 328.652L99.4944 327.141L99.0627 325.953L97.9834 324.766L96.4724 324.011L94.8534 323.579L93.3424 323.471L91.6155 322.823L90.5362 321.42L87.5051 314.279L86.4258 312.552L84.483 309.737L81.0203 301.192L77.3416 294.599L75.075 291.676L72.3678 289.293L71.1805 287.89L70.425 285.623L69.0219 283.132L68.0505 279.885L67.295 280.101L66.6474 279.561L65.4602 277.726L62.4291 275.019L58.7505 270.153L57.4553 267.554L57.2394 267.122V266.582L57.3474 266.15L57.7791 265.395L57.887 264.963L57.6712 264.316L56.4839 262.697L52.5894 257.939L50.4308 256.428L49.7832 255.888L48.7039 254.593L47.4087 252.542L45.9606 251.094L44.2338 247.739L43.6941 246.444L43.5862 245.365L43.4782 243.422L43.2624 242.451L42.8306 241.803L41.3196 240.076L40.4562 238.673L39.2689 235.534L38.2975 234.131L37.8658 233.807L36.8764 233.465L36.5527 233.25L36.3368 232.818L36.1209 232.17L35.5813 231.091L35.3654 229.688L34.9337 228.932L32.5502 226.117L31.7947 224.822L31.363 224.39L30.6075 223.958L28.3319 222.223V222.546H28.0081L27.5764 221.899L28.1161 221.359L29.1954 220.819L29.9509 220.388L30.4905 220.604L30.3826 220.28L29.9509 219.524L29.735 219.416L28.4398 219.093L28.0081 218.877H27.6843V219.308H27.4685L27.2526 218.985L26.9288 218.553L26.605 218.337L26.2812 218.229H25.4178H25.094L24.4464 217.582L22.2878 216.071L21.856 216.394H21.3164H20.7767L20.9926 216.61L21.1005 216.934L21.3164 217.15L20.8847 216.826L20.345 216.502L19.8054 216.286L19.2657 216.61L18.834 216.934L17.3229 217.366L16.9992 217.582L16.6753 217.797L16.5674 218.229H16.2436V217.797H15.9198L15.2722 218.013L14.3009 217.797H13.4374L12.7898 218.553L12.574 218.337L12.3581 218.229V217.797H12.7898V217.474L12.574 217.042L12.7898 216.826L13.2216 216.502L13.6533 216.394L13.2216 216.178H12.7898H12.2502L11.7825 216.376V216.7H12.1063V217.132L11.5666 217.24L11.2428 217.671L10.8111 218.535L10.5952 218.319H10.4873L10.3794 218.211H10.1635L10.3794 217.887L10.5952 217.564L11.027 217.348L11.4587 217.132V216.916V216.7V216.376H10.8111L10.2714 216.484L9.94765 216.808L9.83973 217.456L9.62387 217.249H9.51593L9.408 217.357L9.19214 217.465V217.249V216.916V216.7H8.97628V217.132H8.54455L8.32868 216.7L8.11282 216.376L7.89696 216.484L7.57317 216.7L7.14144 216.376L7.03352 216.268L6.81766 215.837L6.60179 215.621L6.27799 214.973L6.17007 215.081L6.06214 215.189L5.84628 215.405L5.63042 215.621L5.09075 215.189L4.8749 215.405V215.945L4.65904 216.376L4.33523 216.592L3.68766 216.916L3.4718 217.132V217.456L4.44317 218.211V218.535L4.11937 218.643H4.01145L3.90351 218.751L3.79558 218.859L3.4718 218.535L3.25593 219.506L3.14799 220.154L2.82421 220.586L1.85283 220.694L1.96075 220.478H2.06869L2.17661 220.37L1.85283 219.938L1.63696 219.182L1.52902 218.535V217.24L1.20524 216.916L0.0179958 217.348L0.233859 216.7L0 216.376L0.647591 215.405L1.07932 214.973L1.51105 214.757V214.541L1.83483 214.434L2.15864 214.002L2.48242 213.894L2.15864 213.462L2.26656 213.246L2.48242 213.03L2.69829 212.815H3.13001V213.03H3.02207H2.91415L2.80621 213.138L3.23794 213.354L3.66966 213.462L3.88553 213.354L4.10139 212.815H3.77759V212.383L3.4538 212.059L3.56172 211.735L3.88553 211.411L4.42518 211.304V210.98L4.20931 210.44L4.64104 208.057L4.85691 208.165L5.18069 208.272L5.39656 208.38L5.28863 208.272L5.39656 207.733L5.07277 207.841L4.96483 207.949L4.64104 207.733L5.61242 206.761L6.5838 205.035L7.33931 203.092L7.77104 200.6L8.74242 199.197L9.06622 197.686L9.39001 196.715L10.6852 194.448L10.3614 192.065L10.2535 189.573L9.49795 187.082L10.3614 183.835L11.009 182.108L11.7645 180.705V180.381H11.4407L12.1962 179.086L12.3041 178.439L12.0883 177.791V177.467L12.6279 175.848L12.547 175.398ZM114.515 357.172L114.947 357.604L115.162 357.82H115.055L114.839 357.712H114.515V357.928L114.731 358.252L114.299 358.144L113.436 357.604L113.112 357.064L113.22 356.633H112.788L112.248 356.849L111.924 356.417L111.709 355.661H111.277L110.737 355.985L110.629 355.661L110.953 354.69L111.385 354.15H112.032L112.68 354.258L113.22 354.582L113.651 355.661L113.975 355.553L114.083 355.23L114.191 355.445L114.515 357.172ZM110.512 357.28L111.268 357.172L111.376 357.388L110.62 357.928L110.189 358.144L109.757 358.791L109.217 359.655L108.57 360.194L107.598 359.547L106.735 358.575L105.862 357.937L103.92 355.886L103.812 355.778L103.704 355.454V355.239L103.812 355.131V354.915L103.272 354.375L102.732 353.62L102.84 353.188L103.272 353.296L103.704 353.719L104.567 354.798L104.999 355.122L105.862 355.553L107.481 356.309L108.237 356.525H108.884L109.316 356.849L109.532 357.172H108.561L108.345 357.928L108.777 358.468L109.316 358.36L109.856 357.712L110.512 357.28ZM106.195 351.335L105.763 351.119L105.116 350.58L105.224 349.824L105.871 349.392L106.519 349.5L106.951 350.04V350.688L106.519 351.119L106.195 351.335ZM103.488 353.179L102.948 352.747H102.732L102.517 352.639L102.301 352.315V351.776L101.869 351.668L101.221 351.56L101.113 351.344L101.329 351.452L101.221 351.128L100.79 350.589L100.142 350.157H99.2786L98.9548 350.481L98.7389 350.589L98.3072 350.697L98.4151 350.265L98.8469 349.509L99.6024 349.401L100.466 349.617L102.732 351.236L102.948 351.56L103.272 352.208L103.92 352.639L104.675 352.855L105.754 353.503L107.373 354.906L107.805 355.338L107.697 355.553L107.481 355.769L107.589 355.985L107.373 355.769L106.618 355.23L105.97 354.906L105.539 354.69L105.323 354.366L105.107 353.827L104.675 353.611L104.351 353.719L103.92 353.611L103.488 353.179ZM108.57 350.472V348.961L108.462 348.637V348.097L108.786 347.665L109.217 347.558L109.649 347.665L109.865 348.205V348.637L109.757 349.069H109.541L109.217 348.853V348.961L109.325 349.284V349.5H109.217L109.541 350.148L109.865 351.551L109.649 351.983L109.109 351.227L108.786 351.011L108.57 350.472ZM98.4061 349.284V349.608L98.0823 350.148L97.7586 350.472L97.4348 350.256L96.7872 349.824L93.1085 347.881L92.0292 347.665L91.7054 348.421L91.2737 348.205L90.4102 347.342L89.7627 346.586L89.5468 345.507L89.8706 344.643L91.0578 343.456L91.5975 342.809L91.9213 342.593L92.0292 342.916L91.7054 343.456L90.9499 344.643L91.0578 345.075L91.3816 345.507L91.7054 345.831H91.9213L92.1372 345.939L92.4609 346.262L92.7847 346.478L93.2165 346.586L94.4037 347.881L94.9434 348.313H95.5909L96.0227 348.205L96.1306 348.421V348.745L96.3465 349.176L96.7782 349.392L97.2099 349.284L97.102 349.176V348.961L97.3178 348.745L97.7496 348.853L98.4061 349.284ZM91.9123 341.064V340.632L91.8044 339.553L91.9123 337.394L92.6678 335.667L93.7471 334.48L94.0709 334.372L93.5312 335.02L92.9916 335.775L92.5689 336.63L92.4609 337.709L92.8927 338.572L93.7561 339.436L94.0799 339.544L94.5116 339.652L94.4037 339.975L94.0799 340.623L93.864 341.378L93.972 341.594V341.918L94.4037 342.242L94.9434 342.026L95.0513 342.134L94.8354 342.566L94.4037 342.889L93.7561 342.782L92.7847 342.026L92.353 341.594L91.9123 341.064Z" fill="#BDE2FF"/>
<path d="M131.066 402.484L131.174 402.16L131.714 399.129L132.037 398.158L132.577 397.294L133.333 396.431L134.304 395.999L135.275 395.783H139.062L140.897 395.567L141.868 395.243L142.947 394.812L144.135 394.056L145.214 392.977L146.509 391.358L147.48 390.279L148.56 389.631L149.531 389.523H150.61L152.661 389.955L154.928 390.063L156.115 389.847L157.194 389.307L158.274 388.444L159.245 387.149L159.677 386.177L159.893 385.422L159.245 368.441L160.972 356.649L160.864 355.678L160.54 354.706L159.893 354.167L159.29 353.717L158.319 353.609L155.395 353.393L154.64 353.177L154.316 353.069L154.208 352.961L153.776 351.882L152.158 345.613L150.754 341.719L149.999 340.208L149.351 339.236L148.488 338.265L142.435 333.183L141.571 332.104L141.032 331.132L140.6 330.053L139.952 327.13L139.736 327.022L139.521 326.698L138.765 326.159L130.436 321.293L129.357 321.185L128.386 321.509L126.659 322.912L126.011 323.128L125.579 322.48L125.364 321.616L124.824 319.458L124.176 317.299L121.469 311.894L121.145 310.814L121.037 309.735L121.145 308.656L121.361 307.576L122.225 305.418L125.04 300.768L125.364 299.904L125.687 298.825L125.579 297.53L125.148 296.343L124.284 295.371L123.313 294.832L117.907 293.213L116.828 292.781L115.749 292.025L114.777 291.054L114.022 290.083L113.374 289.003L112.943 287.924L112.619 286.737L112.403 285.55L112.295 283.283L113.266 276.249L113.374 273.326L113.266 271.923L112.619 268.784L112.187 267.813L111.755 267.165L111.108 266.41L110.244 265.87L109.489 265.546L108.841 265.438L107.978 265.546L104.947 266.086L103.975 265.978L103.22 265.438L103.004 264.575L103.22 263.711L104.083 262.956L105.055 262.416L110.46 261.121L122.467 255.392L123.439 255.068H124.734L126.137 255.284L128.296 256.255L132.19 258.747L133.593 259.286L135.536 259.61L136.615 259.718L137.695 259.502L138.666 259.178L147.427 254.42L148.29 254.312L149.153 254.636L150.341 255.5L150.988 256.471L151.42 257.335L152.715 262.093L153.579 264.251L154.55 266.086L157.149 270.088L158.229 270.952L159.524 271.707L161.574 272.031L166.225 272.247L167.304 272.355L168.275 272.787L169.031 273.326L169.462 274.082L169.57 274.729V274.945V275.161L169.462 275.593L169.57 276.456L169.894 277.32L170.65 278.183L173.573 280.018L174.328 280.882L174.652 281.853V282.932L174.544 284.012V284.983L174.976 285.738L175.947 286.062L177.35 285.738L178.646 284.875L182.756 281.52L183.404 281.196L184.483 281.088H185.562L187.073 281.628L190.536 283.247L191.723 283.571L192.803 283.679L193.99 283.139L194.206 282.384L194.098 281.304L193.882 280.333V279.361L194.421 278.822L195.285 278.93L196.364 279.793L196.904 280.873L197.659 282.923L198.739 283.895L200.466 284.758L206.303 286.917L211.924 291.243L213.759 291.891L216.026 292.214L220.676 292.106L240.139 289.183L241.111 289.291L242.19 289.939L243.053 290.586L244.564 292.97L245.428 295.128L245.644 296.208L245.752 297.503V298.69L245.32 300.525L245.104 301.173L243.485 304.312L242.838 305.823L242.945 307.118L243.377 308.197L244.349 309.061L245.32 309.384L246.399 309.492L248.558 309.061H249.745L250.717 309.924L251.148 311.003L251.256 312.083L248.657 329.603V331.114L248.873 332.41L250.276 338.139L251.139 343.329L250.708 357.063L250.923 358.466L251.463 359.653L252.111 360.625L252.866 361.38L253.406 361.812L254.269 362.244L255.241 362.567L256.32 362.675H257.399L258.479 362.459L270.045 358.349L272.429 358.025L277.942 358.133L279.993 357.917L280.964 357.701L281.828 357.486L282.475 357.162L283.339 356.73L284.202 356.082L285.174 355.219L288.528 350.893L289.608 349.921L290.903 349.166L292.522 348.626L293.817 348.302L301.822 347.979L314.909 350.029L318.911 351.109L320.098 351.54L326.259 353.051L328.31 353.699L329.173 354.347L329.929 355.318L330.253 356.613L330.469 357.8L329.497 371.211L329.821 372.425L330.253 373.612L331.116 375.015L332.195 375.879L333.275 376.418L339.328 378.037L340.083 378.361L340.515 378.793L340.623 378.901L341.487 380.304L342.242 382.247L344.733 391.979L345.597 394.029L346.245 395.001L347 395.756L351.002 398.787L351.11 400.514L350.463 402.781L349.923 404.292L349.815 404.508L347.657 407.323L346.91 408.537L346.586 409.4V410.156L346.694 410.48L347.342 412.207V413.394L347.234 415.337L346.37 419.231L345.831 427.992L345.939 432.642L339.886 431.778L336.855 431.886L335.775 432.426L334.912 433.073L334.264 434.045L334.048 435.016L334.156 436.095L335.343 439.45L335.559 440.53L335.667 441.609L335.559 443.875L335.236 445.063L334.588 446.466L333.401 448.301L332.213 449.488L331.134 450.351L322.805 454.03L316.752 457.385L314.702 459.004L313.299 460.515L312.759 461.702L313.083 462.781L313.946 463.645L314.918 464.4L319.999 467.215L320.755 468.079L321.079 469.158L320.539 470.561L319.675 471.533L318.596 472.18L313.191 474.123L311.895 474.987L310.492 476.174L304.007 482.767L290.705 493.254L288.87 495.412L285.515 500.602L284.328 501.897L283.249 502.329L282.062 502.437L274.92 500.17L273.733 500.063L272.33 500.386L270.387 501.574L265.629 505.576L264.658 506.224H264.442L263.21 506.619L262.238 506.727H261.159L258.128 506.296H257.912L256.941 505.648L256.401 504.785L256.185 503.813L256.401 502.842L256.833 500.791L257.156 498.632L257.048 497.553L256.833 496.474L256.401 495.394L255.645 494.423L254.782 493.668L253.918 493.02L252.515 492.264L249.376 491.293L248.513 490.861L247.865 490.106L247.757 489.134L247.973 488.055L250.573 482.002L250.788 481.031L251.112 478.647V477.136L250.896 476.165L250.573 475.193L250.033 474.33L249.17 473.574L248.198 473.359L247.227 473.251L242.793 473.79L232.845 476.929L229.274 477.577L228.195 477.145L227.763 476.282L227.547 474.231L227.331 473.26L226.9 472.396L225.928 471.857H224.633L219.659 472.72L217.825 472.828L216.206 472.612L215.126 471.857L214.047 470.993L210.476 466.667L206.69 463.312L206.042 462.664L204.099 459.525L203.128 458.662L201.941 458.23L200.538 458.338L197.246 459.04L191.408 459.471L189.897 459.687L189.789 458.608L189.682 457.205L189.358 456.126L189.25 455.154L188.494 454.399L188.17 453.859L187.955 452.996V452.132L186.875 452.78L186.444 452.456H186.003L186.111 453.319L186.543 453.751L187.73 454.183V454.507L186.111 454.399L185.139 453.427L185.031 450.936L182.981 448.229L181.901 444.766L181.578 443.579L181.362 442.283L181.038 441.096L180.283 440.233L179.851 440.017L179.311 439.909L178.556 439.585L178.124 439.045L177.908 438.398L177.584 437.426L176.919 436.761L176.163 436.437L175.408 436.221L174.76 435.897L174.328 435.574L173.897 434.71L173.141 433.847L172.709 433.523L171.954 432.983L171.09 432.66L170.227 432.552L169.148 431.796L168.608 431.364L167.637 430.501L166.773 429.314L165.802 428.666L165.046 427.911L163.643 426.507L163.211 426.292H162.888L162.456 426.4L162.024 426.723L161.053 425.968L160.297 425.32L158.355 424.133L156.951 423.054L157.167 422.406L158.031 421.866L159.11 421.651L158.678 421.219L158.031 421.435L157.167 421.866L156.736 421.219L157.275 420.355L157.491 419.6L157.059 419.384L156.736 419.708L156.088 419.816L155.872 420.355L156.088 420.571L156.304 421.111V421.759L156.412 422.19L156.088 422.514L155.117 422.082L153.714 422.514L151.555 420.895L150.907 420.248L149.072 418.844L148.641 417.765L148.101 417.333L147.238 417.01L146.482 416.47L145.727 415.822L144.863 415.283H143.784L143.244 415.175L142.489 415.714L142.381 416.47L142.597 417.441L140.654 417.549L140.114 416.794L138.819 416.146L137.74 416.47L136.66 415.391L136.013 414.203L135.041 412.8L133.315 411.397L132.775 409.67L133.315 408.591L133.638 408.699L134.502 409.346L134.934 408.483L134.61 407.62L131.066 402.484Z" fill="#BDE2FF"/>
<path d="M332.527 641.579L334.578 640.716L336.52 640.608L337.492 640.716L338.139 641.04L338.679 641.471L339.435 642.335L339.974 643.306L340.298 644.386V645.357L340.19 646.328L338.787 652.813V654L338.895 655.296L339.111 656.267L341.054 659.622L341.377 660.809V661.996L339.758 667.078L339.327 668.049L338.679 668.913L337.816 669.561L336.952 669.884L336.305 670.1H335.657L330.467 669.561H329.388L328.417 669.776L327.337 670.1L325.287 671.287L322.903 673.122L322.04 673.554L321.176 673.446L320.205 673.014L319.449 672.367L318.694 672.043L318.262 672.475L318.154 673.446L317.83 684.905L318.046 686.955L318.37 687.927L318.694 689.006L319.233 689.977L320.097 690.733L320.96 691.273L321.932 691.488H327.013L328.956 691.596L331.007 692.028L331.978 692.352L332.842 692.892L333.597 693.647L334.137 694.618L337.384 704.35L337.708 705.861V707.156L337.492 708.452L335.873 714.721L335.009 716.663L334.47 717.419L333.606 718.282L330.683 719.901L329.82 720.441L329.064 721.304L328.632 722.168L327.769 724.219L327.229 723.463L326.906 722.923L326.798 722.276L326.582 722.06L326.15 721.844L325.826 721.628L326.042 720.873L325.179 720.765L324.207 720.441L324.423 720.225V720.117L324.531 720.009L324.855 719.793L324.531 719.254L324.099 718.93H323.56L322.912 719.146L323.236 718.714L323.452 718.174L323.56 717.743L323.236 717.419L323.56 716.771L323.236 716.448L322.696 716.34L321.941 716.448L322.049 715.8L321.941 714.829L321.617 713.857L321.185 713.21L320.969 712.67L320.646 710.835L320.538 710.403L320.43 709.972L320.322 707.372L320.214 707.049L320.106 706.833L319.89 706.725H319.566L319.35 706.509L319.242 706.077V705.645L319.135 705.322L317.408 704.134L317.192 703.811L317.084 703.271L316.868 702.731L316.544 702.192L315.789 701.868L315.573 701.652L315.357 701.436L315.249 701.328L314.925 701.436L314.494 701.868L314.278 701.976L313.738 701.76L313.306 701.436L312.767 701.112L312.443 700.573L311.148 697.865L310.608 697.11L310.068 696.462L309.745 695.815V695.167L309.852 694.196L310.932 690.949L311.148 689.977L311.256 689.654L311.471 689.438L311.579 689.114L311.148 688.466L310.932 688.358L309.852 687.819L307.91 687.279L307.478 685.768V685.444L306.507 684.257L306.291 684.149V683.61L306.399 683.07L306.615 682.098L306.83 681.559L307.046 681.127L307.262 680.803L307.37 679.94L307.586 678.861L308.234 677.673L307.802 676.918L306.938 676.378L305.967 675.946L304.024 675.407L303.161 674.759L302.729 673.464L301.973 672.385L301.866 671.953V671.413L302.189 670.226V669.794L301.866 668.823V668.391L301.65 667.96L300.786 667.42L300.57 666.988L300.355 666.017L299.923 665.477L299.167 665.045L297.872 664.074L297.98 663.858L298.088 663.318L297.98 662.779L297.44 662.023L297.332 661.592V661.052L297.009 660.296L297.117 659.757L297.44 659.217L297.872 658.893L298.088 658.462L297.764 658.138L297.872 657.598L297.764 657.058L297.44 656.627L297.332 655.979L293.438 654.576L292.251 654.036L289.867 651.545L288.788 650.897V650.574L289.328 650.682L290.407 651.329L290.623 649.278L290.515 646.787L290.191 645.708L288.032 642.569L287.169 642.029L284.785 641.705H283.814L283.382 642.245L283.922 643.432L283.274 642.893L282.627 641.813L282.303 640.842L282.195 640.41L281.548 639.978L279.605 637.163L278.202 636.3L277.878 635.976L277.986 635.652L278.525 634.357L278.202 633.386L277.662 632.846L276.259 632.306L274.532 631.227L274.1 631.011L273.669 630.364L273.156 630.229L272.724 629.905L271.645 628.286L271.213 628.178L270.134 627.854L269.702 627.746L268.839 627.53L267.867 626.991L265.709 625.264L264.09 623.429L264.413 622.673L263.658 622.134L262.363 621.81L260.96 621.594L260.636 621.27L260.204 620.731L259.53 619.948L259.098 619.516V619.301L258.666 618.977L257.155 617.574L256.4 617.25H255.32L254.241 617.466L253.27 617.79L252.838 618.221L251.759 617.79L249.816 616.602L248.736 616.171V616.818L249.06 617.142L249.492 617.358L249.816 617.79L250.032 617.897L250.463 618.113L250.787 618.437L250.463 618.653L249.708 618.437L245.058 615.622L244.41 614.974L243.871 614.758L242.899 614.435L242.036 614.003L241.388 612.6L240.525 611.736L238.033 609.794L236.738 608.499L234.031 604.064L233.06 603.309V602.877H233.491H233.923L234.139 602.661L234.355 602.23L233.581 602.113L233.042 601.681L231.962 600.709L231.629 600.161L231.306 598.65L231.09 598.11L229.579 596.383L229.471 595.52L230.226 594.333L228.607 593.793L227.96 593.685L228.068 594.117L228.284 594.333L228.499 594.548L228.823 594.764L227.96 594.44L226.88 593.793L226.341 593.037L226.665 592.282L226.233 592.066L226.017 591.742V591.418L226.341 590.987L226.557 591.31L226.88 591.634L227.312 591.85L227.96 591.958L227.744 591.418L227.636 591.095V590.771L227.528 590.339H227.312L226.988 590.447L226.665 590.231L226.017 589.368H225.801L225.693 590.231L224.722 589.584L223.319 588.612L222.455 587.317V586.13L222.671 586.454L222.995 586.777L223.319 586.885L223.427 586.561L223.319 585.914L222.995 585.698L222.671 585.59L222.347 585.374L221.916 585.158H221.376L220.944 585.374L220.405 585.482V585.266L219.109 583.324L218.786 582.568L218.678 581.705V580.517L218.57 580.086L217.922 579.654L217.706 579.114V578.575L217.49 578.359L217.167 578.251L215.224 576.848L214.684 576.308L214.468 574.905L214.037 573.934L213.929 573.394L214.037 573.07L214.468 572.423L214.576 572.099L214.253 571.451L212.418 568.744L211.878 568.312L210.367 565.929L214.046 562.682L214.585 561.494L214.693 559.876L214.262 558.472L213.614 557.717V557.393L214.046 556.961V556.314L213.29 554.695L212.643 555.666L212.211 555.882L211.779 555.234L211.347 554.263L211.671 553.939L210.916 552.86L210.7 551.349L210.808 549.838L210.7 548.435L210.268 547.14V546.384L211.239 546.06L211.455 545.737L211.671 545.089V544.226L211.347 543.686L211.024 544.657L210.7 545.197L210.376 545.413H209.728L209.62 545.197V544.765L209.405 544.333L209.027 544.037L208.919 543.821L208.703 543.605L208.487 543.281L208.271 542.741V541.986L208.055 541.554L207.516 541.23L207.408 541.015L207.192 540.583V540.475L205.573 538.424L204.17 535.501L203.414 531.175V530.203L204.71 529.772L205.897 531.391H206.868L207.084 530.311V529.34L207.192 528.8L207.3 528.585L207.948 528.153L208.055 527.937L208.163 526.966L208.595 524.915L208.703 523.944H208.487L207.732 525.67L207.516 524.915L207.624 524.375L207.948 523.836L208.055 523.08V521.029L208.487 519.626L209.998 517.899L210.43 515.741L210.754 515.201L211.185 514.877L211.617 514.338L212.265 512.935L213.02 512.071L213.236 511.855V511.208L212.912 510.668L212.481 510.344L211.941 510.452L211.617 510.992L211.293 512.395L210.97 512.935L209.89 513.15L209.782 511.639L210.43 509.589L209.998 506.773L210.322 503.958L209.998 502.555L209.674 501.908L208.379 500.181L207.192 497.365L206.221 495.854L205.897 494.991L206.005 494.451L207.3 493.264L207.192 492.832L204.925 490.341L204.062 489.585L203.63 489.801L203.738 490.125L204.602 490.989L204.925 491.42L205.033 491.96L205.141 492.5L205.249 493.039L205.573 493.471L205.249 493.903L204.602 492.392L203.307 490.449L202.011 489.046L199.628 484.612V483.964L201.031 484.72L202.542 488.074L203.298 488.29L203.837 488.614L204.269 488.506L204.593 488.182L204.916 487.643L204.377 486.995L203.621 485.484L203.19 485.16L202.866 485.052L202.434 484.729L202.11 484.189L202.002 483.649L201.571 482.786L200.707 482.462L199.628 482.138L198.872 481.706L197.901 481.922L197.253 481.167L196.282 479.008L196.822 478.469L197.145 477.821L197.469 477.065L197.577 476.31L197.469 474.907L197.253 474.151L197.145 473.504L196.606 473.288L196.174 474.043L195.634 472.856L194.771 471.777L193.908 470.158L193.152 469.079L192.72 467.999L192.181 467.244L192.073 466.596L191.641 465.625V464.977L191.317 463.466L190.67 462.279L190.13 460.768L189.914 459.796L191.425 459.581L197.262 459.149L200.509 458.393L201.912 458.285L203.1 458.717L204.071 459.581L206.014 462.72L206.661 463.367L210.448 466.722L214.019 471.048L215.098 471.912L216.177 472.667L217.796 472.883L219.631 472.775L224.605 471.912H225.9L226.871 472.451L227.303 473.315L227.519 474.286L227.735 476.337L228.167 477.2L229.246 477.632L232.817 476.984L242.764 473.846L247.198 473.306L248.17 473.414L249.141 473.63L250.005 474.385L250.544 475.249L250.868 476.22L251.084 477.191V478.702L250.76 481.086L250.544 482.057L247.945 488.11L247.729 489.19L247.837 490.161L248.485 490.917L249.348 491.348L252.487 492.32L253.89 493.075L254.754 493.723L255.617 494.478L256.373 495.45L256.804 496.529L257.02 497.608L257.128 498.688L256.804 500.846L256.373 502.897L256.157 503.868L256.373 504.84L256.912 505.703L257.884 506.351H258.1L261.131 506.782H262.21L263.181 506.675L264.369 506.351H264.584L265.556 505.703L270.314 501.701L272.256 500.513L273.66 500.19L274.847 500.298L281.988 502.564L283.175 502.456L284.255 502.024L285.442 500.729L288.797 495.54L290.632 493.381L303.934 482.894L310.419 476.301L311.822 475.114L313.117 474.25L318.523 472.308L319.602 471.66L320.466 470.689L321.005 469.285L320.682 468.206L319.926 467.343L314.844 464.527L313.873 463.772L313.009 462.908L312.686 461.829L313.225 460.642L314.628 459.131L316.679 457.512L322.732 454.157L331.061 450.478L332.14 449.615L333.327 448.428L334.515 446.593L335.162 445.19L335.486 444.003L335.594 441.736L335.486 440.657L335.27 439.577L334.083 436.223L333.975 435.143L334.191 434.172L334.839 433.2L335.702 432.553L336.781 432.013L339.812 431.905L345.865 432.769L345.434 437.635L345.542 440.882L345.865 441.853L346.405 442.608L346.945 443.04L348.672 444.119L349.643 444.875L350.614 445.846L351.478 447.465L353.969 455.47L355.157 458.177L355.588 459.473L356.991 466.722L362.937 481.104L363.476 481.751L364.124 482.507L364.987 483.262L365.959 483.91L367.038 484.342L368.009 484.666L369.736 484.989L376.986 484.881L387.149 485.745L389.2 486.177L390.387 486.608L391.466 487.148L392.762 488.227L393.409 489.307L393.625 490.386L393.409 491.249L392.762 493.408L392.438 498.598L392.546 499.785L392.869 501.08L393.841 503.023L394.812 503.886L395.892 504.534L397.942 505.289L399.021 505.397L400.101 505.289L405.614 503.778L406.586 503.563L407.665 503.67L413.178 504.75L414.15 504.966L415.013 505.505L415.769 506.261V506.477L414.474 513.942V515.993L416.857 532.866V533.837L416.641 534.917L416.317 535.888L415.886 536.967L415.346 537.939L413.943 539.773L413.403 540.745L412.972 541.716L412.864 542.688L413.511 551.124L413.187 553.283L411.245 560.532V561.504V562.583L411.568 563.662L412.108 564.634L424.331 582.91L419.357 584.853L412 589.179L410.381 589.718L408.978 589.826L406.055 588.747L404.76 588.531L403.573 588.378L401.63 588.702L400.119 589.134L397.196 590.321L396.332 590.645L395.577 590.753L392.654 590.861L391.035 591.185L389.739 591.724L388.552 592.48L386.717 594.315L385.422 595.394L376.23 600.476L364.331 611.179L362.82 612.366L360.22 613.769L358.709 614.201L357.414 614.309L356.335 613.985L355.363 613.445L354.5 612.69L353.744 611.611L348.986 601.771L348.123 600.368L345.416 598.101L344.552 597.777L343.365 597.561L342.394 597.885L338.067 600.377L336.988 600.808L336.017 601.132H331.043L329.532 601.348L328.237 601.672L325.97 602.643L324.567 603.075L323.596 602.967L323.056 602.751L322.301 602.211L321.653 601.348L321.113 600.377L319.71 596.266L318.955 595.187L317.983 594.324L316.58 593.676L315.393 593.568L314.314 593.676L313.234 594.108L312.371 594.755L311.615 595.619L311.184 596.374L310.86 596.914L310.644 597.777L310.536 598.749L310.644 599.828L311.076 601.879L311.831 604.802L311.939 606.313V606.853L311.615 608.148L308.368 614.093L307.073 617.34L306.426 618.311L305.346 619.283L304.267 619.822L303.188 620.146L298.646 620.794L297.135 621.225L295.947 621.873L294.976 622.628L291.324 626.334L290.677 627.305L290.569 628.277L290.785 629.14L291.54 630.004L292.512 630.435L295.974 631.515L296.19 631.623L296.622 631.946L297.162 632.81L297.593 633.781L297.917 634.861V635.94L297.377 641.022L297.485 641.993L298.349 645.24L298.457 646.211L298.133 650.322L298.241 651.293L298.457 652.372L298.996 653.344L299.653 654.126L300.193 654.45L303.763 656.393L304.951 657.472L307.874 661.367L308.845 662.23L309.924 662.77L311.22 662.986H312.299L313.378 662.878L314.35 662.554L315.321 662.014L316.184 661.367L316.724 660.395L317.048 659.424L318.253 654.126L321.176 646.229L322.471 644.071L323.011 643.423L323.443 642.991L324.306 642.56L325.278 642.452H329.604L331.223 642.236L332.527 641.579Z" fill="#BDE2FF"/>
<path d="M486.086 246.981L486.625 247.305L490.628 250.228L492.57 252.063L493.326 253.142L493.974 254.438L495.269 258.98L495.808 260.383L496.996 261.786L497.967 262.757L511.27 270.438L513.428 271.086L516.783 271.41L517.862 271.626L518.834 272.165L519.805 273.029L522.728 276.6L527.162 280.818L529.105 282.221L530.185 282.653L532.127 283.084L539.916 283.3L541.967 283.732L544.018 284.487L546.941 286.106L558.399 294.435L559.479 294.975L560.666 295.299L561.745 295.514H562.825L569.741 294.219L570.928 294.327L571.9 294.651L572.979 295.299L580.66 302.872L581.955 304.814L582.819 305.786L583.79 306.433L598.712 312.379L599.251 312.81L599.899 313.458L600.547 314.429L600.978 315.401L601.302 316.372L601.518 317.991L602.597 387.31L603.029 389.693L603.353 390.449L604 391.42L604.756 392.392L621.305 404.399L633.097 416.298L635.04 418.682L636.982 421.929L638.925 426.471L640.004 430.149L640.76 436.31L640.436 447.661L627.134 556.555L614.587 654.745L608.533 656.472L499.271 668.29L487.264 667.535L482.83 666.456L480.338 665.484L476.983 663.865L464.005 655.644L463.249 655.105L444.865 638.124L440.323 630.55L437.724 627.411L436.968 626.224L436.644 624.605V623.418L438.479 614.873L439.342 613.039L442.05 608.604L442.481 607.741L442.805 606.77V606.545L442.913 605.573L442.805 604.71L442.481 603.631L441.834 602.443L438.047 598.117L435.232 594.438L433.721 592.055L431.23 589.024L424.421 582.863L412.198 564.587L411.658 563.615L411.334 562.536V561.457V560.485L413.277 553.236L413.601 551.077L412.953 542.641L413.061 541.669L413.493 540.698L414.033 539.726L415.436 537.892L415.975 536.92L416.407 535.841L416.731 534.87L416.947 533.79V532.792L414.563 515.919V513.868L415.858 506.403V506.187L415.103 505.431L414.24 504.892L413.268 504.676L407.755 503.597L406.675 503.489L405.704 503.704L400.191 505.215L399.111 505.323L398.032 505.215L395.981 504.46L394.902 503.812L393.931 502.949L392.959 501.006L392.635 499.711L392.527 498.524L392.851 493.334L393.499 491.175L393.715 490.312L393.499 489.233L392.851 488.153L391.556 487.074L390.477 486.534L389.289 486.103L387.239 485.671L377.075 484.808L369.826 484.915L368.099 484.592L367.128 484.268L366.048 483.836L365.077 483.189L364.213 482.433L363.566 481.678L363.026 481.03L357.081 466.648L355.678 459.399L355.246 458.104L354.059 455.396L351.568 447.391L350.704 445.772L349.733 444.801L348.761 444.046L347.034 442.966L346.495 442.535L345.955 441.779L345.631 440.808L345.523 437.561L345.955 432.695L345.847 428.045L346.387 419.284L347.25 415.39L347.358 413.447V412.26L346.711 410.533L346.603 410.209V409.454L346.927 408.59L347.682 407.403L349.841 404.588L349.949 404.372L350.488 402.861L351.136 400.594L351.028 398.867L351.999 396.925L355.03 392.167L355.678 391.519L356.973 390.548L358.052 390.116L359.132 389.9L360.103 390.116L365.077 392.607L367.128 393.291L370.482 394.154L378.919 395.018H381.186L387.886 394.046L390.045 394.154L393.724 395.126H394.587L395.558 394.91L396.638 394.37L397.825 393.399L398.688 392.104L399.444 390.269L399.552 388.866L399.228 387.679L397.933 385.52L397.501 384.549L397.285 383.469L397.501 382.174L398.149 380.771L402.691 374.826L407.125 370.284L408.312 369.528L409.392 368.989L424.961 365.202L426.796 364.338L427.983 363.583L430.474 361.199L433.829 359.041L434.8 357.962L435.664 356.558L437.391 353.096L438.686 351.369L439.441 350.613L439.981 350.074L440.737 349.534L441.708 349.102L442.679 348.778L443.759 348.563H445.917L455.865 349.858L467 349.102L471.218 349.426L472.189 349.318L473.053 348.994L473.593 348.239L473.916 347.267L474.132 346.188L474.24 344.677V342.842L473.808 339.811L473.269 337.976L472.621 336.465L471.326 334.082L471.002 332.895L471.218 331.384L471.758 329L471.542 327.381L471.434 327.165L467.863 322.299L463.753 315.383L462.566 313.98L458.887 310.301L458.132 309.222L457.592 308.25L457.376 307.171V306.092L458.347 299.283V297.016L458.024 294.633L458.132 293.446L458.995 292.258L460.074 291.611L461.154 291.287L462.988 290.855L463.528 290.64L464.284 289.884L467.746 284.91L469.473 282.967L471.524 281.025L472.711 280.161L473.898 279.514L476.165 278.758L477.244 278.218L478.108 277.463L478.755 276.6L479.079 275.736L479.295 275.088V274.981V274.225L479.187 273.254L478.863 272.174L478.432 270.987L477.892 269.908L477.136 268.828L476.165 267.857L474.222 266.238L472.172 264.727L469.14 263.432L468.817 262.784L468.385 260.95L468.277 259.762L468.385 258.683L468.493 257.712L469.033 256.093L469.68 254.366L470.975 252.315L472.163 250.696L473.674 249.401L474.321 248.861H474.429L477.136 247.782L478 248.537L478.216 248.861L478.324 248.969L478.971 249.833L479.835 250.48L480.806 250.912L481.885 251.02L483.073 250.48L484.044 249.941L486.086 246.981Z" fill="#BDE2FF"/>
<path d="M351.017 398.805L347.015 395.774L346.259 395.019L345.612 394.047L344.748 391.996L342.257 382.265L341.501 380.322L340.638 378.919L340.53 378.811L340.098 378.379L339.343 378.055L333.29 376.436L332.21 375.897L331.131 375.033L330.267 373.63L329.818 372.425L329.602 371.238L330.573 357.827L330.357 356.64L330.034 355.345L329.278 354.373L328.415 353.717L326.364 353.069L320.203 351.558L319.016 351.127L320.85 349.508L322.685 348.86L325.5 348.536L327.119 348.086L334.585 343.976L336.312 343.221L337.823 342.789L342.365 342.357L343.444 342.033L344.2 341.278L344.523 340.522L344.307 339.659L344.092 339.011L341.933 335.009L341.609 333.822L341.501 332.742L341.717 331.447L342.365 330.368L343.552 329.073L344.631 328.533L345.603 328.425L346.358 328.641L350.037 330.044L351.224 330.368H352.303L353.167 330.152L353.706 329.288L353.922 328.425V327.544L353.814 327.112L352.951 322.894V321.814V320.735L353.167 319.764L353.922 317.497L355.002 315.338L355.649 314.583L356.621 314.043H357.592L358.671 314.151L359.859 314.043L362.017 313.504L362.989 313.072L363.636 312.1L363.96 311.021L364.715 309.186L366.011 306.92L371.524 300.543L383.747 290.595L389.369 286.917L400.072 282.374L401.691 281.295L402.662 280.108L403.31 278.921L405.253 274.702L406.872 272.652L409.138 270.385L412.709 268.119L430.338 259.034L432.721 258.171L433.8 257.847H434.88L435.851 257.955L436.93 258.387L438.01 258.926L439.737 260.437L443.145 263.954L449.091 268.82L451.141 270.007L452.221 270.331L457.086 270.655L460.225 271.303H461.305L462.168 271.087L463.032 270.547L463.679 270.115L467.25 265.141L469.193 263.307L472.224 264.602L474.274 266.113L476.217 267.732L477.189 268.703L477.944 269.783L478.484 270.862L478.915 272.049L479.239 273.128L479.347 274.1V274.855V274.963L479.131 275.611L478.808 276.474L478.16 277.338L477.323 278.12L476.244 278.66L473.978 279.415L472.79 280.063L471.603 280.926L469.552 282.869L467.826 284.812L464.363 289.786L463.607 290.541L463.068 290.757L461.233 291.189L460.153 291.513L459.074 292.16L458.211 293.347L458.103 294.535L458.427 296.918V299.185L457.455 305.993V307.073L457.671 308.152L458.211 309.123L458.966 310.203L462.645 313.881L463.832 315.284L467.942 322.201L471.513 327.067L471.621 327.283L471.837 328.902L471.297 331.285L471.081 332.796L471.405 333.983L472.7 336.367L473.348 337.878L473.888 339.713L474.319 342.744V344.579L474.211 346.09L473.996 347.169L473.672 348.14L473.132 348.896L472.269 349.22L471.297 349.328L467.079 349.004L455.944 349.759L445.997 348.464H443.838L442.759 348.68L441.787 349.004L440.816 349.436L440.06 349.975L439.521 350.515L438.765 351.27L437.47 352.997L435.743 356.46L434.88 357.863L433.908 358.943L430.553 361.101L428.062 363.485L426.875 364.24L425.04 365.104L409.471 368.89L408.392 369.43L407.204 370.185L402.77 374.727L398.228 380.673L397.58 382.076L397.365 383.371L397.58 384.45L398.012 385.422L399.307 387.58L399.631 388.768L399.523 390.171L398.768 392.005L397.904 393.301L396.645 394.371L395.566 394.911L394.594 395.126H393.731L390.052 394.155L387.894 394.047L381.193 395.019H378.926L370.49 394.155L367.126 393.292L365.075 392.536L360.101 390.045L359.13 389.829L358.051 390.045L356.971 390.476L355.676 391.448L355.029 392.095L351.998 396.853L351.017 398.805Z" fill="#BDE2FF"/>
<path d="M278.562 179.066L283.968 181.332L286.675 181.98H287.754L312.516 176.251L315.87 175.819L317.813 175.927L319.324 176.143L330.675 179.821L332.294 180.145H333.481L334.668 179.929L340.398 178.526L345.372 178.202L346.559 178.31L362.56 181.989L364.718 182.852L365.69 183.5L366.769 184.471L372.39 191.28L373.793 192.359L375.412 193.439L377.679 194.302L379.406 194.518L380.917 194.41L382.32 194.086L383.615 193.547L387.402 191.496L388.697 190.848L390.1 190.632H391.719L392.69 191.172L393.122 191.604L393.23 192.036L393.446 196.038L393.554 196.686L393.878 197.873L394.525 199.492L395.604 200.679L397.223 201.758L398.519 202.082L399.706 202.19L404.356 201.758L405.975 201.866L407.27 202.298L412.244 204.897L414.079 205.545L415.266 205.653L416.345 205.437L418.18 204.574L423.586 201.003L424.881 200.463L426.5 200.355L427.795 200.787L428.874 201.65L429.63 202.73L437.527 217.004L441.421 227.383L443.04 229.649L444.227 230.729L445.415 231.7L447.034 232.456L448.329 232.887L462.711 235.154L464.33 235.694L466.38 236.881L467.46 237.636L475.249 244.661L476.436 246.064L477.083 247.575L474.376 248.654H474.268L473.621 249.194L472.11 250.489L470.922 252.108L469.627 254.159L468.98 255.886L468.44 257.505L468.332 258.476L468.224 259.555L468.332 260.743L468.764 262.577L469.087 263.225L467.145 265.06L463.574 270.034L462.926 270.465L462.063 271.005L461.2 271.221H460.237L457.098 270.573L452.232 270.34L451.153 270.016L449.102 268.828L443.148 263.954L439.793 260.383L438.066 258.872L436.987 258.332L435.908 257.9L434.936 257.793H433.857L432.778 258.116L430.394 258.98L412.766 268.064L409.195 270.33L406.928 272.597L405.309 274.648L403.367 278.866L402.719 280.053L401.748 281.241L400.129 282.32L389.425 286.862L383.786 290.559L371.563 300.506L366.049 306.883L364.754 309.15L363.999 311.003L363.675 312.082L363.027 313.053L362.056 313.485L359.897 314.025L358.71 314.133L357.631 314.025H356.659L355.688 314.564L355.04 315.32L353.961 317.478L353.206 319.745L352.99 320.716V321.796V322.875L353.853 327.093L353.961 327.525V328.388L353.745 329.252L353.206 330.115L352.342 330.331H351.263L350.076 330.007L346.37 328.622L345.614 328.406L344.643 328.514L343.564 329.054L342.376 330.349L341.729 331.428L341.513 332.724L341.621 333.803L341.945 334.99L344.103 338.993L344.319 339.64L344.535 340.504L344.211 341.259L343.456 342.015L342.376 342.338L337.834 342.77L336.323 343.202L334.596 343.957L327.122 348.086L325.503 348.518L322.688 348.841L320.853 349.489L319.018 351.108L315.016 350.029L301.929 347.978L293.924 348.302L292.629 348.625L291.01 349.165L289.715 349.921L288.636 350.892L285.281 355.218L284.31 356.082L283.446 356.729L282.583 357.161L281.935 357.485L281.072 357.701L280.1 357.917L278.05 358.132L272.536 358.024L270.153 358.348L258.586 362.459L257.507 362.675H256.427L255.348 362.567L254.377 362.243L253.513 361.811L252.974 361.379L252.218 360.624L251.57 359.652L251.031 358.465L250.815 357.062L251.247 343.328L250.383 338.138L248.98 332.409L248.764 331.114V329.603L251.364 312.082L251.256 311.003L250.824 309.923L249.853 309.06H248.665L246.507 309.491L245.427 309.384L244.456 309.06L243.485 308.196L243.053 307.117L242.945 305.822L243.593 304.311L245.212 301.172L245.427 300.524L245.859 298.689V297.502L245.751 296.207L245.535 295.128L244.672 292.969L245.427 292.429L246.183 291.35L247.046 289.623L249.754 281.187L251.157 278.371L253.315 275.448L259.045 270.474L259.908 269.503L260.664 268.424L261.095 267.344L261.203 266.265L260.987 265.186L260.016 263.999L258.937 263.027L253.315 259.996L251.481 258.809L250.833 258.053L250.077 257.082L249.538 256.111L244.456 235.46L244.024 234.273L243.377 233.193L240.669 230.486L235.156 225.944L232.341 224.541L230.938 223.569L229.858 222.49L229.642 222.274L228.671 221.087L226.944 220.116L224.345 219.144L209.315 215.573L208.236 215.142L207.481 214.602L206.617 213.523L211.699 207.901L212.778 207.146L213.965 206.39L231.594 197.954L239.707 195.687L257.012 185.847L274.749 178.49L275.72 178.382L278.562 179.066Z" fill="#BDE2FF"/>
<path d="M348.096 600.334L345.83 608.015L345.938 609.31L346.262 610.821L347.449 612.008L347.988 612.872L348.204 614.059L347.881 615.246L346.801 616.757L345.83 617.747L340.316 621.641L339.237 622.613L338.589 623.908L338.158 625.311L337.942 628.774L337.186 631.265L332.536 641.536L331.241 642.184L329.622 642.4H325.296L324.325 642.508L323.461 642.94L323.029 643.371L322.49 644.019L321.195 646.178L318.253 654.083L317.066 659.381L316.742 660.352L316.203 661.324L315.339 661.971L314.368 662.511L313.397 662.835L312.317 662.943H311.238L309.943 662.727L308.863 662.187L307.892 661.324L304.969 657.429L303.782 656.35L300.211 654.407L299.653 654.083L299.006 653.328L298.466 652.357L298.25 651.277L298.142 650.306L298.466 646.195L298.358 645.224L297.495 641.977L297.387 641.006L297.926 635.924V634.845L297.603 633.765L297.171 632.794L296.631 631.931L296.2 631.607L295.984 631.499L292.521 630.42L291.549 629.988L290.794 629.124L290.578 628.261L290.686 627.29L291.334 626.318L294.904 622.639L295.876 621.884L297.063 621.236L298.574 620.805L303.116 620.157L304.195 619.833L305.275 619.294L306.354 618.322L307.002 617.351L308.297 614.104L311.544 608.159L311.868 606.864V606.324L311.76 604.813L311.004 601.89L310.572 599.839L310.464 598.76L310.572 597.788L310.788 596.925L311.112 596.385L311.544 595.63L312.299 594.766L313.163 594.119L314.242 593.687L315.321 593.579L316.509 593.687L317.912 594.335L318.883 595.198L319.639 596.277L321.042 600.388L321.581 601.359L322.229 602.223L322.984 602.762L323.524 602.978L324.495 603.086L325.899 602.654L328.165 601.683L329.46 601.359L330.971 601.143H335.945L336.917 600.819L337.996 600.388L342.322 597.896L343.293 597.573L344.481 597.788L345.344 598.112L348.096 600.334Z" fill="#BDE2FF"/>
<path d="M678.281 337.832C679.455 337.832 680.484 338.061 681.369 338.52C682.265 338.979 682.953 339.635 683.433 340.488C683.924 341.331 684.169 342.312 684.169 343.432C684.169 344.552 683.924 345.533 683.433 346.376C682.953 347.208 682.265 347.853 681.369 348.312C680.484 348.771 679.455 349 678.281 349H674.377V337.832H678.281ZM678.201 347.096C679.375 347.096 680.281 346.776 680.921 346.136C681.561 345.496 681.881 344.595 681.881 343.432C681.881 342.269 681.561 341.363 680.921 340.712C680.281 340.051 679.375 339.72 678.201 339.72H676.617V347.096H678.201ZM685.27 344.536C685.27 343.64 685.446 342.845 685.798 342.152C686.161 341.459 686.646 340.925 687.254 340.552C687.873 340.179 688.561 339.992 689.318 339.992C689.98 339.992 690.556 340.125 691.046 340.392C691.548 340.659 691.948 340.995 692.246 341.4V340.136H694.502V349H692.246V347.704C691.958 348.12 691.558 348.467 691.046 348.744C690.545 349.011 689.964 349.144 689.302 349.144C688.556 349.144 687.873 348.952 687.254 348.568C686.646 348.184 686.161 347.645 685.798 346.952C685.446 346.248 685.27 345.443 685.27 344.536ZM692.246 344.568C692.246 344.024 692.14 343.56 691.926 343.176C691.713 342.781 691.425 342.483 691.062 342.28C690.7 342.067 690.31 341.96 689.894 341.96C689.478 341.96 689.094 342.061 688.742 342.264C688.39 342.467 688.102 342.765 687.878 343.16C687.665 343.544 687.558 344.003 687.558 344.536C687.558 345.069 687.665 345.539 687.878 345.944C688.102 346.339 688.39 346.643 688.742 346.856C689.105 347.069 689.489 347.176 689.894 347.176C690.31 347.176 690.7 347.075 691.062 346.872C691.425 346.659 691.713 346.36 691.926 345.976C692.14 345.581 692.246 345.112 692.246 344.568ZM707.698 340.008C708.786 340.008 709.661 340.344 710.322 341.016C710.994 341.677 711.33 342.605 711.33 343.8V349H709.09V344.104C709.09 343.411 708.914 342.883 708.562 342.52C708.21 342.147 707.73 341.96 707.122 341.96C706.514 341.96 706.029 342.147 705.666 342.52C705.314 342.883 705.138 343.411 705.138 344.104V349H702.898V344.104C702.898 343.411 702.722 342.883 702.37 342.52C702.018 342.147 701.538 341.96 700.93 341.96C700.311 341.96 699.821 342.147 699.458 342.52C699.106 342.883 698.93 343.411 698.93 344.104V349H696.69V340.136H698.93V341.208C699.218 340.835 699.586 340.541 700.034 340.328C700.493 340.115 700.994 340.008 701.538 340.008C702.231 340.008 702.85 340.157 703.394 340.456C703.938 340.744 704.359 341.16 704.658 341.704C704.946 341.192 705.362 340.781 705.906 340.472C706.461 340.163 707.058 340.008 707.698 340.008ZM724.464 340.008C725.552 340.008 726.426 340.344 727.088 341.016C727.76 341.677 728.096 342.605 728.096 343.8V349H725.856V344.104C725.856 343.411 725.68 342.883 725.328 342.52C724.976 342.147 724.496 341.96 723.888 341.96C723.28 341.96 722.794 342.147 722.432 342.52C722.08 342.883 721.904 343.411 721.904 344.104V349H719.664V344.104C719.664 343.411 719.488 342.883 719.136 342.52C718.784 342.147 718.304 341.96 717.696 341.96C717.077 341.96 716.586 342.147 716.224 342.52C715.872 342.883 715.696 343.411 715.696 344.104V349H713.456V340.136H715.696V341.208C715.984 340.835 716.352 340.541 716.8 340.328C717.258 340.115 717.76 340.008 718.304 340.008C718.997 340.008 719.616 340.157 720.16 340.456C720.704 340.744 721.125 341.16 721.424 341.704C721.712 341.192 722.128 340.781 722.672 340.472C723.226 340.163 723.824 340.008 724.464 340.008ZM729.645 344.536C729.645 343.64 729.821 342.845 730.173 342.152C730.536 341.459 731.021 340.925 731.629 340.552C732.248 340.179 732.936 339.992 733.693 339.992C734.355 339.992 734.931 340.125 735.421 340.392C735.923 340.659 736.323 340.995 736.621 341.4V340.136H738.877V349H736.621V347.704C736.333 348.12 735.933 348.467 735.421 348.744C734.92 349.011 734.339 349.144 733.677 349.144C732.931 349.144 732.248 348.952 731.629 348.568C731.021 348.184 730.536 347.645 730.173 346.952C729.821 346.248 729.645 345.443 729.645 344.536ZM736.621 344.568C736.621 344.024 736.515 343.56 736.301 343.176C736.088 342.781 735.8 342.483 735.437 342.28C735.075 342.067 734.685 341.96 734.269 341.96C733.853 341.96 733.469 342.061 733.117 342.264C732.765 342.467 732.477 342.765 732.253 343.16C732.04 343.544 731.933 344.003 731.933 344.536C731.933 345.069 732.04 345.539 732.253 345.944C732.477 346.339 732.765 346.643 733.117 346.856C733.48 347.069 733.864 347.176 734.269 347.176C734.685 347.176 735.075 347.075 735.437 346.872C735.8 346.659 736.088 346.36 736.301 345.976C736.515 345.581 736.621 345.112 736.621 344.568ZM752.073 340.008C753.161 340.008 754.036 340.344 754.697 341.016C755.369 341.677 755.705 342.605 755.705 343.8V349H753.465V344.104C753.465 343.411 753.289 342.883 752.937 342.52C752.585 342.147 752.105 341.96 751.497 341.96C750.889 341.96 750.404 342.147 750.041 342.52C749.689 342.883 749.513 343.411 749.513 344.104V349H747.273V344.104C747.273 343.411 747.097 342.883 746.745 342.52C746.393 342.147 745.913 341.96 745.305 341.96C744.686 341.96 744.196 342.147 743.833 342.52C743.481 342.883 743.305 343.411 743.305 344.104V349H741.065V340.136H743.305V341.208C743.593 340.835 743.961 340.541 744.409 340.328C744.868 340.115 745.369 340.008 745.913 340.008C746.606 340.008 747.225 340.157 747.769 340.456C748.313 340.744 748.734 341.16 749.033 341.704C749.321 341.192 749.737 340.781 750.281 340.472C750.836 340.163 751.433 340.008 752.073 340.008Z" fill="#001424"/>
<path d="M444.036 460L441.572 455.648H440.516V460H438.276V448.832H442.468C443.332 448.832 444.068 448.987 444.676 449.296C445.284 449.595 445.737 450.005 446.036 450.528C446.345 451.04 446.5 451.616 446.5 452.256C446.5 452.992 446.287 453.659 445.86 454.256C445.433 454.843 444.799 455.248 443.956 455.472L446.628 460H444.036ZM440.516 453.968H442.388C442.996 453.968 443.449 453.824 443.748 453.536C444.047 453.237 444.196 452.827 444.196 452.304C444.196 451.792 444.047 451.397 443.748 451.12C443.449 450.832 442.996 450.688 442.388 450.688H440.516V453.968ZM449.662 450.08C449.267 450.08 448.937 449.957 448.67 449.712C448.414 449.456 448.286 449.141 448.286 448.768C448.286 448.395 448.414 448.085 448.67 447.84C448.937 447.584 449.267 447.456 449.662 447.456C450.057 447.456 450.382 447.584 450.638 447.84C450.905 448.085 451.038 448.395 451.038 448.768C451.038 449.141 450.905 449.456 450.638 449.712C450.382 449.957 450.057 450.08 449.662 450.08ZM450.766 451.136V460H448.526V451.136H450.766ZM461.459 451.136L455.971 464.192H453.587L455.507 459.776L451.955 451.136H454.467L456.755 457.328L459.075 451.136H461.459ZM462.09 455.536C462.09 454.64 462.266 453.845 462.618 453.152C462.981 452.459 463.467 451.925 464.075 451.552C464.693 451.179 465.381 450.992 466.139 450.992C466.8 450.992 467.376 451.125 467.867 451.392C468.368 451.659 468.768 451.995 469.067 452.4V451.136H471.323V460H469.067V458.704C468.779 459.12 468.379 459.467 467.867 459.744C467.365 460.011 466.784 460.144 466.123 460.144C465.376 460.144 464.693 459.952 464.075 459.568C463.467 459.184 462.981 458.645 462.618 457.952C462.266 457.248 462.09 456.443 462.09 455.536ZM469.067 455.568C469.067 455.024 468.96 454.56 468.747 454.176C468.533 453.781 468.245 453.483 467.883 453.28C467.52 453.067 467.131 452.96 466.715 452.96C466.299 452.96 465.915 453.061 465.562 453.264C465.211 453.467 464.923 453.765 464.699 454.16C464.485 454.544 464.379 455.003 464.379 455.536C464.379 456.069 464.485 456.539 464.699 456.944C464.923 457.339 465.211 457.643 465.562 457.856C465.925 458.069 466.309 458.176 466.715 458.176C467.131 458.176 467.52 458.075 467.883 457.872C468.245 457.659 468.533 457.36 468.747 456.976C468.96 456.581 469.067 456.112 469.067 455.568ZM472.934 455.536C472.934 454.64 473.11 453.845 473.462 453.152C473.825 452.459 474.316 451.925 474.934 451.552C475.553 451.179 476.241 450.992 476.998 450.992C477.574 450.992 478.124 451.12 478.646 451.376C479.169 451.621 479.585 451.952 479.894 452.368V448.16H482.166V460H479.894V458.688C479.617 459.125 479.228 459.477 478.726 459.744C478.225 460.011 477.644 460.144 476.982 460.144C476.236 460.144 475.553 459.952 474.934 459.568C474.316 459.184 473.825 458.645 473.462 457.952C473.11 457.248 472.934 456.443 472.934 455.536ZM479.91 455.568C479.91 455.024 479.804 454.56 479.59 454.176C479.377 453.781 479.089 453.483 478.726 453.28C478.364 453.067 477.974 452.96 477.558 452.96C477.142 452.96 476.758 453.061 476.406 453.264C476.054 453.467 475.766 453.765 475.542 454.16C475.329 454.544 475.222 455.003 475.222 455.536C475.222 456.069 475.329 456.539 475.542 456.944C475.766 457.339 476.054 457.643 476.406 457.856C476.769 458.069 477.153 458.176 477.558 458.176C477.974 458.176 478.364 458.075 478.726 457.872C479.089 457.659 479.377 457.36 479.59 456.976C479.804 456.581 479.91 456.112 479.91 455.568ZM489.346 451.008C490.018 451.008 490.615 451.157 491.138 451.456C491.661 451.744 492.066 452.176 492.354 452.752C492.653 453.317 492.802 454 492.802 454.8V460H490.562V455.104C490.562 454.4 490.386 453.861 490.034 453.488C489.682 453.104 489.202 452.912 488.594 452.912C487.975 452.912 487.485 453.104 487.122 453.488C486.77 453.861 486.594 454.4 486.594 455.104V460H484.354V448.16H486.594V452.24C486.882 451.856 487.266 451.557 487.746 451.344C488.226 451.12 488.759 451.008 489.346 451.008Z" fill="#001424"/>
<path d="M195.061 560.832V568.672C195.061 569.76 194.747 570.608 194.117 571.216C193.488 571.813 192.645 572.112 191.589 572.112C190.523 572.112 189.659 571.803 188.997 571.184C188.347 570.565 188.021 569.701 188.021 568.592H190.261C190.272 569.072 190.384 569.445 190.597 569.712C190.821 569.979 191.141 570.112 191.557 570.112C191.963 570.112 192.272 569.984 192.485 569.728C192.699 569.472 192.805 569.12 192.805 568.672V560.832H195.061ZM205.914 567.376C205.914 567.696 205.893 567.984 205.85 568.24H199.37C199.424 568.88 199.648 569.381 200.042 569.744C200.437 570.107 200.922 570.288 201.498 570.288C202.33 570.288 202.922 569.931 203.274 569.216H205.69C205.434 570.069 204.944 570.773 204.218 571.328C203.493 571.872 202.602 572.144 201.546 572.144C200.693 572.144 199.925 571.957 199.242 571.584C198.57 571.2 198.042 570.661 197.658 569.968C197.285 569.275 197.098 568.475 197.098 567.568C197.098 566.651 197.285 565.845 197.658 565.152C198.032 564.459 198.554 563.925 199.226 563.552C199.898 563.179 200.672 562.992 201.546 562.992C202.389 562.992 203.141 563.173 203.802 563.536C204.474 563.899 204.992 564.416 205.354 565.088C205.728 565.749 205.914 566.512 205.914 567.376ZM203.594 566.736C203.584 566.16 203.376 565.701 202.97 565.36C202.565 565.008 202.069 564.832 201.482 564.832C200.928 564.832 200.458 565.003 200.074 565.344C199.701 565.675 199.472 566.139 199.386 566.736H203.594ZM206.973 567.536C206.973 566.64 207.149 565.845 207.501 565.152C207.864 564.459 208.355 563.925 208.973 563.552C209.592 563.179 210.28 562.992 211.037 562.992C211.613 562.992 212.163 563.12 212.685 563.376C213.208 563.621 213.624 563.952 213.933 564.368V560.16H216.205V572H213.933V570.688C213.656 571.125 213.267 571.477 212.765 571.744C212.264 572.011 211.683 572.144 211.021 572.144C210.275 572.144 209.592 571.952 208.973 571.568C208.355 571.184 207.864 570.645 207.501 569.952C207.149 569.248 206.973 568.443 206.973 567.536ZM213.949 567.568C213.949 567.024 213.843 566.56 213.629 566.176C213.416 565.781 213.128 565.483 212.765 565.28C212.403 565.067 212.013 564.96 211.597 564.96C211.181 564.96 210.797 565.061 210.445 565.264C210.093 565.467 209.805 565.765 209.581 566.16C209.368 566.544 209.261 567.003 209.261 567.536C209.261 568.069 209.368 568.539 209.581 568.944C209.805 569.339 210.093 569.643 210.445 569.856C210.808 570.069 211.192 570.176 211.597 570.176C212.013 570.176 212.403 570.075 212.765 569.872C213.128 569.659 213.416 569.36 213.629 568.976C213.843 568.581 213.949 568.112 213.949 567.568ZM217.817 567.536C217.817 566.64 217.993 565.845 218.345 565.152C218.708 564.459 219.198 563.925 219.817 563.552C220.436 563.179 221.124 562.992 221.881 562.992C222.457 562.992 223.006 563.12 223.529 563.376C224.052 563.621 224.468 563.952 224.777 564.368V560.16H227.049V572H224.777V570.688C224.5 571.125 224.11 571.477 223.609 571.744C223.108 572.011 222.526 572.144 221.865 572.144C221.118 572.144 220.436 571.952 219.817 571.568C219.198 571.184 218.708 570.645 218.345 569.952C217.993 569.248 217.817 568.443 217.817 567.536ZM224.793 567.568C224.793 567.024 224.686 566.56 224.473 566.176C224.26 565.781 223.972 565.483 223.609 565.28C223.246 565.067 222.857 564.96 222.441 564.96C222.025 564.96 221.641 565.061 221.289 565.264C220.937 565.467 220.649 565.765 220.425 566.16C220.212 566.544 220.105 567.003 220.105 567.536C220.105 568.069 220.212 568.539 220.425 568.944C220.649 569.339 220.937 569.643 221.289 569.856C221.652 570.069 222.036 570.176 222.441 570.176C222.857 570.176 223.246 570.075 223.609 569.872C223.972 569.659 224.26 569.36 224.473 568.976C224.686 568.581 224.793 568.112 224.793 567.568ZM228.661 567.536C228.661 566.64 228.837 565.845 229.189 565.152C229.551 564.459 230.037 563.925 230.645 563.552C231.263 563.179 231.951 562.992 232.709 562.992C233.37 562.992 233.946 563.125 234.437 563.392C234.938 563.659 235.338 563.995 235.637 564.4V563.136H237.893V572H235.637V570.704C235.349 571.12 234.949 571.467 234.437 571.744C233.935 572.011 233.354 572.144 232.693 572.144C231.946 572.144 231.263 571.952 230.645 571.568C230.037 571.184 229.551 570.645 229.189 569.952C228.837 569.248 228.661 568.443 228.661 567.536ZM235.637 567.568C235.637 567.024 235.53 566.56 235.317 566.176C235.103 565.781 234.815 565.483 234.453 565.28C234.09 565.067 233.701 564.96 233.285 564.96C232.869 564.96 232.485 565.061 232.133 565.264C231.781 565.467 231.493 565.765 231.269 566.16C231.055 566.544 230.949 567.003 230.949 567.536C230.949 568.069 231.055 568.539 231.269 568.944C231.493 569.339 231.781 569.643 232.133 569.856C232.495 570.069 232.879 570.176 233.285 570.176C233.701 570.176 234.09 570.075 234.453 569.872C234.815 569.659 235.103 569.36 235.317 568.976C235.53 568.581 235.637 568.112 235.637 567.568ZM245.073 563.008C245.745 563.008 246.342 563.157 246.865 563.456C247.387 563.744 247.793 564.176 248.081 564.752C248.379 565.317 248.529 566 248.529 566.8V572H246.289V567.104C246.289 566.4 246.113 565.861 245.761 565.488C245.409 565.104 244.929 564.912 244.321 564.912C243.702 564.912 243.211 565.104 242.849 565.488C242.497 565.861 242.321 566.4 242.321 567.104V572H240.081V560.16H242.321V564.24C242.609 563.856 242.993 563.557 243.473 563.344C243.953 563.12 244.486 563.008 245.073 563.008Z" fill="#001424"/>
<path d="M727.5 259C727.5 250.729 720.771 244 712.5 244C704.229 244 697.5 250.729 697.5 259C697.5 266.934 703.695 273.431 711.5 273.949V315C711.5 315.553 711.948 316 712.5 316C713.052 316 713.5 315.553 713.5 315V273.949C721.305 273.431 727.5 266.934 727.5 259ZM707.5 259C705.294 259 703.5 257.206 703.5 255C703.5 252.794 705.294 251 707.5 251C709.706 251 711.5 252.794 711.5 255C711.5 257.206 709.706 259 707.5 259Z" fill="#ED7E0B"/>
<path d="M479.5 369C479.5 360.729 472.771 354 464.5 354C456.229 354 449.5 360.729 449.5 369C449.5 376.934 455.695 383.431 463.5 383.949V425C463.5 425.553 463.948 426 464.5 426C465.052 426 465.5 425.553 465.5 425V383.949C473.305 383.431 479.5 376.934 479.5 369ZM459.5 369C457.294 369 455.5 367.206 455.5 365C455.5 362.794 457.294 361 459.5 361C461.706 361 463.5 362.794 463.5 365C463.5 367.206 461.706 369 459.5 369Z" fill="#ED7E0B"/>
<path d="M233.5 479C233.5 470.729 226.771 464 218.5 464C210.229 464 203.5 470.729 203.5 479C203.5 486.934 209.695 493.431 217.5 493.949V535C217.5 535.553 217.948 536 218.5 536C219.052 536 219.5 535.553 219.5 535V493.949C227.305 493.431 233.5 486.934 233.5 479ZM213.5 479C211.294 479 209.5 477.206 209.5 475C209.5 472.794 211.294 471 213.5 471C215.706 471 217.5 472.794 217.5 475C217.5 477.206 215.706 479 213.5 479Z" fill="#ED7E0B"/>
</svg>
