<svg width="597" height="226" viewBox="0 0 597 226" fill="none" xmlns="http://www.w3.org/2000/svg">
<mask id="path-1-inside-1_3087_7515" fill="white">
<path d="M0 26C0 20.4772 4.47715 16 10 16H587C592.523 16 597 20.4772 597 26V204C597 209.523 592.523 214 587 214H9.99999C4.47714 214 0 209.523 0 204V26Z"/>
</mask>
<path d="M0 26C0 20.4772 4.47715 16 10 16H587C592.523 16 597 20.4772 597 26V204C597 209.523 592.523 214 587 214H9.99999C4.47714 214 0 209.523 0 204V26Z" fill="#DBF0FF"/>
<path d="M0 16H597H0ZM597 204C597 212.837 589.837 220 581 220H16C7.16344 220 0 212.837 0 204C0 206.209 4.47715 208 10 208H587C592.523 208 597 206.209 597 204ZM0 214V16V214ZM597 16V214V16Z" fill="#005FA6" mask="url(#path-1-inside-1_3087_7515)"/>
<path d="M169.385 71.65C168.845 70.61 168.095 69.83 167.135 69.31C166.175 68.77 165.065 68.5 163.805 68.5C162.425 68.5 161.195 68.81 160.115 69.43C159.035 70.05 158.185 70.93 157.565 72.07C156.965 73.21 156.665 74.53 156.665 76.03C156.665 77.53 156.965 78.86 157.565 80.02C158.185 81.16 159.035 82.04 160.115 82.66C161.195 83.28 162.425 83.59 163.805 83.59C165.665 83.59 167.175 83.07 168.335 82.03C169.495 80.99 170.205 79.58 170.465 77.8H162.635V75.07H174.125V77.74C173.905 79.36 173.325 80.85 172.385 82.21C171.465 83.57 170.255 84.66 168.755 85.48C167.275 86.28 165.625 86.68 163.805 86.68C161.845 86.68 160.055 86.23 158.435 85.33C156.815 84.41 155.525 83.14 154.565 81.52C153.625 79.9 153.155 78.07 153.155 76.03C153.155 73.99 153.625 72.16 154.565 70.54C155.525 68.92 156.815 67.66 158.435 66.76C160.075 65.84 161.865 65.38 163.805 65.38C166.025 65.38 167.995 65.93 169.715 67.03C171.455 68.11 172.715 69.65 173.495 71.65H169.385ZM180.918 64.3V86.5H177.498V64.3H180.918ZM192.578 86.77C191.018 86.77 189.608 86.42 188.348 85.72C187.088 85 186.098 84 185.378 82.72C184.658 81.42 184.298 79.92 184.298 78.22C184.298 76.54 184.668 75.05 185.408 73.75C186.148 72.45 187.158 71.45 188.438 70.75C189.718 70.05 191.148 69.7 192.728 69.7C194.308 69.7 195.738 70.05 197.018 70.75C198.298 71.45 199.308 72.45 200.048 73.75C200.788 75.05 201.158 76.54 201.158 78.22C201.158 79.9 200.778 81.39 200.018 82.69C199.258 83.99 198.218 85 196.898 85.72C195.598 86.42 194.158 86.77 192.578 86.77ZM192.578 83.8C193.458 83.8 194.278 83.59 195.038 83.17C195.818 82.75 196.448 82.12 196.928 81.28C197.408 80.44 197.648 79.42 197.648 78.22C197.648 77.02 197.418 76.01 196.958 75.19C196.498 74.35 195.888 73.72 195.128 73.3C194.368 72.88 193.548 72.67 192.668 72.67C191.788 72.67 190.968 72.88 190.208 73.3C189.468 73.72 188.878 74.35 188.438 75.19C187.998 76.01 187.778 77.02 187.778 78.22C187.778 80 188.228 81.38 189.128 82.36C190.048 83.32 191.198 83.8 192.578 83.8ZM207.959 72.43C208.539 71.63 209.329 70.98 210.329 70.48C211.349 69.96 212.479 69.7 213.719 69.7C215.179 69.7 216.499 70.05 217.679 70.75C218.859 71.45 219.789 72.45 220.469 73.75C221.149 75.03 221.489 76.5 221.489 78.16C221.489 79.82 221.149 81.31 220.469 82.63C219.789 83.93 218.849 84.95 217.649 85.69C216.469 86.41 215.159 86.77 213.719 86.77C212.439 86.77 211.299 86.52 210.299 86.02C209.319 85.52 208.539 84.88 207.959 84.1V86.5H204.539V64.3H207.959V72.43ZM218.009 78.16C218.009 77.02 217.769 76.04 217.289 75.22C216.829 74.38 216.209 73.75 215.429 73.33C214.669 72.89 213.849 72.67 212.969 72.67C212.109 72.67 211.289 72.89 210.509 73.33C209.749 73.77 209.129 74.41 208.649 75.25C208.189 76.09 207.959 77.08 207.959 78.22C207.959 79.36 208.189 80.36 208.649 81.22C209.129 82.06 209.749 82.7 210.509 83.14C211.289 83.58 212.109 83.8 212.969 83.8C213.849 83.8 214.669 83.58 215.429 83.14C216.209 82.68 216.829 82.02 217.289 81.16C217.769 80.3 218.009 79.3 218.009 78.16ZM223.731 78.16C223.731 76.5 224.071 75.03 224.751 73.75C225.451 72.47 226.391 71.48 227.571 70.78C228.771 70.06 230.091 69.7 231.531 69.7C232.831 69.7 233.961 69.96 234.921 70.48C235.901 70.98 236.681 71.61 237.261 72.37V69.97H240.711V86.5H237.261V84.04C236.681 84.82 235.891 85.47 234.891 85.99C233.891 86.51 232.751 86.77 231.471 86.77C230.051 86.77 228.751 86.41 227.571 85.69C226.391 84.95 225.451 83.93 224.751 82.63C224.071 81.31 223.731 79.82 223.731 78.16ZM237.261 78.22C237.261 77.08 237.021 76.09 236.541 75.25C236.081 74.41 235.471 73.77 234.711 73.33C233.951 72.89 233.131 72.67 232.251 72.67C231.371 72.67 230.551 72.89 229.791 73.33C229.031 73.75 228.411 74.38 227.931 75.22C227.471 76.04 227.241 77.02 227.241 78.16C227.241 79.3 227.471 80.3 227.931 81.16C228.411 82.02 229.031 82.68 229.791 83.14C230.571 83.58 231.391 83.8 232.251 83.8C233.131 83.8 233.951 83.58 234.711 83.14C235.471 82.7 236.081 82.06 236.541 81.22C237.021 80.36 237.261 79.36 237.261 78.22ZM248.623 64.3V86.5H245.203V64.3H248.623ZM264.326 72.37C264.826 71.53 265.486 70.88 266.306 70.42C267.146 69.94 268.136 69.7 269.276 69.7V73.24H268.406C267.066 73.24 266.046 73.58 265.346 74.26C264.666 74.94 264.326 76.12 264.326 77.8V86.5H260.906V69.97H264.326V72.37ZM287.57 77.83C287.57 78.45 287.53 79.01 287.45 79.51H274.82C274.92 80.83 275.41 81.89 276.29 82.69C277.17 83.49 278.25 83.89 279.53 83.89C281.37 83.89 282.67 83.12 283.43 81.58H287.12C286.62 83.1 285.71 84.35 284.39 85.33C283.09 86.29 281.47 86.77 279.53 86.77C277.95 86.77 276.53 86.42 275.27 85.72C274.03 85 273.05 84 272.33 82.72C271.63 81.42 271.28 79.92 271.28 78.22C271.28 76.52 271.62 75.03 272.3 73.75C273 72.45 273.97 71.45 275.21 70.75C276.47 70.05 277.91 69.7 279.53 69.7C281.09 69.7 282.48 70.04 283.7 70.72C284.92 71.4 285.87 72.36 286.55 73.6C287.23 74.82 287.57 76.23 287.57 77.83ZM284 76.75C283.98 75.49 283.53 74.48 282.65 73.72C281.77 72.96 280.68 72.58 279.38 72.58C278.2 72.58 277.19 72.96 276.35 73.72C275.51 74.46 275.01 75.47 274.85 76.75H284ZM289.796 78.16C289.796 76.5 290.136 75.03 290.816 73.75C291.516 72.47 292.456 71.48 293.636 70.78C294.836 70.06 296.156 69.7 297.596 69.7C298.896 69.7 300.026 69.96 300.986 70.48C301.966 70.98 302.746 71.61 303.326 72.37V69.97H306.776V86.5H303.326V84.04C302.746 84.82 301.956 85.47 300.956 85.99C299.956 86.51 298.816 86.77 297.536 86.77C296.116 86.77 294.816 86.41 293.636 85.69C292.456 84.95 291.516 83.93 290.816 82.63C290.136 81.31 289.796 79.82 289.796 78.16ZM303.326 78.22C303.326 77.08 303.086 76.09 302.606 75.25C302.146 74.41 301.536 73.77 300.776 73.33C300.016 72.89 299.196 72.67 298.316 72.67C297.436 72.67 296.616 72.89 295.856 73.33C295.096 73.75 294.476 74.38 293.996 75.22C293.536 76.04 293.306 77.02 293.306 78.16C293.306 79.3 293.536 80.3 293.996 81.16C294.476 82.02 295.096 82.68 295.856 83.14C296.636 83.58 297.456 83.8 298.316 83.8C299.196 83.8 300.016 83.58 300.776 83.14C301.536 82.7 302.146 82.06 302.606 81.22C303.086 80.36 303.326 79.36 303.326 78.22ZM310.128 78.22C310.128 76.52 310.468 75.03 311.148 73.75C311.848 72.45 312.808 71.45 314.028 70.75C315.248 70.05 316.648 69.7 318.228 69.7C320.228 69.7 321.878 70.18 323.178 71.14C324.498 72.08 325.388 73.43 325.848 75.19H322.158C321.858 74.37 321.378 73.73 320.718 73.27C320.058 72.81 319.228 72.58 318.228 72.58C316.828 72.58 315.708 73.08 314.868 74.08C314.048 75.06 313.638 76.44 313.638 78.22C313.638 80 314.048 81.39 314.868 82.39C315.708 83.39 316.828 83.89 318.228 83.89C320.208 83.89 321.518 83.02 322.158 81.28H325.848C325.368 82.96 324.468 84.3 323.148 85.3C321.828 86.28 320.188 86.77 318.228 86.77C316.648 86.77 315.248 86.42 314.028 85.72C312.808 85 311.848 84 311.148 82.72C310.468 81.42 310.128 79.92 310.128 78.22ZM337.806 69.7C339.066 69.7 340.186 69.97 341.166 70.51C342.166 71.05 342.946 71.85 343.506 72.91C344.086 73.97 344.376 75.25 344.376 76.75V86.5H340.986V77.26C340.986 75.78 340.616 74.65 339.876 73.87C339.136 73.07 338.126 72.67 336.846 72.67C335.566 72.67 334.546 73.07 333.786 73.87C333.046 74.65 332.676 75.78 332.676 77.26V86.5H329.256V64.3H332.676V71.89C333.256 71.19 333.986 70.65 334.866 70.27C335.766 69.89 336.746 69.7 337.806 69.7ZM360.521 72.76V81.91C360.521 82.53 360.661 82.98 360.941 83.26C361.241 83.52 361.741 83.65 362.441 83.65H364.541V86.5H361.841C360.301 86.5 359.121 86.14 358.301 85.42C357.481 84.7 357.071 83.53 357.071 81.91V72.76H355.121V69.97H357.071V65.86H360.521V69.97H364.541V72.76H360.521ZM374.863 86.77C373.303 86.77 371.893 86.42 370.633 85.72C369.373 85 368.383 84 367.663 82.72C366.943 81.42 366.583 79.92 366.583 78.22C366.583 76.54 366.953 75.05 367.693 73.75C368.433 72.45 369.443 71.45 370.723 70.75C372.003 70.05 373.433 69.7 375.013 69.7C376.593 69.7 378.023 70.05 379.303 70.75C380.583 71.45 381.593 72.45 382.333 73.75C383.073 75.05 383.443 76.54 383.443 78.22C383.443 79.9 383.063 81.39 382.303 82.69C381.543 83.99 380.503 85 379.183 85.72C377.883 86.42 376.443 86.77 374.863 86.77ZM374.863 83.8C375.743 83.8 376.563 83.59 377.323 83.17C378.103 82.75 378.733 82.12 379.213 81.28C379.693 80.44 379.933 79.42 379.933 78.22C379.933 77.02 379.703 76.01 379.243 75.19C378.783 74.35 378.173 73.72 377.413 73.3C376.653 72.88 375.833 72.67 374.953 72.67C374.073 72.67 373.253 72.88 372.493 73.3C371.753 73.72 371.163 74.35 370.723 75.19C370.283 76.01 370.063 77.02 370.063 78.22C370.063 80 370.513 81.38 371.413 82.36C372.333 83.32 373.483 83.8 374.863 83.8ZM401.157 78.25L408.777 86.5H404.157L398.037 79.39V86.5H394.617V64.3H398.037V77.2L404.037 69.97H408.777L401.157 78.25ZM426.379 77.83C426.379 78.45 426.339 79.01 426.259 79.51H413.629C413.729 80.83 414.219 81.89 415.099 82.69C415.979 83.49 417.059 83.89 418.339 83.89C420.179 83.89 421.479 83.12 422.239 81.58H425.929C425.429 83.1 424.519 84.35 423.199 85.33C421.899 86.29 420.279 86.77 418.339 86.77C416.759 86.77 415.339 86.42 414.079 85.72C412.839 85 411.859 84 411.139 82.72C410.439 81.42 410.089 79.92 410.089 78.22C410.089 76.52 410.429 75.03 411.109 73.75C411.809 72.45 412.779 71.45 414.019 70.75C415.279 70.05 416.719 69.7 418.339 69.7C419.899 69.7 421.289 70.04 422.509 70.72C423.729 71.4 424.679 72.36 425.359 73.6C426.039 74.82 426.379 76.23 426.379 77.83ZM422.809 76.75C422.789 75.49 422.339 74.48 421.459 73.72C420.579 72.96 419.489 72.58 418.189 72.58C417.009 72.58 415.999 72.96 415.159 73.72C414.319 74.46 413.819 75.47 413.659 76.75H422.809ZM444.624 69.97L434.484 94.27H430.944L434.304 86.23L427.794 69.97H431.604L436.254 82.57L441.084 69.97H444.624ZM111.934 117.22C111.934 115.52 112.274 114.03 112.954 112.75C113.654 111.45 114.614 110.45 115.834 109.75C117.054 109.05 118.454 108.7 120.034 108.7C122.034 108.7 123.684 109.18 124.984 110.14C126.304 111.08 127.194 112.43 127.654 114.19H123.964C123.664 113.37 123.184 112.73 122.524 112.27C121.864 111.81 121.034 111.58 120.034 111.58C118.634 111.58 117.514 112.08 116.674 113.08C115.854 114.06 115.444 115.44 115.444 117.22C115.444 119 115.854 120.39 116.674 121.39C117.514 122.39 118.634 122.89 120.034 122.89C122.014 122.89 123.324 122.02 123.964 120.28H127.654C127.174 121.96 126.274 123.3 124.954 124.3C123.634 125.28 121.994 125.77 120.034 125.77C118.454 125.77 117.054 125.42 115.834 124.72C114.614 124 113.654 123 112.954 121.72C112.274 120.42 111.934 118.92 111.934 117.22ZM138.233 125.77C136.673 125.77 135.263 125.42 134.003 124.72C132.743 124 131.753 123 131.033 121.72C130.313 120.42 129.953 118.92 129.953 117.22C129.953 115.54 130.323 114.05 131.063 112.75C131.803 111.45 132.813 110.45 134.093 109.75C135.373 109.05 136.803 108.7 138.383 108.7C139.963 108.7 141.393 109.05 142.673 109.75C143.953 110.45 144.963 111.45 145.703 112.75C146.443 114.05 146.813 115.54 146.813 117.22C146.813 118.9 146.433 120.39 145.673 121.69C144.913 122.99 143.873 124 142.553 124.72C141.253 125.42 139.813 125.77 138.233 125.77ZM138.233 122.8C139.113 122.8 139.933 122.59 140.693 122.17C141.473 121.75 142.103 121.12 142.583 120.28C143.063 119.44 143.303 118.42 143.303 117.22C143.303 116.02 143.073 115.01 142.613 114.19C142.153 113.35 141.543 112.72 140.783 112.3C140.023 111.88 139.203 111.67 138.323 111.67C137.443 111.67 136.623 111.88 135.863 112.3C135.123 112.72 134.533 113.35 134.093 114.19C133.653 115.01 133.433 116.02 133.433 117.22C133.433 119 133.883 120.38 134.783 121.36C135.703 122.32 136.853 122.8 138.233 122.8ZM165.163 108.97V125.5H161.743V123.55C161.203 124.23 160.493 124.77 159.613 125.17C158.753 125.55 157.833 125.74 156.853 125.74C155.553 125.74 154.383 125.47 153.343 124.93C152.323 124.39 151.513 123.59 150.913 122.53C150.333 121.47 150.043 120.19 150.043 118.69V108.97H153.433V118.18C153.433 119.66 153.803 120.8 154.543 121.6C155.283 122.38 156.293 122.77 157.573 122.77C158.853 122.77 159.863 122.38 160.603 121.6C161.363 120.8 161.743 119.66 161.743 118.18V108.97H165.163ZM178.016 108.7C179.316 108.7 180.476 108.97 181.496 109.51C182.536 110.05 183.346 110.85 183.926 111.91C184.506 112.97 184.796 114.25 184.796 115.75V125.5H181.406V116.26C181.406 114.78 181.036 113.65 180.296 112.87C179.556 112.07 178.546 111.67 177.266 111.67C175.986 111.67 174.966 112.07 174.206 112.87C173.466 113.65 173.096 114.78 173.096 116.26V125.5H169.676V108.97H173.096V110.86C173.656 110.18 174.366 109.65 175.226 109.27C176.106 108.89 177.036 108.7 178.016 108.7ZM193.148 111.76V120.91C193.148 121.53 193.288 121.98 193.568 122.26C193.868 122.52 194.368 122.65 195.068 122.65H197.168V125.5H194.468C192.928 125.5 191.748 125.14 190.928 124.42C190.108 123.7 189.698 122.53 189.698 120.91V111.76H187.748V108.97H189.698V104.86H193.148V108.97H197.168V111.76H193.148ZM203.74 111.37C204.24 110.53 204.9 109.88 205.72 109.42C206.56 108.94 207.55 108.7 208.69 108.7V112.24H207.82C206.48 112.24 205.46 112.58 204.76 113.26C204.08 113.94 203.74 115.12 203.74 116.8V125.5H200.32V108.97H203.74V111.37ZM213.574 106.78C212.954 106.78 212.434 106.57 212.014 106.15C211.594 105.73 211.384 105.21 211.384 104.59C211.384 103.97 211.594 103.45 212.014 103.03C212.434 102.61 212.954 102.4 213.574 102.4C214.174 102.4 214.684 102.61 215.104 103.03C215.524 103.45 215.734 103.97 215.734 104.59C215.734 105.21 215.524 105.73 215.104 106.15C214.684 106.57 214.174 106.78 213.574 106.78ZM215.254 108.97V125.5H211.834V108.97H215.254ZM234.894 116.83C234.894 117.45 234.854 118.01 234.774 118.51H222.144C222.244 119.83 222.734 120.89 223.614 121.69C224.494 122.49 225.574 122.89 226.854 122.89C228.694 122.89 229.994 122.12 230.754 120.58H234.444C233.944 122.1 233.034 123.35 231.714 124.33C230.414 125.29 228.794 125.77 226.854 125.77C225.274 125.77 223.854 125.42 222.594 124.72C221.354 124 220.374 123 219.654 121.72C218.954 120.42 218.604 118.92 218.604 117.22C218.604 115.52 218.944 114.03 219.624 112.75C220.324 111.45 221.294 110.45 222.534 109.75C223.794 109.05 225.234 108.7 226.854 108.7C228.414 108.7 229.804 109.04 231.024 109.72C232.244 110.4 233.194 111.36 233.874 112.6C234.554 113.82 234.894 115.23 234.894 116.83ZM231.324 115.75C231.304 114.49 230.854 113.48 229.974 112.72C229.094 111.96 228.004 111.58 226.704 111.58C225.524 111.58 224.514 111.96 223.674 112.72C222.834 113.46 222.334 114.47 222.174 115.75H231.324ZM244.26 125.77C242.96 125.77 241.79 125.54 240.75 125.08C239.73 124.6 238.92 123.96 238.32 123.16C237.72 122.34 237.4 121.43 237.36 120.43H240.9C240.96 121.13 241.29 121.72 241.89 122.2C242.51 122.66 243.28 122.89 244.2 122.89C245.16 122.89 245.9 122.71 246.42 122.35C246.96 121.97 247.23 121.49 247.23 120.91C247.23 120.29 246.93 119.83 246.33 119.53C245.75 119.23 244.82 118.9 243.54 118.54C242.3 118.2 241.29 117.87 240.51 117.55C239.73 117.23 239.05 116.74 238.47 116.08C237.91 115.42 237.63 114.55 237.63 113.47C237.63 112.59 237.89 111.79 238.41 111.07C238.93 110.33 239.67 109.75 240.63 109.33C241.61 108.91 242.73 108.7 243.99 108.7C245.87 108.7 247.38 109.18 248.52 110.14C249.68 111.08 250.3 112.37 250.38 114.01H246.96C246.9 113.27 246.6 112.68 246.06 112.24C245.52 111.8 244.79 111.58 243.87 111.58C242.97 111.58 242.28 111.75 241.8 112.09C241.32 112.43 241.08 112.88 241.08 113.44C241.08 113.88 241.24 114.25 241.56 114.55C241.88 114.85 242.27 115.09 242.73 115.27C243.19 115.43 243.87 115.64 244.77 115.9C245.97 116.22 246.95 116.55 247.71 116.89C248.49 117.21 249.16 117.69 249.72 118.33C250.28 118.97 250.57 119.82 250.59 120.88C250.59 121.82 250.33 122.66 249.81 123.4C249.29 124.14 248.55 124.72 247.59 125.14C246.65 125.56 245.54 125.77 244.26 125.77ZM263.818 106.78C263.198 106.78 262.678 106.57 262.258 106.15C261.838 105.73 261.628 105.21 261.628 104.59C261.628 103.97 261.838 103.45 262.258 103.03C262.678 102.61 263.198 102.4 263.818 102.4C264.418 102.4 264.928 102.61 265.348 103.03C265.768 103.45 265.978 103.97 265.978 104.59C265.978 105.21 265.768 105.73 265.348 106.15C264.928 106.57 264.418 106.78 263.818 106.78ZM265.498 108.97V125.5H262.078V108.97H265.498ZM278.328 108.7C279.628 108.7 280.788 108.97 281.808 109.51C282.848 110.05 283.658 110.85 284.238 111.91C284.818 112.97 285.108 114.25 285.108 115.75V125.5H281.718V116.26C281.718 114.78 281.348 113.65 280.608 112.87C279.868 112.07 278.858 111.67 277.578 111.67C276.298 111.67 275.278 112.07 274.518 112.87C273.778 113.65 273.408 114.78 273.408 116.26V125.5H269.988V108.97H273.408V110.86C273.968 110.18 274.678 109.65 275.538 109.27C276.418 108.89 277.348 108.7 278.328 108.7ZM300.684 107.41V113.53H307.884V116.32H300.684V122.71H308.784V125.5H297.264V104.62H308.784V107.41H300.684ZM327.966 108.97V125.5H324.546V123.55C324.006 124.23 323.296 124.77 322.416 125.17C321.556 125.55 320.636 125.74 319.656 125.74C318.356 125.74 317.186 125.47 316.146 124.93C315.126 124.39 314.316 123.59 313.716 122.53C313.136 121.47 312.846 120.19 312.846 118.69V108.97H316.236V118.18C316.236 119.66 316.606 120.8 317.346 121.6C318.086 122.38 319.096 122.77 320.376 122.77C321.656 122.77 322.666 122.38 323.406 121.6C324.166 120.8 324.546 119.66 324.546 118.18V108.97H327.966ZM335.899 111.37C336.399 110.53 337.059 109.88 337.879 109.42C338.719 108.94 339.709 108.7 340.849 108.7V112.24H339.979C338.639 112.24 337.619 112.58 336.919 113.26C336.239 113.94 335.899 115.12 335.899 116.8V125.5H332.479V108.97H335.899V111.37ZM351.162 125.77C349.602 125.77 348.192 125.42 346.932 124.72C345.672 124 344.682 123 343.962 121.72C343.242 120.42 342.882 118.92 342.882 117.22C342.882 115.54 343.252 114.05 343.992 112.75C344.732 111.45 345.742 110.45 347.022 109.75C348.302 109.05 349.732 108.7 351.312 108.7C352.892 108.7 354.322 109.05 355.602 109.75C356.882 110.45 357.892 111.45 358.632 112.75C359.372 114.05 359.742 115.54 359.742 117.22C359.742 118.9 359.362 120.39 358.602 121.69C357.842 122.99 356.802 124 355.482 124.72C354.182 125.42 352.742 125.77 351.162 125.77ZM351.162 122.8C352.042 122.8 352.862 122.59 353.622 122.17C354.402 121.75 355.032 121.12 355.512 120.28C355.992 119.44 356.232 118.42 356.232 117.22C356.232 116.02 356.002 115.01 355.542 114.19C355.082 113.35 354.472 112.72 353.712 112.3C352.952 111.88 352.132 111.67 351.252 111.67C350.372 111.67 349.552 111.88 348.792 112.3C348.052 112.72 347.462 113.35 347.022 114.19C346.582 115.01 346.362 116.02 346.362 117.22C346.362 119 346.812 120.38 347.712 121.36C348.632 122.32 349.782 122.8 351.162 122.8ZM366.543 111.4C367.123 110.64 367.913 110 368.913 109.48C369.913 108.96 371.043 108.7 372.303 108.7C373.743 108.7 375.053 109.06 376.233 109.78C377.433 110.48 378.373 111.47 379.053 112.75C379.733 114.03 380.073 115.5 380.073 117.16C380.073 118.82 379.733 120.31 379.053 121.63C378.373 122.93 377.433 123.95 376.233 124.69C375.053 125.41 373.743 125.77 372.303 125.77C371.043 125.77 369.923 125.52 368.943 125.02C367.963 124.5 367.163 123.86 366.543 123.1V133.36H363.123V108.97H366.543V111.4ZM376.593 117.16C376.593 116.02 376.353 115.04 375.873 114.22C375.413 113.38 374.793 112.75 374.013 112.33C373.253 111.89 372.433 111.67 371.553 111.67C370.693 111.67 369.873 111.89 369.093 112.33C368.333 112.77 367.713 113.41 367.233 114.25C366.773 115.09 366.543 116.08 366.543 117.22C366.543 118.36 366.773 119.36 367.233 120.22C367.713 121.06 368.333 121.7 369.093 122.14C369.873 122.58 370.693 122.8 371.553 122.8C372.433 122.8 373.253 122.58 374.013 122.14C374.793 121.68 375.413 121.02 375.873 120.16C376.353 119.3 376.593 118.3 376.593 117.16ZM398.605 116.83C398.605 117.45 398.565 118.01 398.485 118.51H385.855C385.955 119.83 386.445 120.89 387.325 121.69C388.205 122.49 389.285 122.89 390.565 122.89C392.405 122.89 393.705 122.12 394.465 120.58H398.155C397.655 122.1 396.745 123.35 395.425 124.33C394.125 125.29 392.505 125.77 390.565 125.77C388.985 125.77 387.565 125.42 386.305 124.72C385.065 124 384.085 123 383.365 121.72C382.665 120.42 382.315 118.92 382.315 117.22C382.315 115.52 382.655 114.03 383.335 112.75C384.035 111.45 385.005 110.45 386.245 109.75C387.505 109.05 388.945 108.7 390.565 108.7C392.125 108.7 393.515 109.04 394.735 109.72C395.955 110.4 396.905 111.36 397.585 112.6C398.265 113.82 398.605 115.23 398.605 116.83ZM395.035 115.75C395.015 114.49 394.565 113.48 393.685 112.72C392.805 111.96 391.715 111.58 390.415 111.58C389.235 111.58 388.225 111.96 387.385 112.72C386.545 113.46 386.045 114.47 385.885 115.75H395.035ZM405.721 121.39L402.091 129.67H399.871L402.001 121.39H405.721ZM429.072 121.24H420.342L418.842 125.5H415.272L422.742 104.62H426.702L434.172 125.5H430.572L429.072 121.24ZM428.112 118.45L424.722 108.76L421.302 118.45H428.112ZM443.42 125.77C442.12 125.77 440.95 125.54 439.91 125.08C438.89 124.6 438.08 123.96 437.48 123.16C436.88 122.34 436.56 121.43 436.52 120.43H440.06C440.12 121.13 440.45 121.72 441.05 122.2C441.67 122.66 442.44 122.89 443.36 122.89C444.32 122.89 445.06 122.71 445.58 122.35C446.12 121.97 446.39 121.49 446.39 120.91C446.39 120.29 446.09 119.83 445.49 119.53C444.91 119.23 443.98 118.9 442.7 118.54C441.46 118.2 440.45 117.87 439.67 117.55C438.89 117.23 438.21 116.74 437.63 116.08C437.07 115.42 436.79 114.55 436.79 113.47C436.79 112.59 437.05 111.79 437.57 111.07C438.09 110.33 438.83 109.75 439.79 109.33C440.77 108.91 441.89 108.7 443.15 108.7C445.03 108.7 446.54 109.18 447.68 110.14C448.84 111.08 449.46 112.37 449.54 114.01H446.12C446.06 113.27 445.76 112.68 445.22 112.24C444.68 111.8 443.95 111.58 443.03 111.58C442.13 111.58 441.44 111.75 440.96 112.09C440.48 112.43 440.24 112.88 440.24 113.44C440.24 113.88 440.4 114.25 440.72 114.55C441.04 114.85 441.43 115.09 441.89 115.27C442.35 115.43 443.03 115.64 443.93 115.9C445.13 116.22 446.11 116.55 446.87 116.89C447.65 117.21 448.32 117.69 448.88 118.33C449.44 118.97 449.73 119.82 449.75 120.88C449.75 121.82 449.49 122.66 448.97 123.4C448.45 124.14 447.71 124.72 446.75 125.14C445.81 125.56 444.7 125.77 443.42 125.77ZM455.185 106.78C454.565 106.78 454.045 106.57 453.625 106.15C453.205 105.73 452.995 105.21 452.995 104.59C452.995 103.97 453.205 103.45 453.625 103.03C454.045 102.61 454.565 102.4 455.185 102.4C455.785 102.4 456.295 102.61 456.715 103.03C457.135 103.45 457.345 103.97 457.345 104.59C457.345 105.21 457.135 105.73 456.715 106.15C456.295 106.57 455.785 106.78 455.185 106.78ZM456.865 108.97V125.5H453.445V108.97H456.865ZM460.215 117.16C460.215 115.5 460.555 114.03 461.235 112.75C461.935 111.47 462.875 110.48 464.055 109.78C465.255 109.06 466.575 108.7 468.015 108.7C469.315 108.7 470.445 108.96 471.405 109.48C472.385 109.98 473.165 110.61 473.745 111.37V108.97H477.195V125.5H473.745V123.04C473.165 123.82 472.375 124.47 471.375 124.99C470.375 125.51 469.235 125.77 467.955 125.77C466.535 125.77 465.235 125.41 464.055 124.69C462.875 123.95 461.935 122.93 461.235 121.63C460.555 120.31 460.215 118.82 460.215 117.16ZM473.745 117.22C473.745 116.08 473.505 115.09 473.025 114.25C472.565 113.41 471.955 112.77 471.195 112.33C470.435 111.89 469.615 111.67 468.735 111.67C467.855 111.67 467.035 111.89 466.275 112.33C465.515 112.75 464.895 113.38 464.415 114.22C463.955 115.04 463.725 116.02 463.725 117.16C463.725 118.3 463.955 119.3 464.415 120.16C464.895 121.02 465.515 121.68 466.275 122.14C467.055 122.58 467.875 122.8 468.735 122.8C469.615 122.8 470.435 122.58 471.195 122.14C471.955 121.7 472.565 121.06 473.025 120.22C473.505 119.36 473.745 118.36 473.745 117.22ZM485.438 121.39L481.808 129.67H479.588L481.718 121.39H485.438ZM229.458 149.65C228.918 148.61 228.168 147.83 227.208 147.31C226.248 146.77 225.138 146.5 223.878 146.5C222.498 146.5 221.268 146.81 220.188 147.43C219.108 148.05 218.258 148.93 217.638 150.07C217.038 151.21 216.738 152.53 216.738 154.03C216.738 155.53 217.038 156.86 217.638 158.02C218.258 159.16 219.108 160.04 220.188 160.66C221.268 161.28 222.498 161.59 223.878 161.59C225.738 161.59 227.248 161.07 228.408 160.03C229.568 158.99 230.278 157.58 230.538 155.8H222.708V153.07H234.198V155.74C233.978 157.36 233.398 158.85 232.458 160.21C231.538 161.57 230.328 162.66 228.828 163.48C227.348 164.28 225.698 164.68 223.878 164.68C221.918 164.68 220.128 164.23 218.508 163.33C216.888 162.41 215.598 161.14 214.638 159.52C213.698 157.9 213.228 156.07 213.228 154.03C213.228 151.99 213.698 150.16 214.638 148.54C215.598 146.92 216.888 145.66 218.508 144.76C220.148 143.84 221.938 143.38 223.878 143.38C226.098 143.38 228.068 143.93 229.788 145.03C231.528 146.11 232.788 147.65 233.568 149.65H229.458ZM236.431 154.03C236.431 151.99 236.901 150.16 237.841 148.54C238.801 146.92 240.091 145.66 241.711 144.76C243.351 143.84 245.141 143.38 247.081 143.38C249.301 143.38 251.271 143.93 252.991 145.03C254.731 146.11 255.991 147.65 256.771 149.65H252.661C252.121 148.55 251.371 147.73 250.411 147.19C249.451 146.65 248.341 146.38 247.081 146.38C245.701 146.38 244.471 146.69 243.391 147.31C242.311 147.93 241.461 148.82 240.841 149.98C240.241 151.14 239.941 152.49 239.941 154.03C239.941 155.57 240.241 156.92 240.841 158.08C241.461 159.24 242.311 160.14 243.391 160.78C244.471 161.4 245.701 161.71 247.081 161.71C248.341 161.71 249.451 161.44 250.411 160.9C251.371 160.36 252.121 159.54 252.661 158.44H256.771C255.991 160.44 254.731 161.98 252.991 163.06C251.271 164.14 249.301 164.68 247.081 164.68C245.121 164.68 243.331 164.23 241.711 163.33C240.091 162.41 238.801 161.14 237.841 159.52C236.901 157.9 236.431 156.07 236.431 154.03ZM259.634 154.03C259.634 151.99 260.104 150.16 261.044 148.54C262.004 146.92 263.294 145.66 264.914 144.76C266.554 143.84 268.344 143.38 270.284 143.38C272.504 143.38 274.474 143.93 276.194 145.03C277.934 146.11 279.194 147.65 279.974 149.65H275.864C275.324 148.55 274.574 147.73 273.614 147.19C272.654 146.65 271.544 146.38 270.284 146.38C268.904 146.38 267.674 146.69 266.594 147.31C265.514 147.93 264.664 148.82 264.044 149.98C263.444 151.14 263.144 152.49 263.144 154.03C263.144 155.57 263.444 156.92 264.044 158.08C264.664 159.24 265.514 160.14 266.594 160.78C267.674 161.4 268.904 161.71 270.284 161.71C271.544 161.71 272.654 161.44 273.614 160.9C274.574 160.36 275.324 159.54 275.864 158.44H279.974C279.194 160.44 277.934 161.98 276.194 163.06C274.474 164.14 272.504 164.68 270.284 164.68C268.324 164.68 266.534 164.23 264.914 163.33C263.294 162.41 262.004 161.14 261.044 159.52C260.104 157.9 259.634 156.07 259.634 154.03ZM287.728 160.39L284.098 168.67H281.878L284.008 160.39H287.728ZM311.079 160.24H302.349L300.849 164.5H297.279L304.749 143.62H308.709L316.179 164.5H312.579L311.079 160.24ZM310.119 157.45L306.729 147.76L303.309 157.45H310.119ZM326.357 150.76H323.297V164.5H319.847V150.76H317.897V147.97H319.847V146.8C319.847 144.9 320.347 143.52 321.347 142.66C322.367 141.78 323.957 141.34 326.117 141.34V144.19C325.077 144.19 324.347 144.39 323.927 144.79C323.507 145.17 323.297 145.84 323.297 146.8V147.97H326.357V150.76ZM332.808 150.37C333.308 149.53 333.968 148.88 334.788 148.42C335.628 147.94 336.618 147.7 337.758 147.7V151.24H336.888C335.548 151.24 334.528 151.58 333.828 152.26C333.148 152.94 332.808 154.12 332.808 155.8V164.5H329.388V147.97H332.808V150.37ZM342.641 145.78C342.021 145.78 341.501 145.57 341.081 145.15C340.661 144.73 340.451 144.21 340.451 143.59C340.451 142.97 340.661 142.45 341.081 142.03C341.501 141.61 342.021 141.4 342.641 141.4C343.241 141.4 343.751 141.61 344.171 142.03C344.591 142.45 344.801 142.97 344.801 143.59C344.801 144.21 344.591 144.73 344.171 145.15C343.751 145.57 343.241 145.78 342.641 145.78ZM344.321 147.97V164.5H340.901V147.97H344.321ZM347.672 156.22C347.672 154.52 348.012 153.03 348.692 151.75C349.392 150.45 350.352 149.45 351.572 148.75C352.792 148.05 354.192 147.7 355.772 147.7C357.772 147.7 359.422 148.18 360.722 149.14C362.042 150.08 362.932 151.43 363.392 153.19H359.702C359.402 152.37 358.922 151.73 358.262 151.27C357.602 150.81 356.772 150.58 355.772 150.58C354.372 150.58 353.252 151.08 352.412 152.08C351.592 153.06 351.182 154.44 351.182 156.22C351.182 158 351.592 159.39 352.412 160.39C353.252 161.39 354.372 161.89 355.772 161.89C357.752 161.89 359.062 161.02 359.702 159.28H363.392C362.912 160.96 362.012 162.3 360.692 163.3C359.372 164.28 357.732 164.77 355.772 164.77C354.192 164.77 352.792 164.42 351.572 163.72C350.352 163 349.392 162 348.692 160.72C348.012 159.42 347.672 157.92 347.672 156.22ZM365.66 156.16C365.66 154.5 366 153.03 366.68 151.75C367.38 150.47 368.32 149.48 369.5 148.78C370.7 148.06 372.02 147.7 373.46 147.7C374.76 147.7 375.89 147.96 376.85 148.48C377.83 148.98 378.61 149.61 379.19 150.37V147.97H382.64V164.5H379.19V162.04C378.61 162.82 377.82 163.47 376.82 163.99C375.82 164.51 374.68 164.77 373.4 164.77C371.98 164.77 370.68 164.41 369.5 163.69C368.32 162.95 367.38 161.93 366.68 160.63C366 159.31 365.66 157.82 365.66 156.16ZM379.19 156.22C379.19 155.08 378.95 154.09 378.47 153.25C378.01 152.41 377.4 151.77 376.64 151.33C375.88 150.89 375.06 150.67 374.18 150.67C373.3 150.67 372.48 150.89 371.72 151.33C370.96 151.75 370.34 152.38 369.86 153.22C369.4 154.04 369.17 155.02 369.17 156.16C369.17 157.3 369.4 158.3 369.86 159.16C370.34 160.02 370.96 160.68 371.72 161.14C372.5 161.58 373.32 161.8 374.18 161.8C375.06 161.8 375.88 161.58 376.64 161.14C377.4 160.7 378.01 160.06 378.47 159.22C378.95 158.36 379.19 157.36 379.19 156.22Z" fill="#001424"/>
</svg>
