<svg width="1273" height="1242" viewBox="0 0 1273 1242" fill="none" xmlns="http://www.w3.org/2000/svg">
<path d="M122.635 826.345L98.8461 833.673L80.2614 829.531L65.7122 835.797L48.1895 831.655L10.8076 837.815L-4.69733 846.098L-15.9544 848.116L-31.5656 856.399H-41.8668L-43.035 851.302L-64.6995 854.488L-71.921 845.036L-78.1867 847.054L-94.7536 870.949L-130.967 890.595L-142.331 906.207L-145.517 924.685L-146.579 925.853L-154.862 936.155L-175.571 950.598L-194.049 954.845L-207.536 973.536L-219.962 980.758L-230.369 1002.42L-244.706 1014L-266.583 1045.96L-271.68 1060.41L-268.813 1055.31L-262.441 1069.65L-269.663 1083.24L-267.645 1108.09L-280.07 1140.16L-294.619 1154.71L-283.15 1167.99L-284.212 1176.38L-271.68 1174.36L-282.088 1178.5L-286.336 1175.42L-289.415 1188.8H-282.088L-289.415 1191.88L-279.114 1192.94L-284.212 1197.08L-278.052 1198.15L-280.07 1202.18L-265.627 1198.15L-273.91 1201.33L-267.645 1204.31L-274.866 1208.55L-271.68 1213.65L-267.645 1211.74L-269.663 1215.78L-264.565 1212.59L-262.441 1227.14L-256.282 1230.22L-250.016 1233.4L-253.202 1238.5L-247.998 1240.52L-246.936 1254.11L-241.732 1253.05L-248.954 1255.17L-237.591 1266.43L-238.653 1272.7L-221.024 1281.94L-186.828 1314.11L-169.199 1321.34L-148.49 1311.04L-116.418 1306.89L-86.4702 1315.18L-55.4602 1300.73L-33.5833 1292.34L4.6481 1284.17L-1.61758 1288.31L13.9936 1289.37L24.2948 1298.61L29.4986 1295.42L24.2948 1299.67L31.6225 1300.73L26.4188 1301.69L28.5427 1304.77L33.6403 1301.69L28.5427 1307.85L38.9502 1322.5L50.2072 1321.34V1317.19L52.3312 1321.34L51.2692 1316.13L54.349 1321.34L56.473 1315.18L60.6147 1319.32L75.1639 1318.26L74.1019 1312.1L79.1994 1319.32L84.4031 1315.18L89.5007 1327.6L97.8904 1325.48L99.9081 1329.62H95.8725L101.926 1342.05L91.6246 1373.06L97.8904 1374.22L96.8284 1384.52L91.6246 1383.46L101.926 1388.67L94.8106 1390.79L91.6246 1386.65L88.4387 1403.22H81.2172L96.8284 1431.15L131.024 1464.28L138.246 1484.99L146.529 1489.13L139.308 1491.15L157.893 1528.42L151.733 1538.72L158.955 1553.38L166.07 1569.84L163.202 1589.59L145.361 1608.18L134.104 1646.62L136.122 1679.65L178.601 1749L185.929 1804.86L219.063 1857.74L233.4 1881.53L234.462 1892.79L228.302 1897.04L235.63 1916.68L240.833 1913.61L256.232 1924.01L291.49 1912.65L321.544 1915.73L351.599 1907.45L396.096 1876.33L410.645 1857.74L416.804 1850.42L433.265 1836.93L446.752 1801.88L444.734 1804.86L440.593 1799.65L486.152 1772.79L490.187 1743.79L480.948 1719.05L481.904 1705.46L485.09 1708.64L507.816 1693.03L517.268 1677.63L563.889 1655.86L565.907 1651.72L580.244 1631.01L577.376 1600.96L580.244 1597.77L578.226 1575.04L583.43 1564.64L574.19 1557.52L569.943 1554.34V1553.38L565.907 1526.3L568.987 1519.18H564.845L571.005 1505.7L559.641 1490.19L566.863 1468.42L579.288 1442.51L582.474 1436.24L594.899 1429.13L591.713 1423.92H600.103L633.237 1380.28L668.282 1352.45L694.195 1319.32L728.391 1239.56V1230.22L727.435 1225.01L734.656 1223H729.453L730.515 1201.33L723.187 1198.15L706.726 1208.55L678.583 1211.74L666.371 1218.85L656.919 1215.78L640.352 1224.06L618.688 1204.31L609.342 1205.37L621.767 1198.15L619.75 1190.92L585.554 1156.73L571.005 1151.63L567.819 1146.32L564.845 1143.35L563.889 1149.51L542.012 1102.89L523.321 1090.35L515.144 1055.31L518.224 1057.22L510.047 1041.82L491.356 1028.33L486.152 1013.79H490.187L479.886 1005.5L451.956 956.863L436.451 940.296L432.734 927.871C432.693 927.808 432.667 927.724 432.628 927.659C432.419 927.307 432.205 926.924 432.097 926.49C431.387 923.649 429.655 920.681 429.655 917.039V915.446C429.655 913.887 429.469 912.273 429.23 910.667L424.026 911.41L420.946 905.145L408.521 904.082L383.564 914.384L354.784 906.207L329.828 905.145L325.686 898.879L302.853 895.905L299.774 889.533L281.083 885.498L259.312 895.905V914.384H258.356L243.807 921.818L228.302 913.428L199.31 906.207L191.982 892.719L167.238 885.498L152.795 886.454L124.759 874.135L122.635 867.763L139.308 854.488L131.024 841.956L139.308 829.531L131.024 834.629L122.635 826.345ZM-244.706 1014L-243.856 1012.72L-246.936 1015.91L-244.706 1014ZM-73.1954 843.762L-72.9829 844.187L-72.4519 843.762C-72.7051 843.776 -72.9414 843.753 -73.1954 843.762ZM-195.111 937.217L-202.439 942.526L-197.235 940.296L-195.111 937.217ZM-202.439 943.482L-212.74 953.783L-206.581 951.766L-202.439 943.482ZM-230.369 946.562L-240.67 949.642L-239.715 954.845L-230.369 946.562ZM-227.289 951.766L-229.307 955.907L-224.21 954.845L-227.289 951.766ZM448.876 1012.72L454.08 1029.4L439.531 1032.58L426.044 1050.11L434.327 1033.54L446.752 1030.46L448.876 1012.72ZM-247.998 1124.55L-237.591 1132.94L-230.369 1148.45L-247.998 1125.72L-271.68 1126.67L-247.998 1124.55ZM565.907 1136.98L566.863 1141.22L573.128 1142.18L566.863 1136.98H565.907ZM-110.259 1140.16L-105.055 1146.32L-109.197 1147.38L-110.259 1140.16ZM163.202 1167.14L166.07 1177.54L172.442 1174.36V1179.46L186.885 1181.58L168.3 1190.92L156.831 1169.15L163.202 1167.14ZM534.791 1192.94L532.773 1204.31L527.569 1196.13L534.791 1192.94ZM12.9316 1208.55L22.2771 1215.78L19.1973 1230.22V1232.45L18.2415 1230.22L15.0556 1224.06L21.1089 1215.78L12.9316 1208.55ZM-69.797 1244.77L-53.3362 1264.41L-52.2742 1266.54L-49.0883 1246.79L-53.3362 1292.34V1287.14L-54.292 1286.18L-65.7615 1280.98L-55.4602 1284.17L-54.292 1281.94L-52.2742 1273.76L-54.292 1270.57L-57.478 1269.51H-64.6995L-55.4602 1266.54L-65.7615 1261.23L-67.7792 1251.99H-79.2487L-68.8412 1250.93L-69.797 1244.77ZM46.0655 1251.99L52.3312 1265.48L46.0655 1303.71L51.2692 1264.41L46.0655 1251.99ZM-136.065 1260.27L-140.207 1271.64L-138.189 1274.72L-134.153 1271.64L-136.065 1279.92L-142.331 1272.7L-136.065 1260.27ZM521.41 1316.13L528.525 1353.51L516.1 1332.81L521.41 1316.13ZM85.4651 1330.79L77.0754 1336.84V1337.9L81.2172 1340.03L85.4651 1330.79ZM235.63 1352.45L228.302 1399.07L239.771 1375.18L253.259 1367.96L264.516 1361.8L267.595 1359.57L301.579 1356.91L302.853 1356.7L303.066 1356.81L304.977 1356.7L339.173 1380.28L303.066 1356.81L301.579 1356.91L264.516 1364.88L253.259 1367.96L238.603 1378.36L239.772 1391.75L203.452 1426.9L202.39 1441.55L201.434 1427.96L227.346 1399.07L235.63 1352.45ZM448.876 1353.51L445.69 1364.88L434.327 1375.18L433.265 1367.96L448.876 1353.51ZM480.948 1364.88L474.789 1367L476.806 1372.1L466.505 1369.02L480.948 1364.88ZM478.93 1383.46L480.948 1388.67L488.276 1387.71L492.311 1398.01L499.639 1393.76L501.657 1396.95L489.232 1401.09L488.276 1416.6L475.851 1424.88L486.152 1427.96L478.93 1433.27L471.603 1431.15L472.665 1438.37L468.523 1441.55L469.479 1433.27L460.24 1429.13L454.08 1438.37L450.894 1424.88L457.054 1392.81L467.461 1387.71L472.665 1390.79L478.93 1383.46ZM424.026 1393.76L415.742 1402.05L417.76 1394.93L424.026 1393.76ZM101.926 1405.23L107.236 1407.25L101.926 1410.44V1405.23ZM240.833 1417.66L236.586 1423.92L241.789 1425.94L235.63 1435.29L233.4 1419.68L240.833 1417.66ZM410.645 1417.66L415.742 1424.88L407.459 1432.1L410.645 1417.66ZM414.68 1446.65L424.026 1486.05L419.884 1493.27L433.265 1504.53L441.655 1533.63L431.247 1529.49L426.044 1509.84L411.601 1491.15L412.556 1457.91L409.477 1462.16L414.68 1446.65ZM567.819 1484.99L565.907 1492.1L571.005 1497.41L568.987 1489.13L567.819 1484.99ZM454.08 1514.94L463.425 1523.33L454.08 1521.2V1514.94ZM418.928 1529.49L424.982 1530.44L414.68 1536.71L418.928 1529.49ZM409.477 1531.61L402.255 1545.1L396.096 1546.05L397.051 1538.72L409.477 1531.61ZM485.09 1546.05L492.311 1553.38L497.515 1577.06L492.311 1592.57L498.577 1623.68L489.232 1619.54L481.904 1589.59L488.276 1580.25L484.134 1553.38L483.072 1549.13H484.134L485.09 1546.05ZM419.884 1567.82H420.946V1574.09L415.742 1576.11L419.884 1567.82ZM621.767 1576.11L619.75 1581.2L622.723 1584.39L621.767 1576.11ZM703.54 1585.35L695.257 1592.57L694.195 1607.12L686.017 1614.34L681.769 1611.26V1621.67H678.583L672.53 1634.09L673.486 1627.83L666.371 1636.11L668.282 1640.25L664.247 1642.37L665.309 1636.11L657.981 1641.31V1648.53L653.945 1644.39L629.095 1651.72L618.688 1672.43L620.812 1710.77L604.138 1730.31L598.085 1745.92L600.103 1786.27L611.466 1792.43L640.352 1785.21L691.115 1682.73L694.195 1667.22L700.567 1662.02V1641.31L704.496 1640.25L706.726 1648.53L711.824 1640.25L709.806 1602.02L701.522 1590.55L703.54 1585.35ZM636.21 1586.41L633.237 1588.53L637.272 1591.61L636.21 1586.41ZM402.255 1657.88L387.812 1662.02L370.183 1679.65L383.564 1662.02L402.255 1657.88ZM786.481 1710.77L782.233 1719.05L787.437 1714.8L786.481 1710.77ZM760.569 1724.25L755.365 1726.16L760.569 1731.37V1724.25ZM350.536 1820.36L347.351 1826.63L341.722 1824.82H341.51L345.227 1827.69L340.129 1825.67L341.51 1824.82L341.191 1824.61L341.722 1824.82L350.536 1820.36Z" fill="#BDE2FF"/>
<path d="M192.081 1142H-198.257C-225.169 1142 -246.986 1153.02 -246.986 1166.63V1201.08C-246.986 1214.68 -225.169 1225.71 -198.257 1225.71H192.081C218.994 1225.71 240.811 1214.68 240.811 1201.08V1166.63C240.811 1153.02 218.994 1142 192.081 1142Z" fill="#BDE2FF"/>
<path d="M528.708 1165.15H138.37C111.458 1165.15 89.6406 1176.18 89.6406 1189.78V1224.23C89.6406 1237.84 111.458 1248.86 138.37 1248.86H528.708C555.621 1248.86 577.438 1237.84 577.438 1224.23V1189.78C577.438 1176.18 555.621 1165.15 528.708 1165.15Z" fill="#BDE2FF"/>
<path d="M418.282 994.165H27.9436C1.03093 994.165 -20.7861 1005.19 -20.7861 1018.79V1053.25C-20.7861 1066.85 1.03093 1077.88 27.9436 1077.88H418.282C445.194 1077.88 467.011 1066.85 467.011 1053.25V1018.79C467.011 1005.19 445.194 994.165 418.282 994.165Z" fill="#BDE2FF"/>
<path d="M238.388 1202.55H-151.95C-178.863 1202.55 -200.68 1213.58 -200.68 1227.18V1261.64C-200.68 1275.24 -178.863 1286.26 -151.95 1286.26H238.388C265.301 1286.26 287.118 1275.24 287.118 1261.64V1227.18C287.118 1213.58 265.301 1202.55 238.388 1202.55Z" fill="#BDE2FF"/>
<path d="M174.271 1111.72H-216.067C-242.98 1111.72 -264.797 1122.74 -264.797 1136.35V1170.8C-264.797 1184.4 -242.98 1195.43 -216.067 1195.43H174.271C201.184 1195.43 223.001 1184.4 223.001 1170.8V1136.35C223.001 1122.74 201.184 1111.72 174.271 1111.72Z" fill="#BDE2FF"/>
<path fill-rule="evenodd" clip-rule="evenodd" d="M74.9502 2.1579L70.6773 6.48352L73.9479 9.75409L74.9502 10.7563V2.1579ZM74.9502 12.9191L68.5145 15.1874L73.9479 18.3525L74.9502 12.9191ZM50.3154 16.1897L46.9921 30.2214L53.4805 21.623L50.3154 16.1897ZM135.244 34.5471L133.082 50.5833L122.373 59.1818V64.6151L116.94 83.9747L125.538 89.4081L123.375 99.0087H129.811L123.375 100.116L121.213 108.715L130.972 105.444L127.648 113.041L138.515 108.715L132.079 103.334L138.515 101.172L132.079 100.116L137.407 99.0087L132.079 94.7359H137.407L130.972 88.2476L136.405 87.2452L135.244 80.8096L134.242 71.0507L143.843 43.1454L135.244 34.5471ZM-29.3386 39.8221V46.3105H-34.7719L-32.6091 52.7461L-28.3363 51.7438L-22.903 50.5833L-28.3363 56.0167L-16.4673 60.3423L-7.86893 47.4183L-14.3045 41.9849L-19.7379 46.3105L-20.7401 39.8221L-21.9007 48.4205L-28.3363 41.9849L-29.3386 39.8221ZM-39.0975 47.4183V64.6151L-44.3726 50.5833L-46.5353 58.1794L-51.9687 52.7461L-46.5353 49.5811L-56.2943 52.7461L-51.9687 74.374L-43.3703 65.7756V71.0507L-40.0998 67.8857L-36.9347 72.2112L-50.861 77.5391L-49.8059 82.9724L-39.0975 79.6492L-47.6959 83.9747L-42.2626 87.2452L-50.861 85.0825L-45.5331 93.6809L-40.0998 101.172L-31.5014 72.2112L-28.3363 70.0484L-22.903 67.8857L-28.3363 61.45V61.3445L-33.6641 53.8539L-35.7742 58.1795L-39.0975 47.4183ZM-22.903 68.9407L-28.3363 71.0507L-25.0657 75.3763L-22.903 68.9407ZM-18.5773 74.374L-25.0657 77.5391V87.2452L-19.7379 85.0825L-18.5773 90.4103L-14.3045 83.9747L-18.5773 74.374ZM138.515 110.878L130.972 113.041L125.538 118.474L129.917 120.637L125.538 125.912L132.079 123.802L128.809 140.998L134.242 145.271L140.678 139.943L150.279 149.597L166.473 140.998L145.003 131.345L138.515 121.639V110.878ZM221.334 134.51L190.106 142.106V148.542L201.974 155.03L197.702 160.464L199.864 165.739L190.106 159.303L186.94 171.172L177.234 177.608V184.096L168.636 188.369L165.365 178.663L168.636 173.335L165.365 175.498L163.203 189.371L160.037 185.098L146.006 204.563L151.439 207.728L143.843 212.001L147.114 222.763L138.515 227.088L128.809 220.6L136.405 210.999L133.082 206.726L110.452 204.563L119.05 208.836L133.082 245.393L118.048 239.959L111.612 251.828L108.341 259.424L107.656 262.115L111.612 268.023L116.94 275.461H113.775H101.853L99.7431 279.786L101.853 274.458L90.0896 272.296L88.9819 279.786L101.853 284.059L99.7431 293.818L78.2207 286.222L70.6773 272.296L72.7874 263.697L58.9138 260.427L63.1867 257.262L49.1549 247.555L99.7431 252.989L104.016 245.393L109.449 232.521L95.7867 222.077L95.4175 221.76L93.2547 219.597L62.0789 208.836L52.4254 209.891L50.3154 217.435L51.3177 208.836L43.8271 209.891L41.717 204.563H48.1526L41.717 201.293L37.3914 208.836L30.8503 204.563L27.6852 208.836L22.2519 203.403L20.0891 201.293H29.7953L34.1209 194.805L21.1969 189.371L15.7635 196.967L19.0868 188.369L13.6535 186.206L11.4907 196.967L8.32562 199.13V189.371L1.89005 204.563L4.00006 191.534L-2.43558 189.371L-7.86893 206.726L-18.4718 200.027L-17.4695 206.726L-15.3068 210.999L-20.7401 206.726L-28.3363 217.435L-29.3386 218.49L-28.3363 216.327L-26.1735 206.726L-28.3363 210.999L-30.4991 216.327V209.891L-34.7719 213.162L-31.5014 219.597L-39.0975 215.325L-42.2626 228.196L-49.8059 230.359L-41.2075 232.521H-50.861V242.122L-52.971 234.631L-58.4043 237.797L-54.1315 239.959H-60.5671L-55.1338 245.393L-64.8927 249.718L-58.4043 252.883L-71.3283 255.099L-68.1633 257.262L-75.6012 266.862L-68.1633 265.86L-78.8717 269.025L-75.6012 273.351L-78.8717 271.188L-84.1996 281.949H-77.7639L-90.6352 287.382L-84.1996 286.222L-90.6352 290.548L-87.4701 294.82L-92.798 296.983L-93.9585 291.655L-106.83 305.687L-100.394 307.85L-91.7957 300.254L-96.0685 311.015L-104.667 312.123L-105.722 306.689L-114.426 308.852L-115.428 318.611L-120.862 314.285L-116.589 320.721L-127.297 314.285L-119.754 319.613L-133.785 318.611L-128.352 328.212L-131.623 323.886L-133.785 327.209L-138.058 325.047L-135.896 328.212L-144.494 323.886V328.212L-132.625 331.482L-144.494 329.319L-147.659 333.645L-141.223 336.81L-148.819 335.755L-143.386 337.918L-147.659 342.243H-136.951L-134.788 338.973L-130.462 344.353L-127.297 338.973V343.246L-133.785 348.679L-135.896 343.246L-149.822 342.243L-145.549 346.516H-150.982L-148.819 350.842L-144.494 348.679L-150.982 354.112L-149.822 358.385L-145.549 354.112L-149.822 362.711L-134.788 355.115L-153.092 368.039L-150.982 372.312L-142.384 369.146L-149.822 375.582L-143.386 377.745L-146.657 380.91L-151.985 376.637L-153.092 384.18L-143.386 395.944H-132.625L-118.699 380.91L-111.155 383.073L-106.83 369.146L-106.038 386.712H-106.249L-105.722 396.102L-101.66 395.153C-101.66 395.153 -102.318 398.512 -102.768 400.692L-103.559 403.54L-101.291 400.164C-100.358 398.777 -99.4973 397.315 -99.4973 397.315L-102.451 406.6L-102.557 406.811L-94.0639 426.856L-98.2313 430.707L-99.2336 431.498V431.604L-97.229 447.64L-84.094 448.906L-77.8694 436.035L-66.7917 437.934L-58.2988 415.409L-58.7736 409.976L-58.879 408.973L-59.4593 398.318L-57.8767 398.107H-55.1337L-58.5098 396.419L-61.1473 394.942L-58.2988 394.361L-49.8058 392.779L-49.4893 390.88L-48.4871 387.029L-46.5353 392.779L-43.7395 389.983L-38.9392 385.658L-39.3084 385.446L-39.0974 385.235L-41.5767 383.758L-41.9987 383.389H-42.1041L-44.1614 381.912L-43.7394 381.596L-43.2646 381.385L-42.4734 380.804L-35.774 376.637L-40.8909 368.461L-41.3129 367.669L-44.2669 362.711L-51.8631 360.442L-46.5352 322.093L-43.9504 324.361L-42.2624 326.049L-28.5471 314.391L-28.3362 314.18L-22.9028 308.852L-22.7973 308.536L-16.4673 298.091L-16.5727 297.88L-19.5268 283.426L-17.6805 284.534L-17.4694 284.639L-15.3067 286.222L-15.7815 282.266L-16.3617 276.727L-14.9902 277.518L-11.1393 279.892V279.786H-11.0339L-10.9284 278.995L-10.7701 278.678V278.415L-9.66241 273.351L2.89233 274.458L10.4885 287.382L-19.6323 325.943L-19.7377 326.049L-14.3044 347.677L-16.4672 362.711L-6.70828 369.146L-5.91702 368.566L-5.81155 368.461L-5.70612 368.355L-2.54102 366.351L-2.75204 368.355L-3.5433 375.582L-3.33228 375.477L42.7193 356.275L43.8271 362.711L58.9138 366.984L40.5565 372.312L39.5542 378.431V378.536L29.7953 377.745L27.8963 377.534H27.7908L20.0892 376.637L4.68588 383.864L1.52084 385.341L4.94965 400.481L12.5985 400.692L11.4908 418.047L8.80048 420.42L5.47714 422.53L0.518555 416.886L0.202087 416.464L-4.59827 409.976L-13.1439 414.301L-13.988 416.57L-14.3044 417.255L-14.5155 417.888L-20.0543 431.498L-18.0498 446.638L-17.2585 451.596L-16.4673 458.401H-22.9029L-18.0498 446.638L-22.9029 456.238L-28.3362 458.401V463.834L-24.0107 462.727L-27.9669 465.892H-28.1252H-28.7582L-28.9166 466.419L-34.7719 470.27L-29.3386 463.834L-40.0998 468.16L-48.6982 459.562L-81.0345 471.325L-82.0368 478.868L-97.1236 463.834L-118.699 469.162L-115.428 461.672H-125.187L-130.462 451.966L-127.297 437.934L-112.263 427.173L-119.754 421.845L-112.263 405.703L-132.625 413.246L-142.384 451.966L-138.058 450.963L-135.896 457.399L-140.221 459.562L-129.46 474.596L-140.221 467L-143.386 475.598L-147.659 469.162H-156.257L-154.147 475.598L-169.287 470.27L-175.723 474.596L-172.452 483.194L-178.888 486.359L-182.158 474.596L-192.919 489.63L-187.486 495.063H-200.41L-192.919 500.391L-220.877 501.499L-223.04 513.262L-227.313 514.423L-244.51 521.861L-261.812 508.989V528.296L-275.738 526.186L-277.901 518.695H-297.208L-291.933 525.131L-297.208 523.021V531.619L-277.901 543.488L-275.738 561.688L-269.303 567.121L-273.576 576.722L-272.573 578.99L-287.607 611.221L-347.902 587.588L-353.23 579.992L-374.699 583.315L-370.426 598.349L-384.458 630.58L-399.492 647.777H-393.057L-398.49 654.213L-391.896 657.483H-394.059L-402.763 676.843L-376.862 683.279L-367.261 709.074L-348.904 703.799L-320.999 714.507L-309.13 704.801L-299.476 705.909L-294.043 695.2L-287.607 693.037L-283.335 691.877L-285.445 688.712L-288.61 684.439L-285.445 674.68L-282.174 672.57L-266.138 658.538L-237.019 652.103V636.014L-230.584 629.473L-220.877 627.31L-197.245 641.342L-162.851 624.145L-146.657 634.906L-139.061 661.809L-84.1996 705.909L-77.764 725.268L-86.3624 738.14L-81.0346 740.302L-73.4912 726.271L-64.8928 723.106L-73.4912 711.237L-68.1634 700.475L-56.2944 702.638L-49.806 711.237L-47.696 705.909L-79.9268 682.171L-76.7618 675.735L-93.9586 671.41L-105.722 645.614L-119.754 633.851L-120.862 613.383L-104.667 609.111L-103.454 614.175L-101.396 625.833L-92.9035 617.815L-77.764 648.779L-67.2666 650.837L-57.8769 659.066L-56.9274 661.123L-42.9484 667.559L-33.7697 677.845L-38.148 701.53L-30.3409 710.656L-28.3364 713.399V712.608L-19.1577 724.952L-13.6188 723.475L-18.1554 727.167L-13.6188 734.552L14.3392 737.032L10.2246 739.986L-9.979 737.243L-13.1968 742.36L-5.81171 759.556L0.412933 755.6L4.94952 765.676L6.95401 758.871L14.3392 764.304L8.64206 746.896L18.7175 748.69L11.8072 741.199L18.9813 738.14L25.4169 743.942L25.8389 736.346L5.16046 726.271L11.1741 723L10.6993 717.567L15.447 719.413L5.16046 699.473L9.80258 697.31L22.7793 707.28L20.0891 700.845L28.3709 703.113L18.9813 693.934L37.2859 688.817L49.3658 691.244V691.086L58.9138 693.037L51.3176 703.799L67.5121 686.602L85.7112 684.439L73.051 669.405L67.5121 662.706L63.3976 663.708L76.2161 644.401L76.6381 632.057L77.1128 620.399L79.0119 623.564L79.2756 624.145L86.819 619.819L84.6562 603.677L86.397 607.053V607.159L86.819 607.95L88.296 605.154L94.4151 598.349L96.5779 589.751L109.449 582.155L115.885 587.588L104.016 588.59L110.451 589.751L108.341 592.916L129.811 590.753L130.972 596.187L119.05 605.787L126.646 603.677L130.972 617.709L138.515 618.711L166.473 596.187L153.549 600.512H147.113L139.57 592.916L146.006 581.153L145.003 588.59L153.549 576.721L187.943 557.415L183.67 569.284L173.964 571.394L181.507 576.827L176.074 592.916L166.473 599.352L211.153 615.652L233.889 616.918L246.18 617.445C251.018 617.922 255.832 618.107 260.686 618.342L276.723 617.656L285.743 615.652C288.895 615.231 292.025 614.844 295.185 614.491C300.733 613.978 304.582 613.743 309.692 614.808C312.734 614.524 314.888 615.24 317.71 615.915H322.247L330.898 617.182L326.889 614.649L323.987 612.856L303.151 597.189L296.662 578.884L295.555 585.425L281.628 571.394L282.631 550.926L296.662 543.488L297.717 529.457L312.751 512.26L316.919 510.783V507.037L313.332 502.501L309.217 498.914L307.424 491.107L304.733 480.715L288.328 466.683L284.688 455.236V450.277L292.39 442.998L298.245 438.936L304.259 433.977L312.382 427.647L322.827 424.007L332.322 421.739L337.755 418.469L345.985 417.994L349.15 414.407L352.315 413.51L353.686 416.675L358.645 417.572L363.656 413.932L365.45 416.2L366.03 413.141L361.177 403.54L366.03 413.035L366.821 408.499L371.358 409.395L376.791 404.015L379.165 400.85L375.42 392.673L373.151 391.302L370.461 394.467L366.821 392.673L362.759 394.942L360.913 393.148L356.851 392.673L357.326 388.612L344.666 384.972L339.074 384.55L337.281 382.703V380.804L333.694 377.165L332.322 360.864L330.054 357.699L325.095 357.277L321.93 359.968L318.29 367.669L315.125 373.103H311.485L309.692 374.474L294.183 367.247L290.121 363.133L291.493 358.649L301.99 348.679L304.733 339.975L301.99 334.067L297.823 332.273H290.121L285.585 328.634L284.688 317.767L286.956 311.437L277.883 287.382L272.028 271.504L265.223 259.213L261.478 255.573V251.037L262.427 249.243L236.157 212.898L241.59 191.112L245.652 167.11L243.384 149.333L241.116 148.014L226.978 136.884L218.169 135.671L221.334 134.51ZM175.071 140.998L178.342 147.434H179.344H187.943L186.94 143.109L185.833 142.106H183.67L175.071 140.998ZM-292.935 179.77L-296.206 190.532L-297.208 181.933L-301.639 189.371L-304.804 184.096L-305.912 189.371L-310.237 186.206L-296.206 197.97H-303.802L-300.531 203.403L-314.51 195.859L-304.804 214.164L-317.728 216.327L-308.075 220.6L-303.802 229.198L-299.476 237.797L-285.445 238.957L-269.303 239.959L-256.379 234.631L-258.542 230.359L-253.214 232.521L-254.216 212.001L-247.78 209.891L-255.376 210.999L-256.379 202.295L-261.812 207.728L-270.41 201.293L-274.736 208.836L-273.576 199.13L-281.172 203.403L-282.174 197.97L-283.334 194.805L-295.098 204.563L-288.61 192.694L-292.935 179.77ZM137.407 179.77L135.244 188.369L141.68 191.534L146.006 182.935L137.407 179.77ZM173.964 186.206L168.636 200.132L185.833 231.361L197.702 223.923L200.867 205.566L198.704 224.925L185.833 231.361L167.475 200.132L173.964 186.206ZM217.061 186.206L218.169 188.369H218.064L217.061 186.206ZM-43.3703 213.162L-47.6959 221.76L-40.0998 215.325L-43.3703 213.162ZM24.362 213.162L22.2519 222.763H14.7613L24.362 213.162ZM-57.2966 221.76L-62.7299 227.088L-59.5648 229.198L-57.2966 221.76ZM-55.1338 222.763L-59.5648 233.524L-54.1315 229.198L-55.1338 222.763ZM53.4805 226.033L56.751 238.957L52.4254 242.122L53.4805 226.033ZM10.4884 235.687H22.2519L20.0891 239.959L10.4884 235.687ZM46.9921 262.589L49.1549 268.023L43.8271 265.86L46.9921 262.589ZM127.807 285.22L136.405 294.82L164.31 303.524V304.579L136.405 294.82L127.807 286.222V285.22ZM21.1969 293.818L31.9581 300.254L22.2519 299.251L21.1969 293.818ZM78.2207 296.983L87.9796 302.416H82.5463L84.6563 312.123L78.2207 296.983ZM258.998 296.983L270.762 311.015L268.599 317.451L270.551 318.716L270.762 318.611L272.133 319.613L274.032 320.721L279.466 318.611L276.195 321.776L282.631 327.21L272.133 319.613L270.551 318.716L264.326 320.721L268.599 314.285H262.163L264.326 306.689L258.998 296.983ZM73.9479 304.579L78.2207 308.852H72.7874L73.9479 304.579ZM23.3597 310.013L41.717 328.212L32.9604 322.884L34.1209 331.482H44.8821L43.8271 323.886L49.1549 326.049V336.23L48.4692 337.496L38.3937 346.516L43.0358 347.571L42.8248 347.888L35.1232 349.787L29.7953 342.243L36.2837 344.353L42.7193 337.918L28.6875 328.212L30.8503 320.721L23.3597 310.013ZM83.6541 313.178L94.4153 318.611L104.016 337.918L100.851 344.353L92.2524 343.246L97.5803 340.081L84.6563 330.374L79.2757 319.613L86.8191 327.209L82.5463 317.451L90.0896 326.049L93.2547 321.776L83.6541 313.178ZM16.924 318.611L19.0868 330.374L20.0891 321.776L24.362 326.049L21.1969 320.721L26.5248 322.884L16.924 337.918V349.787L23.3597 346.516L21.1969 355.115L13.6535 346.516L17.9263 331.482L16.924 322.884L12.5985 320.721L16.924 318.611ZM44.8821 332.485L40.5565 334.647L43.8271 337.918L45.9898 332.485H44.8821ZM0.729523 334.647H9.32791V340.081L1.89005 342.243V349.787L9.32791 342.243L4.00006 350.842L8.32562 355.115L1.89005 349.787V350.842L0.729523 334.647ZM58.9138 336.81L78.2207 351.95L67.5122 366.984L51.3177 346.516L58.9138 336.81ZM275.193 337.918L277.356 340.081L268.599 351.95L275.193 337.918ZM119.05 348.679L121.213 351.95L114.777 352.952L119.05 348.679ZM-252.106 355.115L-261.812 361.55L-262.814 364.874L-257.539 363.713L-252.106 355.115ZM-241.345 357.277L-246.673 370.149L-253.214 366.984L-254.216 379.908L-262.814 383.073L-253.214 387.346L-268.248 406.811L-260.704 400.375L-254.216 396.102L-253.214 402.538L-256.379 400.375L-264.977 416.464L-263.975 420.737L-262.814 417.572L-245.618 420.737L-254.216 427.173L-252.106 435.771L-247.78 433.608L-254.216 444.475L-250.945 448.8L-266.138 445.53L-273.576 450.963H-266.138L-267.14 457.399L-284.337 463.834L-268.248 477.761L-256.379 474.596L-266.138 482.034L-277.901 477.761L-298.369 490.632L-276.846 495.063L-272.573 488.522L-238.074 498.228L-221.985 496.065L-220.877 492.9L-231.639 487.467H-225.15L-213.387 475.598L-215.549 467L-227.313 463.834H-228.421L-225.15 454.128V453.073L-226.311 450.963L-231.639 448.8L-224.148 449.803L-223.04 444.475L-231.639 433.608L-232.746 408.973L-246.673 400.375L-234.909 402.538L-241.345 398.212L-232.746 397.104L-220.877 383.073L-243.507 376.637L-225.15 362.711L-241.345 357.277ZM128.809 364.874L123.375 369.146L127.648 370.149L137.407 375.582L134.242 385.236L119.05 376.637L128.809 377.745L121.213 368.039L128.809 364.874ZM-260.704 368.039L-259.649 379.908L-257.539 375.582L-260.704 368.039ZM179.344 375.582L180.505 396.102L173.964 380.91L179.344 375.582ZM255.728 377.745L257.89 380.91L261.161 377.745L242.857 401.377V405.703L241.801 412.139L247.129 416.464L253.565 409.976L251.402 421.845L260.001 420.737L251.402 428.333L253.565 424.007L240.694 415.409L242.857 397.104L238.531 392.779L223.497 387.346L211.628 388.506L203.452 394.256L197.702 399.267L196.91 399.004L196.541 399.267L183.67 393.939L196.91 399.004L203.452 394.256L211.628 387.346L224.499 386.343L238.531 392.779L241.801 394.942L240.694 389.508L246.127 391.671L255.728 383.073V377.745ZM-87.4701 380.91L-78.8717 382.07L-82.0895 391.671L-96.0685 397.104L-93.9585 387.346L-87.4701 388.506V380.91ZM-261.812 386.343L-267.14 390.669H-260.704L-261.812 386.343ZM38.3937 387.346V397.104L31.9581 389.508L38.3937 387.346ZM-6.7084 389.508L-9.97894 390.669L-6.7084 394.942L-1.38049 391.671L-6.7084 389.508ZM70.6773 390.669L76.1106 394.942L67.5122 396.102L70.6773 390.669ZM343.98 397.104L350.416 401.377L346.09 405.703L343.98 397.104ZM-12.1417 398.212L-9.97894 407.866L0.729523 398.212H-12.1417ZM-287.607 400.375L-298.369 405.703L-291.933 408.973L-298.369 414.301L-312.4 407.866L-310.237 416.464L-318.836 419.735L-308.075 428.333L-322.001 434.769L-310.237 437.934L-328.437 436.931L-323.109 441.204L-330.599 443.367L-323.109 446.638L-330.599 447.64L-323.109 448.8L-328.437 451.966L-309.13 453.073L-290.772 454.128L-281.172 425.062L-270.41 421.845L-271.413 406.811H-283.334L-277.901 404.648L-281.172 400.375L-286.5 405.703L-287.607 400.375ZM-36.9347 407.866L-45.5331 414.301L-44.3726 422.9L-36.9347 407.866ZM-128.352 414.301L-120.862 416.464L-127.297 417.572L-126.189 424.007L-128.352 418.574L-133.785 421.845L-128.352 414.301ZM-100.394 434.769L-103.559 442.365L-105.722 435.771L-114.426 439.042L-106.83 460.564V453.073L-98.2313 443.367L-100.394 434.769ZM-123.024 441.204L-125.187 447.64L-117.591 449.803V441.204H-123.024ZM242.857 456.238L236.368 468.371L238.425 478.183L238.636 478.974L247.129 485.357L240.694 490.737V491.793L238.531 518.695L239.639 491.793L240.694 484.196L238.636 478.974L238.531 478.869L238.425 478.183L235.366 470.27L236.368 468.371L236.368 468.16L242.857 456.238ZM-89.6329 461.672L-94.9608 464.837L-89.6329 467V461.672ZM175.071 477.761L176.179 479.924L177.234 483.194L176.074 479.924L175.071 477.761ZM265.434 481.031L263.324 482.139L260.001 483.194L263.324 482.034L265.434 481.031ZM223.497 506.827L229.933 511.099V519.698L227.77 538.055L218.063 543.488L217.061 535.892H223.497L221.334 525.131L226.767 524.023L228.93 514.423L223.497 506.827ZM95.4175 531.619L92.2524 532.727H85.8168L82.5463 533.73L85.8168 532.622H92.2524L95.4175 531.619ZM-246.673 533.73L-248.835 538.055V540.218L-249.943 542.328L-248.941 540.218V538.055L-246.673 533.73ZM79.2757 533.73L77.1129 534.89H70.6773L67.5122 535.892L70.6773 534.785H77.1129L79.2757 533.73ZM95.4175 534.785L135.244 549.924L140.678 546.654L145.003 566.013L130.972 569.284L128.809 578.884L116.94 585.32L126.646 578.884L128.809 567.121L140.678 564.958V553.089L95.4175 534.785ZM61.0239 535.892L58.9138 537.053H52.4254L49.1549 538.055L52.4254 536.895H58.9138L61.0239 535.892ZM-249.943 544.491L-250.945 546.654V549.924L-253.214 554.25L-251.051 549.924V546.654L-249.943 544.491ZM-158.526 648.885L-170.289 657.483L-167.124 672.57L-158.526 663.972V648.885ZM-163.854 676.843L-177.885 680.113L-178.888 712.397L-162.851 709.074L-158.526 689.767L-163.854 676.843ZM-242.347 682.276L-254.216 685.441L-247.78 691.877L-240.237 687.604L-242.347 682.276ZM14.7613 723.106L9.32791 725.268L29.7953 738.14L26.5248 728.539L14.7613 723.106ZM-20.7401 732.864L-24.0107 737.137L-17.5751 738.14L-20.7401 732.864ZM-86.3624 733.867L-128.352 734.974L-126.189 742.465L-96.0685 758.66L-86.3624 733.867ZM21.1969 776.964V783.4L37.3914 786.565L56.751 784.455L58.9138 779.127L51.3177 783.4L21.1969 776.964ZM-103.348 777.07L-102.082 781.395L-97.6511 781.817L-98.1258 777.545L-103.348 777.07Z" fill="#BDE2FF"/>
<path d="M269.227 355.174H168.636C166.462 355.174 164.699 361.995 164.699 370.409V532.637C164.699 541.051 166.462 547.872 168.636 547.872H269.227C271.401 547.872 273.164 541.051 273.164 532.637V370.409C273.164 361.995 271.401 355.174 269.227 355.174Z" fill="#BDE2FF"/>
<path d="M151.907 374.789H60.9462C58.9803 374.789 57.3867 381.61 57.3867 390.024V552.252C57.3867 560.666 58.9803 567.487 60.9462 567.487H151.907C153.873 567.487 155.467 560.666 155.467 552.252V390.024C155.467 381.61 153.873 374.789 151.907 374.789Z" fill="#BDE2FF"/>
<path d="M207.294 336.711H116.333C114.367 336.711 112.773 343.532 112.773 351.947V514.174C112.773 522.589 114.367 529.41 116.333 529.41H207.294C209.26 529.41 210.853 522.589 210.853 514.174V351.947C210.853 343.532 209.26 336.711 207.294 336.711Z" fill="#BDE2FF"/>
<path d="M274.221 290.555H183.26C181.294 290.555 179.7 297.376 179.7 305.79V468.018C179.7 476.432 181.294 483.254 183.26 483.254H274.221C276.187 483.254 277.78 476.432 277.78 468.018V305.79C277.78 297.376 276.187 290.555 274.221 290.555Z" fill="#BDE2FF"/>
<path d="M219.987 279.018H129.026C127.06 279.018 125.467 285.839 125.467 294.253V456.481C125.467 464.895 127.06 471.716 129.026 471.716H219.987C221.953 471.716 223.547 464.895 223.547 456.481V294.253C223.547 285.839 221.953 279.018 219.987 279.018Z" fill="#BDE2FF"/>
<path d="M223.299 191.321H158.024C156.612 191.321 155.468 198.142 155.468 206.556V368.784C155.468 377.198 156.612 384.019 158.024 384.019H223.299C224.711 384.019 225.855 377.198 225.855 368.784V206.556C225.855 198.142 224.711 191.321 223.299 191.321Z" fill="#BDE2FF"/>
<path d="M64.9002 457.87H21.0261C20.0775 457.87 19.3086 463.179 19.3086 469.729V596.015C19.3086 602.565 20.0775 607.875 21.0261 607.875H64.9002C65.8488 607.875 66.6178 602.565 66.6178 596.015V469.729C66.6178 463.179 65.8488 457.87 64.9002 457.87Z" fill="#BDE2FF"/>
<path d="M140.742 508.641H118.27C117.784 508.641 117.391 511.337 117.391 514.662V578.775C117.391 582.101 117.784 584.797 118.27 584.797H140.742C141.228 584.797 141.621 582.101 141.621 578.775V514.662C141.621 511.337 141.228 508.641 140.742 508.641Z" fill="#BDE2FF"/>
<path d="M34.5822 209.784H12.1096C11.6241 209.784 11.2305 212.48 11.2305 215.805V279.918C11.2305 283.244 11.6241 285.94 12.1096 285.94H34.5822C35.0677 285.94 35.4613 283.244 35.4613 279.918V215.805C35.4613 212.48 35.0677 209.784 34.5822 209.784Z" fill="#BDE2FF"/>
<path d="M351.902 388.637H329.43C328.944 388.637 328.551 389.453 328.551 390.46V409.892C328.551 410.899 328.944 411.715 329.43 411.715H351.902C352.388 411.715 352.782 410.899 352.782 409.892V390.46C352.782 389.453 352.388 388.637 351.902 388.637Z" fill="#BDE2FF"/>
<path d="M127.002 299.787H77.7772C76.7126 299.787 75.8496 301.38 75.8496 303.345V341.232C75.8496 343.197 76.7126 344.789 77.7772 344.789H127.002C128.066 344.789 128.929 343.197 128.929 341.232V303.345C128.929 301.38 128.066 299.787 127.002 299.787Z" fill="#BDE2FF"/>
<path d="M89.8044 292.864H63.0503C62.4724 292.864 62.0039 293.967 62.0039 295.328V321.556C62.0039 322.917 62.4724 324.02 63.0503 324.02H89.8044C90.3823 324.02 90.8508 322.917 90.8508 321.556V295.328C90.8508 293.967 90.3823 292.864 89.8044 292.864Z" fill="#BDE2FF"/>
<path d="M47.3013 310.172H-4.06299C-5.17377 310.172 -6.07422 311.642 -6.07422 313.456V348.428C-6.07422 350.242 -5.17377 351.712 -4.06299 351.712H47.3013C48.4121 351.712 49.3126 350.242 49.3126 348.428V313.456C49.3126 311.642 48.4121 310.172 47.3013 310.172Z" fill="#BDE2FF"/>
<path d="M58.2696 261.708H21.8857C21.0994 261.708 20.4619 263.465 20.4619 265.631V307.402C20.4619 309.569 21.0994 311.325 21.8857 311.325H58.2696C59.056 311.325 59.6934 309.569 59.6934 307.402V265.631C59.6934 263.465 59.056 261.708 58.2696 261.708Z" fill="#BDE2FF"/>
<path d="M72.1183 219.015H35.7344C34.9481 219.015 34.3105 219.873 34.3105 220.931V241.331C34.3105 242.388 34.9481 243.246 35.7344 243.246H72.1183C72.9047 243.246 73.5421 242.388 73.5421 241.331V220.931C73.5421 219.873 72.9047 219.015 72.1183 219.015Z" fill="#BDE2FF"/>
<path d="M58.2696 384.021H21.8857C21.0994 384.021 20.4619 384.879 20.4619 385.936V406.336C20.4619 407.394 21.0994 408.252 21.8857 408.252H58.2696C59.056 408.252 59.6934 407.394 59.6934 406.336V385.936C59.6934 384.879 59.056 384.021 58.2696 384.021Z" fill="#BDE2FF"/>
<path d="M30.5793 330.941H-5.80474C-6.59107 330.941 -7.22852 331.799 -7.22852 332.857V353.257C-7.22852 354.315 -6.59107 355.172 -5.80474 355.172H30.5793C31.3656 355.172 32.0031 354.315 32.0031 353.257V332.857C32.0031 331.799 31.3656 330.941 30.5793 330.941Z" fill="#BDE2FF"/>
<path d="M14.959 477.003C14.3368 477.003 13.8896 476.537 13.8896 475.934V463.393H21.5114C22.1142 463.393 22.5808 463.86 22.5808 464.462V465.823H16.9617V468.759H20.7726C21.3948 468.759 21.842 469.207 21.842 469.829V471.19H16.9617V474.573H21.5114C22.1142 474.573 22.5808 475.02 22.5808 475.642V477.003H14.959ZM24.3473 467.34H26.2527C26.9333 467.34 27.3027 467.709 27.3027 468.39V473.154C27.3027 473.951 27.7693 474.456 28.4304 474.456C29.0137 474.456 29.7526 474.067 30.3359 473.212V467.34H32.2413C32.9218 467.34 33.2913 467.709 33.2913 468.39V477.003H31.4441C30.7636 477.003 30.3942 476.673 30.3942 475.992V475.837C29.3831 476.77 28.2554 477.237 27.2055 477.237C25.6306 477.237 24.3473 476.109 24.3473 474.106V467.34ZM35.6658 467.34H37.5129C38.174 467.34 38.5628 467.651 38.5628 468.234V468.604C39.5156 467.632 40.3128 467.34 41.6155 467.34V470.023C40.0794 470.023 39.3211 470.295 38.6017 471.326V477.003H36.7157C36.0352 477.003 35.6658 476.634 35.6658 475.953V467.34ZM47.7546 477.237C44.6825 477.237 42.8743 475.312 42.8743 472.162C42.8743 469.012 44.7214 467.087 47.7546 467.087C50.8072 467.087 52.6349 469.012 52.6349 472.162C52.6349 475.312 50.8266 477.237 47.7546 477.237ZM47.7546 475.156C49.2517 475.156 49.6017 473.737 49.6017 472.162C49.6017 470.587 49.2517 469.187 47.7546 469.187C46.2769 469.187 45.9074 470.587 45.9074 472.162C45.9074 473.737 46.2769 475.156 47.7546 475.156ZM54.7294 467.34H56.4016C57.0821 467.34 57.4515 467.709 57.4515 468.39V468.565C57.7626 468.176 58.657 467.087 60.2514 467.087C62.0985 467.087 63.965 468.526 63.965 472.123C63.965 475.137 62.5068 477.237 59.4347 477.237C58.9098 477.237 58.1515 477.14 57.6848 477.042V481.203H55.7794C55.0989 481.203 54.7294 480.834 54.7294 480.153V467.34ZM57.6848 469.965V474.942C57.9959 475.04 58.4626 475.117 58.8709 475.117C60.018 475.117 60.9319 474.495 60.9319 472.24C60.9319 469.984 59.8819 469.42 58.9875 469.42C58.5403 469.42 57.9765 469.673 57.6848 469.965ZM71.0426 477.237C67.4845 477.237 65.7734 475.429 65.7734 472.298C65.7734 469.518 67.29 467.087 70.6732 467.087C73.6286 467.087 75.0674 468.954 75.0674 472.045V472.823H68.8066C68.8261 474.34 69.9927 475.176 71.7426 475.176C72.7731 475.176 73.9397 474.923 74.9313 474.476V475.001C74.9313 476.031 74.3674 476.615 73.473 476.926C72.8119 477.14 71.9759 477.237 71.0426 477.237ZM68.8066 471.326H72.2286C72.2286 469.984 71.6648 469.109 70.5954 469.109C69.2927 469.109 68.8649 470.393 68.8066 471.326Z" fill="black"/>
<path d="M140.606 1025.72C140.023 1025.72 139.653 1025.21 139.848 1024.63L144.145 1012.11H147.022C147.45 1012.11 147.8 1012.38 147.936 1012.79L152.175 1025.72H149.686C149.239 1025.72 148.85 1025.44 148.733 1025.02L147.975 1022.68H143.62L142.667 1025.72H140.606ZM144.281 1020.54H147.314L145.797 1015.78L144.281 1020.54ZM153.929 1025.72V1018.25H153.676C152.996 1018.25 152.626 1017.88 152.626 1017.2V1016.05H153.929V1015.16C153.929 1013.66 154.415 1011.87 157.429 1011.87C157.896 1011.87 158.285 1011.91 158.615 1011.95C159.237 1012.03 159.548 1012.46 159.548 1013.08V1014.21C159.023 1014.09 158.557 1014.03 158.187 1014.03C157.332 1014.03 156.885 1014.36 156.885 1015.43V1016.05H158.498C159.179 1016.05 159.548 1016.42 159.548 1017.1V1018.25H156.885V1025.72H153.929ZM160.904 1016.05H162.751C163.413 1016.05 163.801 1016.36 163.801 1016.95V1017.32C164.754 1016.34 165.551 1016.05 166.854 1016.05V1018.74C165.318 1018.74 164.56 1019.01 163.84 1020.04V1025.72H161.954C161.274 1025.72 160.904 1025.35 160.904 1024.67V1016.05ZM170.035 1015.28C168.965 1015.28 168.479 1014.81 168.479 1013.74C168.479 1012.67 168.965 1012.2 170.035 1012.2C171.123 1012.2 171.609 1012.67 171.609 1013.74C171.609 1014.81 171.123 1015.28 170.035 1015.28ZM169.626 1025.72C169.024 1025.72 168.557 1025.25 168.557 1024.65V1016.05H170.443C171.065 1016.05 171.512 1016.5 171.512 1017.12V1025.72H169.626ZM178.266 1025.95C175.155 1025.95 173.638 1023.67 173.638 1020.99C173.638 1018.11 175.038 1015.8 178.363 1015.8C180.016 1015.8 181.28 1016.13 181.28 1017.39V1018.29C180.58 1018.09 179.938 1017.98 179.257 1017.98C177.644 1017.98 176.671 1018.85 176.671 1020.99C176.671 1022.96 177.721 1023.77 179.238 1023.77C179.899 1023.77 180.56 1023.64 181.299 1023.38V1024.26C181.299 1025.62 180.035 1025.95 178.266 1025.95ZM186.428 1025.95C184.6 1025.95 182.714 1024.53 182.714 1020.93C182.714 1017.71 184.367 1015.8 188.061 1015.8C189.539 1015.8 190.395 1015.92 191.969 1016.15V1025.72H190.297C189.617 1025.72 189.247 1025.35 189.247 1024.67V1024.49C188.936 1024.88 188.042 1025.95 186.428 1025.95ZM187.692 1023.64C188.159 1023.64 188.722 1023.38 189.014 1023.09V1018.04C188.684 1017.92 188.178 1017.86 187.828 1017.86C186.681 1017.86 185.748 1018.58 185.748 1020.82C185.748 1023.07 186.817 1023.64 187.692 1023.64Z" fill="black"/>
<path d="M759.148 629.405L753.911 620.415L746.532 612.242L740.576 600.324V581.184L735.501 576.343L723.005 562.918V559.934L715.77 550.949L701.357 543.588L694.951 536.231L692.654 522.523V509.271L700.634 496.612L705.434 491.104V477.591L696.08 473.899L691.361 467.579L678.278 455.197V441.92L667.623 436.66C666.991 437.687 666.718 438.364 666.718 438.364C666.718 438.364 671.898 440.271 664.912 440.796C657.926 441.321 652.895 440.867 650.354 440.796C647.813 440.725 639.584 440.167 636.407 438.364C633.232 436.561 626.259 435.968 626.259 435.968L620.551 438.364C620.551 438.364 614.837 436.599 612.933 438.364C612.317 438.935 611.171 439.508 609.773 440.02L609.761 440.028C606.586 441.691 607.732 445.061 606.266 447.808C604.801 450.551 601.869 451.01 599.914 453.298C597.962 455.585 596.496 456.501 592.099 458.79C587.702 461.078 592.099 461.078 592.099 463.824C592.099 466.568 590.232 469.314 589.228 473.151C588.222 476.987 588.828 483.624 588.828 483.624V493.566C588.828 498.144 587.532 500.431 587.042 503.895C586.553 507.361 585.059 507.754 584.081 509.968C583.104 512.184 579.296 513.244 578.319 514.616C577.34 515.991 571.528 521.024 570.063 522.855C568.597 524.686 561.783 529.261 560.804 530.635C559.828 532.007 550.56 535.21 549.091 537.956C547.628 540.702 541.771 543.446 540.305 546.651C538.839 549.854 532.492 551.226 530.048 553.057C529.338 553.589 528.082 554.279 526.619 555.022L538.385 580.367C538.385 580.367 547.111 583.636 550.603 583.636C554.092 583.636 561.073 586.905 563.69 589.735C566.31 592.562 580.269 589.735 580.269 589.735C580.269 589.735 586.378 595.078 588.995 595.897C591.614 596.713 599.468 604.069 602.085 605.703C604.702 607.338 613.428 623.684 616.047 624.501C618.664 625.317 628.262 634.309 634.908 637.578C641.555 640.846 649.203 651.16 649.203 651.16L656.032 659.644L675.38 665.276L701.557 664.549C701.557 664.549 706.794 666.184 711.079 664.549C715.367 662.913 718.136 658.011 718.136 658.011L721.628 647.759L728.594 641.468H737.332L748.678 641.567L754.933 644.156C755.788 639.201 757.439 634.251 759.982 630.574L759.148 629.405Z" fill="#BDE2FF"/>
<path d="M536.346 580.498L524.141 554.68L524.159 554.672C520.463 556.512 515.455 558.679 514.016 559.671C511.988 561.071 506.922 562.468 506.922 562.468L499.32 567.596L490.198 575.985C490.198 575.985 479.051 576.918 477.528 575.985C476.01 575.053 468.913 575.985 468.913 575.985C468.913 575.985 462.832 573.655 460.806 569.925C458.778 566.198 458.778 565.731 458.778 565.731L458.602 558.154L458.655 560.479C455.627 564.114 450.429 570.39 450.04 571.109C449.488 572.124 448.383 573.139 448.659 575.172C448.935 577.205 446.865 577.711 446.865 578.473C446.865 579.235 447.831 590.159 447.831 590.159V598.032C447.831 599.303 445.761 602.351 445.761 602.351L442.859 608.447V612.257L439.548 619.115V625.72L436.349 636.399L435.152 645.192L432.66 650.883V653.937L435.847 659.401L445.853 661.256C445.853 661.256 455.251 661.904 458.652 661.346C462.053 660.788 471.312 657.769 471.312 657.769L484.043 652.59L493.739 641.916C495.254 640.242 499.799 635.789 499.799 635.789L504.347 628.823L504.042 624.922L497.074 616.561L493.134 612.381L489.801 604.854C489.801 604.854 488.891 601.509 489.801 601.155C490.708 600.799 497.981 597.608 497.981 597.608L506.467 593.705C506.467 593.705 521.921 589.523 524.141 590.04C526.361 590.557 533.741 586.457 533.741 586.457L544.142 582.968C540.381 581.981 536.346 580.498 536.346 580.498Z" fill="#BDE2FF"/>
<path d="M926.545 868.897C926.367 868.068 922.472 860.273 921.762 859.444C921.055 858.614 911.847 854.633 911.847 854.633L884.752 852.807L869.345 849.987L863.677 847.335C863.677 847.335 854.115 840.864 853.23 840.367C852.345 839.87 842.782 831.078 842.605 830.581C842.427 830.084 837.292 819.634 837.292 819.634L836.225 811.43C826.733 808.834 817.769 803.856 816.729 796.517L808.779 791.268L804.816 773.14C803.994 765.279 799.011 762.598 799.011 753.01C781.02 748.864 759.346 715.919 752.38 694.421L743.612 694.068C743.612 694.068 733.517 689.258 732.987 689.093C732.454 688.925 725.372 684.115 725.372 684.115L714.746 681.795L710.654 678.983C709.485 680.202 707.973 681.442 706.196 682.122C701.91 683.755 696.674 682.119 696.674 682.119L670.497 682.847L651.146 677.215L644.319 668.73C644.319 668.73 636.671 658.415 630.025 655.146C623.379 651.877 613.781 642.883 611.161 642.066C608.544 641.25 599.818 624.896 597.202 623.261C594.582 621.628 586.729 614.258 584.112 613.442C581.495 612.623 575.386 607.255 575.386 607.255C575.386 607.255 561.426 610.031 558.807 607.201C556.19 604.371 549.209 600.999 545.72 600.999C544.558 600.999 542.821 601.437 541.016 599.941L530.992 603.58C530.992 603.58 523.879 607.812 521.738 607.305C519.598 606.801 504.698 610.904 504.698 610.904L496.517 614.735C496.517 614.735 489.508 617.867 488.631 618.217C487.753 618.567 488.631 621.851 488.631 621.851L491.844 629.238L495.642 633.343L502.362 641.551L502.654 645.383L498.272 652.222C498.272 652.222 493.89 656.601 492.429 658.242C490.969 659.885 483.08 668.733 483.08 668.733L470.809 673.84C470.809 673.84 461.883 676.85 458.607 677.398C455.325 677.945 446.27 677.398 446.27 677.398L436.629 675.754L432.245 669.05C430.52 679.733 427.84 690.903 427.84 696.88C427.84 699.477 439.538 713.513 442.142 717.877C451.281 732.798 459.761 746.007 469.736 761.769C473.132 766.99 479.012 773.982 481.525 782.854C483.293 788.088 481.525 801.242 486.597 806.547C489.08 809.1 499.984 807.373 503.349 810.898C505.862 813.55 510.157 818.83 514.283 822.266C517.696 838.929 528.583 843.349 528.583 863.491C528.583 896.829 535.589 914.815 564.875 921.776C564.875 942.874 588.161 973.157 598.274 983.63C607.487 993.299 621.619 1001.16 617.447 1020.53L617.369 1020.87L620.711 1018.35L633.461 1003.42L638.066 995.292L648.336 991.311C648.336 991.311 661.619 990.317 662.504 990.317C663.389 990.317 668.171 990.482 668.879 990.482C669.586 990.482 677.911 992.804 678.441 992.969C678.974 993.137 687.119 994.463 688.004 994.628C688.891 994.792 697.921 997.115 698.629 997.283C699.339 997.447 703.234 997.78 704.119 998.112C705.004 998.444 707.661 998.941 711.204 999.77C714.746 1000.6 720.589 1000.93 721.829 1000.93C723.069 1000.93 726.079 1002.26 728.027 1000.93C729.974 999.605 737.414 992.969 739.362 991.143C741.309 989.32 744.4 983.845 746.751 982.022C749.102 980.196 756.362 973.895 758.132 972.733C759.904 971.572 767.342 967.923 770.352 965.768C773.362 963.61 776.727 961.122 779.384 960.293C782.039 959.464 789.477 957.308 790.362 957.141C791.249 956.976 799.924 956.476 799.924 956.476L848.095 952.995L864.387 946.026L877.845 941.218C877.845 941.218 892.012 936.573 892.72 936.573C893.43 936.573 907.595 929.11 907.595 929.11L912.732 922.971L921.055 908.21L925.127 895.769C925.127 895.769 926.19 889.632 926.19 888.801C926.19 887.971 927.963 880.841 927.963 879.182C927.963 877.521 926.723 869.726 926.545 868.897Z" fill="#75C3FF"/>
<path d="M775.323 746.476C775.257 746.009 775.323 745.436 775.323 744.949C775.323 734.423 779.212 728.495 779.212 717.913C779.212 714.401 779.212 711.791 778.363 708.297C769.939 710.021 773.127 720.957 763.105 723.569L766.16 741.895L775.323 746.476Z" fill="#BDE2FF"/>
<path d="M761.82 698.227L764.125 708.036L771.697 701.955L768.315 694.304L761.82 698.227Z" fill="#BDE2FF"/>
<path d="M898.206 735.867V703.444C869.455 727.138 864.531 763.114 808.271 763.114C804.069 763.114 799.12 762.404 794.086 761.035L795.247 769.195C795.247 769.195 800.433 779.645 800.611 780.142C800.788 780.639 810.376 789.431 811.261 789.93C812.146 790.427 821.724 796.896 821.724 796.896L827.396 799.548L842.804 802.368L869.902 804.194C869.902 804.194 873.847 805.901 876.771 807.311L879.16 798.443L885.946 783.441L890.982 769.456L899.34 754.485L904.072 745.203C902.284 742.442 899.804 739.358 898.206 735.867Z" fill="#BDE2FF"/>
<path d="M966.897 793.751V794.62C960.507 791.098 960.656 776.162 951.383 773.609C928.381 766.115 915.983 762.608 904.278 745.202L899.247 754.484L890.937 769.455L885.926 783.44L879.153 798.442L876.772 807.31L876.764 807.304C878.309 808.05 879.579 808.714 879.825 809.001C880.532 809.83 884.43 817.628 884.605 818.457C884.782 819.286 886.023 827.081 886.023 828.74C886.023 830.398 884.253 837.531 884.253 838.361C884.253 839.19 883.19 845.329 883.19 845.329L879.117 857.767L870.795 872.531L865.657 878.667C865.657 878.667 851.492 886.133 850.782 886.133C850.075 886.133 835.907 890.776 835.907 890.776L822.447 895.586L807.012 902.187L809.56 916.806L812.755 931.392L817.147 944.857L824.734 956.078L826.302 958.444C842.47 952.485 862.523 948.663 874.586 946.34C874.586 935.855 890.501 920.99 898.007 920.99C910.678 920.99 909.75 895.558 922.422 895.558C932.486 895.558 931.604 880.638 934.984 870.066C938.364 859.524 946.712 856.045 959.29 856.045C959.29 834.975 983.289 827.987 983.289 807.845C983.289 799.928 971.69 801.639 966.897 793.751Z" fill="#BDE2FF"/>
<path d="M847.967 981.634L846.4 979.268L838.813 968.047L834.421 954.582L831.226 939.996L828.677 925.377L827.823 925.745L779.652 929.226C779.652 929.226 770.975 929.726 770.09 929.891C769.205 930.056 761.767 932.214 759.11 933.043C756.455 933.872 753.09 936.36 750.08 938.515C747.07 940.673 739.632 944.322 737.86 945.484C736.09 946.642 728.827 952.946 726.479 954.772C724.128 956.595 721.037 962.07 719.09 963.893C717.14 965.719 709.702 972.353 707.755 973.682C705.807 975.008 702.797 973.682 701.557 973.682C700.317 973.682 694.472 973.35 690.932 972.52C687.389 971.691 684.732 971.192 683.847 970.862C682.962 970.53 679.067 970.198 678.357 970.033C677.649 969.865 668.617 967.543 667.732 967.378C666.847 967.213 658.702 965.884 658.169 965.719C657.639 965.552 649.314 963.232 648.607 963.232C647.899 963.232 643.117 963.064 642.232 963.064C641.347 963.064 628.064 964.061 628.064 964.061L617.792 968.042L613.189 976.169L600.439 991.098L597.097 993.618L597.175 993.281C595.438 1001.14 588.937 1017.77 598.134 1018.57C598.134 1035.36 604.195 1049.74 612.892 1063.51C618.436 1072.19 611.843 1072.21 613.942 1073.29C616.212 1074.45 637.609 1085.37 640.168 1085.37L645.407 1082.73C663.056 1082.73 665.297 1076.14 679.597 1065.67H705.609C716.528 1059.69 750.125 1035.07 760.144 1032.5C780.355 1027.22 806.398 1020.78 825.632 1011.14C824.004 1009.38 822.386 1005.69 822.386 1003.09C822.386 991.881 841.057 983.949 847.967 981.634Z" fill="#BDE2FF"/>
<path d="M1062.33 680.412C1059.93 679.664 1058.54 679.664 1058.54 675.176C1058.54 670.688 1055.44 662.459 1055.44 662.459L1049.9 655.726C1049.9 655.726 1044.34 651.238 1041.94 649.742C1039.54 648.246 1014.8 614.583 1014.8 614.583L1032.37 586.156L1029.98 571.192H1010.82L1008.42 560.347L1006.82 549.501V543.514L1005.62 533.041L1001.83 521.82L1001.13 511.347L1002.78 503.867L1005.2 497.882L1011.6 489.653L1016.4 475.313L1025.19 455.704L1024.72 446.994L1024.26 439.589L1022.86 432.618L1021.93 421.729L1002.87 419.551C1002.87 419.551 998.217 415.631 996.358 415.194C994.497 414.761 990.313 412.146 988.452 410.84C986.591 409.535 984.268 402.761 982.87 403.099C981.476 403.436 978.222 401.258 976.825 400.385C975.43 399.516 971.71 396.901 970.316 396.031C968.921 395.159 962.876 391.239 960.55 390.802C958.225 390.369 956.83 388.191 953.11 386.448C949.39 384.706 943.345 381.222 943.345 381.222C943.345 381.222 934.972 379.914 931.718 379.478C928.462 379.044 923.811 377.735 922.417 376.866C921.022 375.993 915.441 373.381 915.441 373.381C915.441 373.381 906.142 375.56 901.955 375.993C897.771 376.43 889.865 378.172 888.006 378.608C886.145 379.044 877.31 380.786 874.054 382.528C870.798 384.27 860.568 390.802 860.568 390.802L848.478 403.099L844.968 403.624C845.361 404.146 845.244 405.165 842.838 407.151C838.4 410.807 835.626 412.367 833.96 412.887C832.297 413.407 830.078 414.964 828.414 414.964C826.751 414.964 821.758 413.927 819.539 414.964C817.32 416.003 811.216 417.563 811.216 417.563C811.216 417.563 805.115 420.162 802.896 420.679C800.678 421.199 799.569 420.162 795.685 420.679C791.802 421.199 782.927 418.603 781.263 418.603C779.597 418.603 776.826 418.083 774.052 416.523C771.277 414.964 770.167 412.887 766.84 411.327C763.51 409.768 761.847 408.69 760.736 407.151C759.628 405.612 756.854 405.259 755.19 403.099C753.527 400.936 747.423 396.26 747.423 396.26L741.877 394.18L736.57 391.513L727.289 381.192V377.441L724.094 371.84V371.178C724.094 370.415 721.532 369.737 720.898 369.59C719.301 369.218 712.954 365.475 712.954 365.475C712.954 365.475 715.292 364.351 713.053 363.231C710.816 362.107 711.265 359.863 710.867 358.367C710.466 356.871 711.29 356.123 710.892 353.503C710.491 350.886 711.072 347.146 710.788 345.65C710.504 344.154 709.312 338.917 708.914 337.421C708.514 335.925 708.519 333.681 706.921 332.185C705.323 330.689 703.328 329.565 701.73 329.565C700.133 329.565 696.539 331.061 696.539 331.061C696.539 331.061 695.342 332.557 694.143 333.305C692.946 334.054 685.359 341.534 684.162 342.282C682.963 343.03 679.354 346.023 676.966 346.771C674.577 347.519 671.782 348.482 671.782 348.482L665.793 354.251H653.012L646.198 351.83L639.785 348.312L632.148 340.915L627.654 335.294L617.929 330.891C618.325 329.89 615.475 335.844 615.475 337.233V359.488L619.07 370.382C619.07 370.382 618.015 374.018 619.268 377.256C620.523 380.494 616.846 384.613 619.37 386.418C621.893 388.226 623.848 391.655 623.848 391.655C623.848 391.655 625.141 394.87 623.873 398.39C623.145 400.406 622.022 402.422 621.178 403.793L620.787 403.791L631.45 409.048V422.328L644.73 434.71L649.049 441.029L658.604 444.721V458.235L653.803 463.743L645.826 476.399V489.653L648.222 503.362L654.529 510.718L668.841 518.08L676.174 527.064V530.049L688.671 543.474L693.745 548.314V567.452L699.704 579.37L706.883 587.543L712.218 596.535L713.103 597.611C715.51 594.104 719.291 591.19 724.192 591.19C747.735 591.19 766.221 618.409 775.497 637.651C777.173 641.176 774.665 648.18 779.646 653.457C788.889 663.07 802.326 658.211 812.36 668.824C820.769 677.57 827.547 689.389 840.997 693.878H882.982C887.965 687.893 891.373 680.207 900.634 680.207C918.179 680.207 918.179 706.351 926.54 715.069C927.453 715.952 951.759 722.814 955.993 722.814C978.293 722.814 1014.54 733.038 1030.85 733.327L1029.98 726.534L1033.18 719.327C1033.18 719.327 1031.58 717.823 1033.18 714.831C1034.78 711.839 1036.37 708.773 1038.77 706.937C1041.17 705.104 1047.55 701.168 1047.55 701.168C1047.55 701.168 1053.94 702.471 1056.34 701.168C1058.74 699.862 1062.33 697.618 1062.33 697.618L1065.92 694.298V687.145C1065.92 687.145 1064.73 681.16 1062.33 680.412Z" fill="#BDE2FF"/>
<path d="M1391.83 449.576C1385.92 447.994 1385.08 445.623 1380.85 444.041C1376.63 442.458 1373.25 440.876 1372.41 436.923C1371.57 432.967 1371.57 422.687 1371.57 422.687L1364.81 416.345L1349.45 412.777L1333.48 417.093H1301.08C1301.08 417.093 1288.82 420.686 1284.59 422.268C1280.37 423.851 1273.62 429.201 1273.62 429.201C1273.62 429.201 1267.31 434.643 1267.59 437.016C1267.87 439.387 1267.19 444.771 1267.19 444.771V455.112C1267.19 458.277 1263.65 463.021 1262.57 465.395C1261.5 467.768 1259.06 474.095 1257.37 479.631C1255.68 485.166 1254.1 485.166 1253.25 488.331C1252.41 491.493 1243.61 493.076 1241.08 497.135C1238.55 501.198 1233.65 497.135 1233.65 497.135V508.103C1233.65 512.059 1229.57 518.386 1229.57 518.386L1223.99 526.295L1216.1 531.425C1216.1 531.425 1212.77 535.784 1212.77 538.948C1212.77 542.111 1210.26 551.602 1208.57 553.976C1206.88 556.349 1199.3 553.976 1199.3 553.976L1186.64 559.511C1186.64 559.511 1178.2 566.629 1174.17 569.794C1170.13 572.956 1168.07 568.212 1163.84 569.794C1159.62 571.374 1158.78 572.165 1155.86 577.703C1152.95 583.239 1153.71 582.448 1149.35 589.566C1145 596.684 1151.18 599.057 1149.35 602.651C1147.53 606.244 1140.2 612.713 1140.2 612.713C1140.2 612.713 1127.54 614.876 1123.31 616.456C1119.09 618.038 1116.56 618.413 1110.65 621.692C1104.74 624.971 1092.28 622.065 1092.28 622.065H1070.96L1050.75 617.576H1034.66L1017.01 611.364L1014.81 614.772C1014.81 614.772 1039.57 648.341 1041.97 649.837C1044.36 651.333 1049.95 655.776 1049.95 655.776L1055.55 662.486C1055.55 662.486 1058.74 670.702 1058.74 675.19C1058.74 679.678 1059.94 679.673 1062.33 680.421C1064.73 681.169 1065.93 687.146 1065.93 687.146V694.302L1062.33 697.622C1062.33 697.622 1058.54 699.866 1056.14 701.169C1053.75 702.473 1047.46 701.169 1047.46 701.169C1047.46 701.169 1041.12 705.102 1038.72 706.938C1036.33 708.772 1034.75 711.835 1033.16 714.827C1031.56 717.819 1033.17 719.318 1033.17 719.318L1029.98 726.512L1030.85 733.767C1031.08 733.77 1031.33 734.277 1031.55 734.277H1035.77L1065.15 731.997C1066.82 730.286 1069.3 727.397 1072.61 725.602L1094.43 731.624C1102.94 731.624 1105.44 724.6 1115.49 724.6C1124.78 724.6 1131.45 722.731 1140.68 725.384C1150.76 728.893 1155.76 749.048 1162.57 760.474C1166.87 767.268 1175.47 775.207 1185.07 781.309L1199.35 771.421L1207.78 766.702C1207.78 766.702 1217.83 765.133 1224.2 763.55C1230.56 761.971 1240.69 759.96 1240.69 759.96L1250.82 758.42L1255.89 755.375C1255.89 755.375 1268.09 748.196 1263.25 745.204C1258.42 742.209 1255.04 737.799 1251.66 733.283C1248.28 728.764 1244.91 726.391 1244.06 723.228C1243.22 720.064 1239.84 716.902 1239 712.946C1238.15 708.992 1239.84 699.501 1237.31 698.71C1234.77 697.918 1226.26 694.756 1224.19 691.592C1222.11 688.429 1219.58 687.638 1219.58 685.265C1219.58 682.891 1218.66 682.1 1224.19 677.356C1229.71 672.611 1233.93 667.864 1235.62 665.493C1237.31 663.12 1240.68 661.537 1244.91 661.537C1249.13 661.537 1263.02 664.702 1263.25 664.702C1263.48 664.702 1266.02 663.911 1268.55 661.537C1271.08 659.166 1275.31 653.628 1278.68 649.675C1282.06 645.719 1287.13 640.183 1292.19 633.065C1297.26 625.947 1304.86 624.365 1308.24 618.829C1311.61 613.293 1313.3 614.085 1317.52 608.546C1321.75 603.011 1325.12 597.475 1327.66 594.31C1330.19 591.148 1331.04 589.566 1335.26 584.03C1339.48 578.494 1342.01 572.165 1342.01 572.165C1342.01 572.165 1338.64 565.838 1342.01 562.676C1345.39 559.511 1352.34 553.976 1352.34 553.976L1360.59 540.531C1360.59 540.531 1356.75 534.184 1352.34 531.425C1347.92 528.666 1347.08 527.083 1342.01 524.712C1336.95 522.339 1333.22 519.177 1333.22 519.177C1333.22 519.177 1329.49 523.13 1329.49 512.059V495.639C1329.49 495.639 1328.1 490.063 1328.1 486.898C1328.1 483.736 1329.35 479.93 1329.35 479.93H1352.65C1352.65 479.93 1358.06 483.959 1360.59 483.959C1363.12 483.959 1374.1 482.981 1374.1 482.981C1374.1 482.981 1377.48 478.829 1381.7 479.276C1385.92 479.725 1385.08 483.457 1390.99 479.195C1396.9 474.932 1398.57 473.327 1401.11 470.953C1403.64 468.582 1406.16 461.368 1406.16 461.368V454.876C1406.16 454.805 1404.6 454.496 1402.41 453.748C1394.81 451.159 1397.74 451.159 1391.83 449.576Z" fill="#BDE2FF"/>
<path d="M1881.36 644.336C1876.57 648.246 1870.18 644.336 1870.18 644.336L1862.19 643.854L1857.4 632.537H1814.27L1804.69 632.867L1798.3 644.506H1788.71C1788.71 644.506 1782.33 647.125 1779.13 651.614C1775.94 656.102 1775.94 655.915 1775.94 655.915L1761.16 670.782L1754.37 678.169V694.626C1743.19 694.626 1729.21 694.302 1729.21 694.302C1729.21 694.302 1724.62 694.512 1719.83 694.837C1715.04 695.164 1708.85 695.374 1708.85 695.374H1696.07L1688.08 687.521L1684.89 674.243L1681.69 665.452H1673.71L1664.92 678.169V694.626L1660.53 701.166L1640.21 706.935L1625.69 703.978L1613.01 695.374H1600.23L1592.24 694.674L1579.46 681.724L1569.88 677.421H1552.31C1544.32 677.421 1536.34 674.056 1536.34 674.056L1525.16 667.884L1515.57 663.301L1506.75 658.767L1493.21 651.348L1482.83 644.506H1475.64L1475.55 632.78L1482.83 615.519L1493.21 607.945L1482.83 596.899L1475.55 590.295C1475.55 590.295 1461.35 578.676 1458.91 578.676H1448.48C1448.48 578.676 1442.1 570.82 1442.1 566.332C1442.1 561.844 1440.5 549.689 1440.5 549.689L1435.98 544.676L1434.11 542.769H1448.48L1450.08 531.799L1446.49 517.941L1442.89 507.608V495.639L1441.69 485.166L1429.11 477.989L1426.12 461.976H1418.13L1406.15 454.875V461.367C1406.15 461.367 1403.63 468.556 1401.1 470.93C1398.57 473.303 1396.69 474.883 1390.78 479.148C1384.87 483.411 1385.82 479.63 1381.59 479.181C1377.37 478.735 1374.04 482.792 1374.04 482.792C1374.04 482.792 1363.09 483.959 1360.56 483.959C1358.03 483.959 1352.64 479.929 1352.64 479.929H1329.34C1329.34 479.929 1328.1 483.736 1328.1 486.898C1328.1 490.062 1329.48 495.639 1329.48 495.639V512.055C1329.48 523.129 1333.21 519.174 1333.21 519.174C1333.21 519.174 1336.74 522.338 1341.81 524.712C1346.87 527.083 1347.82 528.665 1352.23 531.424C1356.65 534.183 1360.53 540.53 1360.53 540.53L1352.31 553.975C1352.31 553.975 1345.37 559.511 1341.99 562.675C1338.62 565.837 1342 572.164 1342 572.164C1342 572.164 1339.47 578.491 1335.25 584.029C1331.03 589.565 1330.18 591.147 1327.65 594.31C1325.12 597.474 1321.74 603.01 1317.52 608.546C1313.3 614.084 1311.61 613.293 1308.23 618.828C1304.85 624.364 1297.25 625.946 1292.19 633.064C1287.12 640.182 1282.05 645.718 1278.68 649.674C1275.3 653.627 1271.08 659.163 1268.54 661.536C1266.01 663.91 1263.48 664.701 1263.25 664.701C1263.01 664.701 1249.12 661.536 1244.9 661.536C1240.68 661.536 1237.3 663.119 1235.61 665.492C1233.93 667.863 1229.7 672.61 1224.18 677.355C1218.66 682.099 1219.57 682.89 1219.57 685.264C1219.57 687.638 1222.1 688.429 1224.18 691.591C1226.26 694.756 1234.77 697.918 1237.3 698.709C1239.84 699.5 1238.15 708.992 1238.99 712.945C1239.84 716.901 1243.21 720.063 1244.06 723.228C1244.9 726.39 1248.28 728.763 1251.66 733.28C1255.04 737.798 1258.41 742.208 1263.25 745.2C1268.08 748.195 1255.88 755.374 1255.88 755.374L1250.82 758.42L1240.69 759.956C1240.69 759.956 1230.56 761.967 1224.19 763.55C1217.83 765.132 1207.77 766.699 1207.77 766.699L1199.35 771.418L1185.07 781.3C1194.06 787.008 1203.93 791.099 1212.01 791.099C1218.74 791.099 1224.73 791.099 1231.43 792.909C1227.99 796.419 1227.16 804.264 1220.48 806.032C1212.9 808.743 1207.05 804.264 1199.51 809.569C1212.01 822.68 1222.17 850.038 1248.21 850.038C1269.96 850.038 1270.87 821.052 1281.75 809.083H1288.39C1288.39 813.571 1283.42 818.513 1283.42 821.079C1283.42 832.549 1291.78 842.948 1291.78 857.014C1291.78 867.941 1288.07 870.267 1287.75 881.992L1287.11 881.328C1287.11 883.853 1288.39 891.146 1288.39 893.743C1288.39 910.431 1297.71 927.145 1302.69 944.591C1308.61 964.021 1323.8 992.944 1327.89 1006.1C1331.29 1017.38 1331.29 1022.67 1338.01 1034.14C1344.68 1044.55 1340.52 1056.02 1347.24 1070.06C1350.65 1077.06 1362.34 1085.92 1365.77 1098.06C1371.57 1116.49 1380.8 1134.01 1387.53 1155.18C1388.38 1157.74 1390.88 1163.93 1395.02 1163.93C1395.94 1170.07 1400.96 1173.59 1407.67 1172.76C1414.41 1172.76 1415.23 1162.18 1418.55 1155.18C1422.86 1146.44 1424.48 1149.81 1434.48 1144.58C1441.26 1141.07 1438.75 1118.29 1450.53 1114.79C1453.03 1113.91 1458.91 1113.91 1458.91 1111.33L1463.07 1110.41L1458.91 1087.57C1458.91 1070.91 1469.04 1056.86 1469.04 1034.98C1469.04 1020.94 1463.07 1012.17 1463.07 996.395C1463.07 977.95 1480.74 975.399 1495.81 970.091C1501.77 968.349 1511 957.795 1517.7 950.72C1533.67 934.101 1548.66 916.456 1565.53 898.982C1579.01 885.03 1603.29 880.638 1618.42 864.817C1625.98 856.928 1625.17 847.272 1628.45 834.976C1631.05 827.173 1648.64 826.217 1654.52 813.051C1661.28 817.486 1661.28 821.795 1674.7 821.795C1677.23 821.795 1679.37 821.721 1681.91 821.556L1682.49 817.311V785.893L1674.51 781.3V763.451L1669.71 755.377V745.497L1676.5 735.838L1683.09 726.506L1672.01 725.725L1673.71 714.824H1701.66V733.401C1703.26 733.366 1704.14 734.089 1711.64 736.553C1722.82 740.225 1740.8 737.268 1740.8 737.268H1755.17L1762.36 735.838V760.458L1745.19 763.938L1739 770.931L1734.31 781.676L1740.8 789.633H1750.38L1755.17 782.152H1762.36V796.365L1770.35 802.522V823.296L1783.12 818.807V796.365L1789.51 781.3V770.931L1797.9 763.938C1797.9 763.938 1805.69 767.417 1808.88 763.938C1812.08 760.458 1816.67 755.377 1816.67 755.377V735.024L1823.46 725.353C1823.46 725.353 1818.87 718.564 1823.66 714.076C1828.45 709.588 1828.55 709.587 1828.55 709.587C1828.55 709.587 1822.03 709.205 1832.5 701.166C1842.97 693.13 1849.39 694.674 1849.39 694.674L1863.79 683.405H1875.77V670.688L1887.57 658.719C1887.57 658.719 1886.15 640.426 1881.36 644.336Z" fill="#BDE2FF"/>
<circle cx="574.25" cy="888.889" r="16.0408" fill="#005FA6" stroke="#005FA6" stroke-width="0.97217"/>
<g clip-path="url(#clip0_3087_6570)">
<mask id="mask0_3087_6570" style="mask-type:alpha" maskUnits="userSpaceOnUse" x="547" y="518" width="4" height="349">
<rect x="547.623" y="518.507" width="2.91651" height="348.037" fill="#D9D9D9"/>
</mask>
<g mask="url(#mask0_3087_6570)">
<path d="M550.053 867.03C500.958 777.266 341.717 582.67 97.5078 522.396" stroke="#E27438" stroke-width="2.43043" stroke-dasharray="4.86 4.86"/>
</g>
</g>
<path d="M545.912 934.477C545.388 934.477 544.863 934.419 544.435 934.361C543.793 934.302 543.482 933.875 543.482 933.252V931.678C543.91 931.833 544.454 931.969 545.076 931.969C546.01 931.969 546.262 931.444 546.262 930.258V920.614H548.304C548.985 920.614 549.354 920.984 549.354 921.664V930.414C549.354 932.864 548.518 934.477 545.912 934.477ZM556.745 934.458C553.187 934.458 551.476 932.65 551.476 929.519C551.476 926.739 552.993 924.308 556.376 924.308C559.331 924.308 560.77 926.175 560.77 929.267V930.044H554.509C554.529 931.561 555.695 932.397 557.445 932.397C558.476 932.397 559.642 932.144 560.634 931.697V932.222C560.634 933.252 560.07 933.836 559.176 934.147C558.515 934.361 557.678 934.458 556.745 934.458ZM554.509 928.547H557.931C557.931 927.206 557.367 926.331 556.298 926.331C554.995 926.331 554.568 927.614 554.509 928.547ZM571.895 934.225H570.243C569.562 934.225 569.193 933.855 569.193 933.175V933C568.882 933.389 567.987 934.458 566.373 934.458C564.546 934.458 562.66 933.039 562.66 929.442C562.66 926.447 564.137 924.308 567.19 924.308C567.735 924.308 568.493 924.425 568.959 924.522V920.614H570.845C571.526 920.614 571.895 920.984 571.895 921.664V934.225ZM568.959 931.6V926.622C568.648 926.506 568.182 926.428 567.773 926.428C566.626 926.428 565.693 927.089 565.693 929.325C565.693 931.58 566.762 932.144 567.637 932.144C568.104 932.144 568.668 931.891 568.959 931.6ZM583.231 934.225H581.578C580.898 934.225 580.528 933.855 580.528 933.175V933C580.217 933.389 579.323 934.458 577.709 934.458C575.881 934.458 573.995 933.039 573.995 929.442C573.995 926.447 575.473 924.308 578.526 924.308C579.07 924.308 579.828 924.425 580.295 924.522V920.614H582.181C582.862 920.614 583.231 920.984 583.231 921.664V934.225ZM580.295 931.6V926.622C579.984 926.506 579.517 926.428 579.109 926.428C577.962 926.428 577.029 927.089 577.029 929.325C577.029 931.58 578.098 932.144 578.973 932.144C579.44 932.144 580.003 931.891 580.295 931.6ZM589.045 934.458C587.217 934.458 585.331 933.039 585.331 929.442C585.331 926.214 586.984 924.308 590.678 924.308C592.156 924.308 593.011 924.425 594.586 924.658V934.225H592.914C592.234 934.225 591.864 933.855 591.864 933.175V933C591.553 933.389 590.659 934.458 589.045 934.458ZM590.309 932.144C590.775 932.144 591.339 931.891 591.631 931.6V926.544C591.3 926.428 590.795 926.369 590.445 926.369C589.298 926.369 588.364 927.089 588.364 929.325C588.364 931.58 589.434 932.144 590.309 932.144ZM597.951 934.225C597.271 934.225 596.901 933.855 596.901 933.175V920.614H598.749C599.429 920.614 599.799 920.945 599.799 921.625V925.728C600.81 924.795 601.937 924.308 602.987 924.308C604.562 924.308 605.845 925.456 605.845 927.458V934.225H603.94C603.259 934.225 602.89 933.855 602.89 933.175V928.411C602.89 927.594 602.423 927.108 601.762 927.108C601.179 927.108 600.44 927.497 599.857 928.353V934.225H597.951Z" fill="black"/>
<path d="M425.385 606.191C424.86 606.191 424.335 606.132 423.907 606.074C423.265 606.016 422.954 605.588 422.954 604.966V603.391C423.382 603.546 423.927 603.683 424.549 603.683C425.482 603.683 425.735 603.158 425.735 601.972V592.328H427.776C428.457 592.328 428.826 592.697 428.826 593.378V602.127C428.826 604.577 427.99 606.191 425.385 606.191ZM435.829 606.171C432.757 606.171 430.948 604.246 430.948 601.097C430.948 597.947 432.795 596.022 435.829 596.022C438.881 596.022 440.709 597.947 440.709 601.097C440.709 604.246 438.901 606.171 435.829 606.171ZM435.829 604.091C437.326 604.091 437.676 602.671 437.676 601.097C437.676 599.522 437.326 598.122 435.829 598.122C434.351 598.122 433.982 599.522 433.982 601.097C433.982 602.671 434.351 604.091 435.829 604.091ZM442.804 596.275H444.651C445.312 596.275 445.701 596.586 445.701 597.169V597.538C446.653 596.566 447.45 596.275 448.753 596.275V598.958C447.217 598.958 446.459 599.23 445.739 600.261V605.938H443.853C443.173 605.938 442.804 605.569 442.804 604.888V596.275ZM459.305 605.938H457.652C456.971 605.938 456.602 605.569 456.602 604.888V604.713C456.291 605.102 455.396 606.171 453.783 606.171C451.955 606.171 450.069 604.752 450.069 601.155C450.069 598.161 451.547 596.022 454.599 596.022C455.144 596.022 455.902 596.139 456.369 596.236V592.328H458.255C458.935 592.328 459.305 592.697 459.305 593.378V605.938ZM456.369 603.313V598.336C456.058 598.219 455.591 598.141 455.183 598.141C454.035 598.141 453.102 598.802 453.102 601.038C453.102 603.294 454.172 603.858 455.046 603.858C455.513 603.858 456.077 603.605 456.369 603.313ZM465.118 606.171C463.291 606.171 461.405 604.752 461.405 601.155C461.405 597.927 463.057 596.022 466.752 596.022C468.229 596.022 469.085 596.139 470.66 596.372V605.938H468.988C468.307 605.938 467.938 605.569 467.938 604.888V604.713C467.627 605.102 466.732 606.171 465.118 606.171ZM466.382 603.858C466.849 603.858 467.413 603.605 467.704 603.313V598.258C467.374 598.141 466.868 598.083 466.518 598.083C465.371 598.083 464.438 598.802 464.438 601.038C464.438 603.294 465.507 603.858 466.382 603.858ZM474.025 605.938C473.344 605.938 472.975 605.569 472.975 604.888V596.275H474.822C475.503 596.275 475.872 596.586 475.872 597.266V597.441C476.883 596.508 478.011 596.022 479.061 596.022C480.636 596.022 481.919 597.169 481.919 599.172V605.938H480.013C479.333 605.938 478.964 605.569 478.964 604.888V600.124C478.964 599.308 478.497 598.822 477.836 598.822C477.253 598.822 476.514 599.211 475.93 600.066V605.938H474.025Z" fill="black"/>
<path d="M602.651 549.497C602.049 549.497 601.582 549.03 601.582 548.428V535.887H603.623C604.226 535.887 604.693 536.353 604.693 536.956V549.497H602.651ZM607.218 539.834H609.065C609.726 539.834 610.115 540.145 610.115 540.728V541.098C611.067 540.125 611.865 539.834 613.167 539.834V542.517C611.631 542.517 610.873 542.789 610.154 543.82V549.497H608.268C607.587 549.497 607.218 549.128 607.218 548.447V539.834ZM618.064 549.73C616.236 549.73 614.35 548.311 614.35 544.714C614.35 541.486 616.003 539.581 619.697 539.581C621.175 539.581 622.03 539.698 623.605 539.931V549.497H621.933C621.253 549.497 620.883 549.128 620.883 548.447V548.272C620.572 548.661 619.678 549.73 618.064 549.73ZM619.328 547.417C619.794 547.417 620.358 547.164 620.65 546.872V541.817C620.319 541.7 619.814 541.642 619.464 541.642C618.317 541.642 617.383 542.361 617.383 544.597C617.383 546.853 618.453 547.417 619.328 547.417ZM634.787 553.697H632.901C632.22 553.697 631.851 553.327 631.851 552.647V549.186C631.248 549.517 630.451 549.73 629.77 549.73C627.165 549.73 625.551 548.039 625.551 544.792C625.551 541.078 627.515 539.581 630.84 539.581C632.24 539.581 632.881 539.639 634.787 539.873V553.697ZM630.49 547.65C630.937 547.65 631.423 547.533 631.851 547.319V541.778C631.559 541.681 631.054 541.603 630.645 541.603C629.517 541.603 628.584 542.303 628.584 544.714C628.584 547.144 629.342 547.65 630.49 547.65Z" fill="black"/>
<path d="M739.436 684.076C738.755 684.076 738.386 683.707 738.386 683.026V670.466H743.985C747.602 670.466 748.379 672.643 748.379 673.888C748.379 675.404 747.543 676.532 746.61 676.882C747.699 677.232 748.749 678.476 748.749 680.304C748.749 682.112 747.718 684.076 744.374 684.076H739.436ZM741.458 676.182H743.013C744.355 676.182 745.152 675.521 745.152 674.374C745.152 673.266 744.432 672.663 742.955 672.663H741.458V676.182ZM741.458 681.879H743.033C744.452 681.879 745.424 681.354 745.424 680.032C745.424 678.768 744.607 678.282 742.994 678.282H741.458V681.879ZM754.033 684.309C752.205 684.309 750.319 682.89 750.319 679.293C750.319 676.065 751.972 674.16 755.666 674.16C757.144 674.16 757.999 674.277 759.574 674.51V684.076H757.902C757.222 684.076 756.852 683.707 756.852 683.026V682.851C756.541 683.24 755.647 684.309 754.033 684.309ZM755.297 681.996C755.763 681.996 756.327 681.743 756.619 681.451V676.396C756.288 676.279 755.783 676.221 755.433 676.221C754.286 676.221 753.352 676.94 753.352 679.176C753.352 681.432 754.422 681.996 755.297 681.996ZM762.94 684.076C762.259 684.076 761.89 683.707 761.89 683.026V670.466H763.737C764.417 670.466 764.787 670.796 764.787 671.477V675.579C765.798 674.646 766.925 674.16 767.975 674.16C769.55 674.16 770.834 675.307 770.834 677.31V684.076H768.928C768.248 684.076 767.878 683.707 767.878 683.026V678.263C767.878 677.446 767.412 676.96 766.75 676.96C766.167 676.96 765.428 677.349 764.845 678.204V684.076H762.94ZM773.13 674.413H774.977C775.639 674.413 776.027 674.724 776.027 675.307V675.677C776.98 674.704 777.777 674.413 779.08 674.413V677.096C777.544 677.096 776.786 677.368 776.066 678.399V684.076H774.18C773.5 684.076 773.13 683.707 773.13 683.026V674.413ZM783.977 684.309C782.149 684.309 780.263 682.89 780.263 679.293C780.263 676.065 781.916 674.16 785.61 674.16C787.088 674.16 787.943 674.277 789.518 674.51V684.076H787.846C787.165 684.076 786.796 683.707 786.796 683.026V682.851C786.485 683.24 785.59 684.309 783.977 684.309ZM785.24 681.996C785.707 681.996 786.271 681.743 786.563 681.451V676.396C786.232 676.279 785.726 676.221 785.377 676.221C784.229 676.221 783.296 676.94 783.296 679.176C783.296 681.432 784.365 681.996 785.24 681.996ZM793.33 673.635C792.261 673.635 791.775 673.168 791.775 672.099C791.775 671.03 792.261 670.563 793.33 670.563C794.419 670.563 794.905 671.03 794.905 672.099C794.905 673.168 794.419 673.635 793.33 673.635ZM792.922 684.076C792.319 684.076 791.853 683.61 791.853 683.007V674.413H793.739C794.361 674.413 794.808 674.86 794.808 675.482V684.076H792.922ZM798.276 684.076C797.595 684.076 797.226 683.707 797.226 683.026V674.413H799.073C799.753 674.413 800.123 674.724 800.123 675.404V675.579C801.134 674.646 802.262 674.16 803.312 674.16C804.886 674.16 806.17 675.307 806.17 677.31V684.076H804.264C803.584 684.076 803.214 683.707 803.214 683.026V678.263C803.214 677.446 802.748 676.96 802.087 676.96C801.503 676.96 800.764 677.349 800.181 678.204V684.076H798.276Z" fill="black"/>
<path d="M791.808 743.144C788.775 743.144 787.861 741.88 787.803 739.508C784.673 738.75 783.662 735.347 783.662 732.703C783.662 729.553 785.003 725.626 789.456 725.626C793.908 725.626 795.269 729.534 795.269 732.703C795.269 735.522 794.142 739.1 790.622 739.605C790.642 740.228 790.836 740.655 792.042 740.655H793.325C794.006 740.655 794.375 741.025 794.375 741.705V743.144H791.808ZM789.456 737.233C791.536 737.233 792.022 734.764 792.022 732.703C792.022 730.409 791.536 728.134 789.456 728.134C787.414 728.134 786.909 730.409 786.909 732.703C786.909 734.9 787.375 737.233 789.456 737.233ZM800.929 739.722C799.101 739.722 797.215 738.303 797.215 734.706C797.215 731.478 798.868 729.573 802.562 729.573C804.04 729.573 804.895 729.689 806.47 729.923V739.489H804.798C804.118 739.489 803.748 739.119 803.748 738.439V738.264C803.437 738.653 802.543 739.722 800.929 739.722ZM802.193 737.408C802.659 737.408 803.223 737.156 803.515 736.864V731.809C803.184 731.692 802.679 731.634 802.329 731.634C801.182 731.634 800.248 732.353 800.248 734.589C800.248 736.844 801.318 737.408 802.193 737.408ZM809.291 726.987H811.177C811.858 726.987 812.227 727.356 812.227 728.037V729.825H813.433C814.113 729.825 814.483 730.195 814.483 730.875V732.023H812.227V736.028C812.227 736.883 812.596 737.233 813.355 737.233C813.569 737.233 813.783 737.194 814.016 737.156C814.502 737.078 814.813 737.272 814.813 737.758L814.832 739.353C813.996 739.586 813.16 739.722 812.422 739.722C810.613 739.722 809.291 738.905 809.291 736.689V732.023H809.038C808.358 732.023 807.988 731.653 807.988 730.973V729.825H809.291V726.987ZM819.917 739.722C818.089 739.722 816.203 738.303 816.203 734.706C816.203 731.478 817.856 729.573 821.55 729.573C823.028 729.573 823.883 729.689 825.458 729.923V739.489H823.786C823.105 739.489 822.736 739.119 822.736 738.439V738.264C822.425 738.653 821.53 739.722 819.917 739.722ZM821.18 737.408C821.647 737.408 822.211 737.156 822.503 736.864V731.809C822.172 731.692 821.667 731.634 821.317 731.634C820.169 731.634 819.236 732.353 819.236 734.589C819.236 736.844 820.306 737.408 821.18 737.408ZM827.773 729.825H829.62C830.281 729.825 830.67 730.136 830.67 730.72V731.089C831.623 730.117 832.42 729.825 833.723 729.825V732.509C832.187 732.509 831.429 732.781 830.709 733.811V739.489H828.823C828.143 739.489 827.773 739.119 827.773 738.439V729.825Z" fill="black"/>
<path d="M847.749 783.49C843.977 783.49 842.324 781.371 842.324 777.21V769.627H844.385C845.065 769.627 845.435 769.996 845.435 770.677V777.754C845.435 779.893 846.057 780.982 847.749 780.982C849.44 780.982 850.101 779.893 850.101 777.754V769.627H852.143C852.823 769.627 853.193 769.996 853.193 770.677V777.21C853.193 781.332 851.54 783.49 847.749 783.49ZM855.178 783.237C854.594 783.237 854.225 782.732 854.419 782.148L858.716 769.627H861.594C862.022 769.627 862.372 769.899 862.508 770.307L866.746 783.237H864.258C863.81 783.237 863.422 782.965 863.305 782.537L862.547 780.204H858.191L857.239 783.237H855.178ZM858.852 778.065H861.886L860.369 773.302L858.852 778.065ZM869.162 783.237C868.54 783.237 868.092 782.771 868.092 782.168V769.627H875.714C876.317 769.627 876.784 770.094 876.784 770.696V772.057H871.164V774.993H874.975C875.598 774.993 876.045 775.44 876.045 776.063V777.424H871.164V780.807H875.714C876.317 780.807 876.784 781.254 876.784 781.876V783.237H869.162Z" fill="black"/>
<path d="M906.361 839.876C901.928 839.876 900.567 835.987 900.567 832.837C900.567 829.687 901.908 825.76 906.361 825.76C910.813 825.76 912.175 829.668 912.175 832.837C912.175 835.987 910.813 839.876 906.361 839.876ZM906.361 837.368C908.441 837.368 908.927 834.898 908.927 832.837C908.927 830.543 908.441 828.268 906.361 828.268C904.319 828.268 903.814 830.543 903.814 832.837C903.814 835.034 904.281 837.368 906.361 837.368ZM914.412 829.96H916.259C916.94 829.96 917.309 830.271 917.309 830.951V831.126C918.262 830.212 919.37 829.707 920.362 829.707C921.412 829.707 922.306 830.251 922.85 831.437C923.998 830.212 925.184 829.707 926.078 829.707C927.75 829.707 928.917 830.971 928.917 832.896V839.623H927.011C926.331 839.623 925.961 839.254 925.961 838.573V833.809C925.961 832.935 925.514 832.507 924.95 832.507C924.387 832.507 923.667 832.954 923.142 833.751V839.623H921.237C920.556 839.623 920.187 839.254 920.187 838.573V833.809C920.187 832.935 919.74 832.507 919.176 832.507C918.612 832.507 917.892 832.935 917.367 833.751V839.623H915.462C914.781 839.623 914.412 839.254 914.412 838.573V829.96ZM934.638 839.856C932.811 839.856 930.925 838.437 930.925 834.84C930.925 831.612 932.577 829.707 936.271 829.707C937.749 829.707 938.605 829.824 940.18 830.057V839.623H938.507C937.827 839.623 937.457 839.254 937.457 838.573V838.398C937.146 838.787 936.252 839.856 934.638 839.856ZM935.902 837.543C936.369 837.543 936.933 837.29 937.224 836.998V831.943C936.894 831.826 936.388 831.768 936.038 831.768C934.891 831.768 933.958 832.487 933.958 834.723C933.958 836.979 935.027 837.543 935.902 837.543ZM943.545 839.623C942.864 839.623 942.495 839.254 942.495 838.573V829.96H944.342C945.023 829.96 945.392 830.271 945.392 830.951V831.126C946.403 830.193 947.531 829.707 948.581 829.707C950.156 829.707 951.439 830.854 951.439 832.857V839.623H949.533C948.853 839.623 948.483 839.254 948.483 838.573V833.809C948.483 832.993 948.017 832.507 947.356 832.507C946.772 832.507 946.034 832.896 945.45 833.751V839.623H943.545Z" fill="black"/>
<path d="M687.909 988.365C687.306 988.365 686.84 987.899 686.84 987.296V982.804L682.465 974.755H685.382C685.732 974.755 686.062 974.949 686.218 975.28L688.415 979.635L690.787 974.755H692.906C693.703 974.755 693.995 975.241 693.626 975.96L689.931 982.785V988.365H687.909ZM698.599 988.599C695.041 988.599 693.33 986.79 693.33 983.66C693.33 980.88 694.846 978.449 698.23 978.449C701.185 978.449 702.624 980.316 702.624 983.407V984.185H696.363C696.382 985.701 697.549 986.538 699.299 986.538C700.329 986.538 701.496 986.285 702.488 985.838V986.363C702.488 987.393 701.924 987.976 701.029 988.287C700.368 988.501 699.532 988.599 698.599 988.599ZM696.363 982.688H699.785C699.785 981.346 699.221 980.471 698.152 980.471C696.849 980.471 696.421 981.754 696.363 982.688ZM704.805 978.702H706.652C707.333 978.702 707.702 979.013 707.702 979.693V979.868C708.655 978.955 709.763 978.449 710.755 978.449C711.805 978.449 712.699 978.994 713.244 980.18C714.391 978.955 715.577 978.449 716.471 978.449C718.143 978.449 719.31 979.713 719.31 981.638V988.365H717.405C716.724 988.365 716.355 987.996 716.355 987.315V982.552C716.355 981.677 715.907 981.249 715.344 981.249C714.78 981.249 714.06 981.696 713.535 982.493V988.365H711.63C710.949 988.365 710.58 987.996 710.58 987.315V982.552C710.58 981.677 710.133 981.249 709.569 981.249C709.005 981.249 708.286 981.677 707.761 982.493V988.365H705.855C705.175 988.365 704.805 987.996 704.805 987.315V978.702ZM726.587 988.599C723.029 988.599 721.318 986.79 721.318 983.66C721.318 980.88 722.834 978.449 726.217 978.449C729.173 978.449 730.612 980.316 730.612 983.407V984.185H724.351C724.37 985.701 725.537 986.538 727.287 986.538C728.317 986.538 729.484 986.285 730.476 985.838V986.363C730.476 987.393 729.912 987.976 729.017 988.287C728.356 988.501 727.52 988.599 726.587 988.599ZM724.351 982.688H727.773C727.773 981.346 727.209 980.471 726.14 980.471C724.837 980.471 724.409 981.754 724.351 982.688ZM733.843 988.365C733.163 988.365 732.793 987.996 732.793 987.315V978.702H734.64C735.321 978.702 735.69 979.013 735.69 979.693V979.868C736.701 978.935 737.829 978.449 738.879 978.449C740.454 978.449 741.737 979.596 741.737 981.599V988.365H739.832C739.151 988.365 738.782 987.996 738.782 987.315V982.552C738.782 981.735 738.315 981.249 737.654 981.249C737.071 981.249 736.332 981.638 735.749 982.493V988.365H733.843Z" fill="black"/>
<path d="M1124.24 915.452C1123.64 915.452 1123.18 914.986 1123.18 914.383V901.842H1125.22C1125.82 901.842 1126.29 902.308 1126.29 902.911V915.452H1124.24ZM1129.86 915.452C1129.18 915.452 1128.81 915.083 1128.81 914.402V905.789H1130.66C1131.34 905.789 1131.71 906.1 1131.71 906.78V906.955C1132.72 906.022 1133.85 905.536 1134.9 905.536C1136.47 905.536 1137.76 906.683 1137.76 908.686V915.452H1135.85C1135.17 915.452 1134.8 915.083 1134.8 914.402V909.639C1134.8 908.822 1134.33 908.336 1133.67 908.336C1133.09 908.336 1132.35 908.725 1131.77 909.58V915.452H1129.86ZM1149 915.452H1147.34C1146.66 915.452 1146.29 915.083 1146.29 914.402V914.227C1145.98 914.616 1145.09 915.685 1143.47 915.685C1141.65 915.685 1139.76 914.266 1139.76 910.669C1139.76 907.675 1141.24 905.536 1144.29 905.536C1144.84 905.536 1145.59 905.653 1146.06 905.75V901.842H1147.95C1148.63 901.842 1149 902.211 1149 902.892V915.452ZM1146.06 912.827V907.85C1145.75 907.733 1145.28 907.655 1144.87 907.655C1143.73 907.655 1142.79 908.316 1142.79 910.552C1142.79 912.808 1143.86 913.372 1144.74 913.372C1145.2 913.372 1145.77 913.119 1146.06 912.827ZM1152.88 905.011C1151.82 905.011 1151.33 904.544 1151.33 903.475C1151.33 902.406 1151.82 901.939 1152.88 901.939C1153.97 901.939 1154.46 902.406 1154.46 903.475C1154.46 904.544 1153.97 905.011 1152.88 905.011ZM1152.48 915.452C1151.87 915.452 1151.41 914.986 1151.41 914.383V905.789H1153.29C1153.92 905.789 1154.36 906.236 1154.36 906.858V915.452H1152.48ZM1160.2 915.685C1158.37 915.685 1156.49 914.266 1156.49 910.669C1156.49 907.441 1158.14 905.536 1161.84 905.536C1163.31 905.536 1164.17 905.653 1165.74 905.886V915.452H1164.07C1163.39 915.452 1163.02 915.083 1163.02 914.402V914.227C1162.71 914.616 1161.82 915.685 1160.2 915.685ZM1161.47 913.372C1161.93 913.372 1162.5 913.119 1162.79 912.827V907.772C1162.46 907.655 1161.95 907.597 1161.6 907.597C1160.45 907.597 1159.52 908.316 1159.52 910.552C1159.52 912.808 1160.59 913.372 1161.47 913.372ZM1168.97 918.349L1168.08 918.194C1167.38 918.077 1167.09 917.63 1167.28 916.949L1168.64 912.4H1170.1C1170.88 912.4 1171.19 912.905 1170.9 913.624L1168.97 918.349ZM1178.62 915.452C1177.94 915.452 1177.57 915.083 1177.57 914.402V901.842H1182.8C1185.41 901.842 1187.63 903.047 1187.63 906.411C1187.63 909.366 1185.55 910.902 1182.61 910.902H1180.67V915.452H1178.62ZM1180.67 908.472H1181.93C1183.31 908.472 1184.4 907.986 1184.4 906.411C1184.4 904.544 1183.1 904.331 1181.93 904.331H1180.67V908.472ZM1192.65 915.685C1190.82 915.685 1188.94 914.266 1188.94 910.669C1188.94 907.441 1190.59 905.536 1194.29 905.536C1195.76 905.536 1196.62 905.653 1198.19 905.886V915.452H1196.52C1195.84 915.452 1195.47 915.083 1195.47 914.402V914.227C1195.16 914.616 1194.27 915.685 1192.65 915.685ZM1193.92 913.372C1194.38 913.372 1194.95 913.119 1195.24 912.827V907.772C1194.91 907.655 1194.4 907.597 1194.05 907.597C1192.9 907.597 1191.97 908.316 1191.97 910.552C1191.97 912.808 1193.04 913.372 1193.92 913.372ZM1201.58 915.452C1200.98 915.452 1200.51 914.986 1200.51 914.383V901.842H1202.39C1203 901.842 1203.46 902.308 1203.46 902.911V909.114L1206.59 905.789H1208.62C1209.49 905.789 1209.74 906.411 1209.12 907.033L1206.15 910.027L1209.9 915.452H1207.04C1206.71 915.452 1206.4 915.277 1206.23 914.986L1203.46 910.65V915.452H1201.58ZM1212.68 905.011C1211.61 905.011 1211.12 904.544 1211.12 903.475C1211.12 902.406 1211.61 901.939 1212.68 901.939C1213.77 901.939 1214.25 902.406 1214.25 903.475C1214.25 904.544 1213.77 905.011 1212.68 905.011ZM1212.27 915.452C1211.67 915.452 1211.2 914.986 1211.2 914.383V905.789H1213.09C1213.71 905.789 1214.15 906.236 1214.15 906.858V915.452H1212.27ZM1219.66 915.685C1218.94 915.685 1218.09 915.608 1217.37 915.472C1216.49 915.316 1216.09 914.772 1216.09 913.916V913.197C1216.88 913.411 1218.26 913.624 1219.29 913.624C1220.71 913.624 1221.12 913.333 1221.12 912.808C1221.12 912.438 1220.89 912.147 1219.72 911.777C1216.77 910.961 1216.05 909.93 1216.05 908.453C1216.05 906.664 1217.39 905.536 1220.07 905.536C1220.73 905.536 1221.37 905.594 1222.13 905.75C1222.99 905.925 1223.4 906.469 1223.4 907.305V907.947C1222.35 907.675 1221.2 907.558 1220.4 907.558C1219.04 907.558 1218.85 907.85 1218.85 908.239C1218.85 908.647 1219.22 908.822 1220.13 909.152C1222.42 909.891 1223.92 910.475 1223.92 912.633C1223.92 914.188 1222.89 915.685 1219.66 915.685ZM1226.29 902.95H1228.17C1228.85 902.95 1229.22 903.319 1229.22 904V905.789H1230.43C1231.11 905.789 1231.48 906.158 1231.48 906.839V907.986H1229.22V911.991C1229.22 912.847 1229.59 913.197 1230.35 913.197C1230.56 913.197 1230.78 913.158 1231.01 913.119C1231.5 913.041 1231.81 913.236 1231.81 913.722L1231.83 915.316C1230.99 915.549 1230.16 915.685 1229.42 915.685C1227.61 915.685 1226.29 914.869 1226.29 912.652V907.986H1226.03C1225.35 907.986 1224.98 907.616 1224.98 906.936V905.789H1226.29V902.95ZM1236.91 915.685C1235.08 915.685 1233.2 914.266 1233.2 910.669C1233.2 907.441 1234.85 905.536 1238.55 905.536C1240.02 905.536 1240.88 905.653 1242.45 905.886V915.452H1240.78C1240.1 915.452 1239.73 915.083 1239.73 914.402V914.227C1239.42 914.616 1238.53 915.685 1236.91 915.685ZM1238.18 913.372C1238.64 913.372 1239.21 913.119 1239.5 912.827V907.772C1239.17 907.655 1238.66 907.597 1238.31 907.597C1237.17 907.597 1236.23 908.316 1236.23 910.552C1236.23 912.808 1237.3 913.372 1238.18 913.372ZM1245.82 915.452C1245.14 915.452 1244.77 915.083 1244.77 914.402V905.789H1246.62C1247.3 905.789 1247.67 906.1 1247.67 906.78V906.955C1248.68 906.022 1249.81 905.536 1250.85 905.536C1252.43 905.536 1253.71 906.683 1253.71 908.686V915.452H1251.81C1251.13 915.452 1250.76 915.083 1250.76 914.402V909.639C1250.76 908.822 1250.29 908.336 1249.63 908.336C1249.05 908.336 1248.31 908.725 1247.72 909.58V915.452H1245.82ZM1126.87 949.705C1125.84 949.705 1124.83 949.549 1123.97 949.316C1123.18 949.122 1122.75 948.597 1122.75 947.741V946.691C1124.13 947.138 1125.59 947.333 1126.87 947.333C1128.56 947.333 1129.03 946.536 1129.03 945.816C1129.03 944.786 1128.02 944.3 1126.83 943.775C1124.85 942.9 1122.55 942.239 1122.55 939.478C1122.55 937.222 1124.26 935.589 1127.57 935.589C1128.58 935.589 1129.46 935.706 1130.35 935.939C1131.17 936.153 1131.56 936.678 1131.56 937.533V938.525C1130.51 938.214 1129.09 937.961 1127.61 937.961C1126.48 937.961 1125.8 938.389 1125.8 939.147C1125.8 940.022 1126.44 940.392 1127.9 941.014C1130.62 942.18 1132.22 943.075 1132.22 945.622C1132.22 948.499 1130.1 949.705 1126.87 949.705ZM1135.53 939.011C1134.46 939.011 1133.97 938.544 1133.97 937.475C1133.97 936.406 1134.46 935.939 1135.53 935.939C1136.62 935.939 1137.1 936.406 1137.1 937.475C1137.1 938.544 1136.62 939.011 1135.53 939.011ZM1135.12 949.452C1134.52 949.452 1134.05 948.986 1134.05 948.383V939.789H1135.94C1136.56 939.789 1137.01 940.236 1137.01 940.858V949.452H1135.12ZM1140.48 949.452C1139.79 949.452 1139.43 949.083 1139.43 948.402V939.789H1141.27C1141.95 939.789 1142.32 940.1 1142.32 940.78V940.955C1143.33 940.022 1144.46 939.536 1145.51 939.536C1147.09 939.536 1148.37 940.683 1148.37 942.686V949.452H1146.46C1145.78 949.452 1145.41 949.083 1145.41 948.402V943.639C1145.41 942.822 1144.95 942.336 1144.29 942.336C1143.7 942.336 1142.96 942.725 1142.38 943.58V949.452H1140.48ZM1159.55 939.828V950.347C1159.55 952.894 1157.32 953.885 1154.42 953.885C1153.52 953.885 1152.73 953.807 1152.09 953.613C1151.31 953.36 1150.86 952.894 1150.86 952.058V951.085C1151.85 951.396 1153.06 951.63 1154.09 951.63C1155.55 951.63 1156.62 951.163 1156.62 949.958V949.141C1156.01 949.472 1155.2 949.685 1154.52 949.685C1151.91 949.685 1150.37 947.994 1150.37 944.747C1150.37 941.033 1152.26 939.536 1155.59 939.536C1157.04 939.536 1157.63 939.594 1159.55 939.828ZM1155.25 947.605C1155.7 947.605 1156.17 947.488 1156.6 947.274V941.733C1156.27 941.616 1155.76 941.558 1155.41 941.558C1154.26 941.558 1153.33 942.258 1153.33 944.669C1153.33 947.08 1154.09 947.605 1155.25 947.605ZM1165.35 949.685C1163.52 949.685 1161.63 948.266 1161.63 944.669C1161.63 941.441 1163.29 939.536 1166.98 939.536C1168.46 939.536 1169.31 939.653 1170.89 939.886V949.452H1169.22C1168.54 949.452 1168.17 949.083 1168.17 948.402V948.227C1167.86 948.616 1166.96 949.685 1165.35 949.685ZM1166.61 947.372C1167.08 947.372 1167.64 947.119 1167.93 946.827V941.772C1167.6 941.655 1167.1 941.597 1166.75 941.597C1165.6 941.597 1164.67 942.316 1164.67 944.552C1164.67 946.808 1165.74 947.372 1166.61 947.372ZM1173.2 939.789H1174.88C1175.56 939.789 1175.93 940.158 1175.93 940.839V941.014C1176.24 940.625 1177.13 939.536 1178.73 939.536C1180.57 939.536 1182.44 940.975 1182.44 944.572C1182.44 947.586 1180.98 949.685 1177.91 949.685C1177.38 949.685 1176.63 949.588 1176.16 949.491V953.652H1174.25C1173.57 953.652 1173.2 953.282 1173.2 952.602V939.789ZM1176.16 942.414V947.391C1176.47 947.488 1176.94 947.566 1177.35 947.566C1178.49 947.566 1179.41 946.944 1179.41 944.689C1179.41 942.433 1178.36 941.869 1177.46 941.869C1177.02 941.869 1176.45 942.122 1176.16 942.414ZM1189.13 949.685C1186.06 949.685 1184.25 947.761 1184.25 944.611C1184.25 941.461 1186.1 939.536 1189.13 939.536C1192.18 939.536 1194.01 941.461 1194.01 944.611C1194.01 947.761 1192.2 949.685 1189.13 949.685ZM1189.13 947.605C1190.63 947.605 1190.98 946.186 1190.98 944.611C1190.98 943.036 1190.63 941.636 1189.13 941.636C1187.65 941.636 1187.28 943.036 1187.28 944.611C1187.28 946.186 1187.65 947.605 1189.13 947.605ZM1196.1 939.789H1197.95C1198.61 939.789 1199 940.1 1199 940.683V941.053C1199.95 940.08 1200.75 939.789 1202.05 939.789V942.472C1200.52 942.472 1199.76 942.744 1199.04 943.775V949.452H1197.15C1196.47 949.452 1196.1 949.083 1196.1 948.402V939.789ZM1208.66 949.685C1205.1 949.685 1203.39 947.877 1203.39 944.747C1203.39 941.966 1204.9 939.536 1208.29 939.536C1211.24 939.536 1212.68 941.403 1212.68 944.494V945.272H1206.42C1206.44 946.788 1207.61 947.624 1209.36 947.624C1210.39 947.624 1211.55 947.372 1212.55 946.925V947.449C1212.55 948.48 1211.98 949.063 1211.09 949.374C1210.43 949.588 1209.59 949.685 1208.66 949.685ZM1206.42 943.775H1209.84C1209.84 942.433 1209.28 941.558 1208.21 941.558C1206.91 941.558 1206.48 942.841 1206.42 943.775ZM1215.78 952.349L1214.88 952.194C1214.18 952.077 1213.89 951.63 1214.09 950.949L1215.45 946.4H1216.91C1217.68 946.4 1217.99 946.905 1217.7 947.624L1215.78 952.349ZM1225.45 949.452C1224.83 949.452 1224.38 948.986 1224.38 948.383V935.842H1231.55C1232.18 935.842 1232.62 936.308 1232.62 936.911V938.272H1227.45V941.519H1231.01C1231.61 941.519 1232.08 941.966 1232.08 942.589V943.95H1227.45V949.452H1225.45ZM1237.44 949.685C1235.62 949.685 1233.73 948.266 1233.73 944.669C1233.73 941.441 1235.38 939.536 1239.08 939.536C1240.56 939.536 1241.41 939.653 1242.99 939.886V949.452H1241.31C1240.63 949.452 1240.26 949.083 1240.26 948.402V948.227C1239.95 948.616 1239.06 949.685 1237.44 949.685ZM1238.71 947.372C1239.17 947.372 1239.74 947.119 1240.03 946.827V941.772C1239.7 941.655 1239.19 941.597 1238.84 941.597C1237.7 941.597 1236.76 942.316 1236.76 944.552C1236.76 946.808 1237.83 947.372 1238.71 947.372ZM1245.3 939.789H1247.15C1247.81 939.789 1248.2 940.1 1248.2 940.683V941.053C1249.15 940.08 1249.95 939.789 1251.25 939.789V942.472C1249.71 942.472 1248.96 942.744 1248.24 943.775V949.452H1246.35C1245.67 949.452 1245.3 949.083 1245.3 948.402V939.789ZM1258.54 949.452C1257.92 949.452 1257.47 948.986 1257.47 948.383V935.842H1265.1C1265.7 935.842 1266.17 936.308 1266.17 936.911V938.272H1260.55V941.208H1264.36C1264.98 941.208 1265.43 941.655 1265.43 942.278V943.639H1260.55V947.022H1265.1C1265.7 947.022 1266.17 947.469 1266.17 948.091V949.452H1258.54ZM1271.58 949.685C1269.76 949.685 1267.87 948.266 1267.87 944.669C1267.87 941.441 1269.52 939.536 1273.22 939.536C1274.69 939.536 1275.55 939.653 1277.13 939.886V949.452H1275.45C1274.77 949.452 1274.4 949.083 1274.4 948.402V948.227C1274.09 948.616 1273.2 949.685 1271.58 949.685ZM1272.85 947.372C1273.31 947.372 1273.88 947.119 1274.17 946.827V941.772C1273.84 941.655 1273.33 941.597 1272.98 941.597C1271.84 941.597 1270.9 942.316 1270.9 944.552C1270.9 946.808 1271.97 947.372 1272.85 947.372ZM1282.53 949.685C1281.81 949.685 1280.96 949.608 1280.24 949.472C1279.36 949.316 1278.95 948.772 1278.95 947.916V947.197C1279.75 947.411 1281.13 947.624 1282.16 947.624C1283.58 947.624 1283.99 947.333 1283.99 946.808C1283.99 946.438 1283.76 946.147 1282.59 945.777C1279.64 944.961 1278.92 943.93 1278.92 942.453C1278.92 940.664 1280.26 939.536 1282.94 939.536C1283.6 939.536 1284.24 939.594 1285 939.75C1285.86 939.925 1286.27 940.469 1286.27 941.305V941.947C1285.22 941.675 1284.07 941.558 1283.27 941.558C1281.91 941.558 1281.72 941.85 1281.72 942.239C1281.72 942.647 1282.09 942.822 1283 943.152C1285.29 943.891 1286.79 944.475 1286.79 946.633C1286.79 948.188 1285.76 949.685 1282.53 949.685ZM1289.16 936.95H1291.04C1291.72 936.95 1292.09 937.319 1292.09 938V939.789H1293.3C1293.98 939.789 1294.35 940.158 1294.35 940.839V941.986H1292.09V945.991C1292.09 946.847 1292.46 947.197 1293.22 947.197C1293.43 947.197 1293.65 947.158 1293.88 947.119C1294.37 947.041 1294.68 947.236 1294.68 947.722L1294.7 949.316C1293.86 949.549 1293.02 949.685 1292.29 949.685C1290.48 949.685 1289.16 948.869 1289.16 946.652V941.986H1288.9C1288.22 941.986 1287.85 941.616 1287.85 940.936V939.789H1289.16V936.95Z" fill="black"/>
<path d="M708.138 610.191L701.818 607.708L690.363 607.606H681.539L674.502 614.109L670.717 624.901C670.717 624.901 669.441 626.54 667.828 628.32V628.27L672.222 631.151L683.083 633.541C683.083 633.541 690.302 638.506 690.839 638.679C691.375 638.85 701.602 643.82 701.602 643.82L710.473 644.181C710.511 644.302 710.565 644.428 710.604 644.548C710.035 642.789 709.554 641.093 709.18 639.497C707.426 632.17 707.426 627.717 707.426 618.574C707.426 614.801 708.327 609.063 708.138 610.191Z" fill="#BDE2FF"/>
<path d="M695.593 630.606C694.971 630.606 694.524 630.14 694.524 629.537V616.996H696.526C697.149 616.996 697.596 617.463 697.596 618.065V622.499L701.873 616.996H704.012C704.887 616.996 705.14 617.56 704.595 618.221L700.026 623.704L705.606 630.606H702.457C702.107 630.606 701.776 630.431 701.582 630.159L697.596 624.968V630.606H695.593ZM706.348 620.943H708.254C708.934 620.943 709.304 621.312 709.304 621.993V626.757C709.304 627.554 709.771 628.059 710.432 628.059C711.015 628.059 711.754 627.67 712.337 626.815V620.943H714.243C714.923 620.943 715.292 621.312 715.292 621.993V630.606H713.445C712.765 630.606 712.395 630.276 712.395 629.595V629.44C711.384 630.373 710.257 630.84 709.207 630.84C707.632 630.84 706.348 629.712 706.348 627.709V620.943ZM720.117 630.606C719.67 630.606 719.3 630.315 719.164 629.887L716.598 620.943H718.834C719.3 620.943 719.689 621.254 719.786 621.701L721.05 626.776L722.236 622.518H723.772C724.219 622.518 724.589 622.79 724.705 623.237L725.697 626.776L727.116 620.943H728.944C729.683 620.943 730.014 621.41 729.8 622.11L727.35 630.606H725.444C725.017 630.606 724.647 630.354 724.511 629.926L723.364 626.329L721.983 630.606H720.117ZM734.646 630.84C732.819 630.84 730.933 629.42 730.933 625.823C730.933 622.596 732.585 620.69 736.279 620.69C737.757 620.69 738.613 620.807 740.188 621.04V630.606H738.515C737.835 630.606 737.466 630.237 737.466 629.557V629.382C737.154 629.77 736.26 630.84 734.646 630.84ZM735.91 628.526C736.377 628.526 736.941 628.273 737.232 627.982V622.926C736.902 622.81 736.396 622.751 736.046 622.751C734.899 622.751 733.966 623.471 733.966 625.707C733.966 627.962 735.035 628.526 735.91 628.526ZM744 620.165C742.931 620.165 742.445 619.699 742.445 618.629C742.445 617.56 742.931 617.093 744 617.093C745.089 617.093 745.575 617.56 745.575 618.629C745.575 619.699 745.089 620.165 744 620.165ZM743.592 630.606C742.989 630.606 742.522 630.14 742.522 629.537V620.943H744.408C745.031 620.943 745.478 621.39 745.478 622.012V630.606H743.592ZM748.401 618.104H750.287C750.967 618.104 751.337 618.474 751.337 619.154V620.943H752.542C753.223 620.943 753.592 621.312 753.592 621.993V623.14H751.337V627.146C751.337 628.001 751.706 628.351 752.465 628.351C752.678 628.351 752.892 628.312 753.126 628.273C753.612 628.195 753.923 628.39 753.923 628.876L753.942 630.47C753.106 630.704 752.27 630.84 751.531 630.84C749.723 630.84 748.401 630.023 748.401 627.807V623.14H748.148C747.468 623.14 747.098 622.771 747.098 622.09V620.943H748.401V618.104Z" fill="black"/>
<g clip-path="url(#clip1_3087_6570)">
<mask id="mask1_3087_6570" style="mask-type:alpha" maskUnits="userSpaceOnUse" x="528" y="847" width="153" height="4">
<rect x="528.82" y="847.097" width="151.659" height="2.91651" fill="#D9D9D9"/>
</mask>
<g mask="url(#mask1_3087_6570)">
<path d="M537.313 850.013C517.869 772.402 519.328 611.054 680.708 586.555" stroke="#E27438" stroke-width="2.43043" stroke-dasharray="4.86 4.86"/>
</g>
</g>
<g clip-path="url(#clip2_3087_6570)">
<mask id="mask2_3087_6570" style="mask-type:alpha" maskUnits="userSpaceOnUse" x="529" y="840" width="4" height="134">
<rect x="529.158" y="840.588" width="2.91651" height="133.187" fill="#D9D9D9"/>
</mask>
<g mask="url(#mask2_3087_6570)">
<path d="M531.588 852.255C446.038 832.65 251.895 829.506 159.733 973.776" stroke="#E27438" stroke-width="2.43043" stroke-dasharray="4.86 4.86"/>
</g>
</g>
<g clip-path="url(#clip3_3087_6570)">
<mask id="mask3_3087_6570" style="mask-type:alpha" maskUnits="userSpaceOnUse" x="537" y="681" width="4" height="169">
<rect x="537.703" y="681.133" width="2.91651" height="168.185" fill="#D9D9D9"/>
</mask>
<g mask="url(#mask3_3087_6570)">
<path d="M537.702 846.954C584.852 786.134 961.568 535.8 1341.69 846.954" stroke="#E27438" stroke-width="2.43043" stroke-dasharray="4.86 4.86"/>
</g>
</g>
<defs>
<clipPath id="clip0_3087_6570">
<rect width="453.031" height="348.037" fill="white" transform="translate(97.5078 518.507)"/>
</clipPath>
<clipPath id="clip1_3087_6570">
<rect width="153.603" height="273.18" fill="white" transform="translate(526.877 579.75)"/>
</clipPath>
<clipPath id="clip2_3087_6570">
<rect width="372.341" height="133.187" fill="white" transform="translate(159.732 840.588)"/>
</clipPath>
<clipPath id="clip3_3087_6570">
<rect width="809.818" height="168.185" fill="white" transform="translate(537.703 681.133)"/>
</clipPath>
</defs>
</svg>
