<svg width="354" height="124" viewBox="0 0 354 124" fill="none" xmlns="http://www.w3.org/2000/svg">
<mask id="path-1-inside-1_3104_5386" fill="white">
<path d="M0 10C0 4.47715 4.47715 0 10 0H344C349.523 0 354 4.47715 354 10V114C354 119.523 349.523 124 344 124H10C4.47716 124 0 119.523 0 114V10Z"/>
</mask>
<path d="M0 10C0 4.47715 4.47715 0 10 0H344C349.523 0 354 4.47715 354 10V114C354 119.523 349.523 124 344 124H10C4.47716 124 0 119.523 0 114V10Z" fill="#DBF0FF"/>
<path d="M0 0H354H0ZM354 114C354 122.837 346.837 130 338 130H16C7.16344 130 0 122.837 0 114C0 116.209 4.47715 118 10 118H344C349.523 118 354 116.209 354 114ZM0 124V0V124ZM354 0V124V0Z" fill="#005FA6" mask="url(#path-1-inside-1_3104_5386)"/>
<path d="M27.434 49.114H33.414V52H23.794V33.852H27.434V49.114ZM42.1236 52.234C40.7369 52.234 39.4889 51.9307 38.3796 51.324C37.2703 50.7 36.3949 49.8247 35.7536 48.698C35.1296 47.5713 34.8176 46.2713 34.8176 44.798C34.8176 43.3247 35.1383 42.0247 35.7796 40.898C36.4383 39.7713 37.3309 38.9047 38.4576 38.298C39.5843 37.674 40.8409 37.362 42.2276 37.362C43.6143 37.362 44.8709 37.674 45.9976 38.298C47.1243 38.9047 48.0083 39.7713 48.6496 40.898C49.3083 42.0247 49.6376 43.3247 49.6376 44.798C49.6376 46.2713 49.2996 47.5713 48.6236 48.698C47.9649 49.8247 47.0636 50.7 45.9196 51.324C44.7929 51.9307 43.5276 52.234 42.1236 52.234ZM42.1236 49.062C42.7823 49.062 43.3976 48.906 43.9696 48.594C44.5589 48.2647 45.0269 47.7793 45.3736 47.138C45.7203 46.4967 45.8936 45.7167 45.8936 44.798C45.8936 43.4287 45.5296 42.38 44.8016 41.652C44.0909 40.9067 43.2156 40.534 42.1756 40.534C41.1356 40.534 40.2603 40.9067 39.5496 41.652C38.8563 42.38 38.5096 43.4287 38.5096 44.798C38.5096 46.1673 38.8476 47.2247 39.5236 47.97C40.2169 48.698 41.0836 49.062 42.1236 49.062ZM51.3717 44.798C51.3717 43.3073 51.675 42.0073 52.2817 40.898C52.8883 39.7713 53.729 38.9047 54.8037 38.298C55.8783 37.674 57.109 37.362 58.4957 37.362C60.281 37.362 61.7543 37.8127 62.9157 38.714C64.0943 39.598 64.883 40.846 65.2817 42.458H61.3557C61.1477 41.834 60.7923 41.3487 60.2897 41.002C59.8043 40.638 59.1977 40.456 58.4697 40.456C57.4297 40.456 56.6063 40.8373 55.9997 41.6C55.393 42.3453 55.0897 43.4113 55.0897 44.798C55.0897 46.1673 55.393 47.2333 55.9997 47.996C56.6063 48.7413 57.4297 49.114 58.4697 49.114C59.943 49.114 60.905 48.4553 61.3557 47.138H65.2817C64.883 48.698 64.0943 49.9373 62.9157 50.856C61.737 51.7747 60.2637 52.234 58.4957 52.234C57.109 52.234 55.8783 51.9307 54.8037 51.324C53.729 50.7 52.8883 49.8333 52.2817 48.724C51.675 47.5973 51.3717 46.2887 51.3717 44.798ZM67.0123 44.746C67.0123 43.29 67.2983 41.9987 67.8703 40.872C68.4596 39.7453 69.2483 38.8787 70.2363 38.272C71.2416 37.6653 72.3596 37.362 73.5903 37.362C74.665 37.362 75.601 37.5787 76.3983 38.012C77.213 38.4453 77.863 38.9913 78.3483 39.65V37.596H82.0143V52H78.3483V49.894C77.8803 50.57 77.2303 51.1333 76.3983 51.584C75.5836 52.0173 74.639 52.234 73.5643 52.234C72.351 52.234 71.2416 51.922 70.2363 51.298C69.2483 50.674 68.4596 49.7987 67.8703 48.672C67.2983 47.528 67.0123 46.2193 67.0123 44.746ZM78.3483 44.798C78.3483 43.914 78.175 43.16 77.8283 42.536C77.4816 41.8947 77.0136 41.4093 76.4243 41.08C75.835 40.7333 75.2023 40.56 74.5263 40.56C73.8503 40.56 73.2263 40.7247 72.6543 41.054C72.0823 41.3833 71.6143 41.8687 71.2503 42.51C70.9036 43.134 70.7303 43.8793 70.7303 44.746C70.7303 45.6127 70.9036 46.3753 71.2503 47.034C71.6143 47.6753 72.0823 48.1693 72.6543 48.516C73.2436 48.8627 73.8676 49.036 74.5263 49.036C75.2023 49.036 75.835 48.8713 76.4243 48.542C77.0136 48.1953 77.4816 47.71 77.8283 47.086C78.175 46.4447 78.3483 45.682 78.3483 44.798ZM89.8074 40.586V47.554C89.8074 48.0393 89.9201 48.3947 90.1454 48.62C90.3881 48.828 90.7867 48.932 91.3414 48.932H93.0314V52H90.7434C87.6754 52 86.1414 50.5093 86.1414 47.528V40.586H84.4254V37.596H86.1414V34.034H89.8074V37.596H93.0314V40.586H89.8074ZM109.039 44.486C109.039 45.006 109.005 45.474 108.935 45.89H98.4055C98.4921 46.93 98.8561 47.7447 99.4975 48.334C100.139 48.9233 100.927 49.218 101.863 49.218C103.215 49.218 104.177 48.6373 104.749 47.476H108.675C108.259 48.8627 107.462 50.0067 106.283 50.908C105.105 51.792 103.657 52.234 101.941 52.234C100.555 52.234 99.3068 51.9307 98.1975 51.324C97.1055 50.7 96.2475 49.8247 95.6235 48.698C95.0168 47.5713 94.7135 46.2713 94.7135 44.798C94.7135 43.3073 95.0168 41.9987 95.6235 40.872C96.2301 39.7453 97.0795 38.8787 98.1715 38.272C99.2635 37.6653 100.52 37.362 101.941 37.362C103.311 37.362 104.533 37.6567 105.607 38.246C106.699 38.8353 107.54 39.676 108.129 40.768C108.736 41.8427 109.039 43.082 109.039 44.486ZM105.269 43.446C105.252 42.51 104.914 41.7647 104.255 41.21C103.597 40.638 102.791 40.352 101.837 40.352C100.936 40.352 100.173 40.6293 99.5495 41.184C98.9428 41.7213 98.5701 42.4753 98.4315 43.446H105.269ZM110.76 44.746C110.76 43.29 111.046 41.9987 111.618 40.872C112.208 39.7453 113.005 38.8787 114.01 38.272C115.016 37.6653 116.134 37.362 117.364 37.362C118.3 37.362 119.193 37.57 120.042 37.986C120.892 38.3847 121.568 38.922 122.07 39.598V32.76H125.762V52H122.07V49.868C121.62 50.5787 120.987 51.1507 120.172 51.584C119.358 52.0173 118.413 52.234 117.338 52.234C116.125 52.234 115.016 51.922 114.01 51.298C113.005 50.674 112.208 49.7987 111.618 48.672C111.046 47.528 110.76 46.2193 110.76 44.746ZM122.096 44.798C122.096 43.914 121.923 43.16 121.576 42.536C121.23 41.8947 120.762 41.4093 120.172 41.08C119.583 40.7333 118.95 40.56 118.274 40.56C117.598 40.56 116.974 40.7247 116.402 41.054C115.83 41.3833 115.362 41.8687 114.998 42.51C114.652 43.134 114.478 43.8793 114.478 44.746C114.478 45.6127 114.652 46.3753 114.998 47.034C115.362 47.6753 115.83 48.1693 116.402 48.516C116.992 48.8627 117.616 49.036 118.274 49.036C118.95 49.036 119.583 48.8713 120.172 48.542C120.762 48.1953 121.23 47.71 121.576 47.086C121.923 46.4447 122.096 45.682 122.096 44.798ZM134.577 44.746C134.577 43.29 134.863 41.9987 135.435 40.872C136.024 39.7453 136.813 38.8787 137.801 38.272C138.806 37.6653 139.924 37.362 141.155 37.362C142.229 37.362 143.165 37.5787 143.963 38.012C144.777 38.4453 145.427 38.9913 145.913 39.65V37.596H149.579V52H145.913V49.894C145.445 50.57 144.795 51.1333 143.963 51.584C143.148 52.0173 142.203 52.234 141.129 52.234C139.915 52.234 138.806 51.922 137.801 51.298C136.813 50.674 136.024 49.7987 135.435 48.672C134.863 47.528 134.577 46.2193 134.577 44.746ZM145.913 44.798C145.913 43.914 145.739 43.16 145.393 42.536C145.046 41.8947 144.578 41.4093 143.989 41.08C143.399 40.7333 142.767 40.56 142.091 40.56C141.415 40.56 140.791 40.7247 140.219 41.054C139.647 41.3833 139.179 41.8687 138.815 42.51C138.468 43.134 138.295 43.8793 138.295 44.746C138.295 45.6127 138.468 46.3753 138.815 47.034C139.179 47.6753 139.647 48.1693 140.219 48.516C140.808 48.8627 141.432 49.036 142.091 49.036C142.767 49.036 143.399 48.8713 143.989 48.542C144.578 48.1953 145.046 47.71 145.393 47.086C145.739 46.4447 145.913 45.682 145.913 44.798ZM157.372 40.586V47.554C157.372 48.0393 157.485 48.3947 157.71 48.62C157.953 48.828 158.351 48.932 158.906 48.932H160.596V52H158.308C155.24 52 153.706 50.5093 153.706 47.528V40.586H151.99V37.596H153.706V34.034H157.372V37.596H160.596V40.586H157.372ZM189.195 33.852V52H185.555V40.196L180.693 52H177.937L173.049 40.196V52H169.409V33.852H173.543L179.315 47.346L185.087 33.852H189.195ZM199.19 52.234C197.803 52.234 196.555 51.9307 195.446 51.324C194.337 50.7 193.461 49.8247 192.82 48.698C192.196 47.5713 191.884 46.2713 191.884 44.798C191.884 43.3247 192.205 42.0247 192.846 40.898C193.505 39.7713 194.397 38.9047 195.524 38.298C196.651 37.674 197.907 37.362 199.294 37.362C200.681 37.362 201.937 37.674 203.064 38.298C204.191 38.9047 205.075 39.7713 205.716 40.898C206.375 42.0247 206.704 43.3247 206.704 44.798C206.704 46.2713 206.366 47.5713 205.69 48.698C205.031 49.8247 204.13 50.7 202.986 51.324C201.859 51.9307 200.594 52.234 199.19 52.234ZM199.19 49.062C199.849 49.062 200.464 48.906 201.036 48.594C201.625 48.2647 202.093 47.7793 202.44 47.138C202.787 46.4967 202.96 45.7167 202.96 44.798C202.96 43.4287 202.596 42.38 201.868 41.652C201.157 40.9067 200.282 40.534 199.242 40.534C198.202 40.534 197.327 40.9067 196.616 41.652C195.923 42.38 195.576 43.4287 195.576 44.798C195.576 46.1673 195.914 47.2247 196.59 47.97C197.283 48.698 198.15 49.062 199.19 49.062ZM213.014 39.702C213.482 39.0087 214.123 38.4453 214.938 38.012C215.77 37.5787 216.715 37.362 217.772 37.362C219.003 37.362 220.112 37.6653 221.1 38.272C222.105 38.8787 222.894 39.7453 223.466 40.872C224.055 41.9813 224.35 43.2727 224.35 44.746C224.35 46.2193 224.055 47.528 223.466 48.672C222.894 49.7987 222.105 50.674 221.1 51.298C220.112 51.922 219.003 52.234 217.772 52.234C216.697 52.234 215.753 52.026 214.938 51.61C214.141 51.1767 213.499 50.622 213.014 49.946V52H209.374V32.76H213.014V39.702ZM220.632 44.746C220.632 43.8793 220.45 43.134 220.086 42.51C219.739 41.8687 219.271 41.3833 218.682 41.054C218.11 40.7247 217.486 40.56 216.81 40.56C216.151 40.56 215.527 40.7333 214.938 41.08C214.366 41.4093 213.898 41.8947 213.534 42.536C213.187 43.1773 213.014 43.9313 213.014 44.798C213.014 45.6647 213.187 46.4187 213.534 47.06C213.898 47.7013 214.366 48.1953 214.938 48.542C215.527 48.8713 216.151 49.036 216.81 49.036C217.486 49.036 218.11 48.8627 218.682 48.516C219.271 48.1693 219.739 47.6753 220.086 47.034C220.45 46.3927 220.632 45.63 220.632 44.746ZM228.841 35.88C228.2 35.88 227.663 35.6807 227.229 35.282C226.813 34.866 226.605 34.3547 226.605 33.748C226.605 33.1413 226.813 32.6387 227.229 32.24C227.663 31.824 228.2 31.616 228.841 31.616C229.483 31.616 230.011 31.824 230.427 32.24C230.861 32.6387 231.077 33.1413 231.077 33.748C231.077 34.3547 230.861 34.866 230.427 35.282C230.011 35.6807 229.483 35.88 228.841 35.88ZM230.635 37.596V52H226.995V37.596H230.635ZM237.872 32.76V52H234.232V32.76H237.872ZM255.248 37.596L246.33 58.812H242.456L245.576 51.636L239.804 37.596H243.886L247.604 47.658L251.374 37.596H255.248ZM273.987 33.852V46.592C273.987 48.36 273.476 49.738 272.453 50.726C271.431 51.6967 270.061 52.182 268.345 52.182C266.612 52.182 265.208 51.6793 264.133 50.674C263.076 49.6687 262.547 48.2647 262.547 46.462H266.187C266.205 47.242 266.387 47.8487 266.733 48.282C267.097 48.7153 267.617 48.932 268.293 48.932C268.952 48.932 269.455 48.724 269.801 48.308C270.148 47.892 270.321 47.32 270.321 46.592V33.852H273.987ZM281.873 36.79V41.34H287.983V44.226H281.873V49.036H288.763V52H278.233V33.826H288.763V36.79H281.873ZM298.415 33.852C300.322 33.852 301.995 34.2247 303.433 34.97C304.889 35.7153 306.007 36.7813 306.787 38.168C307.585 39.5373 307.983 41.132 307.983 42.952C307.983 44.772 307.585 46.3667 306.787 47.736C306.007 49.088 304.889 50.1367 303.433 50.882C301.995 51.6273 300.322 52 298.415 52H292.071V33.852H298.415ZM298.285 48.906C300.192 48.906 301.665 48.386 302.705 47.346C303.745 46.306 304.265 44.8413 304.265 42.952C304.265 41.0627 303.745 39.5893 302.705 38.532C301.665 37.4573 300.192 36.92 298.285 36.92H295.711V48.906H298.285ZM316.045 36.4V33.046H322.311V52H318.567V36.4H316.045ZM330.301 48.178L327.259 55.484H324.919L326.609 48.178H330.301ZM34.922 87.542H27.694L26.498 91H22.676L29.202 72.826H33.44L39.966 91H36.118L34.922 87.542ZM33.934 84.63L31.308 77.038L28.682 84.63H33.934ZM56.5826 76.388C58.2986 76.388 59.6853 76.934 60.7426 78.026C61.8 79.1007 62.3286 80.6087 62.3286 82.55V91H58.6886V83.044C58.6886 81.9 58.4026 81.0247 57.8306 80.418C57.2586 79.794 56.4786 79.482 55.4906 79.482C54.4853 79.482 53.688 79.794 53.0986 80.418C52.5266 81.0247 52.2406 81.9 52.2406 83.044V91H48.6006V76.596H52.2406V78.39C52.726 77.766 53.3413 77.2807 54.0866 76.934C54.8493 76.57 55.6813 76.388 56.5826 76.388ZM79.1801 83.486C79.1801 84.006 79.1454 84.474 79.0761 84.89H68.5461C68.6328 85.93 68.9968 86.7447 69.6381 87.334C70.2794 87.9233 71.0681 88.218 72.0041 88.218C73.3561 88.218 74.3181 87.6373 74.8901 86.476H78.8161C78.4001 87.8627 77.6028 89.0067 76.4241 89.908C75.2454 90.792 73.7981 91.234 72.0821 91.234C70.6954 91.234 69.4474 90.9307 68.3381 90.324C67.2461 89.7 66.3881 88.8247 65.7641 87.698C65.1574 86.5713 64.8541 85.2713 64.8541 83.798C64.8541 82.3073 65.1574 80.9987 65.7641 79.872C66.3708 78.7453 67.2201 77.8787 68.3121 77.272C69.4041 76.6653 70.6608 76.362 72.0821 76.362C73.4514 76.362 74.6734 76.6567 75.7481 77.246C76.8401 77.8353 77.6808 78.676 78.2701 79.768C78.8768 80.8427 79.1801 82.082 79.1801 83.486ZM75.4101 82.446C75.3928 81.51 75.0548 80.7647 74.3961 80.21C73.7374 79.638 72.9314 79.352 71.9781 79.352C71.0768 79.352 70.3141 79.6293 69.6901 80.184C69.0834 80.7213 68.7108 81.4753 68.5721 82.446H75.4101ZM95.435 76.596V91H91.769V89.18C91.301 89.804 90.6856 90.298 89.923 90.662C89.1776 91.0087 88.363 91.182 87.479 91.182C86.3523 91.182 85.3556 90.948 84.489 90.48C83.6223 89.9947 82.9376 89.2927 82.435 88.374C81.9496 87.438 81.707 86.3287 81.707 85.046V76.596H85.347V84.526C85.347 85.67 85.633 86.554 86.205 87.178C86.777 87.7847 87.557 88.088 88.545 88.088C89.5503 88.088 90.339 87.7847 90.911 87.178C91.483 86.554 91.769 85.67 91.769 84.526V76.596H95.435ZM103.264 79.586V86.554C103.264 87.0393 103.377 87.3947 103.602 87.62C103.845 87.828 104.244 87.932 104.798 87.932H106.488V91H104.2C101.132 91 99.5984 89.5093 99.5984 86.528V79.586H97.8824V76.596H99.5984V73.034H103.264V76.596H106.488V79.586H103.264ZM112.747 78.832C113.215 78.0693 113.821 77.4713 114.567 77.038C115.329 76.6047 116.196 76.388 117.167 76.388V80.21H116.205C115.061 80.21 114.194 80.4787 113.605 81.016C113.033 81.5533 112.747 82.4893 112.747 83.824V91H109.107V76.596H112.747V78.832ZM118.682 83.746C118.682 82.29 118.968 80.9987 119.54 79.872C120.13 78.7453 120.918 77.8787 121.906 77.272C122.912 76.6653 124.03 76.362 125.26 76.362C126.335 76.362 127.271 76.5787 128.068 77.012C128.883 77.4453 129.533 77.9913 130.018 78.65V76.596H133.684V91H130.018V88.894C129.55 89.57 128.9 90.1333 128.068 90.584C127.254 91.0173 126.309 91.234 125.234 91.234C124.021 91.234 122.912 90.922 121.906 90.298C120.918 89.674 120.13 88.7987 119.54 87.672C118.968 86.528 118.682 85.2193 118.682 83.746ZM130.018 83.798C130.018 82.914 129.845 82.16 129.498 81.536C129.152 80.8947 128.684 80.4093 128.094 80.08C127.505 79.7333 126.872 79.56 126.196 79.56C125.52 79.56 124.896 79.7247 124.324 80.054C123.752 80.3833 123.284 80.8687 122.92 81.51C122.574 82.134 122.4 82.8793 122.4 83.746C122.4 84.6127 122.574 85.3753 122.92 86.034C123.284 86.6753 123.752 87.1693 124.324 87.516C124.914 87.8627 125.538 88.036 126.196 88.036C126.872 88.036 127.505 87.8713 128.094 87.542C128.684 87.1953 129.152 86.71 129.498 86.086C129.845 85.4447 130.018 84.682 130.018 83.798ZM140.879 71.76V91H137.239V71.76H140.879ZM157.015 72.852C158.922 72.852 160.594 73.2247 162.033 73.97C163.489 74.7153 164.607 75.7813 165.387 77.168C166.184 78.5373 166.583 80.132 166.583 81.952C166.583 83.772 166.184 85.3667 165.387 86.736C164.607 88.088 163.489 89.1367 162.033 89.882C160.594 90.6273 158.922 91 157.015 91H150.671V72.852H157.015ZM156.885 87.906C158.792 87.906 160.265 87.386 161.305 86.346C162.345 85.306 162.865 83.8413 162.865 81.952C162.865 80.0627 162.345 78.5893 161.305 77.532C160.265 76.4573 158.792 75.92 156.885 75.92H154.311V87.906H156.885ZM168.372 83.746C168.372 82.29 168.658 80.9987 169.23 79.872C169.819 78.7453 170.608 77.8787 171.596 77.272C172.601 76.6653 173.719 76.362 174.95 76.362C176.024 76.362 176.96 76.5787 177.758 77.012C178.572 77.4453 179.222 77.9913 179.708 78.65V76.596H183.374V91H179.708V88.894C179.24 89.57 178.59 90.1333 177.758 90.584C176.943 91.0173 175.998 91.234 174.924 91.234C173.71 91.234 172.601 90.922 171.596 90.298C170.608 89.674 169.819 88.7987 169.23 87.672C168.658 86.528 168.372 85.2193 168.372 83.746ZM179.708 83.798C179.708 82.914 179.534 82.16 179.188 81.536C178.841 80.8947 178.373 80.4093 177.784 80.08C177.194 79.7333 176.562 79.56 175.886 79.56C175.21 79.56 174.586 79.7247 174.014 80.054C173.442 80.3833 172.974 80.8687 172.61 81.51C172.263 82.134 172.09 82.8793 172.09 83.746C172.09 84.6127 172.263 85.3753 172.61 86.034C172.974 86.6753 173.442 87.1693 174.014 87.516C174.603 87.8627 175.227 88.036 175.886 88.036C176.562 88.036 177.194 87.8713 177.784 87.542C178.373 87.1953 178.841 86.71 179.188 86.086C179.534 85.4447 179.708 84.682 179.708 83.798ZM191.167 79.586V86.554C191.167 87.0393 191.279 87.3947 191.505 87.62C191.747 87.828 192.146 87.932 192.701 87.932H194.391V91H192.103C189.035 91 187.501 89.5093 187.501 86.528V79.586H185.785V76.596H187.501V73.034H191.167V76.596H194.391V79.586H191.167ZM196.073 83.746C196.073 82.29 196.359 80.9987 196.931 79.872C197.52 78.7453 198.309 77.8787 199.297 77.272C200.302 76.6653 201.42 76.362 202.651 76.362C203.726 76.362 204.662 76.5787 205.459 77.012C206.274 77.4453 206.924 77.9913 207.409 78.65V76.596H211.075V91H207.409V88.894C206.941 89.57 206.291 90.1333 205.459 90.584C204.644 91.0173 203.7 91.234 202.625 91.234C201.412 91.234 200.302 90.922 199.297 90.298C198.309 89.674 197.52 88.7987 196.931 87.672C196.359 86.528 196.073 85.2193 196.073 83.746ZM207.409 83.798C207.409 82.914 207.236 82.16 206.889 81.536C206.542 80.8947 206.074 80.4093 205.485 80.08C204.896 79.7333 204.263 79.56 203.587 79.56C202.911 79.56 202.287 79.7247 201.715 80.054C201.143 80.3833 200.675 80.8687 200.311 81.51C199.964 82.134 199.791 82.8793 199.791 83.746C199.791 84.6127 199.964 85.3753 200.311 86.034C200.675 86.6753 201.143 87.1693 201.715 87.516C202.304 87.8627 202.928 88.036 203.587 88.036C204.263 88.036 204.896 87.8713 205.485 87.542C206.074 87.1953 206.542 86.71 206.889 86.086C207.236 85.4447 207.409 84.682 207.409 83.798ZM219.941 81.9C219.941 80.1147 220.34 78.52 221.137 77.116C221.952 75.6947 223.053 74.594 224.439 73.814C225.843 73.0167 227.412 72.618 229.145 72.618C231.173 72.618 232.95 73.138 234.475 74.178C236.001 75.218 237.067 76.6567 237.673 78.494H233.487C233.071 77.6273 232.482 76.9773 231.719 76.544C230.974 76.1107 230.107 75.894 229.119 75.894C228.062 75.894 227.117 76.1453 226.285 76.648C225.471 77.1333 224.829 77.8267 224.361 78.728C223.911 79.6293 223.685 80.6867 223.685 81.9C223.685 83.096 223.911 84.1533 224.361 85.072C224.829 85.9733 225.471 86.6753 226.285 87.178C227.117 87.6633 228.062 87.906 229.119 87.906C230.107 87.906 230.974 87.6893 231.719 87.256C232.482 86.8053 233.071 86.1467 233.487 85.28H237.673C237.067 87.1347 236.001 88.582 234.475 89.622C232.967 90.6447 231.191 91.156 229.145 91.156C227.412 91.156 225.843 90.766 224.439 89.986C223.053 89.1887 221.952 88.088 221.137 86.684C220.34 85.28 219.941 83.6853 219.941 81.9ZM254.172 83.486C254.172 84.006 254.138 84.474 254.068 84.89H243.538C243.625 85.93 243.989 86.7447 244.63 87.334C245.272 87.9233 246.06 88.218 246.996 88.218C248.348 88.218 249.31 87.6373 249.882 86.476H253.808C253.392 87.8627 252.595 89.0067 251.416 89.908C250.238 90.792 248.79 91.234 247.074 91.234C245.688 91.234 244.44 90.9307 243.33 90.324C242.238 89.7 241.38 88.8247 240.756 87.698C240.15 86.5713 239.846 85.2713 239.846 83.798C239.846 82.3073 240.15 80.9987 240.756 79.872C241.363 78.7453 242.212 77.8787 243.304 77.272C244.396 76.6653 245.653 76.362 247.074 76.362C248.444 76.362 249.666 76.6567 250.74 77.246C251.832 77.8353 252.673 78.676 253.262 79.768C253.869 80.8427 254.172 82.082 254.172 83.486ZM250.402 82.446C250.385 81.51 250.047 80.7647 249.388 80.21C248.73 79.638 247.924 79.352 246.97 79.352C246.069 79.352 245.306 79.6293 244.682 80.184C244.076 80.7213 243.703 81.4753 243.564 82.446H250.402ZM264.811 76.388C266.527 76.388 267.914 76.934 268.971 78.026C270.028 79.1007 270.557 80.6087 270.557 82.55V91H266.917V83.044C266.917 81.9 266.631 81.0247 266.059 80.418C265.487 79.794 264.707 79.482 263.719 79.482C262.714 79.482 261.916 79.794 261.327 80.418C260.755 81.0247 260.469 81.9 260.469 83.044V91H256.829V76.596H260.469V78.39C260.954 77.766 261.57 77.2807 262.315 76.934C263.078 76.57 263.91 76.388 264.811 76.388ZM278.257 79.586V86.554C278.257 87.0393 278.369 87.3947 278.595 87.62C278.837 87.828 279.236 87.932 279.791 87.932H281.481V91H279.193C276.125 91 274.591 89.5093 274.591 86.528V79.586H272.875V76.596H274.591V73.034H278.257V76.596H281.481V79.586H278.257ZM297.489 83.486C297.489 84.006 297.454 84.474 297.385 84.89H286.855C286.941 85.93 287.305 86.7447 287.947 87.334C288.588 87.9233 289.377 88.218 290.313 88.218C291.665 88.218 292.627 87.6373 293.199 86.476H297.125C296.709 87.8627 295.911 89.0067 294.733 89.908C293.554 90.792 292.107 91.234 290.391 91.234C289.004 91.234 287.756 90.9307 286.647 90.324C285.555 89.7 284.697 88.8247 284.073 87.698C283.466 86.5713 283.163 85.2713 283.163 83.798C283.163 82.3073 283.466 80.9987 284.073 79.872C284.679 78.7453 285.529 77.8787 286.621 77.272C287.713 76.6653 288.969 76.362 290.391 76.362C291.76 76.362 292.982 76.6567 294.057 77.246C295.149 77.8353 295.989 78.676 296.579 79.768C297.185 80.8427 297.489 82.082 297.489 83.486ZM293.719 82.446C293.701 81.51 293.363 80.7647 292.705 80.21C292.046 79.638 291.24 79.352 290.287 79.352C289.385 79.352 288.623 79.6293 287.999 80.184C287.392 80.7213 287.019 81.4753 286.881 82.446H293.719ZM303.786 78.832C304.254 78.0693 304.86 77.4713 305.606 77.038C306.368 76.6047 307.235 76.388 308.206 76.388V80.21H307.244C306.1 80.21 305.233 80.4787 304.644 81.016C304.072 81.5533 303.786 82.4893 303.786 83.824V91H300.146V76.596H303.786V78.832Z" fill="#001424"/>
</svg>
