<svg width="597" height="198" viewBox="0 0 597 198" fill="none" xmlns="http://www.w3.org/2000/svg">
<mask id="path-1-inside-1_3104_6014" fill="white">
<path d="M0 10C0 4.47715 4.47715 0 10 0H587C592.523 0 597 4.47715 597 10V188C597 193.523 592.523 198 587 198H9.99999C4.47714 198 0 193.523 0 188V10Z"/>
</mask>
<path d="M0 10C0 4.47715 4.47715 0 10 0H587C592.523 0 597 4.47715 597 10V188C597 193.523 592.523 198 587 198H9.99999C4.47714 198 0 193.523 0 188V10Z" fill="#DBF0FF"/>
<path d="M0 0H597H0ZM597 188C597 196.837 589.837 204 581 204H16C7.16344 204 0 196.837 0 188C0 190.209 4.47715 192 10 192H587C592.523 192 597 190.209 597 188ZM0 198V0V198ZM597 0V198V0Z" fill="#005FA6" mask="url(#path-1-inside-1_3104_6014)"/>
<path d="M210.879 68.32V63.352L222.255 47.08H229.131V62.992H232.083V68.32H229.131V73H222.975V68.32H210.879ZM223.407 53.848L217.359 62.992H223.407V53.848ZM252.807 47.728C255.471 47.728 257.799 48.256 259.791 49.312C261.783 50.368 263.319 51.856 264.399 53.776C265.503 55.672 266.055 57.868 266.055 60.364C266.055 62.836 265.503 65.032 264.399 66.952C263.319 68.872 261.771 70.36 259.755 71.416C257.763 72.472 255.447 73 252.807 73H243.339V47.728H252.807ZM252.411 67.672C254.739 67.672 256.551 67.036 257.847 65.764C259.143 64.492 259.791 62.692 259.791 60.364C259.791 58.036 259.143 56.224 257.847 54.928C256.551 53.632 254.739 52.984 252.411 52.984H249.495V67.672H252.411ZM272.592 50.824C271.512 50.824 270.624 50.512 269.928 49.888C269.256 49.24 268.92 48.448 268.92 47.512C268.92 46.552 269.256 45.76 269.928 45.136C270.624 44.488 271.512 44.164 272.592 44.164C273.648 44.164 274.512 44.488 275.184 45.136C275.88 45.76 276.228 46.552 276.228 47.512C276.228 48.448 275.88 49.24 275.184 49.888C274.512 50.512 273.648 50.824 272.592 50.824ZM275.652 52.912V73H269.496V52.912H275.652ZM289.149 67.24L293.505 52.912H300.057L292.929 73H285.333L278.205 52.912H284.793L289.149 67.24ZM321.584 62.632C321.584 63.208 321.548 63.808 321.476 64.432H307.544C307.64 65.68 308.036 66.64 308.732 67.312C309.452 67.96 310.328 68.284 311.36 68.284C312.896 68.284 313.964 67.636 314.564 66.34H321.116C320.78 67.66 320.168 68.848 319.28 69.904C318.416 70.96 317.324 71.788 316.004 72.388C314.684 72.988 313.208 73.288 311.576 73.288C309.608 73.288 307.856 72.868 306.32 72.028C304.784 71.188 303.584 69.988 302.72 68.428C301.856 66.868 301.424 65.044 301.424 62.956C301.424 60.868 301.844 59.044 302.684 57.484C303.548 55.924 304.748 54.724 306.284 53.884C307.82 53.044 309.584 52.624 311.576 52.624C313.52 52.624 315.248 53.032 316.76 53.848C318.272 54.664 319.448 55.828 320.288 57.34C321.152 58.852 321.584 60.616 321.584 62.632ZM315.284 61.012C315.284 59.956 314.924 59.116 314.204 58.492C313.484 57.868 312.584 57.556 311.504 57.556C310.472 57.556 309.596 57.856 308.876 58.456C308.18 59.056 307.748 59.908 307.58 61.012H315.284ZM330.988 56.26C331.708 55.156 332.608 54.292 333.688 53.668C334.768 53.02 335.968 52.696 337.288 52.696V59.212H335.596C334.06 59.212 332.908 59.548 332.14 60.22C331.372 60.868 330.988 62.02 330.988 63.676V73H324.832V52.912H330.988V56.26ZM348.402 73.288C346.65 73.288 345.09 72.988 343.722 72.388C342.354 71.788 341.274 70.972 340.482 69.94C339.69 68.884 339.246 67.708 339.15 66.412H345.234C345.306 67.108 345.63 67.672 346.206 68.104C346.782 68.536 347.49 68.752 348.33 68.752C349.098 68.752 349.686 68.608 350.094 68.32C350.526 68.008 350.742 67.612 350.742 67.132C350.742 66.556 350.442 66.136 349.842 65.872C349.242 65.584 348.27 65.272 346.926 64.936C345.486 64.6 344.286 64.252 343.326 63.892C342.366 63.508 341.538 62.92 340.842 62.128C340.146 61.312 339.798 60.22 339.798 58.852C339.798 57.7 340.11 56.656 340.734 55.72C341.382 54.76 342.318 54.004 343.542 53.452C344.79 52.9 346.266 52.624 347.97 52.624C350.49 52.624 352.47 53.248 353.91 54.496C355.374 55.744 356.214 57.4 356.43 59.464H350.742C350.646 58.768 350.334 58.216 349.806 57.808C349.302 57.4 348.63 57.196 347.79 57.196C347.07 57.196 346.518 57.34 346.134 57.628C345.75 57.892 345.558 58.264 345.558 58.744C345.558 59.32 345.858 59.752 346.458 60.04C347.082 60.328 348.042 60.616 349.338 60.904C350.826 61.288 352.038 61.672 352.974 62.056C353.91 62.416 354.726 63.016 355.422 63.856C356.142 64.672 356.514 65.776 356.538 67.168C356.538 68.344 356.202 69.4 355.53 70.336C354.882 71.248 353.934 71.968 352.686 72.496C351.462 73.024 350.034 73.288 348.402 73.288ZM379.24 62.632C379.24 63.208 379.204 63.808 379.132 64.432H365.2C365.296 65.68 365.692 66.64 366.388 67.312C367.108 67.96 367.984 68.284 369.016 68.284C370.552 68.284 371.62 67.636 372.22 66.34H378.772C378.436 67.66 377.824 68.848 376.936 69.904C376.072 70.96 374.98 71.788 373.66 72.388C372.34 72.988 370.864 73.288 369.232 73.288C367.264 73.288 365.512 72.868 363.976 72.028C362.44 71.188 361.24 69.988 360.376 68.428C359.512 66.868 359.08 65.044 359.08 62.956C359.08 60.868 359.5 59.044 360.34 57.484C361.204 55.924 362.404 54.724 363.94 53.884C365.476 53.044 367.24 52.624 369.232 52.624C371.176 52.624 372.904 53.032 374.416 53.848C375.928 54.664 377.104 55.828 377.944 57.34C378.808 58.852 379.24 60.616 379.24 62.632ZM372.94 61.012C372.94 59.956 372.58 59.116 371.86 58.492C371.14 57.868 370.24 57.556 369.16 57.556C368.128 57.556 367.252 57.856 366.532 58.456C365.836 59.056 365.404 59.908 365.236 61.012H372.94ZM141.001 109.24H148.051V112H137.581V91.15H141.001V109.24ZM149.771 103.66C149.771 102 150.111 100.53 150.791 99.25C151.491 97.97 152.431 96.98 153.611 96.28C154.811 95.56 156.131 95.2 157.571 95.2C158.871 95.2 160.001 95.46 160.961 95.98C161.941 96.48 162.721 97.11 163.301 97.87V95.47H166.751V112H163.301V109.54C162.721 110.32 161.931 110.97 160.931 111.49C159.931 112.01 158.791 112.27 157.511 112.27C156.091 112.27 154.791 111.91 153.611 111.19C152.431 110.45 151.491 109.43 150.791 108.13C150.111 106.81 149.771 105.32 149.771 103.66ZM163.301 103.72C163.301 102.58 163.061 101.59 162.581 100.75C162.121 99.91 161.511 99.27 160.751 98.83C159.991 98.39 159.171 98.17 158.291 98.17C157.411 98.17 156.591 98.39 155.831 98.83C155.071 99.25 154.451 99.88 153.971 100.72C153.511 101.54 153.281 102.52 153.281 103.66C153.281 104.8 153.511 105.8 153.971 106.66C154.451 107.52 155.071 108.18 155.831 108.64C156.611 109.08 157.431 109.3 158.291 109.3C159.171 109.3 159.991 109.08 160.751 108.64C161.511 108.2 162.121 107.56 162.581 106.72C163.061 105.86 163.301 104.86 163.301 103.72ZM179.583 95.2C180.883 95.2 182.043 95.47 183.063 96.01C184.103 96.55 184.913 97.35 185.493 98.41C186.073 99.47 186.363 100.75 186.363 102.25V112H182.973V102.76C182.973 101.28 182.603 100.15 181.863 99.37C181.123 98.57 180.113 98.17 178.833 98.17C177.553 98.17 176.533 98.57 175.773 99.37C175.033 100.15 174.663 101.28 174.663 102.76V112H171.243V95.47H174.663V97.36C175.223 96.68 175.933 96.15 176.793 95.77C177.673 95.39 178.603 95.2 179.583 95.2ZM189.586 103.66C189.586 102 189.926 100.53 190.606 99.25C191.306 97.97 192.246 96.98 193.426 96.28C194.626 95.56 195.956 95.2 197.416 95.2C198.496 95.2 199.556 95.44 200.596 95.92C201.656 96.38 202.496 97 203.116 97.78V89.8H206.566V112H203.116V109.51C202.556 110.31 201.776 110.97 200.776 111.49C199.796 112.01 198.666 112.27 197.386 112.27C195.946 112.27 194.626 111.91 193.426 111.19C192.246 110.45 191.306 109.43 190.606 108.13C189.926 106.81 189.586 105.32 189.586 103.66ZM203.116 103.72C203.116 102.58 202.876 101.59 202.396 100.75C201.936 99.91 201.326 99.27 200.566 98.83C199.806 98.39 198.986 98.17 198.106 98.17C197.226 98.17 196.406 98.39 195.646 98.83C194.886 99.25 194.266 99.88 193.786 100.72C193.326 101.54 193.096 102.52 193.096 103.66C193.096 104.8 193.326 105.8 193.786 106.66C194.266 107.52 194.886 108.18 195.646 108.64C196.426 109.08 197.246 109.3 198.106 109.3C198.986 109.3 199.806 109.08 200.566 108.64C201.326 108.2 201.936 107.56 202.396 106.72C202.876 105.86 203.116 104.86 203.116 103.72ZM212.798 93.28C212.178 93.28 211.658 93.07 211.238 92.65C210.818 92.23 210.608 91.71 210.608 91.09C210.608 90.47 210.818 89.95 211.238 89.53C211.658 89.11 212.178 88.9 212.798 88.9C213.398 88.9 213.908 89.11 214.328 89.53C214.748 89.95 214.958 90.47 214.958 91.09C214.958 91.71 214.748 92.23 214.328 92.65C213.908 93.07 213.398 93.28 212.798 93.28ZM214.478 95.47V112H211.058V95.47H214.478ZM227.308 95.2C228.608 95.2 229.768 95.47 230.788 96.01C231.828 96.55 232.638 97.35 233.218 98.41C233.798 99.47 234.088 100.75 234.088 102.25V112H230.698V102.76C230.698 101.28 230.328 100.15 229.588 99.37C228.848 98.57 227.838 98.17 226.558 98.17C225.278 98.17 224.258 98.57 223.498 99.37C222.758 100.15 222.388 101.28 222.388 102.76V112H218.968V95.47H222.388V97.36C222.948 96.68 223.658 96.15 224.518 95.77C225.398 95.39 226.328 95.2 227.308 95.2ZM245.11 95.2C246.39 95.2 247.52 95.46 248.5 95.98C249.5 96.48 250.28 97.11 250.84 97.87V95.47H254.29V112.27C254.29 113.79 253.97 115.14 253.33 116.32C252.69 117.52 251.76 118.46 250.54 119.14C249.34 119.82 247.9 120.16 246.22 120.16C243.98 120.16 242.12 119.63 240.64 118.57C239.16 117.53 238.32 116.11 238.12 114.31H241.51C241.77 115.17 242.32 115.86 243.16 116.38C244.02 116.92 245.04 117.19 246.22 117.19C247.6 117.19 248.71 116.77 249.55 115.93C250.41 115.09 250.84 113.87 250.84 112.27V109.51C250.26 110.29 249.47 110.95 248.47 111.49C247.49 112.01 246.37 112.27 245.11 112.27C243.67 112.27 242.35 111.91 241.15 111.19C239.97 110.45 239.03 109.43 238.33 108.13C237.65 106.81 237.31 105.32 237.31 103.66C237.31 102 237.65 100.53 238.33 99.25C239.03 97.97 239.97 96.98 241.15 96.28C242.35 95.56 243.67 95.2 245.11 95.2ZM250.84 103.72C250.84 102.58 250.6 101.59 250.12 100.75C249.66 99.91 249.05 99.27 248.29 98.83C247.53 98.39 246.71 98.17 245.83 98.17C244.95 98.17 244.13 98.39 243.37 98.83C242.61 99.25 241.99 99.88 241.51 100.72C241.05 101.54 240.82 102.52 240.82 103.66C240.82 104.8 241.05 105.8 241.51 106.66C241.99 107.52 242.61 108.18 243.37 108.64C244.15 109.08 244.97 109.3 245.83 109.3C246.71 109.3 247.53 109.08 248.29 108.64C249.05 108.2 249.66 107.56 250.12 106.72C250.6 105.86 250.84 104.86 250.84 103.72ZM272.575 112.27C271.275 112.27 270.105 112.04 269.065 111.58C268.045 111.1 267.235 110.46 266.635 109.66C266.035 108.84 265.715 107.93 265.675 106.93H269.215C269.275 107.63 269.605 108.22 270.205 108.7C270.825 109.16 271.595 109.39 272.515 109.39C273.475 109.39 274.215 109.21 274.735 108.85C275.275 108.47 275.545 107.99 275.545 107.41C275.545 106.79 275.245 106.33 274.645 106.03C274.065 105.73 273.135 105.4 271.855 105.04C270.615 104.7 269.605 104.37 268.825 104.05C268.045 103.73 267.365 103.24 266.785 102.58C266.225 101.92 265.945 101.05 265.945 99.97C265.945 99.09 266.205 98.29 266.725 97.57C267.245 96.83 267.985 96.25 268.945 95.83C269.925 95.41 271.045 95.2 272.305 95.2C274.185 95.2 275.695 95.68 276.835 96.64C277.995 97.58 278.615 98.87 278.695 100.51H275.275C275.215 99.77 274.915 99.18 274.375 98.74C273.835 98.3 273.105 98.08 272.185 98.08C271.285 98.08 270.595 98.25 270.115 98.59C269.635 98.93 269.395 99.38 269.395 99.94C269.395 100.38 269.555 100.75 269.875 101.05C270.195 101.35 270.585 101.59 271.045 101.77C271.505 101.93 272.185 102.14 273.085 102.4C274.285 102.72 275.265 103.05 276.025 103.39C276.805 103.71 277.475 104.19 278.035 104.83C278.595 105.47 278.885 106.32 278.905 107.38C278.905 108.32 278.645 109.16 278.125 109.9C277.605 110.64 276.865 111.22 275.905 111.64C274.965 112.06 273.855 112.27 272.575 112.27ZM286.591 98.26V107.41C286.591 108.03 286.731 108.48 287.011 108.76C287.311 109.02 287.811 109.15 288.511 109.15H290.611V112H287.911C286.371 112 285.191 111.64 284.371 110.92C283.551 110.2 283.141 109.03 283.141 107.41V98.26H281.191V95.47H283.141V91.36H286.591V95.47H290.611V98.26H286.591ZM292.623 103.66C292.623 102 292.963 100.53 293.643 99.25C294.343 97.97 295.283 96.98 296.463 96.28C297.663 95.56 298.983 95.2 300.423 95.2C301.723 95.2 302.853 95.46 303.813 95.98C304.793 96.48 305.573 97.11 306.153 97.87V95.47H309.603V112H306.153V109.54C305.573 110.32 304.783 110.97 303.783 111.49C302.783 112.01 301.643 112.27 300.363 112.27C298.943 112.27 297.643 111.91 296.463 111.19C295.283 110.45 294.343 109.43 293.643 108.13C292.963 106.81 292.623 105.32 292.623 103.66ZM306.153 103.72C306.153 102.58 305.913 101.59 305.433 100.75C304.973 99.91 304.363 99.27 303.603 98.83C302.843 98.39 302.023 98.17 301.143 98.17C300.263 98.17 299.443 98.39 298.683 98.83C297.923 99.25 297.303 99.88 296.823 100.72C296.363 101.54 296.133 102.52 296.133 103.66C296.133 104.8 296.363 105.8 296.823 106.66C297.303 107.52 297.923 108.18 298.683 108.64C299.463 109.08 300.283 109.3 301.143 109.3C302.023 109.3 302.843 109.08 303.603 108.64C304.363 108.2 304.973 107.56 305.433 106.72C305.913 105.86 306.153 104.86 306.153 103.72ZM318.085 98.26V107.41C318.085 108.03 318.225 108.48 318.505 108.76C318.805 109.02 319.305 109.15 320.005 109.15H322.105V112H319.405C317.865 112 316.685 111.64 315.865 110.92C315.045 110.2 314.635 109.03 314.635 107.41V98.26H312.685V95.47H314.635V91.36H318.085V95.47H322.105V98.26H318.085ZM326.997 93.28C326.377 93.28 325.857 93.07 325.437 92.65C325.017 92.23 324.807 91.71 324.807 91.09C324.807 90.47 325.017 89.95 325.437 89.53C325.857 89.11 326.377 88.9 326.997 88.9C327.597 88.9 328.107 89.11 328.527 89.53C328.947 89.95 329.157 90.47 329.157 91.09C329.157 91.71 328.947 92.23 328.527 92.65C328.107 93.07 327.597 93.28 326.997 93.28ZM328.677 95.47V112H325.257V95.47H328.677ZM340.337 112.27C338.777 112.27 337.367 111.92 336.107 111.22C334.847 110.5 333.857 109.5 333.137 108.22C332.417 106.92 332.057 105.42 332.057 103.72C332.057 102.04 332.427 100.55 333.167 99.25C333.907 97.95 334.917 96.95 336.197 96.25C337.477 95.55 338.907 95.2 340.487 95.2C342.067 95.2 343.497 95.55 344.777 96.25C346.057 96.95 347.067 97.95 347.807 99.25C348.547 100.55 348.917 102.04 348.917 103.72C348.917 105.4 348.537 106.89 347.777 108.19C347.017 109.49 345.977 110.5 344.657 111.22C343.357 111.92 341.917 112.27 340.337 112.27ZM340.337 109.3C341.217 109.3 342.037 109.09 342.797 108.67C343.577 108.25 344.207 107.62 344.687 106.78C345.167 105.94 345.407 104.92 345.407 103.72C345.407 102.52 345.177 101.51 344.717 100.69C344.257 99.85 343.647 99.22 342.887 98.8C342.127 98.38 341.307 98.17 340.427 98.17C339.547 98.17 338.727 98.38 337.967 98.8C337.227 99.22 336.637 99.85 336.197 100.69C335.757 101.51 335.537 102.52 335.537 103.72C335.537 105.5 335.987 106.88 336.887 107.86C337.807 108.82 338.957 109.3 340.337 109.3ZM360.638 95.2C361.938 95.2 363.098 95.47 364.118 96.01C365.158 96.55 365.968 97.35 366.548 98.41C367.128 99.47 367.418 100.75 367.418 102.25V112H364.028V102.76C364.028 101.28 363.658 100.15 362.918 99.37C362.178 98.57 361.168 98.17 359.888 98.17C358.608 98.17 357.588 98.57 356.828 99.37C356.088 100.15 355.718 101.28 355.718 102.76V112H352.298V95.47H355.718V97.36C356.278 96.68 356.988 96.15 357.848 95.77C358.728 95.39 359.658 95.2 360.638 95.2ZM381.313 93.28C380.693 93.28 380.173 93.07 379.753 92.65C379.333 92.23 379.123 91.71 379.123 91.09C379.123 90.47 379.333 89.95 379.753 89.53C380.173 89.11 380.693 88.9 381.313 88.9C381.913 88.9 382.423 89.11 382.843 89.53C383.263 89.95 383.473 90.47 383.473 91.09C383.473 91.71 383.263 92.23 382.843 92.65C382.423 93.07 381.913 93.28 381.313 93.28ZM382.993 95.47V112H379.573V95.47H382.993ZM395.823 95.2C397.123 95.2 398.283 95.47 399.303 96.01C400.343 96.55 401.153 97.35 401.733 98.41C402.313 99.47 402.603 100.75 402.603 102.25V112H399.213V102.76C399.213 101.28 398.843 100.15 398.103 99.37C397.363 98.57 396.353 98.17 395.073 98.17C393.793 98.17 392.773 98.57 392.013 99.37C391.273 100.15 390.903 101.28 390.903 102.76V112H387.483V95.47H390.903V97.36C391.463 96.68 392.173 96.15 393.033 95.77C393.913 95.39 394.843 95.2 395.823 95.2ZM418.749 98.26V107.41C418.749 108.03 418.889 108.48 419.169 108.76C419.469 109.02 419.969 109.15 420.669 109.15H422.769V112H420.069C418.529 112 417.349 111.64 416.529 110.92C415.709 110.2 415.299 109.03 415.299 107.41V98.26H413.349V95.47H415.299V91.36H418.749V95.47H422.769V98.26H418.749ZM434.471 95.2C435.731 95.2 436.851 95.47 437.831 96.01C438.831 96.55 439.611 97.35 440.171 98.41C440.751 99.47 441.041 100.75 441.041 102.25V112H437.651V102.76C437.651 101.28 437.281 100.15 436.541 99.37C435.801 98.57 434.791 98.17 433.511 98.17C432.231 98.17 431.211 98.57 430.451 99.37C429.711 100.15 429.341 101.28 429.341 102.76V112H425.921V89.8H429.341V97.39C429.921 96.69 430.651 96.15 431.531 95.77C432.431 95.39 433.411 95.2 434.471 95.2ZM460.553 103.33C460.553 103.95 460.513 104.51 460.433 105.01H447.803C447.903 106.33 448.393 107.39 449.273 108.19C450.153 108.99 451.233 109.39 452.513 109.39C454.353 109.39 455.653 108.62 456.413 107.08H460.103C459.603 108.6 458.693 109.85 457.373 110.83C456.073 111.79 454.453 112.27 452.513 112.27C450.933 112.27 449.513 111.92 448.253 111.22C447.013 110.5 446.033 109.5 445.313 108.22C444.613 106.92 444.263 105.42 444.263 103.72C444.263 102.02 444.603 100.53 445.283 99.25C445.983 97.95 446.953 96.95 448.193 96.25C449.453 95.55 450.893 95.2 452.513 95.2C454.073 95.2 455.463 95.54 456.683 96.22C457.903 96.9 458.853 97.86 459.533 99.1C460.213 100.32 460.553 101.73 460.553 103.33ZM456.983 102.25C456.963 100.99 456.513 99.98 455.633 99.22C454.753 98.46 453.663 98.08 452.363 98.08C451.183 98.08 450.173 98.46 449.333 99.22C448.493 99.96 447.993 100.97 447.833 102.25H456.983ZM239.805 142.75L247.425 151H242.805L236.685 143.89V151H233.265V128.8H236.685V141.7L242.685 134.47H247.425L239.805 142.75ZM251.616 132.28C250.996 132.28 250.476 132.07 250.056 131.65C249.636 131.23 249.426 130.71 249.426 130.09C249.426 129.47 249.636 128.95 250.056 128.53C250.476 128.11 250.996 127.9 251.616 127.9C252.216 127.9 252.726 128.11 253.146 128.53C253.566 128.95 253.776 129.47 253.776 130.09C253.776 130.71 253.566 131.23 253.146 131.65C252.726 132.07 252.216 132.28 251.616 132.28ZM253.296 134.47V151H249.876V134.47H253.296ZM266.126 134.2C267.426 134.2 268.586 134.47 269.606 135.01C270.646 135.55 271.456 136.35 272.036 137.41C272.616 138.47 272.906 139.75 272.906 141.25V151H269.516V141.76C269.516 140.28 269.146 139.15 268.406 138.37C267.666 137.57 266.656 137.17 265.376 137.17C264.096 137.17 263.076 137.57 262.316 138.37C261.576 139.15 261.206 140.28 261.206 141.76V151H257.786V134.47H261.206V136.36C261.766 135.68 262.476 135.15 263.336 134.77C264.216 134.39 265.146 134.2 266.126 134.2ZM283.929 134.2C285.209 134.2 286.339 134.46 287.319 134.98C288.319 135.48 289.099 136.11 289.659 136.87V134.47H293.109V151.27C293.109 152.79 292.789 154.14 292.149 155.32C291.509 156.52 290.579 157.46 289.359 158.14C288.159 158.82 286.719 159.16 285.039 159.16C282.799 159.16 280.939 158.63 279.459 157.57C277.979 156.53 277.139 155.11 276.939 153.31H280.329C280.589 154.17 281.139 154.86 281.979 155.38C282.839 155.92 283.859 156.19 285.039 156.19C286.419 156.19 287.529 155.77 288.369 154.93C289.229 154.09 289.659 152.87 289.659 151.27V148.51C289.079 149.29 288.289 149.95 287.289 150.49C286.309 151.01 285.189 151.27 283.929 151.27C282.489 151.27 281.169 150.91 279.969 150.19C278.789 149.45 277.849 148.43 277.149 147.13C276.469 145.81 276.129 144.32 276.129 142.66C276.129 141 276.469 139.53 277.149 138.25C277.849 136.97 278.789 135.98 279.969 135.28C281.169 134.56 282.489 134.2 283.929 134.2ZM289.659 142.72C289.659 141.58 289.419 140.59 288.939 139.75C288.479 138.91 287.869 138.27 287.109 137.83C286.349 137.39 285.529 137.17 284.649 137.17C283.769 137.17 282.949 137.39 282.189 137.83C281.429 138.25 280.809 138.88 280.329 139.72C279.869 140.54 279.639 141.52 279.639 142.66C279.639 143.8 279.869 144.8 280.329 145.66C280.809 146.52 281.429 147.18 282.189 147.64C282.969 148.08 283.789 148.3 284.649 148.3C285.529 148.3 286.349 148.08 287.109 147.64C287.869 147.2 288.479 146.56 288.939 145.72C289.419 144.86 289.659 143.86 289.659 142.72ZM296.461 142.66C296.461 141 296.801 139.53 297.481 138.25C298.181 136.97 299.121 135.98 300.301 135.28C301.501 134.56 302.831 134.2 304.291 134.2C305.371 134.2 306.431 134.44 307.471 134.92C308.531 135.38 309.371 136 309.991 136.78V128.8H313.441V151H309.991V148.51C309.431 149.31 308.651 149.97 307.651 150.49C306.671 151.01 305.541 151.27 304.261 151.27C302.821 151.27 301.501 150.91 300.301 150.19C299.121 149.45 298.181 148.43 297.481 147.13C296.801 145.81 296.461 144.32 296.461 142.66ZM309.991 142.72C309.991 141.58 309.751 140.59 309.271 139.75C308.811 138.91 308.201 138.27 307.441 137.83C306.681 137.39 305.861 137.17 304.981 137.17C304.101 137.17 303.281 137.39 302.521 137.83C301.761 138.25 301.141 138.88 300.661 139.72C300.201 140.54 299.971 141.52 299.971 142.66C299.971 143.8 300.201 144.8 300.661 145.66C301.141 146.52 301.761 147.18 302.521 147.64C303.301 148.08 304.121 148.3 304.981 148.3C305.861 148.3 306.681 148.08 307.441 147.64C308.201 147.2 308.811 146.56 309.271 145.72C309.751 144.86 309.991 143.86 309.991 142.72ZM325.103 151.27C323.543 151.27 322.133 150.92 320.873 150.22C319.613 149.5 318.623 148.5 317.903 147.22C317.183 145.92 316.823 144.42 316.823 142.72C316.823 141.04 317.193 139.55 317.933 138.25C318.673 136.95 319.683 135.95 320.963 135.25C322.243 134.55 323.673 134.2 325.253 134.2C326.833 134.2 328.263 134.55 329.543 135.25C330.823 135.95 331.833 136.95 332.573 138.25C333.313 139.55 333.683 141.04 333.683 142.72C333.683 144.4 333.303 145.89 332.543 147.19C331.783 148.49 330.743 149.5 329.423 150.22C328.123 150.92 326.683 151.27 325.103 151.27ZM325.103 148.3C325.983 148.3 326.803 148.09 327.563 147.67C328.343 147.25 328.973 146.62 329.453 145.78C329.933 144.94 330.173 143.92 330.173 142.72C330.173 141.52 329.943 140.51 329.483 139.69C329.023 138.85 328.413 138.22 327.653 137.8C326.893 137.38 326.073 137.17 325.193 137.17C324.313 137.17 323.493 137.38 322.733 137.8C321.993 138.22 321.403 138.85 320.963 139.69C320.523 140.51 320.303 141.52 320.303 142.72C320.303 144.5 320.753 145.88 321.653 146.86C322.573 147.82 323.723 148.3 325.103 148.3ZM357.073 134.2C358.373 134.2 359.533 134.47 360.553 135.01C361.593 135.55 362.403 136.35 362.983 137.41C363.583 138.47 363.883 139.75 363.883 141.25V151H360.493V141.76C360.493 140.28 360.123 139.15 359.383 138.37C358.643 137.57 357.633 137.17 356.353 137.17C355.073 137.17 354.053 137.57 353.293 138.37C352.553 139.15 352.183 140.28 352.183 141.76V151H348.793V141.76C348.793 140.28 348.423 139.15 347.683 138.37C346.943 137.57 345.933 137.17 344.653 137.17C343.373 137.17 342.353 137.57 341.593 138.37C340.853 139.15 340.483 140.28 340.483 141.76V151H337.063V134.47H340.483V136.36C341.043 135.68 341.753 135.15 342.613 134.77C343.473 134.39 344.393 134.2 345.373 134.2C346.693 134.2 347.873 134.48 348.913 135.04C349.953 135.6 350.753 136.41 351.313 137.47C351.813 136.47 352.593 135.68 353.653 135.1C354.713 134.5 355.853 134.2 357.073 134.2Z" fill="#001424"/>
</svg>
