<svg width="533" height="718" viewBox="0 0 533 718" fill="none" xmlns="http://www.w3.org/2000/svg">
<mask id="path-1-inside-1_3087_7624" fill="white">
<path d="M0 26C0 20.4772 4.47715 16 10 16H523C528.523 16 533 20.4772 533 26V204C533 209.523 528.523 214 523 214H10C4.47717 214 0 209.523 0 204V26Z"/>
</mask>
<path d="M0 26C0 20.4772 4.47715 16 10 16H523C528.523 16 533 20.4772 533 26V204C533 209.523 528.523 214 523 214H10C4.47717 214 0 209.523 0 204V26Z" fill="#DBF0FF"/>
<path d="M0 16H533H0ZM533 204C533 212.837 525.837 220 517 220H16C7.16344 220 0 212.837 0 204C0 206.209 4.47715 208 10 208H523C528.523 208 533 206.209 533 204ZM0 214V16V214ZM533 16V214V16Z" fill="#005FA6" mask="url(#path-1-inside-1_3087_7624)"/>
<path d="M226.706 80.5V62.5H223.796V58.63H231.026V80.5H226.706ZM237.575 80.5V62.5H234.665V58.63H241.895V80.5H237.575ZM244.814 84.82L246.824 75.88H251.264L247.544 84.82H244.814ZM253.691 69.28C253.691 62.95 255.611 58.21 261.791 58.21C267.971 58.21 269.891 62.95 269.891 69.28C269.891 75.67 267.971 80.44 261.791 80.44C255.611 80.44 253.691 75.67 253.691 69.28ZM265.751 69.28C265.751 65.53 265.331 62.11 261.791 62.11C258.251 62.11 257.831 65.53 257.831 69.28C257.831 73.18 258.251 76.54 261.791 76.54C265.331 76.54 265.751 73.18 265.751 69.28ZM273.085 69.28C273.085 62.95 275.005 58.21 281.185 58.21C287.365 58.21 289.285 62.95 289.285 69.28C289.285 75.67 287.365 80.44 281.185 80.44C275.005 80.44 273.085 75.67 273.085 69.28ZM285.145 69.28C285.145 65.53 284.725 62.11 281.185 62.11C277.645 62.11 277.225 65.53 277.225 69.28C277.225 73.18 277.645 76.54 281.185 76.54C284.725 76.54 285.145 73.18 285.145 69.28ZM292.48 69.28C292.48 62.95 294.4 58.21 300.58 58.21C306.76 58.21 308.68 62.95 308.68 69.28C308.68 75.67 306.76 80.44 300.58 80.44C294.4 80.44 292.48 75.67 292.48 69.28ZM304.54 69.28C304.54 65.53 304.12 62.11 300.58 62.11C297.04 62.11 296.62 65.53 296.62 69.28C296.62 73.18 297.04 76.54 300.58 76.54C304.12 76.54 304.54 73.18 304.54 69.28ZM214.771 106.81V104.59H228.931V106.81H223.231V125.5H220.501V106.81H214.771ZM247.891 117.25C247.891 122.47 244.141 125.77 239.461 125.77C234.811 125.77 231.271 122.47 231.271 117.25C231.271 112.06 234.931 108.79 239.581 108.79C244.261 108.79 247.891 112.06 247.891 117.25ZM234.061 117.25C234.061 121.42 236.611 123.37 239.461 123.37C242.311 123.37 245.101 121.42 245.101 117.25C245.101 113.11 242.371 111.16 239.551 111.16C236.671 111.16 234.061 113.11 234.061 117.25ZM254.691 125.5L249.531 109.06H252.321L256.101 122.86L260.181 109.06H262.971L266.961 122.89L270.681 109.06H273.381L268.251 125.5H265.431L261.471 112.45L257.511 125.5H254.691ZM283.08 111.1C280.41 111.1 278.19 112.87 277.89 116.08H288.27C288.3 112.87 285.9 111.1 283.08 111.1ZM290.76 120.43C289.92 123.43 287.28 125.77 283.2 125.77C278.52 125.77 275.07 122.47 275.07 117.25C275.07 112.06 278.4 108.79 283.2 108.79C287.97 108.79 291.09 112.15 291.09 116.65C291.09 117.25 291.06 117.73 291 118.3H277.86C278.07 121.63 280.41 123.46 283.2 123.46C285.66 123.46 287.22 122.2 287.82 120.43H290.76ZM297.424 116.56V125.5H294.694V109.06H297.424V111.73C298.354 109.9 300.124 108.76 302.734 108.76V111.58H302.014C299.404 111.58 297.424 112.75 297.424 116.56ZM317.705 121.03C317.705 123.73 315.335 125.77 311.705 125.77C307.865 125.77 305.165 123.67 304.985 120.67H307.805C307.955 122.26 309.365 123.46 311.675 123.46C313.835 123.46 315.035 122.38 315.035 121.03C315.035 117.37 305.315 119.5 305.315 113.38C305.315 110.86 307.685 108.79 311.345 108.79C314.975 108.79 317.375 110.74 317.555 113.95H314.825C314.705 112.3 313.445 111.1 311.255 111.1C309.245 111.1 308.045 112.06 308.045 113.38C308.045 117.28 317.585 115.15 317.705 121.03ZM215.797 164.62C215.797 162.31 214.057 160.87 211.387 160.87H206.647V168.25H211.477C214.177 168.25 215.797 166.9 215.797 164.62ZM215.257 155.23C215.257 153.16 213.847 151.84 211.177 151.84H206.647V158.62H211.237C213.787 158.62 215.257 157.36 215.257 155.23ZM218.527 164.89C218.527 168.04 216.037 170.5 211.717 170.5H203.917V149.59H211.417C215.827 149.59 218.047 151.99 218.047 154.9C218.047 157.54 216.397 159.07 214.387 159.73C216.667 160.12 218.527 162.31 218.527 164.89ZM236.896 154.06V170.5H234.166V168.07C233.116 169.78 231.106 170.74 228.916 170.74C225.136 170.74 222.166 168.4 222.166 163.69V154.06H224.866V163.33C224.866 166.66 226.696 168.37 229.456 168.37C232.276 168.37 234.166 166.63 234.166 163.09V154.06H236.896ZM253.325 166.03C253.325 168.73 250.955 170.77 247.325 170.77C243.485 170.77 240.785 168.67 240.605 165.67H243.425C243.575 167.26 244.985 168.46 247.295 168.46C249.455 168.46 250.655 167.38 250.655 166.03C250.655 162.37 240.935 164.5 240.935 158.38C240.935 155.86 243.305 153.79 246.965 153.79C250.595 153.79 252.995 155.74 253.175 158.95H250.445C250.325 157.3 249.065 156.1 246.875 156.1C244.865 156.1 243.665 157.06 243.665 158.38C243.665 162.28 253.205 160.15 253.325 166.03ZM257.179 170.5V154.06H259.909V170.5H257.179ZM258.589 151.39C257.539 151.39 256.729 150.58 256.729 149.53C256.729 148.48 257.539 147.67 258.589 147.67C259.579 147.67 260.389 148.48 260.389 149.53C260.389 150.58 259.579 151.39 258.589 151.39ZM276.592 170.5V161.2C276.592 157.84 274.762 156.13 272.002 156.13C269.212 156.13 267.292 157.87 267.292 161.41V170.5H264.562V154.06H267.292V156.4C268.372 154.69 270.352 153.76 272.572 153.76C276.382 153.76 279.292 156.1 279.292 160.81V170.5H276.592ZM290.741 156.1C288.071 156.1 285.851 157.87 285.551 161.08H295.931C295.961 157.87 293.561 156.1 290.741 156.1ZM298.421 165.43C297.581 168.43 294.941 170.77 290.861 170.77C286.181 170.77 282.731 167.47 282.731 162.25C282.731 157.06 286.061 153.79 290.861 153.79C295.631 153.79 298.751 157.15 298.751 161.65C298.751 162.25 298.721 162.73 298.661 163.3H285.521C285.731 166.63 288.071 168.46 290.861 168.46C293.321 168.46 294.881 167.2 295.481 165.43H298.421ZM314.175 166.03C314.175 168.73 311.805 170.77 308.175 170.77C304.335 170.77 301.635 168.67 301.455 165.67H304.275C304.425 167.26 305.835 168.46 308.145 168.46C310.305 168.46 311.505 167.38 311.505 166.03C311.505 162.37 301.785 164.5 301.785 158.38C301.785 155.86 304.155 153.79 307.815 153.79C311.445 153.79 313.845 155.74 314.025 158.95H311.295C311.175 157.3 309.915 156.1 307.725 156.1C305.715 156.1 304.515 157.06 304.515 158.38C304.515 162.28 314.055 160.15 314.175 166.03ZM329.849 166.03C329.849 168.73 327.479 170.77 323.849 170.77C320.009 170.77 317.309 168.67 317.129 165.67H319.949C320.099 167.26 321.509 168.46 323.819 168.46C325.979 168.46 327.179 167.38 327.179 166.03C327.179 162.37 317.459 164.5 317.459 158.38C317.459 155.86 319.829 153.79 323.489 153.79C327.119 153.79 329.519 155.74 329.699 158.95H326.969C326.849 157.3 325.589 156.1 323.399 156.1C321.389 156.1 320.189 157.06 320.189 158.38C320.189 162.28 329.729 160.15 329.849 166.03Z" fill="#001424"/>
<mask id="path-4-inside-2_3087_7624" fill="white">
<path d="M0 272C0 266.477 4.47715 262 10 262H522C527.523 262 532 266.477 532 272V450C532 455.523 527.523 460 522 460H9.99999C4.47715 460 0 455.523 0 450V272Z"/>
</mask>
<path d="M0 272C0 266.477 4.47715 262 10 262H522C527.523 262 532 266.477 532 272V450C532 455.523 527.523 460 522 460H9.99999C4.47715 460 0 455.523 0 450V272Z" fill="#DBF0FF"/>
<path d="M0 262H532H0ZM532 450C532 458.837 524.837 466 516 466H16C7.16344 466 0 458.837 0 450C0 452.209 4.47715 454 10 454H522C527.523 454 532 452.209 532 450ZM0 460V262V460ZM532 262V460V262Z" fill="#005FA6" mask="url(#path-4-inside-2_3087_7624)"/>
<path d="M245.116 332.5V311.56H249.316V332.5H245.116ZM265.136 326.32C265.136 324.52 263.846 323.44 261.806 323.44H257.666V329.08H261.896C263.936 329.08 265.136 328.09 265.136 326.32ZM264.626 317.59C264.626 315.91 263.486 314.95 261.506 314.95H257.666V320.2H261.506C263.486 320.2 264.626 319.3 264.626 317.59ZM269.396 326.83C269.396 330.16 266.846 332.5 262.496 332.5H253.466V311.56H262.106C266.486 311.56 268.916 313.84 268.916 316.96C268.916 319.51 267.386 321.1 265.346 321.76C267.716 322.18 269.396 324.37 269.396 326.83ZM287.383 326.44C287.383 329.74 284.743 332.71 279.973 332.71C275.623 332.71 272.263 330.43 272.203 326.47H276.703C276.823 328.15 277.933 329.26 279.883 329.26C281.863 329.26 283.033 328.21 283.033 326.71C283.033 322.18 272.233 324.91 272.263 317.32C272.263 313.54 275.323 311.26 279.643 311.26C283.933 311.26 286.873 313.45 287.143 317.23H282.523C282.433 315.85 281.323 314.77 279.523 314.74C277.873 314.68 276.643 315.49 276.643 317.2C276.643 321.4 287.383 319.06 287.383 326.44ZM170.413 356.74C170.413 354.37 169.093 352.84 165.973 352.84H161.953V360.76H165.973C169.063 360.76 170.413 359.08 170.413 356.74ZM159.223 350.59H165.973C170.893 350.59 173.233 353.32 173.233 356.74C173.233 359.41 171.763 361.96 168.253 362.74L173.503 371.5H170.233L165.253 362.95H161.953V371.5H159.223V350.59ZM191.515 371.5L189.835 366.85H180.715L179.035 371.5H176.155L183.715 350.71H186.865L194.395 371.5H191.515ZM189.055 364.63L185.275 354.07L181.495 364.63H189.055ZM211.4 350.56H214.13V371.5H211.4L200.42 354.85V371.5H197.69V350.56H200.42L211.4 367.18V350.56ZM246.762 361.03C246.762 367.3 242.172 371.71 236.262 371.71C230.382 371.71 225.762 367.3 225.762 361.03C225.762 354.76 230.382 350.35 236.262 350.35C242.172 350.35 246.762 354.76 246.762 361.03ZM228.552 361.03C228.552 366.13 231.852 369.34 236.262 369.34C240.672 369.34 243.972 366.13 243.972 361.03C243.972 355.9 240.672 352.72 236.262 352.72C231.852 352.72 228.552 355.9 228.552 361.03ZM253.096 358.09C254.086 356.35 256.246 354.79 259.246 354.79C263.656 354.79 267.046 358.09 267.046 363.22C267.046 368.32 263.656 371.77 259.246 371.77C256.246 371.77 254.116 370.15 253.096 368.47V379.3H250.366V355.06H253.096V358.09ZM264.256 363.22C264.256 359.35 261.706 357.16 258.676 357.16C255.706 357.16 253.096 359.44 253.096 363.25C253.096 367.12 255.706 369.37 258.676 369.37C261.706 369.37 264.256 367.09 264.256 363.22ZM277.629 357.1C274.959 357.1 272.739 358.87 272.439 362.08H282.819C282.849 358.87 280.449 357.1 277.629 357.1ZM285.309 366.43C284.469 369.43 281.829 371.77 277.749 371.77C273.069 371.77 269.619 368.47 269.619 363.25C269.619 358.06 272.949 354.79 277.749 354.79C282.519 354.79 285.639 358.15 285.639 362.65C285.639 363.25 285.609 363.73 285.549 364.3H272.409C272.619 367.63 274.959 369.46 277.749 369.46C280.209 369.46 281.769 368.2 282.369 366.43H285.309ZM291.973 362.56V371.5H289.243V355.06H291.973V357.73C292.903 355.9 294.673 354.76 297.283 354.76V357.58H296.563C293.953 357.58 291.973 358.75 291.973 362.56ZM299.414 363.22C299.414 358.09 302.804 354.79 307.214 354.79C310.274 354.79 312.374 356.35 313.334 358.06V355.06H316.094V371.5H313.334V368.44C312.344 370.21 310.214 371.77 307.184 371.77C302.804 371.77 299.414 368.32 299.414 363.22ZM313.334 363.25C313.334 359.44 310.754 357.16 307.754 357.16C304.754 357.16 302.204 359.35 302.204 363.22C302.204 367.09 304.754 369.37 307.754 369.37C310.754 369.37 313.334 367.12 313.334 363.25ZM321.307 367V357.31H319.177V355.06H321.307V350.92H324.037V355.06H328.327V357.31H324.037V367C324.037 368.62 324.637 369.19 326.317 369.19H328.327V371.5H325.867C322.957 371.5 321.307 370.3 321.307 367ZM331.635 371.5V355.06H334.365V371.5H331.635ZM333.045 352.39C331.995 352.39 331.185 351.58 331.185 350.53C331.185 349.48 331.995 348.67 333.045 348.67C334.035 348.67 334.845 349.48 334.845 350.53C334.845 351.58 334.035 352.39 333.045 352.39ZM354.618 363.25C354.618 368.47 350.868 371.77 346.188 371.77C341.538 371.77 337.998 368.47 337.998 363.25C337.998 358.06 341.658 354.79 346.308 354.79C350.988 354.79 354.618 358.06 354.618 363.25ZM340.788 363.25C340.788 367.42 343.338 369.37 346.188 369.37C349.038 369.37 351.828 367.42 351.828 363.25C351.828 359.11 349.098 357.16 346.278 357.16C343.398 357.16 340.788 359.11 340.788 363.25ZM370.237 371.5V362.2C370.237 358.84 368.407 357.13 365.647 357.13C362.857 357.13 360.937 358.87 360.937 362.41V371.5H358.207V355.06H360.937V357.4C362.017 355.69 363.997 354.76 366.217 354.76C370.027 354.76 372.937 357.1 372.937 361.81V371.5H370.237ZM166.974 394.06H164.244C164.304 392.35 163.164 391.42 161.694 391.42C160.074 391.42 159.024 392.44 159.024 393.82C159.024 395.05 159.714 396.07 161.184 397.63L167.424 403.9C167.604 403.63 167.784 403.36 167.964 403.06L170.004 399.64H172.944L170.484 403.9C170.094 404.59 169.704 405.19 169.284 405.79L173.994 410.5H170.424L167.694 407.74C165.684 409.84 163.434 410.86 160.494 410.86C156.144 410.86 153.174 408.37 153.174 404.5C153.174 401.62 154.824 399.31 158.094 398.02C156.804 396.52 156.294 395.35 156.294 393.82C156.294 391.15 158.424 389.17 161.814 389.17C165.114 389.17 167.124 391.27 166.974 394.06ZM160.494 408.52C162.654 408.52 164.334 407.68 165.894 405.94L159.744 399.76C157.134 400.75 155.904 402.31 155.904 404.41C155.904 406.75 157.764 408.52 160.494 408.52ZM184.55 410.5V389.74H187.49L195.17 406.9L202.85 389.74H205.76V410.5H203.03V395.02L196.13 410.5H194.21L187.28 394.99V410.5H184.55ZM209.37 402.22C209.37 397.09 212.76 393.79 217.17 393.79C220.23 393.79 222.33 395.35 223.29 397.06V394.06H226.05V410.5H223.29V407.44C222.3 409.21 220.17 410.77 217.14 410.77C212.76 410.77 209.37 407.32 209.37 402.22ZM223.29 402.25C223.29 398.44 220.71 396.16 217.71 396.16C214.71 396.16 212.16 398.35 212.16 402.22C212.16 406.09 214.71 408.37 217.71 408.37C220.71 408.37 223.29 406.12 223.29 402.25ZM230.664 410.5V394.06H233.394V410.5H230.664ZM232.074 391.39C231.024 391.39 230.214 390.58 230.214 389.53C230.214 388.48 231.024 387.67 232.074 387.67C233.064 387.67 233.874 388.48 233.874 389.53C233.874 390.58 233.064 391.39 232.074 391.39ZM250.076 410.5V401.2C250.076 397.84 248.246 396.13 245.486 396.13C242.696 396.13 240.776 397.87 240.776 401.41V410.5H238.046V394.06H240.776V396.4C241.856 394.69 243.836 393.76 246.056 393.76C249.866 393.76 252.776 396.1 252.776 400.81V410.5H250.076ZM257.836 406V396.31H255.706V394.06H257.836V389.92H260.566V394.06H264.856V396.31H260.566V406C260.566 407.62 261.166 408.19 262.846 408.19H264.856V410.5H262.396C259.486 410.5 257.836 409.3 257.836 406ZM275.154 396.1C272.484 396.1 270.264 397.87 269.964 401.08H280.344C280.374 397.87 277.974 396.1 275.154 396.1ZM282.834 405.43C281.994 408.43 279.354 410.77 275.274 410.77C270.594 410.77 267.144 407.47 267.144 402.25C267.144 397.06 270.474 393.79 275.274 393.79C280.044 393.79 283.164 397.15 283.164 401.65C283.164 402.25 283.134 402.73 283.074 403.3H269.934C270.144 406.63 272.484 408.46 275.274 408.46C277.734 408.46 279.294 407.2 279.894 405.43H282.834ZM298.797 410.5V401.2C298.797 397.84 296.967 396.13 294.207 396.13C291.417 396.13 289.497 397.87 289.497 401.41V410.5H286.767V394.06H289.497V396.4C290.577 394.69 292.557 393.76 294.777 393.76C298.587 393.76 301.497 396.1 301.497 400.81V410.5H298.797ZM304.936 402.22C304.936 397.09 308.326 393.79 312.736 393.79C315.796 393.79 317.896 395.35 318.856 397.06V394.06H321.616V410.5H318.856V407.44C317.866 409.21 315.736 410.77 312.706 410.77C308.326 410.77 304.936 407.32 304.936 402.22ZM318.856 402.25C318.856 398.44 316.276 396.16 313.276 396.16C310.276 396.16 307.726 398.35 307.726 402.22C307.726 406.09 310.276 408.37 313.276 408.37C316.276 408.37 318.856 406.12 318.856 402.25ZM338.26 410.5V401.2C338.26 397.84 336.43 396.13 333.67 396.13C330.88 396.13 328.96 397.87 328.96 401.41V410.5H326.23V394.06H328.96V396.4C330.04 394.69 332.02 393.76 334.24 393.76C338.05 393.76 340.96 396.1 340.96 400.81V410.5H338.26ZM344.399 402.25C344.399 397.09 347.729 393.79 352.409 393.79C356.489 393.79 359.159 395.89 359.999 399.34H357.059C356.489 397.36 354.839 396.1 352.409 396.1C349.409 396.1 347.189 398.23 347.189 402.25C347.189 406.33 349.409 408.46 352.409 408.46C354.839 408.46 356.459 407.29 357.059 405.22H359.999C359.159 408.49 356.489 410.77 352.409 410.77C347.729 410.77 344.399 407.47 344.399 402.25ZM370.632 396.1C367.962 396.1 365.742 397.87 365.442 401.08H375.822C375.852 397.87 373.452 396.1 370.632 396.1ZM378.312 405.43C377.472 408.43 374.832 410.77 370.752 410.77C366.072 410.77 362.622 407.47 362.622 402.25C362.622 397.06 365.952 393.79 370.752 393.79C375.522 393.79 378.642 397.15 378.642 401.65C378.642 402.25 378.612 402.73 378.552 403.3H365.412C365.622 406.63 367.962 408.46 370.752 408.46C373.212 408.46 374.772 407.2 375.372 405.43H378.312Z" fill="#001424"/>
<mask id="path-7-inside-3_3087_7624" fill="white">
<path d="M0 518C0 512.477 4.47715 508 10 508H523C528.523 508 533 512.477 533 518V696C533 701.523 528.523 706 523 706H10C4.47717 706 0 701.523 0 696V518Z"/>
</mask>
<path d="M0 518C0 512.477 4.47715 508 10 508H523C528.523 508 533 512.477 533 518V696C533 701.523 528.523 706 523 706H10C4.47717 706 0 701.523 0 696V518Z" fill="#DBF0FF"/>
<path d="M0 508H533H0ZM533 696C533 704.837 525.837 712 517 712H16C7.16344 712 0 704.837 0 696C0 698.209 4.47715 700 10 700H523C528.523 700 533 698.209 533 696ZM0 706V508V706ZM533 508V706V508Z" fill="#005FA6" mask="url(#path-7-inside-3_3087_7624)"/>
<path d="M191.701 566.44C191.701 569.74 189.061 572.71 184.291 572.71C179.941 572.71 176.581 570.43 176.521 566.47H181.021C181.141 568.15 182.251 569.26 184.201 569.26C186.181 569.26 187.351 568.21 187.351 566.71C187.351 562.18 176.551 564.91 176.581 557.32C176.581 553.54 179.641 551.26 183.961 551.26C188.251 551.26 191.191 553.45 191.461 557.23H186.841C186.751 555.85 185.641 554.77 183.841 554.74C182.191 554.68 180.961 555.49 180.961 557.2C180.961 561.4 191.701 559.06 191.701 566.44ZM195.342 572.5V555.88H199.542V572.5H195.342ZM197.472 553.9C195.972 553.9 194.892 552.82 194.892 551.44C194.892 550.06 195.972 548.98 197.472 548.98C198.942 548.98 200.052 550.06 200.052 551.44C200.052 552.82 198.942 553.9 197.472 553.9ZM204.352 567.34V559.33H202.372V555.88H204.352V551.77H208.582V555.88H212.302V559.33H208.582V567.37C208.582 568.48 209.032 568.96 210.352 568.96H212.302V572.5H209.662C206.482 572.5 204.352 571.15 204.352 567.34ZM222.463 559.06C220.453 559.06 218.863 560.35 218.533 562.63H226.423C226.363 560.44 224.623 559.06 222.463 559.06ZM230.353 567.28C229.453 570.34 226.693 572.77 222.583 572.77C217.753 572.77 214.243 569.41 214.243 564.19C214.243 558.94 217.663 555.61 222.583 555.61C227.383 555.61 230.773 558.88 230.773 563.83C230.773 564.37 230.743 564.91 230.653 565.45H218.503C218.713 567.91 220.393 569.29 222.493 569.29C224.293 569.29 225.283 568.39 225.823 567.28H230.353ZM255.627 566.44C255.627 569.74 252.987 572.71 248.217 572.71C243.867 572.71 240.507 570.43 240.447 566.47H244.947C245.067 568.15 246.177 569.26 248.127 569.26C250.107 569.26 251.277 568.21 251.277 566.71C251.277 562.18 240.477 564.91 240.507 557.32C240.507 553.54 243.567 551.26 247.887 551.26C252.177 551.26 255.117 553.45 255.387 557.23H250.767C250.677 555.85 249.567 554.77 247.767 554.74C246.117 554.68 244.887 555.49 244.887 557.2C244.887 561.4 255.627 559.06 255.627 566.44ZM259.268 572.5V550.3H263.468V557.95C264.548 556.54 266.408 555.64 268.628 555.64C272.378 555.64 275.108 558.16 275.108 562.75V572.5H270.908V563.32C270.908 560.65 269.438 559.21 267.218 559.21C264.938 559.21 263.468 560.65 263.468 563.32V572.5H259.268ZM278.022 564.13C278.022 558.94 281.382 555.61 285.612 555.61C288.282 555.61 290.112 556.87 291.102 558.25V555.88H295.332V572.5H291.102V570.07C290.112 571.51 288.222 572.77 285.582 572.77C281.382 572.77 278.022 569.32 278.022 564.13ZM291.102 564.19C291.102 561.04 289.002 559.3 286.692 559.3C284.442 559.3 282.312 560.98 282.312 564.13C282.312 567.28 284.442 569.08 286.692 569.08C289.002 569.08 291.102 567.34 291.102 564.19ZM303.634 564.22V572.5H299.434V555.88H303.634V558.46C304.684 556.75 306.424 555.64 308.734 555.64V560.05H307.624C305.134 560.05 303.634 561.01 303.634 564.22ZM311.563 572.5V555.88H315.763V572.5H311.563ZM313.693 553.9C312.193 553.9 311.113 552.82 311.113 551.44C311.113 550.06 312.193 548.98 313.693 548.98C315.163 548.98 316.273 550.06 316.273 551.44C316.273 552.82 315.163 553.9 313.693 553.9ZM331.553 572.5V563.32C331.553 560.65 330.083 559.21 327.863 559.21C325.583 559.21 324.113 560.65 324.113 563.32V572.5H319.913V555.88H324.113V557.95C325.193 556.54 326.993 555.64 329.123 555.64C332.993 555.64 335.753 558.16 335.753 562.75V572.5H331.553ZM338.667 564.13C338.667 558.94 342.027 555.61 346.257 555.61C348.867 555.61 350.757 556.81 351.747 558.25V555.88H355.977V572.62C355.977 577.12 353.217 580.69 347.757 580.69C343.077 580.69 339.807 578.35 339.387 574.54H343.557C343.977 576.04 345.537 577.03 347.637 577.03C349.947 577.03 351.747 575.71 351.747 572.62V570.04C350.757 571.48 348.867 572.77 346.257 572.77C342.027 572.77 338.667 569.32 338.667 564.13ZM351.747 564.19C351.747 561.04 349.647 559.3 347.337 559.3C345.087 559.3 342.957 560.98 342.957 564.13C342.957 567.28 345.087 569.08 347.337 569.08C349.647 569.08 351.747 567.34 351.747 564.19ZM142.414 606.52H146.434C149.554 606.52 150.874 605.05 150.874 602.71C150.874 600.28 149.554 598.84 146.434 598.84H142.414V606.52ZM153.664 602.71C153.664 605.89 151.624 608.77 146.434 608.77H142.414V617.5H139.684V596.59H146.434C151.354 596.59 153.664 599.29 153.664 602.71ZM159.787 608.56V617.5H157.057V601.06H159.787V603.73C160.717 601.9 162.487 600.76 165.097 600.76V603.58H164.377C161.767 603.58 159.787 604.75 159.787 608.56ZM183.848 609.25C183.848 614.47 180.098 617.77 175.418 617.77C170.768 617.77 167.228 614.47 167.228 609.25C167.228 604.06 170.888 600.79 175.538 600.79C180.218 600.79 183.848 604.06 183.848 609.25ZM170.018 609.25C170.018 613.42 172.568 615.37 175.418 615.37C178.268 615.37 181.058 613.42 181.058 609.25C181.058 605.11 178.328 603.16 175.508 603.16C172.628 603.16 170.018 605.11 170.018 609.25ZM185.488 601.06H188.428L193.558 614.98L198.658 601.06H201.568L195.118 617.5H191.938L185.488 601.06ZM204.254 617.5V601.06H206.984V617.5H204.254ZM205.664 598.39C204.614 598.39 203.804 597.58 203.804 596.53C203.804 595.48 204.614 594.67 205.664 594.67C206.654 594.67 207.464 595.48 207.464 596.53C207.464 597.58 206.654 598.39 205.664 598.39ZM210.617 609.22C210.617 604.09 214.007 600.79 218.447 600.79C221.027 600.79 223.397 602.11 224.537 604V595.3H227.297V617.5H224.537V614.41C223.547 616.24 221.417 617.77 218.417 617.77C214.007 617.77 210.617 614.32 210.617 609.22ZM224.537 609.25C224.537 605.44 221.957 603.16 218.957 603.16C215.957 603.16 213.407 605.35 213.407 609.22C213.407 613.09 215.957 615.37 218.957 615.37C221.957 615.37 224.537 613.12 224.537 609.25ZM238.901 603.1C236.231 603.1 234.011 604.87 233.711 608.08H244.091C244.121 604.87 241.721 603.1 238.901 603.1ZM246.581 612.43C245.741 615.43 243.101 617.77 239.021 617.77C234.341 617.77 230.891 614.47 230.891 609.25C230.891 604.06 234.221 600.79 239.021 600.79C243.791 600.79 246.911 604.15 246.911 608.65C246.911 609.25 246.881 609.73 246.821 610.3H233.681C233.891 613.63 236.231 615.46 239.021 615.46C241.481 615.46 243.041 614.2 243.641 612.43H246.581ZM270.332 613.03C270.332 615.73 267.962 617.77 264.332 617.77C260.492 617.77 257.792 615.67 257.612 612.67H260.432C260.582 614.26 261.992 615.46 264.302 615.46C266.462 615.46 267.662 614.38 267.662 613.03C267.662 609.37 257.942 611.5 257.942 605.38C257.942 602.86 260.312 600.79 263.972 600.79C267.602 600.79 270.002 602.74 270.182 605.95H267.452C267.332 604.3 266.072 603.1 263.882 603.1C261.872 603.1 260.672 604.06 260.672 605.38C260.672 609.28 270.212 607.15 270.332 613.03ZM276.916 604.09C277.906 602.35 280.066 600.79 283.066 600.79C287.476 600.79 290.866 604.09 290.866 609.22C290.866 614.32 287.476 617.77 283.066 617.77C280.066 617.77 277.936 616.15 276.916 614.47V625.3H274.186V601.06H276.916V604.09ZM288.076 609.22C288.076 605.35 285.526 603.16 282.496 603.16C279.526 603.16 276.916 605.44 276.916 609.25C276.916 613.12 279.526 615.37 282.496 615.37C285.526 615.37 288.076 613.09 288.076 609.22ZM293.439 609.22C293.439 604.09 296.829 600.79 301.239 600.79C304.299 600.79 306.399 602.35 307.359 604.06V601.06H310.119V617.5H307.359V614.44C306.369 616.21 304.239 617.77 301.209 617.77C296.829 617.77 293.439 614.32 293.439 609.22ZM307.359 609.25C307.359 605.44 304.779 603.16 301.779 603.16C298.779 603.16 296.229 605.35 296.229 609.22C296.229 613.09 298.779 615.37 301.779 615.37C304.779 615.37 307.359 613.12 307.359 609.25ZM313.713 609.25C313.713 604.09 317.043 600.79 321.723 600.79C325.803 600.79 328.473 602.89 329.313 606.34H326.373C325.803 604.36 324.153 603.1 321.723 603.1C318.723 603.1 316.503 605.23 316.503 609.25C316.503 613.33 318.723 615.46 321.723 615.46C324.153 615.46 325.773 614.29 326.373 612.22H329.313C328.473 615.49 325.803 617.77 321.723 617.77C317.043 617.77 313.713 614.47 313.713 609.25ZM339.946 603.1C337.276 603.1 335.056 604.87 334.756 608.08H345.136C345.166 604.87 342.766 603.1 339.946 603.1ZM347.626 612.43C346.786 615.43 344.146 617.77 340.066 617.77C335.386 617.77 331.936 614.47 331.936 609.25C331.936 604.06 335.266 600.79 340.066 600.79C344.836 600.79 347.956 604.15 347.956 608.65C347.956 609.25 347.926 609.73 347.866 610.3H334.726C334.936 613.63 337.276 615.46 340.066 615.46C342.526 615.46 344.086 614.2 344.686 612.43H347.626ZM375.157 609.25C375.157 614.47 371.407 617.77 366.727 617.77C362.077 617.77 358.537 614.47 358.537 609.25C358.537 604.06 362.197 600.79 366.847 600.79C371.527 600.79 375.157 604.06 375.157 609.25ZM361.327 609.25C361.327 613.42 363.877 615.37 366.727 615.37C369.577 615.37 372.367 613.42 372.367 609.25C372.367 605.11 369.637 603.16 366.817 603.16C363.937 603.16 361.327 605.11 361.327 609.25ZM390.777 617.5V608.2C390.777 604.84 388.947 603.13 386.187 603.13C383.397 603.13 381.477 604.87 381.477 608.41V617.5H378.747V601.06H381.477V603.4C382.557 601.69 384.537 600.76 386.757 600.76C390.567 600.76 393.477 603.1 393.477 607.81V617.5H390.777ZM141.796 641.35C146.206 641.35 149.866 643.63 151.426 647.65H148.156C147.016 645.22 144.736 643.81 141.796 643.81C137.386 643.81 134.086 646.99 134.086 652.03C134.086 657.04 137.386 660.22 141.796 660.22C145.906 660.22 148.726 657.58 149.146 653.44H140.806V651.22H152.056V653.32C151.576 658.51 147.466 662.68 141.796 662.68C135.916 662.68 131.296 658.3 131.296 652.03C131.296 645.76 135.916 641.35 141.796 641.35ZM169.255 656.8C169.255 659.77 166.825 662.71 162.295 662.71C158.095 662.71 155.125 660.37 155.065 656.92H157.975C158.155 658.66 159.385 660.4 162.295 660.4C164.935 660.4 166.495 658.9 166.495 656.92C166.495 651.28 155.185 654.88 155.185 647.11C155.185 643.66 157.975 641.32 162.115 641.32C166.105 641.32 168.715 643.51 169.045 646.69H166.045C165.865 645.28 164.545 643.69 161.995 643.66C159.745 643.6 157.975 644.77 157.975 647.02C157.975 652.42 169.255 649.06 169.255 656.8ZM173.273 662.5V641.74H176.213L183.893 658.9L191.573 641.74H194.483V662.5H191.753V647.02L184.853 662.5H182.933L176.003 646.99V662.5H173.273ZM205.821 643.81V641.59H219.981V643.81H214.281V662.5H211.551V643.81H205.821ZM238.941 654.25C238.941 659.47 235.191 662.77 230.511 662.77C225.861 662.77 222.321 659.47 222.321 654.25C222.321 649.06 225.981 645.79 230.631 645.79C235.311 645.79 238.941 649.06 238.941 654.25ZM225.111 654.25C225.111 658.42 227.661 660.37 230.511 660.37C233.361 660.37 236.151 658.42 236.151 654.25C236.151 650.11 233.421 648.16 230.601 648.16C227.721 648.16 225.111 650.11 225.111 654.25ZM245.741 662.5L240.581 646.06H243.371L247.151 659.86L251.231 646.06H254.021L258.011 659.89L261.731 646.06H264.431L259.301 662.5H256.481L252.521 649.45L248.561 662.5H245.741ZM274.13 648.1C271.46 648.1 269.24 649.87 268.94 653.08H279.32C279.35 649.87 276.95 648.1 274.13 648.1ZM281.81 657.43C280.97 660.43 278.33 662.77 274.25 662.77C269.57 662.77 266.12 659.47 266.12 654.25C266.12 649.06 269.45 645.79 274.25 645.79C279.02 645.79 282.14 649.15 282.14 653.65C282.14 654.25 282.11 654.73 282.05 655.3H268.91C269.12 658.63 271.46 660.46 274.25 660.46C276.71 660.46 278.27 659.2 278.87 657.43H281.81ZM288.474 653.56V662.5H285.744V646.06H288.474V648.73C289.404 646.9 291.174 645.76 293.784 645.76V648.58H293.064C290.454 648.58 288.474 649.75 288.474 653.56ZM317.533 646.06H314.803C314.863 644.35 313.723 643.42 312.253 643.42C310.633 643.42 309.583 644.44 309.583 645.82C309.583 647.05 310.273 648.07 311.743 649.63L317.983 655.9C318.163 655.63 318.343 655.36 318.523 655.06L320.563 651.64H323.503L321.043 655.9C320.653 656.59 320.263 657.19 319.843 657.79L324.553 662.5H320.983L318.253 659.74C316.243 661.84 313.993 662.86 311.053 662.86C306.703 662.86 303.733 660.37 303.733 656.5C303.733 653.62 305.383 651.31 308.653 650.02C307.363 648.52 306.853 647.35 306.853 645.82C306.853 643.15 308.983 641.17 312.373 641.17C315.673 641.17 317.683 643.27 317.533 646.06ZM311.053 660.52C313.213 660.52 314.893 659.68 316.453 657.94L310.303 651.76C307.693 652.75 306.463 654.31 306.463 656.41C306.463 658.75 308.323 660.52 311.053 660.52ZM348.699 656.8C348.699 659.77 346.269 662.71 341.739 662.71C337.539 662.71 334.569 660.37 334.509 656.92H337.419C337.599 658.66 338.829 660.4 341.739 660.4C344.379 660.4 345.939 658.9 345.939 656.92C345.939 651.28 334.629 654.88 334.629 647.11C334.629 643.66 337.419 641.32 341.559 641.32C345.549 641.32 348.159 643.51 348.489 646.69H345.489C345.309 645.28 343.989 643.69 341.439 643.66C339.189 643.6 337.419 644.77 337.419 647.02C337.419 652.42 348.699 649.06 348.699 656.8ZM352.716 662.5V646.06H355.446V662.5H352.716ZM354.126 643.39C353.076 643.39 352.266 642.58 352.266 641.53C352.266 640.48 353.076 639.67 354.126 639.67C355.116 639.67 355.926 640.48 355.926 641.53C355.926 642.58 355.116 643.39 354.126 643.39ZM360.699 658V648.31H358.569V646.06H360.699V641.92H363.429V646.06H367.719V648.31H363.429V658C363.429 659.62 364.029 660.19 365.709 660.19H367.719V662.5H365.259C362.349 662.5 360.699 661.3 360.699 658ZM378.017 648.1C375.347 648.1 373.127 649.87 372.827 653.08H383.207C383.237 649.87 380.837 648.1 378.017 648.1ZM385.697 657.43C384.857 660.43 382.217 662.77 378.137 662.77C373.457 662.77 370.007 659.47 370.007 654.25C370.007 649.06 373.337 645.79 378.137 645.79C382.907 645.79 386.027 649.15 386.027 653.65C386.027 654.25 385.997 654.73 385.937 655.3H372.797C373.007 658.63 375.347 660.46 378.137 660.46C380.597 660.46 382.157 659.2 382.757 657.43H385.697ZM401.45 658.03C401.45 660.73 399.08 662.77 395.45 662.77C391.61 662.77 388.91 660.67 388.73 657.67H391.55C391.7 659.26 393.11 660.46 395.42 660.46C397.58 660.46 398.78 659.38 398.78 658.03C398.78 654.37 389.06 656.5 389.06 650.38C389.06 647.86 391.43 645.79 395.09 645.79C398.72 645.79 401.12 647.74 401.3 650.95H398.57C398.45 649.3 397.19 648.1 395 648.1C392.99 648.1 391.79 649.06 391.79 650.38C391.79 654.28 401.33 652.15 401.45 658.03Z" fill="#001424"/>
</svg>
