<svg width="971" height="1257" viewBox="0 0 971 1257" fill="none" xmlns="http://www.w3.org/2000/svg">
<g clip-path="url(#clip0_3087_7637)">
<path d="M1110.69 854.975C1109.79 863.285 1102.99 866.458 1097.09 869.631C1091.35 872.653 1090.45 875.826 1092.56 881.568C1101.02 905.44 1091.81 925.687 1078.66 944.876C1068.39 959.683 1053.88 969.353 1037.26 976.153C1025.32 980.988 1015.96 989.147 1008.55 999.723C1005.23 1004.41 1004.32 1008.94 1007.65 1014.23C1017.47 1029.94 1020.19 1047.32 1018.52 1065.6C1017.62 1074.82 1014.14 1083.58 1010.21 1091.89C1006.44 1100.05 1006.74 1100.81 1014.9 1105.04C1022.3 1108.81 1029.55 1112.74 1036.81 1116.67C1046.48 1121.81 1047.08 1121.96 1052.82 1112.59C1060.08 1100.96 1069.59 1091.29 1080.62 1083.43C1094.52 1073.61 1110.39 1067.11 1127.31 1066.51C1153.9 1065.45 1178.53 1083.28 1178.23 1110.17C1178.08 1125.58 1169.32 1136.77 1156.93 1145.38C1148.01 1151.57 1147.41 1155.05 1152.55 1165.02C1156.02 1171.97 1160.55 1178.32 1162.97 1185.87C1165.39 1193.27 1165.84 1200.68 1164.03 1208.08C1162.82 1213.07 1164.03 1215.79 1168.56 1218.36C1184.27 1226.97 1194.4 1239.96 1198.02 1257.79C1144.69 1257.79 1091.35 1257.79 1038.17 1257.79C1036.66 1255.83 1034.24 1255.53 1032.27 1254.92C1020.64 1250.99 1009.16 1246.76 997.22 1243.44C989.666 1241.32 986.342 1238 986.946 1229.84C987.701 1220.02 987.097 1210.2 987.097 1200.38C987.097 1182.55 987.701 1181.94 1005.83 1182.09C1011.12 1182.09 1015.05 1183 1013.69 1189.65C1013.39 1190.86 1013.39 1192.37 1015.05 1192.67C1017.16 1192.97 1017.47 1191.31 1017.47 1189.8C1017.47 1184.51 1017.47 1179.22 1017.32 1173.93C1017.32 1172.57 1016.86 1171.37 1015.35 1171.21C1013.54 1171.21 1012.63 1172.27 1012.93 1174.09C1013.69 1179.53 1010.21 1179.53 1006.44 1179.53C1002.21 1179.37 997.825 1179.37 993.594 1179.68C988.759 1179.83 986.795 1177.71 986.946 1172.88C987.248 1166.38 987.097 1159.88 987.097 1153.23C987.097 1148.4 985.737 1143.11 993.745 1139.49C985.737 1138.58 980.449 1137.52 975.312 1141.3C982.866 1140.39 984.529 1144.02 983.773 1150.21C983.471 1152.63 983.622 1155.2 983.773 1157.77C983.924 1161.85 983.622 1165.47 977.88 1164.72C976.52 1164.57 974.707 1165.17 975.01 1167.29C975.312 1168.95 976.823 1168.95 978.031 1168.8C983.018 1168.19 984.226 1170.76 983.924 1174.99C983.622 1180.13 979.996 1179.22 976.672 1179.22C971.081 1179.22 965.642 1179.22 960.051 1179.22C966.095 1182.7 972.29 1182.09 978.334 1182.09C981.96 1182.09 983.924 1183 983.924 1187.23C983.773 1203.1 983.773 1218.96 983.924 1234.67C983.924 1238 982.866 1238.6 979.996 1237.7C963.829 1232.41 947.51 1227.27 931.343 1221.98C926.206 1220.32 924.091 1216.24 924.393 1210.8C924.997 1201.28 924.242 1200.68 914.723 1200.53C898.858 1200.53 882.993 1200.53 867.279 1200.23C857.307 1200.07 848.09 1197.05 839.327 1192.37C836.91 1191.01 834.19 1189.8 834.945 1186.17C837.061 1174.69 834.492 1163.06 835.55 1151.57C836.154 1145.38 834.341 1142.96 827.844 1142.96C809.713 1142.96 791.581 1142.2 773.601 1141.9C768.615 1141.75 765.895 1140.09 765.291 1134.5C761.665 1102.01 757.283 1069.68 754.11 1037.19C751.692 1012.42 748.217 987.787 745.8 963.158C748.368 959.23 750.484 961.043 752.75 963.612C760.154 971.771 768.766 978.872 777.378 985.671C779.796 987.636 782.213 992.32 784.933 990.809C788.106 988.844 787.955 983.858 787.955 979.93C787.804 954.697 788.711 929.464 783.724 904.232C777.832 874.164 771.788 844.398 757.283 817.05C756.225 815.086 753.959 813.122 756.074 809.647C773.903 828.382 792.941 845.456 809.864 864.645C817.872 873.711 826.635 882.021 835.248 890.331C839.176 894.108 842.651 892.446 843.709 887.309C848.091 866.609 852.472 845.758 856.854 825.058C859.725 811.46 863.955 797.861 865.617 784.112C867.128 771.118 879.82 759.937 872.417 745.432C872.266 745.13 872.568 744.525 872.719 743.921C873.777 733.646 874.985 723.523 881.633 714.911C882.691 713.551 882.993 711.133 882.842 709.169C882.389 699.348 883.295 689.678 885.864 680.159C889.037 667.921 889.792 654.926 894.93 643.141C908.83 649.94 918.651 661.121 928.019 672.907C938.747 686.656 946.151 702.37 953.252 718.084C955.518 723.221 958.389 724.732 963.526 724.581C976.823 724.43 990.119 724.279 1003.42 724.581C1017.16 724.883 1030.76 726.243 1044.21 729.114C1043.3 731.229 1041.64 731.833 1039.38 732.136C1026.23 734.1 1022.15 745.13 1031.07 757.519C1035.15 763.11 1042.85 766.434 1041.94 775.197C1041.94 775.651 1042.85 776.406 1043.3 776.859C1048.59 781.392 1062.64 781.694 1067.48 777.464C1073.67 771.873 1074.28 762.052 1068.69 754.497C1067.33 752.684 1063.85 751.022 1066.87 748.454C1069.9 745.734 1071.41 748.605 1073.22 751.022C1097.09 781.846 1106.61 817.504 1110.69 854.975ZM1047.84 892.597C1040.58 892.446 1036.66 895.619 1036.66 901.512C1036.66 906.951 1041.64 912.089 1047.08 912.24C1052.97 912.391 1056.15 908.613 1056.3 901.965C1056.6 896.073 1054.64 892.144 1047.84 892.597ZM1091.05 817.202C1095.58 817.202 1099.36 814.784 1099.66 810.1C1099.81 806.172 1097.09 803.452 1092.26 803.603C1087.42 803.754 1083.65 804.812 1083.65 810.553C1083.34 815.086 1086.21 817.05 1091.05 817.202ZM1029.1 914.204C1028.8 910.729 1027.29 907.858 1023.36 908.009C1019.43 908.311 1017.16 911.182 1017.16 915.11C1017.16 918.888 1019.58 921.154 1023.36 921.003C1027.29 920.852 1028.95 918.283 1029.1 914.204Z" fill="#CBD8E3"/>
<path d="M126.919 1257.79C129.79 1237.54 140.971 1222.44 157.591 1211.86C171.341 1203.25 186.601 1198.26 203.373 1201.89C209.567 1203.25 212.74 1199.62 214.251 1194.18C217.122 1184.51 217.424 1174.54 218.784 1164.57C219.389 1159.58 219.54 1154.9 221.655 1150.06C226.037 1139.64 222.562 1129.36 219.086 1119.39C211.834 1098.54 215.309 1080.41 230.57 1064.09C251.723 1041.42 278.315 1032.51 308.383 1033.27C322.737 1033.57 337.242 1036.44 351.747 1035.99C381.664 1035.08 405.385 1021.48 425.481 1000.48C430.467 995.341 428.503 989.901 425.179 984.764C418.531 974.641 412.034 964.669 406.443 953.941C397.528 936.867 393.449 918.585 392.845 899.849C392.391 883.682 396.924 868.12 405.99 854.37C411.278 846.211 413.847 837.145 415.055 827.626C419.739 790.155 438.022 762.656 474.284 749.662C523.39 731.984 569.625 739.236 613.291 766.887C618.277 770.06 621.299 775.197 626.436 778.067C626.738 779.125 627.04 780.183 627.343 781.24C624.472 797.71 622.508 814.179 621.903 830.799V830.95L621.752 831.253V831.102C618.277 850.593 614.349 870.084 614.046 889.877C610.118 916.167 606.189 942.307 602.261 968.597C597.426 1001.54 592.742 1034.63 587.605 1067.56C581.712 1105.19 575.064 1142.66 570.38 1180.58C564.487 1182.55 558.444 1181.94 552.551 1182.24C544.694 1182.55 544.09 1183.6 546.507 1191.46C546.507 1191.91 546.658 1192.37 546.658 1192.97C545.299 1206.57 544.694 1207.33 532.002 1210.95C514.324 1215.94 496.495 1221.08 478.817 1226.06C477.911 1212.01 479.119 1197.96 477.457 1183.91C476.853 1178.01 479.875 1174.99 486.221 1176.2C489.696 1176.8 493.171 1177.11 496.646 1177.11C502.539 1177.11 506.618 1178.62 505.41 1185.72C504.956 1188.29 505.41 1190.1 508.734 1190.25C512.058 1190.4 513.267 1188.89 513.267 1185.87C513.115 1177.11 513.267 1168.34 513.267 1159.43C513.267 1156.26 511.604 1154.9 508.583 1154.9C505.259 1155.05 505.41 1157.46 505.41 1159.73C505.41 1161.54 505.561 1163.21 505.712 1165.02C506.769 1171.82 503.143 1173.33 497.251 1172.73C493.473 1172.42 489.696 1171.67 485.918 1171.97C479.27 1172.42 477.759 1169.1 477.911 1163.36C478.062 1147.79 478.062 1132.23 477.911 1116.67C477.759 1099.44 477.608 1099.29 460.232 1100.96C458.57 1101.11 456.304 1100.8 456.002 1103.07C455.7 1106.39 458.57 1105.19 460.384 1105.64C464.312 1106.55 468.996 1103.83 473.529 1108.51C465.672 1108.51 459.024 1108.36 452.225 1108.51C450.26 1108.51 447.087 1107 446.634 1110.32C446.181 1113.95 449.505 1113.19 451.469 1113.04C455.549 1112.74 455.851 1115.01 455.851 1118.18C455.7 1133.44 455.851 1148.85 455.851 1164.11C455.851 1165.77 456.606 1168.04 454.34 1168.65C448.598 1170.16 442.857 1170.46 437.417 1167.74C432.884 1165.47 434.849 1161.24 434.698 1157.62C434.547 1155.8 434.698 1154.14 434.698 1152.33C434.849 1149.15 432.733 1148.7 430.316 1148.7C427.596 1148.7 426.992 1150.21 426.992 1152.63C426.992 1162.9 426.992 1173.18 427.143 1183.6C427.143 1185.57 427.747 1187.08 430.165 1187.08C432.28 1187.08 434.244 1186.78 434.698 1184.21C435 1182.55 435 1180.73 434.849 1178.92C434.395 1174.39 435.906 1172.57 440.741 1173.18C448.9 1174.09 457.211 1174.84 465.521 1174.99C471.111 1175.14 472.924 1177.56 472.773 1182.85C472.471 1196.6 472.471 1210.5 472.32 1224.25C469.449 1227.12 465.974 1228.93 462.046 1229.99C434.093 1237.39 406.141 1244.65 378.188 1252.35C372.9 1253.86 367.007 1254.01 362.475 1257.79C283.755 1257.79 205.337 1257.79 126.919 1257.79Z" fill="#E0E4EC"/>
<path d="M546.507 1192.82C546.507 1192.37 546.356 1191.91 546.356 1191.31C554.515 1188.14 563.128 1190.25 571.438 1189.8C576.726 1189.5 580.201 1188.14 579.597 1181.94C584.281 1181.94 589.116 1181.94 593.8 1181.79C598.03 1181.64 600.75 1183 600.297 1187.68C599.844 1191.76 601.657 1192.97 605.434 1192.97C613.895 1192.67 622.357 1192.52 630.969 1192.37C636.408 1192.37 641.848 1192.37 647.287 1192.52C653.331 1192.67 659.375 1192.67 665.418 1192.82C669.045 1192.37 673.124 1190.71 676.448 1191.61C687.327 1194.48 696.997 1191.61 706.365 1186.78C706.969 1192.52 710.142 1194.94 716.035 1194.48C721.323 1194.03 726.46 1194.33 731.749 1194.33C750.938 1194.33 748.067 1196.45 748.52 1177.56C748.822 1165.62 746.707 1153.54 750.031 1141.9C755.017 1141.6 757.435 1139.49 755.622 1134.2C756.226 1131.48 754.715 1129.06 753.959 1126.64C754.111 1124.98 754.564 1123.17 754.413 1121.5C752.146 1102.16 750.031 1082.98 747.462 1063.64C746.556 1056.84 747.462 1049.74 743.534 1043.54C745.196 1040.97 747.009 1038.4 743.987 1035.68C742.779 1014.23 740.965 992.773 737.792 971.468C737.188 970.109 736.735 968.749 736.13 967.389C736.13 965.274 736.13 963.007 736.13 960.892C734.619 943.818 732.655 926.593 731.9 909.52C731.446 901.814 729.029 898.641 721.474 900.454C722.985 899.699 724.345 898.943 725.856 898.188C727.669 897.281 729.18 896.224 728.878 893.806C728.425 890.935 726.158 891.691 724.345 891.389C721.776 884.74 714.826 880.963 713.013 873.559C719.51 877.488 722.985 884.438 729.18 891.54C727.518 874.315 726.158 859.205 724.345 844.247C724.043 841.527 720.87 839.261 722.381 835.786C725.705 833.217 723.741 829.591 724.194 826.418C723.287 816.597 721.625 806.776 721.625 796.955C721.625 791.969 717.093 788.04 719.359 783.054C720.87 782.45 722.381 781.694 723.892 781.09C727.065 809.647 730.087 838.203 733.411 866.609C737.188 898.943 740.361 931.428 745.649 963.763C748.218 988.542 751.542 1013.02 753.959 1037.8C757.132 1070.28 761.514 1102.62 765.14 1135.1C765.745 1140.69 768.313 1142.36 773.451 1142.51C791.582 1142.81 809.713 1143.41 827.693 1143.56C834.19 1143.56 836.004 1145.98 835.399 1152.18C834.342 1163.66 836.91 1175.29 834.795 1186.78C834.039 1190.4 836.759 1191.61 839.177 1192.97C847.94 1197.66 857.157 1200.53 867.129 1200.83C882.994 1201.13 898.859 1201.13 914.572 1201.13C924.091 1201.13 924.847 1201.89 924.243 1211.41C923.94 1216.85 926.056 1220.77 931.193 1222.59C947.36 1227.88 963.678 1233.01 979.845 1238.3C982.716 1239.21 983.925 1238.6 983.774 1235.28C983.623 1219.41 983.623 1203.55 983.774 1187.84C983.774 1183.76 981.96 1182.7 978.183 1182.7C971.988 1182.7 965.793 1183.3 959.901 1179.83C965.491 1179.83 970.931 1179.83 976.521 1179.83C979.694 1179.83 983.32 1180.73 983.774 1175.6C984.076 1171.21 982.867 1168.8 977.881 1169.4C976.672 1169.55 975.161 1169.4 974.859 1167.89C974.557 1165.78 976.37 1165.17 977.73 1165.32C983.471 1166.08 983.774 1162.45 983.622 1158.37C983.471 1155.8 983.32 1153.39 983.622 1150.82C984.378 1144.62 982.716 1140.84 975.161 1141.9C980.298 1138.13 985.587 1139.18 993.595 1140.09C985.587 1143.72 987.098 1149 986.947 1153.84C986.947 1160.34 986.947 1166.98 986.796 1173.48C986.644 1178.32 988.457 1180.43 993.444 1180.28C997.674 1180.13 1002.06 1180.13 1006.29 1180.13C1010.06 1180.28 1013.54 1180.13 1012.78 1174.69C1012.48 1172.88 1013.39 1171.82 1015.2 1171.82C1016.86 1171.82 1017.17 1173.18 1017.17 1174.54C1017.32 1179.83 1017.32 1185.12 1017.32 1190.4C1017.32 1191.91 1017.01 1193.58 1014.9 1193.27C1013.24 1192.97 1013.39 1191.46 1013.54 1190.25C1014.9 1183.6 1010.97 1182.85 1005.68 1182.7C987.551 1182.55 986.947 1183.15 986.947 1200.98C986.947 1210.8 987.551 1220.62 986.796 1230.44C986.191 1238.75 989.515 1242.08 997.07 1244.04C1008.86 1247.37 1020.49 1251.45 1032.12 1255.53C1034.24 1256.28 1036.66 1256.43 1038.02 1258.4C869.093 1258.4 700.019 1258.4 531.096 1258.4C549.227 1237.7 568.869 1218.36 588.36 1199.02C589.871 1197.51 592.893 1196.15 591.987 1193.88C590.929 1191.16 587.605 1192.22 585.187 1192.07C572.344 1190.4 559.501 1192.82 546.507 1192.82Z" fill="#3B3C43"/>
<path d="M546.507 1192.82C559.501 1192.82 572.344 1190.4 585.49 1191.46C587.907 1191.61 591.231 1190.56 592.289 1193.28C593.195 1195.54 590.173 1196.9 588.663 1198.41C569.171 1217.75 549.529 1237.09 531.398 1257.79C513.871 1257.79 496.193 1257.79 478.666 1257.79C478.666 1247.22 478.817 1236.49 478.817 1225.91C496.495 1220.93 514.324 1215.94 532.002 1210.8C544.543 1207.18 545.147 1206.42 546.507 1192.82Z" fill="#005FA6"/>
<path d="M478.515 1225.91C478.515 1236.49 478.364 1247.22 478.364 1257.79C476.4 1257.79 474.284 1257.79 472.32 1257.79C472.32 1246.61 472.169 1235.43 472.169 1224.25C472.32 1210.5 472.32 1196.6 472.622 1182.85C472.773 1177.41 470.96 1175.14 465.37 1174.99C457.06 1174.84 448.749 1174.09 440.59 1173.18C435.755 1172.57 434.244 1174.39 434.698 1178.92C434.849 1180.58 434.849 1182.4 434.547 1184.21C434.244 1186.78 432.28 1187.23 430.014 1187.08C427.747 1187.08 427.143 1185.57 426.992 1183.6C426.992 1173.33 426.992 1163.06 426.841 1152.63C426.841 1150.21 427.596 1148.7 430.165 1148.7C432.582 1148.7 434.698 1149.16 434.547 1152.33C434.547 1154.14 434.396 1155.8 434.547 1157.62C434.698 1161.24 432.733 1165.47 437.266 1167.74C442.706 1170.46 448.447 1170.16 454.189 1168.65C456.304 1168.04 455.7 1165.78 455.7 1164.11C455.7 1148.85 455.7 1133.44 455.7 1118.18C455.7 1115.01 455.549 1112.74 451.318 1113.04C449.354 1113.19 446.03 1114.1 446.483 1110.32C446.936 1107 450.109 1108.51 452.074 1108.51C458.722 1108.36 465.37 1108.51 473.378 1108.51C468.845 1103.83 464.161 1106.4 460.233 1105.64C458.419 1105.34 455.7 1106.4 455.851 1103.07C456.002 1100.81 458.268 1101.11 460.082 1100.96C477.608 1099.29 477.76 1099.29 477.76 1116.67C477.911 1132.23 477.911 1147.8 477.76 1163.36C477.76 1169.1 479.119 1172.42 485.767 1171.97C489.545 1171.67 493.322 1172.27 497.1 1172.73C502.841 1173.33 506.618 1171.82 505.561 1165.02C505.259 1163.36 505.259 1161.54 505.259 1159.73C505.259 1157.47 505.108 1155.05 508.432 1154.9C511.453 1154.75 513.116 1156.11 513.116 1159.43C513.116 1168.19 513.116 1176.96 513.116 1185.87C513.116 1189.04 511.907 1190.4 508.583 1190.25C505.41 1190.1 504.805 1188.29 505.259 1185.72C506.467 1178.62 502.539 1177.11 496.495 1177.11C493.02 1177.11 489.394 1176.81 486.07 1176.2C479.724 1174.99 476.551 1178.01 477.306 1183.91C478.817 1197.66 477.608 1211.86 478.515 1225.91ZM460.233 1156.41C460.233 1158.37 459.93 1160.49 460.233 1162.45C460.686 1165.93 458.419 1170.76 465.521 1170.61C471.867 1170.46 473.076 1167.29 472.925 1162.15C472.773 1157.92 472.773 1153.69 472.925 1149.46C473.076 1143.41 468.996 1142.81 464.463 1142.36C458.722 1141.75 460.686 1146.28 460.233 1149C459.93 1151.42 460.233 1153.99 460.233 1156.41ZM460.233 1124.98C460.233 1126.79 460.384 1128.46 460.082 1130.27C459.326 1135.71 460.988 1138.43 467.032 1138.73C473.68 1139.03 472.773 1134.65 472.925 1130.87C473.076 1127.1 472.925 1123.32 472.925 1119.69C472.925 1113.65 468.996 1113.19 464.312 1113.04C458.571 1112.89 460.384 1116.82 460.233 1119.69C460.082 1121.5 460.233 1123.32 460.233 1124.98Z" fill="#3B3C43"/>
<path d="M472.168 1224.25C472.168 1235.43 472.319 1246.61 472.319 1257.79C435.604 1257.79 398.888 1257.79 362.172 1257.79C366.705 1254.01 372.597 1253.86 377.886 1252.35C405.838 1244.65 433.79 1237.39 461.743 1229.99C465.822 1228.93 469.298 1227.27 472.168 1224.25Z" fill="#005FA6"/>
<path d="M745.649 963.461C740.361 931.278 737.188 898.793 733.411 866.308C730.087 837.751 727.065 809.194 723.892 780.788C723.892 778.824 723.892 777.011 724.043 775.047C725.403 768.852 721.776 762.959 723.438 756.915C727.971 734.1 732.051 711.285 738.094 688.923C742.174 673.209 749.124 658.704 758.643 645.71C768.918 631.658 784.783 625.615 801.403 623.046C819.534 620.175 837.817 620.931 855.797 624.255C870.453 626.975 883.749 633.472 894.93 643.595C889.642 655.38 889.037 668.223 885.865 680.613C883.296 690.132 882.389 699.802 882.843 709.623C882.843 711.587 882.692 714.005 881.634 715.365C875.137 723.977 873.928 734.1 872.719 744.375C872.719 744.828 872.266 745.432 872.417 745.886C879.821 760.391 867.129 771.42 865.618 784.566C863.956 798.315 859.725 811.914 856.854 825.512C852.322 846.212 848.091 867.063 843.709 887.763C842.652 892.9 839.176 894.562 835.248 890.785C826.485 882.475 817.721 874.165 809.864 865.099C792.942 845.91 773.753 828.836 756.075 810.101C753.959 813.576 756.226 815.54 757.283 817.504C771.788 844.852 777.832 874.618 783.725 904.685C788.711 929.767 787.804 955 787.956 980.384C787.956 984.312 787.956 989.449 784.934 991.262C782.365 992.924 779.796 988.089 777.379 986.125C768.767 979.326 760.305 972.225 752.751 964.065C750.333 961.346 748.218 959.533 745.649 963.461Z" fill="#E0E4EC"/>
<path d="M613.744 346.393C613.744 344.882 613.744 343.371 613.744 341.86L614.349 342.011L614.953 341.86C617.219 342.464 618.73 344.126 619.939 346.091C616.162 348.961 619.032 352.134 619.637 355.156C619.032 356.214 617.824 357.272 617.824 358.329C617.673 374.496 616.162 390.663 618.428 406.83C618.73 412.723 619.032 418.616 619.335 424.508C617.824 428.588 620.09 430.703 623.414 432.214C629.911 435.085 636.106 438.711 643.661 438.258C643.812 435.689 640.337 435.236 641.243 432.819C644.114 432.214 647.136 431.61 650.007 431.157C653.633 430.552 655.446 428.89 654.54 424.962C654.691 421.335 654.691 417.86 654.842 414.234C655.144 414.083 655.597 413.932 655.899 413.781C660.583 413.781 665.418 413.932 670.102 413.932C675.693 413.781 680.981 416.349 686.572 415.594L686.42 415.896C689.442 416.803 692.464 417.558 695.486 418.465C705.76 418.767 715.884 419.825 725.554 423.904C731.598 426.473 735.526 423.904 735.073 417.86C732.806 394.139 734.771 370.115 731.446 346.393C731.446 344.429 731.598 342.313 731.598 340.349C729.633 337.327 726.763 338.687 724.345 338.989C719.359 339.443 715.43 342.918 711.049 344.882C709.387 344.429 707.271 345.486 705.76 343.975C705.912 341.558 708.782 341.709 709.236 339.896C712.56 338.083 717.093 338.687 719.661 334.456C711.804 333.097 704.401 331.737 696.997 330.528C695.335 330.226 692.766 329.017 692.615 332.492C690.953 333.097 689.291 333.701 687.478 334.305C685.061 334.607 682.643 334.91 683.399 338.385C674.182 337.629 665.721 332.794 656.353 333.852C655.748 333.399 655.295 332.945 654.691 332.492C654.691 331.888 654.54 331.434 654.54 330.83C654.691 324.635 650.309 327.808 648.345 328.413C638.977 330.981 629.911 334.154 620.694 337.176C618.579 337.327 616.615 337.478 614.5 337.78C613.291 333.852 616.917 333.399 618.73 331.586C630.818 327.506 642.754 323.427 654.842 319.347C664.512 322.52 674.635 322.067 684.607 322.218C686.269 324.182 687.78 323.275 689.442 322.218C690.802 322.822 692.011 323.275 693.371 323.88C704.703 325.995 715.884 328.11 727.065 330.377C730.087 330.981 732.202 330.679 732.051 327.053C731.598 304.086 731.144 281.271 730.54 258.305C730.54 256.794 731.295 254.528 728.425 254.377C727.971 253.772 727.367 253.319 726.914 252.714C727.82 249.995 728.727 247.275 729.633 244.555C729.633 243.951 729.633 243.196 729.633 242.591C729.029 242.893 728.576 243.044 727.971 243.347C717.093 245.311 708.933 255.736 696.695 253.168C696.09 253.017 695.033 253.47 694.731 253.923C691.709 258.456 688.234 256.341 684.909 254.679C684.607 250.146 689.593 252.412 690.953 249.995C693.673 249.542 696.846 249.844 698.961 246.973C696.242 243.498 690.953 243.347 689.14 238.058C699.414 239.418 708.782 250.146 719.812 239.569C708.782 237.303 698.357 235.036 687.931 232.921C681.132 228.993 672.973 229.748 665.872 226.424C662.548 224.762 661.339 226.575 660.583 230.201C659.223 237.454 659.072 245.009 654.691 251.355C654.086 251.808 653.482 252.261 653.029 252.714C651.518 252.714 650.158 252.866 648.647 252.866C638.372 249.693 627.192 249.088 618.277 242.289C618.881 241.836 619.486 241.231 620.09 240.778C620.846 240.929 621.601 241.08 622.205 241.231C630.213 243.044 638.221 245.009 646.229 246.671C648.798 247.124 651.518 246.973 651.82 243.498C652.273 239.72 649.251 240.778 647.287 240.325C645.474 240.023 643.208 240.476 641.848 238.361C646.38 236.85 652.273 237.907 654.54 232.015C655.144 228.237 656.806 224.309 653.18 220.985C654.54 220.38 656.05 219.625 657.41 219.021C666.627 219.172 675.844 219.474 685.061 219.625C696.09 226.877 708.782 228.691 721.172 231.561C723.287 232.468 725.252 233.979 727.367 231.41C732.957 234.13 733.864 239.116 734.015 244.707C734.771 275.53 735.224 306.504 736.433 337.327C737.49 367.395 737.037 397.614 739.454 427.681C739.606 429.192 739.757 430.854 739.908 432.365C737.792 432.365 735.375 431.761 734.619 434.783C727.669 438.56 721.021 442.791 713.768 446.115C706.516 449.439 702.739 454.123 704.249 462.282C697.752 463.491 701.379 456.994 698.81 455.181C695.788 447.928 693.824 456.691 691.104 455.634C689.896 455.181 688.536 454.727 688.082 453.216C691.709 449.137 697.904 447.021 698.055 440.222C699.263 437.956 700.774 434.934 696.242 435.387C690.047 435.992 684.607 434.027 678.866 432.214C671.764 429.948 664.663 430.854 657.561 432.97C653.633 434.178 651.82 436.143 652.575 440.676C653.18 444.453 654.691 448.381 651.971 452.159C649.856 451.554 647.589 451.101 645.474 450.497C637.164 446.417 628.854 442.186 619.637 437.654C619.788 444 621.148 448.684 622.659 453.367C621.752 455.634 620.846 458.051 619.939 460.318C619.788 460.922 619.637 461.678 619.486 462.282C619.486 462.584 619.486 462.886 619.335 463.037C619.184 463.189 618.579 463.189 618.579 463.037C616.615 453.065 617.522 442.791 614.651 433.121C614.5 431.912 614.349 430.552 614.046 429.343C615.557 427.379 615.406 425.113 615.406 422.846C614.802 403.355 614.349 383.864 613.744 364.524C614.5 358.48 614.953 352.437 613.744 346.393ZM726.914 432.819C718.906 434.027 710.293 434.178 703.494 442.942C713.617 441.733 720.417 437.654 726.914 432.819ZM705.458 428.89C694.731 426.624 691.709 426.926 687.176 430.25C693.824 431.761 700.925 431.157 705.458 428.89Z" fill="#004B85"/>
<path d="M723.287 756.915C721.625 763.11 725.252 769.002 723.892 775.046C721.928 774.442 719.963 773.686 717.999 773.082C717.999 772.629 717.999 772.175 717.848 771.722C719.359 757.821 716.035 744.223 715.128 730.473C714.675 724.127 711.804 723.523 706.969 725.185C703.796 726.243 701.077 728.962 697.148 727.3C695.184 726.394 692.766 723.372 690.802 726.696C689.14 729.718 692.766 730.775 693.975 732.74C689.291 731.984 688.234 734.251 687.931 738.481C687.176 748 690.651 757.67 687.931 767.189C676.902 764.772 665.721 768.398 654.691 767.038C656.051 761.296 655.144 755.706 653.482 749.964C652.575 746.943 651.215 744.223 655.144 740.899C658.317 738.028 655.899 731.833 656.504 727.149C656.957 723.07 653.482 724.278 651.669 723.221C648.798 721.559 651.064 719.141 652.424 718.688C658.77 716.875 658.015 711.889 657.864 707.205C657.713 699.197 657.713 691.189 657.561 683.03C658.921 679.706 656.05 677.741 654.993 675.173C662.396 675.324 669.8 675.475 677.204 675.475C686.723 675.475 686.723 675.475 686.42 665.805C686.723 660.215 686.874 654.624 687.176 649.034C688.687 652.962 687.78 657.042 688.082 660.97C688.234 663.085 688.234 665.201 690.802 665.654C695.184 666.409 699.717 667.014 704.098 667.467C707.725 667.769 709.84 666.258 709.387 662.179C708.48 653.718 707.574 645.256 706.667 636.795C706.365 634.377 706.214 631.658 703.041 630.902C706.365 630.147 709.236 628.787 710.747 625.463C714.826 637.702 713.768 650.696 715.128 663.236C718.15 694.513 720.568 725.789 723.287 756.915ZM687.931 699.499C688.082 715.515 688.082 715.515 704.401 715.817C705.912 715.817 707.423 715.817 708.933 716.119C712.106 716.573 713.617 715.515 713.466 712.191C712.862 702.521 712.409 692.7 711.653 683.03C711.502 680.461 710.747 678.044 707.574 677.741C695.788 676.231 688.082 683.181 688.082 695.117C687.931 696.477 687.931 697.988 687.931 699.499Z" fill="#0085EB"/>
<path d="M654.993 675.324C656.051 677.892 658.921 679.857 657.562 683.181C652.878 682.274 648.345 681.367 643.661 680.159C640.337 679.403 638.373 679.857 638.222 683.936C637.919 690.735 637.315 697.383 636.711 704.032C635.2 723.523 633.689 742.863 631.876 762.354C631.12 770.06 635.049 773.535 642.452 770.664C645.021 769.606 647.589 768.398 650.46 769.153C650.158 773.082 647.136 776.708 648.949 780.939C642.452 783.356 635.804 781.845 629.307 781.241C628.552 781.241 627.796 781.241 627.041 781.241C626.738 780.183 626.436 779.125 626.134 778.068C627.796 758.425 629.307 738.783 630.969 718.99C632.329 701.463 633.84 684.087 635.2 666.56C635.804 658.25 636.257 650.091 636.862 641.781C637.315 636.493 636.257 634.83 630.667 637.852C595.462 657.041 560.106 675.928 524.75 694.815C521.124 696.779 517.648 699.65 513.116 699.65L512.813 699.348C522.635 690.886 534.42 685.9 545.45 679.705C574.46 663.387 603.621 647.371 632.933 631.506C641.092 627.125 639.884 619.57 640.941 612.771C641.999 605.972 639.128 598.87 642.905 592.373C643.812 592.524 644.719 592.675 645.625 592.826C645.172 600.834 644.416 608.842 644.265 616.699C643.963 625.916 644.719 626.369 653.482 624.254C654.238 624.103 654.993 624.103 655.748 623.952C655.9 625.614 656.051 627.125 656.202 628.787C656.202 630.298 656.051 631.809 656.051 633.168C654.54 633.168 653.029 633.017 651.518 633.017C641.395 633.017 641.546 633.168 640.941 643.443C640.337 651.3 642.754 658.703 642.603 666.409C642.452 669.733 644.416 671.395 648.043 669.884C650.158 668.978 652.273 668.373 654.389 667.618C654.691 670.187 654.842 672.755 654.993 675.324Z" fill="#33A7FF"/>
<path d="M685.211 219.775C675.995 219.624 666.778 219.322 657.561 219.171C657.712 214.789 657.561 210.256 657.863 205.875C658.014 202.55 656.352 201.493 653.331 201.795L653.179 201.644C655.597 198.32 659.979 195.6 656.201 190.614C656.05 188.952 656.201 186.837 653.935 186.383C641.998 183.815 630.364 178.829 617.823 179.584C617.672 165.835 617.521 152.085 617.37 138.335C617.974 138.335 618.73 138.335 619.334 138.335C622.054 147.854 621.299 157.676 621.45 167.346C621.601 172.785 624.018 172.483 627.493 170.065L627.645 170.216C630.062 173.087 632.631 170.972 635.199 170.367C642.754 168.705 649.553 164.324 657.41 164.021C657.561 169.763 657.712 175.354 657.712 181.095C657.561 183.664 656.655 186.383 658.77 188.499C659.072 190.765 658.166 193.334 661.036 194.694C668.893 197.715 677.203 194.845 685.06 196.356C684.305 204.061 688.838 211.918 685.211 219.775Z" fill="#33A7FF"/>
<path d="M682.34 62.4865C695.334 65.2062 708.328 67.7748 721.473 70.3434C726.762 71.4011 729.481 73.8186 729.179 80.0135C728.575 92.8565 728.877 105.699 728.726 118.391C728.273 118.542 727.971 118.542 727.517 118.542C726.308 118.391 725.1 118.24 724.495 117.032C729.633 107.21 725.553 96.936 725.855 86.9638C726.006 79.8624 722.229 77.4448 715.43 79.8623C707.271 82.7331 700.32 87.4171 695.183 94.5185C693.37 97.0871 692.161 100.411 688.233 100.411C688.233 99.5046 688.233 98.4469 688.384 97.5404C692.614 93.1586 696.996 88.928 700.32 83.7908C700.622 83.4886 700.925 83.1864 701.227 82.8842C701.076 82.8842 700.774 82.8842 700.622 82.7331C700.622 83.0353 700.622 83.4886 700.471 83.7908C695.787 82.431 691.557 84.9996 687.024 85.6039C685.06 85.4528 682.944 85.3017 680.98 85.1506C675.541 80.7689 670.404 80.4667 665.871 86.3594C661.489 87.4171 659.827 86.5105 659.525 81.3733C659.223 75.6317 662.245 69.4369 658.165 63.9975C659.223 62.9398 660.28 62.0332 661.338 60.9756C663.907 60.9756 666.324 60.9756 668.893 60.9756C673.123 61.7311 677.656 63.3931 682.34 62.4865ZM705.458 76.3872C698.96 72.912 693.521 72.7609 688.233 71.8544C686.722 71.5522 685.211 72.1566 685.06 73.9697C684.909 76.085 686.42 76.2361 688.082 76.2361C693.219 76.3872 698.356 76.3872 705.458 76.3872Z" fill="#005FA6"/>
<path d="M688.233 97.6915C688.233 98.5981 688.234 99.6558 688.082 100.562C684.758 102.527 685.665 105.095 686.723 107.815C677.506 107.21 668.44 106.757 659.223 106.153C659.223 100.713 659.223 95.274 659.375 89.8347C658.468 88.3237 657.561 86.6617 656.655 85.1507C645.323 83.6398 634.142 81.9778 622.81 80.6179C618.881 80.1646 618.428 82.8843 618.579 85.9062C619.184 95.8784 619.788 105.851 620.241 115.823C620.241 118.694 617.975 118.391 616.162 118.543C616.011 106.606 615.859 94.5186 615.708 82.5821C615.708 79.8624 615.255 76.6895 618.579 75.6318C631.573 71.5523 643.661 64.6019 657.712 63.9976C661.792 69.4369 658.921 75.6318 659.072 81.3734C659.375 86.3595 661.037 87.4171 665.418 86.3595C670.555 86.6617 675.693 88.1726 680.528 85.1507C682.492 85.3018 684.607 85.4529 686.571 85.604C686.874 89.8347 684.758 94.0653 688.233 97.6915ZM632.329 79.4092C639.43 79.4092 646.532 79.4092 653.633 79.4092C655.144 79.4092 656.957 78.9559 656.957 77.1428C656.957 75.3296 655.295 74.7252 653.784 74.8763C646.38 75.1785 639.128 75.934 632.329 79.4092Z" fill="#33A7FF"/>
<path d="M734.77 435.084C735.525 432.063 737.943 432.667 740.058 432.667C740.511 433.271 740.813 433.725 741.267 434.329C741.569 449.59 742.022 464.85 742.022 480.262C742.022 487.665 745.497 490.838 752.75 490.083C754.261 489.932 755.772 489.781 757.283 489.932C764.837 490.989 768.161 488.119 766.499 480.262C766.046 478.297 764.988 475.276 768.01 474.52C771.183 473.613 774.205 474.067 774.205 478.6C774.205 487.061 774.205 495.673 774.205 504.135C774.205 506.854 773.45 508.667 770.428 508.365C767.557 508.214 766.953 506.25 766.953 503.681C766.802 494.162 766.651 494.162 756.678 494.464C742.022 494.767 742.173 494.767 742.324 509.574C742.475 518.64 742.475 527.554 742.627 536.62C742.627 539.037 743.382 541.908 739.756 542.664C739.151 540.699 739.907 538.433 738.245 536.771C738.094 524.986 737.943 513.2 737.64 501.415C737.64 498.242 738.094 494.313 733.108 494.464C724.042 494.616 715.127 494.162 706.213 493.105C706.213 492.047 706.213 490.838 706.213 489.781C718.905 489.932 718.905 489.932 723.287 477.693C726.913 467.57 730.388 457.598 733.863 447.474C735.223 443.395 736.583 439.315 734.77 435.084ZM721.171 489.478C723.891 489.629 726.157 489.478 728.273 489.781C735.827 490.989 738.245 487.665 737.64 480.564C737.187 474.671 737.64 468.627 737.338 462.584C737.187 459.108 738.547 455.482 735.676 451.1C730.69 464.397 726.006 476.635 721.171 489.478Z" fill="#3B3C43"/>
<path d="M710.747 625.614C709.236 628.938 706.365 630.298 703.041 631.053C698.206 631.356 693.371 631.507 688.536 631.809C688.385 631.356 688.385 631.053 688.234 630.6C688.234 628.485 688.234 626.369 688.385 624.405C688.536 624.103 688.536 623.801 688.536 623.499C692.313 623.952 695.939 624.707 699.717 624.707C706.365 624.859 708.48 621.686 707.12 615.189C706.365 611.26 705.912 607.332 705.458 603.252C704.552 593.129 703.796 592.373 693.673 591.92C691.86 591.769 690.198 591.769 688.385 591.769C688.385 591.467 688.234 591.013 688.082 590.711C692.011 588.445 695.184 585.574 695.788 580.588C698.81 580.286 700.019 578.624 698.206 576.206C695.033 571.976 693.22 566.536 688.385 563.665C688.234 558.679 684.909 553.693 688.234 548.707C691.255 557.017 695.033 565.025 701.983 573.184C701.983 567.745 701.983 563.968 701.983 560.341C701.832 546.894 701.832 546.894 688.536 547.196C687.478 540.85 690.5 538.735 696.393 539.641C700.623 540.246 704.25 539.49 706.214 535.26C706.063 537.677 707.725 538.735 709.538 539.641C709.236 542.966 712.56 542.361 714.071 543.57C709.236 543.419 708.027 545.836 708.178 550.52C708.782 573.184 710.444 595.849 709.84 618.513C709.236 620.779 710.142 623.197 710.747 625.614Z" fill="#004B85"/>
<path d="M618.579 530.576C615.557 525.741 618.579 520.15 616.162 513.804C557.839 564.27 499.97 614.584 442.101 664.747C441.497 663.992 440.892 663.388 440.288 662.632C499.668 610.051 559.048 557.32 618.428 504.739C619.335 513.351 619.335 521.964 618.579 530.576Z" fill="#B6C3D2"/>
<path d="M741.116 434.329C740.663 433.724 740.361 433.12 739.907 432.667C739.756 431.156 739.605 429.494 739.454 427.983C753.506 435.689 766.349 445.359 779.645 454.424C830.866 489.78 881.936 524.985 933.157 560.341C935.272 561.701 937.538 562.91 938.445 565.327C933.006 565.327 929.228 561.55 925.3 558.83C866.675 519.093 808.051 479.204 749.426 439.315C746.858 437.351 743.987 435.991 741.116 434.329Z" fill="#33A7FF"/>
<path d="M614.348 429.494C614.499 430.703 614.651 432.063 614.953 433.271C574.006 477.391 531.549 519.999 489.545 563.061C478.364 574.544 467.032 585.876 456.002 597.511C454.793 598.719 453.584 600.079 451.62 600.23C451.469 600.079 451.167 599.777 451.016 599.626C451.318 597.511 452.98 596.151 454.34 594.64C471.564 576.811 489.091 558.982 506.165 541.002C534.42 511.387 562.523 481.622 590.627 451.856C596.368 445.812 601.808 439.617 607.549 433.574C609.362 431.761 611.175 429.494 614.348 429.494Z" fill="#B6C3D2"/>
<path d="M618.579 530.576C619.334 521.964 619.183 513.351 618.428 504.739C620.694 495.825 619.637 494.465 610.722 494.465C606.189 494.465 601.656 494.616 597.275 494.314C591.533 494.011 588.662 495.673 589.72 502.019C590.173 504.588 591.231 508.668 586.396 508.819C582.014 508.819 582.467 505.192 582.467 502.171C582.467 493.86 582.468 485.701 582.316 477.391C582.316 474.822 582.619 472.858 585.943 473.009C588.662 473.16 589.72 474.369 590.173 477.089C590.929 481.168 587.151 487.061 592.591 489.328C596.217 490.838 600.901 489.932 605.132 489.932C618.881 489.932 618.881 489.932 618.73 476.031C618.73 471.498 619.183 467.117 619.334 462.584C619.486 461.979 619.637 461.224 619.939 460.62C621.903 467.268 620.694 474.369 621.752 481.168C622.658 487.061 624.321 492.198 632.177 489.63C633.084 489.479 634.142 489.479 635.048 489.328C635.653 489.176 636.257 488.874 636.861 488.723C640.034 489.025 642.754 487.968 645.625 486.759C645.776 487.212 645.927 487.514 646.078 487.968C645.474 489.63 644.869 491.443 644.265 493.105C643.207 493.709 642.301 494.314 641.243 494.918C637.919 494.767 634.746 494.918 631.573 494.616C624.774 493.709 621.752 495.976 623.565 503.077C623.263 507.308 622.81 511.387 622.81 515.618C622.81 524.079 622.961 532.54 623.112 540.851C622.054 541.757 620.996 542.513 620.09 543.419C617.975 539.34 619.939 534.656 618.579 530.576Z" fill="#3B3C43"/>
<path d="M682.34 62.4865C677.657 63.393 673.124 61.731 668.591 61.2777C668.893 33.0231 667.684 4.91964 670.102 -23.335C673.728 -21.2196 674.181 -17.4423 674.333 -14.1182C675.541 11.5678 680.225 36.8005 682.34 62.4865Z" fill="#33A7FF"/>
<path d="M669.951 -23.3353C667.534 4.7682 668.743 33.0228 668.44 61.2774C665.872 61.2774 663.454 61.2774 660.886 61.2774C663.001 35.1381 662.094 8.99884 662.397 -17.2915C662.548 -21.6733 663.605 -26.055 669.951 -23.3353Z" fill="#DBDCE1"/>
<path d="M620.241 543.268C621.299 542.361 622.357 541.606 623.263 540.699C645.625 540.85 646.229 540.397 647.438 518.337C647.589 516.826 647.589 515.315 647.74 513.804C648.496 514.257 649.402 514.711 650.158 515.315C649.553 520.452 648.345 525.438 649.402 530.576C650.309 535.26 652.273 538.433 657.713 537.677C657.561 541.454 651.669 539.792 651.82 543.872C646.532 551.276 649.856 560.039 647.74 567.896C650.46 564.119 650.007 559.284 652.878 555.657C653.482 556.262 653.935 556.866 654.54 557.47C652.122 562.91 652.273 569.105 648.798 574.091C646.834 574.695 643.51 570.313 642.754 575.602C634.293 565.629 626.738 554.902 620.241 543.268ZM642.301 570.918C644.718 567.745 644.416 564.874 644.87 562.154C647.891 547.498 643.208 542.361 628.4 543.872C624.472 544.174 624.17 545.534 626.285 548.405C631.422 555.808 636.559 563.061 642.301 570.918Z" fill="#005FA6"/>
<path d="M619.033 331.736C617.22 333.549 613.442 334.154 614.802 337.931C614.802 339.14 614.953 340.5 614.953 341.708L614.349 341.86L613.744 341.708C613.442 340.5 612.838 339.442 612.687 338.233C612.082 306.806 611.629 275.378 611.176 244.102C611.176 242.44 610.874 240.475 612.536 239.267C613.593 240.324 614.651 241.231 615.558 242.288C614.5 271.752 616.464 301.215 616.917 330.83C617.068 331.132 618.277 331.434 619.033 331.736Z" fill="#33A7FF"/>
<path d="M615.708 242.288C614.651 241.231 613.593 240.324 612.687 239.266C617.522 234.28 619.184 228.539 618.73 221.588C617.975 210.105 618.277 198.471 618.126 186.988C618.73 186.837 619.335 186.837 620.09 186.686C620.09 201.946 620.09 217.358 620.09 233.223C632.027 228.841 642.754 225.063 653.633 221.135C657.108 224.459 655.446 228.388 654.993 232.165C643.359 231.712 632.631 236.396 621.299 238.36C620.09 238.511 620.392 240.022 620.543 240.928C619.939 241.382 619.335 241.986 618.73 242.439C617.522 242.439 616.615 242.288 615.708 242.288Z" fill="#005FA6"/>
<path d="M616.161 118.844C617.974 118.693 620.241 118.996 620.241 116.125C621.752 115.974 623.263 115.974 624.773 115.823C635.954 115.672 647.135 114.161 658.165 112.65L658.921 112.499L659.676 112.65C658.014 116.578 662.698 122.622 656.201 124.888C650.913 126.852 645.322 127.608 639.883 124.737C644.567 121.715 650.308 125.039 656.201 122.017C647.287 119.298 639.581 117.938 631.422 120.053C629.76 120.507 629.608 121.413 629.608 122.773C627.644 123.528 625.227 122.32 623.565 124.133C620.694 123.679 618.73 124.435 619.032 127.91C619.183 131.234 619.485 134.709 619.636 138.033C619.032 138.033 618.276 138.033 617.672 138.033C617.068 131.687 616.614 125.19 616.161 118.844Z" fill="#0085EB"/>
<path d="M642.754 575.753C643.509 570.465 646.833 574.695 648.798 574.242C648.193 579.379 651.064 579.833 654.539 578.019C656.05 577.113 656.655 574.393 657.712 572.58C657.712 578.775 657.712 584.97 657.712 591.316C653.784 591.769 649.855 592.373 645.927 592.827C645.02 592.676 644.114 592.525 643.207 592.373C643.056 586.783 642.905 581.344 642.754 575.753Z" fill="#004B85"/>
<path d="M617.975 179.434C630.667 178.678 642.15 183.664 654.086 186.233C656.201 186.686 656.05 188.801 656.353 190.463C643.963 189.104 632.48 183.513 620.09 182.002C619.334 181.851 618.73 181.7 617.975 181.549C617.975 180.793 617.975 180.038 617.975 179.434Z" fill="#005FA6"/>
<path d="M713.617 543.57C712.106 542.21 708.782 542.965 709.084 539.641C716.487 539.641 723.891 539.641 731.295 539.641C734.014 539.641 736.885 540.246 738.094 536.771C739.907 538.433 739 540.699 739.605 542.663C737.943 544.778 736.432 546.743 734.77 548.858C734.165 548.254 733.561 547.649 733.108 547.196C734.468 543.268 731.446 543.872 729.33 543.872C724.193 543.57 718.905 543.57 713.617 543.57Z" fill="#005FA6"/>
<path d="M727.518 231.711C725.554 234.28 723.439 232.769 721.323 231.863C722.079 228.841 726.914 230.049 726.46 224.912C725.403 211.163 726.007 197.413 726.007 183.664H726.612H727.216C727.518 183.815 727.82 183.966 728.274 184.117C729.482 199.831 729.784 215.847 727.518 231.711Z" fill="#005FA6"/>
<path d="M416.113 635.586C423.063 626.067 432.28 618.664 440.137 609.9C431.675 617.908 423.214 625.916 414.753 633.924C415.206 634.529 415.659 634.982 416.113 635.586Z" fill="#B6C3D2"/>
<path d="M733.108 547.045C733.713 547.649 734.317 548.254 734.77 548.707C730.086 556.111 723.892 562.154 717.395 568.047C721.172 560.039 726.913 553.391 733.108 547.045Z" fill="#0085EB"/>
<path d="M967.153 584.97C957.635 582.25 950.986 575.149 943.432 569.256C952.346 572.882 960.505 577.868 967.153 584.97Z" fill="#33A7FF"/>
<path d="M510.093 701.01C504.049 707.961 495.135 709.925 487.58 714.004C494.53 708.867 501.179 702.974 510.093 701.01Z" fill="#33A7FF"/>
<path d="M727.669 124.586C727.669 140.753 727.669 156.769 727.669 172.936H727.064C726.611 172.936 726.158 172.785 725.855 172.634C725.855 156.618 725.855 140.602 725.855 124.586C726.309 124.435 726.762 124.284 727.215 124.284L727.669 124.586Z" fill="#005FA6"/>
<path d="M413.393 644.048C407.954 649.034 402.363 653.869 396.924 658.855C399.644 650.998 405.989 646.918 411.882 642.537C412.335 642.99 412.94 643.443 413.393 644.048Z" fill="#B6C3D2"/>
<path d="M375.922 680.008C374.411 684.994 370.634 687.714 364.59 691.189C367.914 685.145 370.785 681.519 375.771 679.857L375.922 680.008Z" fill="#CBD8E3"/>
<path d="M613.744 346.392C614.953 352.436 614.5 358.48 613.895 364.674C611.931 358.48 612.082 352.436 613.744 346.392Z" fill="#33A7FF"/>
<path d="M727.971 183.966C727.669 183.815 727.215 183.664 726.913 183.513C726.913 180.038 726.913 176.563 726.913 172.937H727.517C729.331 176.563 729.028 180.189 727.971 183.966Z" fill="#33A7FF"/>
<path d="M617.974 181.548C618.73 181.699 619.334 181.851 620.09 182.002C619.939 183.513 619.939 185.175 619.788 186.686C619.183 186.837 618.579 186.837 617.823 186.988C617.068 185.175 617.068 183.361 617.974 181.548Z" fill="#33A7FF"/>
<path d="M938.597 565.176C939.503 565.78 941.014 565.629 941.165 567.14C941.165 567.291 940.863 567.593 940.712 567.593C939.201 567.442 939.05 566.233 938.597 565.176Z" fill="#33A7FF"/>
<path d="M727.367 118.694C727.82 118.694 728.122 118.694 728.575 118.542C728.575 120.658 728.878 122.773 727.669 124.737L727.064 124.435C727.216 122.471 727.216 120.507 727.367 118.694Z" fill="#33A7FF"/>
<path d="M390.88 662.934C390.729 662.481 390.427 662.028 390.578 661.726C390.729 661.423 391.334 661.272 391.787 660.97C391.938 661.423 392.24 661.877 392.089 662.179C391.787 662.632 391.183 662.783 390.88 662.934Z" fill="#B6C3D2"/>
<path d="M513.266 699.65C512.51 701.161 511.302 700.859 510.093 700.859C510.697 699.65 511.755 699.197 512.964 699.197C512.964 699.348 513.266 699.65 513.266 699.65Z" fill="#33A7FF"/>
<path d="M967.304 584.819C967.758 585.272 968.211 585.877 968.664 586.33C967.909 586.33 967.304 585.877 967.304 584.819Z" fill="#33A7FF"/>
<path d="M968.664 586.33C968.966 586.481 969.268 586.783 969.42 586.934C969.268 586.934 968.966 586.934 968.966 586.783C968.966 586.783 968.815 586.481 968.664 586.33Z" fill="#33A7FF"/>
<path d="M381.663 673.813C381.965 673.662 382.267 673.36 382.419 673.208C382.267 673.511 381.965 673.813 381.814 673.964C381.965 673.964 381.663 673.813 381.663 673.813Z" fill="#CBD8E3"/>
<path d="M380.152 675.324C380.606 674.871 381.21 674.266 381.663 673.813L381.814 673.964C381.361 674.417 380.757 675.022 380.303 675.475C380.455 675.475 380.152 675.324 380.152 675.324Z" fill="#CBD8E3"/>
<path d="M450.109 601.741C449.807 602.043 449.354 602.497 449.203 602.497C448.296 601.892 449.052 601.59 449.505 601.137C449.656 601.439 449.958 601.59 450.109 601.741Z" fill="#B6C3D2"/>
<path d="M380.455 675.475C380.002 675.929 379.397 676.533 378.944 676.986L378.793 676.835C379.246 676.382 379.851 675.778 380.304 675.324C380.153 675.324 380.455 675.475 380.455 675.475Z" fill="#CBD8E3"/>
<path d="M451.62 600.23C451.167 600.683 450.563 601.288 450.109 601.741C449.958 601.59 449.656 601.288 449.505 601.136C449.958 600.683 450.563 600.079 451.016 599.625C451.167 599.928 451.469 600.079 451.62 600.23Z" fill="#B6C3D2"/>
<path d="M377.281 678.346C377.735 677.893 378.339 677.288 378.792 676.835L378.943 676.986C378.49 677.439 377.886 678.044 377.432 678.497L377.281 678.346Z" fill="#CBD8E3"/>
<path d="M375.771 679.857C376.224 679.404 376.828 678.799 377.281 678.346L377.433 678.497C376.979 678.951 376.375 679.555 375.922 680.008L375.771 679.857Z" fill="#CBD8E3"/>
<path d="M647.136 1192.52C641.697 1192.52 636.258 1192.52 630.818 1192.37C631.423 1178.01 632.027 1163.81 632.782 1149.46C633.236 1140.85 632.027 1139.33 623.263 1138.88C612.989 1138.43 602.715 1138.13 592.591 1135.86C588.21 1134.8 586.245 1136.77 585.49 1141.15C583.526 1154.29 581.259 1167.44 579.144 1180.58C576.122 1181.64 573.1 1183 570.229 1180.43C574.913 1142.66 581.562 1105.04 587.454 1067.41C592.591 1034.47 597.275 1001.54 602.11 968.447C606.039 942.156 609.967 916.017 613.896 889.727C615.558 889.122 615.86 886.554 618.126 886.554C617.975 888.065 617.824 889.425 617.522 890.936C617.371 891.087 617.22 891.238 617.22 891.389C617.22 891.691 617.371 892.144 617.522 892.447C618.428 894.864 619.486 897.282 622.81 896.526C628.099 895.468 633.538 894.713 638.826 893.353C643.359 892.144 646.834 889.425 647.439 884.136C648.949 871.747 649.252 859.357 648.798 846.967H648.647C650.46 846.363 649.554 845.607 648.798 844.852C650.763 841.226 653.482 837.75 653.18 833.218C653.482 830.649 655.144 828.232 654.389 825.512C654.691 825.21 654.993 825.059 655.447 825.059C657.109 825.361 658.771 825.663 660.584 825.965C662.397 840.772 657.109 855.126 657.562 869.933C657.713 876.128 658.166 882.474 654.389 888.065C653.331 889.576 653.18 891.238 654.389 892.9C658.015 897.584 657.562 903.325 657.562 908.765C654.389 920.097 656.504 931.58 656.202 942.912C655.749 954.697 655.295 955.453 643.359 955.453C643.359 954.697 643.51 953.942 643.51 953.186C643.812 942.157 644.114 931.127 644.568 920.097C644.719 915.866 638.826 911.484 644.568 907.254C647.59 909.671 649.705 908.009 651.065 905.29C652.274 903.023 652.878 900.303 650.612 898.49C647.439 895.771 644.266 896.677 641.244 899.246C636.409 900.606 631.423 901.21 626.436 900.908C619.788 900.454 616.615 903.627 616.011 909.822C614.349 924.932 612.838 940.192 611.327 955.302C609.212 956.813 609.061 958.324 611.327 959.834C610.874 960.892 610.572 962.101 610.118 963.159C609.514 966.18 609.061 969.202 608.456 972.224C605.888 993.075 603.319 1014.08 600.75 1034.93C600.448 1037.5 600.75 1039.91 603.319 1041.43C602.866 1042.63 600.297 1044.3 604.226 1044.3C613.14 1044.15 622.055 1044.3 630.969 1044.45C628.401 1046.71 625.379 1045.66 622.508 1045.81C615.104 1045.81 607.852 1045.96 600.75 1048.68C599.24 1049.28 598.484 1050.64 598.182 1052.15C594.405 1075.42 590.778 1098.69 589.116 1122.41C588.059 1126.49 589.872 1127.85 593.649 1127.1C604.528 1125.89 615.255 1122.86 626.285 1123.02C629.156 1125.58 633.085 1126.79 636.56 1126.94C644.115 1127.25 644.87 1131.33 644.568 1137.37C644.266 1143.26 642.755 1150.67 645.474 1155.05C649.252 1160.79 648.798 1166.23 648.647 1171.97C648.496 1179.07 647.741 1185.87 647.136 1192.52ZM603.923 1134.2C612.385 1134.2 620.846 1134.2 629.307 1134.2C630.969 1134.2 633.236 1134.65 633.387 1132.23C633.538 1129.21 631.12 1129.51 629.156 1129.51C620.544 1129.51 611.931 1130.72 603.923 1134.2Z" fill="#005FA6"/>
<path d="M618.126 886.704C615.86 886.553 615.558 889.273 613.896 889.877C614.198 869.933 618.126 850.593 621.601 831.102L621.752 830.951V830.8C622.961 828.684 624.321 826.569 625.53 824.454C626.89 827.475 629.458 828.08 632.329 827.324C639.733 825.662 647.136 826.267 654.54 825.813C655.295 828.533 653.482 830.951 653.331 833.519C644.87 834.879 636.409 836.239 627.947 837.599C625.832 838.203 624.774 839.261 624.472 841.678C622.508 856.788 620.393 871.746 618.126 886.704Z" fill="#0085EB"/>
<path d="M570.228 1180.58C573.25 1183 576.272 1181.64 579.143 1180.73C579.294 1181.19 579.294 1181.64 579.445 1182.25C580.05 1188.44 576.574 1189.8 571.286 1190.1C562.976 1190.56 554.364 1188.44 546.204 1191.61C543.787 1183.76 544.391 1182.7 552.248 1182.4C558.292 1181.94 564.487 1182.55 570.228 1180.58Z" fill="#005FA6"/>
<path d="M625.681 824.605C624.472 826.721 623.112 828.836 621.903 830.951C622.357 814.331 624.321 797.711 627.343 781.393C628.098 781.393 628.854 781.393 629.609 781.393C628.098 795.595 626.889 810.1 625.681 824.605Z" fill="#005FA6"/>
<path d="M621.751 830.951L621.601 831.102V831.253L621.751 830.951Z" fill="#005FA6"/>
<path d="M647.136 1192.52C647.589 1185.87 648.496 1179.07 648.647 1172.42C648.798 1166.68 649.1 1161.39 645.474 1155.5C642.754 1151.12 644.265 1143.87 644.567 1137.82C644.869 1131.78 644.114 1127.7 636.559 1127.4C633.084 1127.25 629.156 1126.04 626.285 1123.47C629.307 1122.41 632.329 1121.35 635.351 1120.3C641.243 1119.69 649.1 1122.87 650.309 1112.74C652.726 1093.4 650.913 1074.06 652.424 1054.12C646.38 1058.05 645.021 1065.3 638.826 1068.17C638.524 1066.05 638.221 1064.69 638.07 1063.18C638.524 1051.1 638.524 1051.25 626.134 1050.79C617.673 1050.49 609.211 1049.58 600.75 1049.13C607.851 1046.41 615.104 1046.26 622.508 1046.26C625.378 1046.26 628.551 1047.32 630.969 1044.9C639.43 1045.2 638.675 1039.61 638.07 1034.02C638.826 1033.12 639.43 1032.21 640.186 1031.15C641.545 1029.64 641.545 1028.13 640.337 1026.62C640.488 1024.65 640.488 1022.69 640.639 1020.73C641.092 1019.67 641.394 1018.61 641.848 1017.7C643.661 1021.18 645.474 1024.81 647.438 1028.28C648.345 1029.94 648.647 1032.81 651.367 1032.06C653.633 1031.45 653.331 1028.88 653.331 1026.92C653.482 1017.7 653.784 1008.49 654.691 999.27C655.597 989.6 654.842 979.779 654.842 968.145C648.647 973.584 647.74 980.081 642.754 983.405C642.301 983.254 641.848 983.103 641.243 982.952C639.883 978.419 644.869 973.282 639.883 969.202C641.092 965.425 641.999 961.648 641.545 957.719C642.15 957.115 642.754 956.51 643.359 955.906C655.295 955.906 655.899 955 656.202 943.365C656.504 932.033 654.388 920.55 657.561 909.218C659.979 908.463 658.166 904.987 661.037 903.93C665.267 914.355 663.303 924.63 663.907 934.753C664.058 937.473 662.245 940.948 666.325 942.459C666.174 954.697 669.196 955.755 681.434 956.057C687.176 956.208 692.917 955.604 698.508 957.417C710.595 962.856 723.287 959.986 735.828 960.59C735.828 962.705 735.828 964.972 735.828 967.087C726.914 967.087 718.15 966.936 709.236 966.936C697.752 966.634 686.723 962.554 675.088 963.461C669.649 963.914 666.627 965.425 666.627 971.318C666.778 989.298 666.627 1007.43 666.627 1025.41C666.627 1028.73 667.534 1031.91 670.858 1032.51C681.132 1034.02 691.406 1036.29 701.832 1032.96C715.581 1037.19 729.633 1035.83 743.685 1035.53C746.707 1038.4 744.894 1040.82 743.232 1043.39C741.872 1043.69 740.663 1043.84 739.303 1044.15C737.792 1043.99 736.281 1043.39 734.922 1043.69C723.287 1045.2 711.653 1044.9 699.868 1044.15C687.78 1043.39 675.391 1037.5 663.152 1044.3C662.245 1044.75 660.734 1043.99 659.526 1043.99C657.41 1043.99 654.993 1040.82 653.482 1043.84C651.669 1047.47 655.446 1048.22 657.712 1049.58C663.001 1052.76 666.476 1057.44 666.476 1063.64C666.325 1076.33 667.685 1089.17 665.418 1101.86C664.361 1107.91 663.605 1114.4 669.951 1118.94C664.21 1121.05 667.231 1123.32 669.951 1125.58C667.08 1129.66 666.325 1134.2 666.627 1139.03C667.534 1157.01 665.569 1174.99 664.965 1192.97C659.223 1192.67 653.18 1192.67 647.136 1192.52Z" fill="#003A66"/>
<path d="M665.268 1192.82C665.721 1174.84 667.685 1156.86 666.93 1138.88C666.627 1133.89 667.383 1129.51 670.254 1125.43C682.643 1126.94 695.184 1126.79 707.272 1129.66C707.423 1132.23 707.574 1134.95 707.725 1137.52C707.725 1139.33 707.876 1141.15 707.876 1142.96C707.272 1157.62 706.818 1172.12 706.214 1186.78C696.846 1191.61 687.176 1194.48 676.297 1191.61C672.973 1190.71 669.045 1192.37 665.268 1192.82Z" fill="#0085EB"/>
<path d="M660.734 826.419C659.072 826.116 657.41 825.814 655.597 825.512C655.899 824.757 656.201 824.001 656.503 823.246C659.525 823.246 662.547 823.397 665.569 823.246C674.483 822.641 683.549 824.908 692.313 821.886C693.672 824.757 696.241 825.512 699.112 825.512C707.422 825.814 715.883 825.965 724.193 826.268C723.74 829.44 725.704 833.067 722.38 835.635C715.279 832.16 708.782 837.297 701.831 836.995C696.392 836.693 693.823 839.564 694.277 845.456C695.183 859.81 696.392 874.013 695.788 888.367C690.046 886.403 684.758 885.043 678.261 886.554C669.346 888.669 665.418 884.892 665.418 875.222C665.418 860.868 665.418 846.665 665.418 832.311C665.418 828.987 665.569 825.814 660.734 826.419Z" fill="#0085EB"/>
<path d="M706.213 1186.78C706.817 1172.12 707.271 1157.62 707.875 1142.96C721.927 1144.32 735.978 1140.54 750.03 1141.9C746.555 1153.69 748.821 1165.78 748.519 1177.56C747.915 1196.45 750.937 1194.18 731.748 1194.33C726.459 1194.33 721.171 1194.03 716.034 1194.48C709.99 1194.94 706.968 1192.52 706.213 1186.78Z" fill="#005FA6"/>
<path d="M695.637 888.216C704.854 892.145 714.524 891.993 724.194 891.087C726.007 891.389 728.273 890.785 728.727 893.504C729.029 895.922 727.518 896.979 725.705 897.886C724.194 898.642 722.834 899.397 721.323 900.152L720.87 900.455L720.265 900.304C718.15 900.304 716.035 900.152 713.768 900.152C710.897 897.886 707.573 897.282 704.098 897.131C694.73 896.828 685.363 896.526 675.995 896.98C669.195 897.282 666.778 900.001 666.778 906.65C666.929 918.586 666.627 930.522 666.476 942.61C662.245 941.099 664.209 937.624 664.058 934.904C663.454 924.781 665.418 914.506 661.187 904.081C658.317 905.139 660.13 908.765 657.712 909.369C657.712 903.93 658.166 898.339 654.539 893.504C653.331 891.842 653.482 890.18 654.539 888.669C658.317 883.079 657.863 876.733 657.712 870.538C657.259 855.731 662.547 841.377 660.734 826.57C665.418 825.965 665.267 829.138 665.267 832.311C665.267 846.665 665.267 860.868 665.267 875.222C665.267 884.741 669.195 888.669 678.11 886.554C684.607 884.741 690.046 886.252 695.637 888.216Z" fill="#005FA6"/>
<path d="M719.359 782.752C713.466 782.601 707.725 782.45 701.832 782.299C687.176 779.73 672.52 781.695 657.864 781.241C654.993 781.09 651.971 781.09 649.1 780.939C647.287 776.709 650.309 773.082 650.611 769.154C651.971 768.55 653.331 767.794 654.842 767.19C665.872 768.549 677.053 764.923 688.082 767.341C697.752 770.967 708.178 771.269 718.15 773.082C720.114 773.687 722.079 774.442 724.043 775.047C724.043 777.011 724.043 778.824 723.892 780.788C722.381 781.544 720.87 782.148 719.359 782.752Z" fill="#004B85"/>
<path d="M722.381 1003.2C719.057 1000.63 718.15 994.888 712.257 995.945C711.955 995.945 710.897 995.039 711.049 994.737C712.711 987.333 706.214 983.858 703.343 978.721C703.796 978.267 704.249 977.663 704.854 977.21C716.035 988.542 716.035 988.542 727.216 976.605C727.518 976.303 727.971 975.85 728.273 975.548C729.18 974.037 732.202 973.13 730.993 970.864C729.935 969.051 727.367 969.504 725.554 969.353C719.057 968.9 712.56 970.108 706.214 968.597C707.422 968.144 708.631 967.54 709.84 967.086C718.754 967.086 727.518 967.237 736.432 967.237C737.037 968.597 737.49 969.957 738.094 971.317C730.691 976.152 725.251 983.102 719.812 989.751C715.733 994.888 723.136 997.758 724.043 1001.99C723.287 1002.44 722.834 1002.74 722.381 1003.2Z" fill="#005FA6"/>
<path d="M750.031 1141.9C735.979 1140.54 721.927 1144.32 707.876 1142.96C707.876 1141.15 707.725 1139.33 707.725 1137.52C708.178 1137.37 708.782 1137.07 709.236 1136.92C724.798 1136.61 740.21 1136.16 755.621 1134.2C757.586 1139.49 755.017 1141.6 750.031 1141.9Z" fill="#B6C3D2"/>
<path d="M755.773 1134.2C740.361 1136.16 724.798 1136.46 709.387 1136.92C709.689 1131.93 713.466 1132.84 716.639 1132.54C725.705 1131.63 735.073 1134.5 743.987 1131.02C747.009 1130.42 750.938 1132.54 752.297 1127.7C752.6 1126.64 753.204 1126.19 754.262 1126.49C754.866 1129.06 756.377 1131.33 755.773 1134.2Z" fill="#005FA6"/>
<path d="M460.232 1156.41C460.232 1153.84 459.93 1151.42 460.232 1148.85C460.534 1146.13 458.57 1141.6 464.463 1142.21C468.844 1142.66 473.075 1143.26 472.924 1149.31C472.773 1153.54 472.773 1157.77 472.924 1162C473.075 1167.29 471.866 1170.46 465.52 1170.46C458.57 1170.61 460.685 1165.78 460.232 1162.3C459.93 1160.49 460.081 1158.52 460.232 1156.41Z" fill="#DBDCE1"/>
<path d="M460.233 1124.98C460.233 1123.17 460.081 1121.51 460.233 1119.69C460.535 1116.82 458.57 1112.74 464.312 1113.04C468.996 1113.19 472.924 1113.65 472.924 1119.69C472.924 1123.47 473.076 1127.25 472.924 1130.87C472.773 1134.65 473.68 1139.03 467.032 1138.73C460.988 1138.43 459.175 1135.71 460.081 1130.27C460.384 1128.61 460.081 1126.79 460.233 1124.98Z" fill="#CBD8E3"/>
<path d="M657.712 591.165C657.712 584.97 657.712 578.775 657.712 572.429C657.712 566.083 657.712 559.737 657.712 552.938C655.446 554.146 655.144 555.96 654.539 557.471C653.935 556.866 653.482 556.262 652.877 555.657C653.784 553.24 654.388 550.52 655.597 548.254C657.561 543.872 654.69 544.023 651.971 543.872C651.82 539.793 657.712 541.455 657.863 537.677C658.317 536.62 659.374 535.411 659.072 534.353C656.806 522.568 658.921 510.48 657.561 498.695C657.712 495.22 657.712 491.745 657.863 488.118C659.525 484.19 663.001 484.643 666.174 484.945C676.297 486.305 683.549 483.132 686.571 472.707C688.687 476.031 688.838 479.808 689.895 483.434C690.5 485.55 692.162 486.607 694.428 486.305C695.788 486.154 696.997 485.399 696.543 483.888C694.579 476.937 692.313 470.138 687.78 464.397C687.629 464.246 686.571 465.001 685.967 465.303C683.096 465.001 680.83 466.361 678.412 467.872C674.03 470.591 670.253 474.369 665.267 476.031C664.209 473.764 662.547 472.253 660.281 471.347C660.583 470.743 660.885 470.289 661.187 469.685C664.058 469.534 666.476 467.872 668.742 466.512C676.146 462.13 681.434 455.331 688.082 449.892C688.233 450.949 688.384 452.007 688.384 453.065C688.838 454.576 690.197 454.878 691.406 455.331C690.197 462.13 693.673 466.965 699.112 473.16C699.112 465.908 699.112 460.317 699.112 454.878C701.681 456.691 698.054 463.188 704.551 461.979C705.76 471.045 703.796 480.262 706.213 489.176C706.213 490.234 706.213 491.442 706.213 492.5C704.098 496.58 704.854 500.81 705.307 504.89C706.213 514.862 706.969 524.683 706.062 534.655C704.098 539.037 700.321 539.641 696.241 539.037C690.349 538.131 687.327 540.246 688.384 546.592C688.233 547.045 688.233 547.649 688.082 548.103C684.909 553.089 688.233 558.075 688.233 563.061C688.082 564.119 688.082 565.176 687.931 566.385C686.571 567.745 686.571 569.105 687.931 570.616C688.082 575.904 691.104 578.624 695.788 579.984C695.335 584.97 692.162 587.84 688.082 590.107C677.959 587.236 668.138 590.711 658.317 591.769C657.863 591.92 657.712 591.618 657.712 591.165ZM700.17 529.216C699.565 518.337 699.112 509.423 698.659 500.659C698.508 497.033 696.241 495.975 693.068 496.126C689.442 496.277 687.327 498.393 688.233 502.019C690.197 511.236 693.522 519.999 700.17 529.216ZM688.989 520.755C687.024 524.683 686.42 528.309 686.42 532.087C686.42 534.202 686.571 536.317 689.291 536.468C691.557 536.62 694.126 536.922 695.788 536.015C697.903 534.655 695.788 532.389 695.184 530.727C694.126 527.252 692.615 523.626 688.989 520.755Z" fill="#003A66"/>
<path d="M654.992 319.498C657.712 314.058 657.108 308.166 657.41 302.575C658.014 287.466 657.863 272.507 658.014 257.398C658.014 254.98 658.467 252.11 654.992 251.354C659.374 245.008 659.676 237.302 660.885 230.201C661.489 226.726 662.849 224.913 666.173 226.424C673.124 229.899 681.434 228.992 688.233 232.921C683.7 238.813 684.909 245.613 691.255 249.994C689.895 252.412 684.909 250.145 685.211 254.678C685.06 277.191 685.06 299.855 684.909 322.368C674.786 322.217 664.662 322.671 654.992 319.498Z" fill="#005FA6"/>
<path d="M656.504 412.723C659.374 406.528 657.863 400.031 657.712 393.685C657.712 384.166 659.223 374.345 656.353 364.977C656.353 364.373 656.353 363.768 656.353 363.164C656.957 362.106 657.561 360.898 658.166 359.84C666.929 360.595 675.693 361.351 684.607 362.257C684.758 362.56 684.909 363.013 685.211 363.315C685.211 378.424 685.06 393.534 685.06 408.492C685.06 411.061 685.211 413.478 686.722 415.745C681.132 416.5 675.844 413.932 670.253 414.083C665.871 411.363 661.036 413.176 656.504 412.723Z" fill="#B6C3D2"/>
<path d="M687.931 450.194C681.434 455.634 675.995 462.433 668.591 466.815C666.325 468.175 663.907 469.837 661.037 469.988C659.828 463.491 660.734 455.936 652.122 453.518C652.122 453.065 652.122 452.763 652.122 452.31C654.691 448.683 653.331 444.604 652.726 440.827C651.971 436.294 653.784 434.329 657.713 433.121C664.814 431.005 672.067 430.25 679.017 432.365C684.758 434.178 690.198 436.143 696.393 435.538C700.925 435.085 699.415 437.956 698.206 440.373C691.104 439.92 690.802 446.417 687.931 450.194Z" fill="#0085EB"/>
<path d="M658.317 359.84C657.712 360.897 657.108 362.106 656.504 363.164C655.446 362.257 654.237 361.351 653.18 360.444C641.999 355.76 630.062 353.343 619.939 346.241C618.73 344.277 617.219 342.615 614.953 342.011C614.953 340.802 614.802 339.442 614.802 338.233C616.917 338.082 618.881 337.931 620.997 337.629C624.925 341.86 630.213 341.557 635.351 342.162L636.106 342.464L636.861 342.313C641.243 346.09 646.834 345.788 651.971 346.997C655.748 350.17 658.921 353.947 658.317 359.84Z" fill="#003A66"/>
<path d="M685.212 363.163C685.061 362.861 684.759 362.408 684.607 362.106C686.118 355.911 684.456 349.716 685.363 343.521C689.745 343.823 693.975 343.672 698.206 340.953C695.637 337.175 691.407 336.269 687.78 334.607C689.442 334.002 691.104 333.398 692.918 332.793C698.357 335.211 703.947 337.628 709.387 340.046C708.782 341.859 705.912 341.859 705.912 344.126C707.423 345.788 709.538 344.579 711.2 345.032C710.596 345.636 709.991 346.09 709.387 346.694C702.588 350.774 693.069 348.054 686.874 355.004C694.731 357.573 702.134 352.738 709.387 355.458C707.423 359.688 704.25 361.652 699.415 361.955C696.242 362.106 692.918 361.048 690.651 365.43C688.989 368.603 687.78 362.408 685.212 363.163Z" fill="#005FA6"/>
<path d="M639.884 406.83C636.408 405.924 637.617 401.391 634.293 399.578C630.667 407.283 626.889 414.838 623.263 422.393C621.601 417.86 623.565 414.234 625.681 410.91C632.178 400.635 632.933 390.512 626.738 379.784C623.717 374.496 622.206 368.452 618.428 363.013C618.428 377.669 618.428 392.325 618.428 406.981C616.162 390.814 617.522 374.647 617.824 358.48C617.824 357.422 619.033 356.365 619.637 355.307C623.717 364.977 627.494 374.798 631.724 384.317C634.746 391.57 639.581 398.369 639.884 406.83Z" fill="#0085EB"/>
<path d="M643.207 454.123C643.963 452.914 644.718 451.705 645.625 450.647C647.74 451.252 650.006 451.705 652.122 452.31C652.122 452.763 652.122 453.065 652.122 453.518C653.935 460.62 653.028 468.023 653.633 475.88C656.352 474.067 658.316 472.858 660.13 471.65C662.547 472.405 664.209 474.067 665.116 476.333C658.921 480.413 655.295 488.723 646.078 487.666C645.927 487.212 645.776 486.759 645.625 486.457C650.762 476.031 649.553 465.606 644.567 455.482C644.265 455.029 643.811 454.576 643.207 454.123Z" fill="#005FA6"/>
<path d="M620.241 240.929C620.241 240.022 619.939 238.511 620.997 238.36C632.178 236.396 642.905 231.712 654.691 232.165C652.424 238.058 646.683 237 641.999 238.511C643.359 240.778 645.625 240.173 647.438 240.476C649.402 240.929 652.424 239.871 651.971 243.649C651.518 247.124 648.798 247.275 646.38 246.822C638.372 245.16 630.364 243.195 622.356 241.382C621.601 241.231 620.997 241.08 620.241 240.929Z" fill="#F1DAD2"/>
<path d="M689.594 322.368C694.731 313.303 699.868 304.086 705.156 295.02C708.329 289.883 708.178 285.35 704.703 280.364C701.228 275.529 697.148 270.996 695.486 265.104L695.335 265.255C700.926 267.068 701.983 272.658 704.854 276.738C710.445 284.444 710.294 284.595 714.373 276.587C714.826 275.831 715.129 274.622 717.244 274.774C715.129 282.177 714.373 289.732 717.395 297.74C713.316 296.682 713.316 293.207 710.596 291.092C705.61 302.575 696.997 311.943 693.371 324.03C692.313 323.426 690.954 322.821 689.594 322.368Z" fill="#005FA6"/>
<path d="M691.105 249.994C684.759 245.612 683.55 238.813 688.083 232.92C698.508 235.036 708.934 237.302 719.963 239.569C708.934 249.994 699.415 239.417 689.291 238.058C691.105 243.346 696.242 243.497 699.112 246.972C696.997 249.843 693.975 249.39 691.105 249.994Z" fill="#F1DAD2"/>
<path d="M619.334 424.508C621.6 427.983 624.169 426.17 627.04 425.414C636.71 422.846 644.567 415.291 654.841 414.384C654.69 418.011 654.69 421.486 654.539 425.112C653.33 424.659 652.121 423.752 651.064 424.054C641.696 426.623 632.479 429.494 623.262 432.364C620.089 430.702 617.823 428.587 619.334 424.508Z" fill="#0085EB"/>
<path d="M686.571 416.047C696.392 409.852 700.321 399.578 704.4 389.454C705.76 385.828 706.969 382.504 711.955 381.144C709.689 393.383 720.87 399.275 723.892 409.096C723.438 409.399 722.834 409.852 722.381 410.154C718.754 405.47 715.279 400.635 711.653 395.951C709.991 393.987 707.876 391.872 705.911 395.347C701.832 402.146 698.206 409.248 694.428 416.198C694.126 416.651 695.335 417.86 695.788 418.615C692.615 417.709 689.593 416.953 686.571 416.047Z" fill="#0085EB"/>
<path d="M622.81 453.518C627.191 458.202 625.227 466.361 631.573 470.138C631.724 470.29 631.724 471.196 631.422 471.498C623.867 477.995 632.026 483.586 632.328 489.478C624.472 492.047 622.81 486.91 621.903 481.017C620.845 474.218 622.054 467.268 620.09 460.468C620.996 458.051 621.903 455.784 622.81 453.518Z" fill="#B6C3D2"/>
<path d="M656.655 334.153C666.174 333.096 674.635 337.931 683.701 338.686C684.91 339.442 685.061 340.651 684.608 342.01C677.657 343.219 670.707 344.126 663.757 345.637C660.886 346.241 658.468 345.788 656.051 344.579C656.202 341.104 656.353 337.629 656.655 334.153Z" fill="#005FA6"/>
<path d="M623.414 432.214C632.631 429.494 641.999 426.623 651.215 423.903C652.122 423.601 653.482 424.659 654.691 424.961C655.597 428.738 653.784 430.551 650.158 431.156C647.136 431.609 644.265 432.365 641.394 432.818C640.488 435.235 643.812 435.689 643.812 438.257C636.106 438.862 629.911 435.084 623.414 432.214Z" fill="#F1DAD2"/>
<path d="M635.2 341.859C630.214 341.255 624.774 341.557 620.846 337.326C630.062 334.305 639.279 331.283 648.496 328.563C650.46 327.959 654.842 324.786 654.691 330.98C647.74 333.851 641.394 337.629 635.2 341.859Z" fill="#F1DAD2"/>
<path d="M656.655 334.153C656.504 337.628 656.353 341.104 656.051 344.579C654.54 345.334 653.18 345.939 651.669 346.694C646.532 345.485 640.941 345.788 636.56 342.01C643.812 341.255 649.554 337.477 654.842 332.793C655.446 333.247 656.051 333.7 656.655 334.153Z" fill="#F1DAD2"/>
<path d="M709.386 340.046C703.947 337.628 698.356 335.211 692.917 332.793C693.068 329.318 695.486 330.527 697.299 330.829C704.702 332.038 712.106 333.398 719.963 334.758C717.092 338.837 712.559 338.233 709.386 340.046Z" fill="#F1DAD2"/>
<path d="M698.962 455.331C698.962 460.921 698.962 466.361 698.962 473.613C693.522 467.418 690.047 462.583 691.256 455.784C693.975 456.842 695.94 448.078 698.962 455.331Z" fill="#33A7FF"/>
<path d="M726.914 432.818C720.417 437.502 713.617 441.582 703.494 442.942C710.293 434.329 718.906 434.178 726.914 432.818Z" fill="#F1DAD2"/>
<path d="M731.598 346.695C726.007 354.552 723.741 364.373 717.093 371.625C720.266 360.595 726.158 350.623 731.749 340.651C731.749 342.615 731.598 344.579 731.598 346.695Z" fill="#005FA6"/>
<path d="M684.607 342.011C685.06 340.651 684.909 339.593 683.7 338.686C682.945 335.211 685.362 334.909 687.78 334.607C691.406 336.269 695.637 337.176 698.205 340.953C693.975 343.673 689.744 343.824 685.362 343.522C685.06 343.068 684.909 342.615 684.607 342.011Z" fill="#F1DAD2"/>
<path d="M687.932 450.193C690.802 446.265 691.105 439.768 698.206 440.372C698.206 447.172 691.86 449.287 688.234 453.366C688.234 452.309 688.083 451.251 687.932 450.193Z" fill="#0085EB"/>
<path d="M654.993 332.794C649.704 337.478 643.963 341.255 636.71 342.011L635.955 342.162L635.199 341.86C641.394 337.629 647.74 333.852 654.69 331.132C654.841 331.736 654.841 332.19 654.993 332.794Z" fill="#005FA6"/>
<path d="M705.458 428.89C701.076 431.156 693.824 431.76 687.176 430.249C691.709 426.774 694.579 426.623 705.458 428.89Z" fill="#F1DAD2"/>
<path d="M653.18 252.713C650.158 258.002 647.136 263.139 644.114 268.427C642.905 262.081 647.438 258.153 648.798 253.016C650.309 252.864 651.669 252.864 653.18 252.713Z" fill="#0085EB"/>
<path d="M728.726 254.375C726.158 258.455 726.007 264.197 719.358 267.521C722.078 261.477 723.74 256.642 727.064 252.713C727.669 253.318 728.273 253.771 728.726 254.375Z" fill="#005FA6"/>
<path d="M656.504 412.722C661.037 413.175 665.872 411.362 670.254 414.082C665.57 414.082 660.735 413.931 656.051 413.931C656.051 413.478 656.202 413.024 656.504 412.722Z" fill="#0085EB"/>
<path d="M728.273 243.195C728.878 242.893 729.331 242.742 729.935 242.439C729.935 243.044 729.935 243.799 729.935 244.404C729.331 244.101 728.878 243.648 728.273 243.195Z" fill="#F9F4F3"/>
<path d="M688.082 630.6C688.233 631.053 688.384 631.356 688.384 631.809C687.931 637.702 687.478 643.443 687.175 649.336C686.873 654.926 686.722 660.517 686.42 666.107C677.052 666.561 667.684 667.769 659.223 662.33C655.748 652.962 656.352 643.141 656.503 633.32C656.503 631.809 656.654 630.298 656.654 628.938C667.08 629.391 677.657 626.974 688.082 630.6Z" fill="#005FA6"/>
<path d="M659.223 662.179C667.685 667.618 677.203 666.409 686.42 665.956C686.722 675.626 686.722 675.626 677.203 675.626C669.8 675.626 662.396 675.475 654.993 675.324C654.841 672.755 654.842 670.338 654.69 667.769C656.05 665.805 660.13 665.956 659.223 662.179Z" fill="#003A66"/>
<path d="M656.051 623.952C656.504 623.499 657.108 622.895 657.562 622.441C667.836 623.046 677.959 623.65 688.234 624.255C688.234 626.37 688.234 628.485 688.083 630.449C677.808 626.823 667.081 629.241 656.504 628.636C656.353 627.125 656.202 625.614 656.051 623.952Z" fill="#003A66"/>
<path d="M657.562 163.719C658.166 163.115 658.619 162.662 659.224 162.057C667.836 162.51 676.599 163.115 685.212 163.568C698.659 166.59 712.106 169.612 725.705 172.634C726.158 172.785 726.612 172.785 726.914 172.936C726.914 176.411 726.914 179.886 726.914 183.512H726.309H725.705C718.15 182.002 715.128 188.499 709.84 192.578C709.84 189.556 710.293 186.534 705.609 188.045C700.321 190.01 694.58 191.067 689.14 192.427C688.234 192.578 687.478 192.88 686.572 193.031C686.572 191.52 686.572 189.858 686.723 188.347C695.486 186.081 704.401 183.815 714.071 179.584C706.818 177.922 701.53 181.246 695.939 180.793C695.335 179.886 694.731 178.829 694.126 177.922C698.206 174.447 703.343 177.318 708.329 175.504C701.983 172.18 695.637 172.634 689.291 173.54C685.212 174.145 684.154 177.015 684.91 180.642C675.844 180.793 666.929 180.944 657.864 180.944C657.864 175.051 657.713 169.461 657.562 163.719Z" fill="#004B85"/>
<path d="M686.873 188.348C686.873 189.859 686.873 191.521 686.722 193.032C678.412 195.903 669.8 193.787 661.187 194.392C658.468 193.032 659.223 190.463 658.921 188.197C667.684 184.419 676.901 184.873 686.118 185.024C686.571 186.081 686.722 187.29 686.873 188.348Z" fill="#0085EB"/>
<path d="M686.42 185.024C677.204 185.024 667.987 184.419 659.223 188.196C657.108 185.93 658.015 183.361 658.166 180.793C667.231 180.642 676.146 180.491 685.212 180.491C688.989 182.002 691.406 178.98 694.428 177.771C695.033 178.678 695.637 179.735 696.242 180.642C693.069 182.606 690.047 184.419 686.42 185.024Z" fill="#005FA6"/>
<path d="M661.339 194.392C669.8 193.636 678.412 195.903 686.874 193.032C687.78 192.881 688.536 192.579 689.442 192.428C690.953 196.658 688.536 196.809 685.514 196.205C677.355 194.543 669.196 197.414 661.339 194.392Z" fill="#0085EB"/>
<path d="M720.114 115.218C721.474 115.823 722.985 116.578 724.345 117.182C724.949 118.391 726.158 118.693 727.367 118.693C727.216 120.658 727.065 122.471 726.914 124.435C726.46 124.586 726.007 124.737 725.554 124.737C722.532 125.946 719.51 128.363 716.639 128.212C705.458 127.608 695.637 132.443 685.212 135.012C685.212 134.709 685.212 134.256 685.061 133.954C685.061 132.292 685.061 130.479 685.212 128.817C694.277 126.701 703.192 124.586 713.768 122.169C703.494 120.355 695.184 123.831 686.571 122.924C686.571 121.715 686.571 120.507 686.571 119.298C689.291 119.147 692.162 119.298 694.731 118.542C703.041 116.276 712.106 118.996 720.114 115.218Z" fill="#004B85"/>
<path d="M705.458 76.387C698.357 76.387 693.219 76.387 688.082 76.387C686.571 76.387 684.909 76.0848 685.06 74.1206C685.211 72.1564 686.722 71.7031 688.233 72.0053C693.522 72.7608 698.961 72.9119 705.458 76.387Z" fill="#33A7FF"/>
<path d="M680.679 85.3019C675.844 88.3238 670.555 86.8129 665.569 86.5107C670.102 80.618 675.239 80.9202 680.679 85.3019Z" fill="#003A66"/>
<path d="M700.321 83.9415C700.321 83.6393 700.321 83.186 700.472 82.8838C700.623 82.8838 700.925 82.8838 701.077 83.0349C700.774 83.3371 700.472 83.6393 700.321 83.9415Z" fill="#F9F4F3"/>
<path d="M658.015 106.606C658.468 106.606 658.921 106.455 659.223 106.304C668.44 106.908 677.506 107.361 686.723 107.966C695.637 109.628 704.703 111.29 713.617 112.801C704.401 116.578 694.882 116.276 685.212 114.463C676.75 111.29 667.987 113.254 659.526 112.65L658.77 112.499L658.015 112.65C658.166 110.534 658.015 108.57 658.015 106.606Z" fill="#004B85"/>
<path d="M632.329 79.4086C639.128 75.9334 646.381 75.329 653.633 74.8757C655.144 74.7247 656.957 75.329 656.806 77.1422C656.806 78.8042 655.144 79.4086 653.482 79.4086C646.532 79.4086 639.431 79.4086 632.329 79.4086Z" fill="#F1DAD2"/>
<path d="M641.395 103.584C640.639 95.8781 648.345 94.3672 651.82 89.6833C653.029 88.0212 655.749 87.719 656.655 85.4526C657.562 86.9636 658.468 88.6256 659.375 90.1366C652.878 90.1366 650.46 95.727 646.834 99.5044C645.172 101.015 644.416 103.584 641.395 103.584Z" fill="#F1DAD2"/>
<path d="M688.082 624.254C677.808 623.65 667.685 623.045 657.41 622.441C657.561 612.318 657.863 602.345 658.015 592.222C667.987 591.165 677.657 587.84 687.78 590.56C687.931 590.862 688.082 591.165 688.082 591.618C687.478 602.194 687.478 612.771 688.082 623.348C688.384 623.65 688.233 623.952 688.082 624.254Z" fill="#005FA6"/>
<path d="M687.932 548.707C688.083 548.254 688.083 547.649 688.234 547.196C701.681 546.894 701.681 546.894 701.681 560.341C701.681 563.968 701.681 567.745 701.681 573.184C694.731 565.025 690.954 557.017 687.932 548.707Z" fill="#33A7FF"/>
<path d="M695.637 580.437C690.953 579.077 687.931 576.207 687.78 571.069C687.78 569.71 687.78 568.35 687.78 566.839C687.931 565.781 687.931 564.723 688.082 563.515C692.917 566.385 694.731 571.825 697.904 576.055C699.868 578.624 698.659 580.286 695.637 580.437Z" fill="#0085EB"/>
<path d="M647.438 493.104C646.38 493.104 645.323 492.953 644.416 492.953C645.02 491.291 645.625 489.478 646.229 487.816C655.446 488.874 659.072 480.564 665.267 476.484C670.253 474.822 674.03 471.045 678.412 468.325C680.83 466.814 682.945 465.454 685.967 465.756C686.118 468.174 686.42 470.742 686.571 473.16C683.549 483.434 676.297 486.607 666.174 485.399C663.152 484.945 659.525 484.643 657.863 488.572C653.935 489.025 650.309 490.234 647.438 493.104Z" fill="#0085EB"/>
<path d="M641.395 494.615C640.186 496.731 638.977 498.846 637.919 501.112C635.2 506.854 632.027 510.631 626.436 503.681C625.983 503.077 624.623 503.077 623.717 502.774C621.752 495.673 624.774 493.407 631.725 494.313C634.898 494.766 638.071 494.615 641.395 494.615Z" fill="#DBDCE1"/>
<path d="M657.561 498.846C654.237 503.983 652.424 509.725 650.309 515.315C649.553 514.862 648.647 514.409 647.891 513.804C647.74 506.854 647.74 499.904 647.589 492.953C650.46 490.082 654.086 488.874 658.014 488.118C657.712 491.896 657.712 495.371 657.561 498.846Z" fill="#004B85"/>
<path d="M654.539 557.622C655.143 556.111 655.445 554.298 657.712 553.089C657.712 559.737 657.712 566.083 657.712 572.58C656.654 574.545 656.201 577.264 654.539 578.02C651.215 579.833 648.193 579.38 648.797 574.243C652.272 569.256 652.121 563.062 654.539 557.622Z" fill="#33A7FF"/>
<path d="M659.526 112.498C668.138 113.103 676.901 111.139 685.212 114.312C684.758 116.276 685.06 117.938 686.571 119.298C686.571 120.506 686.571 121.715 686.571 122.924C685.665 123.679 684.909 124.435 684.003 125.19C679.319 125.19 674.484 125.039 669.8 125.19C664.965 125.341 661.037 126.852 659.223 131.838C647.287 129.119 635.048 128.363 623.414 124.284C625.076 122.471 627.494 123.679 629.458 122.924C632.631 125.19 636.257 124.435 639.732 124.888C645.172 127.759 650.762 127.003 656.05 125.039C662.547 122.471 658.015 116.578 659.526 112.498Z" fill="#005FA6"/>
<path d="M658.014 106.606C658.014 108.57 658.165 110.685 658.165 112.65C646.984 114.161 635.954 115.671 624.773 115.823C625.227 114.312 626.284 113.254 627.795 112.801C637.768 110.081 646.984 103.735 658.014 106.606Z" fill="#F1DAD2"/>
<path d="M639.883 124.737C636.408 124.284 632.781 125.039 629.608 122.773C629.608 121.413 629.76 120.506 631.422 120.053C639.581 117.938 647.286 119.147 656.201 122.017C650.308 125.039 644.567 121.715 639.883 124.737Z" fill="#F1DAD2"/>
<path d="M639.884 969.353C632.329 971.468 624.019 969.655 616.766 974.037C614.198 975.548 611.478 971.317 608.456 973.13C609.06 970.109 609.514 967.087 610.118 964.065C620.997 964.216 630.969 959.532 641.697 958.021C641.999 961.798 641.092 965.576 639.884 969.353Z" fill="#0085EB"/>
<path d="M600.75 1035.68C603.772 1035.23 605.132 1032.66 606.794 1030.39C614.046 1020.57 621.148 1010.6 628.249 1000.63C630.818 997.003 633.991 993.528 631.12 988.542C635.199 988.088 636.408 992.47 639.732 992.017C641.848 993.377 641.848 994.888 640.186 996.55C636.862 994.434 635.048 995.794 632.933 998.816C626.889 1008.34 620.09 1017.4 614.046 1027.07C610.873 1032.06 605.283 1035.38 603.772 1041.58C603.621 1041.73 603.319 1042.03 603.168 1042.18C600.75 1040.67 600.448 1038.4 600.75 1035.68Z" fill="#0085EB"/>
<path d="M637.919 1034.32C638.523 1039.91 639.43 1045.66 630.817 1045.2C621.903 1045.2 612.988 1045.05 604.074 1045.05C600.145 1045.05 602.714 1043.39 603.167 1042.18C603.469 1042.03 603.62 1041.88 603.771 1041.58C614.952 1037.8 626.738 1037.2 637.919 1034.32Z" fill="#0085EB"/>
<path d="M603.923 1134.2C611.931 1130.57 620.392 1129.51 629.156 1129.51C631.12 1129.51 633.537 1129.21 633.386 1132.23C633.235 1134.65 630.969 1134.2 629.307 1134.2C620.845 1134.2 612.384 1134.2 603.923 1134.2Z" fill="#F1DAD2"/>
<path d="M648.949 847.42C648.345 846.211 644.719 849.686 646.23 845.757C649.1 838.807 645.172 838.203 639.884 838.203C635.955 838.203 632.027 837.901 627.947 837.749C636.409 836.39 644.87 835.03 653.331 833.67C653.482 838.203 650.914 841.527 648.949 845.304C648.949 845.909 648.798 846.664 648.949 847.42Z" fill="#005FA6"/>
<path d="M644.567 907.858C643.812 904.987 646.078 900.907 641.243 899.85C644.114 897.281 647.438 896.375 650.611 899.094C652.877 901.059 652.122 903.627 651.064 905.894C649.704 908.613 647.589 910.275 644.567 907.858Z" fill="#003A66"/>
<path d="M611.327 955.905C612.233 955.754 613.593 955.15 613.895 956.359C614.349 958.323 613.14 959.683 611.327 960.438C609.06 959.078 609.06 957.567 611.327 955.905Z" fill="#0085EB"/>
<path d="M617.672 891.086C617.672 891.539 617.672 892.144 617.672 892.597C617.521 892.295 617.37 891.841 617.37 891.539C617.37 891.539 617.521 891.237 617.672 891.086Z" fill="#0085EB"/>
<path d="M648.798 847.421C648.798 846.666 648.949 845.91 648.949 845.306C649.704 846.061 650.611 846.817 648.798 847.421Z" fill="#DBDCE1"/>
<path d="M739.757 1044.14C730.691 1045.5 721.625 1047.02 712.409 1048.07C706.214 1048.83 703.041 1050.79 703.494 1057.89C703.947 1063.94 707.725 1070.28 706.516 1074.97C704.401 1083.28 706.667 1090.83 706.365 1098.69C706.063 1105.94 706.667 1113.19 706.818 1120.45C696.091 1121.2 685.363 1120.45 674.786 1119.39C674.182 1119.24 673.426 1119.24 672.822 1119.09C672.067 1118.94 671.16 1118.79 670.405 1118.63C664.059 1114.25 664.965 1107.76 665.872 1101.56C667.987 1088.87 666.778 1076.03 666.929 1063.33C666.929 1057.14 663.454 1052.61 658.166 1049.28C655.899 1047.92 652.122 1047.17 653.935 1043.54C655.446 1040.67 657.864 1043.84 659.979 1043.69C661.188 1043.69 662.699 1044.45 663.605 1043.99C675.844 1037.19 688.234 1043.09 700.321 1043.84C712.106 1044.45 723.741 1044.75 735.375 1043.39C736.735 1043.54 738.246 1043.99 739.757 1044.14Z" fill="#3B3C43"/>
<path d="M709.538 966.936C708.329 967.389 707.12 967.994 705.911 968.447C704.098 968.447 702.285 968.447 700.472 968.447C699.414 968.145 698.659 968.145 699.263 969.656C700.472 971.318 701.681 973.131 702.738 974.793C702.285 975.246 701.681 975.699 701.227 976.153C698.961 976.304 699.414 977.664 699.565 979.326C700.472 997.155 701.378 1015.13 702.285 1032.96C691.86 1036.44 681.585 1034.17 671.311 1032.51C667.987 1032.06 667.08 1028.88 667.08 1025.41C667.08 1007.43 667.231 989.298 667.08 971.318C667.08 965.425 670.102 963.914 675.541 963.461C687.025 962.554 698.054 966.634 709.538 966.936Z" fill="#0085EB"/>
<path d="M666.476 942.458C666.627 930.522 666.929 918.585 666.778 906.498C666.627 899.85 669.196 897.13 675.995 896.828C685.363 896.526 694.731 896.677 704.098 896.979C707.574 897.13 710.898 897.734 713.768 900.001L713.617 900.152C695.939 899.094 695.939 899.094 697.45 912.088C697.45 912.239 697.753 912.39 698.659 912.995C702.89 910.124 707.271 907.102 711.653 904.08C712.106 904.534 712.711 904.987 713.164 905.44C708.933 909.217 705.761 914.204 700.925 917.377C696.997 920.096 696.997 924.629 697.299 929.011C697.904 938.53 699.263 947.898 698.81 957.417C693.22 955.603 687.478 956.057 681.737 956.057C669.347 955.754 666.325 954.697 666.476 942.458Z" fill="#0085EB"/>
<path d="M636.71 1079.95C636.71 1078.29 636.71 1076.63 636.71 1074.97C637.617 1071.19 636.257 1067.11 638.07 1063.33C638.221 1064.84 638.524 1066.2 638.826 1068.32C645.021 1065.45 646.38 1058.05 652.424 1054.27C650.913 1074.21 652.726 1093.55 650.309 1112.89C648.949 1123.17 641.243 1119.84 635.351 1120.45C635.804 1106.85 636.257 1093.4 636.71 1079.95Z" fill="#005FA6"/>
<path d="M640.639 1017.7C640.488 1010.75 640.337 1003.65 640.186 996.701C641.848 995.039 641.848 993.528 639.732 992.168C640.186 990.808 640.639 989.297 641.092 987.938C643.056 987.031 642.905 985.218 642.905 983.556C647.891 980.232 648.647 973.735 654.993 968.295C654.993 979.93 655.748 989.751 654.842 999.421C653.935 1008.64 653.784 1017.85 653.482 1027.07C653.482 1029.04 653.633 1031.6 651.518 1032.21C648.949 1032.96 648.496 1030.09 647.589 1028.43C645.625 1024.96 643.812 1021.33 641.999 1017.85C641.394 1017.7 641.092 1017.7 640.639 1017.7Z" fill="#005FA6"/>
<path d="M674.786 1119.39C685.513 1120.45 696.09 1121.2 706.818 1120.45H706.667C714.675 1127.4 724.798 1124.38 733.863 1125.89C739.152 1126.79 745.044 1128.46 750.786 1126.64C751.239 1126.94 751.693 1127.4 752.146 1127.7C750.786 1132.38 746.858 1130.42 743.836 1131.02C731.748 1128.91 719.51 1129.21 707.271 1129.66C695.032 1126.64 682.643 1126.79 670.253 1125.43C667.533 1123.17 664.511 1121.05 670.253 1118.79C671.008 1118.94 671.915 1119.09 672.67 1119.24C673.275 1119.99 674.03 1120.3 674.786 1119.39Z" fill="#004B85"/>
<path d="M642.754 983.556C642.905 985.369 643.056 987.031 640.941 987.938C639.883 986.276 639.732 984.613 641.243 983.103C641.696 983.254 642.301 983.405 642.754 983.556Z" fill="#0085EB"/>
<path d="M640.186 1031.45C640.186 1029.94 640.337 1028.43 640.337 1026.92C641.394 1028.43 641.394 1029.94 640.186 1031.45Z" fill="#0085EB"/>
<path d="M640.639 1017.7C641.092 1017.7 641.394 1017.85 641.848 1018.01C641.394 1019.06 641.092 1020.12 640.639 1021.03C640.034 1019.82 640.034 1018.76 640.639 1017.7Z" fill="#0085EB"/>
<path d="M750.786 1126.79C745.045 1128.61 739.152 1126.94 733.864 1126.04C724.798 1124.53 714.675 1127.55 706.667 1120.6C721.323 1123.47 736.281 1123.17 750.786 1126.79Z" fill="#005FA6"/>
<path d="M721.02 1090.53C716.337 1087.81 713.013 1083.88 710.746 1079.05C715.43 1081.77 719.207 1085.09 721.474 1090.23L721.02 1090.53Z" fill="#005FA6"/>
<path d="M728.877 1099.6C725.553 1097.93 723.891 1096.42 723.136 1093.4C726.158 1094.46 727.669 1096.12 728.877 1099.6Z" fill="#005FA6"/>
<path d="M721.323 1090.23C721.626 1090.68 721.777 1091.14 722.079 1091.44C721.626 1091.14 721.323 1090.83 720.87 1090.53C721.021 1090.53 721.323 1090.23 721.323 1090.23Z" fill="#005FA6"/>
<path d="M707.271 1129.66C719.51 1129.21 731.749 1128.91 743.836 1131.02C734.922 1134.5 725.554 1131.63 716.488 1132.53C713.315 1132.84 709.538 1131.93 709.236 1136.92C708.782 1137.07 708.178 1137.37 707.725 1137.52C707.574 1134.8 707.423 1132.23 707.271 1129.66Z" fill="#0085EB"/>
<path d="M656.655 823.245C656.504 815.841 656.201 808.438 656.05 801.034C655.899 796.803 654.842 794.084 649.855 796.652C649.553 796.35 649.1 796.199 648.798 795.897C650.158 792.875 653.028 791.364 655.295 789.098C667.685 794.537 680.981 795.141 694.126 797.257C691.709 805.265 693.22 813.575 692.464 821.583C683.701 824.605 674.635 822.338 665.72 822.943C662.698 823.396 659.677 823.245 656.655 823.245Z" fill="#3B3C43"/>
<path d="M732.504 1017.4C730.086 1014.23 727.82 1010.9 725.402 1007.73C725.856 1007.28 726.309 1006.82 726.762 1006.22C729.029 1009.39 731.446 1012.72 733.713 1015.89C733.41 1016.49 732.957 1016.95 732.504 1017.4Z" fill="#005FA6"/>
<path d="M725.403 1007.73C724.345 1006.22 723.439 1004.71 722.381 1003.2C722.834 1002.75 723.287 1002.44 723.892 1001.99C724.949 1003.35 725.856 1004.86 726.914 1006.22C726.309 1006.67 725.856 1007.13 725.403 1007.73Z" fill="#005FA6"/>
<path d="M735.677 1018.61C736.583 1019.52 737.943 1020.57 736.734 1021.48C735.374 1022.54 734.921 1020.88 734.468 1019.67C734.921 1019.37 735.223 1019.06 735.677 1018.61Z" fill="#005FA6"/>
<path d="M733.864 1016.04C734.468 1016.95 735.073 1017.85 735.828 1018.76C735.375 1019.06 734.922 1019.52 734.619 1019.97C734.015 1019.21 733.26 1018.31 732.655 1017.55C732.957 1016.95 733.411 1016.49 733.864 1016.04Z" fill="#005FA6"/>
<path d="M702.89 977.361C702.285 976.908 701.832 976.454 701.228 976.001C701.681 975.548 702.285 975.094 702.738 974.641C703.192 975.094 703.645 975.548 703.947 976.152C703.645 976.605 703.343 976.908 702.89 977.361Z" fill="#0085EB"/>
<path d="M704.854 977.059C704.401 977.512 703.947 978.117 703.343 978.57C703.041 978.268 702.89 977.814 702.89 977.361C703.192 976.908 703.645 976.455 703.947 976.152C704.401 976.303 704.703 976.606 704.854 977.059Z" fill="#0085EB"/>
<path d="M713.768 900.152C715.884 900.152 717.999 900.303 720.266 900.303C718.301 901.663 716.488 903.023 714.524 904.534C714.071 903.929 713.617 903.325 713.164 902.872C713.315 901.814 713.466 901.058 713.768 900.152Z" fill="#0085EB"/>
<path d="M714.523 904.382C714.07 904.685 713.768 905.138 713.315 905.44C712.861 904.987 712.257 904.534 711.804 904.08C712.257 903.627 712.71 903.174 713.315 902.569C713.617 903.325 714.07 903.929 714.523 904.382Z" fill="#0085EB"/>
<path d="M708.631 868.271C705.76 866.911 704.4 865.098 704.4 862.378C704.4 862.076 705.609 861.472 706.062 861.623C709.084 862.681 709.235 865.098 708.631 868.271Z" fill="#005FA6"/>
<path d="M694.126 797.408C681.132 795.293 667.685 794.537 655.295 789.249C656.504 786.68 658.619 784.414 657.864 781.241C672.52 781.845 687.176 779.881 701.832 782.299C698.357 782.45 694.882 782.601 691.406 782.903C691.406 783.205 691.406 783.507 691.255 783.809C694.73 783.809 698.055 783.809 702.89 783.809C698.508 786.982 693.371 783.507 691.406 788.493C690.198 791.969 692.162 794.688 694.126 797.408Z" fill="#33A7FF"/>
<path d="M700.17 529.216C693.371 519.848 690.198 511.236 688.234 502.019C687.478 498.242 689.442 496.277 693.069 496.126C696.242 495.975 698.508 497.184 698.659 500.659C699.112 509.574 699.717 518.488 700.17 529.216Z" fill="#33A7FF"/>
<path d="M660.13 471.649C658.317 472.858 656.353 474.067 653.633 475.88C653.029 468.023 653.935 460.619 652.122 453.518C660.734 455.936 659.828 463.49 661.037 469.987C660.734 470.592 660.432 471.045 660.13 471.649Z" fill="#33A7FF"/>
<path d="M686.571 473.01C686.42 470.592 686.118 468.024 685.967 465.606C686.571 465.304 687.629 464.548 687.78 464.699C692.313 470.441 694.579 477.24 696.543 484.191C696.997 485.702 695.788 486.457 694.428 486.608C692.162 486.91 690.5 485.853 689.895 483.737C688.838 480.111 688.535 476.334 686.571 473.01Z" fill="#33A7FF"/>
<path d="M688.989 520.755C692.616 523.777 694.127 527.252 695.335 530.727C695.94 532.389 698.055 534.656 695.94 536.015C694.278 537.073 691.558 536.62 689.443 536.469C686.723 536.318 686.572 534.051 686.572 532.087C686.421 528.31 687.025 524.683 688.989 520.755Z" fill="#0085EB"/>
<path d="M687.78 566.839C687.78 568.199 687.78 569.559 687.78 571.069C686.42 569.71 686.42 568.35 687.78 566.839Z" fill="#004B85"/>
<path d="M695.486 265.104C695.335 264.801 695.184 264.348 695.184 264.046C695.335 264.499 695.335 264.801 695.486 265.104Z" fill="#005FA6"/>
<path d="M622.961 312.547C622.961 302.122 632.933 280.817 640.639 275.076C634.142 288.674 628.551 300.611 622.961 312.547Z" fill="#33A7FF"/>
<path d="M642.15 269.637C642.301 270.09 642.452 270.392 642.452 270.845C642.452 270.997 642.15 271.148 641.998 271.299C641.847 270.845 641.696 270.543 641.696 270.09C641.696 269.939 641.998 269.788 642.15 269.637Z" fill="#0085EB"/>
<path d="M709.386 355.458C702.134 352.738 694.73 357.573 686.873 355.005C693.068 348.054 702.587 350.774 709.386 346.694C711.199 347.903 713.012 349.112 715.279 350.623C713.163 352.285 711.35 353.947 709.386 355.458Z" fill="#F1DAD2"/>
<path d="M724.647 410.909C725.554 411.514 726.158 412.722 725.403 413.327C724.194 414.082 724.194 412.42 723.892 411.816C724.194 411.514 724.496 411.211 724.647 410.909Z" fill="#0085EB"/>
<path d="M723.892 409.096C724.194 409.701 724.496 410.305 724.647 410.909C724.345 411.211 724.043 411.363 723.892 411.665C723.439 411.211 722.834 410.607 722.381 410.154C722.985 409.852 723.439 409.549 723.892 409.096Z" fill="#0085EB"/>
<path d="M653.179 360.293C654.237 361.2 655.446 362.106 656.503 363.013C656.503 363.617 656.503 364.221 656.503 364.826C649.553 371.776 647.589 382.202 640.034 388.85C639.883 388.699 639.581 388.396 639.43 388.245C641.243 380.54 646.078 374.345 649.855 367.697C651.064 365.279 653.481 363.466 653.179 360.293Z" fill="#0085EB"/>
<path d="M639.732 406.83C639.883 406.83 640.034 406.83 640.185 406.981C640.034 406.83 640.034 406.83 639.732 406.83Z" fill="#0085EB"/>
<path d="M640.034 388.85C639.581 389.152 639.278 389.454 638.825 389.756C638.976 389.303 639.278 388.698 639.43 388.245C639.581 388.396 639.732 388.698 640.034 388.85Z" fill="#0085EB"/>
<path d="M684.607 342.01C684.91 342.464 685.061 343.068 685.363 343.521C684.607 349.716 686.269 355.911 684.607 362.106C675.844 361.35 667.081 360.595 658.166 359.688C658.921 353.796 655.597 350.018 651.669 346.543C653.029 345.788 654.54 345.183 656.051 344.428C658.468 345.636 660.886 346.241 663.756 345.485C670.707 344.277 677.657 343.219 684.607 342.01Z" fill="#3B3C43"/>
<path d="M711.804 219.473C704.401 213.278 697.601 206.479 692.162 198.32C700.17 203.608 707.12 209.954 712.862 217.66C712.409 218.264 712.107 218.869 711.804 219.473Z" fill="#0085EB"/>
<path d="M717.546 223.553C718.15 224.157 719.057 224.913 717.848 225.819C717.697 225.97 716.941 225.064 716.337 224.761C716.79 224.308 717.092 223.855 717.546 223.553Z" fill="#0085EB"/>
<path d="M716.337 224.611C715.884 224.157 715.279 223.553 714.826 223.1C715.128 222.646 715.582 222.193 715.884 221.74C716.337 222.344 716.942 222.948 717.395 223.553C717.093 223.855 716.79 224.308 716.337 224.611Z" fill="#0085EB"/>
<path d="M714.826 223.1C714.071 222.495 713.164 221.891 714.222 220.984C714.373 220.833 715.279 221.438 715.884 221.74C715.582 222.193 715.279 222.646 714.826 223.1Z" fill="#0085EB"/>
<path d="M712.711 217.66C713.466 218.264 714.222 219.02 713.315 219.926C713.164 220.077 712.258 219.624 711.653 219.473C712.107 218.868 712.409 218.264 712.711 217.66Z" fill="#0085EB"/>
<path d="M647.287 207.688C646.531 210.861 645.776 213.882 645.02 217.055C642.301 215.998 640.487 213.882 641.394 210.861C642.301 207.99 644.567 207.083 647.287 207.688Z" fill="#33A7FF"/>
<path d="M647.438 207.688C647.589 207.386 647.74 207.235 647.892 206.933C647.892 207.084 647.892 207.235 647.892 207.235C647.74 207.386 647.438 207.537 647.438 207.688Z" fill="#33A7FF"/>
<path d="M644.718 455.482C643.811 456.238 643.207 458.504 641.696 456.993C640.789 456.087 642.3 455.029 643.358 454.273C643.811 454.576 644.265 455.029 644.718 455.482Z" fill="#005FA6"/>
<path d="M647.438 799.221C645.776 797.257 647.74 796.804 648.798 796.048C649.1 796.199 649.553 796.502 649.855 796.804C648.949 797.559 648.193 798.315 647.287 799.07L647.438 799.221Z" fill="#3B3C43"/>
<path d="M647.438 799.07C647.135 799.373 646.833 799.675 646.531 799.977C646.531 799.675 646.38 799.373 646.38 799.07C646.682 799.07 647.135 799.221 647.438 799.221V799.07Z" fill="#3B3C43"/>
<path d="M685.362 135.012C689.895 140.904 684.758 146.646 684.909 152.539C685.06 156.165 685.211 159.942 685.211 163.569C676.599 163.115 667.836 162.511 659.223 162.058C659.374 156.92 659.374 151.783 659.374 146.646C659.374 144.38 660.13 141.509 656.352 141.207C656.05 138.336 658.77 136.976 659.828 134.861C668.138 134.256 676.75 136.372 685.06 133.954C685.211 134.407 685.362 134.71 685.362 135.012Z" fill="#33A7FF"/>
<path d="M685.061 133.954C676.751 136.371 668.289 134.256 659.828 134.86C659.677 133.803 659.526 132.745 659.224 131.687C661.037 126.701 664.965 125.19 669.8 125.039C674.484 125.039 679.319 125.039 684.003 125.039C684.305 126.248 684.759 127.457 685.061 128.665C685.212 130.63 685.061 132.292 685.061 133.954Z" fill="#3B3C43"/>
<path d="M637.314 160.093C635.954 163.417 633.235 165.382 629.155 168.403C630.364 162.662 633.235 160.698 636.559 159.036C636.861 159.338 637.163 159.791 637.314 160.093Z" fill="#33A7FF"/>
<path d="M646.683 149.063C647.136 149.668 647.589 149.97 647.589 150.121C647.287 150.423 646.985 150.877 646.683 151.028C646.38 151.179 645.927 150.877 645.625 150.726C645.776 150.272 646.229 149.668 646.683 149.063Z" fill="#33A7FF"/>
<path d="M636.56 159.036C637.466 158.431 638.373 157.827 639.279 157.374C639.581 157.525 639.733 157.827 640.035 157.978C639.128 158.582 638.222 159.338 637.315 159.942C637.164 159.791 636.862 159.338 636.56 159.036Z" fill="#33A7FF"/>
<path d="M642.754 154.805C642.905 154.503 643.207 154.049 643.358 153.747C644.416 154.654 643.358 154.654 642.754 154.805Z" fill="#33A7FF"/>
<path d="M656.353 141.207C656.202 141.358 656.051 141.509 656.051 141.811C656.202 141.66 656.353 141.509 656.353 141.207Z" fill="#33A7FF"/>
<path d="M627.645 169.763C627.947 169.31 628.098 169.007 628.4 168.554C629.458 169.461 628.551 169.612 627.947 169.914C627.796 170.065 627.645 169.763 627.645 169.763Z" fill="#33A7FF"/>
<path d="M641.395 156.467C640.941 157.072 640.488 157.525 640.035 158.13C639.733 157.978 639.581 157.676 639.279 157.525C639.884 157.072 640.488 156.77 641.244 156.316L641.395 156.467Z" fill="#33A7FF"/>
<path d="M642.905 154.805C642.452 155.258 641.848 155.862 641.394 156.316L641.243 156.165C641.696 155.711 642.301 155.258 642.905 154.805Z" fill="#33A7FF"/>
<path d="M694.278 177.771C691.256 178.98 688.838 182.002 685.061 180.491C684.306 176.714 685.363 173.994 689.443 173.39C695.789 172.483 702.135 172.03 708.481 175.354C703.495 177.167 698.357 174.296 694.278 177.771Z" fill="#33A7FF"/>
<path d="M686.42 185.024C690.046 184.419 693.068 182.455 696.09 180.642C701.68 181.095 707.12 177.922 714.221 179.433C704.551 183.664 695.637 185.93 686.873 188.197C686.722 187.29 686.571 186.081 686.42 185.024Z" fill="#0085EB"/>
<path d="M686.722 119.298C685.211 117.938 684.909 116.125 685.362 114.311C694.881 116.125 704.4 116.427 713.768 112.649C716.336 112.498 718.754 112.347 720.265 115.067C712.257 118.844 703.191 116.125 694.881 118.542C692.161 119.298 689.442 119.146 686.722 119.298Z" fill="#0085EB"/>
<path d="M685.211 128.817C684.909 127.608 684.456 126.399 684.153 125.191C685.06 124.435 685.815 123.68 686.722 122.924C695.183 123.831 703.493 120.204 713.919 122.169C703.191 124.586 694.126 126.701 685.211 128.817Z" fill="#33A7FF"/>
<path d="M641.394 103.584C640.79 103.886 640.336 104.34 639.732 104.642C639.279 102.829 640.79 103.886 641.394 103.584Z" fill="#F1DAD2"/>
<path d="M628.853 915.715C624.773 914.053 622.205 911.182 619.787 905.894C625.075 908.311 627.795 911.182 629.457 915.11C629.306 915.261 629.155 915.412 628.853 915.715Z" fill="#33A7FF"/>
<path d="M622.357 943.063C621.299 947.596 618.428 950.92 614.953 954.093C615.558 949.409 618.126 945.632 621.601 942.308C621.752 942.61 622.055 942.761 622.357 943.063Z" fill="#0085EB"/>
<path d="M632.48 919.643C633.386 919.794 634.444 919.794 635.35 919.945C637.466 920.096 638.675 921.154 638.221 923.269C638.07 924.025 637.315 925.082 636.559 925.385C634.293 926.14 633.688 924.327 632.933 922.665C632.631 921.758 632.329 920.852 632.026 919.794L632.48 919.643Z" fill="#33A7FF"/>
<path d="M632.178 919.794C630.969 919.19 630.516 918.283 630.516 917.074L630.969 916.621C632.178 917.225 632.48 918.283 632.48 919.643L632.178 919.794Z" fill="#33A7FF"/>
<path d="M621.601 942.307C622.054 941.703 622.507 941.25 622.96 940.796C623.112 940.947 623.414 941.25 623.565 941.401C623.112 942.005 622.658 942.609 622.205 943.214C622.054 942.761 621.752 942.61 621.601 942.307Z" fill="#0085EB"/>
<path d="M624.774 939.436C624.321 940.04 624.019 940.645 623.565 941.249C623.414 941.098 623.112 940.796 622.961 940.645C623.263 939.889 623.716 939.285 624.774 939.436Z" fill="#0085EB"/>
<path d="M624.773 939.436C624.925 939.134 625.076 938.681 625.227 938.378C626.284 939.134 625.227 939.134 624.773 939.436Z" fill="#0085EB"/>
<path d="M630.516 917.075C629.911 916.621 629.458 916.168 628.854 915.715C629.005 915.564 629.307 915.261 629.458 915.11C629.911 915.715 630.364 916.168 630.818 916.772C630.818 916.621 630.516 917.075 630.516 917.075Z" fill="#33A7FF"/>
<path d="M630.364 874.164C634.595 864.796 631.27 856.486 625.831 848.327C633.084 850.745 631.27 860.112 638.523 861.623C638.372 862.53 638.372 863.588 637.919 864.343C635.652 867.969 633.386 871.445 630.968 875.071C630.817 874.618 630.666 874.315 630.364 874.164Z" fill="#33A7FF"/>
<path d="M629.76 876.43C629.004 881.869 624.925 885.344 622.507 889.877C621.752 883.833 625.076 879.603 629.004 875.674C629.307 875.977 629.458 876.279 629.76 876.43Z" fill="#33A7FF"/>
<path d="M631.119 874.92C630.666 875.524 630.213 875.977 629.759 876.582C629.457 876.279 629.306 876.128 629.004 875.826C629.457 875.222 629.91 874.768 630.364 874.164C630.666 874.315 630.817 874.617 631.119 874.92Z" fill="#33A7FF"/>
<path d="M618.881 976.454C623.414 977.965 626.738 980.685 630.062 985.973C623.565 984.311 620.996 980.685 618.881 976.454Z" fill="#0085EB"/>
<path d="M674.786 1119.39C674.031 1120.14 673.427 1119.99 672.822 1119.09C673.427 1119.24 674.031 1119.39 674.786 1119.39Z" fill="#003A66"/>
<path d="M700.471 968.446C700.018 968.899 699.565 969.201 699.263 969.655C698.658 968.144 699.414 967.993 700.471 968.446Z" fill="#005FA6"/>
</g>
<defs>
<clipPath id="clip0_3087_7637">
<rect width="1234.44" height="1381" fill="white"/>
</clipPath>
</defs>
</svg>
