<svg width="61" height="61" viewBox="0 0 61 61" fill="none" xmlns="http://www.w3.org/2000/svg">
<g id="Group 38">
<path id="Vector" d="M47.2027 13.8318V13.9318H47.3027H59.5789C59.7877 13.9318 59.9933 14.0015 60.1454 14.1367C60.2956 14.2702 60.3995 14.4727 60.3995 14.7525V60.1742V60.2742H60.4995H60.8065H60.9065V60.1742V14.7525C60.9065 14.4131 60.7378 14.082 60.4935 13.8378C60.2493 13.5936 59.9183 13.4249 59.5789 13.4249H47.3027H47.2027V13.5249V13.8318Z" fill="white" stroke="white" stroke-width="0.2"/>
<path id="Vector_2" d="M59.4251 18.4357C59.4251 17.9753 59.1181 17.5149 58.5043 17.5149H47.1489V17.2081H58.5043C59.1181 17.2081 59.7319 17.6684 59.7319 18.4357V60.1745H59.4251V18.4357Z" fill="white"/>
<path id="Vector_3" opacity="0.14" d="M48.6827 19.5095H58.3502V21.1975H47.4551L48.3758 19.8164C48.3758 19.6629 48.5293 19.5095 48.6827 19.5095Z" fill="white"/>
<path id="Vector_4" opacity="0.14" d="M58.6578 19.2024V21.5042C58.6578 21.6577 58.5043 21.8111 58.3509 21.8111H47.1489V21.5042H58.1974C58.3509 21.5042 58.5043 21.3508 58.5043 21.1973V19.5094C58.5043 19.3559 58.3509 19.2024 58.1974 19.2024H48.53C48.3765 19.2024 48.0696 19.3559 47.9162 19.5094L47.1489 20.5835V18.8956H58.3509C58.6578 18.8956 58.6578 19.049 58.6578 19.2024Z" fill="white"/>
<path id="Vector_5" d="M58.9647 19.2025V21.5043C58.9647 21.8112 58.6578 22.1181 58.3509 22.1181H47.1489V21.8112H58.3509C58.5043 21.8112 58.6578 21.6577 58.6578 21.5043V19.2025C58.6578 19.049 58.5043 18.8956 58.3509 18.8956H47.1489V18.5887H58.3509C58.8112 18.5887 58.9647 18.8956 58.9647 19.2025Z" fill="white"/>
<path id="Vector_6" d="M58.5037 23.1927C58.6732 23.1927 58.8106 23.0553 58.8106 22.8858C58.8106 22.7163 58.6732 22.5789 58.5037 22.5789C58.3342 22.5789 58.1968 22.7163 58.1968 22.8858C58.1968 23.0553 58.3342 23.1927 58.5037 23.1927Z" fill="white"/>
<path id="Vector_7" d="M58.5037 24.727C58.6732 24.727 58.8106 24.5895 58.8106 24.42C58.8106 24.2505 58.6732 24.1132 58.5037 24.1132C58.3342 24.1132 58.1968 24.2505 58.1968 24.42C58.1968 24.5895 58.3342 24.727 58.5037 24.727Z" fill="white"/>
<path id="Vector_8" d="M48.07 19.5098L47.3027 20.5839V21.3512H58.3512C58.5047 21.3512 58.6581 21.1977 58.6581 21.0443V19.3563C58.6581 19.2028 58.5047 19.0494 58.3512 19.0494H48.6838C48.3769 19.2028 48.2234 19.3563 48.07 19.5098Z" fill="white"/>
<path id="Vector_9" opacity="0.14" d="M58.6578 25.8011V28.1028C58.6578 28.2563 58.5043 28.4097 58.3509 28.4097H47.1489V28.1028H58.1974C58.3509 28.1028 58.5043 27.9494 58.5043 27.7959V26.1079C58.5043 25.9545 58.3509 25.8011 58.1974 25.8011H48.53C48.3765 25.8011 48.0696 25.9545 47.9162 26.1079L47.1489 27.1821V25.4941H58.3509C58.6578 25.4941 58.6578 25.6476 58.6578 25.8011Z" fill="white"/>
<path id="Vector_10" opacity="0.14" d="M48.6827 26.1077H58.3502V27.7957H47.4551L48.3758 26.4146C48.3758 26.2612 48.5293 26.1077 48.6827 26.1077Z" fill="white"/>
<path id="Vector_11" d="M58.9647 25.8011V28.1029C58.9647 28.4098 58.6578 28.7167 58.3509 28.7167H47.1489V28.4097H58.3509C58.5043 28.4097 58.6578 28.2563 58.6578 28.1029V25.8011C58.6578 25.6476 58.5043 25.4942 58.3509 25.4942H47.1489V25.1873H58.3509C58.8112 25.1873 58.9647 25.4942 58.9647 25.8011Z" fill="white"/>
<path id="Vector_12" d="M58.5037 29.9442C58.3502 29.9442 58.1968 29.7908 58.1968 29.6373C58.1968 29.4839 58.3502 29.3304 58.5037 29.3304C58.6572 29.3304 58.8106 29.4839 58.8106 29.6373C58.8106 29.7908 58.6572 29.9442 58.5037 29.9442Z" fill="white"/>
<path id="Vector_13" d="M58.5037 31.3252C58.6732 31.3252 58.8106 31.1878 58.8106 31.0183C58.8106 30.8488 58.6732 30.7114 58.5037 30.7114C58.3342 30.7114 58.1968 30.8488 58.1968 31.0183C58.1968 31.1878 58.3342 31.3252 58.5037 31.3252Z" fill="white"/>
<path id="Vector_14" d="M48.07 26.1083L47.3027 27.1825V27.9497H58.3512C58.5047 27.9497 58.6581 27.7963 58.6581 27.6428V25.9548C58.6581 25.8014 58.5047 25.6479 58.3512 25.6479H48.6838C48.3769 25.8014 48.2234 25.9548 48.07 26.1083Z" fill="white"/>
<path id="Vector_15" opacity="0.14" d="M48.6827 32.7063H58.3502V34.3942H47.4551L48.3758 33.0132C48.3758 32.8597 48.5293 32.7063 48.6827 32.7063Z" fill="white"/>
<path id="Vector_16" opacity="0.14" d="M58.6578 32.3998V34.7016C58.6578 34.855 58.5043 35.0085 58.3509 35.0085H47.1489V34.7016H58.1974C58.3509 34.7016 58.5043 34.5481 58.5043 34.3947V32.7067C58.5043 32.5533 58.3509 32.3998 58.1974 32.3998H48.53C48.3765 32.3998 48.0696 32.5533 47.9162 32.7067L47.1489 33.7809V32.0929H58.3509C58.6578 32.0929 58.6578 32.2464 58.6578 32.3998Z" fill="white"/>
<path id="Vector_17" d="M58.9647 32.3996V34.7014C58.9647 35.0083 58.6578 35.3152 58.3509 35.3152H47.1489V35.0083H58.3509C58.5043 35.0083 58.6578 34.8548 58.6578 34.7014V32.3996C58.6578 32.2462 58.5043 32.0927 58.3509 32.0927H47.1489V31.7858H58.3509C58.8112 31.7858 58.9647 32.0927 58.9647 32.3996Z" fill="white"/>
<path id="Vector_18" d="M58.5037 36.5428C58.3502 36.5428 58.1968 36.3893 58.1968 36.2359C58.1968 36.0824 58.3502 35.929 58.5037 35.929C58.6572 35.929 58.8106 36.0824 58.8106 36.2359C58.8106 36.3893 58.6572 36.5428 58.5037 36.5428Z" fill="white"/>
<path id="Vector_19" d="M58.5037 37.9237C58.3502 37.9237 58.1968 37.7703 58.1968 37.6168C58.1968 37.4634 58.3502 37.3099 58.5037 37.3099C58.6572 37.3099 58.8106 37.4634 58.8106 37.6168C58.8106 37.7703 58.6572 37.9237 58.5037 37.9237Z" fill="white"/>
<path id="Vector_20" d="M48.07 32.7062L47.3027 33.7803V34.5476H58.3512C58.5047 34.5476 58.6581 34.3941 58.6581 34.2407V32.5527C58.6581 32.3993 58.5047 32.2458 58.3512 32.2458H48.6838C48.3769 32.3992 48.2234 32.5527 48.07 32.7062Z" fill="white"/>
<path id="Vector_21" opacity="0.14" d="M58.6578 38.998V41.2997C58.6578 41.4532 58.5043 41.6067 58.3509 41.6067H47.1489V41.2997H58.1974C58.3509 41.2997 58.5043 41.1463 58.5043 40.9929V39.3049C58.5043 39.1514 58.3509 38.998 58.1974 38.998H48.53C48.3765 38.998 48.0696 39.1514 47.9162 39.3049L47.1489 40.3791V38.6911H58.3509C58.6578 38.6911 58.6578 38.8445 58.6578 38.998Z" fill="white"/>
<path id="Vector_22" opacity="0.14" d="M48.6827 39.3049H58.3502V40.9928H47.4551L48.3758 39.6118C48.3758 39.4583 48.5293 39.3049 48.6827 39.3049Z" fill="white"/>
<path id="Vector_23" d="M58.9647 38.9978V41.2996C58.9647 41.6065 58.6578 41.9134 58.3509 41.9134H47.1489V41.6065H58.3509C58.5043 41.6065 58.6578 41.4531 58.6578 41.2996V38.9978C58.6578 38.8444 58.5043 38.691 58.3509 38.691H47.1489V38.384H58.3509C58.8112 38.384 58.9647 38.6909 58.9647 38.9978Z" fill="white"/>
<path id="Vector_24" d="M58.5037 43.1413C58.6732 43.1413 58.8106 43.0039 58.8106 42.8344C58.8106 42.6649 58.6732 42.5275 58.5037 42.5275C58.3342 42.5275 58.1968 42.6649 58.1968 42.8344C58.1968 43.0039 58.3342 43.1413 58.5037 43.1413Z" fill="white"/>
<path id="Vector_25" d="M58.5037 44.5219C58.6732 44.5219 58.8106 44.3846 58.8106 44.2151C58.8106 44.0456 58.6732 43.9081 58.5037 43.9081C58.3342 43.9081 58.1968 44.0456 58.1968 44.2151C58.1968 44.3846 58.3342 44.5219 58.5037 44.5219Z" fill="white"/>
<path id="Vector_26" d="M48.07 39.4584L47.3027 40.5325V41.2998H58.3512C58.5047 41.2998 58.6581 41.1463 58.6581 40.9929V39.3049C58.6581 39.1515 58.5047 38.998 58.3512 38.998H48.6838C48.3769 39.1514 48.2234 39.1515 48.07 39.4584Z" fill="white"/>
<path id="Vector_27" opacity="0.14" d="M48.6827 45.9031H58.3502V47.5911H47.4551L48.3758 46.21C48.3758 46.0565 48.5293 45.9031 48.6827 45.9031Z" fill="white"/>
<path id="Vector_28" opacity="0.14" d="M58.6578 45.5964V47.8982C58.6578 48.0516 58.5043 48.205 58.3509 48.205H47.1489V47.8982H58.1974C58.3509 47.8982 58.5043 47.7447 58.5043 47.5912V45.9033C58.5043 45.7498 58.3509 45.5964 58.1974 45.5964H48.53C48.3765 45.5964 48.0696 45.7498 47.9162 45.9033L47.1489 46.9774V45.4429H58.3509C58.6578 45.4429 58.6578 45.4429 58.6578 45.5964Z" fill="white"/>
<path id="Vector_29" d="M58.9647 45.596V47.8978C58.9647 48.2047 58.6578 48.5116 58.3509 48.5116H47.1489V48.2047H58.3509C58.5043 48.2047 58.6578 48.0513 58.6578 47.8978V45.596C58.6578 45.4426 58.5043 45.2891 58.3509 45.2891H47.1489V44.9822H58.3509C58.8112 44.9822 58.9647 45.2891 58.9647 45.596Z" fill="white"/>
<path id="Vector_30" d="M58.5037 49.7392C58.3502 49.7392 58.1968 49.5857 58.1968 49.4323C58.1968 49.2788 58.3502 49.1254 58.5037 49.1254C58.6572 49.1254 58.8106 49.2788 58.8106 49.4323C58.8106 49.5857 58.6572 49.7392 58.5037 49.7392Z" fill="white"/>
<path id="Vector_31" d="M58.5037 51.1206C58.6732 51.1206 58.8106 50.9831 58.8106 50.8136C58.8106 50.6441 58.6732 50.5067 58.5037 50.5067C58.3342 50.5067 58.1968 50.6441 58.1968 50.8136C58.1968 50.9831 58.3342 51.1206 58.5037 51.1206Z" fill="white"/>
<path id="Vector_32" d="M48.07 46.0569L47.3027 47.1311V47.8983H58.3512C58.5047 47.8983 58.6581 47.7449 58.6581 47.5914V45.9034C58.6581 45.75 58.5047 45.5966 58.3512 45.5966H48.6838C48.3769 45.75 48.2234 45.75 48.07 46.0569Z" fill="white"/>
<path id="Vector_33" opacity="0.14" d="M48.6827 52.6549H58.3502V54.3428H47.4551L48.3758 52.9618C48.3758 52.6549 48.5293 52.6549 48.6827 52.6549Z" fill="white"/>
<path id="Vector_34" opacity="0.14" d="M58.6578 52.3484V54.6502C58.6578 54.8037 58.5043 54.9571 58.3509 54.9571H47.1489V54.6502H58.1974C58.3509 54.6502 58.5043 54.4967 58.5043 54.3433V52.6553C58.5043 52.5019 58.3509 52.3484 58.1974 52.3484H48.53C48.3765 52.3484 48.0696 52.5019 47.9162 52.6553L47.1489 53.7295V52.0415H58.3509C58.6578 52.0415 58.6578 52.0415 58.6578 52.3484Z" fill="white"/>
<path id="Vector_35" d="M58.9647 52.3484V54.6502C58.9647 54.9571 58.6578 55.264 58.3509 55.264H47.1489V54.9571H58.3509C58.5043 54.9571 58.6578 54.8036 58.6578 54.6502V52.3484C58.6578 52.195 58.5043 52.0415 58.3509 52.0415H47.1489V51.7346H58.3509C58.8112 51.7346 58.9647 51.8881 58.9647 52.3484Z" fill="white"/>
<path id="Vector_36" d="M58.5037 56.3377C58.3502 56.3377 58.1968 56.1843 58.1968 56.0308C58.1968 55.8774 58.3502 55.7239 58.5037 55.7239C58.6572 55.7239 58.8106 55.8774 58.8106 56.0308C58.8106 56.1843 58.6572 56.3377 58.5037 56.3377Z" fill="white"/>
<path id="Vector_37" d="M58.5037 57.7191C58.3502 57.7191 58.1968 57.5656 58.1968 57.4122C58.1968 57.2587 58.3502 57.1053 58.5037 57.1053C58.6572 57.1053 58.8106 57.2587 58.8106 57.4122C58.8106 57.5656 58.6572 57.7191 58.5037 57.7191Z" fill="white"/>
<path id="Vector_38" d="M48.07 52.6551L47.3027 53.7293V54.4965H58.3512C58.5047 54.4965 58.6581 54.3431 58.6581 54.1897V52.5017C58.6581 52.3482 58.5047 52.1948 58.3512 52.1948H48.6838C48.3769 52.3482 48.2234 52.5017 48.07 52.6551Z" fill="white"/>
<path id="Vector_39" opacity="0.14" d="M48.6834 59.2535H58.3508V60.1742H47.7627L48.223 59.4069C48.3765 59.2535 48.53 59.2535 48.6834 59.2535Z" fill="white"/>
<path id="Vector_40" opacity="0.14" d="M58.6578 58.9466V60.1742H58.5043V59.2535C58.5043 59.1001 58.3509 58.9466 58.1974 58.9466H48.53C48.3765 58.9466 48.0696 59.1001 47.9162 59.2535L47.3024 60.1742H47.1489V58.6397H58.3509C58.6578 58.6397 58.6578 58.7931 58.6578 58.9466Z" fill="white"/>
<path id="Vector_41" d="M58.9647 58.9466V60.1743H58.6578V58.9466C58.6578 58.7932 58.5043 58.6397 58.3509 58.6397H47.1489V58.3328H58.3509C58.8112 58.3328 58.9647 58.4863 58.9647 58.9466Z" fill="white"/>
<path id="Vector_42" d="M47.762 60.1742H47.4551L48.0689 59.2535C48.2224 59.1001 48.3758 58.9466 48.6827 58.9466H58.3502C58.5036 58.9466 58.6571 59.1001 58.6571 59.2535V60.1742H58.3502" fill="white"/>
<path id="Vector_43" d="M58.9636 14.7488H47.3013V14.4419H58.9636C59.4239 14.4419 59.7308 14.7488 59.7308 15.3626V16.1299C59.7308 16.5902 59.4239 17.0505 58.9636 17.0505H47.3013V16.7437H58.9636C59.2705 16.7437 59.5774 16.4368 59.5774 16.1299V15.3626C59.5774 15.0557 59.2705 14.7488 58.9636 14.7488Z" fill="white"/>
<path id="Vector_44" d="M23.8235 13.9318H23.9235V13.8318V13.5249V13.4249H23.8235H11.5474C11.208 13.4249 10.8769 13.5936 10.6327 13.8378C10.3885 14.082 10.2198 14.4131 10.2198 14.7525V60.1742V60.2742H10.3198H10.6267H10.7267V60.1742V14.7525C10.7267 14.4727 10.8306 14.2702 10.9809 14.1367C11.133 14.0015 11.3385 13.9318 11.5474 13.9318H23.8235Z" fill="white" stroke="white" stroke-width="0.2"/>
<path id="Vector_45" d="M11.5481 18.4357C11.5481 17.9753 11.855 17.5149 12.4688 17.5149H23.8242V17.2081H12.4688C11.855 17.2081 11.2412 17.6684 11.2412 18.4357V60.1745H11.5481V18.4357Z" fill="white"/>
<path id="Vector_46" opacity="0.14" d="M22.4423 19.5095H12.7749V21.1975H23.6699L22.7493 19.8164C22.7493 19.6629 22.5958 19.5095 22.4423 19.5095Z" fill="white"/>
<path id="Vector_47" opacity="0.14" d="M12.3149 19.2024V21.5042C12.3149 21.6577 12.4684 21.8111 12.6219 21.8111H23.8238V21.5042H12.7753C12.6219 21.5042 12.4684 21.3508 12.4684 21.1973V19.5094C12.4684 19.3559 12.6219 19.2024 12.7753 19.2024H22.4428C22.5962 19.2024 22.9031 19.3559 23.0566 19.5094L23.8238 20.5835V18.8956H12.6219C12.4684 18.8956 12.3149 19.049 12.3149 19.2024Z" fill="white"/>
<path id="Vector_48" d="M12.0073 19.2025V21.5043C12.0073 21.8112 12.3142 22.1181 12.6211 22.1181H23.8231V21.8112H12.6211C12.4677 21.8112 12.3142 21.6577 12.3142 21.5043V19.2025C12.3142 19.049 12.4677 18.8956 12.6211 18.8956H23.8231V18.5887H12.6211C12.3142 18.5887 12.0073 18.8956 12.0073 19.2025Z" fill="white"/>
<path id="Vector_49" d="M22.4416 19.2026H12.7742C12.6208 19.2026 12.4673 19.3561 12.4673 19.5096V21.1975C12.4673 21.351 12.6208 21.5044 12.7742 21.5044H23.8227V20.7372L23.0554 19.663C22.902 19.3561 22.7485 19.2026 22.4416 19.2026Z" fill="white"/>
<path id="Vector_50" opacity="0.14" d="M12.3149 25.8011V28.1028C12.3149 28.2563 12.4684 28.4097 12.6219 28.4097H23.8238V28.1028H12.7753C12.6219 28.1028 12.4684 27.9494 12.4684 27.7959V26.1079C12.4684 25.9545 12.6219 25.8011 12.7753 25.8011H22.4428C22.5962 25.8011 22.9031 25.9545 23.0566 26.1079L23.8238 27.1821V25.4941H12.6219C12.4684 25.4941 12.3149 25.6476 12.3149 25.8011Z" fill="white"/>
<path id="Vector_51" opacity="0.14" d="M22.4423 26.1077H12.7749V27.7957H23.6699L22.7493 26.4146C22.7493 26.2612 22.5958 26.1077 22.4423 26.1077Z" fill="white"/>
<path id="Vector_52" d="M12.0073 25.8011V28.1029C12.0073 28.4098 12.3142 28.7167 12.6211 28.7167H23.8231V28.4097H12.6211C12.4677 28.4097 12.3142 28.2563 12.3142 28.1029V25.8011C12.3142 25.6476 12.4677 25.4942 12.6211 25.4942H23.8231V25.1873H12.6211C12.3142 25.1873 12.0073 25.4942 12.0073 25.8011Z" fill="white"/>
<path id="Vector_53" d="M12.6219 29.9442C12.7753 29.9442 12.9287 29.7908 12.9287 29.6373C12.9287 29.4839 12.7753 29.3304 12.6219 29.3304C12.4684 29.3304 12.3149 29.4839 12.3149 29.6373C12.3149 29.7908 12.315 29.9442 12.6219 29.9442Z" fill="white"/>
<path id="Vector_54" d="M12.6219 31.3252C12.7753 31.3252 12.9287 31.1717 12.9287 31.0183C12.9287 30.8648 12.7753 30.7114 12.6219 30.7114C12.4684 30.7114 12.3149 30.8648 12.3149 31.0183C12.3149 31.1717 12.315 31.3252 12.6219 31.3252Z" fill="white"/>
<path id="Vector_55" d="M12.6219 23.3456C12.7753 23.3456 12.9287 23.1921 12.9287 23.0387C12.9287 22.8852 12.7753 22.7318 12.6219 22.7318C12.4684 22.7318 12.3149 22.8852 12.3149 23.0387C12.3149 23.1921 12.315 23.3456 12.6219 23.3456Z" fill="white"/>
<path id="Vector_56" d="M12.6219 24.727C12.7753 24.727 12.9287 24.5735 12.9287 24.42C12.9287 24.2666 12.7753 24.1132 12.6219 24.1132C12.4684 24.1132 12.3149 24.2666 12.3149 24.42C12.3149 24.5735 12.315 24.727 12.6219 24.727Z" fill="white"/>
<path id="Vector_57" d="M22.4416 25.8008H12.7742C12.6208 25.8008 12.4673 25.9543 12.4673 26.1077V27.7957C12.4673 27.9491 12.6208 28.1026 12.7742 28.1026H23.8227V27.3354L23.0554 26.2612C22.902 25.9543 22.7485 25.8008 22.4416 25.8008Z" fill="white"/>
<path id="Vector_58" opacity="0.14" d="M22.4423 32.7063H12.7749V34.3942H23.6699L22.7493 33.0132C22.7493 32.8597 22.5958 32.7063 22.4423 32.7063Z" fill="white"/>
<path id="Vector_59" opacity="0.14" d="M12.3149 32.3998V34.7016C12.3149 34.855 12.4684 35.0085 12.6219 35.0085H23.8238V34.7016H12.7753C12.6219 34.7016 12.4684 34.5481 12.4684 34.3947V32.7067C12.4684 32.5533 12.6219 32.3998 12.7753 32.3998H22.4428C22.5962 32.3998 22.9031 32.5533 23.0566 32.7067L23.8238 33.7809V32.0929H12.6219C12.4684 32.0929 12.3149 32.2464 12.3149 32.3998Z" fill="white"/>
<path id="Vector_60" d="M12.0073 32.3996V34.7014C12.0073 35.0083 12.3142 35.3152 12.6211 35.3152H23.8231V35.0083H12.6211C12.4677 35.0083 12.3142 34.8548 12.3142 34.7014V32.3996C12.3142 32.2462 12.4677 32.0927 12.6211 32.0927H23.8231V31.7858H12.6211C12.3142 31.7858 12.0073 32.0927 12.0073 32.3996Z" fill="white"/>
<path id="Vector_61" d="M12.6219 36.5428C12.7753 36.5428 12.9287 36.3893 12.9287 36.2359C12.9287 36.0824 12.7753 35.929 12.6219 35.929C12.4684 35.929 12.3149 36.0824 12.3149 36.2359C12.3149 36.3893 12.315 36.5428 12.6219 36.5428Z" fill="white"/>
<path id="Vector_62" d="M12.6219 37.9237C12.7753 37.9237 12.9287 37.7703 12.9287 37.6168C12.9287 37.4634 12.7753 37.3099 12.6219 37.3099C12.4684 37.3099 12.3149 37.4634 12.3149 37.6168C12.3149 37.7703 12.315 37.9237 12.6219 37.9237Z" fill="white"/>
<path id="Vector_63" d="M22.4416 32.3994H12.7742C12.6208 32.3994 12.4673 32.5529 12.4673 32.7063V34.3943C12.4673 34.5477 12.6208 34.7012 12.7742 34.7012H23.8227V33.9339L23.0554 32.8598C22.902 32.5528 22.7485 32.3994 22.4416 32.3994Z" fill="white"/>
<path id="Vector_64" opacity="0.14" d="M12.3149 38.998V41.2997C12.3149 41.4532 12.4684 41.6067 12.6219 41.6067H23.8238V41.2997H12.7753C12.6219 41.2997 12.4684 41.1463 12.4684 40.9929V39.3049C12.4684 39.1514 12.6219 38.998 12.7753 38.998H22.4428C22.5962 38.998 22.9031 39.1514 23.0566 39.3049L23.8238 40.3791V38.6911H12.6219C12.4684 38.6911 12.3149 38.8445 12.3149 38.998Z" fill="white"/>
<path id="Vector_65" opacity="0.14" d="M22.4423 39.3049H12.7749V40.9928H23.6699L22.7493 39.6118C22.7493 39.4583 22.5958 39.3049 22.4423 39.3049Z" fill="white"/>
<path id="Vector_66" d="M12.0073 38.9978V41.2996C12.0073 41.6065 12.3142 41.9134 12.6211 41.9134H23.8231V41.6065H12.6211C12.4677 41.6065 12.3142 41.4531 12.3142 41.2996V38.9978C12.3142 38.8444 12.4677 38.691 12.6211 38.691H23.8231V38.384H12.6211C12.3142 38.384 12.0073 38.6909 12.0073 38.9978Z" fill="white"/>
<path id="Vector_67" d="M12.6219 43.1413C12.7753 43.1413 12.9287 42.9879 12.9287 42.8344C12.9287 42.681 12.7753 42.5275 12.6219 42.5275C12.4684 42.5275 12.3149 42.681 12.3149 42.8344C12.3149 42.9879 12.315 43.1413 12.6219 43.1413Z" fill="white"/>
<path id="Vector_68" d="M12.6219 44.5219C12.7753 44.5219 12.9287 44.3685 12.9287 44.2151C12.9287 44.0616 12.7753 43.9081 12.6219 43.9081C12.4684 43.9081 12.3149 44.0616 12.3149 44.2151C12.3149 44.3685 12.315 44.5219 12.6219 44.5219Z" fill="white"/>
<path id="Vector_69" d="M22.4416 39.1512H12.7742C12.6208 39.1512 12.4673 39.3047 12.4673 39.4582V41.1461C12.4673 41.2996 12.6208 41.453 12.7742 41.453H23.8227V40.6858L23.0554 39.6116C22.902 39.1513 22.7485 39.1512 22.4416 39.1512Z" fill="white"/>
<path id="Vector_70" opacity="0.14" d="M22.4423 45.9031H12.7749V47.5911H23.6699L22.7493 46.21C22.7493 46.0565 22.5958 45.9031 22.4423 45.9031Z" fill="white"/>
<path id="Vector_71" opacity="0.14" d="M12.3149 45.5964V47.8982C12.3149 48.0516 12.4684 48.205 12.6219 48.205H23.8238V47.8982H12.7753C12.6219 47.8982 12.4684 47.7447 12.4684 47.5912V45.9033C12.4684 45.7498 12.6219 45.5964 12.7753 45.5964H22.4428C22.5962 45.5964 22.9031 45.7498 23.0566 45.9033L23.8238 46.9774V45.4429H12.6219C12.4684 45.4429 12.3149 45.4429 12.3149 45.5964Z" fill="white"/>
<path id="Vector_72" d="M12.0073 45.596V47.8978C12.0073 48.2047 12.3142 48.5116 12.6211 48.5116H23.8231V48.2047H12.6211C12.4677 48.2047 12.3142 48.0513 12.3142 47.8978V45.596C12.3142 45.4426 12.4677 45.2891 12.6211 45.2891H23.8231V44.9822H12.6211C12.3142 44.9822 12.0073 45.2891 12.0073 45.596Z" fill="white"/>
<path id="Vector_73" d="M12.6219 49.7392C12.7753 49.7392 12.9287 49.5857 12.9287 49.4323C12.9287 49.2788 12.7753 49.1254 12.6219 49.1254C12.4684 49.1254 12.3149 49.2788 12.3149 49.4323C12.3149 49.5857 12.315 49.7392 12.6219 49.7392Z" fill="white"/>
<path id="Vector_74" d="M12.6219 51.1206C12.7753 51.1206 12.9287 50.9671 12.9287 50.8136C12.9287 50.6602 12.7753 50.5067 12.6219 50.5067C12.4684 50.5067 12.3149 50.6602 12.3149 50.8136C12.3149 50.9671 12.315 51.1206 12.6219 51.1206Z" fill="white"/>
<path id="Vector_75" d="M22.4416 45.7498H12.7742C12.6208 45.7498 12.4673 45.9032 12.4673 46.0567V47.7447C12.4673 47.8981 12.6208 48.0516 12.7742 48.0516H23.8227V47.2843L23.0554 46.2102C22.902 45.7498 22.7485 45.7498 22.4416 45.7498Z" fill="white"/>
<path id="Vector_76" opacity="0.14" d="M22.4423 52.6549H12.7749V54.3428H23.6699L22.7493 52.9618C22.7493 52.6549 22.5958 52.6549 22.4423 52.6549Z" fill="white"/>
<path id="Vector_77" opacity="0.14" d="M12.3149 52.3484V54.6502C12.3149 54.8037 12.4684 54.9571 12.6219 54.9571H23.8238V54.6502H12.7753C12.6219 54.6502 12.4684 54.4967 12.4684 54.3433V52.6553C12.4684 52.5019 12.6219 52.3484 12.7753 52.3484H22.4428C22.5962 52.3484 22.9031 52.5019 23.0566 52.6553L23.8238 53.7295V52.0415H12.6219C12.4684 52.0415 12.3149 52.0415 12.3149 52.3484Z" fill="white"/>
<path id="Vector_78" d="M12.0073 52.3484V54.6502C12.0073 54.9571 12.3142 55.264 12.6211 55.264H23.8231V54.9571H12.6211C12.4677 54.9571 12.3142 54.8036 12.3142 54.6502V52.3484C12.3142 52.195 12.4677 52.0415 12.6211 52.0415H23.8231V51.7346H12.6211C12.3142 51.7346 12.0073 51.8881 12.0073 52.3484Z" fill="white"/>
<path id="Vector_79" d="M12.6219 56.3377C12.7753 56.3377 12.9287 56.1843 12.9287 56.0308C12.9287 55.8774 12.7753 55.7239 12.6219 55.7239C12.4684 55.7239 12.3149 55.8774 12.3149 56.0308C12.3149 56.1843 12.315 56.3377 12.6219 56.3377Z" fill="white"/>
<path id="Vector_80" d="M12.6219 57.7191C12.7753 57.7191 12.9287 57.5656 12.9287 57.4122C12.9287 57.2587 12.7753 57.1053 12.6219 57.1053C12.4684 57.1053 12.3149 57.2587 12.3149 57.4122C12.3149 57.5656 12.315 57.7191 12.6219 57.7191Z" fill="white"/>
<path id="Vector_81" d="M22.4416 52.348H12.7742C12.6208 52.348 12.4673 52.5015 12.4673 52.6549V54.3429C12.4673 54.4963 12.6208 54.6498 12.7742 54.6498H23.8227V53.8825L23.0554 52.8084C22.902 52.5015 22.7485 52.348 22.4416 52.348Z" fill="white"/>
<path id="Vector_82" opacity="0.14" d="M22.4423 59.2535H12.7749V60.1742H23.3631L22.9027 59.4069C22.7492 59.2535 22.5958 59.2535 22.4423 59.2535Z" fill="white"/>
<path id="Vector_83" opacity="0.14" d="M12.3149 58.9466V60.1742H12.4684V59.2535C12.4684 59.1001 12.6219 58.9466 12.7753 58.9466H22.4428C22.5962 58.9466 22.9031 59.1001 23.0566 59.2535L23.6703 60.1742H23.8238V58.6397H12.6219C12.4684 58.6397 12.3149 58.7931 12.3149 58.9466Z" fill="white"/>
<path id="Vector_84" d="M12.0073 58.9466V60.1743H12.3142V58.9466C12.3142 58.7932 12.4677 58.6397 12.6211 58.6397H23.8231V58.3328H12.6211C12.3142 58.3328 12.0073 58.4863 12.0073 58.9466Z" fill="white"/>
<path id="Vector_85" d="M23.3624 60.1742H23.6692L23.0554 59.2535C22.902 59.1001 22.7485 58.9466 22.4416 58.9466H12.7742C12.6208 58.9466 12.4673 59.1001 12.4673 59.2535V60.1742H12.7742" fill="white"/>
<path id="Vector_86" d="M12.0464 14.6184H23.3057V14.4419H12.0464C11.6019 14.4419 11.3057 14.6184 11.3057 14.9713V15.4125C11.3057 15.6772 11.6019 15.9419 12.0464 15.9419H23.3057V15.7654H12.0464C11.7501 15.7654 11.4538 15.589 11.4538 15.4125V14.9713C11.4538 14.7948 11.7501 14.6184 12.0464 14.6184Z" fill="white"/>
<path id="Vector_87" d="M6.79128 46.3635C6.63783 46.3635 6.48437 46.0566 6.63782 45.9031C6.79127 45.7497 6.79127 45.4428 6.63782 45.2894L6.48438 45.1359C6.33093 44.9824 6.02401 44.9824 5.87056 45.1359C5.71711 45.2893 5.4102 45.1359 5.4102 44.9825C5.4102 44.6756 5.25677 44.5221 4.94986 44.5221H4.7964C4.4895 44.5221 4.33604 44.6756 4.33604 44.9825C4.33604 45.1359 4.02914 45.2893 3.87568 45.1359C3.72223 44.9824 3.41534 44.9824 3.26189 45.1359L3.10843 45.2894C2.95497 45.4428 2.95497 45.7497 3.10843 45.9031C3.26188 46.0566 3.10844 46.3635 2.95499 46.3635C2.64809 46.3635 2.49463 46.517 2.49463 46.8239V46.9773C2.49463 47.2842 2.64809 47.4377 2.95499 47.4377C3.10844 47.4377 3.26188 47.7446 3.10843 47.898C2.95497 48.0515 2.95497 48.3584 3.10843 48.5118L3.26189 48.6653C3.41534 48.8188 3.72223 48.8188 3.87568 48.6653C4.02914 48.5119 4.33604 48.6653 4.33604 48.8188C4.33604 49.1257 4.4895 49.2791 4.7964 49.2791H4.94986C5.25677 49.2791 5.4102 49.1257 5.4102 48.8188C5.4102 48.6653 5.71711 48.5119 5.87056 48.6653C6.02401 48.8188 6.33093 48.8188 6.48438 48.6653L6.63782 48.5118C6.79127 48.3584 6.79127 48.0515 6.63782 47.898C6.48437 47.7446 6.63783 47.4377 6.79128 47.4377C7.09818 47.4377 7.25164 47.2842 7.25164 46.9773V46.8239C7.25164 46.517 7.09818 46.3635 6.79128 46.3635ZM4.7964 48.0515C4.1826 48.0515 3.56879 47.5911 3.56879 46.8239C3.56879 46.2101 4.02914 45.5963 4.7964 45.5963C5.56366 45.5963 6.02402 46.0566 6.02402 46.8239C6.02402 47.4377 5.56366 48.0515 4.7964 48.0515Z" fill="white" stroke="white" stroke-width="0.0760693" stroke-miterlimit="10"/>
<path id="Vector_88" d="M24.7446 60.5744H45.9209C46.7556 60.5744 47.3951 59.9349 47.3951 59.1002V8.61465C47.3951 7.77993 46.7556 7.14047 45.9209 7.14047H24.7446C23.9099 7.14047 23.2704 7.77993 23.2704 8.61465V59.1002C23.2704 59.9349 23.9099 60.5744 24.7446 60.5744Z" stroke="white" stroke-width="0.8" stroke-miterlimit="10"/>
<path id="Vector_89" opacity="0.5" d="M44.9997 15.5198H25.8183C25.5114 15.5198 25.3579 15.3664 25.3579 15.0595V12.9111C25.3579 12.6042 25.5114 12.4508 25.8183 12.4508H44.9997C45.3066 12.4508 45.4601 12.6042 45.4601 12.9111V15.0595C45.4601 15.3664 45.3066 15.5198 44.9997 15.5198Z" stroke="white" stroke-width="0.2073" stroke-miterlimit="10"/>
<path id="Vector_90" d="M25.8186 16.9007C25.9881 16.9007 26.1255 16.7633 26.1255 16.5938C26.1255 16.4243 25.9881 16.2869 25.8186 16.2869C25.6491 16.2869 25.5117 16.4243 25.5117 16.5938C25.5117 16.7633 25.6491 16.9007 25.8186 16.9007Z" fill="white"/>
<path id="Vector_91" d="M25.8186 18.2816C25.9881 18.2816 26.1255 18.1443 26.1255 17.9748C26.1255 17.8053 25.9881 17.6678 25.8186 17.6678C25.6491 17.6678 25.5117 17.8053 25.5117 17.9748C25.5117 18.1443 25.6491 18.2816 25.8186 18.2816Z" fill="white"/>
<path id="Vector_92" d="M45.46 16.5938C45.46 16.7472 45.3065 16.9007 45.1531 16.9007C44.9996 16.9007 44.8462 16.7472 44.8462 16.5938C44.8462 16.4403 44.9996 16.2869 45.1531 16.2869C45.3065 16.2869 45.46 16.4403 45.46 16.5938Z" fill="white"/>
<path id="Vector_93" d="M38.2478 14.2924C38.4173 14.2924 38.5547 14.1549 38.5547 13.9854C38.5547 13.816 38.4173 13.6785 38.2478 13.6785C38.0783 13.6785 37.9409 13.816 37.9409 13.9854C37.9409 14.1549 38.0783 14.2924 38.2478 14.2924Z" fill="white"/>
<path id="Vector_94" d="M45.46 17.9748C45.46 18.1282 45.3065 18.2816 45.1531 18.2816C44.9996 18.2816 44.8462 18.1282 44.8462 17.9748C44.8462 17.8213 44.9996 17.6678 45.1531 17.6678C45.3065 17.6678 45.46 17.8213 45.46 17.9748Z" fill="white"/>
<path id="Vector_95" d="M37.0213 14.906H25.9728C25.9728 14.906 25.8193 14.906 25.8193 14.7526V13.218C25.8193 13.218 25.8193 13.0646 25.9728 13.0646H35.6402C35.7937 13.0646 35.9471 13.218 36.1006 13.3715L37.0213 14.7526C37.1747 14.7526 37.1747 14.906 37.0213 14.906Z" fill="white"/>
<path id="Vector_96" d="M39.4757 15.0595C39.3223 15.0595 39.3223 15.0595 39.3223 14.906V13.218C39.3223 13.0646 39.3223 13.0646 39.4757 13.0646C39.6292 13.0646 39.6292 13.0646 39.6292 13.218L39.4757 15.0595C39.6292 15.0595 39.6292 15.0595 39.4757 15.0595Z" fill="white"/>
<path id="Vector_97" d="M40.2418 15.0595C40.0884 15.0595 40.0884 15.0595 40.0884 14.906V13.218C40.0884 13.0646 40.0884 13.0646 40.2418 13.0646C40.3953 13.0646 40.3953 13.0646 40.3953 13.218L40.2418 15.0595C40.3953 15.0595 40.3953 15.0595 40.2418 15.0595Z" fill="white"/>
<path id="Vector_98" d="M41.0109 15.0595C40.8574 15.0595 40.8574 15.0595 40.8574 14.906V13.218C40.8574 13.0646 40.8574 13.0646 41.0109 13.0646C41.1643 13.0646 41.1643 13.0646 41.1643 13.218L41.0109 15.0595C41.1643 15.0595 41.1643 15.0595 41.0109 15.0595Z" fill="white"/>
<path id="Vector_99" d="M41.9308 15.0595C41.7774 15.0595 41.7773 15.0595 41.7773 14.906V13.218C41.7773 13.0646 41.7774 13.0646 41.9308 13.0646C42.0843 13.0646 42.0842 13.0646 42.0842 13.218L41.9308 15.0595Z" fill="white"/>
<path id="Vector_100" d="M42.6984 15.0595C42.5449 15.0595 42.5449 15.0595 42.5449 14.906V13.218C42.5449 13.0646 42.5449 13.0646 42.6984 13.0646C42.8518 13.0646 42.8518 13.0646 42.8518 13.218L42.6984 15.0595Z" fill="white"/>
<path id="Vector_101" d="M43.4645 15.0595C43.311 15.0595 43.311 15.0595 43.311 14.906V13.218C43.311 13.0646 43.311 13.0646 43.4645 13.0646C43.6179 13.0646 43.6179 13.0646 43.6179 13.218L43.4645 15.0595Z" fill="white"/>
<path id="Vector_102" opacity="0.5" d="M44.9997 22.118H25.8183C25.5114 22.118 25.3579 21.9646 25.3579 21.6577V19.3559C25.3579 19.049 25.5114 18.8956 25.8183 18.8956H44.9997C45.3066 18.8956 45.4601 19.049 45.4601 19.3559V21.5042C45.4601 21.8111 45.3066 22.118 44.9997 22.118Z" stroke="white" stroke-width="0.2073" stroke-miterlimit="10"/>
<path id="Vector_103" d="M25.8186 23.3456C25.9881 23.3456 26.1255 23.2082 26.1255 23.0387C26.1255 22.8692 25.9881 22.7318 25.8186 22.7318C25.6491 22.7318 25.5117 22.8692 25.5117 23.0387C25.5117 23.2082 25.6491 23.3456 25.8186 23.3456Z" fill="white"/>
<path id="Vector_104" d="M25.8186 24.727C25.9881 24.727 26.1255 24.5895 26.1255 24.42C26.1255 24.2505 25.9881 24.1132 25.8186 24.1132C25.6491 24.1132 25.5117 24.2505 25.5117 24.42C25.5117 24.5895 25.6491 24.727 25.8186 24.727Z" fill="white"/>
<path id="Vector_105" d="M45.46 23.0387C45.46 23.1921 45.3065 23.3456 45.1531 23.3456C44.9996 23.3456 44.8462 23.1921 44.8462 23.0387C44.8462 22.8852 44.9996 22.7318 45.1531 22.7318C45.3065 22.7318 45.46 22.8852 45.46 23.0387Z" fill="white"/>
<path id="Vector_106" d="M38.2478 20.8909C38.4173 20.8909 38.5547 20.7535 38.5547 20.584C38.5547 20.4145 38.4173 20.2771 38.2478 20.2771C38.0783 20.2771 37.9409 20.4145 37.9409 20.584C37.9409 20.7535 38.0783 20.8909 38.2478 20.8909Z" fill="white"/>
<path id="Vector_107" d="M45.46 24.42C45.46 24.5735 45.3065 24.727 45.1531 24.727C44.9996 24.727 44.8462 24.5735 44.8462 24.42C44.8462 24.2666 44.9996 24.1132 45.1531 24.1132C45.3065 24.1132 45.46 24.2666 45.46 24.42Z" fill="white"/>
<path id="Vector_108" d="M37.0213 21.5042H25.9728C25.9728 21.5042 25.8193 21.5042 25.8193 21.3507V19.8162C25.8193 19.8162 25.8193 19.6628 25.9728 19.6628H35.6402C35.7937 19.6628 35.9471 19.8162 36.1006 19.9697L37.0213 21.3507C37.1747 21.3507 37.1747 21.5042 37.0213 21.5042Z" fill="white"/>
<path id="Vector_109" d="M39.4757 21.5046C39.3223 21.5046 39.3223 21.5046 39.3223 21.3511V19.5097C39.3223 19.3563 39.3223 19.3563 39.4757 19.3563C39.6292 19.3563 39.6292 19.3563 39.6292 19.5097L39.4757 21.5046C39.6292 21.5046 39.6292 21.5046 39.4757 21.5046Z" fill="white"/>
<path id="Vector_110" d="M40.2418 21.5046C40.0884 21.5046 40.0884 21.5046 40.0884 21.3511V19.5097C40.0884 19.3563 40.0884 19.3563 40.2418 19.3563C40.3953 19.3563 40.3953 19.3563 40.3953 19.5097L40.2418 21.5046C40.3953 21.5046 40.3953 21.5046 40.2418 21.5046Z" fill="white"/>
<path id="Vector_111" d="M41.0109 21.5046C40.8574 21.5046 40.8574 21.5046 40.8574 21.3511V19.5097C40.8574 19.3563 40.8574 19.3563 41.0109 19.3563C41.1643 19.3563 41.1643 19.3563 41.1643 19.5097L41.0109 21.5046C41.1643 21.5046 41.1643 21.5046 41.0109 21.5046Z" fill="white"/>
<path id="Vector_112" d="M41.9308 21.5046C41.7774 21.5046 41.7773 21.5046 41.7773 21.3511V19.5097C41.7773 19.3563 41.7774 19.3563 41.9308 19.3563C42.0843 19.3563 42.0842 19.3563 42.0842 19.5097L41.9308 21.5046Z" fill="white"/>
<path id="Vector_113" d="M42.6984 21.5046C42.5449 21.5046 42.5449 21.5046 42.5449 21.3511V19.5097C42.5449 19.3563 42.5449 19.3563 42.6984 19.3563C42.8518 19.3563 42.8518 19.3563 42.8518 19.5097L42.6984 21.5046Z" fill="white"/>
<path id="Vector_114" d="M43.4645 21.5046C43.311 21.5046 43.311 21.5046 43.311 21.3511V19.5097C43.311 19.3563 43.311 19.3563 43.4645 19.3563C43.6179 19.3563 43.6179 19.3563 43.6179 19.5097L43.4645 21.5046Z" fill="white"/>
<path id="Vector_115" opacity="0.5" d="M44.9997 28.5632H25.8183C25.5114 28.5632 25.3579 28.4097 25.3579 28.1028V25.9545C25.3579 25.6476 25.5114 25.4941 25.8183 25.4941H44.9997C45.3066 25.4941 45.4601 25.6476 45.4601 25.9545V28.1028C45.4601 28.4097 45.3066 28.5632 44.9997 28.5632Z" stroke="white" stroke-width="0.2073" stroke-miterlimit="10"/>
<path id="Vector_116" d="M26.1255 29.4837C26.1255 29.6371 25.9721 29.7906 25.8186 29.7906C25.6652 29.7906 25.5117 29.6371 25.5117 29.4837C25.5117 29.3302 25.6652 29.1768 25.8186 29.1768C25.9721 29.1768 26.1255 29.3302 26.1255 29.4837Z" fill="white"/>
<path id="Vector_117" d="M26.1255 31.0186C26.1255 31.1721 25.9721 31.3255 25.8186 31.3255C25.6652 31.3255 25.5117 31.1721 25.5117 31.0186C25.5117 30.8652 25.6652 30.7117 25.8186 30.7117C25.9721 30.5582 26.1255 30.7117 26.1255 31.0186Z" fill="white"/>
<path id="Vector_118" d="M45.46 29.4837C45.46 29.6371 45.3065 29.7906 45.1531 29.7906C44.9996 29.7906 44.8462 29.6371 44.8462 29.4837C44.8462 29.3302 44.9996 29.1768 45.1531 29.1768C45.3065 29.1768 45.46 29.3302 45.46 29.4837Z" fill="white"/>
<path id="Vector_119" d="M38.5547 27.029C38.5547 27.1824 38.4012 27.3359 38.2478 27.3359C38.0943 27.3359 37.9409 27.1824 37.9409 27.029C37.9409 26.8755 38.0943 26.722 38.2478 26.722C38.4012 26.722 38.5547 26.8755 38.5547 27.029Z" fill="white"/>
<path id="Vector_120" d="M45.46 31.0186C45.46 31.1721 45.3065 31.3255 45.1531 31.3255C44.9996 31.3255 44.8462 31.1721 44.8462 31.0186C44.8462 30.8652 44.9996 30.7117 45.1531 30.7117C45.3065 30.5582 45.46 30.7117 45.46 31.0186Z" fill="white"/>
<path id="Vector_121" d="M37.0213 27.9492H25.9728C25.9728 27.9492 25.8193 27.9492 25.8193 27.7957V26.2612C25.8193 26.2612 25.8193 26.1077 25.9728 26.1077H35.6402C35.7937 26.1077 35.9471 26.2612 36.1006 26.4146L37.0213 27.7957C37.1747 27.7957 37.1747 27.9492 37.0213 27.9492Z" fill="white"/>
<path id="Vector_122" d="M39.4757 28.1028C39.3223 28.1028 39.3223 28.1028 39.3223 27.9494V26.1079C39.3223 25.9545 39.3223 25.9545 39.4757 25.9545C39.6292 25.9545 39.6292 25.9545 39.6292 26.1079L39.4757 28.1028C39.6292 28.1028 39.6292 27.9494 39.4757 28.1028Z" fill="white"/>
<path id="Vector_123" d="M40.2418 28.1028C40.0884 28.1028 40.0884 28.1028 40.0884 27.9494V26.1079C40.0884 25.9545 40.0884 25.9545 40.2418 25.9545C40.3953 25.9545 40.3953 25.9545 40.3953 26.1079L40.2418 28.1028C40.3953 28.1028 40.3953 27.9494 40.2418 28.1028Z" fill="white"/>
<path id="Vector_124" d="M41.0109 28.1028C40.8574 28.1028 40.8574 28.1028 40.8574 27.9494V26.1079C40.8574 25.9545 40.8574 25.9545 41.0109 25.9545C41.1643 25.9545 41.1643 25.9545 41.1643 26.1079L41.0109 28.1028C41.1643 28.1028 41.1643 27.9494 41.0109 28.1028Z" fill="white"/>
<path id="Vector_125" d="M41.9308 28.1028C41.7774 28.1028 41.7773 28.1028 41.7773 27.9494V26.1079C41.7773 25.9545 41.7774 25.9545 41.9308 25.9545C42.0843 25.9545 42.0842 25.9545 42.0842 26.1079L41.9308 28.1028Z" fill="white"/>
<path id="Vector_126" d="M42.6984 28.1028C42.5449 28.1028 42.5449 28.1028 42.5449 27.9494V26.1079C42.5449 25.9545 42.5449 25.9545 42.6984 25.9545C42.8518 25.9545 42.8518 25.9545 42.8518 26.1079L42.6984 28.1028Z" fill="white"/>
<path id="Vector_127" d="M43.4645 28.1028C43.311 28.1028 43.311 28.1028 43.311 27.9494V26.1079C43.311 25.9545 43.311 25.9545 43.4645 25.9545C43.6179 25.9545 43.6179 25.9545 43.6179 26.1079L43.4645 28.1028Z" fill="white"/>
<path id="Vector_128" opacity="0.5" d="M44.9997 35.0081H25.8183C25.5114 35.0081 25.3579 34.8546 25.3579 34.5477V32.3994C25.3579 32.0925 25.5114 31.9391 25.8183 31.9391H44.9997C45.3066 31.9391 45.4601 32.0925 45.4601 32.3994V34.5477C45.4601 34.8546 45.3066 35.0081 44.9997 35.0081Z" stroke="white" stroke-width="0.2073" stroke-miterlimit="10"/>
<path id="Vector_129" d="M25.8186 36.3891C25.9881 36.3891 26.1255 36.2517 26.1255 36.0822C26.1255 35.9127 25.9881 35.7753 25.8186 35.7753C25.6491 35.7753 25.5117 35.9127 25.5117 36.0822C25.5117 36.2517 25.6491 36.3891 25.8186 36.3891Z" fill="white"/>
<path id="Vector_130" d="M25.8186 37.7705C25.9881 37.7705 26.1255 37.6331 26.1255 37.4636C26.1255 37.2941 25.9881 37.1567 25.8186 37.1567C25.6491 37.1567 25.5117 37.2941 25.5117 37.4636C25.5117 37.6331 25.6491 37.7705 25.8186 37.7705Z" fill="white"/>
<path id="Vector_131" d="M45.46 36.082C45.46 36.2354 45.3065 36.3889 45.1531 36.3889C44.9996 36.3889 44.8462 36.2354 44.8462 36.082C44.8462 35.9285 44.9996 35.7751 45.1531 35.7751C45.3065 35.6217 45.46 35.7751 45.46 36.082Z" fill="white"/>
<path id="Vector_132" d="M38.2478 33.7806C38.4173 33.7806 38.5547 33.6432 38.5547 33.4737C38.5547 33.3042 38.4173 33.1668 38.2478 33.1668C38.0783 33.1668 37.9409 33.3042 37.9409 33.4737C37.9409 33.6432 38.0783 33.7806 38.2478 33.7806Z" fill="white"/>
<path id="Vector_133" d="M45.46 37.4633C45.46 37.6168 45.3065 37.7703 45.1531 37.7703C44.9996 37.7703 44.8462 37.6168 44.8462 37.4633C44.8462 37.3099 44.9996 37.1565 45.1531 37.1565C45.3065 37.003 45.46 37.1564 45.46 37.4633Z" fill="white"/>
<path id="Vector_134" d="M37.0213 34.3944H25.9728C25.9728 34.3944 25.8193 34.3945 25.8193 34.241V32.7065C25.8193 32.7065 25.8193 32.553 25.9728 32.553H35.6402C35.7937 32.553 35.9471 32.7065 36.1006 32.8599L37.0213 34.241C37.1747 34.241 37.1747 34.3944 37.0213 34.3944Z" fill="white"/>
<path id="Vector_135" d="M39.4757 34.5477C39.3223 34.5477 39.3223 34.5477 39.3223 34.3943V32.5529C39.3223 32.3994 39.3223 32.3994 39.4757 32.3994C39.6292 32.3994 39.6292 32.3994 39.6292 32.5529L39.4757 34.5477C39.6292 34.5477 39.6292 34.5477 39.4757 34.5477Z" fill="white"/>
<path id="Vector_136" d="M40.2418 34.5477C40.0884 34.5477 40.0884 34.5477 40.0884 34.3943V32.5529C40.0884 32.3994 40.0884 32.3994 40.2418 32.3994C40.3953 32.3994 40.3953 32.3994 40.3953 32.5529L40.2418 34.5477C40.3953 34.5477 40.3953 34.5477 40.2418 34.5477Z" fill="white"/>
<path id="Vector_137" d="M41.0109 34.5477C40.8574 34.5477 40.8574 34.5477 40.8574 34.3943V32.5529C40.8574 32.3994 40.8574 32.3994 41.0109 32.3994C41.1643 32.3994 41.1643 32.3994 41.1643 32.5529L41.0109 34.5477C41.1643 34.5477 41.1643 34.5477 41.0109 34.5477Z" fill="white"/>
<path id="Vector_138" d="M41.9308 34.5477C41.7774 34.5477 41.7773 34.5477 41.7773 34.3943V32.5529C41.7773 32.3994 41.7774 32.3994 41.9308 32.3994C42.0843 32.3994 42.0842 32.3994 42.0842 32.5529L41.9308 34.5477Z" fill="white"/>
<path id="Vector_139" d="M42.6984 34.5477C42.5449 34.5477 42.5449 34.5477 42.5449 34.3943V32.5529C42.5449 32.3994 42.5449 32.3994 42.6984 32.3994C42.8518 32.3994 42.8518 32.3994 42.8518 32.5529L42.6984 34.5477Z" fill="white"/>
<path id="Vector_140" d="M43.4645 34.5477C43.311 34.5477 43.311 34.5477 43.311 34.3943V32.5529C43.311 32.3994 43.311 32.3994 43.4645 32.3994C43.6179 32.3994 43.6179 32.3994 43.6179 32.5529L43.4645 34.5477Z" fill="white"/>
<path id="Vector_141" opacity="0.5" d="M44.9997 41.4531H25.8183C25.5114 41.4531 25.3579 41.2996 25.3579 40.9927V38.8444C25.3579 38.5375 25.5114 38.384 25.8183 38.384H44.9997C45.3066 38.384 45.4601 38.5375 45.4601 38.8444V40.9927C45.4601 41.2996 45.3066 41.4531 44.9997 41.4531Z" stroke="white" stroke-width="0.2073" stroke-miterlimit="10"/>
<path id="Vector_142" d="M25.8186 42.8341C25.9881 42.8341 26.1255 42.6967 26.1255 42.5272C26.1255 42.3577 25.9881 42.2203 25.8186 42.2203C25.6491 42.2203 25.5117 42.3577 25.5117 42.5272C25.5117 42.6967 25.6491 42.8341 25.8186 42.8341Z" fill="white"/>
<path id="Vector_143" d="M25.8186 44.2155C25.9881 44.2155 26.1255 44.078 26.1255 43.9085C26.1255 43.739 25.9881 43.6016 25.8186 43.6016C25.6491 43.6016 25.5117 43.739 25.5117 43.9085C25.5117 44.078 25.6491 44.2155 25.8186 44.2155Z" fill="white"/>
<path id="Vector_144" d="M45.46 42.5272C45.46 42.6806 45.3065 42.8341 45.1531 42.8341C44.9996 42.8341 44.8462 42.6806 44.8462 42.5272C44.8462 42.3737 44.9996 42.2203 45.1531 42.2203C45.3065 42.2203 45.46 42.3737 45.46 42.5272Z" fill="white"/>
<path id="Vector_145" d="M38.2478 40.379C38.4173 40.379 38.5547 40.2416 38.5547 40.0721C38.5547 39.9026 38.4173 39.7652 38.2478 39.7652C38.0783 39.7652 37.9409 39.9026 37.9409 40.0721C37.9409 40.2416 38.0783 40.379 38.2478 40.379Z" fill="white"/>
<path id="Vector_146" d="M45.46 43.9085C45.46 44.062 45.3065 44.2155 45.1531 44.2155C44.9996 44.2155 44.8462 44.062 44.8462 43.9085C44.8462 43.7551 44.9996 43.6016 45.1531 43.6016C45.3065 43.6016 45.46 43.7551 45.46 43.9085Z" fill="white"/>
<path id="Vector_147" d="M37.0213 40.8394H25.9728C25.9728 40.8394 25.8193 40.8394 25.8193 40.686V39.1514C25.8193 39.1514 25.8193 38.998 25.9728 38.998H35.6402C35.7937 38.998 35.9471 39.1515 36.1006 39.3049L37.0213 40.686C37.1747 40.8394 37.1747 40.8394 37.0213 40.8394Z" fill="white"/>
<path id="Vector_148" d="M39.4757 40.9927C39.3223 40.9927 39.3223 40.9927 39.3223 40.8392V38.9978C39.3223 38.8443 39.3223 38.8444 39.4757 38.8444C39.6292 38.8444 39.6292 38.8443 39.6292 38.9978L39.4757 40.9927C39.6292 40.9927 39.6292 40.9927 39.4757 40.9927Z" fill="white"/>
<path id="Vector_149" d="M40.2418 40.9927C40.0884 40.9927 40.0884 40.9927 40.0884 40.8392V38.9978C40.0884 38.8443 40.0884 38.8444 40.2418 38.8444C40.3953 38.8444 40.3953 38.8443 40.3953 38.9978L40.2418 40.9927C40.3953 40.9927 40.3953 40.9927 40.2418 40.9927Z" fill="white"/>
<path id="Vector_150" d="M41.0109 40.9927C40.8574 40.9927 40.8574 40.9927 40.8574 40.8392V38.9978C40.8574 38.8443 40.8574 38.8444 41.0109 38.8444C41.1643 38.8444 41.1643 38.8443 41.1643 38.9978L41.0109 40.9927C41.1643 40.9927 41.1643 40.9927 41.0109 40.9927Z" fill="white"/>
<path id="Vector_151" d="M41.9308 40.9927C41.7774 40.9927 41.7773 40.9927 41.7773 40.8392V38.9978C41.7773 38.8443 41.7774 38.8444 41.9308 38.8444C42.0843 38.8444 42.0842 38.8443 42.0842 38.9978L41.9308 40.9927Z" fill="white"/>
<path id="Vector_152" d="M42.6984 40.9927C42.5449 40.9927 42.5449 40.9927 42.5449 40.8392V38.9978C42.5449 38.8443 42.5449 38.8444 42.6984 38.8444C42.8518 38.8444 42.8518 38.8443 42.8518 38.9978L42.6984 40.9927Z" fill="white"/>
<path id="Vector_153" d="M43.4645 40.9927C43.311 40.9927 43.311 40.9927 43.311 40.8392V38.9978C43.311 38.8443 43.311 38.8444 43.4645 38.8444C43.6179 38.8444 43.6179 38.8443 43.6179 38.9978L43.4645 40.9927Z" fill="white"/>
<path id="Vector_154" opacity="0.5" d="M44.9997 48.0513H25.8183C25.5114 48.0513 25.3579 47.8978 25.3579 47.5909V45.4426C25.3579 45.1357 25.5114 44.9822 25.8183 44.9822H44.9997C45.3066 44.9822 45.4601 45.1357 45.4601 45.4426V47.5909C45.4601 47.7443 45.3066 48.0513 44.9997 48.0513Z" stroke="white" stroke-width="0.2073" stroke-miterlimit="10"/>
<path id="Vector_155" d="M26.1255 48.9725C26.1255 49.1259 25.9721 49.2794 25.8186 49.2794C25.6652 49.2794 25.5117 49.1259 25.5117 48.9725C25.5117 48.819 25.6652 48.6656 25.8186 48.6656C25.9721 48.6656 26.1255 48.819 26.1255 48.9725Z" fill="white"/>
<path id="Vector_156" d="M26.1255 50.3535C26.1255 50.5069 25.9721 50.6604 25.8186 50.6604C25.6652 50.6604 25.5117 50.5069 25.5117 50.3535C25.5117 50.2 25.6652 50.0466 25.8186 50.0466C25.9721 50.0466 26.1255 50.2 26.1255 50.3535Z" fill="white"/>
<path id="Vector_157" d="M45.46 48.9725C45.46 49.1259 45.3065 49.2794 45.1531 49.2794C44.9996 49.2794 44.8462 49.1259 44.8462 48.9725C44.8462 48.819 44.9996 48.6656 45.1531 48.6656C45.3065 48.6656 45.46 48.819 45.46 48.9725Z" fill="white"/>
<path id="Vector_158" d="M38.5547 46.5168C38.5547 46.6703 38.4012 46.8237 38.2478 46.8237C38.0943 46.8237 37.9409 46.6703 37.9409 46.5168C37.9409 46.3634 38.0943 46.2099 38.2478 46.2099C38.4012 46.0565 38.5547 46.2099 38.5547 46.5168Z" fill="white"/>
<path id="Vector_159" d="M45.46 50.3535C45.46 50.5069 45.3065 50.6604 45.1531 50.6604C44.9996 50.6604 44.8462 50.5069 44.8462 50.3535C44.8462 50.2 44.9996 50.0466 45.1531 50.0466C45.3065 50.0466 45.46 50.2 45.46 50.3535Z" fill="white"/>
<path id="Vector_160" d="M37.0213 47.4379H25.9728C25.9728 47.4379 25.8193 47.438 25.8193 47.2845V45.75C25.8193 45.75 25.8193 45.5966 25.9728 45.5966H35.6402C35.7937 45.5966 35.9471 45.75 36.1006 45.9034L37.0213 47.2845C37.1747 47.2845 37.1747 47.4379 37.0213 47.4379Z" fill="white"/>
<path id="Vector_161" d="M39.4757 47.5912C39.3223 47.5912 39.3223 47.5912 39.3223 47.4378V45.5964C39.3223 45.4429 39.3223 45.4429 39.4757 45.4429C39.6292 45.4429 39.6292 45.4429 39.6292 45.5964L39.4757 47.5912C39.6292 47.5912 39.6292 47.4378 39.4757 47.5912Z" fill="white"/>
<path id="Vector_162" d="M40.2418 47.5912C40.0884 47.5912 40.0884 47.5912 40.0884 47.4378V45.5964C40.0884 45.4429 40.0884 45.4429 40.2418 45.4429C40.3953 45.4429 40.3953 45.4429 40.3953 45.5964L40.2418 47.5912C40.3953 47.5912 40.3953 47.4378 40.2418 47.5912Z" fill="white"/>
<path id="Vector_163" d="M41.0109 47.5912C40.8574 47.5912 40.8574 47.5912 40.8574 47.4378V45.5964C40.8574 45.4429 40.8574 45.4429 41.0109 45.4429C41.1643 45.4429 41.1643 45.4429 41.1643 45.5964L41.0109 47.5912C41.1643 47.5912 41.1643 47.4378 41.0109 47.5912Z" fill="white"/>
<path id="Vector_164" d="M41.9308 47.5912C41.7774 47.5912 41.7773 47.5912 41.7773 47.4378V45.5964C41.7773 45.4429 41.7774 45.4429 41.9308 45.4429C42.0843 45.4429 42.0842 45.4429 42.0842 45.5964L41.9308 47.5912Z" fill="white"/>
<path id="Vector_165" d="M42.6984 47.5912C42.5449 47.5912 42.5449 47.5912 42.5449 47.4378V45.5964C42.5449 45.4429 42.5449 45.4429 42.6984 45.4429C42.8518 45.4429 42.8518 45.4429 42.8518 45.5964L42.6984 47.5912Z" fill="white"/>
<path id="Vector_166" d="M43.4645 47.5912C43.311 47.5912 43.311 47.5912 43.311 47.4378V45.5964C43.311 45.4429 43.311 45.4429 43.4645 45.4429C43.6179 45.4429 43.6179 45.4429 43.6179 45.5964L43.4645 47.5912Z" fill="white"/>
<path id="Vector_167" opacity="0.5" d="M44.9997 54.4962H25.8183C25.5114 54.4962 25.3579 54.3428 25.3579 54.0359V51.8876C25.3579 51.5807 25.5114 51.4272 25.8183 51.4272H44.9997C45.3066 51.4272 45.4601 51.5807 45.4601 51.8876V54.0359C45.4601 54.3428 45.3066 54.4962 44.9997 54.4962Z" stroke="white" stroke-width="0.2073" stroke-miterlimit="10"/>
<path id="Vector_168" d="M25.8186 55.8776C25.9881 55.8776 26.1255 55.7402 26.1255 55.5707C26.1255 55.4012 25.9881 55.2638 25.8186 55.2638C25.6491 55.2638 25.5117 55.4012 25.5117 55.5707C25.5117 55.7402 25.6491 55.8776 25.8186 55.8776Z" fill="white"/>
<path id="Vector_169" d="M26.1255 56.9515C26.1255 57.1049 25.9721 57.2584 25.8186 57.2584C25.6652 57.2584 25.5117 57.1049 25.5117 56.9515C25.5117 56.798 25.6652 56.6445 25.8186 56.6445C25.9721 56.4911 26.1255 56.6446 26.1255 56.9515Z" fill="white"/>
<path id="Vector_170" d="M45.46 55.5709C45.46 55.7243 45.3065 55.8777 45.1531 55.8777C44.9996 55.8777 44.8462 55.7243 44.8462 55.5709C44.8462 55.4174 44.9996 55.2639 45.1531 55.2639C45.3065 55.1105 45.46 55.264 45.46 55.5709Z" fill="white"/>
<path id="Vector_171" d="M38.2478 53.2687C38.4173 53.2687 38.5547 53.1313 38.5547 52.9618C38.5547 52.7923 38.4173 52.6549 38.2478 52.6549C38.0783 52.6549 37.9409 52.7923 37.9409 52.9618C37.9409 53.1313 38.0783 53.2687 38.2478 53.2687Z" fill="white"/>
<path id="Vector_172" d="M45.46 56.9515C45.46 57.1049 45.3065 57.2584 45.1531 57.2584C44.9996 57.2584 44.8462 57.1049 44.8462 56.9515C44.8462 56.798 44.9996 56.6445 45.1531 56.6445C45.3065 56.4911 45.46 56.6446 45.46 56.9515Z" fill="white"/>
<path id="Vector_173" d="M37.0213 53.8829H25.9728C25.9728 53.8829 25.8193 53.8829 25.8193 53.7295V52.195C25.8193 52.195 25.8193 52.0415 25.9728 52.0415H35.6402C35.7937 52.0415 35.9471 52.195 36.1006 52.3484L37.0213 53.7295C37.1747 53.7295 37.1747 53.8829 37.0213 53.8829Z" fill="white"/>
<path id="Vector_174" d="M39.4757 54.0362C39.3223 54.0362 39.3223 54.0362 39.3223 53.8827V52.0413C39.3223 51.8878 39.3223 51.8879 39.4757 51.8879C39.6292 51.8879 39.6292 51.8878 39.6292 52.0413L39.4757 54.0362C39.6292 54.0362 39.6292 53.8827 39.4757 54.0362Z" fill="white"/>
<path id="Vector_175" d="M40.2418 54.0362C40.0884 54.0362 40.0884 54.0362 40.0884 53.8827V52.0413C40.0884 51.8878 40.0884 51.8879 40.2418 51.8879C40.3953 51.8879 40.3953 51.8878 40.3953 52.0413L40.2418 54.0362C40.3953 54.0362 40.3953 53.8827 40.2418 54.0362Z" fill="white"/>
<path id="Vector_176" d="M41.0109 54.0362C40.8574 54.0362 40.8574 54.0362 40.8574 53.8827V52.0413C40.8574 51.8878 40.8574 51.8879 41.0109 51.8879C41.1643 51.8879 41.1643 51.8878 41.1643 52.0413L41.0109 54.0362C41.1643 54.0362 41.1643 53.8827 41.0109 54.0362Z" fill="white"/>
<path id="Vector_177" d="M41.9308 54.0362C41.7774 54.0362 41.7773 54.0362 41.7773 53.8827V52.0413C41.7773 51.8878 41.7774 51.8879 41.9308 51.8879C42.0843 51.8879 42.0842 51.8878 42.0842 52.0413L41.9308 54.0362Z" fill="white"/>
<path id="Vector_178" d="M42.6984 54.0362C42.5449 54.0362 42.5449 54.0362 42.5449 53.8827V52.0413C42.5449 51.8878 42.5449 51.8879 42.6984 51.8879C42.8518 51.8879 42.8518 51.8878 42.8518 52.0413L42.6984 54.0362Z" fill="white"/>
<path id="Vector_179" d="M43.4645 54.0362C43.311 54.0362 43.311 54.0362 43.311 53.8827V52.0413C43.311 51.8878 43.311 51.8879 43.4645 51.8879C43.6179 51.8879 43.6179 51.8878 43.6179 52.0413L43.4645 54.0362Z" fill="white"/>
<path id="Vector_180" d="M45.4598 11.8024H25.3576C24.8972 11.8024 24.5903 11.4955 24.5903 11.0351V10.2679C24.5903 9.80751 24.8972 9.50061 25.3576 9.50061H45.4598C45.9201 9.50061 46.227 9.80751 46.227 10.2679V11.0351C46.0736 11.4955 45.7667 11.8024 45.4598 11.8024Z" stroke="white" stroke-width="0.1554" stroke-miterlimit="10"/>
<path id="Vector_181" d="M8.6317 45.4429C8.6317 44.8291 8.01789 44.2153 7.40409 44.2153C7.25064 44.2153 7.25064 44.2153 7.09719 44.2153C6.94374 43.2946 6.17648 42.6808 5.25577 42.6808C4.48852 42.6808 3.8747 42.9877 3.5678 43.6015C3.41435 43.6015 3.26089 43.6015 3.10744 43.6015C2.49363 43.6015 1.87984 44.0618 1.87984 44.8291H1.72638C1.26603 44.8291 0.805664 45.2895 0.805664 45.7498C0.805664 46.2102 1.26603 46.6705 1.72638 46.6705H7.40409C8.01789 46.6705 8.6317 46.0567 8.6317 45.4429Z" fill="white"/>
<path id="Vector_182" d="M7.40409 46.824H1.72638C1.11258 46.824 0.805664 46.3636 0.805664 45.7498C0.805664 45.136 1.26604 44.6756 1.87984 44.6756H2.03328C2.18673 44.0618 2.6471 43.6015 3.41436 43.6015C3.56781 43.6015 3.72126 43.6015 3.72126 43.6015C4.02816 42.9877 4.7954 42.6808 5.40921 42.6808C6.32992 42.6808 7.09718 43.2946 7.40409 44.0618H7.55755C8.32481 44.0618 8.9386 44.6756 8.9386 45.4429C8.9386 46.2102 8.17134 46.824 7.40409 46.824ZM1.72638 46.5171H7.40409C8.01789 46.5171 8.47824 46.0567 8.47824 45.4429C8.47824 44.8291 8.01789 44.3687 7.40409 44.3687C7.25063 44.3687 7.25064 44.3687 7.09719 44.3687H6.94373V44.2153C6.79028 43.448 6.02302 42.8342 5.10231 42.8342C4.48851 42.8342 3.8747 43.1411 3.5678 43.7549V43.9084H3.41436C3.26091 43.9084 3.10744 43.9084 3.10744 43.9084C2.49363 43.9084 2.03328 44.3688 2.03328 44.9826V45.136H1.87984H1.72638C1.26603 45.136 0.959125 45.4429 0.959125 45.9032C0.959125 46.2101 1.26603 46.5171 1.72638 46.5171Z" fill="white"/>
<path id="Vector_183" opacity="0.14" d="M16.3047 34.0873H13.2356C13.0822 34.0873 12.9287 33.9338 12.9287 33.7804C12.9287 33.6269 13.0822 33.4735 13.2356 33.4735H16.3047C16.4581 33.4735 16.6116 33.6269 16.6116 33.7804C16.6116 33.9338 16.4581 34.0873 16.3047 34.0873Z" fill="white"/>
<path id="Vector_184" opacity="0.14" d="M16.6107 51.274H15.9968C15.8434 51.274 15.6899 51.1205 15.6899 50.9671C15.6899 50.8136 15.8434 50.6602 15.9968 50.6602H16.6107C16.7641 50.6602 16.9175 50.8136 16.9175 50.9671C16.9175 51.1205 16.7641 51.274 16.6107 51.274Z" fill="white"/>
<g id="Group">
<path id="Vector_185" d="M57.7357 6.00594H50.5235C49.7562 6.00594 49.2959 5.39215 49.2959 4.77835C49.2959 4.01109 49.9097 3.55075 50.677 3.55075H50.8304C50.9839 2.7835 51.5977 2.16965 52.5184 2.16965C52.6718 2.16965 52.8253 2.16965 52.9787 2.16965C53.4391 1.55585 54.2063 1.09552 55.127 1.09552C56.2012 1.09552 57.2754 1.86275 57.5823 2.93691C57.7357 2.93691 57.7357 2.93691 57.8892 2.93691C58.8099 2.93691 59.5772 3.70418 59.5772 4.62489C59.4237 5.23869 58.6564 6.00594 57.7357 6.00594ZM50.5235 5.69907H57.7357C58.503 5.69907 59.1168 5.08527 59.1168 4.31801C59.1168 3.55075 58.503 2.93691 57.7357 2.93691C57.5823 2.93691 57.5823 2.93691 57.4288 2.93691H57.2754V2.7835C56.9685 1.86279 56.0478 1.09552 54.9736 1.09552C54.2064 1.09552 53.4391 1.55585 52.9787 2.16965V2.32311H52.8253C52.6718 2.32311 52.5184 2.32311 52.3649 2.32311C51.5977 2.32311 50.9839 2.93695 50.9839 3.55075V3.70417H50.8304C50.677 3.70417 50.6769 3.70417 50.5235 3.70417C49.9097 3.70417 49.4494 4.16454 49.4494 4.77835C49.4494 5.2387 49.9097 5.69907 50.5235 5.69907Z" fill="white"/>
<g id="Group_2">
<path id="Vector_186" d="M53.4382 5.85236V7.84721L52.6709 8.92139" stroke="white" stroke-width="0.141" stroke-miterlimit="10"/>
<path id="Vector_187" d="M55.2798 5.85236V6.92649L56.354 7.69375" stroke="white" stroke-width="0.141" stroke-miterlimit="10"/>
<path id="Vector_188" d="M54.2061 5.85236L54.3595 7.07995V10.149" stroke="white" stroke-width="0.141" stroke-miterlimit="10"/>
<path id="Vector_189" d="M55.586 8.61439L54.3584 7.23334" stroke="white" stroke-width="0.141" stroke-miterlimit="10"/>
<path id="Vector_190" d="M52.6717 9.07486C52.8412 9.07486 52.9785 8.93748 52.9785 8.76798C52.9785 8.59848 52.8412 8.46106 52.6717 8.46106C52.5022 8.46106 52.3647 8.59848 52.3647 8.76798C52.3647 8.93748 52.5022 9.07486 52.6717 9.07486Z" stroke="white" stroke-width="0.141" stroke-miterlimit="10"/>
<path id="Vector_191" d="M54.3591 10.3026C54.5286 10.3026 54.666 10.1652 54.666 9.99566C54.666 9.82616 54.5286 9.68878 54.3591 9.68878C54.1896 9.68878 54.0522 9.82616 54.0522 9.99566C54.0522 10.1652 54.1896 10.3026 54.3591 10.3026Z" stroke="white" stroke-width="0.141" stroke-miterlimit="10"/>
<path id="Vector_192" d="M55.5867 8.76797C55.7562 8.76797 55.8936 8.63055 55.8936 8.46105C55.8936 8.29155 55.7562 8.15417 55.5867 8.15417C55.4172 8.15417 55.2798 8.29155 55.2798 8.46105C55.2798 8.63055 55.4172 8.76797 55.5867 8.76797Z" stroke="white" stroke-width="0.141" stroke-miterlimit="10"/>
<path id="Vector_193" d="M56.3543 8.00076C56.5238 8.00076 56.6612 7.86334 56.6612 7.69384C56.6612 7.52434 56.5238 7.38696 56.3543 7.38696C56.1848 7.38696 56.0474 7.52434 56.0474 7.69384C56.0474 7.86334 56.1848 8.00076 56.3543 8.00076Z" stroke="white" stroke-width="0.141" stroke-miterlimit="10"/>
</g>
</g>
</g>
</svg>
