<svg width="63" height="51" viewBox="0 0 63 51" fill="none" xmlns="http://www.w3.org/2000/svg">
<g id="Group">
<path id="Vector" d="M1.80566 8.9394L5.16667 14.6655L7.03389 12.5493L27.0754 49.6448L61.8057 30.7236L56.8264 20.3917L52.0961 18.5244L46.7434 23.1303L36.6604 8.9394H27.0754L14.3783 1.59497L12.3866 6.20079L10.6438 9.43732L1.80566 8.9394Z" stroke="white" stroke-width="1.6" stroke-miterlimit="10"/>
<g id="Group_2">
<path id="Vector_2" d="M11.1422 20.0178L12.7604 19.1464L9.27495 18.2751L8.40356 21.7605L10.0218 20.7647L14.2542 27.7356L12.636 28.607L16.1214 29.4784L16.9928 25.9929L15.499 26.9888L11.1422 20.0178Z" fill="white" stroke="white" stroke-width="0.1702" stroke-miterlimit="10"/>
<path id="Vector_3" d="M22.3454 28.607L28.5694 23.5032L29.8142 24.8725L30.0632 21.2626L26.5777 21.0136L27.698 22.3829L21.474 27.4867L20.3537 26.1174L19.9802 29.7273L23.4657 29.9763L22.3454 28.607Z" fill="white" stroke="white" stroke-width="0.1702" stroke-miterlimit="10"/>
<path id="Vector_4" d="M31.0587 39.3123L29.4405 36.0758L28.9425 37.8185L21.2247 35.2044L21.8471 33.4617L18.6106 35.0799L20.1044 38.3164L20.7268 36.5737L28.4446 39.1878L27.8222 40.9305L31.0587 39.3123Z" fill="white" stroke="white" stroke-width="0.1702" stroke-miterlimit="10"/>
<path id="Vector_5" d="M12.8847 34.5821L6.28716 39.1879L5.16684 37.6941L4.54443 41.1796L8.15438 41.802L7.03406 40.3082L13.756 35.7024L14.7519 37.1962L15.3743 33.7107L11.8888 33.0883L12.8847 34.5821Z" fill="white" stroke="white" stroke-width="0.1702" stroke-miterlimit="10"/>
</g>
</g>
</svg>
