<svg width="61" height="61" viewBox="0 0 61 61" fill="none" xmlns="http://www.w3.org/2000/svg">
<path d="M8.37945 19.1677C7.986 18.7743 7.59255 18.1841 7.19911 17.7907C7.19911 17.594 7.19911 17.594 7.19911 17.3972C7.19911 17.2005 7.00237 17.0038 7.00237 16.6104C7.00237 13.8563 7.00237 11.2989 7.00237 8.54477C7.00237 7.75788 7.39586 7.16772 7.78931 6.57756C8.37947 5.98739 8.96963 5.59394 9.75652 5.39722C10.3467 5.39722 10.7401 5.39722 11.3303 5.39722C24.5106 5.39722 37.6909 5.39722 50.8713 5.39722C51.8549 5.39722 52.6417 5.59393 53.4286 6.18409C54.2155 6.77425 54.609 7.36442 54.609 8.1513C54.609 10.9054 54.609 13.6595 54.609 16.4136C54.609 17.2005 54.2155 17.7907 53.8221 18.3808C53.2319 18.971 52.6418 19.3645 51.8549 19.5612C51.6581 19.5612 51.2647 19.5612 51.068 19.5612C37.4942 19.5612 24.1172 19.5612 10.5434 19.5612C9.75651 19.9546 9.16633 19.7579 8.37945 19.1677C8.57617 19.3644 8.57617 19.1677 8.37945 19.1677ZM31.0024 7.56116C24.3139 7.56116 17.6253 7.56116 10.9368 7.56116C9.55975 7.56116 9.16632 7.95459 9.16632 9.33164C9.16632 11.6923 9.16632 14.2497 9.16632 16.6104C9.16632 17.2005 9.7565 17.7907 10.3467 17.7907C13.2975 17.7907 16.0516 17.7907 19.0024 17.7907C29.4286 17.7907 39.8548 17.7907 50.4778 17.7907C50.8712 17.7907 51.2647 17.9874 51.6581 17.7907C52.6417 17.594 53.0352 17.2005 53.0352 16.0202C53.0352 13.8562 53.0352 11.6923 53.0352 9.33164C53.0352 7.95459 52.6418 7.36443 51.068 7.36443C44.1828 7.56115 37.4942 7.56116 31.0024 7.56116Z" fill="white"/>
<path d="M7.35212 23.9462C7.54884 23.7495 7.94227 23.5527 8.139 23.356C8.139 23.356 8.13901 23.356 8.33573 23.356C8.92589 22.9626 9.71279 22.7659 10.4997 22.7659C24.0734 22.7659 37.6472 22.7659 51.221 22.7659C53.1882 22.7659 54.5652 23.9462 54.5652 25.7167C54.5652 28.4708 54.762 31.0282 54.5652 33.7823C54.5652 35.5528 52.7947 37.1265 51.221 37.1265C37.4505 37.1265 23.68 37.1265 9.90948 37.1265C8.53243 37.1265 7.35211 35.9462 7.15539 34.5691C6.76195 31.8151 7.15538 28.8643 6.95866 26.1102C6.95866 25.7167 7.1554 25.1265 7.35212 24.7331C7.1554 24.3396 7.35212 24.1429 7.35212 23.9462ZM10.4997 34.9626C10.6964 34.9626 10.8931 34.9626 11.2865 34.9626C24.4669 34.9626 37.6472 34.9626 50.8275 34.9626C52.0079 34.9626 52.598 34.3724 52.598 33.1921C52.598 31.2249 52.598 29.061 52.598 27.0938C52.598 26.1102 52.598 25.1265 51.4177 24.7331V24.5363C51.0242 24.5363 50.6308 24.7331 50.4341 24.7331C37.2538 24.7331 24.2701 24.7331 11.0898 24.7331C10.8931 24.7331 10.6964 24.7331 10.4997 24.7331C10.303 24.3396 10.1062 24.3396 10.1062 24.7331C9.51605 24.9298 8.92587 25.3233 8.92587 26.1102C8.92587 28.6675 8.92587 31.2249 8.92587 33.7823C8.92587 34.5692 9.31932 35.1593 10.1062 35.1593C10.1062 34.9626 10.303 35.1593 10.4997 34.9626Z" fill="white"/>
<path d="M30.5106 54.4872C23.822 54.4872 17.1336 54.4872 10.445 54.4872C8.87126 54.4872 7.29745 53.5035 6.90401 51.9297C6.90401 51.733 6.90401 51.5363 6.90401 51.1429C6.90401 48.5855 6.90401 45.8314 6.90401 43.274C6.90401 42.0937 7.88764 40.7166 9.26469 40.3232C9.85485 40.1265 10.2483 40.1265 10.8384 40.1265C24.2155 40.1265 37.3958 40.1265 50.7729 40.1265C52.3467 40.1265 53.527 40.7166 54.3139 42.0937C54.7073 42.6838 54.5106 43.274 54.7073 43.8642C54.7073 46.0281 54.7073 48.3888 54.7073 50.5527C54.7073 51.9298 54.3138 53.1101 52.9368 53.897C52.3466 54.0937 51.5597 54.2904 50.9696 54.2904C43.8876 54.4871 37.1991 54.4872 30.5106 54.4872ZM30.5106 42.0937C29.3302 42.0937 28.3467 42.0937 27.1663 42.0937C21.4614 42.0937 15.7565 42.0937 10.0516 42.0937C9.26467 42.0937 8.87122 42.6839 8.87122 43.274C8.87122 45.8314 8.87122 48.192 8.87122 50.7494C8.87122 51.1428 9.06798 51.733 9.46142 52.1265C9.65814 52.3232 10.2483 52.5199 10.6417 52.5199C24.2155 52.5199 37.5925 52.5199 51.1663 52.5199C51.363 52.5199 51.5598 52.5199 51.5598 52.5199C52.3467 52.1265 52.5434 51.5363 52.5434 50.9461C52.5434 48.7822 52.5434 46.4216 52.5434 44.2576C52.5434 42.8806 51.9532 42.4871 50.7729 42.4871C43.8876 42.0937 37.1991 42.0937 30.5106 42.0937Z" fill="white"/>
<path d="M6.01448 24.7905C6.01448 24.9872 6.01448 24.9872 6.01448 25.1839C5.80615 25.1839 6.01448 24.9872 6.01448 24.7905Z" fill="white"/>
<path d="M5.59766 17.7087C5.59766 17.9055 5.59766 17.9055 5.59766 18.1022C5.38932 18.1022 5.38932 17.9055 5.59766 17.7087Z" fill="white"/>
<path d="M9.34638 25.5774C9.13805 25.5774 8.92969 25.5774 8.92969 25.5774C8.92969 25.184 9.13805 25.184 9.34638 25.5774Z" fill="white"/>
<path d="M8.92969 35.8071C9.13802 35.8071 9.13805 35.8071 9.34638 35.8071L9.13803 36.0038L8.92969 35.8071Z" fill="white"/>
<path d="M41.4306 13.9708C39.139 13.9708 36.8473 13.9708 34.5556 13.9708C33.7222 13.9708 33.3056 13.774 33.3056 13.1839C33.3056 12.397 33.5139 12.0035 34.5556 12.0035C39.1389 12.0035 43.7223 12.0035 48.0973 12.0035C48.9306 12.0035 49.3473 12.397 49.3473 12.9871C49.3473 13.774 48.9306 13.9708 48.0973 13.9708C45.8056 13.9708 43.514 13.9708 41.4306 13.9708Z" fill="white"/>
<path d="M16.4305 12.5941C16.6388 12.3974 16.8471 12.3975 16.8471 12.2007C17.4721 11.6106 18.5138 11.6106 18.9304 12.004C19.5554 12.5942 19.5555 12.9876 19.3471 13.5777C19.1388 14.1679 18.3054 14.5613 17.8888 14.3646C17.2638 14.1679 16.6388 13.5778 16.6388 12.9876C16.6388 12.9876 16.6388 12.7909 16.4305 12.5941Z" fill="white"/>
<path d="M23.5137 11.6102C24.5554 11.6102 25.1803 12.3971 25.1803 12.9873C25.1803 13.7742 24.347 14.561 23.5137 14.3643C22.8887 14.3643 22.2637 13.5775 22.2637 12.9873C22.2637 12.2004 22.6804 11.6102 23.5137 11.6102Z" fill="white"/>
<path d="M13.9303 12.9876C14.1387 13.7745 13.097 14.3646 12.472 14.3646C11.6387 14.3646 11.0137 13.5778 11.0137 12.7909C11.0137 12.2007 11.6387 11.4138 12.0553 11.4138C13.3053 11.6105 13.9303 12.2007 13.9303 12.9876Z" fill="white"/>
<path d="M34.1394 49.3809C33.5144 48.9874 33.0977 48.594 33.306 48.0038C33.5144 47.4136 33.931 47.2169 34.556 47.2169C39.1393 47.2169 43.5143 47.2169 48.0977 47.2169C48.7227 47.2169 49.1393 47.4136 49.3477 48.0038C49.556 48.594 49.1394 48.9874 48.5144 49.3809C48.306 49.3809 48.306 49.3809 48.0977 49.3809C43.5143 49.3809 38.931 49.3809 34.556 49.3809C34.3477 49.3809 34.3477 49.3809 34.1394 49.3809Z" fill="white"/>
<path d="M18.0987 49.5775C17.2654 49.5775 16.6404 49.1841 16.6404 48.2005C16.6404 47.6103 17.4737 46.6267 17.8904 46.6267C18.7237 46.6267 19.5571 47.2168 19.5571 48.0037C19.5571 48.9873 19.1404 49.5775 18.0987 49.5775Z" fill="white"/>
<path d="M23.722 46.8236C24.5554 46.8236 25.3887 47.4138 25.1803 48.2007C25.1803 48.9876 24.5554 49.5778 23.722 49.5778C22.8887 49.5778 22.2637 48.7908 22.2637 48.2007C22.2637 47.4138 22.8887 46.8236 23.722 46.8236Z" fill="white"/>
<path d="M13.9303 48.2006C13.9303 48.9875 13.3054 49.5777 12.472 49.5777C11.6387 49.5777 11.0137 48.9875 11.0137 48.3974C11.0137 47.6105 11.6387 47.0203 12.472 47.0203C13.5137 46.8236 13.9303 47.4138 13.9303 48.2006Z" fill="white"/>
<path d="M48.0969 49.1842C48.3052 49.1842 48.3052 49.1842 48.5136 49.1842C48.3052 49.3809 48.3052 49.3809 48.0969 49.1842Z" fill="white"/>
<path d="M33.7213 29.7085C34.1379 29.7085 34.3463 29.7085 34.7629 29.7085C39.1379 29.7085 43.7213 29.7085 48.0963 29.7085C49.1379 29.7085 49.3463 29.9052 49.3463 30.6921C49.3463 31.2823 48.9296 31.6757 48.0963 31.6757C43.5129 31.6757 38.9296 31.6757 34.3463 31.6757C33.7213 31.6757 33.0963 30.8888 33.5129 30.1019C33.5129 30.1019 33.5129 29.9052 33.7213 29.7085Z" fill="white"/>
<path d="M23.722 32.0691C22.8887 32.0691 22.2637 31.2823 22.2637 30.4954C22.2637 29.7085 22.8887 29.3151 23.722 29.3151C24.5554 29.3151 25.1803 29.9053 25.1803 30.6921C25.1803 31.2823 24.347 32.0691 23.722 32.0691Z" fill="white"/>
<path d="M13.9303 30.6921C13.9303 31.479 13.3054 32.0691 12.472 32.0691C11.6387 32.0691 11.0137 31.479 11.0137 30.6921C11.0137 29.7085 11.4304 29.3151 12.472 29.3151C13.5137 29.3151 13.9303 29.9053 13.9303 30.6921Z" fill="white"/>
<path d="M18.0987 29.3151C18.932 29.3151 19.5571 29.9053 19.5571 30.6921C19.5571 31.2823 18.7237 32.0691 18.0987 32.0691C17.4737 32.0691 16.6404 31.2823 16.6404 30.6921C16.6404 30.102 17.2654 29.3151 18.0987 29.3151Z" fill="white"/>
</svg>
