<svg width="61" height="47" viewBox="0 0 61 47" fill="none" xmlns="http://www.w3.org/2000/svg">
<g id="Group">
<path id="Vector" d="M52.8921 44.6723C53.2299 44.1654 53.3989 43.6586 53.7368 43.1518C54.4125 43.6586 55.2572 43.9965 55.933 44.5033C57.9603 40.6177 59.1429 36.3942 59.3118 32.0018C58.4671 32.0018 57.6224 32.0018 56.7777 32.0018C56.7777 31.4949 56.7777 30.8192 56.7777 30.3124C57.6224 30.3124 58.4671 30.3124 59.3118 30.3124C59.1429 25.751 58.1292 21.6964 55.933 17.8108C55.2572 18.3176 54.4125 18.6555 53.7368 18.9934C53.3989 18.4866 53.2299 17.9797 52.8921 17.4729C53.5678 16.9661 54.4125 16.6282 55.0883 16.1214C53.3989 12.9115 49.3443 9.02592 45.9655 6.99864C45.4587 7.6744 45.1208 8.35014 44.614 9.19484C44.1072 8.85696 43.6004 8.68802 43.0935 8.35014C43.4314 7.67438 43.9382 6.8297 44.2761 6.15394C40.3905 4.12665 36.167 2.94407 31.7746 2.77513C31.7746 3.61983 31.7746 4.46453 31.7746 5.30924C31.0988 5.30924 30.592 5.30924 30.0851 5.30924C30.0851 4.46453 30.0851 3.78877 30.0851 2.77513C25.6927 2.94407 21.4692 3.95771 17.5836 6.15394C17.9215 6.8297 18.4283 7.67438 18.7662 8.35014C18.2593 8.68802 17.7525 8.85696 17.2457 9.19484C16.7389 8.51908 16.401 7.84334 15.8942 6.99864C12.1775 9.3638 9.13657 12.4047 6.77141 16.1214C7.44717 16.6282 8.29187 16.9661 8.96763 17.4729C8.62975 17.9797 8.46081 18.4866 8.12293 18.9934C7.44717 18.6555 6.60247 18.1487 5.92671 17.8108C3.89942 21.6964 2.71684 25.9199 2.5479 30.3124C3.3926 30.3124 4.2373 30.3124 5.08201 30.3124C5.08201 30.8192 5.08201 31.4949 5.08201 32.0018C4.2373 32.0018 3.56154 32.0018 2.5479 32.0018C2.71684 36.5631 3.73048 40.6177 5.92671 44.5033C6.77141 43.9965 7.44717 43.6586 8.12293 43.1518C8.46081 43.6586 8.62975 44.1654 8.96763 44.6723C7.95399 45.1791 6.94035 45.8548 5.92671 46.3617C5.41989 46.6995 5.08201 46.3617 4.74413 45.8549C3.39261 43.4897 2.37896 40.9556 1.7032 38.4215C-2.01348 23.3858 6.09565 8.01228 20.7934 2.77513C37.8564 -3.30671 56.6088 7.16754 60.1565 25.0752C61.677 32.3396 60.4944 39.2662 56.9466 45.8549C56.4398 46.6996 56.1019 46.8685 55.2572 46.3617C54.7504 45.8548 53.9057 45.348 52.8921 44.6723Z" fill="white" stroke="white" stroke-width="0.4"/>
<path id="Vector_2" d="M34.647 22.3724C34.9849 22.8793 35.3228 23.3861 35.6606 23.7239C34.647 24.3997 33.4644 25.2444 32.6197 25.9201C33.4644 26.427 34.1402 26.7649 34.8159 27.4406C35.4917 28.1164 35.8296 28.7921 36.3364 29.6368C38.8705 25.9202 41.4046 22.0346 43.9387 18.1489C43.9387 18.1489 43.9387 18.1489 43.9387 17.98C42.2493 19.1626 40.3909 20.514 38.5326 21.6966C38.1947 21.1898 37.8569 20.852 37.519 20.3451C37.6879 20.1762 37.8568 20.1762 38.0258 20.0072C40.8978 17.9799 43.7698 15.9527 46.6417 13.9254C46.8107 13.7565 47.1486 13.5875 47.4864 13.5875C47.9933 13.5875 48.5001 14.2633 48.1622 14.7701C48.1622 14.9391 47.9933 15.108 47.8243 15.2769C43.7698 21.5277 39.5462 27.6096 35.4917 33.8603C34.3091 35.7187 32.4508 36.5634 30.2545 36.2255C28.0583 35.8876 26.7068 34.5361 26.2 32.5088C25.6932 30.3126 26.2 28.4543 28.0583 27.1027C30.0856 25.4133 32.2818 23.8929 34.647 22.3724ZM31.0992 34.5361C32.9576 34.5361 34.478 32.8467 34.478 30.9883C34.478 29.13 32.9576 27.6095 30.9303 27.6095C29.072 27.6095 27.5515 29.13 27.5515 30.9883C27.7204 33.0156 29.2409 34.5361 31.0992 34.5361Z" fill="white" stroke="white" stroke-width="0.4"/>
</g>
</svg>
