<svg width="61" height="40" viewBox="0 0 61 40" fill="none" xmlns="http://www.w3.org/2000/svg">
<g id="Group">
<path id="Vector" d="M46.0721 37.8103C45.9835 37.8103 45.895 37.8988 45.895 37.9873C45.895 38.0759 45.9835 38.1644 46.0721 38.1644C46.1606 38.1644 46.2491 38.0759 46.2491 37.9873C46.2491 37.8988 46.1606 37.8103 46.0721 37.8103Z" fill="white"/>
<path id="Vector_2" d="M52.5342 8.0684H50.4983C50.0557 8.0684 49.7016 7.71433 49.7016 7.27174C49.7016 6.82915 50.0557 6.47508 50.4983 6.47508C50.5868 6.47508 50.5868 6.47508 50.6753 6.38656C50.7639 6.12101 51.0294 5.94397 51.295 5.94397C51.649 5.94397 52.0031 6.20954 52.0031 6.65213C52.0031 6.74065 52.0031 6.74063 52.0916 6.82915C52.1801 6.82915 52.1801 6.82915 52.2687 6.82915C52.3572 6.74063 52.5342 6.74063 52.6227 6.74063C52.9768 6.74063 53.3309 7.0062 53.3309 7.44879C53.1538 7.80286 52.8883 8.0684 52.5342 8.0684Z" fill="white"/>
<path id="Vector_3" d="M6.47082 21.1248H2.39898C1.5138 21.1248 0.805664 20.4167 0.805664 19.62C0.805664 18.7348 1.5138 18.1152 2.39898 18.1152C2.4875 18.1152 2.66454 18.0267 2.66454 17.9382C2.84158 17.4071 3.37269 17.053 3.9038 17.053C4.61194 17.053 5.23157 17.6726 5.23157 18.3807C5.23157 18.4693 5.32008 18.5578 5.4086 18.6463C5.49712 18.7348 5.58564 18.7348 5.67416 18.6463C5.85119 18.5578 6.11674 18.4693 6.3823 18.4693C7.09044 18.4693 7.71007 19.0889 7.71007 19.797C7.71007 20.5052 7.17896 21.1248 6.47082 21.1248Z" fill="white"/>
<path id="Vector_4" d="M41.5571 7.00586H22.0831V37.8101H41.5571V7.00586Z" stroke="white" stroke-miterlimit="10"/>
<path id="Vector_5" d="M24.563 12.1401H39.434" stroke="white" stroke-width="0.6" stroke-miterlimit="10"/>
<path id="Vector_6" d="M24.563 15.5038H39.434" stroke="white" stroke-miterlimit="10"/>
<path id="Vector_7" d="M24.563 18.602H39.434" stroke="white" stroke-miterlimit="10"/>
<path id="Vector_8" d="M24.563 21.9656H39.434" stroke="white" stroke-miterlimit="10"/>
<path id="Vector_9" d="M24.563 25.0636H39.434" stroke="white" stroke-miterlimit="10"/>
<path id="Vector_10" d="M24.563 28.339H39.434" stroke="white" stroke-miterlimit="10"/>
<g id="Group_2">
<path id="Vector_11" d="M3.72609 28.1177V32.278L18.8627 38.6513H19.1282V34.5795L3.72609 28.1177Z" stroke="white" stroke-miterlimit="10"/>
<path id="Vector_12" d="M19.1285 24.9307V19.7082L12.7552 22.2752L19.1285 24.9307Z" stroke="white" stroke-miterlimit="10"/>
<path id="Vector_13" d="M9.745 23.5146L4.16836 25.8161L19.1279 32.1009V27.3209L9.745 23.5146Z" stroke="white" stroke-miterlimit="10"/>
<path id="Vector_14" d="M3.72609 34.7565V38.6513H13.0205L3.72609 34.7565Z" stroke="white" stroke-miterlimit="10"/>
</g>
<g id="Group_3">
<path id="Vector_15" d="M44.9173 24.8868V29.3127L59.2573 23.2935V18.8676L44.9173 24.8868Z" stroke="white" stroke-miterlimit="10"/>
<path id="Vector_16" d="M49.7857 13.8221L44.9172 11.2551V15.858L49.7857 13.8221Z" stroke="white" stroke-miterlimit="10"/>
<path id="Vector_17" d="M46.0675 37.899H59.2567V32.1453L46.0675 37.899Z" stroke="white" stroke-miterlimit="10"/>
<path id="Vector_18" d="M59.2573 29.6668V25.6835L44.9173 31.7027V35.8631L59.2573 29.6668Z" stroke="white" stroke-miterlimit="10"/>
<path id="Vector_19" d="M44.9173 18.2477V22.4081L56.8673 17.4511L52.4414 15.1496L44.9173 18.2477Z" stroke="white" stroke-miterlimit="10"/>
</g>
<path id="Vector_20" d="M60.7657 7.09447C60.8542 7.00596 60.7657 6.91743 60.7657 6.91743L59.792 6.12077C59.7035 6.03225 59.615 6.03225 59.615 6.12077L58.7298 6.8289L57.8446 6.12077C57.7561 6.03225 57.6676 6.03225 57.6676 6.12077L56.7824 6.8289L55.8972 6.12077C55.8087 6.03225 55.7202 6.12077 55.7202 6.12077C55.6316 6.20929 55.7202 6.29779 55.7202 6.29779L56.6939 7.09447C56.7824 7.18299 56.8709 7.18299 56.8709 7.09447L57.7561 6.38631L58.6412 7.09447C58.7298 7.18299 58.8183 7.18299 58.8183 7.09447L59.7035 6.38631L60.5887 7.09447" fill="white"/>
<path id="Vector_21" d="M18.8085 2.04903C18.897 2.13754 18.9856 2.13754 18.9856 2.04903L19.8707 1.34089L20.7559 2.04903C20.8444 2.13754 20.933 2.13754 20.933 2.04903L21.8181 1.34089L22.7033 2.04903H22.7918C22.7918 2.04903 22.8804 2.04902 22.8804 1.9605C22.9689 1.87198 22.8804 1.78348 22.8804 1.78348L21.9067 0.986799C21.8181 0.898281 21.7296 0.898281 21.7296 0.986799L20.8444 1.69496L19.9593 0.986799C19.8707 0.898281 19.7822 0.898281 19.7822 0.986799L18.897 1.69496L18.0119 0.986799C17.9233 0.898281 17.8348 0.986799 17.8348 0.986799C17.7463 1.07532 17.8348 1.16385 17.8348 1.16385L18.8085 2.04903Z" fill="white"/>
</g>
</svg>
