<svg width="62" height="53" viewBox="0 0 62 53" fill="none" xmlns="http://www.w3.org/2000/svg">
<path d="M14.5406 1.00439H17.0707L19.9623 2.45018L21.4081 3.89596L23.5767 4.9803L26.8298 8.23331L29.7213 10.7634L31.5286 11.1249L37.3117 11.4863L38.0346 13.2936H40.2032L41.2876 15.1008V16.1851L42.7334 16.5466L43.0948 17.6309L44.902 19.0767L45.2635 19.7996V22.3297L46.3478 24.1369L46.7093 24.8598L48.8779 25.5827L49.9623 27.7514L51.7695 30.2815L53.9382 30.6429H57.9141L59.3599 30.2815L60.8057 32.8116V36.4261L59.3599 40.402L56.1069 42.2092L50.3237 44.3779L45.6249 45.1008L41.2876 45.4622L38.396 47.2695L36.2273 50.161L35.8659 50.5225H34.0587L33.3358 49.7996L24.2996 49.0767L23.9382 50.5225L22.8539 51.6068H21.4081L19.6008 47.6309L18.1551 46.1851L15.9864 40.402L15.2635 39.6791L13.4563 38.9562L11.649 36.0646L11.2876 30.2815L10.2033 27.3899L7.67313 24.8598L6.5888 21.6068L5.50446 19.7996L2.61289 14.0164L0.805664 13.655L1.16711 11.8478L2.25145 8.9562L3.69723 8.59476L6.22735 8.9562L8.03458 7.14897L9.84181 6.42608L9.11892 4.61885V2.81162L9.84181 2.08873L14.5406 1.00439ZM14.902 2.45018L10.5647 3.53451L11.2876 5.34174V7.14897L10.5647 8.23331L8.03458 8.9562L6.5888 10.402H3.33578L2.97434 12.5707L4.78157 14.7393L7.67313 20.5225L9.11892 24.4984L11.2876 26.3056L12.0105 27.3899L12.7334 29.9201L13.0948 35.7032L14.902 37.5104L16.7093 38.9562L18.1551 41.8478L19.6008 45.4622L21.0466 47.2695L22.131 49.4381L22.8539 47.9923L23.5767 47.2695L25.384 47.6309L34.0587 48.3538L35.5045 49.0767L37.6731 46.1851V45.4622L39.4804 44.7393L40.9261 44.0164L47.4322 43.2935L53.2153 41.8478L56.8298 40.402L58.2755 39.3176L59.3599 35.7032V33.1731L58.9984 32.4502L53.9382 32.0887L50.6852 31.0044L48.1551 27.7514L45.9864 26.3056L43.4563 21.9682V19.7996L41.2876 17.9923L40.2032 16.908L39.4804 14.7393L37.3117 14.3779L36.5888 12.9321L28.9984 12.2092L23.5767 6.78753L19.6008 4.25741L17.7936 2.81162L14.902 2.45018Z" fill="white" stroke="white"/>
<path d="M58.6374 30.2815L59.7217 30.6429L60.806 32.8116V36.4261L59.3602 40.402L56.1072 42.2092L50.3241 44.3779L45.6253 45.1008L41.288 45.4622L38.3964 47.2694L36.2277 50.161L35.8663 50.5225H34.059L33.3362 49.7996L24.3 49.0767L23.9386 50.5225L22.8542 51.6068H21.4084L19.6012 47.6309L18.1554 46.1851L15.9868 40.402L15.2639 39.6791L13.4566 38.9562L11.6494 36.0646V34.2574L12.3723 33.896L12.7338 31.7273H13.0952L13.4566 35.7032L15.2639 37.5104L17.0711 38.9562L18.5169 41.8478L19.9627 45.4622L21.4084 47.2694L22.1313 48.3538L23.5771 46.908L25.3844 47.2694L34.059 47.9923L35.5048 48.7152L36.9506 46.5466L38.7578 44.7393L40.9265 43.655L47.4325 42.9321L53.2157 41.4863L56.8301 40.0405L57.9145 39.3176L58.9988 35.7032V32.4502H53.9386V32.0887H57.9145V30.6429L58.6374 30.2815Z" fill="white"/>
<path d="M14.541 1.00439H17.0711L19.9627 2.45018L21.4085 4.25741H20.6856V4.9803L19.2398 4.25741L17.794 3.17307L14.9024 2.81162L12.0109 3.53451H10.5651L11.6494 5.34174V7.14897L10.5651 8.59476L8.39641 8.9562L6.58918 10.7634L3.33617 10.402L2.97473 11.8478V9.31765L2.61328 8.59476L6.22774 8.9562L8.03497 7.14897L9.8422 6.42608L9.1193 4.61885V2.81162L9.8422 2.08873L14.541 1.00439Z" fill="white"/>
<path d="M58.6374 30.2815L59.7218 30.6429L60.8061 32.8116V36.4261L59.3603 40.402L56.1073 42.2092L50.3242 44.3779L47.4326 44.7393L48.517 44.3779L47.4326 42.9321L53.2157 41.4863L56.8302 40.0405L57.9145 39.3176L58.9989 35.7032V32.4502H53.9386V32.0887H57.9145V30.6429L58.6374 30.2815Z" fill="white"/>
<path d="M45.6247 43.2936H48.1548L48.5163 44.3779L45.6247 45.1008L41.2874 45.4623L38.3958 47.2695L36.2271 50.161L35.8657 50.5225H34.0584L33.3355 49.7996L31.5283 49.4382L31.8898 48.3538H34.4199L35.5042 48.7153L36.95 46.5466L38.7572 44.7394L40.9259 43.655L45.6247 43.2936Z" fill="white"/>
<path d="M44.1788 21.6068H44.9017L46.3475 24.1369L46.7089 24.8598L48.8776 25.5827L49.962 27.7514L51.7692 30.2815L58.2752 31.0044L57.9138 32.0887H52.1306L50.3234 31.0044L48.1547 28.1128L45.6246 26.3056L43.8174 23.414L44.1788 21.6068Z" fill="white"/>
<path d="M40.9261 15.1008L41.2876 16.1852L42.7334 16.5466L43.0948 17.631L44.902 19.0767L45.2635 19.7996V21.9683L43.4563 22.3297L43.0948 21.2454L42.7334 19.4382L40.9261 17.9924V17.2695L39.8418 16.9081L40.2032 15.8237L40.5647 16.1852L40.9261 15.1008Z" fill="white"/>
<path d="M20.6855 4.25745L23.2157 4.61889L26.8301 8.23335V9.31769L27.553 9.67913L26.8301 10.402L23.5771 7.14901L20.6855 5.34178V4.25745Z" fill="white"/>
<path d="M45.6245 43.2936H48.1546L48.516 44.3779L45.6245 45.1008H41.2871V44.0165L45.6245 43.2936Z" fill="white"/>
<path d="M51.047 29.92L53.9386 30.6429L58.2759 31.0044L57.9145 32.0887H52.1313L50.6855 31.3658L51.047 29.92Z" fill="white"/>
<path d="M16.348 1.00439L19.601 2.08873L21.4082 4.25741H20.6854V4.9803L19.2396 4.25741L17.7938 3.17307L15.2637 2.45018L16.348 1.00439Z" fill="white"/>
<path d="M23.5763 46.908L25.3835 47.2694L30.4438 47.6309L30.0823 48.7152H24.6606L23.2148 47.9923L23.5763 46.908Z" fill="white"/>
<path d="M52.1314 41.8478L53.2157 42.2092L52.4929 43.655L48.8784 44.7393L47.4326 44.3779H48.517L47.4326 42.9321L52.1314 41.8478Z" fill="white"/>
<path d="M44.1788 21.6068H44.9017L46.3475 24.1369L46.7089 25.5827L47.4318 25.9442L47.0704 27.0285L45.6246 26.3056L43.8174 23.414L44.1788 21.6068Z" fill="white"/>
<path d="M12.7338 31.7273H13.0952L13.4566 35.7032L14.9024 37.5104H13.4566L13.0952 38.5948L11.6494 36.0646V34.2574L12.3723 33.896L12.7338 31.7273Z" fill="white"/>
<path d="M31.8898 48.3538H34.4199L36.2271 48.7152L36.95 48.3538L36.5886 49.7995L35.8657 50.5224H34.0584L33.3355 49.7995L31.5283 49.4381L31.8898 48.3538Z" fill="white"/>
<path d="M18.1555 41.8478L18.8784 43.2936L19.9627 45.4622L20.6856 46.5466L18.8784 47.2695L17.7941 45.4622L17.4326 43.2936L18.1555 41.8478Z" fill="white"/>
<path d="M5.1427 16.5465L6.22703 16.908L7.67282 20.5224H6.94992L6.58848 21.6067L5.50414 19.7995L4.78125 17.9923L5.1427 16.5465Z" fill="white"/>
<path d="M26.8301 8.59473L28.2759 9.31762L30.0831 11.1248L30.4445 12.5706L28.6373 12.2092L27.1915 10.7634L26.8301 8.59473Z" fill="white"/>
<path d="M30.0831 47.9923H34.059V48.3538L31.8903 48.7152L31.5288 49.4381L24.2999 49.0766L23.9385 50.161V48.3538L30.0831 48.7152V47.9923Z" fill="white"/>
<path d="M12.0109 29.5586L13.0952 29.92L12.7338 33.8959L11.6494 34.2574V30.2815L12.0109 29.5586Z" fill="white"/>
<path d="M23.9385 6.42603L25.3843 6.78747L26.83 8.23325V9.31759L27.5529 9.67904L26.83 10.4019L23.9385 7.51036V6.42603Z" fill="white"/>
<path d="M30.083 11.1249L34.4204 11.4863V12.5707H30.4445L30.083 11.1249Z" fill="white"/>
<path d="M40.9261 15.1008L41.2876 16.1852L42.7334 16.5466L43.0948 17.9924H42.0105L41.649 18.7153L40.9261 17.2695L39.8418 16.9081L40.2032 15.8237L40.5647 16.1852L40.9261 15.1008Z" fill="white"/>
<path d="M3.69738 13.655L4.78172 14.0165L5.50461 16.5466L4.42027 17.2695L3.33594 15.1008L3.69738 13.655Z" fill="white"/>
<path d="M55.0222 40.7634L55.7451 41.1249L55.3836 42.5707L52.8535 43.2935L53.215 41.4863L55.0222 40.7634Z" fill="white"/>
<path d="M6.9502 20.5225H8.03453L8.39598 21.2454V24.1369H7.31164L6.9502 20.5225Z" fill="white"/>
<path d="M14.5405 1.00439H16.3477L15.9863 2.08873L14.902 2.81162H13.0947V1.36584L14.5405 1.00439Z" fill="white"/>
<path d="M49.2395 27.7513L50.3238 28.1128L51.4082 29.92L50.3238 31.0044L48.5166 28.4742H49.2395V27.7513Z" fill="white"/>
<path d="M58.9982 35.7032L59.7211 36.0647L60.8054 35.7032L60.0825 38.5948L58.6367 38.2334L58.9982 35.7032Z" fill="white"/>
<path d="M12.0105 1.72729H13.0948V2.81163L13.8177 3.17308L10.9261 3.53452L10.5647 2.45019L9.8418 2.08874L12.0105 1.72729Z" fill="white"/>
<path d="M58.6373 30.2815H59.3602L58.9987 32.4502H53.9385V32.0887H57.9144V30.6429L58.6373 30.2815Z" fill="white"/>
</svg>
