<svg width="61" height="44" viewBox="0 0 61 44" fill="none" xmlns="http://www.w3.org/2000/svg">
<g id="Group 39">
<g id="LAwYpn.tif_00000014607609344101750130000015932951283478186143_">
<g id="Group">
<path id="Vector" d="M23.1674 42.2925C20.9667 43.3929 18.5681 42.312 17.4403 40.0873C17.4294 39.9622 17.369 39.8515 17.321 39.7796C17.2956 39.7415 17.2704 39.7094 17.2503 39.6856V39.6837V39.6805V39.6773V39.6741V39.6709V39.6678V39.6646V39.6614V39.6583V39.6551V39.652V39.6489V39.6458V39.6426V39.6395V39.6365V39.6334V39.6303V39.6272V39.6242V39.6211V39.6181V39.615V39.612V39.609V39.606V39.603V39.6V39.597V39.594V39.591V39.5881V39.5851V39.5822V39.5792V39.5763V39.5734V39.5704V39.5675V39.5646V39.5617V39.5589V39.556V39.5531V39.5502V39.5474V39.5445V39.5417V39.5389V39.536V39.5332V39.5304V39.5276V39.5248V39.522V39.5193V39.5165V39.5137V39.511V39.5082V39.5055V39.5027V39.5V39.4973V39.4946V39.4919V39.4892V39.4865V39.4838V39.4811V39.4785V39.4758V39.4732V39.4705V39.4679V39.4653V39.4626V39.46V39.4574V39.4548V39.4522V39.4496V39.447V39.4445V39.4419V39.4393V39.4368V39.4342V39.4317V39.4292V39.4266V39.4241V39.4216V39.4191V39.4166V39.4141V39.4116V39.4092V39.4067V39.4042V39.4018V39.3993V39.3969V39.3944V39.392V39.3896V39.3872V39.3847V39.3823V39.3799V39.3776V39.3752V39.3728V39.3704V39.3681V39.3657V39.3634V39.361V39.3587V39.3563V39.354V39.3517V39.3494V39.3471V39.3448V39.3425V39.3402V39.3379V39.3356V39.3334V39.3311V39.3289V39.3266V39.3244V39.3221V39.3199V39.3177V39.3155V39.3132V39.311V39.3088V39.3066V39.3045V39.3023V39.3001V39.2979V39.2958V39.2936V39.2915V39.2893V39.2872V39.285V39.2829V39.2808V39.2787V39.2766V39.2745V39.2724V39.2703V39.2682V39.2661V39.264V39.2619V39.2599V39.2578V39.2558V39.2537V39.2517V39.2496V39.2476V39.2456V39.2436V39.2415V39.2395V39.2375V39.2355V39.2335V39.2316V39.2296V39.2276V39.2256V39.2237V39.2217V39.2197V39.2178V39.2159V39.2139V39.212V39.2101V39.2081V39.2062V39.2043V39.2024V39.2005V39.1986V39.1967V39.1948V39.1929V39.1911V39.1892V39.1873V39.1855V39.1836V39.1817V39.1799V39.1781V39.1762V39.1744V39.1726V39.1707V39.1689V39.1671V39.1653V39.1635V39.1617V39.1599V39.1581V39.1563V39.1546V39.1528V39.151V39.1493V39.1475V39.1457V39.144V39.1423V39.1405V39.1388V39.137V39.1353V39.1336V39.1319V39.1302V39.1285V39.1267V39.125V39.1233V39.1217V39.12V39.1183V39.1166V39.1149V39.1133V39.1116V39.1099V39.1083V39.1066V39.105V39.1033V39.1017V39.1001V39.0984V39.0968V39.0952V39.0936V39.0919V39.0903V39.0887V39.0871V39.0855V39.0839V39.0823V39.0808V39.0792V39.0776V39.076V39.0745V39.0729V39.0713V39.0698V39.0682V39.0667V39.0651V39.0636V39.062V39.0605V39.059V39.0574V39.0559V39.0544V39.0529V39.0514V39.0498V39.0483V39.0468V39.0453V39.0438V39.0423V39.0409V39.0394V39.0379V39.0364V39.0349V39.0335V39.032V39.0305V39.0291V39.0276V39.0262V39.0247V39.0233V39.0218V39.0204V39.0189V39.0175V39.0161V39.0147V39.0132V39.0118V39.0104V39.009V39.0076V39.0062V39.0047V39.0033V39.0019V39.0005V38.9992V38.9978V38.9964V38.995V38.9936V38.9922V38.9909V38.9895V38.9881V38.9868V38.9854V38.984V38.9827V38.9813V38.98V38.9786V38.9773V38.9759V38.9746V38.9732V38.9719V38.9706V38.9692V38.9679V38.9666V38.9653V38.9639V38.9626V38.9613V38.96V38.9587V38.9574V38.9561V38.9548V38.9535V38.9522V38.9509V38.9496V38.9483V38.947V38.9457V38.9444V38.9432V38.9419V38.9406V38.9393V38.9381V38.9368V38.9355V38.9343V38.933V38.9317V38.9305V38.9292V38.928V38.9267V38.9255V38.9242V38.923V38.9217V38.9205V38.9193V38.918V38.9168V38.9156V38.9143V38.9131V38.9119V38.9106V38.9094V38.9082V38.907V38.9058V38.9045V38.9033V38.9021V38.9009V38.8997V38.8985V38.8973V38.8961V38.8949V38.8937V38.8925V38.8913V38.8901V38.8889V38.8877V38.8865V38.8853V38.8841V38.8829V38.8817V38.8806V38.8794V38.8782V38.877V38.8758V38.8746V38.8735V38.8723V38.8711V38.87V38.8688V38.8676V38.8664V38.8653V38.8641V38.8629V38.8618V38.8606V38.8595V38.8583V38.8571V38.856V38.8548V38.8537V38.8525V38.8514V38.8502V38.8491V38.8479V38.8468V38.8456V38.8445V38.8433V38.8422V38.841V38.8399V38.8387V38.8376V38.8365V38.8353V38.8342V38.833V38.8319V38.8308V38.8296V38.8285V38.8273V38.8262V38.8251V38.8239V38.8228V38.8217V38.8205V38.82C17.3433 38.635 17.4231 38.4871 17.5318 38.3965C17.5849 38.3523 17.6437 38.3234 17.7152 38.3129C17.7883 38.3021 17.8839 38.3092 18.0114 38.3517L18.0345 38.3594H18.0588C18.1182 38.3594 18.2359 38.3938 18.3751 38.4634C18.5096 38.5306 18.6385 38.6179 18.7195 38.6989L18.7634 38.7428H18.8256C18.8357 38.7428 18.8414 38.7439 18.8443 38.7446C18.8456 38.7468 18.8481 38.7514 18.851 38.7601C18.8572 38.7785 18.862 38.806 18.8646 38.8454C18.8672 38.8845 18.8673 38.9272 18.8673 38.9762V39.0051L18.878 39.0319C19.0733 39.5201 19.323 39.9749 19.682 40.3082C20.0453 40.6455 20.5131 40.8514 21.1259 40.8514C21.7183 40.8514 22.2217 40.7525 22.6786 40.5241C23.1329 40.2969 23.5309 39.9469 23.9217 39.4595C24.0302 39.3492 24.1322 39.1935 24.2073 39.0433C24.2744 38.9092 24.3311 38.7575 24.3413 38.6319C24.4282 38.4629 24.5069 38.3561 24.6117 38.2863C24.721 38.2134 24.879 38.1677 25.1515 38.1677C25.4832 38.1677 25.8069 38.3313 25.9712 38.6509C26.1726 39.248 26.5721 39.8467 27.1734 40.2488C27.9747 40.8483 28.8838 41.0026 29.6969 40.7739C30.51 40.5453 31.2144 39.9372 31.6144 39.0371L31.6273 39.008V38.9762C31.6273 38.9227 31.6551 38.8603 31.7074 38.7557C31.7093 38.7519 31.7113 38.7479 31.7133 38.7439C31.7511 38.6685 31.8029 38.5652 31.816 38.4529C31.9787 38.2341 32.25 38.1198 32.5077 38.1198C32.7795 38.1198 32.9917 38.243 33.0603 38.4485L33.0715 38.4821L33.0965 38.5072C33.1624 38.5731 33.201 38.6789 33.252 38.8319C33.2536 38.8367 33.2552 38.8415 33.2568 38.8464C33.2993 38.9742 33.3542 39.1393 33.4662 39.2597C33.7601 39.746 34.1086 40.1449 34.5621 40.4221C35.021 40.7025 35.5764 40.8514 36.2697 40.8514C37.5002 40.8514 38.3063 40.0267 38.8903 39.0534L38.9117 39.0178V38.9762C38.9117 38.9463 38.9172 38.9369 38.9636 38.8906L38.9669 38.8872C39.0127 38.8415 39.0887 38.7657 39.1015 38.6323C39.1888 38.4623 39.2691 38.3502 39.3586 38.2786C39.4474 38.2076 39.5564 38.1677 39.7201 38.1677C39.8896 38.1677 40.0505 38.2106 40.1641 38.2863C40.2733 38.3591 40.3369 38.4593 40.3369 38.5928V38.6282L40.3528 38.6599C40.4436 38.8415 40.4887 38.9767 40.5363 39.1195L40.5367 39.1207C40.5849 39.2651 40.6355 39.4171 40.7361 39.6184L40.7357 39.6186L40.7417 39.6284C41.0403 40.1261 41.3943 40.4833 41.8305 40.7142C42.2656 40.9446 42.7709 41.0431 43.3623 41.0431C44.5929 41.0431 45.399 40.2183 45.983 39.245L46.0043 39.2094V39.1679C46.0043 39.1171 46.0321 39.0519 46.075 38.9875C46.0948 38.9577 46.1149 38.9326 46.13 38.9151C46.1374 38.9064 46.1435 38.8997 46.1474 38.8955L46.1517 38.891L46.1521 38.8906L46.1521 38.8905L46.1522 38.8905L46.1523 38.8904L46.1524 38.8903L46.1524 38.8903L46.1693 38.8734L46.1802 38.8516C46.273 38.666 46.3571 38.5457 46.4512 38.4703C46.5401 38.3992 46.6491 38.3594 46.8128 38.3594C46.9765 38.3594 47.0856 38.3992 47.1744 38.4703C47.2685 38.5457 47.3526 38.666 47.4454 38.8516L47.4479 38.8566C47.6377 39.2361 47.8372 39.6351 48.2328 40.0332C49.4472 41.6401 52.0733 41.6398 53.0824 39.4242C53.1801 39.2288 53.2656 39.0614 53.3885 38.9385C53.5038 38.8232 53.6572 38.7428 53.9055 38.7428C54.2498 38.7428 54.4868 38.8702 54.6212 39.0622C54.7571 39.2563 54.8064 39.5425 54.7195 39.894C54.1608 41.6579 52.8661 42.6234 51.4611 42.8537C50.0503 43.085 48.5219 42.5762 47.5024 41.3713L47.5028 41.371L47.4939 41.3621L47.1106 40.9787L46.9944 40.8626L46.8893 40.9888C45.0323 43.2171 41.6923 43.2171 39.8354 40.9888L39.7201 40.8505L39.6049 40.9888C37.7479 43.2171 34.408 43.2171 32.551 40.9888L32.4358 40.8505L32.3206 40.9888C31.3879 42.108 30.134 42.7088 28.8628 42.7319C27.5929 42.755 26.2931 42.2018 25.266 40.9879L25.1796 40.8858L25.0683 40.96C24.8566 41.1011 24.6431 41.269 24.4259 41.4397C24.3423 41.5055 24.2582 41.5716 24.1734 41.6368C23.8644 41.8746 23.5379 42.1073 23.1674 42.2925Z" fill="white" stroke="white" stroke-width="0.3"/>
</g>
</g>
<path id="Vector_2" d="M33.2018 1.40436H0.805664V31.6919H33.2018V1.40436Z" stroke="white" stroke-width="0.8981" stroke-miterlimit="10"/>
<g id="Group_2">
<g id="Clip path group">
<mask id="mask0_1047_1356" style="mask-type:luminance" maskUnits="userSpaceOnUse" x="43" y="7" width="18" height="19">
<g id="SVGID_00000040576172997581480630000000714559539215595403_">
<path id="Vector_3" d="M47.0036 24.0242C45.2784 24.0242 43.9365 21.3405 43.9365 16.5482C43.9365 11.7559 44.895 9.83892 46.4285 9.83892L60.8055 7.73029V25.1744L47.0036 24.0242Z" fill="white"/>
</g>
</mask>
<g mask="url(#mask0_1047_1356)">
<g id="Group_3">
<path id="Vector_4" d="M59.8469 10.4139H43.7446V10.6056H59.8469V10.4139Z" fill="white"/>
</g>
</g>
</g>
<g id="Clip path group_2">
<mask id="mask1_1047_1356" style="mask-type:luminance" maskUnits="userSpaceOnUse" x="43" y="7" width="18" height="19">
<g id="SVGID_00000040576172997581480630000000714559539215595403__2">
<path id="Vector_5" d="M47.0036 24.0242C45.2784 24.0242 43.9365 21.3405 43.9365 16.5482C43.9365 11.7559 44.895 9.83892 46.4285 9.83892L60.8055 7.73029V25.1744L47.0036 24.0242Z" fill="white"/>
</g>
</mask>
<g mask="url(#mask1_1047_1356)">
<g id="Group_4">
<path id="Vector_6" d="M59.8469 10.989H43.7446V11.1807H59.8469V10.989Z" fill="white"/>
</g>
</g>
</g>
<g id="Clip path group_3">
<mask id="mask2_1047_1356" style="mask-type:luminance" maskUnits="userSpaceOnUse" x="43" y="7" width="18" height="19">
<g id="SVGID_00000040576172997581480630000000714559539215595403__3">
<path id="Vector_7" d="M47.0036 24.0242C45.2784 24.0242 43.9365 21.3405 43.9365 16.5482C43.9365 11.7559 44.895 9.83892 46.4285 9.83892L60.8055 7.73029V25.1744L47.0036 24.0242Z" fill="white"/>
</g>
</mask>
<g mask="url(#mask2_1047_1356)">
<g id="Group_5">
<path id="Vector_8" d="M59.8469 11.5641H43.7446V11.7559H59.8469V11.5641Z" fill="white"/>
</g>
</g>
</g>
<g id="Clip path group_4">
<mask id="mask3_1047_1356" style="mask-type:luminance" maskUnits="userSpaceOnUse" x="43" y="7" width="18" height="19">
<g id="SVGID_00000040576172997581480630000000714559539215595403__4">
<path id="Vector_9" d="M47.0036 24.0242C45.2784 24.0242 43.9365 21.3405 43.9365 16.5482C43.9365 11.7559 44.895 9.83892 46.4285 9.83892L60.8055 7.73029V25.1744L47.0036 24.0242Z" fill="white"/>
</g>
</mask>
<g mask="url(#mask3_1047_1356)">
<g id="Group_6">
<path id="Vector_10" d="M59.8469 12.1393H43.7446V12.3309H59.8469V12.1393Z" fill="white"/>
</g>
</g>
</g>
<g id="Clip path group_5">
<mask id="mask4_1047_1356" style="mask-type:luminance" maskUnits="userSpaceOnUse" x="43" y="7" width="18" height="19">
<g id="SVGID_00000040576172997581480630000000714559539215595403__5">
<path id="Vector_11" d="M47.0036 24.0242C45.2784 24.0242 43.9365 21.3405 43.9365 16.5482C43.9365 11.7559 44.895 9.83892 46.4285 9.83892L60.8055 7.73029V25.1744L47.0036 24.0242Z" fill="white"/>
</g>
</mask>
<g mask="url(#mask4_1047_1356)">
<g id="Group_7">
<path id="Vector_12" d="M59.8469 12.7146H43.7446V12.9063H59.8469V12.7146Z" fill="white"/>
</g>
</g>
</g>
<g id="Clip path group_6">
<mask id="mask5_1047_1356" style="mask-type:luminance" maskUnits="userSpaceOnUse" x="43" y="7" width="18" height="19">
<g id="SVGID_00000040576172997581480630000000714559539215595403__6">
<path id="Vector_13" d="M47.0036 24.0242C45.2784 24.0242 43.9365 21.3405 43.9365 16.5482C43.9365 11.7559 44.895 9.83892 46.4285 9.83892L60.8055 7.73029V25.1744L47.0036 24.0242Z" fill="white"/>
</g>
</mask>
<g mask="url(#mask5_1047_1356)">
<g id="Group_8">
<path id="Vector_14" d="M59.8469 13.4811H43.7446V13.6728H59.8469V13.4811Z" fill="white"/>
</g>
</g>
</g>
<g id="Clip path group_7">
<mask id="mask6_1047_1356" style="mask-type:luminance" maskUnits="userSpaceOnUse" x="43" y="7" width="18" height="19">
<g id="SVGID_00000040576172997581480630000000714559539215595403__7">
<path id="Vector_15" d="M47.0036 24.0242C45.2784 24.0242 43.9365 21.3405 43.9365 16.5482C43.9365 11.7559 44.895 9.83892 46.4285 9.83892L60.8055 7.73029V25.1744L47.0036 24.0242Z" fill="white"/>
</g>
</mask>
<g mask="url(#mask6_1047_1356)">
<g id="Group_9">
<path id="Vector_16" d="M59.8469 14.0564H43.7446V14.248H59.8469V14.0564Z" fill="white"/>
</g>
</g>
</g>
<g id="Clip path group_8">
<mask id="mask7_1047_1356" style="mask-type:luminance" maskUnits="userSpaceOnUse" x="43" y="7" width="18" height="19">
<g id="SVGID_00000040576172997581480630000000714559539215595403__8">
<path id="Vector_17" d="M47.0036 24.0242C45.2784 24.0242 43.9365 21.3405 43.9365 16.5482C43.9365 11.7559 44.895 9.83892 46.4285 9.83892L60.8055 7.73029V25.1744L47.0036 24.0242Z" fill="white"/>
</g>
</mask>
<g mask="url(#mask7_1047_1356)">
<g id="Group_10">
<path id="Vector_18" d="M59.8469 14.6315H43.7446V14.8232H59.8469V14.6315Z" fill="white"/>
</g>
</g>
</g>
<g id="Clip path group_9">
<mask id="mask8_1047_1356" style="mask-type:luminance" maskUnits="userSpaceOnUse" x="43" y="7" width="18" height="19">
<g id="SVGID_00000040576172997581480630000000714559539215595403__9">
<path id="Vector_19" d="M47.0036 24.0242C45.2784 24.0242 43.9365 21.3405 43.9365 16.5482C43.9365 11.7559 44.895 9.83892 46.4285 9.83892L60.8055 7.73029V25.1744L47.0036 24.0242Z" fill="white"/>
</g>
</mask>
<g mask="url(#mask8_1047_1356)">
<g id="Group_11">
<path id="Vector_20" d="M59.8469 15.2061H43.7446V15.3978H59.8469V15.2061Z" fill="white"/>
</g>
</g>
</g>
<g id="Clip path group_10">
<mask id="mask9_1047_1356" style="mask-type:luminance" maskUnits="userSpaceOnUse" x="43" y="7" width="18" height="19">
<g id="SVGID_00000040576172997581480630000000714559539215595403__10">
<path id="Vector_21" d="M47.0036 24.0242C45.2784 24.0242 43.9365 21.3405 43.9365 16.5482C43.9365 11.7559 44.895 9.83892 46.4285 9.83892L60.8055 7.73029V25.1744L47.0036 24.0242Z" fill="white"/>
</g>
</mask>
<g mask="url(#mask9_1047_1356)">
<g id="Group_12">
<path id="Vector_22" d="M59.8469 15.7814H43.7446V15.9731H59.8469V15.7814Z" fill="white"/>
</g>
</g>
</g>
<g id="Clip path group_11">
<mask id="mask10_1047_1356" style="mask-type:luminance" maskUnits="userSpaceOnUse" x="43" y="7" width="18" height="19">
<g id="SVGID_00000040576172997581480630000000714559539215595403__11">
<path id="Vector_23" d="M47.0036 24.0242C45.2784 24.0242 43.9365 21.3405 43.9365 16.5482C43.9365 11.7559 44.895 9.83892 46.4285 9.83892L60.8055 7.73029V25.1744L47.0036 24.0242Z" fill="white"/>
</g>
</mask>
<g mask="url(#mask10_1047_1356)">
<g id="Group_13">
<path id="Vector_24" d="M59.8469 16.5485H43.7446V16.7402H59.8469V16.5485Z" fill="white"/>
</g>
</g>
</g>
<g id="Clip path group_12">
<mask id="mask11_1047_1356" style="mask-type:luminance" maskUnits="userSpaceOnUse" x="43" y="7" width="18" height="19">
<g id="SVGID_00000040576172997581480630000000714559539215595403__12">
<path id="Vector_25" d="M47.0036 24.0242C45.2784 24.0242 43.9365 21.3405 43.9365 16.5482C43.9365 11.7559 44.895 9.83892 46.4285 9.83892L60.8055 7.73029V25.1744L47.0036 24.0242Z" fill="white"/>
</g>
</mask>
<g mask="url(#mask11_1047_1356)">
<g id="Group_14">
<path id="Vector_26" d="M59.8469 17.123H43.7446V17.3148H59.8469V17.123Z" fill="white"/>
</g>
</g>
</g>
<g id="Clip path group_13">
<mask id="mask12_1047_1356" style="mask-type:luminance" maskUnits="userSpaceOnUse" x="43" y="7" width="18" height="19">
<g id="SVGID_00000040576172997581480630000000714559539215595403__13">
<path id="Vector_27" d="M47.0036 24.0242C45.2784 24.0242 43.9365 21.3405 43.9365 16.5482C43.9365 11.7559 44.895 9.83892 46.4285 9.83892L60.8055 7.73029V25.1744L47.0036 24.0242Z" fill="white"/>
</g>
</mask>
<g mask="url(#mask12_1047_1356)">
<g id="Group_15">
<path id="Vector_28" d="M59.8469 17.6984H43.7446V17.8901H59.8469V17.6984Z" fill="white"/>
</g>
</g>
</g>
<g id="Clip path group_14">
<mask id="mask13_1047_1356" style="mask-type:luminance" maskUnits="userSpaceOnUse" x="43" y="7" width="18" height="19">
<g id="SVGID_00000040576172997581480630000000714559539215595403__14">
<path id="Vector_29" d="M47.0036 24.0242C45.2784 24.0242 43.9365 21.3405 43.9365 16.5482C43.9365 11.7559 44.895 9.83892 46.4285 9.83892L60.8055 7.73029V25.1744L47.0036 24.0242Z" fill="white"/>
</g>
</mask>
<g mask="url(#mask13_1047_1356)">
<g id="Group_16">
<path id="Vector_30" d="M59.8469 18.2735H43.7446V18.4652H59.8469V18.2735Z" fill="white"/>
</g>
</g>
</g>
<g id="Clip path group_15">
<mask id="mask14_1047_1356" style="mask-type:luminance" maskUnits="userSpaceOnUse" x="43" y="7" width="18" height="19">
<g id="SVGID_00000040576172997581480630000000714559539215595403__15">
<path id="Vector_31" d="M47.0036 24.0242C45.2784 24.0242 43.9365 21.3405 43.9365 16.5482C43.9365 11.7559 44.895 9.83892 46.4285 9.83892L60.8055 7.73029V25.1744L47.0036 24.0242Z" fill="white"/>
</g>
</mask>
<g mask="url(#mask14_1047_1356)">
<g id="Group_17">
<path id="Vector_32" d="M59.8469 18.8486H43.7446V19.0403H59.8469V18.8486Z" fill="white"/>
</g>
</g>
</g>
<g id="Clip path group_16">
<mask id="mask15_1047_1356" style="mask-type:luminance" maskUnits="userSpaceOnUse" x="43" y="7" width="18" height="19">
<g id="SVGID_00000040576172997581480630000000714559539215595403__16">
<path id="Vector_33" d="M47.0036 24.0242C45.2784 24.0242 43.9365 21.3405 43.9365 16.5482C43.9365 11.7559 44.895 9.83892 46.4285 9.83892L60.8055 7.73029V25.1744L47.0036 24.0242Z" fill="white"/>
</g>
</mask>
<g mask="url(#mask15_1047_1356)">
<g id="Group_18">
<path id="Vector_34" d="M59.8469 19.6153H43.7446V19.807H59.8469V19.6153Z" fill="white"/>
</g>
</g>
</g>
<g id="Clip path group_17">
<mask id="mask16_1047_1356" style="mask-type:luminance" maskUnits="userSpaceOnUse" x="43" y="7" width="18" height="19">
<g id="SVGID_00000040576172997581480630000000714559539215595403__17">
<path id="Vector_35" d="M47.0036 24.0242C45.2784 24.0242 43.9365 21.3405 43.9365 16.5482C43.9365 11.7559 44.895 9.83892 46.4285 9.83892L60.8055 7.73029V25.1744L47.0036 24.0242Z" fill="white"/>
</g>
</mask>
<g mask="url(#mask16_1047_1356)">
<g id="Group_19">
<path id="Vector_36" d="M59.8469 20.1904H43.7446V20.3821H59.8469V20.1904Z" fill="white"/>
</g>
</g>
</g>
<g id="Clip path group_18">
<mask id="mask17_1047_1356" style="mask-type:luminance" maskUnits="userSpaceOnUse" x="43" y="7" width="18" height="19">
<g id="SVGID_00000040576172997581480630000000714559539215595403__18">
<path id="Vector_37" d="M47.0036 24.0242C45.2784 24.0242 43.9365 21.3405 43.9365 16.5482C43.9365 11.7559 44.895 9.83892 46.4285 9.83892L60.8055 7.73029V25.1744L47.0036 24.0242Z" fill="white"/>
</g>
</mask>
<g mask="url(#mask17_1047_1356)">
<g id="Group_20">
<path id="Vector_38" d="M59.8469 20.7656H43.7446V20.9572H59.8469V20.7656Z" fill="white"/>
</g>
</g>
</g>
<g id="Clip path group_19">
<mask id="mask18_1047_1356" style="mask-type:luminance" maskUnits="userSpaceOnUse" x="43" y="7" width="18" height="19">
<g id="SVGID_00000040576172997581480630000000714559539215595403__19">
<path id="Vector_39" d="M47.0036 24.0242C45.2784 24.0242 43.9365 21.3405 43.9365 16.5482C43.9365 11.7559 44.895 9.83892 46.4285 9.83892L60.8055 7.73029V25.1744L47.0036 24.0242Z" fill="white"/>
</g>
</mask>
<g mask="url(#mask18_1047_1356)">
<g id="Group_21">
<path id="Vector_40" d="M59.8469 21.3407H43.7446V21.5324H59.8469V21.3407Z" fill="white"/>
</g>
</g>
</g>
<g id="Clip path group_20">
<mask id="mask19_1047_1356" style="mask-type:luminance" maskUnits="userSpaceOnUse" x="43" y="7" width="18" height="19">
<g id="SVGID_00000040576172997581480630000000714559539215595403__20">
<path id="Vector_41" d="M47.0036 24.0242C45.2784 24.0242 43.9365 21.3405 43.9365 16.5482C43.9365 11.7559 44.895 9.83892 46.4285 9.83892L60.8055 7.73029V25.1744L47.0036 24.0242Z" fill="white"/>
</g>
</mask>
<g mask="url(#mask19_1047_1356)">
<g id="Group_22">
<path id="Vector_42" d="M59.8469 21.9155H43.7446V22.1072H59.8469V21.9155Z" fill="white"/>
</g>
</g>
</g>
<g id="Clip path group_21">
<mask id="mask20_1047_1356" style="mask-type:luminance" maskUnits="userSpaceOnUse" x="43" y="7" width="18" height="19">
<g id="SVGID_00000040576172997581480630000000714559539215595403__21">
<path id="Vector_43" d="M47.0036 24.0242C45.2784 24.0242 43.9365 21.3405 43.9365 16.5482C43.9365 11.7559 44.895 9.83892 46.4285 9.83892L60.8055 7.73029V25.1744L47.0036 24.0242Z" fill="white"/>
</g>
</mask>
<g mask="url(#mask20_1047_1356)">
<g id="Group_23">
<path id="Vector_44" d="M59.8469 22.4906H43.7446V22.6823H59.8469V22.4906Z" fill="white"/>
</g>
</g>
</g>
<g id="Clip path group_22">
<mask id="mask21_1047_1356" style="mask-type:luminance" maskUnits="userSpaceOnUse" x="43" y="7" width="18" height="19">
<g id="SVGID_00000040576172997581480630000000714559539215595403__22">
<path id="Vector_45" d="M47.0036 24.0242C45.2784 24.0242 43.9365 21.3405 43.9365 16.5482C43.9365 11.7559 44.895 9.83892 46.4285 9.83892L60.8055 7.73029V25.1744L47.0036 24.0242Z" fill="white"/>
</g>
</mask>
<g mask="url(#mask21_1047_1356)">
<g id="Group_24">
<path id="Vector_46" d="M59.8469 23.2576H43.7446V23.4493H59.8469V23.2576Z" fill="white"/>
</g>
</g>
</g>
<g id="Clip path group_23">
<mask id="mask22_1047_1356" style="mask-type:luminance" maskUnits="userSpaceOnUse" x="43" y="7" width="18" height="19">
<g id="SVGID_00000040576172997581480630000000714559539215595403__23">
<path id="Vector_47" d="M47.0036 24.0242C45.2784 24.0242 43.9365 21.3405 43.9365 16.5482C43.9365 11.7559 44.895 9.83892 46.4285 9.83892L60.8055 7.73029V25.1744L47.0036 24.0242Z" fill="white"/>
</g>
</mask>
<g mask="url(#mask22_1047_1356)">
<g id="Group_25">
<path id="Vector_48" d="M59.8469 23.8324H43.7446V24.0241H59.8469V23.8324Z" fill="white"/>
</g>
</g>
</g>
</g>
<path id="Vector_49" d="M47.7703 7.73029H33.3933V27.8581H47.7703V7.73029Z" fill="white"/>
</g>
</svg>
