<svg width="61" height="62" viewBox="0 0 61 62" fill="none" xmlns="http://www.w3.org/2000/svg">
<path d="M21.4236 61.0086L29.8059 18.5087V1.44983H35.6883V18.6557L44.5118 61.0086H21.4236Z" stroke="white" stroke-width="1.6" stroke-miterlimit="10"/>
<path d="M28.3973 32.6301C31.3212 32.6301 33.6915 30.2599 33.6915 27.336C33.6915 24.4121 31.3212 22.0419 28.3973 22.0419C25.4735 22.0419 23.1032 24.4121 23.1032 27.336C23.1032 30.2599 25.4735 32.6301 28.3973 32.6301Z" fill="white"/>
<path d="M35.7503 12.336C37.2122 12.336 38.3973 11.1509 38.3973 9.68896C38.3973 8.22703 37.2122 7.04187 35.7503 7.04187C34.2884 7.04187 33.1032 8.22703 33.1032 9.68896C33.1032 11.1509 34.2884 12.336 35.7503 12.336Z" fill="white"/>
<path d="M41.1032 44.0419L28.1032 34.0419H39.081" stroke="white" stroke-width="1.6" stroke-miterlimit="10"/>
<path d="M41.2763 43.3616L23.9233 55.2734L42.0116 55.1263L24.9527 43.5087" stroke="white" stroke-width="1.6" stroke-miterlimit="10"/>
<path d="M38.9237 34.244L24.9531 44.244" stroke="white" stroke-width="1.6" stroke-miterlimit="10"/>
<path d="M29.8054 18.5085H35.6877" stroke="white" stroke-width="1.6" stroke-miterlimit="10"/>
<path d="M29.8054 5.86157H35.6877" stroke="white" stroke-miterlimit="10"/>
<path d="M16.4235 36.7438C14.5117 35.1261 13.1882 31.5967 13.1882 27.6261C13.1882 23.6555 14.5117 20.1261 16.4235 18.5085" stroke="white" stroke-miterlimit="10"/>
<path d="M19.2181 34.6849C17.8945 32.9202 17.0122 30.4202 17.0122 27.6261C17.0122 24.832 17.8945 22.332 19.2181 20.5673" stroke="white" stroke-miterlimit="10"/>
<path d="M22.0117 31.7438C21.2764 30.4203 20.6882 29.0967 20.6882 27.6261C20.6882 26.4497 20.9823 25.4203 21.4235 24.3909" stroke="white" stroke-miterlimit="10"/>
<path d="M39.6584 6.44977C40.3937 7.7733 40.9819 9.09681 40.9819 10.5674C40.9819 11.7439 40.6878 12.7733 40.2466 13.8027" stroke="white" stroke-miterlimit="10"/>
<path d="M41.9819 3.06738C43.3055 4.83209 44.1878 7.33207 44.1878 10.1262C44.1878 12.9203 43.3055 15.4203 41.9819 17.185" stroke="white" stroke-miterlimit="10"/>
<path d="M45.1878 1.00854C47.0996 2.62619 48.4231 6.15562 48.4231 10.1262C48.4231 14.0968 47.0996 17.6262 45.1878 19.2439" stroke="white" stroke-miterlimit="10"/>
</svg>
